<svg width="1440" height="810" fill="none" xmlns="http://www.w3.org/2000/svg"><path d="M476.518 480.234l-1.309-9.438-3.576 2.149.937 1.56-.9.541-1.457-2.424 5.497-3.302.533.888 1.355 9.377-1.08.649zm6.693-14.213l-3.672 2.206 1.678 3.337.084-.051c.031-.4.121-.758.268-1.076.155-.321.452-.614.892-.879.36-.216.729-.356 1.105-.418.376-.063.743-.05 1.102.04.354.081.687.246.999.494.32.243.603.568.848.976.245.408.407.823.486 1.244.074.413.061.818-.038 1.215-.096.384-.279.75-.549 1.097a3.693 3.693 0 01-1.053.911 3.849 3.849 0 01-1.009.442 3.177 3.177 0 01-.902.102 3.665 3.665 0 01-.826-.124 6.276 6.276 0 01-.738-.276l.41-1.03c.205.105.405.192.598.261.202.064.4.103.593.117.202.01.412-.013.629-.067.213-.063.448-.171.704-.325.576-.346.92-.76 1.034-1.242.113-.482.004-.999-.328-1.551l-.072-.12c-.332-.552-.737-.891-1.215-1.017-.479-.126-1.006-.016-1.582.33-.384.231-.645.485-.783.764a3.368 3.368 0 00-.292.845l-.924.392-2.469-4.788 4.488-2.697.534.888zm8.034 5.364l.776-11.866.924-.555-.775 11.866-.925.555zm-1.784-4.057c-.608.366-1.196.447-1.764.244-.573-.211-1.093-.704-1.559-1.48-.467-.776-.656-1.463-.568-2.06.083-.605.428-1.09 1.036-1.456.608-.365 1.199-.442 1.772-.231.568.203 1.085.692 1.552 1.468.466.776.658 1.467.575 2.072-.088.597-.436 1.078-1.044 1.443zm-.375-.624c.688-.413.754-1.084.196-2.012l-.433-.72c-.557-.928-1.18-1.185-1.868-.772-.688.414-.753 1.084-.196 2.012l.433.72c.558.929 1.18 1.186 1.868.772zm8.498 1.068c-.608.366-1.196.447-1.764.244-.574-.211-1.093-.704-1.56-1.481-.466-.776-.655-1.462-.567-2.059.082-.605.428-1.091 1.036-1.456.608-.365 1.198-.442 1.772-.231.568.202 1.085.692 1.552 1.468.466.776.658 1.467.575 2.072-.088.597-.436 1.078-1.044 1.443zm-.375-.624c.688-.413.753-1.084.196-2.012l-.433-.72c-.557-.928-1.18-1.185-1.868-.772-.688.414-.753 1.084-.196 2.012l.433.72c.557.928 1.18 1.186 1.868.772z" fill="#fff"/><g clip-path="url(#clip0)"><path d="M445.445 457.295a.666.666 0 01.915.228l1.03 1.714a.667.667 0 01-1.143.687l-1.03-1.714a.668.668 0 01.228-.915zm5.15 8.572a.667.667 0 01.915.228l1.03 1.714a.668.668 0 01-1.143.687l-1.03-1.715a.664.664 0 01.228-.914zm3.998-6.291a.664.664 0 01-.228.915l-1.714 1.03a.667.667 0 01-.687-1.143l1.714-1.03a.668.668 0 01.915.228zm-8.572 5.15a.668.668 0 01-.228.915l-1.714 1.03a.667.667 0 01-.687-1.143l1.714-1.03a.667.667 0 01.915.228zm9.326-.104a.667.667 0 01-.808.486l-1.94-.484a.666.666 0 01-.176-1.212.665.665 0 01.498-.082l1.94.484a.656.656 0 01.411.303.674.674 0 01.075.505zm-9.703-2.419a.668.668 0 01-.808.485l-1.94-.483a.668.668 0 01.323-1.294l1.939.484a.667.667 0 01.486.808zm1.622 7.275a.668.668 0 01-.485-.808l.484-1.941a.66.66 0 01.548-.509.68.68 0 01.5.125.673.673 0 01.262.444.667.667 0 01-.017.263l-.483 1.94a.66.66 0 01-.304.41.667.667 0 01-.505.076zm2.419-9.703a.665.665 0 01-.485-.808l.483-1.94a.665.665 0 011.218-.183.667.667 0 01.076.505l-.484 1.94a.667.667 0 01-.808.486z" fill="#fff"/></g><path d="M462.796 460.48l-.534-.888 2.34-1.406-4.052-6.744-.084.051-.93 3.237-.97-.283.973-3.41 1.572-.945 4.499 7.489 2.16-1.298.534.888-5.508 3.309zm7.736-14.84l-3.672 2.207 1.678 3.336.084-.051c.032-.4.121-.758.268-1.075.155-.322.453-.615.893-.88a3.13 3.13 0 011.104-.418 2.686 2.686 0 011.102.04c.354.081.687.246.999.494.32.243.603.569.848.977.245.408.407.822.486 1.243.074.413.061.818-.038 1.215-.095.384-.278.75-.549 1.098a3.706 3.706 0 01-1.053.91 3.882 3.882 0 01-1.008.443 3.214 3.214 0 01-.903.101 3.61 3.61 0 01-.826-.124 6.196 6.196 0 01-.737-.276l.41-1.03c.205.105.404.192.598.261.201.064.399.103.593.117.201.01.411-.013.629-.067.213-.063.447-.171.703-.325.576-.346.921-.76 1.034-1.242.113-.482.004-.999-.327-1.551l-.073-.12c-.331-.552-.736-.891-1.215-1.017-.479-.126-1.006-.016-1.582.33-.384.231-.645.485-.782.764a3.345 3.345 0 00-.293.845l-.924.392-2.469-4.788 4.488-2.697.534.888zm9.525 4.664c-1 .601-1.96.661-2.881.18-.912-.486-1.78-1.413-2.602-2.781-.822-1.368-1.233-2.569-1.234-3.603.008-1.039.511-1.859 1.511-2.46 1-.601 1.957-.658 2.869-.172.921.481 1.792 1.406 2.614 2.774.822 1.368 1.23 2.571 1.222 3.61.001 1.034-.499 1.852-1.499 2.452zm-.526-.876c.328-.197.567-.433.717-.708.151-.276.223-.581.218-.915a3.222 3.222 0 00-.214-1.064 6.192 6.192 0 00-.563-1.181l-.822-1.368a6.22 6.22 0 00-.778-1.051 3.226 3.226 0 00-.839-.688 1.807 1.807 0 00-.91-.237c-.313.003-.634.103-.962.3-.328.197-.567.434-.718.709-.15.275-.223.58-.218.915.005.334.073.691.203 1.071.138.374.329.765.574 1.173l.822 1.368c.245.408.501.761.767 1.059.274.292.557.52.85.681.293.162.597.241.91.237.314-.003.635-.103.963-.301zm7.842-3.519c-1 .601-1.961.661-2.881.179-.913-.486-1.78-1.413-2.602-2.781-.822-1.368-1.234-2.569-1.234-3.603.007-1.039.511-1.858 1.511-2.459 1-.601 1.956-.659 2.869-.173.921.482 1.792 1.406 2.614 2.774.822 1.368 1.229 2.572 1.222 3.611.001 1.034-.499 1.851-1.499 2.452zm-.526-.876c.328-.197.567-.433.717-.709.15-.275.223-.58.218-.915a3.242 3.242 0 00-.214-1.063 6.224 6.224 0 00-.563-1.181l-.822-1.368a6.182 6.182 0 00-.779-1.051 3.227 3.227 0 00-.838-.689 1.828 1.828 0 00-.91-.237c-.314.003-.635.104-.963.301-.328.197-.567.433-.717.708-.15.276-.223.581-.218.915.005.335.072.692.202 1.071.138.374.33.766.575 1.174l.822 1.368c.245.408.501.761.766 1.058.274.293.558.52.851.681.293.162.596.241.91.238.314-.004.634-.104.963-.301zm9.235-4.553l-1.008.606-5.033-8.377 3.336-2.004c.736-.442 1.431-.582 2.084-.419.661.158 1.222.621 1.684 1.389.37.616.531 1.21.483 1.784-.044.56-.304 1.07-.779 1.529l4.141 2.543-1.14.685-3.975-2.511-1.956 1.175 2.163 3.6zm-.354-5.863c.4-.24.645-.529.736-.867.099-.343.033-.706-.197-1.09l-.375-.624c-.231-.384-.521-.613-.87-.686-.341-.078-.711.003-1.111.243l-2.329 1.399 1.818 3.024 2.328-1.399zm7.142 1.784l-5.033-8.376 3.336-2.004c.752-.452 1.458-.582 2.117-.391.663.179 1.218.641 1.665 1.385.447.744.597 1.454.448 2.131-.145.665-.594 1.223-1.346 1.675l-2.328 1.399 2.149 3.576-1.008.605zm-1.674-5.069l2.328-1.399c.4-.241.645-.53.736-.868.099-.342.033-.705-.197-1.089l-.375-.624c-.231-.384-.521-.613-.87-.687-.341-.078-.711.003-1.111.244l-2.329 1.398 1.818 3.025zm11.36-10.354l-.06.036.135 1.829.188 4.853-4.196-2.444-1.551-.979-.06.036 4.239 7.056-.984.591-5.033-8.376 1.344-.807 5.112 3.07.06-.036-.299-5.962 1.296-.779 5.033 8.377-.984.591-4.24-7.056zM706.913 344.6c-.432.26-.867.423-1.306.491-.435.055-.858.02-1.27-.103a3.388 3.388 0 01-1.165-.688 5.137 5.137 0 01-.999-1.229 6.337 6.337 0 01-.777-1.918 7.724 7.724 0 01-.193-1.925 8.106 8.106 0 01.251-1.784c.14-.564.313-1.054.52-1.472l1.296-.779a19.155 19.155 0 00-.623 1.681 8.206 8.206 0 00-.333 1.539 6.562 6.562 0 00-.016 1.496c.047.495.161 1.02.342 1.575l.074-.012a3.187 3.187 0 01.256-1.314c.181-.424.527-.79 1.039-1.097.36-.217.728-.356 1.104-.419.377-.063.74-.047 1.091.047.35.095.682.266.994.514.32.243.598.56.834.952.245.408.403.825.473 1.251.074.413.062.818-.037 1.215a2.976 2.976 0 01-.537 1.09 3.596 3.596 0 01-1.018.889zm-.538-.869c.552-.331.888-.74 1.01-1.227.129-.492.023-1.021-.318-1.589l-.058-.096c-.341-.568-.759-.911-1.254-1.027-.486-.122-1.006-.016-1.558.315-.552.332-.892.744-1.022 1.235-.121.487-.011 1.014.33 1.582l.058.096c.341.568.755.913 1.242 1.034.494.117 1.018.009 1.57-.323zm5.632-12.579l-3.672 2.206 1.678 3.337.084-.051c.032-.4.121-.759.268-1.076.155-.321.453-.615.893-.879a3.13 3.13 0 011.104-.418c.376-.063.743-.05 1.102.04.354.081.687.246.999.494.32.243.603.568.848.976.245.408.407.823.486 1.244.074.413.061.818-.038 1.215-.096.384-.279.75-.549 1.097a3.709 3.709 0 01-1.053.911 3.877 3.877 0 01-1.008.442 3.183 3.183 0 01-.903.102 3.61 3.61 0 01-.826-.125 6.022 6.022 0 01-.737-.275l.409-1.031c.205.106.405.193.598.262.202.064.4.103.594.117.201.01.411-.013.629-.068a3.06 3.06 0 00.703-.324c.576-.346.921-.76 1.034-1.242.113-.482.004-.999-.328-1.551l-.072-.12c-.331-.552-.737-.891-1.215-1.017-.479-.126-1.006-.016-1.582.33-.384.23-.645.485-.783.764a3.368 3.368 0 00-.292.845l-.924.392-2.469-4.788 4.488-2.697.534.888zm8.035 5.364l.775-11.866.924-.556-.775 11.867-.924.555zm-1.784-4.057c-.608.366-1.197.447-1.765.244-.573-.211-1.093-.704-1.559-1.481-.466-.776-.656-1.462-.568-2.059.083-.605.428-1.091 1.036-1.456.608-.365 1.199-.442 1.772-.231.568.202 1.086.692 1.552 1.468.466.776.658 1.467.575 2.072-.088.597-.435 1.078-1.043 1.443zm-.375-.624c.688-.413.753-1.084.195-2.012l-.432-.72c-.558-.928-1.181-1.185-1.869-.772-.688.414-.753 1.084-.195 2.012l.432.72c.558.928 1.181 1.186 1.869.772zm8.497 1.068c-.608.365-1.196.447-1.764.244-.573-.211-1.093-.705-1.559-1.481-.467-.776-.656-1.462-.568-2.059.083-.605.428-1.091 1.036-1.456.608-.365 1.199-.443 1.772-.232.568.203 1.085.693 1.552 1.469.466.776.658 1.466.575 2.071-.088.598-.436 1.079-1.044 1.444zm-.375-.624c.688-.413.754-1.084.196-2.012l-.433-.72c-.557-.928-1.18-1.185-1.868-.772-.688.413-.753 1.084-.196 2.012l.433.72c.558.928 1.18 1.186 1.868.772z" fill="#fff"/><g clip-path="url(#clip1)"><path d="M677.877 326.463l4-2.404-.679 10.519-3.09-5.143-4 2.404.679-10.519 3.09 5.143z" fill="#fff"/></g><path d="M691.087 319.348c.568-.341.915-.724 1.041-1.148.13-.437.072-.86-.173-1.268l-.051-.084c-.264-.44-.601-.684-1.011-.731-.407-.061-.834.043-1.282.313-.432.259-.726.567-.883.922a2.499 2.499 0 00-.218 1.16l-1.09-.129c.003-.231.029-.469.077-.716.051-.259.138-.513.261-.761s.292-.491.508-.73c.216-.239.492-.459.828-.661a3.928 3.928 0 011.083-.454c.365-.1.714-.125 1.049-.075.338.036.65.148.937.335.294.182.543.442.744.778.164.272.266.542.308.811.05.264.051.519.003.766a2.34 2.34 0 01-.271.718 2.774 2.774 0 01-.472.627l.029.048a2.82 2.82 0 01.792-.15c.278-.025.55.002.816.082.269.067.526.195.771.386.248.177.466.422.654.734.216.36.347.733.394 1.119.042.377.004.749-.114 1.114a3.234 3.234 0 01-.605 1.032c-.28.332-.632.625-1.056.88-.36.216-.704.368-1.032.457a3.36 3.36 0 01-.939.123 3.832 3.832 0 01-.85-.11 5.16 5.16 0 01-.749-.269l.41-1.03c.205.106.408.19.61.254a2.353 2.353 0 001.282.014c.221-.068.46-.178.716-.332.592-.356.96-.757 1.106-1.204.14-.454.061-.93-.237-1.426l-.057-.096c-.298-.496-.679-.784-1.141-.866-.468-.089-.997.044-1.589.4l-.985.591-.526-.876.912-.548zm10.769.292c-.48.288-.936.48-1.368.577a3.271 3.271 0 01-1.222.032 2.565 2.565 0 01-1.014-.437 2.958 2.958 0 01-.757-.852c-.346-.576-.464-1.125-.354-1.649.11-.523.377-1.004.799-1.443l-.058-.096c-.531.112-1.03.08-1.496-.098-.462-.19-.838-.525-1.126-1.005-.385-.64-.458-1.288-.22-1.942.233-.663.77-1.247 1.61-1.752.84-.504 1.607-.704 2.302-.599.69.097 1.227.466 1.612 1.106.288.48.404.971.346 1.474-.054.49-.255.943-.604 1.359l.058.096c.586-.167 1.135-.176 1.649-.027.514.148.944.511 1.29 1.087.207.344.335.702.385 1.075.058.368.028.735-.09 1.1-.111.36-.307.712-.59 1.056-.288.337-.672.649-1.152.938zm-.527-.876c.584-.351.96-.751 1.126-1.199.161-.457.098-.925-.191-1.405l-.151-.252c-.289-.48-.67-.752-1.144-.815-.478-.072-1.01.068-1.594.418-.584.351-.956.755-1.118 1.211-.166.449-.105.913.184 1.393l.151.252c.289.48.672.756 1.151.827.474.064 1.002-.08 1.586-.43zm-2.458-4.093c.528-.317.86-.669.998-1.057.137-.387.076-.797-.183-1.229l-.109-.18c-.259-.432-.592-.678-.999-.739-.406-.06-.874.068-1.402.385-.528.318-.861.67-.998 1.057-.137.388-.076.798.183 1.23l.108.18c.26.432.593.678 1 .738.406.061.874-.067 1.402-.385zm10.409-5.29l-.395 2.034 1.68 2.796-1.008.605-5.033-8.376 1.008-.606 2.675 4.453.036-.022.328-2.173.729-4.522 1.236-.742-.964 5.462 6.213 2.784-1.248.75-5.257-2.443zm9.049.164l-7.073-7.15 1.068-.642 3.323 3.491 2.578 2.714.024-.014-1.102-3.601-1.367-4.667 1.152-.692 3.443 3.419 2.655 2.652.036-.022-1.155-3.552-1.474-4.602 1.032-.62 2.884 9.667-1.116.67-3.601-3.52-2.614-2.61-.024.014 1.054 3.548 1.393 4.847-1.116.67z" fill="#fff"/><defs><clipPath id="clip0"><path fill="#fff" transform="rotate(-31 1048.794 -559.374)" d="M0 0h16v16H0z"/></clipPath><clipPath id="clip1"><path fill="#fff" transform="rotate(-31 919.846 -1039.983)" d="M0 0h16v16H0z"/></clipPath></defs></svg>