<svg width="1440" height="810" fill="none" xmlns="http://www.w3.org/2000/svg"><path d="M442.521 493.5a1.337 1.337 0 00-.456 1.83 1.337 1.337 0 001.829.456 1.337 1.337 0 00.456-1.83 1.338 1.338 0 00-1.829-.456zm8-4.807a1.337 1.337 0 00-.456 1.83 1.337 1.337 0 001.829.456 1.338 1.338 0 00.457-1.83 1.339 1.339 0 00-1.83-.456zm-4 2.404a1.336 1.336 0 00-.456 1.829 1.337 1.337 0 001.829.457 1.338 1.338 0 00.457-1.83 1.337 1.337 0 00-1.83-.456zm17.102-2.692c-.68.409-1.337.629-1.97.662a4.39 4.39 0 01-1.873-.345l.369-1.071c.531.214 1.04.317 1.525.309.48-.017.964-.171 1.452-.465.6-.36.969-.778 1.108-1.254.147-.48.077-.96-.212-1.44-.24-.4-.545-.636-.915-.708-.37-.072-.869-.006-1.498.198l-.778.255c-.874.285-1.62.375-2.24.268-.616-.12-1.119-.504-1.508-1.152a2.642 2.642 0 01-.388-1.106c-.037-.37.007-.723.132-1.059a2.99 2.99 0 01.616-.959c.282-.31.626-.588 1.034-.833.632-.38 1.242-.589 1.83-.626a3.638 3.638 0 011.764.328l-.424 1.006a3.05 3.05 0 00-1.294-.251c-.439.013-.902.166-1.39.46-.536.322-.89.692-1.063 1.112-.169.407-.117.838.157 1.294.24.4.551.627.932.681.384.042.876-.036 1.476-.234l.778-.255c.935-.311 1.699-.389 2.293-.234.594.155 1.078.544 1.453 1.168.231.384.372.773.424 1.167.059.389.03.766-.089 1.131a3.073 3.073 0 01-.609 1.052c-.28.331-.644.632-1.092.901zm-.777-11.815l.96-.577 2.221 3.696.048-.029c-.06-.443-.016-.85.131-1.222.155-.376.465-.704.929-.982.64-.385 1.269-.48 1.887-.285.621.182 1.157.649 1.609 1.401l2.387 3.972-.96.577-2.286-3.804c-.668-1.112-1.47-1.387-2.406-.824a2.596 2.596 0 00-.521.41 1.9 1.9 0 00-.35.505 1.286 1.286 0 00-.125.581c.007.192.07.388.19.588l2.582 4.296-.96.577-5.336-8.88zm14.703 3.448a3.26 3.26 0 01-1.277.457 2.986 2.986 0 01-1.278-.115 3.743 3.743 0 01-1.177-.681 4.85 4.85 0 01-1.011-1.221 4.829 4.829 0 01-.597-1.455 3.574 3.574 0 01-.048-1.359c.075-.437.238-.835.491-1.193a3.255 3.255 0 011.003-.913c.416-.25.838-.4 1.265-.45a2.894 2.894 0 011.285.126c.416.131.812.356 1.189.674.376.318.711.722 1.004 1.21.298.496.499.985.604 1.466.099.474.111.929.036 1.366a2.974 2.974 0 01-.498 1.182 3.16 3.16 0 01-.991.906zm-.512-.852c.52-.313.848-.727.983-1.245.136-.517.007-1.103-.387-1.759l-.534-.888c-.394-.656-.851-1.046-1.372-1.169-.52-.123-1.04-.028-1.56.285-.52.312-.848.727-.984 1.244-.135.517-.006 1.104.388 1.76l.534.888c.394.656.851 1.045 1.371 1.168.521.123 1.041.028 1.561-.284zm.493-7.761l.936-.562 2.268 2.279 2.29 2.316.024-.015-.874-3.166-.828-3.145.852-.512 2.412 2.193 2.398 2.251.024-.014-.994-3.095-.936-3.08.9-.54 2.077 7.18-1.188.714-2.652-2.457-1.673-1.56-.024.014.604 2.202.925 3.495-1.164.699-5.377-5.197zm16.656-1.58l-3.721-6.192.96-.577.606 1.008.048-.029a3.942 3.942 0 01-.027-.588c.01-.202.047-.393.113-.574.073-.185.181-.359.323-.521.138-.17.327-.327.567-.471a2.576 2.576 0 011.308-.378c.459-.014.908.152 1.345.499l.024-.015c-.09-.403-.057-.82.098-1.251.158-.443.501-.823 1.029-1.141.632-.379 1.249-.467 1.851-.263.605.192 1.134.664 1.585 1.416l2.387 3.972-.96.577-2.286-3.804c-.331-.552-.689-.903-1.074-1.053-.384-.151-.812-.084-1.284.2-.192.115-.362.25-.509.403a1.754 1.754 0 00-.326.49 1.212 1.212 0 00-.1.567c.006.192.069.388.19.588l2.581 4.296-.96.577-2.286-3.804c-.331-.552-.689-.903-1.074-1.053-.384-.151-.804-.089-1.26.185-.192.116-.362.25-.509.404-.147.154-.26.32-.338.497a1.363 1.363 0 00-.113.574c.007.192.07.388.191.588l2.581 4.296-.96.577zm13.023-7.629c-.416.25-.841.402-1.277.457a2.981 2.981 0 01-1.277-.114 3.765 3.765 0 01-1.177-.682 4.852 4.852 0 01-1.012-1.221 4.8 4.8 0 01-.596-1.455 3.574 3.574 0 01-.049-1.359c.075-.437.239-.835.492-1.193a3.244 3.244 0 011.003-.913c.416-.25.837-.4 1.265-.45a2.89 2.89 0 011.284.126c.417.131.813.356 1.189.674.377.319.711.722 1.005 1.21.298.496.499.985.603 1.466.1.474.112.93.037 1.367-.08.429-.246.822-.499 1.181a3.15 3.15 0 01-.991.906zm-.512-.852c.52-.313.848-.727.984-1.244.136-.518.006-1.104-.388-1.76l-.533-.888c-.394-.656-.852-1.046-1.372-1.169-.52-.122-1.04-.028-1.56.285-.52.312-.848.727-.984 1.244s-.007 1.104.388 1.76l.533.888c.394.656.852 1.045 1.372 1.168.52.123 1.04.028 1.56-.284zm4.921-1.993l-3.721-6.192.96-.577.685 1.14.06-.036c-.066-.363-.024-.747.124-1.152.149-.406.475-.76.979-1.062l.372-.224.577.96-.564.339c-.52.313-.868.658-1.044 1.036-.172.365-.17.695.008.991l2.524 4.2-.96.577zm6.882-3.939a3.293 3.293 0 01-1.289.464c-.427.05-.849.009-1.265-.122a3.77 3.77 0 01-1.177-.681 5.097 5.097 0 01-1-1.229 5.073 5.073 0 01-.608-1.447 3.555 3.555 0 01-.049-1.359 2.94 2.94 0 01.479-1.186 3.28 3.28 0 011.015-.92c.416-.25.834-.398 1.253-.443.42-.045.827-.001 1.223.131.39.125.756.335 1.097.631.349.291.656.657.921 1.097l.274.456-4.453 2.675.173.288c.159.264.348.488.568.672.222.171.46.295.713.371.261.072.532.089.814.05.29-.043.578-.151.866-.324.392-.236.677-.532.855-.889.185-.362.254-.763.208-1.203l.979.081a2.812 2.812 0 01-.316 1.594c-.27.511-.697.942-1.281 1.293zm-3.41-5.676c-.264.158-.476.35-.634.576a1.879 1.879 0 00-.333.723 2.194 2.194 0 000 .816c.047.277.152.552.315.824l.051.084 3.42-2.055-.079-.132c-.332-.552-.748-.901-1.25-1.046-.497-.158-.994-.088-1.49.21z" fill="#fff"/><g clip-path="url(#clip0)"><path d="M429.368 470.788l1.452-5.822 5.822 1.451a5.996 5.996 0 013.975 8.382 6 6 0 01-11.249-4.011zm2.423-4.205l-1.129 4.527a4.653 4.653 0 00.528 3.533l8-4.807a4.651 4.651 0 00-2.871-2.125l-4.528-1.129v.001z" fill="#fff"/></g><path d="M449.185 458.694l-3.672 2.206 1.678 3.337.084-.051c.031-.4.121-.759.268-1.076.155-.321.452-.614.892-.879.36-.216.729-.356 1.105-.418.376-.063.743-.05 1.102.04.354.081.687.246.999.494.32.243.603.568.848.976.245.408.407.823.486 1.244.074.413.061.818-.038 1.215-.096.384-.279.75-.549 1.097a3.693 3.693 0 01-1.053.911 3.868 3.868 0 01-1.009.442 3.177 3.177 0 01-.902.102 3.61 3.61 0 01-.826-.125 6.099 6.099 0 01-.738-.275l.41-1.03c.205.105.405.192.598.261.202.064.4.103.593.117.202.01.412-.013.63-.067.212-.063.447-.171.703-.325.576-.346.92-.76 1.034-1.242.113-.482.004-.999-.328-1.551l-.072-.12c-.331-.552-.737-.891-1.215-1.017-.479-.126-1.006-.016-1.582.33-.384.231-.645.485-.783.764a3.368 3.368 0 00-.292.845l-.924.392-2.469-4.788 4.488-2.697.534.888zm10.339 3.979l-.988-1.644-4.044 2.43-.534-.888-.007-7.949 1.5-.902 3.54 5.893 1.212-.729.505.84-1.212.729.988 1.644-.96.576zm-4.589-.623l3.096-1.861-3.072-5.112-.06.036.036 6.937zm7.637-7.774c.568-.342.916-.724 1.042-1.149.129-.437.071-.859-.174-1.267l-.05-.084c-.265-.44-.602-.684-1.012-.732-.406-.06-.834.044-1.282.313-.432.26-.726.567-.883.923a2.482 2.482 0 00-.217 1.159l-1.09-.129c.003-.23.028-.469.076-.715.051-.259.138-.513.261-.761.123-.249.293-.492.509-.731a3.64 3.64 0 01.828-.66 3.926 3.926 0 011.082-.455 2.56 2.56 0 011.049-.075c.338.037.65.149.937.336.295.182.543.441.745.777.163.272.266.543.308.811.049.264.05.52.002.766a2.327 2.327 0 01-.27.718 2.764 2.764 0 01-.473.627l.029.048a2.87 2.87 0 01.792-.149c.279-.026.551.001.816.081.269.067.526.196.771.386.249.178.466.422.654.734.216.36.348.733.394 1.119.042.378.004.749-.114 1.114a3.249 3.249 0 01-.605 1.033 4.14 4.14 0 01-1.055.879c-.36.217-.704.369-1.033.457-.328.089-.641.13-.938.123a3.824 3.824 0 01-.85-.11 5.127 5.127 0 01-.75-.268l.41-1.03c.205.105.409.19.61.254.21.059.42.091.63.095.209.005.427-.022.653-.082.22-.067.459-.178.715-.331.592-.356.961-.757 1.106-1.204.14-.455.062-.93-.236-1.426l-.058-.096c-.298-.496-.678-.785-1.141-.866-.467-.089-.997.044-1.589.4l-.984.591-.527-.876.912-.548zm11.155-.137l-5.033-8.376 1.008-.605 4.499 7.488 3.564-2.142.534.888-4.572 2.747z" fill="#fff"/><g clip-path="url(#clip1)"><path d="M671.371 325.389a6.665 6.665 0 019.148 2.281 6.666 6.666 0 11-11.429 6.867 6.667 6.667 0 012.281-9.148zm.687 1.143a5.333 5.333 0 105.494 9.143 5.334 5.334 0 00-5.494-9.143zm3.336.59a.396.396 0 01.756.189c-.2 2.489-.325 3.834-.375 4.034a1 1 0 01-1.941-.484c.086-.341.605-1.588 1.56-3.739zm2.21 1.521a.668.668 0 11.686 1.146.668.668 0 01-.686-1.146zm-6.286 3.777a.668.668 0 11.686 1.146.668.668 0 01-.686-1.146zm.09-2.851a.668.668 0 01-.322 1.294.667.667 0 01.322-1.294zm1.165-2.18a.666.666 0 11.687 1.142.666.666 0 01-.687-1.142z" fill="#fff"/></g><path d="M692.166 326.505l-.988-1.644-4.044 2.43-.533-.888-.008-7.95 1.5-.901 3.541 5.892 1.212-.729.504.841-1.212.728.988 1.644-.96.577zm-4.589-.624l3.097-1.86-3.072-5.113-.06.036.035 6.937zm11.091-3.087c-.48.288-.936.481-1.368.577a3.271 3.271 0 01-1.222.032 2.563 2.563 0 01-1.014-.436 2.958 2.958 0 01-.757-.852c-.346-.576-.464-1.126-.353-1.65.11-.523.376-1.004.798-1.443l-.058-.096c-.531.112-1.03.08-1.495-.098-.463-.19-.839-.525-1.127-1.005-.385-.64-.458-1.287-.22-1.942.233-.663.77-1.247 1.61-1.751.84-.505 1.608-.705 2.302-.6.69.097 1.227.466 1.612 1.106.288.48.404.971.347 1.474-.054.49-.256.943-.604 1.359l.057.096c.586-.166 1.136-.176 1.65-.027s.944.511 1.29 1.087c.206.344.335.702.384 1.075.058.368.028.735-.09 1.1-.11.36-.307.712-.59 1.057-.288.336-.672.648-1.152.937zm-.526-.876c.584-.351.959-.751 1.125-1.199.161-.456.098-.924-.191-1.404l-.151-.252c-.288-.48-.67-.752-1.143-.816-.479-.072-1.01.068-1.594.419-.584.351-.957.754-1.118 1.211-.167.448-.105.912.183 1.392l.151.252c.289.48.672.756 1.151.828.474.063 1.003-.08 1.587-.431zm-2.459-4.092c.528-.318.861-.67.998-1.057.137-.388.076-.798-.183-1.23l-.108-.18c-.26-.432-.593-.678-1-.738-.406-.061-.874.067-1.402.385-.528.317-.86.669-.998 1.057-.137.387-.076.797.184 1.229l.108.18c.259.432.592.678.999.739.407.06.874-.068 1.402-.385zm10.686.145l-5.033-8.377 1.008-.605 4.499 7.488 3.565-2.142.533.888-4.572 2.748zm6.517-1.45l-3.292-12.574.864-.52 3.292 12.575-.864.519zm7.599-12.193l-4.236 2.545 2.279 3.792-1.008.606-5.033-8.376 1.008-.606 2.22 3.696 4.237-2.545-2.221-3.696 1.008-.606 5.033 8.376-1.008.606-2.279-3.792z" fill="#fff"/><defs><clipPath id="clip0"><path fill="#fff" transform="rotate(-31 1057.39 -529.746)" d="M0 0h16v16H0z"/></clipPath><clipPath id="clip1"><path fill="#fff" transform="rotate(-31 923.938 -1032.658)" d="M0 0h16v16H0z"/></clipPath></defs></svg>