<svg width="1440" height="810" fill="none" xmlns="http://www.w3.org/2000/svg"><g clip-path="url(#clip0)"><path d="M420.835 482.512l2.285-1.373 3.091 5.143-2.286 1.373-3.09-5.143zm6.627-7.093l2.285-1.373 4.464 7.429-2.286 1.373-4.463-7.429zm-6.061-1.025l2.286-1.373 6.524 10.857-2.286 1.374-6.524-10.858z" fill="#fff"/></g><path d="M445.199 473.705l-2.325-1.967-3.385 2.033.646 2.977-1.02.613-2.105-10.135 1.284-.772 7.961 6.617-1.056.634zm-6.979-5.933l-.06.036 1.036 4.931 2.892-1.738-3.868-3.229zm12.405 2.869c-1.064.639-2.108.777-3.133.412-1.029-.372-1.967-1.262-2.813-2.67-.846-1.408-1.199-2.666-1.059-3.774.136-1.116.735-1.993 1.799-2.632.704-.423 1.389-.617 2.053-.58.672.031 1.316.26 1.931.685l-.521.982a2.66 2.66 0 00-1.388-.57c-.502-.057-1.014.07-1.534.383-.36.216-.643.479-.849.788a2.358 2.358 0 00-.367 1.02c-.043.364-.011.753.097 1.167.102.407.284.826.543 1.258l.75 1.248c.519.864 1.125 1.42 1.819 1.668.693.247 1.404.152 2.132-.285.536-.322.902-.727 1.098-1.216a2.83 2.83 0 00.129-1.58l1.107.021c.092.751-.007 1.447-.296 2.089-.295.634-.794 1.163-1.498 1.586zm2.856-12.104l4.499 7.489-1.008.605-4.499-7.488-2.664 1.601-.534-.888 6.336-3.807.534.888-2.664 1.6zm4.582-3.961l3.115 5.184c.48.8.994 1.319 1.54 1.557.541.23 1.183.122 1.927-.325s1.142-.964 1.193-1.55c.046-.593-.172-1.29-.652-2.09l-3.115-5.185 1.008-.605 2.97 4.944c.366.608.627 1.17.784 1.685.165.51.217.986.155 1.426-.062.44-.246.85-.552 1.23-.297.374-.726.73-1.286 1.067-.56.336-1.075.548-1.546.634a2.413 2.413 0 01-1.308-.112c-.41-.156-.802-.427-1.175-.813-.365-.39-.73-.889-1.096-1.497l-2.97-4.944 1.008-.606zm17.429.927l-2.325-1.967-3.384 2.033.645 2.977-1.02.613-2.105-10.136 1.284-.771 7.961 6.617-1.056.634zm-6.978-5.933l-.06.036 1.035 4.931 2.892-1.738-3.867-3.229zm9.542 4.393l-5.033-8.376 1.008-.606 4.499 7.488 3.564-2.141.534.888-4.572 2.747zm6.517-1.45l-3.292-12.574.864-.519 3.292 12.574-.864.519zm6.896-6.414c-.68.409-1.337.63-1.971.662a4.378 4.378 0 01-1.873-.345l.37-1.071c.531.214 1.039.317 1.524.309.481-.016.965-.171 1.453-.464.6-.361.969-.779 1.108-1.254.147-.481.076-.961-.212-1.441-.24-.4-.546-.636-.915-.707-.37-.072-.869-.006-1.498.197l-.778.255c-.874.286-1.621.375-2.24.268-.616-.119-1.119-.503-1.509-1.151a2.658 2.658 0 01-.387-1.107c-.037-.37.007-.722.131-1.059.133-.341.339-.66.617-.958a4.507 4.507 0 011.034-.834c.632-.38 1.242-.588 1.829-.625a3.629 3.629 0 011.765.328l-.424 1.006a3.02 3.02 0 00-1.294-.251c-.439.013-.902.166-1.39.459-.536.322-.891.693-1.063 1.112-.17.407-.117.838.157 1.294.24.4.551.627.932.682.384.041.876-.037 1.476-.234l.778-.255c.935-.311 1.699-.389 2.293-.235.594.155 1.078.545 1.453 1.169.231.384.372.773.423 1.166.06.389.03.766-.088 1.131a3.073 3.073 0 01-.609 1.052c-.28.332-.644.632-1.092.901zm2.823-12.083l4.499 7.488-1.008.606-4.499-7.489-2.664 1.601-.534-.888 6.336-3.807.534.888-2.664 1.601zm13.125 2.305l-2.325-1.968-3.384 2.034.645 2.977-1.02.612-2.105-10.135 1.284-.772 7.962 6.617-1.057.635zm-6.978-5.933l-.06.036 1.035 4.931 2.892-1.738-3.867-3.229zm8.498-1.938l-2.125-1.255-.036.022 4.189 6.972-.984.591-5.033-8.376 1.164-.699 6.132 3.273 2.126 1.255.036-.022-4.19-6.972.984-.592 5.033 8.377-1.164.699-6.132-3.273zm4.616-7.216l2.808-1.687a4.267 4.267 0 011.574-.587 3.251 3.251 0 011.556.143c.511.161 1.005.458 1.482.89.473.424.918.984 1.336 1.68.419.696.706 1.356.864 1.98.152.616.182 1.191.09 1.726-.09.522-.294.998-.612 1.429a4.27 4.27 0 01-1.257 1.115l-2.808 1.687-5.033-8.376zm7.307 5.801c.344-.207.627-.453.847-.738.216-.293.361-.614.434-.963.074-.349.07-.717-.01-1.104a3.771 3.771 0 00-.491-1.224l-.822-1.368a3.661 3.661 0 00-.843-.996 2.656 2.656 0 00-.978-.54 2.31 2.31 0 00-1.046-.057 2.84 2.84 0 00-1.057.39l-1.8 1.081 3.966 6.601 1.8-1.082zm11-5.401l-2.325-1.967-3.384 2.033.645 2.977-1.02.613-2.105-10.136 1.284-.771 7.961 6.617-1.056.634zm-6.978-5.933l-.06.036 1.035 4.931 2.892-1.738-3.867-3.229zm10.55 3.787l-1.008.606-5.033-8.377 3.336-2.004c.736-.442 1.431-.582 2.084-.419.661.158 1.222.621 1.684 1.389.37.616.531 1.211.483 1.784-.044.56-.304 1.07-.779 1.53l4.141 2.542-1.14.685-3.975-2.511-1.956 1.175 2.163 3.6zm-.354-5.863c.4-.24.645-.529.736-.867.099-.343.033-.706-.197-1.09l-.375-.624c-.231-.384-.521-.613-.87-.686-.341-.078-.711.003-1.112.243L530.932 412l1.817 3.024 2.329-1.399zm2.109-6.592l2.808-1.687a4.265 4.265 0 011.575-.587 3.254 3.254 0 011.556.143c.51.161 1.004.458 1.481.89.473.424.918.984 1.336 1.68.419.696.706 1.356.864 1.98.152.616.182 1.192.09 1.726-.09.522-.293.999-.612 1.429a4.256 4.256 0 01-1.257 1.115l-2.808 1.687-5.033-8.376zm7.307 5.801c.344-.207.627-.452.847-.738.216-.293.361-.614.434-.963.074-.349.07-.717-.01-1.104a3.771 3.771 0 00-.491-1.224l-.822-1.368a3.661 3.661 0 00-.843-.996 2.66 2.66 0 00-.977-.54 2.315 2.315 0 00-1.047-.057c-.36.053-.713.183-1.057.39l-1.8 1.082 3.966 6.6 1.8-1.082zm-93.061 78.559c.568-.341.915-.724 1.041-1.148.13-.437.072-.86-.173-1.268l-.051-.084c-.264-.44-.601-.684-1.011-.731-.407-.061-.834.043-1.282.312-.432.26-.726.568-.883.923a2.496 2.496 0 00-.218 1.16l-1.09-.129c.003-.231.029-.469.077-.716.051-.259.138-.513.261-.761s.292-.492.508-.73c.216-.239.492-.459.828-.661a3.928 3.928 0 011.083-.454c.365-.1.714-.125 1.049-.076.338.037.65.149.937.336.294.182.542.441.744.777.164.272.266.543.308.812.05.264.051.519.003.766a2.34 2.34 0 01-.271.718 2.774 2.774 0 01-.472.627l.029.048a2.82 2.82 0 01.792-.15c.278-.025.55.002.816.081.269.068.526.196.771.387.248.177.466.422.654.734.216.36.347.733.394 1.118.042.378.004.75-.114 1.115a3.234 3.234 0 01-.605 1.032c-.28.332-.632.625-1.056.88-.36.216-.704.368-1.032.457a3.36 3.36 0 01-.939.123 3.891 3.891 0 01-.85-.11 5.236 5.236 0 01-.749-.269l.41-1.03c.205.106.408.19.61.254.21.059.419.091.629.096.21.004.428-.023.653-.082.221-.068.459-.178.715-.332.592-.356.961-.757 1.107-1.204.14-.454.061-.93-.237-1.426l-.057-.096c-.298-.496-.679-.784-1.141-.866-.468-.089-.998.044-1.59.4l-.984.591-.526-.876.912-.548zm10.769.291c-.48.289-.936.481-1.368.578a3.271 3.271 0 01-1.222.032 2.565 2.565 0 01-1.014-.437 2.958 2.958 0 01-.757-.852c-.346-.576-.464-1.125-.354-1.649.11-.523.377-1.005.799-1.443l-.058-.096a2.614 2.614 0 01-1.496-.098c-.462-.19-.838-.525-1.126-1.005-.385-.64-.458-1.288-.22-1.942.233-.663.77-1.247 1.61-1.752.84-.505 1.607-.704 2.302-.599.69.097 1.227.466 1.612 1.106.288.48.404.971.346 1.474-.054.49-.255.943-.604 1.359l.058.096c.586-.167 1.135-.176 1.649-.027.514.148.944.51 1.29 1.086.207.344.335.703.385 1.076.058.368.028.735-.09 1.1-.111.36-.307.712-.59 1.056-.288.337-.672.649-1.152.937zm-.527-.876c.584-.35.96-.75 1.126-1.198.161-.457.098-.925-.191-1.405l-.151-.252c-.289-.48-.67-.752-1.144-.815-.478-.072-1.01.067-1.594.418-.584.351-.956.755-1.118 1.211-.166.448-.105.913.184 1.393l.151.252c.288.48.672.755 1.151.827.473.064 1.002-.08 1.586-.431zm-2.458-4.092c.528-.317.86-.669.998-1.057.137-.387.076-.797-.183-1.229l-.109-.18c-.259-.432-.592-.678-.999-.739-.407-.06-.874.068-1.402.385-.528.318-.861.67-.998 1.057-.137.388-.076.797.183 1.229l.108.18c.26.433.593.679 1 .739.406.061.874-.067 1.402-.385zm7.81 4.339l-3.292-12.574.864-.519 3.293 12.574-.865.519zm4.574-5.214l-.534-.888 2.34-1.406-4.052-6.744-.084.05-.93 3.237-.97-.282.973-3.41 1.572-.945 4.499 7.488 2.16-1.298.534.888-5.508 3.31zm9.946-5.78c-1 .601-1.961.661-2.881.179-.913-.486-1.78-1.413-2.602-2.781-.822-1.368-1.234-2.569-1.234-3.603.007-1.039.511-1.859 1.511-2.459 1-.601 1.956-.659 2.869-.173.92.482 1.792 1.406 2.614 2.774.822 1.368 1.229 2.572 1.222 3.611 0 1.034-.499 1.851-1.499 2.452zm-.527-.876c.328-.197.568-.433.718-.709.15-.275.223-.58.218-.915a3.219 3.219 0 00-.215-1.063 6.217 6.217 0 00-.562-1.181l-.822-1.368a6.182 6.182 0 00-.779-1.051 3.227 3.227 0 00-.838-.689 1.83 1.83 0 00-.91-.237c-.314.003-.635.104-.963.301-.328.197-.567.433-.717.708a1.816 1.816 0 00-.218.915c.005.335.072.692.202 1.071.138.374.33.766.575 1.174l.822 1.368c.245.408.5.761.766 1.058.274.293.558.52.851.681.293.162.596.241.91.238.313-.004.634-.104.962-.301zm7.842-3.52c-1 .601-1.96.661-2.881.18-.913-.486-1.78-1.413-2.602-2.781-.822-1.368-1.233-2.569-1.234-3.603.008-1.039.511-1.859 1.511-2.46 1-.601 1.957-.658 2.869-.172.921.481 1.792 1.406 2.614 2.774.822 1.368 1.23 2.571 1.222 3.61.001 1.034-.499 1.851-1.499 2.452zm-.526-.876c.328-.197.567-.433.717-.709a1.81 1.81 0 00.218-.914 3.222 3.222 0 00-.214-1.064 6.253 6.253 0 00-.563-1.181l-.822-1.368a6.22 6.22 0 00-.778-1.051 3.23 3.23 0 00-.839-.689 1.828 1.828 0 00-.91-.237c-.314.004-.634.104-.962.301-.328.197-.568.433-.718.709-.15.275-.223.58-.218.915.005.334.073.691.203 1.07.138.375.329.766.574 1.174l.822 1.368c.245.408.501.761.767 1.058.274.293.557.52.85.682.293.161.597.24.91.237.314-.003.635-.104.963-.301zm7.95-9.383l-.395 2.034 1.68 2.796-1.008.606-5.033-8.376 1.008-.606 2.675 4.452.036-.021.328-2.173.729-4.522 1.236-.743-.964 5.463 6.213 2.784-1.248.75-5.257-2.444zm9.05.165l-7.073-7.15 1.068-.642 3.323 3.491 2.577 2.714.024-.014-1.101-3.601-1.367-4.667 1.152-.692 3.443 3.419 2.654 2.652.036-.022-1.154-3.553-1.475-4.602 1.032-.62 2.885 9.667-1.116.671-3.601-3.52-2.614-2.611-.024.015 1.054 3.548 1.393 4.846-1.116.671z" fill="#fff"/><g clip-path="url(#clip1)"><path d="M617.126 364.569l2.286-1.373 3.09 5.143-2.286 1.373-3.09-5.143zm6.627-7.093l2.286-1.373 4.463 7.428-2.286 1.374-4.463-7.429zm-6.061-1.025l2.286-1.373 6.524 10.857-2.286 1.373-6.524-10.857z" fill="#fff"/></g><path d="M641.49 355.762l-2.325-1.967-3.384 2.033.645 2.977-1.02.613-2.105-10.136 1.284-.771 7.961 6.616-1.056.635zm-6.978-5.933l-.06.036 1.035 4.931 2.892-1.738-3.867-3.229zm12.405 2.869c-1.064.639-2.109.776-3.133.412-1.03-.372-1.968-1.262-2.814-2.67-.846-1.408-1.199-2.666-1.058-3.774.135-1.116.735-1.993 1.799-2.633.704-.423 1.388-.616 2.052-.58.672.032 1.316.26 1.931.686l-.52.982a2.667 2.667 0 00-1.389-.57c-.502-.058-1.014.07-1.534.382-.36.217-.643.479-.849.788a2.38 2.38 0 00-.367 1.021 3.17 3.17 0 00.097 1.167c.103.406.284.826.543 1.258l.75 1.248c.52.864 1.126 1.419 1.819 1.667.693.248 1.404.153 2.132-.285.536-.322.902-.727 1.099-1.215a2.839 2.839 0 00.128-1.58l1.107.021c.092.751-.007 1.447-.296 2.089-.294.634-.793 1.162-1.497 1.586zm2.855-12.104l4.499 7.488-1.008.606-4.499-7.488-2.664 1.601-.534-.889 6.337-3.807.533.888-2.664 1.601zm4.582-3.962l3.115 5.185c.48.8.994 1.319 1.54 1.557.541.23 1.184.122 1.928-.325.744-.448 1.141-.964 1.192-1.55.046-.594-.171-1.291-.652-2.091l-3.115-5.184 1.008-.606 2.971 4.945c.365.608.626 1.169.784 1.685.165.51.216.985.154 1.426-.062.44-.246.85-.551 1.229-.298.375-.727.731-1.287 1.067-.56.337-1.075.548-1.545.635a2.416 2.416 0 01-1.309-.112c-.41-.157-.801-.428-1.175-.813-.365-.391-.73-.89-1.095-1.498l-2.971-4.944 1.008-.606zm17.43.928l-2.326-1.967-3.384 2.033.645 2.977-1.02.613-2.104-10.136 1.284-.771 7.961 6.616-1.056.635zm-6.979-5.933l-.06.036 1.036 4.931 2.892-1.738-3.868-3.229zm9.542 4.393l-5.033-8.377 1.008-.605 4.5 7.488 3.564-2.142.533.888-4.572 2.748zm6.518-1.45l-3.293-12.574.864-.52 3.293 12.575-.864.519zm6.895-6.414c-.68.409-1.336.629-1.97.662a4.39 4.39 0 01-1.873-.345l.369-1.071c.531.214 1.04.317 1.525.309.48-.017.964-.171 1.452-.465.6-.36.969-.778 1.108-1.254.147-.48.077-.96-.212-1.44-.24-.4-.545-.636-.915-.708-.37-.072-.869-.006-1.498.198l-.778.255c-.874.286-1.62.375-2.24.268-.616-.12-1.119-.504-1.508-1.152a2.642 2.642 0 01-.388-1.106c-.037-.37.007-.723.132-1.059.132-.341.338-.661.616-.958a4.528 4.528 0 011.034-.834c.632-.38 1.242-.588 1.83-.626a3.644 3.644 0 011.765.328l-.425 1.006a3.05 3.05 0 00-1.294-.251c-.439.013-.902.166-1.39.46-.536.322-.89.692-1.063 1.112-.169.407-.117.838.157 1.294.24.4.551.627.932.681.384.042.876-.036 1.476-.234l.778-.255c.935-.311 1.699-.389 2.293-.234.594.155 1.078.544 1.453 1.168.231.384.372.773.424 1.167.059.389.03.766-.088 1.131a3.093 3.093 0 01-.61 1.052c-.28.332-.644.632-1.092.901zm2.823-12.084l4.499 7.489-1.008.605-4.499-7.488-2.664 1.601-.534-.888 6.337-3.807.533.888-2.664 1.6zm13.126 2.305l-2.326-1.967-3.384 2.033.646 2.977-1.02.613-2.105-10.135 1.284-.772 7.961 6.617-1.056.634zm-6.979-5.933l-.06.036 1.036 4.931 2.892-1.738-3.868-3.229zm8.499-1.938l-2.126-1.254-.036.022 4.189 6.972-.984.591-5.033-8.376 1.164-.7 6.132 3.274 2.126 1.254.036-.021-4.189-6.973.984-.591 5.032 8.376-1.164.7-6.131-3.274zm4.615-7.215l2.808-1.688a4.263 4.263 0 011.575-.586 3.241 3.241 0 011.556.143c.51.161 1.004.458 1.482.889.472.424.917.984 1.336 1.68.418.696.706 1.356.863 1.981.152.616.182 1.191.09 1.726-.09.522-.293.998-.612 1.429a4.27 4.27 0 01-1.257 1.115l-2.808 1.687-5.033-8.376zm7.307 5.801c.344-.207.627-.453.848-.738.215-.293.36-.614.433-.963.074-.349.07-.717-.01-1.105-.077-.4-.24-.808-.49-1.224l-.822-1.368a3.646 3.646 0 00-.844-.996 2.672 2.672 0 00-.977-.539 2.315 2.315 0 00-1.047-.057c-.36.053-.712.183-1.056.389l-1.8 1.082 3.965 6.6 1.8-1.081zm11-5.401l-2.325-1.968-3.384 2.034.645 2.977-1.02.612-2.105-10.135 1.284-.772 7.961 6.617-1.056.635zm-6.978-5.933l-.06.036 1.035 4.931 2.892-1.738-3.867-3.229zm10.55 3.787l-1.008.605-5.033-8.376 3.336-2.004c.736-.443 1.431-.582 2.084-.419.661.158 1.222.621 1.684 1.389.37.616.531 1.21.484 1.783-.045.56-.305 1.07-.78 1.53l4.141 2.543-1.14.685-3.975-2.512-1.956 1.176 2.163 3.6zm-.354-5.863c.4-.241.645-.53.736-.868.099-.342.034-.705-.197-1.089l-.375-.624c-.231-.384-.521-.613-.87-.687-.341-.078-.711.003-1.111.244l-2.328 1.398 1.817 3.025 2.328-1.399zm2.109-6.592l2.808-1.687a4.247 4.247 0 011.575-.587 3.252 3.252 0 011.556.143c.51.161 1.004.458 1.482.89.472.423.918.983 1.336 1.679.418.696.706 1.357.863 1.981.152.616.182 1.191.09 1.726a3.315 3.315 0 01-.611 1.429 4.287 4.287 0 01-1.258 1.115l-2.808 1.687-5.033-8.376zm7.308 5.801c.344-.207.626-.453.847-.738.216-.293.36-.614.434-.963.073-.349.07-.717-.011-1.104a3.764 3.764 0 00-.49-1.225l-.822-1.368a3.626 3.626 0 00-.844-.995 2.66 2.66 0 00-.977-.54 2.315 2.315 0 00-1.047-.057c-.36.053-.712.183-1.056.39l-1.8 1.081 3.965 6.6 1.801-1.081zm-92.239 84.63l-.534-.888 2.34-1.406-4.052-6.744-.084.051-.929 3.237-.971-.283.973-3.41 1.572-.945 4.499 7.489 2.161-1.298.533.888-5.508 3.309zm7.736-14.84l-3.672 2.207 1.678 3.336.084-.051c.032-.4.121-.758.268-1.075.155-.322.453-.615.893-.88.36-.216.728-.355 1.104-.418a2.685 2.685 0 011.102.04c.354.081.687.246.999.494.321.243.603.569.848.977.246.408.408.822.486 1.243.074.413.062.818-.037 1.215-.096.384-.279.75-.549 1.098a3.725 3.725 0 01-1.054.91 3.882 3.882 0 01-1.008.443 3.214 3.214 0 01-.903.101 3.61 3.61 0 01-.826-.124 6.196 6.196 0 01-.737-.276l.41-1.03c.205.105.404.192.598.261.202.064.399.103.593.117.202.01.411-.013.629-.067.213-.063.447-.171.703-.325.576-.346.921-.76 1.034-1.242.114-.482.004-.999-.327-1.551l-.072-.12c-.332-.552-.737-.891-1.216-1.017-.479-.126-1.006-.016-1.582.33-.384.231-.645.485-.782.764a3.384 3.384 0 00-.293.845l-.924.392-2.468-4.788 4.488-2.697.533.888zm9.526 4.664c-1 .601-1.961.661-2.881.18-.913-.486-1.781-1.413-2.603-2.781-.822-1.368-1.233-2.569-1.233-3.603.007-1.039.511-1.859 1.511-2.46 1-.601 1.956-.658 2.869-.172.92.481 1.792 1.406 2.614 2.774.822 1.368 1.229 2.571 1.222 3.61 0 1.034-.499 1.852-1.499 2.452zm-.527-.876c.328-.197.567-.433.718-.708.15-.276.223-.581.218-.915a3.224 3.224 0 00-.215-1.064 6.245 6.245 0 00-.562-1.181l-.822-1.368a6.276 6.276 0 00-.779-1.051 3.222 3.222 0 00-.838-.688 1.81 1.81 0 00-.91-.237c-.314.003-.635.103-.963.3-.328.197-.567.434-.718.709a1.82 1.82 0 00-.217.915c.005.334.072.691.202 1.071.138.374.329.765.575 1.173l.822 1.368c.245.408.5.761.766 1.059.274.292.557.52.85.681.294.162.597.241.911.237.313-.003.634-.103.962-.301zm7.842-3.519c-1 .601-1.96.661-2.881.179-.913-.486-1.78-1.413-2.602-2.781-.822-1.368-1.233-2.569-1.234-3.603.007-1.039.511-1.858 1.511-2.459 1-.601 1.956-.659 2.869-.173.921.482 1.792 1.406 2.614 2.774.822 1.368 1.23 2.572 1.222 3.611.001 1.034-.499 1.851-1.499 2.452zm-.526-.876c.328-.197.567-.433.717-.709.15-.275.223-.58.218-.915a3.216 3.216 0 00-.214-1.063 6.224 6.224 0 00-.563-1.181l-.822-1.368a6.233 6.233 0 00-.778-1.051 3.23 3.23 0 00-.839-.689 1.828 1.828 0 00-.91-.237c-.314.003-.635.104-.963.301-.328.197-.567.433-.717.708-.15.276-.223.581-.218.915.005.335.073.692.202 1.071.138.374.33.766.575 1.174l.822 1.368c.245.408.501.761.767 1.058.274.293.557.52.85.681.293.162.596.241.91.238.314-.004.635-.104.963-.301zm5.352.247l-3.293-12.575.864-.519 3.293 12.574-.864.52zm4.573-5.214l-.534-.889 2.34-1.406-4.052-6.744-.084.051-.929 3.237-.971-.283.973-3.41 1.572-.944 4.499 7.488 2.16-1.298.534.888-5.508 3.31zm8.359-5.023l-1.309-9.438-3.576 2.149.937 1.56-.9.541-1.457-2.424 5.497-3.303.533.888 1.355 9.378-1.08.649zm6.693-14.213l-3.672 2.206 1.678 3.337.084-.051c.031-.4.121-.759.268-1.076.155-.322.452-.615.892-.879.36-.216.729-.356 1.105-.419a2.686 2.686 0 011.102.041c.353.081.687.246.999.494.32.243.603.568.848.976.245.408.407.823.486 1.244.074.412.061.817-.038 1.214a2.94 2.94 0 01-.549 1.098 3.709 3.709 0 01-1.053.911 3.882 3.882 0 01-1.009.442 3.177 3.177 0 01-.902.102 3.61 3.61 0 01-.826-.125 6.099 6.099 0 01-.738-.275l.41-1.031c.205.106.405.193.598.262.202.064.4.103.593.117.202.009.412-.013.629-.068.213-.062.448-.17.704-.324.576-.346.92-.76 1.034-1.242.113-.482.004-.999-.328-1.551l-.072-.12c-.332-.552-.737-.891-1.215-1.017-.479-.126-1.006-.017-1.582.33-.384.23-.645.485-.783.764a3.355 3.355 0 00-.292.845l-.924.392-2.469-4.789 4.488-2.696.534.888zm9.525 4.664c-1 .601-1.96.661-2.881.18-.913-.486-1.78-1.413-2.602-2.782-.822-1.368-1.233-2.569-1.234-3.603.007-1.038.511-1.858 1.511-2.459 1-.601 1.956-.658 2.869-.172.921.481 1.792 1.405 2.614 2.773.822 1.368 1.229 2.572 1.222 3.611.001 1.034-.499 1.851-1.499 2.452zm-.526-.876c.328-.197.567-.433.717-.709.15-.275.223-.58.218-.915a3.216 3.216 0 00-.214-1.063 6.253 6.253 0 00-.563-1.181l-.822-1.368a6.274 6.274 0 00-.778-1.051 3.23 3.23 0 00-.839-.689 1.828 1.828 0 00-.91-.237c-.314.004-.635.104-.963.301-.328.197-.567.433-.717.709-.15.275-.223.58-.218.915.005.334.073.691.202 1.07.138.375.33.766.575 1.174l.822 1.368c.245.408.501.761.767 1.058.273.293.557.52.85.682.293.161.596.24.91.237.314-.004.635-.104.963-.301zm9.235-4.553l-1.008.606-5.033-8.376 3.336-2.005c.736-.442 1.431-.582 2.084-.419.661.158 1.222.621 1.684 1.389.37.616.531 1.211.484 1.784-.045.56-.305 1.07-.78 1.53l4.141 2.542-1.14.685-3.975-2.511-1.956 1.175 2.163 3.6zm-.354-5.863c.4-.24.645-.529.736-.867.099-.343.034-.706-.197-1.09l-.375-.624c-.231-.384-.521-.613-.87-.686-.341-.078-.711.003-1.111.243l-2.328 1.399 1.817 3.024 2.328-1.399zm7.142 1.785l-5.033-8.377 3.336-2.004c.752-.452 1.458-.582 2.118-.39.662.178 1.217.64 1.664 1.384.447.744.597 1.454.448 2.132-.145.664-.594 1.222-1.346 1.674l-2.328 1.399 2.149 3.576-1.008.606zm-1.674-5.07l2.328-1.399c.4-.24.645-.53.736-.867.099-.343.034-.706-.197-1.09l-.375-.624c-.231-.384-.521-.613-.87-.686-.341-.079-.711.002-1.111.243l-2.328 1.399 1.817 3.024zm11.36-10.354l-.06.036.136 1.829.188 4.853-4.197-2.444-1.551-.979-.06.036 4.24 7.056-.984.592-5.033-8.377 1.344-.807 5.111 3.07.06-.036-.299-5.962 1.296-.778 5.033 8.376-.984.591-4.24-7.056z" fill="#fff"/><defs><clipPath id="clip0"><path fill="#fff" transform="rotate(-31 1066.935 -509.878)" d="M0 0h16v16H0z"/></clipPath><clipPath id="clip1"><path fill="#fff" transform="rotate(-31 952.435 -922.752)" d="M0 0h16v16H0z"/></clipPath></defs></svg>