<svg width="1440" height="810" fill="none" xmlns="http://www.w3.org/2000/svg"><path d="M690.177 327.147c-.48.289-.936.481-1.368.577a3.25 3.25 0 01-1.222.032 2.538 2.538 0 01-1.013-.436 2.943 2.943 0 01-.757-.852c-.346-.576-.464-1.126-.354-1.649.11-.523.376-1.005.798-1.444l-.057-.096c-.532.113-1.03.08-1.496-.097-.463-.19-.838-.525-1.127-1.005-.384-.64-.458-1.288-.22-1.943.234-.662.77-1.246 1.61-1.751.84-.505 1.608-.704 2.303-.599.689.097 1.227.466 1.611 1.106.289.48.404.971.347 1.474-.054.489-.256.943-.604 1.359l.057.096c.586-.167 1.136-.176 1.65-.027.514.148.944.51 1.29 1.086.207.344.335.703.385 1.076a2.34 2.34 0 01-.091 1.099 3.09 3.09 0 01-.59 1.057c-.288.337-.672.649-1.152.937zm-.526-.876c.584-.351.959-.75 1.125-1.198.162-.457.098-.925-.19-1.405l-.152-.252c-.288-.48-.669-.752-1.143-.816-.479-.071-1.01.068-1.594.419-.584.351-.957.755-1.118 1.211-.166.448-.105.912.183 1.392l.152.253c.288.48.672.755 1.15.827.474.064 1.003-.08 1.587-.431zm-2.459-4.092c.528-.317.861-.669.998-1.057.138-.387.077-.797-.183-1.229l-.108-.18c-.26-.432-.593-.678-.999-.739-.407-.06-.874.068-1.402.385-.528.317-.861.67-.998 1.057-.138.388-.077.797.183 1.229l.108.18c.26.432.593.679.999.739.407.061.874-.068 1.402-.385zm10.301.573c-.48.288-.936.481-1.368.577a3.271 3.271 0 01-1.222.032 2.55 2.55 0 01-1.014-.437 2.94 2.94 0 01-.757-.851c-.346-.576-.464-1.126-.354-1.65.11-.523.377-1.004.799-1.443l-.058-.096c-.531.112-1.03.08-1.496-.098-.462-.19-.838-.525-1.126-1.005-.385-.64-.458-1.287-.22-1.942.233-.663.77-1.247 1.61-1.751.84-.505 1.607-.705 2.302-.6.69.097 1.227.466 1.612 1.106.288.48.404.971.346 1.474-.054.49-.255.943-.604 1.359l.058.096c.586-.166 1.136-.176 1.649-.027.514.148.944.511 1.29 1.087.207.344.335.702.385 1.075.058.368.028.735-.09 1.1-.11.36-.307.712-.59 1.057-.288.336-.672.648-1.152.937zm-.526-.876c.584-.351.959-.751 1.125-1.199.161-.456.098-.925-.191-1.405l-.151-.252c-.289-.48-.67-.751-1.144-.815-.478-.072-1.01.068-1.594.419-.584.351-.956.754-1.118 1.21-.166.449-.105.913.184 1.393l.151.252c.289.48.672.756 1.151.828.474.063 1.002-.08 1.587-.431zm-2.459-4.092c.528-.318.86-.67.998-1.057.137-.388.076-.798-.183-1.23l-.109-.18c-.259-.432-.592-.678-.999-.739-.406-.06-.874.068-1.402.386-.528.317-.86.669-.998 1.057-.137.387-.076.797.183 1.229l.109.18c.259.432.592.678.999.739.406.06.874-.068 1.402-.385zm10.409-5.291l-.395 2.034 1.68 2.796-1.008.606-5.033-8.377 1.008-.605 2.675 4.452.036-.022.328-2.173.729-4.521 1.236-.743-.964 5.463 6.213 2.783-1.248.75-5.257-2.443zm10.291-10.185l-.06.036.136 1.829.187 4.853-4.196-2.444-1.551-.979-.06.036 4.24 7.056-.984.592-5.033-8.377 1.344-.807 5.111 3.07.06-.036-.299-5.962 1.296-.779 5.033 8.377-.984.591-4.24-7.056zm10.536-1.888l-4.236 2.545 2.278 3.792-1.008.606-5.033-8.376 1.008-.606 2.221 3.696 4.236-2.545-2.221-3.696 1.008-.606 5.033 8.376-1.008.606-2.278-3.792zm9.921-2.399a.34.34 0 01-.284.198.34.34 0 01-.307-.162l-3.457-5.754a.33.33 0 01.001-.346.34.34 0 01.132-.123.34.34 0 01.177-.035l5.805.428a.337.337 0 01.26.161.333.333 0 01.02.306l-2.347 5.327zm1.095-8.808a.336.336 0 01.133-.469.34.34 0 01.177-.036l5.805.429a.337.337 0 01.26.161.329.329 0 01.02.305l-2.347 5.327a.336.336 0 01-.284.198.335.335 0 01-.307-.161l-3.457-5.754zM440.352 495.832a1.338 1.338 0 00-.456 1.83 1.339 1.339 0 001.83.456 1.338 1.338 0 00.456-1.83 1.338 1.338 0 00-1.83-.456zm8.001-4.807a1.338 1.338 0 00-.457 1.83 1.339 1.339 0 001.83.456 1.337 1.337 0 00.456-1.83 1.337 1.337 0 00-1.829-.456zm-4.001 2.403a1.339 1.339 0 00-.456 1.83 1.337 1.337 0 001.83.456 1.337 1.337 0 00.456-1.829 1.338 1.338 0 00-1.83-.457zm17.103-2.691c-.68.409-1.337.629-1.971.661a4.377 4.377 0 01-1.873-.344l.369-1.071c.532.214 1.04.317 1.525.309.48-.017.964-.172 1.452-.465.6-.36.97-.778 1.109-1.254.147-.48.076-.96-.212-1.44-.241-.4-.546-.636-.916-.708-.369-.072-.869-.006-1.498.198l-.777.255c-.874.285-1.621.375-2.24.268-.617-.12-1.12-.504-1.509-1.152a2.66 2.66 0 01-.387-1.106c-.037-.37.007-.723.131-1.059.133-.341.338-.661.617-.959a4.53 4.53 0 011.034-.833c.632-.38 1.242-.589 1.829-.626a3.629 3.629 0 011.765.328l-.424 1.006a3.054 3.054 0 00-1.295-.251c-.438.013-.901.166-1.389.459-.536.323-.891.693-1.063 1.113-.17.406-.118.838.156 1.294.241.4.552.627.932.681.385.041.877-.036 1.477-.234l.778-.255c.934-.311 1.699-.389 2.292-.234.594.155 1.079.544 1.454 1.168.231.384.372.773.423 1.167.06.389.03.766-.088 1.131a3.073 3.073 0 01-.609 1.052c-.28.331-.644.632-1.092.901zm-.778-11.815l.96-.577 2.221 3.696.048-.029a2.407 2.407 0 01.132-1.222c.155-.376.464-.704.928-.983.64-.384 1.269-.479 1.887-.284.621.182 1.158.649 1.61 1.401l2.386 3.972-.96.577-2.285-3.804c-.669-1.112-1.471-1.387-2.407-.824a2.59 2.59 0 00-.52.41 1.904 1.904 0 00-.351.505 1.285 1.285 0 00-.124.581c.006.192.07.388.19.588l2.581 4.296-.96.577-5.336-8.88zm14.703 3.448c-.416.25-.841.402-1.277.457a2.982 2.982 0 01-1.277-.115 3.782 3.782 0 01-1.177-.681 4.852 4.852 0 01-1.012-1.221 4.8 4.8 0 01-.596-1.455 3.575 3.575 0 01-.049-1.359c.075-.437.239-.835.492-1.193a3.232 3.232 0 011.003-.913c.416-.25.837-.4 1.265-.45a2.89 2.89 0 011.284.126c.417.131.813.356 1.189.674.377.318.711.722 1.005 1.21.298.496.499.984.603 1.466.1.474.112.929.037 1.366-.08.429-.246.823-.499 1.182a3.15 3.15 0 01-.991.906zm-.512-.852c.52-.313.848-.728.984-1.245.136-.517.006-1.103-.388-1.759l-.533-.888c-.394-.656-.852-1.046-1.372-1.169-.52-.123-1.04-.028-1.56.285-.52.312-.848.727-.984 1.244s-.007 1.104.388 1.76l.533.888c.394.656.852 1.045 1.372 1.168.52.123 1.04.028 1.56-.284zm.494-7.761l.936-.562 2.268 2.279 2.289 2.316.024-.015-.873-3.166-.828-3.145.852-.512 2.412 2.193 2.397 2.251.024-.014-.993-3.095-.936-3.08.9-.54 2.076 7.18-1.188.713-2.652-2.456-1.672-1.56-.024.014.604 2.202.924 3.495-1.164.699-5.376-5.197zm16.655-1.58l-3.72-6.192.96-.577.605 1.008.048-.029a3.809 3.809 0 01-.026-.588c.009-.202.047-.393.112-.574.074-.186.182-.359.324-.521.138-.17.326-.327.566-.471a2.577 2.577 0 011.309-.378c.459-.014.907.152 1.344.499l.024-.015a2.22 2.22 0 01.098-1.251c.158-.443.501-.823 1.029-1.141.632-.379 1.249-.467 1.851-.263.606.192 1.134.664 1.586 1.416l2.387 3.972-.96.577-2.286-3.804c-.332-.552-.69-.903-1.074-1.054-.384-.15-.812-.083-1.284.201a2.412 2.412 0 00-.509.403 1.754 1.754 0 00-.326.49 1.228 1.228 0 00.089 1.155l2.582 4.296-.961.577-2.285-3.804c-.332-.552-.69-.903-1.074-1.053-.384-.151-.805-.089-1.261.185-.192.116-.361.25-.508.404-.147.154-.26.319-.339.497a1.362 1.362 0 00-.112.574c.007.192.07.388.19.588l2.581 4.296-.96.577zm13.024-7.629a3.26 3.26 0 01-1.277.457 2.97 2.97 0 01-1.278-.115 3.727 3.727 0 01-1.176-.681 4.831 4.831 0 01-1.012-1.221 4.8 4.8 0 01-.596-1.455 3.555 3.555 0 01-.049-1.359c.075-.437.238-.835.491-1.193a3.255 3.255 0 011.003-.913c.416-.25.838-.4 1.265-.45a2.893 2.893 0 011.285.126c.416.131.812.356 1.189.674.376.319.711.722 1.004 1.21.298.496.499.985.604 1.466.099.474.111.929.037 1.366-.08.429-.246.823-.499 1.182a3.16 3.16 0 01-.991.906zm-.512-.852c.52-.313.848-.727.984-1.244.135-.518.006-1.104-.388-1.76l-.534-.888c-.394-.656-.851-1.046-1.371-1.169-.521-.123-1.041-.028-1.561.285-.52.312-.848.727-.984 1.244-.135.517-.006 1.104.388 1.76l.534.888c.394.656.851 1.045 1.371 1.168.521.123 1.041.028 1.561-.284zm4.92-1.993l-3.72-6.192.96-.577.685 1.14.06-.036c-.066-.363-.025-.748.124-1.153.148-.405.475-.759.979-1.061l.372-.224.577.96-.564.339c-.52.312-.868.658-1.044 1.035-.173.365-.17.696.008.992l2.523 4.2-.96.577zm6.883-3.939a3.309 3.309 0 01-1.289.464c-.428.05-.85.009-1.266-.122a3.782 3.782 0 01-1.177-.681 5.137 5.137 0 01-.999-1.229 5.106 5.106 0 01-.609-1.447 3.574 3.574 0 01-.048-1.359c.074-.437.234-.832.479-1.186a3.295 3.295 0 011.015-.921 3.06 3.06 0 011.253-.442 2.853 2.853 0 011.222.131c.391.125.757.335 1.098.631.349.291.656.657.92 1.097l.274.456-4.452 2.675.173.288c.159.264.348.488.567.672.223.171.46.295.713.371a2 2 0 00.814.05c.29-.043.579-.151.867-.324.392-.236.677-.532.854-.889a2.09 2.09 0 00.208-1.203l.98.081a2.82 2.82 0 01-.316 1.594c-.27.511-.697.942-1.281 1.293zm-3.411-5.677a2.043 2.043 0 00-.633.577 1.866 1.866 0 00-.334.723c-.051.259-.051.531.001.816.046.277.151.552.315.824l.05.084 3.42-2.055-.079-.132c-.332-.552-.748-.901-1.249-1.046-.498-.158-.995-.089-1.491.209zm-78.086 26.796a6.001 6.001 0 01-5.59-10.598 6 6 0 016.733 9.911l1.392 2.317-1.143.687-1.392-2.317zm14.403-8.805c-.432.26-.867.423-1.306.491-.435.055-.858.02-1.27-.103a3.388 3.388 0 01-1.165-.688 5.137 5.137 0 01-.999-1.229 6.342 6.342 0 01-.777-1.917 7.737 7.737 0 01-.193-1.926 8.114 8.114 0 01.251-1.784c.14-.563.313-1.054.52-1.472l1.296-.779a19.155 19.155 0 00-.623 1.681 8.206 8.206 0 00-.333 1.539 6.562 6.562 0 00-.016 1.496c.047.495.161 1.02.342 1.575l.074-.012a3.179 3.179 0 01.256-1.313c.181-.425.527-.791 1.039-1.098.36-.217.728-.356 1.104-.419.377-.062.74-.047 1.091.048.35.094.682.265.994.513.32.243.598.56.834.952.245.408.403.825.473 1.251.074.413.062.818-.037 1.215a2.969 2.969 0 01-.537 1.09 3.596 3.596 0 01-1.018.889zm-.538-.869c.552-.331.888-.74 1.01-1.227.129-.492.023-1.021-.318-1.589l-.058-.096c-.341-.568-.759-.911-1.254-1.027-.486-.121-1.006-.016-1.558.315-.552.332-.893.744-1.022 1.235-.121.487-.011 1.014.33 1.582l.058.096c.341.568.755.913 1.242 1.034.494.117 1.018.009 1.57-.323zm5.211-2.134l-.534-.888 2.341-1.407-4.053-6.744-.084.051-.929 3.237-.97-.283.972-3.41 1.572-.944 4.5 7.488 2.16-1.298.533.888-5.508 3.31zm6.429-9.841a2.405 2.405 0 01-.898.327 2.37 2.37 0 01-.896-.05 2.462 2.462 0 01-.809-.395 2.552 2.552 0 01-.654-.735 2.434 2.434 0 01-.334-.909 2.424 2.424 0 01.023-.913 2.38 2.38 0 01.377-.814c.185-.253.422-.466.71-.639s.583-.28.886-.32c.31-.045.609-.028.896.05a2.434 2.434 0 011.474 1.123c.178.296.292.603.342.921.045.311.031.613-.043.908a2.306 2.306 0 01-1.074 1.446zm-.462-.768c.36-.216.57-.511.629-.884a1.615 1.615 0 00-.232-1.119c-.216-.36-.507-.599-.872-.717-.361-.131-.722-.088-1.082.128-.36.216-.571.517-.634.903-.059.373.02.74.236 1.1.217.36.506.605.868.736.365.118.727.069 1.087-.147zm9.713 1.383c-1 .601-1.961.661-2.881.18-.913-.486-1.78-1.413-2.602-2.781-.822-1.368-1.234-2.569-1.234-3.603.007-1.039.511-1.859 1.511-2.46 1-.601 1.956-.658 2.869-.172.92.481 1.792 1.406 2.614 2.774.822 1.368 1.229 2.571 1.222 3.61 0 1.034-.499 1.851-1.499 2.452zm-.527-.876c.328-.197.567-.433.718-.708.15-.276.223-.581.218-.915a3.224 3.224 0 00-.215-1.064 6.245 6.245 0 00-.562-1.181l-.822-1.368a6.222 6.222 0 00-.779-1.051 3.227 3.227 0 00-.838-.689 1.83 1.83 0 00-.91-.237c-.314.004-.635.104-.963.301-.328.197-.567.433-.717.709a1.81 1.81 0 00-.218.915c.005.334.072.691.202 1.07.138.375.329.766.575 1.174l.822 1.368c.245.408.5.761.766 1.059.274.292.558.519.851.681.293.161.596.24.91.237.313-.003.634-.104.962-.301zm7.842-3.519c-1 .601-1.96.66-2.881.179-.913-.486-1.78-1.413-2.602-2.781-.822-1.368-1.233-2.569-1.234-3.603.007-1.039.511-1.859 1.511-2.46 1-.6 1.957-.658 2.869-.172.921.481 1.792 1.406 2.614 2.774.822 1.368 1.23 2.572 1.222 3.61.001 1.034-.499 1.852-1.499 2.453zm-.526-.876c.328-.197.567-.434.717-.709a1.81 1.81 0 00.218-.915 3.211 3.211 0 00-.214-1.063 6.224 6.224 0 00-.563-1.181l-.822-1.368a6.23 6.23 0 00-.778-1.052 3.226 3.226 0 00-.839-.688 1.807 1.807 0 00-.91-.237c-.314.003-.634.103-.962.3-.329.198-.568.434-.718.709-.15.276-.223.581-.218.915.005.335.073.692.203 1.071.137.374.329.766.574 1.174l.822 1.368c.245.408.501.76.767 1.058.274.293.557.52.85.681.293.162.596.241.91.237.314-.003.635-.103.963-.3zm2.101-6.441l-1.635-4.244.888-.533 1.635 4.244-.888.533zm5.153-3.879l-2.126-1.255-.036.022 4.189 6.972-.984.591-5.033-8.376 1.164-.699 6.132 3.273 2.126 1.254.036-.021-4.189-6.972.984-.592 5.033 8.377-1.164.699-6.132-3.273zm11.721-6.652c.568-.341.916-.724 1.042-1.148.129-.437.071-.86-.174-1.268l-.05-.084c-.265-.44-.602-.683-1.012-.731-.406-.061-.834.044-1.282.313-.432.259-.726.567-.883.922a2.486 2.486 0 00-.217 1.16l-1.09-.129c.003-.23.028-.469.076-.715.051-.26.138-.514.261-.762s.293-.491.509-.73c.216-.239.492-.459.828-.661a3.923 3.923 0 011.082-.454c.365-.1.715-.125 1.049-.075.338.036.65.148.937.335.295.183.543.442.745.778.163.272.266.542.308.811.049.264.05.519.002.766a2.327 2.327 0 01-.27.718 2.808 2.808 0 01-.473.627l.029.048c.253-.087.517-.136.792-.149.279-.026.551.001.816.081.269.067.526.195.771.386a2.4 2.4 0 01.654.734c.216.36.348.733.394 1.119.042.377.004.749-.114 1.114a3.249 3.249 0 01-.605 1.033 4.18 4.18 0 01-1.055.879c-.36.216-.704.369-1.033.457-.328.088-.64.129-.938.123a3.824 3.824 0 01-.85-.11 5.246 5.246 0 01-.75-.268l.41-1.031c.205.106.409.191.61.254a2.362 2.362 0 001.283.014c.22-.067.459-.178.715-.332.592-.355.961-.757 1.106-1.203.14-.455.062-.93-.236-1.426l-.058-.096c-.298-.496-.678-.785-1.141-.866-.467-.09-.997.043-1.589.399l-.984.591-.527-.876.912-.548zm8.139 1.676l-.534-.888 2.34-1.406-4.052-6.744-.084.051-.93 3.237-.97-.283.973-3.41 1.572-.945 4.499 7.489 2.16-1.298.534.888-5.508 3.309zm6.428-9.84a2.4 2.4 0 01-.898.327c-.302.04-.601.024-.895-.05a2.44 2.44 0 01-.81-.396 2.547 2.547 0 01-.653-.734 2.452 2.452 0 01-.335-.91 2.419 2.419 0 01.024-.912 2.37 2.37 0 01.376-.814c.186-.253.423-.466.711-.639s.583-.28.885-.32c.311-.045.609-.029.896.05a2.444 2.444 0 011.475 1.122c.178.296.292.604.341.922.045.311.031.613-.042.908-.066.29-.191.561-.377.814-.177.248-.41.459-.698.632zm-.461-.768c.36-.216.569-.511.628-.884a1.62 1.62 0 00-.231-1.119c-.216-.36-.507-.599-.872-.717-.362-.131-.723-.089-1.083.128-.36.216-.571.517-.633.903-.059.373.02.739.236 1.099s.505.606.867.737c.365.118.728.069 1.088-.147zm6.259-3.304c.568-.341.915-.724 1.041-1.148.13-.437.072-.86-.173-1.268l-.051-.084c-.264-.44-.601-.684-1.011-.731-.407-.061-.834.043-1.282.313-.432.259-.726.567-.883.922a2.486 2.486 0 00-.218 1.16l-1.09-.129c.003-.231.029-.469.076-.716.051-.259.139-.513.262-.761s.292-.491.508-.73c.216-.239.492-.459.828-.661a3.928 3.928 0 011.083-.454c.365-.1.714-.125 1.049-.075.338.036.65.148.936.335.295.182.543.441.745.778.164.272.266.542.308.811.05.264.051.519.003.766a2.34 2.34 0 01-.271.718 2.804 2.804 0 01-.472.627l.028.048c.253-.087.517-.137.793-.15.278-.025.55.002.816.082.269.067.526.195.771.386.248.177.466.422.653.734.217.36.348.733.395 1.118.042.378.004.75-.115 1.115a3.23 3.23 0 01-.604 1.032c-.28.332-.632.625-1.056.88-.36.216-.704.368-1.032.457a3.36 3.36 0 01-.939.123 3.832 3.832 0 01-.85-.11 5.236 5.236 0 01-.749-.269l.41-1.03c.205.106.408.19.61.254a2.357 2.357 0 001.282.014c.221-.068.459-.178.715-.332.592-.356.961-.757 1.106-1.204.141-.454.062-.93-.236-1.426l-.057-.096c-.299-.496-.679-.784-1.141-.866-.468-.089-.998.044-1.59.4l-.984.591-.526-.876.912-.548zm10.769.292c-1 .6-1.961.66-2.881.179-.913-.486-1.78-1.413-2.602-2.781-.822-1.368-1.234-2.569-1.234-3.603.007-1.039.511-1.859 1.511-2.46 1-.601 1.956-.658 2.869-.172.92.481 1.792 1.406 2.614 2.774.822 1.368 1.229 2.571 1.222 3.61 0 1.034-.499 1.852-1.499 2.453zm-.527-.877c.328-.197.567-.433.718-.708.15-.276.223-.581.218-.915a3.224 3.224 0 00-.215-1.064 6.245 6.245 0 00-.562-1.181l-.822-1.368a6.222 6.222 0 00-.779-1.051 3.222 3.222 0 00-.838-.688 1.81 1.81 0 00-.91-.237c-.314.003-.635.103-.963.3-.328.197-.567.434-.717.709a1.81 1.81 0 00-.218.915c.005.334.072.691.202 1.071.138.374.329.765.575 1.173l.822 1.368c.245.408.5.761.766 1.059.274.292.558.52.851.681.293.162.596.241.91.237.313-.003.634-.103.962-.301zm2.102-6.44l-1.635-4.244.888-.533 1.635 4.244-.888.533zm6.196 2.451l-5.033-8.376 5.112-3.072.534.888-4.104 2.466 1.687 2.808 3.864-2.322.534.888-3.865 2.322 1.745 2.904 4.104-2.466.534.888-5.112 3.072z" fill="#fff"/></svg>