<svg width="1441" height="810" viewBox="0 0 1441 810" fill="none" xmlns="http://www.w3.org/2000/svg">
<path d="M642.333 551.667C641.6 551.667 641 552.267 641 553C641 553.733 641.6 554.333 642.333 554.333C643.067 554.333 643.667 553.733 643.667 553C643.667 552.267 643.067 551.667 642.333 551.667ZM651.667 551.667C650.933 551.667 650.333 552.267 650.333 553C650.333 553.733 650.933 554.333 651.667 554.333C652.4 554.333 653 553.733 653 553C653 552.267 652.4 551.667 651.667 551.667ZM647 551.667C646.267 551.667 645.667 552.267 645.667 553C645.667 553.733 646.267 554.333 647 554.333C647.733 554.333 648.333 553.733 648.333 553C648.333 552.267 647.733 551.667 647 551.667Z" fill="#BFDDDC"/>
<path d="M663.046 558.168C662.253 558.168 661.576 558.019 661.016 557.72C660.456 557.412 659.98 556.992 659.588 556.46L660.456 555.732C660.801 556.189 661.184 556.539 661.604 556.782C662.024 557.015 662.519 557.132 663.088 557.132C663.788 557.132 664.32 556.964 664.684 556.628C665.057 556.292 665.244 555.844 665.244 555.284C665.244 554.817 665.104 554.458 664.824 554.206C664.544 553.954 664.082 553.753 663.438 553.604L662.64 553.422C661.744 553.217 661.058 552.909 660.582 552.498C660.115 552.078 659.882 551.49 659.882 550.734C659.882 550.305 659.961 549.922 660.12 549.586C660.279 549.25 660.498 548.97 660.778 548.746C661.067 548.522 661.408 548.354 661.8 548.242C662.201 548.121 662.64 548.06 663.116 548.06C663.853 548.06 664.483 548.195 665.006 548.466C665.538 548.737 665.986 549.133 666.35 549.656L665.468 550.3C665.197 549.927 664.871 549.633 664.488 549.418C664.105 549.203 663.629 549.096 663.06 549.096C662.435 549.096 661.94 549.231 661.576 549.502C661.221 549.763 661.044 550.16 661.044 550.692C661.044 551.159 661.193 551.513 661.492 551.756C661.8 551.989 662.262 552.176 662.878 552.316L663.676 552.498C664.637 552.713 665.333 553.039 665.762 553.478C666.191 553.917 666.406 554.5 666.406 555.228C666.406 555.676 666.327 556.082 666.168 556.446C666.019 556.81 665.799 557.118 665.51 557.37C665.221 557.622 664.866 557.818 664.446 557.958C664.035 558.098 663.569 558.168 663.046 558.168Z" fill="#BFDDDC"/>
<path d="M668.465 547.64H669.585V551.952H669.641C669.818 551.541 670.065 551.215 670.383 550.972C670.709 550.729 671.143 550.608 671.685 550.608C672.431 550.608 673.019 550.851 673.449 551.336C673.887 551.812 674.107 552.489 674.107 553.366V558H672.987V553.562C672.987 552.265 672.441 551.616 671.349 551.616C671.125 551.616 670.905 551.644 670.691 551.7C670.485 551.756 670.299 551.84 670.131 551.952C669.963 552.064 669.827 552.209 669.725 552.386C669.631 552.554 669.585 552.755 669.585 552.988V558H668.465V547.64Z" fill="#BFDDDC"/>
<path d="M679.292 558.168C678.806 558.168 678.363 558.079 677.962 557.902C677.56 557.725 677.215 557.473 676.926 557.146C676.646 556.81 676.426 556.413 676.268 555.956C676.109 555.489 676.03 554.967 676.03 554.388C676.03 553.819 676.109 553.301 676.268 552.834C676.426 552.367 676.646 551.971 676.926 551.644C677.215 551.308 677.56 551.051 677.962 550.874C678.363 550.697 678.806 550.608 679.292 550.608C679.777 550.608 680.216 550.697 680.608 550.874C681.009 551.051 681.354 551.308 681.644 551.644C681.933 551.971 682.157 552.367 682.316 552.834C682.474 553.301 682.554 553.819 682.554 554.388C682.554 554.967 682.474 555.489 682.316 555.956C682.157 556.413 681.933 556.81 681.644 557.146C681.354 557.473 681.009 557.725 680.608 557.902C680.216 558.079 679.777 558.168 679.292 558.168ZM679.292 557.174C679.898 557.174 680.393 556.987 680.776 556.614C681.158 556.241 681.35 555.671 681.35 554.906V553.87C681.35 553.105 681.158 552.535 680.776 552.162C680.393 551.789 679.898 551.602 679.292 551.602C678.685 551.602 678.19 551.789 677.808 552.162C677.425 552.535 677.234 553.105 677.234 553.87V554.906C677.234 555.671 677.425 556.241 677.808 556.614C678.19 556.987 678.685 557.174 679.292 557.174Z" fill="#BFDDDC"/>
<path d="M683.711 550.776H684.803L685.573 553.898L686.343 557.062H686.371L687.253 553.898L688.163 550.776H689.157L690.095 553.898L690.991 557.062H691.019L691.761 553.898L692.545 550.776H693.595L691.677 558H690.291L689.283 554.528L688.653 552.33H688.625L688.009 554.528L687.001 558H685.643L683.711 550.776Z" fill="#BFDDDC"/>
<path d="M698.802 558V550.776H699.922V551.952H699.978C700.062 551.765 700.155 551.593 700.258 551.434C700.37 551.266 700.501 551.121 700.65 551C700.809 550.879 700.991 550.785 701.196 550.72C701.401 550.645 701.644 550.608 701.924 550.608C702.4 550.608 702.839 550.725 703.24 550.958C703.641 551.182 703.94 551.555 704.136 552.078H704.164C704.295 551.686 704.537 551.345 704.892 551.056C705.256 550.757 705.746 550.608 706.362 550.608C707.099 550.608 707.673 550.851 708.084 551.336C708.504 551.812 708.714 552.489 708.714 553.366V558H707.594V553.562C707.594 552.918 707.468 552.433 707.216 552.106C706.964 551.779 706.563 551.616 706.012 551.616C705.788 551.616 705.573 551.644 705.368 551.7C705.172 551.756 704.995 551.84 704.836 551.952C704.677 552.064 704.551 552.209 704.458 552.386C704.365 552.554 704.318 552.755 704.318 552.988V558H703.198V553.562C703.198 552.918 703.072 552.433 702.82 552.106C702.568 551.779 702.176 551.616 701.644 551.616C701.42 551.616 701.205 551.644 701 551.7C700.795 551.756 700.613 551.84 700.454 551.952C700.295 552.064 700.165 552.209 700.062 552.386C699.969 552.554 699.922 552.755 699.922 552.988V558H698.802Z" fill="#BFDDDC"/>
<path d="M713.895 558.168C713.409 558.168 712.966 558.079 712.565 557.902C712.163 557.725 711.818 557.473 711.529 557.146C711.249 556.81 711.029 556.413 710.871 555.956C710.712 555.489 710.633 554.967 710.633 554.388C710.633 553.819 710.712 553.301 710.871 552.834C711.029 552.367 711.249 551.971 711.529 551.644C711.818 551.308 712.163 551.051 712.565 550.874C712.966 550.697 713.409 550.608 713.895 550.608C714.38 550.608 714.819 550.697 715.211 550.874C715.612 551.051 715.957 551.308 716.247 551.644C716.536 551.971 716.76 552.367 716.919 552.834C717.077 553.301 717.157 553.819 717.157 554.388C717.157 554.967 717.077 555.489 716.919 555.956C716.76 556.413 716.536 556.81 716.247 557.146C715.957 557.473 715.612 557.725 715.211 557.902C714.819 558.079 714.38 558.168 713.895 558.168ZM713.895 557.174C714.501 557.174 714.996 556.987 715.379 556.614C715.761 556.241 715.953 555.671 715.953 554.906V553.87C715.953 553.105 715.761 552.535 715.379 552.162C714.996 551.789 714.501 551.602 713.895 551.602C713.288 551.602 712.793 551.789 712.411 552.162C712.028 552.535 711.837 553.105 711.837 553.87V554.906C711.837 555.671 712.028 556.241 712.411 556.614C712.793 556.987 713.288 557.174 713.895 557.174Z" fill="#BFDDDC"/>
<path d="M719.139 558V550.776H720.259V552.106H720.329C720.459 551.761 720.693 551.453 721.029 551.182C721.365 550.911 721.827 550.776 722.415 550.776H722.849V551.896H722.191C721.584 551.896 721.108 552.013 720.763 552.246C720.427 552.47 720.259 552.755 720.259 553.1V558H719.139Z" fill="#BFDDDC"/>
<path d="M727.067 558.168C726.572 558.168 726.124 558.079 725.723 557.902C725.331 557.725 724.99 557.473 724.701 557.146C724.421 556.81 724.202 556.413 724.043 555.956C723.894 555.489 723.819 554.967 723.819 554.388C723.819 553.819 723.894 553.301 724.043 552.834C724.202 552.367 724.421 551.971 724.701 551.644C724.99 551.308 725.331 551.051 725.723 550.874C726.124 550.697 726.572 550.608 727.067 550.608C727.552 550.608 727.986 550.697 728.369 550.874C728.752 551.051 729.078 551.299 729.349 551.616C729.62 551.924 729.825 552.293 729.965 552.722C730.114 553.151 730.189 553.623 730.189 554.136V554.668H724.995V555.004C724.995 555.312 725.042 555.601 725.135 555.872C725.238 556.133 725.378 556.362 725.555 556.558C725.742 556.754 725.966 556.908 726.227 557.02C726.498 557.132 726.801 557.188 727.137 557.188C727.594 557.188 727.991 557.081 728.327 556.866C728.672 556.651 728.938 556.343 729.125 555.942L729.923 556.516C729.69 557.011 729.326 557.412 728.831 557.72C728.336 558.019 727.748 558.168 727.067 558.168ZM727.067 551.546C726.759 551.546 726.479 551.602 726.227 551.714C725.975 551.817 725.756 551.966 725.569 552.162C725.392 552.358 725.252 552.591 725.149 552.862C725.046 553.123 724.995 553.413 724.995 553.73V553.828H728.985V553.674C728.985 553.03 728.808 552.517 728.453 552.134C728.108 551.742 727.646 551.546 727.067 551.546Z" fill="#BFDDDC"/>
<path d="M1078.2 416.319L1078.13 415.286L1080.85 415.082L1080.26 407.236L1080.16 407.243L1077.88 409.717L1077.14 409.029L1079.54 406.42L1081.37 406.282L1082.02 414.993L1084.53 414.804L1084.61 415.838L1078.2 416.319Z" fill="#BFDDDC"/>
<path d="M1089.69 415.624C1088.52 415.712 1087.64 415.334 1087.03 414.49C1086.43 413.646 1086.08 412.428 1085.96 410.837C1085.84 409.245 1086.01 407.987 1086.47 407.063C1086.95 406.139 1087.76 405.632 1088.93 405.545C1090.09 405.457 1090.97 405.836 1091.57 406.68C1092.17 407.524 1092.54 408.741 1092.66 410.333C1092.78 411.924 1092.6 413.182 1092.13 414.107C1091.66 415.031 1090.85 415.537 1089.69 415.624ZM1089.61 414.605C1089.99 414.577 1090.31 414.473 1090.57 414.295C1090.83 414.116 1091.03 413.876 1091.17 413.575C1091.32 413.274 1091.42 412.925 1091.46 412.529C1091.52 412.131 1091.52 411.696 1091.49 411.221L1091.37 409.629C1091.33 409.155 1091.26 408.725 1091.15 408.341C1091.04 407.955 1090.9 407.625 1090.71 407.349C1090.52 407.073 1090.28 406.866 1090 406.728C1089.72 406.59 1089.39 406.535 1089 406.564C1088.62 406.593 1088.3 406.696 1088.05 406.875C1087.79 407.053 1087.59 407.293 1087.44 407.594C1087.29 407.895 1087.19 408.245 1087.14 408.642C1087.09 409.038 1087.09 409.474 1087.13 409.949L1087.24 411.54C1087.28 412.015 1087.35 412.445 1087.45 412.83C1087.57 413.215 1087.72 413.545 1087.91 413.821C1088.1 414.097 1088.33 414.304 1088.61 414.441C1088.9 414.579 1089.23 414.634 1089.61 414.605Z" fill="#BFDDDC"/>
<path d="M1100.93 409.795L1099.66 411.435L1099.91 414.688L1098.73 414.776L1098 405.031L1099.17 404.943L1099.56 410.122L1099.6 410.119L1100.87 408.325L1103.56 404.613L1104.99 404.505L1101.68 408.953L1105.98 414.231L1104.53 414.34L1100.93 409.795Z" fill="#BFDDDC"/>
<path d="M1109.63 407.975L1108.3 405.9L1108.26 405.903L1108.87 414.014L1107.72 414.1L1106.99 404.355L1108.34 404.254L1112.35 409.933L1113.68 412.009L1113.73 412.006L1113.12 403.895L1114.26 403.809L1114.99 413.553L1113.64 413.655L1109.63 407.975Z" fill="#BFDDDC"/>
<path d="M1121.39 413.241C1120.75 413.288 1120.17 413.224 1119.65 413.049C1119.13 412.863 1118.67 412.575 1118.28 412.183C1117.89 411.782 1117.58 411.276 1117.33 410.668C1117.09 410.049 1116.94 409.331 1116.88 408.512C1116.81 407.693 1116.86 406.964 1117.01 406.326C1117.15 405.688 1117.39 405.141 1117.71 404.686C1118.04 404.231 1118.45 403.877 1118.94 403.625C1119.43 403.364 1120 403.209 1120.63 403.161C1121.25 403.114 1121.83 403.183 1122.36 403.368C1122.89 403.544 1123.34 403.832 1123.73 404.234C1124.12 404.635 1124.44 405.14 1124.68 405.749C1124.93 406.357 1125.08 407.071 1125.14 407.89C1125.2 408.709 1125.16 409.443 1125.01 410.09C1124.86 410.729 1124.62 411.275 1124.29 411.731C1123.97 412.176 1123.56 412.53 1123.07 412.792C1122.57 413.044 1122.01 413.194 1121.39 413.241ZM1121.31 412.194C1121.73 412.162 1122.11 412.059 1122.45 411.883C1122.79 411.708 1123.08 411.471 1123.31 411.173C1123.55 410.874 1123.72 410.524 1123.83 410.123C1123.94 409.721 1123.98 409.279 1123.94 408.795L1123.82 407.175C1123.79 406.691 1123.68 406.259 1123.52 405.879C1123.35 405.498 1123.12 405.178 1122.84 404.919C1122.57 404.658 1122.25 404.467 1121.88 404.345C1121.52 404.222 1121.13 404.177 1120.71 404.208C1120.29 404.24 1119.91 404.343 1119.57 404.519C1119.22 404.694 1118.93 404.932 1118.69 405.23C1118.46 405.528 1118.29 405.878 1118.18 406.28C1118.07 406.681 1118.04 407.124 1118.07 407.608L1118.19 409.227C1118.23 409.711 1118.33 410.143 1118.5 410.524C1118.67 410.904 1118.89 411.224 1119.16 411.485C1119.44 411.744 1119.77 411.935 1120.13 412.058C1120.5 412.18 1120.89 412.225 1121.31 412.194Z" fill="#BFDDDC"/>
<path d="M1130.11 403.656L1130.76 412.367L1129.59 412.456L1128.93 403.744L1125.84 403.977L1125.76 402.944L1133.13 402.39L1133.21 403.423L1130.11 403.656Z" fill="#BFDDDC"/>
<path d="M1138.21 411.976C1137.42 412.035 1136.73 411.937 1136.15 411.681C1135.57 411.416 1135.06 411.033 1134.63 410.532L1135.44 409.741C1135.82 410.171 1136.23 410.491 1136.67 410.702C1137.1 410.903 1137.61 410.982 1138.17 410.94C1138.87 410.887 1139.39 410.68 1139.73 410.317C1140.07 409.954 1140.23 409.494 1140.19 408.935C1140.15 408.47 1139.98 408.122 1139.69 407.892C1139.39 407.662 1138.91 407.496 1138.26 407.395L1137.45 407.274C1136.54 407.136 1135.83 406.88 1135.33 406.507C1134.83 406.123 1134.55 405.554 1134.5 404.8C1134.46 404.372 1134.52 403.984 1134.65 403.638C1134.78 403.291 1134.98 402.995 1135.24 402.751C1135.51 402.505 1135.84 402.312 1136.22 402.171C1136.61 402.02 1137.05 401.927 1137.52 401.891C1138.26 401.836 1138.9 401.924 1139.44 402.154C1139.99 402.384 1140.46 402.746 1140.87 403.24L1140.03 403.949C1139.74 403.597 1139.39 403.328 1138.99 403.142C1138.59 402.957 1138.11 402.886 1137.54 402.928C1136.92 402.975 1136.44 403.147 1136.09 403.445C1135.76 403.732 1135.61 404.141 1135.65 404.671C1135.69 405.136 1135.86 405.479 1136.18 405.699C1136.5 405.908 1136.98 406.06 1137.6 406.153L1138.41 406.275C1139.39 406.417 1140.11 406.69 1140.57 407.096C1141.03 407.501 1141.29 408.066 1141.34 408.792C1141.37 409.239 1141.32 409.65 1141.19 410.025C1141.07 410.399 1140.88 410.722 1140.61 410.995C1140.34 411.268 1140 411.49 1139.59 411.662C1139.19 411.832 1138.73 411.937 1138.21 411.976Z" fill="#BFDDDC"/>
<path d="M1149.86 409.557C1149.81 409.596 1149.75 409.621 1149.69 409.63C1149.63 409.638 1149.57 409.63 1149.52 409.606C1149.46 409.582 1149.41 409.543 1149.37 409.494C1149.34 409.444 1149.32 409.386 1149.31 409.325L1148.81 402.63C1148.81 402.569 1148.82 402.508 1148.85 402.454C1148.87 402.399 1148.92 402.354 1148.97 402.321C1149.02 402.289 1149.08 402.272 1149.14 402.272C1149.2 402.271 1149.26 402.288 1149.31 402.319L1154.31 405.31C1154.35 405.338 1154.39 405.376 1154.42 405.421C1154.45 405.466 1154.46 405.518 1154.47 405.571C1154.47 405.624 1154.46 405.677 1154.44 405.726C1154.42 405.775 1154.39 405.819 1154.35 405.853L1149.86 409.557ZM1154.79 402.18C1154.79 402.119 1154.8 402.058 1154.83 402.004C1154.86 401.95 1154.9 401.904 1154.95 401.872C1155 401.839 1155.06 401.822 1155.12 401.822C1155.18 401.821 1155.24 401.838 1155.3 401.869L1160.29 404.86C1160.34 404.888 1160.37 404.926 1160.4 404.971C1160.43 405.016 1160.45 405.068 1160.45 405.121C1160.46 405.174 1160.45 405.227 1160.43 405.276C1160.4 405.326 1160.37 405.369 1160.33 405.403L1155.84 409.107C1155.79 409.146 1155.74 409.171 1155.68 409.18C1155.62 409.189 1155.55 409.18 1155.5 409.156C1155.44 409.132 1155.39 409.093 1155.36 409.044C1155.32 408.994 1155.3 408.936 1155.3 408.875L1154.79 402.18Z" fill="#BFDDDC"/>
<path fill-rule="evenodd" clip-rule="evenodd" d="M1440.14 363.935L1288.09 407.495L953.039 433.499L952.961 432.502L1287.91 406.506L1439.86 362.974L1440.14 363.935Z" fill="#396665"/>
<circle cx="1288" cy="407" r="4" fill="#4C8886"/>
<path d="M646.333 534.297C644.811 534.125 643.412 533.376 642.423 532.206C641.434 531.035 640.931 529.53 641.016 528C641.101 526.47 641.769 525.031 642.881 523.977C643.994 522.924 645.468 522.335 647 522.333C648.534 522.332 650.011 522.919 651.126 523.973C652.241 525.027 652.91 526.468 652.995 528C653.08 529.532 652.576 531.038 651.585 532.209C650.594 533.38 649.192 534.127 647.667 534.297V537H646.333V534.297Z" fill="#BFDDDC"/>
<path d="M663.214 534.168C662.71 534.168 662.253 534.084 661.842 533.916C661.441 533.739 661.095 533.492 660.806 533.174C660.526 532.848 660.311 532.451 660.162 531.984C660.013 531.518 659.938 530.995 659.938 530.416C659.938 529.688 660.045 529.007 660.26 528.372C660.475 527.728 660.75 527.145 661.086 526.622C661.431 526.09 661.809 525.624 662.22 525.222C662.631 524.812 663.032 524.48 663.424 524.228H664.936C664.413 524.611 663.947 524.984 663.536 525.348C663.125 525.712 662.766 526.095 662.458 526.496C662.15 526.888 661.889 527.313 661.674 527.77C661.459 528.218 661.287 528.727 661.156 529.296L661.226 529.324C661.459 528.923 661.758 528.592 662.122 528.33C662.495 528.06 662.981 527.924 663.578 527.924C663.998 527.924 664.385 527.994 664.74 528.134C665.095 528.274 665.398 528.475 665.65 528.736C665.902 528.998 666.098 529.315 666.238 529.688C666.387 530.062 666.462 530.477 666.462 530.934C666.462 531.41 666.383 531.849 666.224 532.25C666.075 532.642 665.855 532.983 665.566 533.272C665.286 533.552 664.945 533.772 664.544 533.93C664.143 534.089 663.699 534.168 663.214 534.168ZM663.2 533.146C663.844 533.146 664.343 532.969 664.698 532.614C665.062 532.26 665.244 531.751 665.244 531.088V530.976C665.244 530.314 665.062 529.805 664.698 529.45C664.343 529.096 663.844 528.918 663.2 528.918C662.556 528.918 662.052 529.096 661.688 529.45C661.333 529.805 661.156 530.314 661.156 530.976V531.088C661.156 531.751 661.333 532.26 661.688 532.614C662.052 532.969 662.556 533.146 663.2 533.146Z" fill="#BFDDDC"/>
<path d="M668.767 534V532.964H671.497V525.096H671.399L668.935 527.392L668.249 526.65L670.839 524.228H672.673V532.964H675.193V534H668.767Z" fill="#BFDDDC"/>
<path d="M679.345 528.876C679.009 528.876 678.696 528.816 678.407 528.694C678.127 528.573 677.88 528.405 677.665 528.19C677.46 527.976 677.296 527.724 677.175 527.434C677.054 527.136 676.993 526.814 676.993 526.468C676.993 526.123 677.054 525.806 677.175 525.516C677.296 525.218 677.46 524.961 677.665 524.746C677.88 524.532 678.127 524.364 678.407 524.242C678.696 524.121 679.009 524.06 679.345 524.06C679.681 524.06 679.989 524.121 680.269 524.242C680.558 524.364 680.806 524.532 681.011 524.746C681.226 524.961 681.394 525.218 681.515 525.516C681.636 525.806 681.697 526.123 681.697 526.468C681.697 526.814 681.636 527.136 681.515 527.434C681.394 527.724 681.226 527.976 681.011 528.19C680.806 528.405 680.558 528.573 680.269 528.694C679.989 528.816 679.681 528.876 679.345 528.876ZM679.345 527.98C679.765 527.98 680.096 527.836 680.339 527.546C680.591 527.248 680.717 526.888 680.717 526.468C680.717 526.048 680.591 525.694 680.339 525.404C680.096 525.106 679.765 524.956 679.345 524.956C678.925 524.956 678.589 525.106 678.337 525.404C678.094 525.694 677.973 526.048 677.973 526.468C677.973 526.888 678.094 527.248 678.337 527.546C678.589 527.836 678.925 527.98 679.345 527.98Z" fill="#BFDDDC"/>
<path d="M686.958 534.168C685.791 534.168 684.937 533.725 684.396 532.838C683.864 531.952 683.598 530.71 683.598 529.114C683.598 527.518 683.864 526.277 684.396 525.39C684.937 524.504 685.791 524.06 686.958 524.06C688.125 524.06 688.974 524.504 689.506 525.39C690.047 526.277 690.318 527.518 690.318 529.114C690.318 530.71 690.047 531.952 689.506 532.838C688.974 533.725 688.125 534.168 686.958 534.168ZM686.958 533.146C687.341 533.146 687.667 533.067 687.938 532.908C688.209 532.75 688.428 532.526 688.596 532.236C688.764 531.947 688.885 531.606 688.96 531.214C689.044 530.822 689.086 530.388 689.086 529.912V528.316C689.086 527.84 689.044 527.406 688.96 527.014C688.885 526.622 688.764 526.282 688.596 525.992C688.428 525.703 688.209 525.479 687.938 525.32C687.667 525.162 687.341 525.082 686.958 525.082C686.575 525.082 686.249 525.162 685.978 525.32C685.707 525.479 685.488 525.703 685.32 525.992C685.152 526.282 685.026 526.622 684.942 527.014C684.867 527.406 684.83 527.84 684.83 528.316V529.912C684.83 530.388 684.867 530.822 684.942 531.214C685.026 531.606 685.152 531.947 685.32 532.236C685.488 532.526 685.707 532.75 685.978 532.908C686.249 533.067 686.575 533.146 686.958 533.146Z" fill="#BFDDDC"/>
<path d="M695.492 534.168C694.326 534.168 693.472 533.725 692.93 532.838C692.398 531.952 692.132 530.71 692.132 529.114C692.132 527.518 692.398 526.277 692.93 525.39C693.472 524.504 694.326 524.06 695.492 524.06C696.659 524.06 697.508 524.504 698.04 525.39C698.582 526.277 698.852 527.518 698.852 529.114C698.852 530.71 698.582 531.952 698.04 532.838C697.508 533.725 696.659 534.168 695.492 534.168ZM695.492 533.146C695.875 533.146 696.202 533.067 696.472 532.908C696.743 532.75 696.962 532.526 697.13 532.236C697.298 531.947 697.42 531.606 697.494 531.214C697.578 530.822 697.62 530.388 697.62 529.912V528.316C697.62 527.84 697.578 527.406 697.494 527.014C697.42 526.622 697.298 526.282 697.13 525.992C696.962 525.703 696.743 525.479 696.472 525.32C696.202 525.162 695.875 525.082 695.492 525.082C695.11 525.082 694.783 525.162 694.512 525.32C694.242 525.479 694.022 525.703 693.854 525.992C693.686 526.282 693.56 526.622 693.476 527.014C693.402 527.406 693.364 527.84 693.364 528.316V529.912C693.364 530.388 693.402 530.822 693.476 531.214C693.56 531.606 693.686 531.947 693.854 532.236C694.022 532.526 694.242 532.75 694.512 532.908C694.783 533.067 695.11 533.146 695.492 533.146Z" fill="#BFDDDC"/>
<path d="M700.611 528.708L701.395 524.228H702.431L701.647 528.708H700.611Z" fill="#BFDDDC"/>
<path d="M707.026 528.036L705.85 525.866H705.808V534H704.66V524.228H706.018L709.588 530.192L710.764 532.362H710.806V524.228H711.954V534H710.596L707.026 528.036Z" fill="#BFDDDC"/>
<path d="M720.499 528.372C721.161 528.372 721.656 528.223 721.983 527.924C722.319 527.616 722.487 527.224 722.487 526.748V526.65C722.487 526.137 722.323 525.754 721.997 525.502C721.679 525.241 721.259 525.11 720.737 525.11C720.233 525.11 719.822 525.222 719.505 525.446C719.187 525.661 718.926 525.955 718.721 526.328L717.853 525.656C717.974 525.46 718.119 525.269 718.287 525.082C718.464 524.886 718.669 524.714 718.903 524.564C719.136 524.415 719.407 524.294 719.715 524.2C720.023 524.107 720.373 524.06 720.765 524.06C721.175 524.06 721.563 524.116 721.927 524.228C722.291 524.331 722.603 524.49 722.865 524.704C723.135 524.91 723.345 525.166 723.495 525.474C723.653 525.782 723.733 526.132 723.733 526.524C723.733 526.842 723.681 527.126 723.579 527.378C723.485 527.63 723.355 527.85 723.187 528.036C723.019 528.223 722.818 528.382 722.585 528.512C722.361 528.643 722.118 528.741 721.857 528.806V528.862C722.118 528.918 722.37 529.012 722.613 529.142C722.865 529.264 723.084 529.427 723.271 529.632C723.467 529.828 723.621 530.071 723.733 530.36C723.854 530.64 723.915 530.962 723.915 531.326C723.915 531.746 723.835 532.134 723.677 532.488C723.518 532.834 723.294 533.132 723.005 533.384C722.715 533.627 722.365 533.818 721.955 533.958C721.544 534.098 721.091 534.168 720.597 534.168C720.177 534.168 719.803 534.122 719.477 534.028C719.15 533.935 718.861 533.809 718.609 533.65C718.357 533.492 718.133 533.314 717.937 533.118C717.75 532.922 717.582 532.717 717.433 532.502L718.315 531.83C718.436 532.026 718.567 532.204 718.707 532.362C718.856 532.521 719.019 532.656 719.197 532.768C719.374 532.88 719.575 532.969 719.799 533.034C720.023 533.09 720.284 533.118 720.583 533.118C721.273 533.118 721.796 532.964 722.151 532.656C722.505 532.339 722.683 531.891 722.683 531.312V531.2C722.683 530.622 722.505 530.178 722.151 529.87C721.796 529.553 721.273 529.394 720.583 529.394H719.435V528.372H720.499Z" fill="#BFDDDC"/>
<path d="M726.611 534V532.964H729.341V525.096H729.243L726.779 527.392L726.093 526.65L728.683 524.228H730.517V532.964H733.037V534H726.611Z" fill="#BFDDDC"/>
<path d="M737.19 528.876C736.854 528.876 736.541 528.816 736.252 528.694C735.972 528.573 735.724 528.405 735.51 528.19C735.304 527.976 735.141 527.724 735.02 527.434C734.898 527.136 734.838 526.814 734.838 526.468C734.838 526.123 734.898 525.806 735.02 525.516C735.141 525.218 735.304 524.961 735.51 524.746C735.724 524.532 735.972 524.364 736.252 524.242C736.541 524.121 736.854 524.06 737.19 524.06C737.526 524.06 737.834 524.121 738.114 524.242C738.403 524.364 738.65 524.532 738.856 524.746C739.07 524.961 739.238 525.218 739.36 525.516C739.481 525.806 739.542 526.123 739.542 526.468C739.542 526.814 739.481 527.136 739.36 527.434C739.238 527.724 739.07 527.976 738.856 528.19C738.65 528.405 738.403 528.573 738.114 528.694C737.834 528.816 737.526 528.876 737.19 528.876ZM737.19 527.98C737.61 527.98 737.941 527.836 738.184 527.546C738.436 527.248 738.562 526.888 738.562 526.468C738.562 526.048 738.436 525.694 738.184 525.404C737.941 525.106 737.61 524.956 737.19 524.956C736.77 524.956 736.434 525.106 736.182 525.404C735.939 525.694 735.818 526.048 735.818 526.468C735.818 526.888 735.939 527.248 736.182 527.546C736.434 527.836 736.77 527.98 737.19 527.98Z" fill="#BFDDDC"/>
<path d="M744.257 528.372C744.919 528.372 745.414 528.223 745.741 527.924C746.077 527.616 746.245 527.224 746.245 526.748V526.65C746.245 526.137 746.081 525.754 745.755 525.502C745.437 525.241 745.017 525.11 744.495 525.11C743.991 525.11 743.58 525.222 743.263 525.446C742.945 525.661 742.684 525.955 742.479 526.328L741.611 525.656C741.732 525.46 741.877 525.269 742.045 525.082C742.222 524.886 742.427 524.714 742.661 524.564C742.894 524.415 743.165 524.294 743.473 524.2C743.781 524.107 744.131 524.06 744.523 524.06C744.933 524.06 745.321 524.116 745.685 524.228C746.049 524.331 746.361 524.49 746.623 524.704C746.893 524.91 747.103 525.166 747.253 525.474C747.411 525.782 747.491 526.132 747.491 526.524C747.491 526.842 747.439 527.126 747.337 527.378C747.243 527.63 747.113 527.85 746.945 528.036C746.777 528.223 746.576 528.382 746.343 528.512C746.119 528.643 745.876 528.741 745.615 528.806V528.862C745.876 528.918 746.128 529.012 746.371 529.142C746.623 529.264 746.842 529.427 747.029 529.632C747.225 529.828 747.379 530.071 747.491 530.36C747.612 530.64 747.673 530.962 747.673 531.326C747.673 531.746 747.593 532.134 747.435 532.488C747.276 532.834 747.052 533.132 746.763 533.384C746.473 533.627 746.123 533.818 745.713 533.958C745.302 534.098 744.849 534.168 744.355 534.168C743.935 534.168 743.561 534.122 743.235 534.028C742.908 533.935 742.619 533.809 742.367 533.65C742.115 533.492 741.891 533.314 741.695 533.118C741.508 532.922 741.34 532.717 741.191 532.502L742.073 531.83C742.194 532.026 742.325 532.204 742.465 532.362C742.614 532.521 742.777 532.656 742.955 532.768C743.132 532.88 743.333 532.969 743.557 533.034C743.781 533.09 744.042 533.118 744.341 533.118C745.031 533.118 745.554 532.964 745.909 532.656C746.263 532.339 746.441 531.891 746.441 531.312V531.2C746.441 530.622 746.263 530.178 745.909 529.87C745.554 529.553 745.031 529.394 744.341 529.394H743.193V528.372H744.257Z" fill="#BFDDDC"/>
<path d="M753.337 534.168C752.17 534.168 751.316 533.725 750.775 532.838C750.243 531.952 749.977 530.71 749.977 529.114C749.977 527.518 750.243 526.277 750.775 525.39C751.316 524.504 752.17 524.06 753.337 524.06C754.504 524.06 755.353 524.504 755.885 525.39C756.426 526.277 756.697 527.518 756.697 529.114C756.697 530.71 756.426 531.952 755.885 532.838C755.353 533.725 754.504 534.168 753.337 534.168ZM753.337 533.146C753.72 533.146 754.046 533.067 754.317 532.908C754.588 532.75 754.807 532.526 754.975 532.236C755.143 531.947 755.264 531.606 755.339 531.214C755.423 530.822 755.465 530.388 755.465 529.912V528.316C755.465 527.84 755.423 527.406 755.339 527.014C755.264 526.622 755.143 526.282 754.975 525.992C754.807 525.703 754.588 525.479 754.317 525.32C754.046 525.162 753.72 525.082 753.337 525.082C752.954 525.082 752.628 525.162 752.357 525.32C752.086 525.479 751.867 525.703 751.699 525.992C751.531 526.282 751.405 526.622 751.321 527.014C751.246 527.406 751.209 527.84 751.209 528.316V529.912C751.209 530.388 751.246 530.822 751.321 531.214C751.405 531.606 751.531 531.947 751.699 532.236C751.867 532.526 752.086 532.75 752.357 532.908C752.628 533.067 752.954 533.146 753.337 533.146Z" fill="#BFDDDC"/>
<path d="M758.456 528.708L759.24 524.228H760.276L759.492 528.708H758.456Z" fill="#BFDDDC"/>
<path d="M762.504 534V524.228H768.468V525.264H763.68V528.54H768.188V529.576H763.68V532.964H768.468V534H762.504Z" fill="#BFDDDC"/>
</svg>
