<svg width="1440" height="810" viewBox="0 0 1440 810" fill="none" xmlns="http://www.w3.org/2000/svg">
<path d="M418.45 550L422.188 541.236H418.016V543.056H416.966V540.228H423.378V541.264L419.71 550H418.45Z" fill="#BFDDDC"/>
<path d="M431.507 541.264H427.223L426.943 544.988H427.041C427.274 544.661 427.535 544.4 427.825 544.204C428.123 544.008 428.529 543.91 429.043 543.91C429.463 543.91 429.85 543.98 430.205 544.12C430.559 544.26 430.867 544.461 431.129 544.722C431.39 544.974 431.591 545.287 431.731 545.66C431.88 546.033 431.955 546.458 431.955 546.934C431.955 547.41 431.88 547.849 431.731 548.25C431.581 548.642 431.362 548.983 431.073 549.272C430.793 549.552 430.447 549.771 430.037 549.93C429.635 550.089 429.178 550.168 428.665 550.168C428.254 550.168 427.89 550.121 427.573 550.028C427.265 549.935 426.989 549.809 426.747 549.65C426.504 549.491 426.289 549.314 426.103 549.118C425.925 548.922 425.762 548.717 425.613 548.502L426.495 547.83C426.616 548.026 426.742 548.203 426.873 548.362C427.013 548.521 427.162 548.656 427.321 548.768C427.489 548.88 427.68 548.969 427.895 549.034C428.109 549.09 428.366 549.118 428.665 549.118C429.337 549.118 429.845 548.941 430.191 548.586C430.536 548.231 430.709 547.732 430.709 547.088V546.948C430.709 546.304 430.536 545.805 430.191 545.45C429.845 545.095 429.337 544.918 428.665 544.918C428.217 544.918 427.862 545.002 427.601 545.17C427.349 545.329 427.12 545.52 426.915 545.744L425.921 545.604L426.271 540.228H431.507V541.264Z" fill="#BFDDDC"/>
<path d="M435.631 550L442.407 540.228H443.485L436.709 550H435.631ZM436.191 545.604C435.482 545.604 434.936 545.371 434.553 544.904C434.17 544.428 433.979 543.737 433.979 542.832C433.979 541.927 434.17 541.241 434.553 540.774C434.936 540.298 435.482 540.06 436.191 540.06C436.9 540.06 437.446 540.298 437.829 540.774C438.212 541.241 438.403 541.927 438.403 542.832C438.403 543.737 438.212 544.428 437.829 544.904C437.446 545.371 436.9 545.604 436.191 545.604ZM436.191 544.876C436.994 544.876 437.395 544.335 437.395 543.252V542.412C437.395 541.329 436.994 540.788 436.191 540.788C435.388 540.788 434.987 541.329 434.987 542.412V543.252C434.987 544.335 435.388 544.876 436.191 544.876ZM442.925 550.168C442.216 550.168 441.67 549.935 441.287 549.468C440.904 548.992 440.713 548.301 440.713 547.396C440.713 546.491 440.904 545.805 441.287 545.338C441.67 544.862 442.216 544.624 442.925 544.624C443.634 544.624 444.18 544.862 444.563 545.338C444.946 545.805 445.137 546.491 445.137 547.396C445.137 548.301 444.946 548.992 444.563 549.468C444.18 549.935 443.634 550.168 442.925 550.168ZM442.925 549.44C443.728 549.44 444.129 548.899 444.129 547.816V546.976C444.129 545.893 443.728 545.352 442.925 545.352C442.122 545.352 441.721 545.893 441.721 546.976V547.816C441.721 548.899 442.122 549.44 442.925 549.44Z" fill="#BFDDDC"/>
<path d="M404 514.333C404.177 514.333 404.346 514.404 404.471 514.529C404.596 514.654 404.667 514.823 404.667 515V517C404.667 517.177 404.596 517.347 404.471 517.472C404.346 517.597 404.177 517.667 404 517.667C403.823 517.667 403.654 517.597 403.529 517.472C403.404 517.347 403.333 517.177 403.333 517V515C403.333 514.823 403.404 514.654 403.529 514.529C403.654 514.404 403.823 514.333 404 514.333ZM404 524.333C404.177 524.333 404.346 524.404 404.471 524.529C404.596 524.654 404.667 524.823 404.667 525V527C404.667 527.177 404.596 527.347 404.471 527.472C404.346 527.597 404.177 527.667 404 527.667C403.823 527.667 403.654 527.597 403.529 527.472C403.404 527.347 403.333 527.177 403.333 527V525C403.333 524.823 403.404 524.654 403.529 524.529C403.654 524.404 403.823 524.333 404 524.333ZM410.667 521C410.667 521.177 410.596 521.347 410.471 521.472C410.346 521.597 410.177 521.667 410 521.667H408C407.823 521.667 407.654 521.597 407.529 521.472C407.404 521.347 407.333 521.177 407.333 521C407.333 520.823 407.404 520.654 407.529 520.529C407.654 520.404 407.823 520.333 408 520.333H410C410.177 520.333 410.346 520.404 410.471 520.529C410.596 520.654 410.667 520.823 410.667 521ZM400.667 521C400.667 521.177 400.596 521.347 400.471 521.472C400.346 521.597 400.177 521.667 400 521.667H398C397.823 521.667 397.654 521.597 397.529 521.472C397.404 521.347 397.333 521.177 397.333 521C397.333 520.823 397.404 520.654 397.529 520.529C397.654 520.404 397.823 520.333 398 520.333H400C400.177 520.333 400.346 520.404 400.471 520.529C400.596 520.654 400.667 520.823 400.667 521ZM408.714 525.714C408.589 525.839 408.419 525.909 408.243 525.909C408.066 525.909 407.896 525.839 407.771 525.714L406.357 524.3C406.236 524.174 406.169 524.006 406.17 523.831C406.172 523.656 406.242 523.489 406.365 523.366C406.489 523.242 406.656 523.172 406.831 523.17C407.006 523.169 407.174 523.236 407.3 523.357L408.714 524.771C408.776 524.833 408.825 524.906 408.859 524.987C408.892 525.068 408.91 525.155 408.91 525.242C408.91 525.33 408.892 525.417 408.859 525.498C408.825 525.579 408.776 525.652 408.714 525.714ZM401.643 518.643C401.518 518.768 401.348 518.838 401.171 518.838C400.995 518.838 400.825 518.768 400.7 518.643L399.287 517.229C399.162 517.104 399.091 516.935 399.091 516.758C399.091 516.581 399.161 516.412 399.286 516.286C399.411 516.161 399.581 516.091 399.758 516.091C399.935 516.091 400.104 516.161 400.229 516.286L401.643 517.7C401.768 517.825 401.838 517.995 401.838 518.171C401.838 518.348 401.768 518.518 401.643 518.643ZM399.287 525.714C399.162 525.589 399.091 525.42 399.091 525.243C399.091 525.066 399.162 524.897 399.287 524.771L400.701 523.357C400.762 523.294 400.836 523.243 400.917 523.208C400.998 523.173 401.086 523.155 401.174 523.154C401.263 523.153 401.351 523.17 401.433 523.204C401.515 523.237 401.589 523.287 401.652 523.349C401.714 523.412 401.764 523.486 401.797 523.568C401.831 523.65 401.848 523.738 401.847 523.826C401.846 523.915 401.828 524.002 401.793 524.084C401.758 524.165 401.707 524.239 401.643 524.3L400.23 525.714C400.168 525.776 400.095 525.825 400.014 525.859C399.933 525.892 399.846 525.91 399.758 525.91C399.671 525.91 399.584 525.892 399.503 525.859C399.422 525.825 399.349 525.776 399.287 525.714ZM406.357 518.643C406.232 518.518 406.162 518.348 406.162 518.171C406.162 517.995 406.232 517.825 406.357 517.7L407.771 516.286C407.896 516.161 408.065 516.091 408.242 516.091C408.419 516.091 408.589 516.161 408.714 516.286C408.839 516.411 408.909 516.58 408.909 516.757C408.909 516.934 408.839 517.104 408.714 517.229L407.3 518.643C407.175 518.768 407.005 518.838 406.829 518.838C406.652 518.838 406.482 518.768 406.357 518.643Z" fill="#BFDDDC"/>
<path d="M418.45 526L422.188 517.236H418.016V519.056H416.966V516.228H423.378V517.264L419.71 526H418.45Z" fill="#BFDDDC"/>
<path d="M428.189 520.372C428.851 520.372 429.346 520.223 429.673 519.924C430.009 519.616 430.177 519.224 430.177 518.748V518.65C430.177 518.137 430.013 517.754 429.687 517.502C429.369 517.241 428.949 517.11 428.427 517.11C427.923 517.11 427.512 517.222 427.195 517.446C426.877 517.661 426.616 517.955 426.411 518.328L425.543 517.656C425.664 517.46 425.809 517.269 425.977 517.082C426.154 516.886 426.359 516.713 426.593 516.564C426.826 516.415 427.097 516.293 427.405 516.2C427.713 516.107 428.063 516.06 428.455 516.06C428.865 516.06 429.253 516.116 429.617 516.228C429.981 516.331 430.293 516.489 430.555 516.704C430.825 516.909 431.035 517.166 431.185 517.474C431.343 517.782 431.423 518.132 431.423 518.524C431.423 518.841 431.371 519.126 431.269 519.378C431.175 519.63 431.045 519.849 430.877 520.036C430.709 520.223 430.508 520.381 430.275 520.512C430.051 520.643 429.808 520.741 429.547 520.806V520.862C429.808 520.918 430.06 521.011 430.303 521.142C430.555 521.263 430.774 521.427 430.961 521.632C431.157 521.828 431.311 522.071 431.423 522.36C431.544 522.64 431.605 522.962 431.605 523.326C431.605 523.746 431.525 524.133 431.367 524.488C431.208 524.833 430.984 525.132 430.695 525.384C430.405 525.627 430.055 525.818 429.645 525.958C429.234 526.098 428.781 526.168 428.287 526.168C427.867 526.168 427.493 526.121 427.167 526.028C426.84 525.935 426.551 525.809 426.299 525.65C426.047 525.491 425.823 525.314 425.627 525.118C425.44 524.922 425.272 524.717 425.123 524.502L426.005 523.83C426.126 524.026 426.257 524.203 426.397 524.362C426.546 524.521 426.709 524.656 426.887 524.768C427.064 524.88 427.265 524.969 427.489 525.034C427.713 525.09 427.974 525.118 428.273 525.118C428.963 525.118 429.486 524.964 429.841 524.656C430.195 524.339 430.373 523.891 430.373 523.312V523.2C430.373 522.621 430.195 522.178 429.841 521.87C429.486 521.553 428.963 521.394 428.273 521.394H427.125V520.372H428.189Z" fill="#BFDDDC"/>
<path d="M440.531 519.812C440.531 520.54 440.424 521.226 440.209 521.87C439.994 522.505 439.714 523.088 439.369 523.62C439.033 524.143 438.66 524.609 438.249 525.02C437.838 525.421 437.437 525.748 437.045 526H435.533C436.056 525.617 436.522 525.244 436.933 524.88C437.344 524.516 437.703 524.138 438.011 523.746C438.319 523.345 438.58 522.92 438.795 522.472C439.01 522.015 439.182 521.501 439.313 520.932L439.243 520.904C439.01 521.305 438.706 521.641 438.333 521.912C437.969 522.173 437.488 522.304 436.891 522.304C436.471 522.304 436.084 522.234 435.729 522.094C435.374 521.954 435.071 521.753 434.819 521.492C434.567 521.231 434.366 520.918 434.217 520.554C434.077 520.181 434.007 519.761 434.007 519.294C434.007 518.818 434.082 518.384 434.231 517.992C434.39 517.591 434.609 517.25 434.889 516.97C435.178 516.681 435.519 516.457 435.911 516.298C436.312 516.139 436.76 516.06 437.255 516.06C437.759 516.06 438.212 516.149 438.613 516.326C439.024 516.494 439.369 516.741 439.649 517.068C439.938 517.385 440.158 517.777 440.307 518.244C440.456 518.711 440.531 519.233 440.531 519.812ZM437.269 521.31C437.913 521.31 438.412 521.133 438.767 520.778C439.131 520.423 439.313 519.915 439.313 519.252V519.14C439.313 518.477 439.131 517.969 438.767 517.614C438.412 517.259 437.913 517.082 437.269 517.082C436.625 517.082 436.121 517.259 435.757 517.614C435.402 517.969 435.225 518.477 435.225 519.14V519.252C435.225 519.915 435.402 520.423 435.757 520.778C436.121 521.133 436.625 521.31 437.269 521.31Z" fill="#BFDDDC"/>
<path d="M447.53 526H446.354V516.228H450.246C451.105 516.228 451.772 516.466 452.248 516.942C452.734 517.418 452.976 518.104 452.976 519C452.976 519.719 452.808 520.311 452.472 520.778C452.146 521.235 451.66 521.539 451.016 521.688L453.256 526H451.926L449.812 521.8H447.53V526ZM450.246 520.792C450.713 520.792 451.072 520.671 451.324 520.428C451.586 520.185 451.716 519.84 451.716 519.392V518.664C451.716 518.216 451.586 517.871 451.324 517.628C451.072 517.385 450.713 517.264 450.246 517.264H447.53V520.792H450.246Z" fill="#BFDDDC"/>
<path d="M455.449 526V516.228H459.341C460.219 516.228 460.891 516.48 461.357 516.984C461.833 517.479 462.071 518.16 462.071 519.028C462.071 519.896 461.833 520.582 461.357 521.086C460.891 521.581 460.219 521.828 459.341 521.828H456.625V526H455.449ZM456.625 520.792H459.341C459.808 520.792 460.167 520.671 460.419 520.428C460.681 520.185 460.811 519.84 460.811 519.392V518.664C460.811 518.216 460.681 517.871 460.419 517.628C460.167 517.385 459.808 517.264 459.341 517.264H456.625V520.792Z" fill="#BFDDDC"/>
<path d="M471.696 517.768H471.626L470.8 519.406L468.462 523.662L466.124 519.406L465.298 517.768H465.228V526H464.08V516.228H465.648L468.448 521.492H468.518L471.332 516.228H472.844V526H471.696V517.768Z" fill="#BFDDDC"/>
<path d="M418.45 350L422.188 341.236H418.016V343.056H416.966V340.228H423.378V341.264L419.71 350H418.45Z" fill="#BFDDDC"/>
<path d="M425.767 350V348.964H428.497V341.096H428.399L425.935 343.392L425.249 342.65L427.839 340.228H429.673V348.964H432.193V350H425.767Z" fill="#BFDDDC"/>
<path d="M435.631 350L442.407 340.228H443.485L436.709 350H435.631ZM436.191 345.604C435.482 345.604 434.936 345.371 434.553 344.904C434.17 344.428 433.979 343.737 433.979 342.832C433.979 341.927 434.17 341.241 434.553 340.774C434.936 340.298 435.482 340.06 436.191 340.06C436.9 340.06 437.446 340.298 437.829 340.774C438.212 341.241 438.403 341.927 438.403 342.832C438.403 343.737 438.212 344.428 437.829 344.904C437.446 345.371 436.9 345.604 436.191 345.604ZM436.191 344.876C436.994 344.876 437.395 344.335 437.395 343.252V342.412C437.395 341.329 436.994 340.788 436.191 340.788C435.388 340.788 434.987 341.329 434.987 342.412V343.252C434.987 344.335 435.388 344.876 436.191 344.876ZM442.925 350.168C442.216 350.168 441.67 349.935 441.287 349.468C440.904 348.992 440.713 348.301 440.713 347.396C440.713 346.491 440.904 345.805 441.287 345.338C441.67 344.862 442.216 344.624 442.925 344.624C443.634 344.624 444.18 344.862 444.563 345.338C444.946 345.805 445.137 346.491 445.137 347.396C445.137 348.301 444.946 348.992 444.563 349.468C444.18 349.935 443.634 350.168 442.925 350.168ZM442.925 349.44C443.728 349.44 444.129 348.899 444.129 347.816V346.976C444.129 345.893 443.728 345.352 442.925 345.352C442.122 345.352 441.721 345.893 441.721 346.976V347.816C441.721 348.899 442.122 349.44 442.925 349.44Z" fill="#BFDDDC"/>
<path d="M404 314.333C404.177 314.333 404.346 314.404 404.471 314.529C404.596 314.654 404.667 314.823 404.667 315V317C404.667 317.177 404.596 317.347 404.471 317.472C404.346 317.597 404.177 317.667 404 317.667C403.823 317.667 403.654 317.597 403.529 317.472C403.404 317.347 403.333 317.177 403.333 317V315C403.333 314.823 403.404 314.654 403.529 314.529C403.654 314.404 403.823 314.333 404 314.333ZM404 324.333C404.177 324.333 404.346 324.404 404.471 324.529C404.596 324.654 404.667 324.823 404.667 325V327C404.667 327.177 404.596 327.347 404.471 327.472C404.346 327.597 404.177 327.667 404 327.667C403.823 327.667 403.654 327.597 403.529 327.472C403.404 327.347 403.333 327.177 403.333 327V325C403.333 324.823 403.404 324.654 403.529 324.529C403.654 324.404 403.823 324.333 404 324.333ZM410.667 321C410.667 321.177 410.596 321.347 410.471 321.472C410.346 321.597 410.177 321.667 410 321.667H408C407.823 321.667 407.654 321.597 407.529 321.472C407.404 321.347 407.333 321.177 407.333 321C407.333 320.823 407.404 320.654 407.529 320.529C407.654 320.404 407.823 320.333 408 320.333H410C410.177 320.333 410.346 320.404 410.471 320.529C410.596 320.654 410.667 320.823 410.667 321ZM400.667 321C400.667 321.177 400.596 321.347 400.471 321.472C400.346 321.597 400.177 321.667 400 321.667H398C397.823 321.667 397.654 321.597 397.529 321.472C397.404 321.347 397.333 321.177 397.333 321C397.333 320.823 397.404 320.654 397.529 320.529C397.654 320.404 397.823 320.333 398 320.333H400C400.177 320.333 400.346 320.404 400.471 320.529C400.596 320.654 400.667 320.823 400.667 321ZM408.714 325.714C408.589 325.839 408.419 325.909 408.243 325.909C408.066 325.909 407.896 325.839 407.771 325.714L406.357 324.3C406.236 324.174 406.169 324.006 406.17 323.831C406.172 323.656 406.242 323.489 406.365 323.366C406.489 323.242 406.656 323.172 406.831 323.17C407.006 323.169 407.174 323.236 407.3 323.357L408.714 324.771C408.776 324.833 408.825 324.906 408.859 324.987C408.892 325.068 408.91 325.155 408.91 325.242C408.91 325.33 408.892 325.417 408.859 325.498C408.825 325.579 408.776 325.652 408.714 325.714ZM401.643 318.643C401.518 318.768 401.348 318.838 401.171 318.838C400.995 318.838 400.825 318.768 400.7 318.643L399.287 317.229C399.162 317.104 399.091 316.935 399.091 316.758C399.091 316.581 399.161 316.412 399.286 316.286C399.411 316.161 399.581 316.091 399.758 316.091C399.935 316.091 400.104 316.161 400.229 316.286L401.643 317.7C401.768 317.825 401.838 317.995 401.838 318.171C401.838 318.348 401.768 318.518 401.643 318.643ZM399.287 325.714C399.162 325.589 399.091 325.42 399.091 325.243C399.091 325.066 399.162 324.897 399.287 324.771L400.701 323.357C400.762 323.294 400.836 323.243 400.917 323.208C400.998 323.173 401.086 323.155 401.174 323.154C401.263 323.153 401.351 323.17 401.433 323.204C401.515 323.237 401.589 323.287 401.652 323.349C401.714 323.412 401.764 323.486 401.797 323.568C401.831 323.65 401.848 323.738 401.847 323.826C401.846 323.915 401.828 324.002 401.793 324.084C401.758 324.165 401.707 324.239 401.643 324.3L400.23 325.714C400.168 325.776 400.095 325.825 400.014 325.859C399.933 325.892 399.846 325.91 399.758 325.91C399.671 325.91 399.584 325.892 399.503 325.859C399.422 325.825 399.349 325.776 399.287 325.714ZM406.357 318.643C406.232 318.518 406.162 318.348 406.162 318.171C406.162 317.995 406.232 317.825 406.357 317.7L407.771 316.286C407.896 316.161 408.065 316.091 408.242 316.091C408.419 316.091 408.589 316.161 408.714 316.286C408.839 316.411 408.909 316.58 408.909 316.757C408.909 316.934 408.839 317.104 408.714 317.229L407.3 318.643C407.175 318.768 407.005 318.838 406.829 318.838C406.652 318.838 406.482 318.768 406.357 318.643Z" fill="#BFDDDC"/>
<path d="M418.45 326L422.188 317.236H418.016V319.056H416.966V316.228H423.378V317.264L419.71 326H418.45Z" fill="#BFDDDC"/>
<path d="M431.997 326H425.585V324.796L428.777 321.856C429.234 321.436 429.617 320.993 429.925 320.526C430.233 320.05 430.387 319.574 430.387 319.098V318.93C430.387 318.389 430.237 317.95 429.939 317.614C429.64 317.278 429.187 317.11 428.581 317.11C428.282 317.11 428.021 317.152 427.797 317.236C427.573 317.32 427.377 317.437 427.209 317.586C427.05 317.735 426.915 317.913 426.803 318.118C426.7 318.314 426.616 318.529 426.551 318.762L425.501 318.356C425.594 318.067 425.72 317.787 425.879 317.516C426.047 317.236 426.252 316.989 426.495 316.774C426.747 316.559 427.045 316.387 427.391 316.256C427.745 316.125 428.161 316.06 428.637 316.06C429.113 316.06 429.537 316.13 429.911 316.27C430.284 316.41 430.597 316.606 430.849 316.858C431.101 317.11 431.292 317.409 431.423 317.754C431.563 318.099 431.633 318.482 431.633 318.902C431.633 319.285 431.577 319.639 431.465 319.966C431.362 320.293 431.217 320.605 431.031 320.904C430.844 321.193 430.615 321.478 430.345 321.758C430.083 322.038 429.799 322.318 429.491 322.598L426.859 324.964H431.997V326Z" fill="#BFDDDC"/>
<path d="M437.269 326.168C436.709 326.168 436.219 326.098 435.799 325.958C435.379 325.809 435.024 325.608 434.735 325.356C434.455 325.104 434.24 324.805 434.091 324.46C433.951 324.115 433.881 323.741 433.881 323.34C433.881 322.668 434.063 322.136 434.427 321.744C434.791 321.352 435.267 321.077 435.855 320.918V320.806C435.342 320.629 434.931 320.344 434.623 319.952C434.324 319.551 434.175 319.07 434.175 318.51C434.175 317.763 434.446 317.171 434.987 316.732C435.528 316.284 436.289 316.06 437.269 316.06C438.249 316.06 439.01 316.284 439.551 316.732C440.092 317.171 440.363 317.763 440.363 318.51C440.363 319.07 440.209 319.551 439.901 319.952C439.602 320.344 439.196 320.629 438.683 320.806V320.918C439.271 321.077 439.747 321.352 440.111 321.744C440.475 322.136 440.657 322.668 440.657 323.34C440.657 323.741 440.582 324.115 440.433 324.46C440.293 324.805 440.078 325.104 439.789 325.356C439.509 325.608 439.159 325.809 438.739 325.958C438.319 326.098 437.829 326.168 437.269 326.168ZM437.269 325.146C437.95 325.146 438.478 324.997 438.851 324.698C439.224 324.39 439.411 323.956 439.411 323.396V323.102C439.411 322.542 439.224 322.113 438.851 321.814C438.478 321.506 437.95 321.352 437.269 321.352C436.588 321.352 436.06 321.506 435.687 321.814C435.314 322.113 435.127 322.542 435.127 323.102V323.396C435.127 323.956 435.314 324.39 435.687 324.698C436.06 324.997 436.588 325.146 437.269 325.146ZM437.269 320.372C437.885 320.372 438.352 320.241 438.669 319.98C438.986 319.719 439.145 319.336 439.145 318.832V318.622C439.145 318.118 438.986 317.735 438.669 317.474C438.352 317.213 437.885 317.082 437.269 317.082C436.653 317.082 436.186 317.213 435.869 317.474C435.552 317.735 435.393 318.118 435.393 318.622V318.832C435.393 319.336 435.552 319.719 435.869 319.98C436.186 320.241 436.653 320.372 437.269 320.372Z" fill="#BFDDDC"/>
<path d="M447.53 326H446.354V316.228H450.246C451.105 316.228 451.772 316.466 452.248 316.942C452.734 317.418 452.976 318.104 452.976 319C452.976 319.719 452.808 320.311 452.472 320.778C452.146 321.235 451.66 321.539 451.016 321.688L453.256 326H451.926L449.812 321.8H447.53V326ZM450.246 320.792C450.713 320.792 451.072 320.671 451.324 320.428C451.586 320.185 451.716 319.84 451.716 319.392V318.664C451.716 318.216 451.586 317.871 451.324 317.628C451.072 317.385 450.713 317.264 450.246 317.264H447.53V320.792H450.246Z" fill="#BFDDDC"/>
<path d="M455.449 326V316.228H459.341C460.219 316.228 460.891 316.48 461.357 316.984C461.833 317.479 462.071 318.16 462.071 319.028C462.071 319.896 461.833 320.582 461.357 321.086C460.891 321.581 460.219 321.828 459.341 321.828H456.625V326H455.449ZM456.625 320.792H459.341C459.808 320.792 460.167 320.671 460.419 320.428C460.681 320.185 460.811 319.84 460.811 319.392V318.664C460.811 318.216 460.681 317.871 460.419 317.628C460.167 317.385 459.808 317.264 459.341 317.264H456.625V320.792Z" fill="#BFDDDC"/>
<path d="M471.696 317.768H471.626L470.8 319.406L468.462 323.662L466.124 319.406L465.298 317.768H465.228V326H464.08V316.228H465.648L468.448 321.492H468.518L471.332 316.228H472.844V326H471.696V317.768Z" fill="#BFDDDC"/>
</svg>
