<svg width="151" height="92" fill="none" xmlns="http://www.w3.org/2000/svg"><path d="M33.608 76.126l-7.447.356v11.392c.151.534.455.89 1.063 1.424 1.52.89 3.952.89 5.32 0 .456-.356.76-.712.912-1.068h.151V76.126zm42.842-9.839l-1.861.268v23.043c.038.402.12.67.272 1.072.582.44.832.44 1.269 0 .114-.268.244-.536.282-.804h.038V66.287z" fill="#FAF9F5" stroke="#323232" stroke-width=".6" stroke-miterlimit="10" stroke-linecap="round" stroke-linejoin="round"/><path d="M79.014 86.874c1.794-.922 1.695-2.561-.1-3.483-1.794-.922-4.784-.922-6.578 0-1.795.922-1.795 2.458.1 3.483 1.793 1.024 4.784 1.024 6.578 0z" fill="#F7F3E9" stroke="#323232" stroke-width=".6" stroke-miterlimit="10"/><path d="M77.862 61.456l-4.654.267v23.043c.095.402.3.67.68 1.072 1.456.44 2.08.44 3.172 0 .285-.268.612-.536.707-.804h.095V61.456zm46.971 14.67l-7.447.382v12.205c.152.572.456.954 1.064 1.526 1.519.953 3.951.953 5.319 0 .456-.382.76-.763.912-1.144h.152V76.126z" fill="#FAF9F5" stroke="#323232" stroke-width=".6" stroke-miterlimit="10" stroke-linecap="round" stroke-linejoin="round"/><path d="M34.585 76.72c2.511-1.659 2.372-4.609-.14-6.268-2.512-1.66-6.698-1.66-9.21 0-2.512 1.66-2.512 4.425.14 6.269 2.511 1.844 6.698 1.844 9.21 0z" fill="#FAF9F5" stroke="#323232" stroke-width=".6" stroke-miterlimit="10"/><path d="M80.197 81.663c2.512-1.66 2.372-4.61-.14-6.269-2.511-1.66-6.698-1.66-9.21 0-2.512 1.66-2.512 4.425.14 6.27 2.512 1.843 6.698 1.843 9.21 0z" fill="#F7F3E9" stroke="#323232" stroke-width=".6" stroke-miterlimit="10"/><path d="M78.29 47.46l-5.586.34v29.291c.114.51.342.851.798 1.362 1.14.852 2.964.852 3.99 0 .341-.34.57-.68.683-1.022h.114V47.46z" fill="#FAF9F5" stroke="#323232" stroke-width=".6" stroke-miterlimit="10" stroke-linecap="round" stroke-linejoin="round"/><path d="M81.41 74.59c3.41-1.844 3.22-5.122-.189-6.966-3.409-1.844-9.09-1.844-12.5 0-3.409 1.844-3.409 4.917.19 6.966 3.409 2.048 9.09 2.048 12.5 0z" fill="#F7F3E9" stroke="#323232" stroke-width=".6" stroke-miterlimit="10"/><path d="M79.22 31.644l-7.447.508v38.78c.152.762.349 1.34 1.241 1.775 1.241.605 3.37.605 4.965 0 .62-.235.937-.759 1.09-1.267h.151V31.644z" fill="#FAF9F5" stroke="#323232" stroke-width=".6" stroke-miterlimit="10" stroke-linecap="round" stroke-linejoin="round"/><path d="M125.68 76.72c2.691-1.659 2.542-4.609-.15-6.268-2.691-1.66-7.176-1.66-9.868 0-2.691 1.66-2.691 4.425.15 6.269 2.691 1.844 7.177 1.844 9.868 0zm-91.095-1.718c2.511-1.498 2.372-4.162-.14-5.66-2.512-1.499-6.698-1.499-9.21 0-2.512 1.498-2.512 3.995.14 5.66 2.511 1.498 6.698 1.498 9.21 0z" fill="#FAF9F5" stroke="#323232" stroke-width=".6" stroke-miterlimit="10"/><path d="M125.68 75.002c2.691-1.498 2.542-4.162-.15-5.66-2.691-1.499-7.176-1.499-9.868 0-2.691 1.498-2.691 3.995.15 5.66 2.691 1.498 7.177 1.498 9.868 0z" fill="#FAF9F5" stroke="#323232" stroke-width=".6" stroke-miterlimit="10"/><path d="M34.585 74.722c2.511-1.873 2.372-5.203-.14-7.076-2.512-1.873-6.698-1.873-9.21 0-2.512 1.873-2.512 4.995.14 7.076 2.511 1.873 6.698 1.873 9.21 0zm91.095.14c2.691-1.685 2.542-4.682-.15-6.368-2.691-1.685-7.176-1.685-9.868 0-2.691 1.686-2.691 4.495.15 6.368 2.691 1.686 7.177 1.686 9.868 0z" fill="#B62C2C" stroke="#323232" stroke-width=".6" stroke-miterlimit="10"/><path d="M34.585 73.025c2.511-1.498 2.372-4.162-.14-5.66-2.512-1.498-6.698-1.498-9.21 0-2.512 1.498-2.512 3.996.14 5.66 2.511 1.499 6.698 1.499 9.21 0zm91.095.141c2.691-1.31 2.542-3.642-.15-4.953-2.691-1.31-7.176-1.31-9.868 0-2.691 1.311-2.691 3.497.15 4.953 2.691 1.311 7.177 1.311 9.868 0z" fill="#B62C2C" stroke="#323232" stroke-width=".6" stroke-miterlimit="10"/><path d="M33.608 44.494l-7.447.36V70.06c.151.538.455.898 1.063 1.437 1.52.899 3.952.899 5.32 0 .456-.36.912-.54 1.064-1.078V44.494zm91.225 0l-7.447.36V70.06c.152.538.456.898 1.064 1.437 1.519.899 3.951.899 5.319 0 .456-.36.912-.54 1.064-1.078V44.494z" fill="#B62C2C" stroke="#323232" stroke-width=".6" stroke-miterlimit="10" stroke-linecap="round" stroke-linejoin="round"/><path d="M117.844 61.445l-85.44.225L1.259 42.577l28.096-17.224h93.083l27.666 17.216-32.26 18.876z" fill="#F7F3E9" stroke="#323232" stroke-width=".6"/><path d="M32.02 57.164h86.18v4.282H32.02v-4.282zm90.229-31.594v-4.18l27.561 16.724v4.18L122.249 25.57zM1.904 42.434v-4.18l27.56-16.724v4.18L1.905 42.434z" fill="#F7F3E9" stroke="#323232" stroke-width=".6"/><path d="M31.994 61.212L1.56 42.658v-4.18l30.434 18.554v4.18zm86.232.009l31.583-18.566v-4.186l-31.583 18.566v4.187z" fill="#FAF9F5" stroke="#323232" stroke-width=".6"/><path d="M29.538 21.156h92.685v4.283H29.538v-4.283z" fill="#F7F3E9" stroke="#323232" stroke-width=".6"/><path d="M117.844 57.759l-85.44.224L1.259 38.892l28.096-17.224h93.083l27.666 17.216-32.26 18.876z" fill="#F7F3E9" stroke="#323232" stroke-width=".6"/><path d="M31.68 54.721h86.851v4.283H31.68V54.72z" fill="#F7F3E9" stroke="#323232" stroke-width=".6"/><path d="M122.607 23.127v-4.182l27.778 16.727v4.182l-27.778-16.727zM1.332 39.995v-4.182l27.779-16.727v4.182L1.332 39.995z" fill="#FAF9F5" stroke="#323232" stroke-width=".6"/><path d="M31.66 58.772L.984 40.216v-4.181L31.66 54.59v4.18zm86.892.01l31.832-18.57v-4.187l-31.832 18.569v4.188z" fill="#FAF9F5" stroke="#323232" stroke-width=".6"/><path d="M29.18 18.715h93.405v4.282H29.179v-4.282zm7.927 24.791v-5.812h9.851v5.812h-9.85z" fill="#F7F3E9" stroke="#323232" stroke-width=".6"/><path d="M37.637 37.695l-16.948-8.136h8.05l18.22 8.136h-9.322z" fill="#F7F3E9" stroke="#323232" stroke-width=".6"/><path d="M20.69 35.434v-5.875l16.417 8.136v5.811L20.69 35.434z" fill="#FAF9F5" stroke="#323232" stroke-width=".6"/><path d="M36.013 29.559h-3.284v4.233c.067.106.18.177.448.283.67.177 1.764.177 2.367 0 .2-.07.402-.106.469-.212v-4.304z" fill="#B62C2C" stroke="#323232" stroke-width=".6" stroke-miterlimit="10" stroke-linecap="round" stroke-linejoin="round"/><path d="M35.556 29.796c.632-.217.597-.602-.036-.819-.633-.217-1.687-.217-2.32 0-.633.217-.633.578.035.82.633.24 1.688.24 2.32 0z" fill="#B62C2C" stroke="#323232" stroke-width=".6" stroke-miterlimit="10"/><path d="M114.82 43.506v-5.812h-9.851v5.812h9.851z" fill="#F7F3E9" stroke="#323232" stroke-width=".6"/><path d="M114.29 37.695l16.948-8.136h-8.05l-18.219 8.136h9.321z" fill="#F7F3E9" stroke="#323232" stroke-width=".6"/><path d="M131.238 35.434v-5.875l-16.418 8.136v5.811l16.418-8.072z" fill="#FAF9F5" stroke="#323232" stroke-width=".6"/><path d="M115.914 29.559h3.284v4.233c-.067.106-.18.177-.448.283-.67.177-1.764.177-2.367 0-.201-.07-.402-.106-.469-.212v-4.304z" fill="#B62C2C" stroke="#323232" stroke-width=".6" stroke-miterlimit="10" stroke-linecap="round" stroke-linejoin="round"/><path d="M116.372 29.796c-.633-.217-.598-.602.035-.819.633-.217 1.688-.217 2.32 0 .633.217.633.578-.035.82-.633.24-1.687.24-2.32 0z" fill="#B62C2C" stroke="#323232" stroke-width=".6" stroke-miterlimit="10"/><path fill="#F7F3E9" stroke="#323232" stroke-width=".6" d="M45.078 29.967h61.768V47.16H45.078z"/><path fill="#B62C2C" stroke="#323232" stroke-width=".6" d="M94.414 33.921h8.709v2.366h-8.709zm0 6.919h8.709v2.366h-8.709zm-23.272-6.919h9.64v2.366h-9.64zm0 6.919h9.64v2.366h-9.64zm-22.341-6.919h8.709v2.366h-8.709zm0 6.919h8.709v2.366h-8.709z"/><path d="M45.296 30.355l5.326-9.285h51.796l4.26 9.285H45.296z" fill="#F7F3E9" stroke="#323232" stroke-width=".6"/><path d="M85.736 15.919l-22.34-.092v9.187c.465.43 1.395.718 3.257 1.148 4.655.718 12.101.718 16.29 0 1.397-.287 2.328-.574 2.793-.86v-9.383z" fill="#FAF9F5" stroke="#323232" stroke-width=".6" stroke-miterlimit="10" stroke-linecap="round" stroke-linejoin="round"/><path d="M82.624 17.343c4.306-.553 4.066-1.536-.24-2.09-4.306-.552-11.483-.552-15.788 0-4.307.554-4.307 1.476.239 2.09 4.306.615 11.483.615 15.789 0z" fill="#F7F3E9" stroke="#323232" stroke-width=".6" stroke-miterlimit="10"/><path d="M79.22 1.988l-8.378.248v13.12c.171.372.459.62 1.143.993 1.71.622 4.5.622 6.038 0 .513-.248 1.026-.372 1.197-.745V1.988z" fill="#B62C2C" stroke="#323232" stroke-width=".6" stroke-miterlimit="10" stroke-linecap="round" stroke-linejoin="round"/><path d="M78.053 2.67c1.615-.37 1.525-1.025-.09-1.393-1.615-.37-4.306-.37-5.92 0-1.616.368-1.616.983.089 1.393 1.615.41 4.306.41 5.92 0z" fill="#B62C2C" stroke="#323232" stroke-width=".6" stroke-miterlimit="10"/><path d="M77.381 1.835c1.256-.185 1.187-.512-.07-.697-1.255-.184-3.349-.184-4.605 0-1.255.185-1.255.492.07.697 1.256.205 3.35.205 4.605 0z" fill="#F7F3E9" stroke="#323232" stroke-width=".6" stroke-miterlimit="10"/></svg>