<svg width="150" height="90" fill="none" xmlns="http://www.w3.org/2000/svg"><path d="M127.23 87.48L2.17 32.522l2.068-.544 125.06 54.958-2.068.544zm14.374-6.946L16.544 25.575l2.067-.544L143.672 79.99l-2.068.544zm-14.375 9.122L2.414 34.278v-1.633L127.229 87.48v2.176z" fill="#F7F3E9" stroke="#323232" stroke-width=".4"/><path d="M141.603 82.71L16.788 27.332v-1.633l124.815 54.834v2.177z" fill="#F7F3E9" stroke="#323232" stroke-width=".4"/><path d="M57.465 54.36c1.329-1.218 1.255-3.383-.074-4.6-1.328-1.219-3.543-1.219-4.871 0-1.33 1.217-1.33 3.247.073 4.6a3.43 3.43 0 004.872 0z" fill="#B62C2C" stroke="#323232" stroke-width=".6" stroke-miterlimit="10"/><path d="M56.47 53.61c.798-.811.754-2.255-.044-3.067a2.058 2.058 0 00-2.922 0c-.798.812-.798 2.165.044 3.068.797.902 2.125.902 2.923 0z" fill="#F7F3E9" stroke="#323232" stroke-width=".6" stroke-miterlimit="10"/><path d="M124.162 83.616c1.329-1.218 1.255-3.383-.074-4.601-1.328-1.218-3.543-1.218-4.871 0-1.329 1.218-1.329 3.248.073 4.601a3.43 3.43 0 004.872 0z" fill="#B62C2C" stroke="#323232" stroke-width=".6" stroke-miterlimit="10"/><path d="M123.168 82.866c.797-.811.753-2.255-.045-3.067a2.058 2.058 0 00-2.923 0c-.797.812-.797 2.165.045 3.067.797.903 2.126.903 2.923 0z" fill="#F7F3E9" stroke="#323232" stroke-width=".6" stroke-miterlimit="10"/><path d="M47.814 50.007c1.33-1.218 1.255-3.383-.073-4.6-1.329-1.219-3.543-1.219-4.872 0-1.329 1.217-1.329 3.247.074 4.6a3.43 3.43 0 004.871 0z" fill="#B62C2C" stroke="#323232" stroke-width=".6" stroke-miterlimit="10"/><path d="M46.82 49.257c.797-.812.753-2.255-.045-3.067a2.058 2.058 0 00-2.922 0c-.798.812-.798 2.165.044 3.067.797.902 2.126.902 2.923 0z" fill="#F7F3E9" stroke="#323232" stroke-width=".6" stroke-miterlimit="10"/><path d="M114.512 79.263c1.328-1.218 1.255-3.383-.074-4.601s-3.543-1.218-4.872 0c-1.328 1.218-1.328 3.248.074 4.601a3.43 3.43 0 004.872 0z" fill="#B62C2C" stroke="#323232" stroke-width=".6" stroke-miterlimit="10"/><path d="M113.517 78.513c.797-.812.753-2.256-.044-3.068a2.058 2.058 0 00-2.923 0c-.797.812-.797 2.166.044 3.068.797.902 2.126.902 2.923 0z" fill="#F7F3E9" stroke="#323232" stroke-width=".6" stroke-miterlimit="10"/><path d="M25.756 40.212c1.329-1.218 1.255-3.383-.074-4.6-1.328-1.219-3.543-1.219-4.871 0-1.329 1.217-1.329 3.247.074 4.6a3.43 3.43 0 004.871 0z" fill="#B62C2C" stroke="#323232" stroke-width=".6" stroke-miterlimit="10"/><path d="M24.762 39.463c.797-.812.752-2.256-.045-3.068a2.058 2.058 0 00-2.923 0c-.797.812-.797 2.165.044 3.068.798.902 2.126.902 2.924 0z" fill="#F7F3E9" stroke="#323232" stroke-width=".6" stroke-miterlimit="10"/><path d="M92.454 69.468c1.328-1.218 1.255-3.383-.074-4.6-1.329-1.219-3.543-1.219-4.872 0-1.328 1.217-1.328 3.247.074 4.6a3.43 3.43 0 004.872 0z" fill="#B62C2C" stroke="#323232" stroke-width=".6" stroke-miterlimit="10"/><path d="M91.459 68.719c.797-.813.753-2.256-.044-3.068a2.058 2.058 0 00-2.923 0c-.797.812-.797 2.165.044 3.068.797.902 2.126.902 2.923 0z" fill="#F7F3E9" stroke="#323232" stroke-width=".6" stroke-miterlimit="10"/><path d="M16.106 35.86c1.328-1.218 1.255-3.384-.074-4.602-1.329-1.218-3.543-1.218-4.872 0-1.328 1.218-1.328 3.248.074 4.601a3.43 3.43 0 004.872 0z" fill="#B62C2C" stroke="#323232" stroke-width=".6" stroke-miterlimit="10"/><path d="M15.111 35.11c.797-.813.753-2.256-.044-3.068a2.058 2.058 0 00-2.923 0c-.797.812-.797 2.165.044 3.067.797.902 2.126.902 2.923 0z" fill="#F7F3E9" stroke="#323232" stroke-width=".6" stroke-miterlimit="10"/><path d="M82.803 65.116c1.329-1.218 1.255-3.383-.074-4.601-1.328-1.218-3.543-1.218-4.871 0-1.329 1.218-1.329 3.248.074 4.6a3.43 3.43 0 004.871 0z" fill="#B62C2C" stroke="#323232" stroke-width=".6" stroke-miterlimit="10"/><path d="M81.809 64.366c.797-.812.753-2.256-.045-3.068a2.058 2.058 0 00-2.922 0c-.798.812-.798 2.166.044 3.068.797.902 2.126.902 2.923 0z" fill="#F7F3E9" stroke="#323232" stroke-width=".6" stroke-miterlimit="10"/><path d="M.653 29.546L.82 9.582l60.753 26.943v20.562L.653 29.546z" fill="#FAF9F5" stroke="#323232" stroke-width=".6"/><path d="M61.483 57.095V37.61l20.768-9.52v20.013l-20.768 8.99z" fill="#F7F3E9" stroke="#323232" stroke-width=".6"/><path d="M67.35 58.803l.166-19.964 60.753 26.943v20.561L67.35 58.803z" fill="#FAF9F5" stroke="#323232" stroke-width=".6"/><path d="M3.582 28.881l.164-15.11 3.452 1.533v15.17l-3.616-1.593zm7.5 3.764l.164-15.11 3.452 1.532v15.17l-3.616-1.592zm10.592-10.63v15.17l-3.616-1.594.164-15.11 3.452 1.533zm3.194 16.615l.164-15.11 3.453 1.533v15.17l-3.617-1.593zM35.46 28v15.17l-3.616-1.593.164-15.11L35.46 28zm3.194 16.707l.165-15.11 3.452 1.532V46.3l-3.617-1.593zm10.51-10.358v15.17l-3.616-1.593.164-15.11 3.452 1.533zm3.188 16.463l.164-15.11 3.453 1.532v15.17l-3.617-1.592zm17.928 7.325l.163-15.11 3.453 1.533v15.17l-3.617-1.593zm7.499 3.764l.164-15.11 3.452 1.532v15.17L77.78 61.9zM88.37 51.27v15.17l-3.616-1.593.164-15.11 3.452 1.533zm3.194 16.616l.165-15.11 3.452 1.533v15.17l-3.617-1.593zm10.593-10.63v15.17l-3.617-1.593.164-15.11 3.453 1.532zm3.194 16.707l.164-15.11 3.452 1.532v15.17l-3.616-1.592zm10.509-10.358v15.17l-3.616-1.593.164-15.11 3.452 1.533zm3.188 16.463l.164-15.11 3.453 1.532v15.17l-3.617-1.592zm9.132 6.284V66.868l20.769-9.52V77.36l-20.769 8.99z" fill="#F7F3E9" stroke="#323232" stroke-width=".6"/><path d="M127.156 89.726v-2.138l2.386-.667v2.045l-2.386.76zm14.374-6.946v-2.14l2.386-.667v2.045l-2.386.76z" fill="#F7F3E9" stroke="#323232" stroke-width=".4"/><path d="M1.068 9.53L21.514.293l61.181 27.875-20.821 9.544L1.068 9.53zm66.697 29.256l20.446-9.237 61.182 27.876-20.822 9.544-60.806-28.183z" fill="#F7F3E9" stroke="#323232" stroke-width=".6"/><path d="M4.927 9.356l16.8-7.334 56.147 26.145-16.002 7.369L4.926 9.356zm66.697 29.257l16.8-7.334 56.147 26.145-16.002 7.369-56.945-26.18z" fill="#F7F3E9" stroke="#323232" stroke-width=".6"/><path d="M21.892 9.123l-8.961 3.809 48.941 22.31 8.961-3.81-48.941-22.31zM88.588 38.38l-8.96 3.808 48.941 22.31 8.961-3.809-48.942-22.31z" fill="#B62C2C" stroke="#323232" stroke-width=".6"/><path d="M21.892 2.05v7.073m66.697 22.182v7.074" stroke="#323232" stroke-width=".6"/><path d="M141.479 80.552c.257.42.714.396.971-.023.257-.42.257-1.569 0-1.988-.257-.42-.686-.42-.971.023-.286.42-.286 1.569 0 1.988z" fill="#B62C2C" stroke="#323232" stroke-width=".6" stroke-miterlimit="10"/><path d="M143.599 81.75v-2.739l-1.578-.782h-.154c-.154.053-.256.143-.41.356-.257.533-.449 1.34-.193 1.82.103.16.172.383.326.436l2.009.91z" fill="#B62C2C" stroke="#323232" stroke-width=".6" stroke-miterlimit="10" stroke-linecap="round" stroke-linejoin="round"/><path d="M143.332 81.494c.257.42.714.396.971-.023.258-.42.258-1.569 0-1.988-.257-.42-.685-.42-.971.023-.286.42-.286 1.569 0 1.988zm-5.99.146c.258.42.715.397.972-.023.257-.42.257-1.568 0-1.988-.257-.42-.686-.42-.972.023-.285.42-.285 1.57 0 1.989z" fill="#B62C2C" stroke="#323232" stroke-width=".6" stroke-miterlimit="10"/><path d="M139.463 82.839v-2.74l-1.578-.782h-.154c-.154.054-.257.143-.411.357-.256.533-.449 1.34-.192 1.82.103.16.172.382.326.435l2.009.91z" fill="#B62C2C" stroke="#323232" stroke-width=".6" stroke-miterlimit="10" stroke-linecap="round" stroke-linejoin="round"/><path d="M139.196 82.582c.257.42.714.396.971-.023.257-.42.257-1.569 0-1.988-.257-.42-.686-.42-.971.023-.286.42-.286 1.569 0 1.988z" fill="#B62C2C" stroke="#323232" stroke-width=".6" stroke-miterlimit="10"/></svg>