<svg width="205" height="36" fill="none" xmlns="http://www.w3.org/2000/svg"><path fill-rule="evenodd" clip-rule="evenodd" d="M1.316 12.247c-1.316 0-1.48-.63-1.2-1.6C1.717 6.204 7.31.002 14.055.002h23.81c1.933 0 2.78.188 2.43 2.327l-2.818 16.835c-2.03 8.224-13.085 12.527-15.783 12.493-.76-.01-1.298-.583-1.173-1.295l2.962-18.112H1.316v-.003z" fill="#fff"/><path d="M146.422 5.537c.054-.148.081-.307.081-.477a.142.142 0 00-.018-.075.13.13 0 00-.066-.05.412.412 0 00-.12-.029 1.747 1.747 0 00-.364.003.327.327 0 00-.099.034c-.024.016-.042.033-.048.055a.206.206 0 00-.012.079.778.778 0 01-.048.268.59.59 0 01-.377.354.963.963 0 01-.314.048c-.119 0-.227-.017-.32-.048a.758.758 0 01-.236-.14.555.555 0 01-.147-.209.735.735 0 01-.047-.262.228.228 0 00-.012-.084c-.006-.025-.024-.042-.048-.059a.321.321 0 00-.102-.033 1.678 1.678 0 00-.362-.003.698.698 0 00-.119.028c-.03.014-.051.028-.063.05a.143.143 0 00-.015.076c0 .19.03.36.092.514.063.15.156.279.279.385.122.106.275.187.457.243.183.056.398.086.64.086.266 0 .491-.03.676-.095.186-.067.335-.153.455-.265a1.04 1.04 0 00.257-.394zm.482 5.507a.089.089 0 00.021-.059V6.96a.113.113 0 00-.075-.106.354.354 0 00-.111-.025 1.425 1.425 0 00-.17-.009c-.066 0-.12.006-.162.009a.512.512 0 00-.108.022.231.231 0 00-.077.042.42.42 0 00-.06.061l-1.852 2.363a5.325 5.325 0 00-.242.318c-.075.112-.149.22-.221.335v-.003a6.64 6.64 0 00.033-.687V6.95c0-.044-.027-.078-.087-.1a.983.983 0 00-.314-.034c-.075 0-.135.006-.188.009a.398.398 0 00-.12.025c-.033.014-.054.025-.063.045a.111.111 0 00-.018.058v4.03c0 .02.006.041.018.058.009.02.03.034.057.045a.41.41 0 00.108.025 1.42 1.42 0 00.427-.02.236.236 0 00.069-.044c.018-.017.036-.04.057-.062l1.83-2.331c.087-.112.177-.226.264-.34a4.25 4.25 0 00.242-.353 12.67 12.67 0 00-.024.355 7.16 7.16 0 00-.009.355v2.314c0 .02.009.042.018.06a.138.138 0 00.069.044c.033.01.071.02.125.025a1.99 1.99 0 00.383 0c.048-.009.09-.017.12-.025a.141.141 0 00.06-.045zm-5.205 0a.089.089 0 00.021-.059V6.96a.143.143 0 00-.015-.062.123.123 0 00-.059-.044.334.334 0 00-.111-.025 1.412 1.412 0 00-.168-.009c-.068 0-.122.006-.164.009a.512.512 0 00-.108.022.189.189 0 00-.075.042.334.334 0 00-.059.061l-1.855 2.363a7.24 7.24 0 00-.242.318c-.075.112-.147.22-.221.335a6.51 6.51 0 00.024-.343c.009-.115.012-.23.012-.347V6.95c0-.044-.03-.078-.087-.1a1.01 1.01 0 00-.317-.034c-.072 0-.135.006-.189.009a.42.42 0 00-.119.025c-.03.014-.051.025-.063.045-.009.02-.018.039-.018.058v4.03c0 .02.009.041.018.058a.11.11 0 00.057.045c.027.011.063.02.107.025a1.449 1.449 0 00.431-.02.266.266 0 00.066-.044c.018-.017.036-.04.057-.062l1.83-2.331c.09-.112.177-.226.266-.34.087-.115.168-.233.243-.353a4.502 4.502 0 00-.024.355c-.009.12-.009.24-.009.355v2.314c0 .02.006.042.018.06.012.019.036.033.065.044a.65.65 0 00.126.025 1.99 1.99 0 00.383 0 1.02 1.02 0 00.12-.025.144.144 0 00.059-.045zm-5.201-.005a.093.093 0 00.018-.06V6.96a.1.1 0 00-.018-.062.157.157 0 00-.063-.044.383.383 0 00-.119-.025 1.842 1.842 0 00-.192-.009c-.077 0-.143.006-.197.009a.342.342 0 00-.12.025.273.273 0 00-.06.044.09.09 0 00-.02.062v1.636h-2.196V6.96a.086.086 0 00-.021-.062.167.167 0 00-.06-.044.383.383 0 00-.119-.025 1.969 1.969 0 00-.198-.009c-.074 0-.14.006-.191.009a.314.314 0 00-.12.025c-.033.016-.053.03-.062.044a.1.1 0 00-.018.062v4.02c0 .023.006.046.018.06.009.016.029.03.062.041a.37.37 0 00.12.028 1.965 1.965 0 00.389 0 .642.642 0 00.119-.028.138.138 0 00.06-.041c.015-.014.021-.037.021-.06V9.216h2.196v1.765c0 .022.006.044.02.059a.14.14 0 00.06.041c.03.014.072.023.12.028.054.006.12.009.197.009.075 0 .141-.003.192-.009a.642.642 0 00.119-.028.132.132 0 00.063-.041zm-9.747 0c.015-.014.021-.037.021-.06V7.108c0-.09-.021-.154-.063-.199a.241.241 0 00-.176-.064h-3.153a.254.254 0 00-.182.064c-.042.042-.066.11-.066.199v3.873c0 .022.009.044.021.059.009.016.03.03.063.041a.357.357 0 00.119.028c.051.006.114.009.192.009.074 0 .14-.003.191-.009a.72.72 0 00.123-.028.124.124 0 00.062-.041c.015-.014.021-.037.021-.06V7.468h2.052v3.513c0 .022.006.044.018.059.015.016.036.03.066.041.03.014.072.023.123.028.05.006.116.009.197.009.075 0 .141-.003.188-.009a.72.72 0 00.123-.028.138.138 0 00.06-.041zm-4.783.039c.048-.025.069-.076.066-.14l-.478-3.817c-.009-.098-.042-.168-.102-.213a.43.43 0 00-.26-.067h-.374a.878.878 0 00-.227.026.47.47 0 00-.162.075.433.433 0 00-.111.134 1.02 1.02 0 00-.083.193l-.637 1.7c-.033.098-.072.196-.108.302l-.108.313c-.033.106-.069.212-.098.312-.03.104-.057.201-.087.294h-.012c-.024-.09-.054-.185-.081-.282-.033-.101-.063-.201-.099-.302-.033-.103-.065-.207-.107-.313l-.108-.315-.637-1.712a1.37 1.37 0 00-.09-.207.46.46 0 00-.116-.134.46.46 0 00-.171-.07 1.153 1.153 0 00-.236-.02h-.377c-.111 0-.197.026-.251.073a.352.352 0 00-.108.218l-.476 3.806a.234.234 0 000 .084c.006.023.021.04.048.056a.267.267 0 00.102.03 1.907 1.907 0 00.392 0 .632.632 0 00.125-.019c.033-.011.054-.028.063-.05a.282.282 0 00.024-.087l.296-2.306c.006-.084.015-.173.027-.268.009-.095.021-.193.033-.29l.03-.294c.009-.1.018-.193.03-.28l.003-.102c.021.08.045.16.072.249l.009.03.098.296c.033.1.066.198.102.293l.096.268.873 2.385a.25.25 0 00.048.092.195.195 0 00.072.056.417.417 0 00.113.03c.045.006.102.009.168.009a1.4 1.4 0 00.17-.009.387.387 0 00.114-.03.22.22 0 00.075-.059.893.893 0 00.045-.09l.903-2.381.093-.28c.033-.097.071-.198.104-.295.039-.098.072-.196.105-.29.033-.096.063-.188.09-.274l.006.103.027.28c.009.097.015.195.027.292l.026.29c.009.096.018.188.03.269l.308 2.348a.139.139 0 00.024.064c.012.02.033.031.06.04a.52.52 0 00.12.02c.051.005.116.005.194.005.147 0 .246-.012.293-.04zm-11.26-.02a.067.067 0 00.018-.047c0-.009 0-.02-.003-.037-.003-.01-.003-.022-.006-.039l-.015-.05a.271.271 0 00-.03-.059l-.476-1.019a2.406 2.406 0 00-.194-.355 1.384 1.384 0 00-.491-.452 1.84 1.84 0 00-.308-.128V8.86c.075-.022.15-.05.23-.086a1.03 1.03 0 00.234-.157 1.55 1.55 0 00.227-.25c.075-.101.147-.227.209-.375l.41-.885a.741.741 0 00.039-.104.44.44 0 00.009-.083.06.06 0 00-.015-.042c-.009-.014-.027-.025-.054-.034a.644.644 0 00-.113-.02 1.78 1.78 0 00-.189-.008c-.087 0-.158.006-.209.009a.467.467 0 00-.129.025c-.03.014-.054.025-.072.045a.177.177 0 00-.033.061l-.4.924a1.66 1.66 0 01-.18.335.834.834 0 01-.499.352c-.099.025-.21.04-.329.04h-.335V6.921c0-.014-.009-.027-.027-.041a.166.166 0 00-.072-.034 1.645 1.645 0 00-.302-.028c-.066 0-.126.006-.176.009a.842.842 0 00-.123.02.166.166 0 00-.072.033c-.012.014-.021.025-.021.041v4.083c0 .014.009.03.021.045a.207.207 0 00.072.033c.03.008.072.017.123.022a1.642 1.642 0 00.355 0 .803.803 0 00.123-.022.167.167 0 00.072-.033c.018-.014.027-.028.027-.045v-1.81h.335c.137 0 .263.014.371.04a.867.867 0 01.52.365c.066.095.126.213.183.347l.46 1.041c.006.023.018.04.033.056.015.017.042.03.078.042.033.011.081.02.134.025a2.306 2.306 0 00.407 0 .79.79 0 00.12-.02c.033-.008.054-.019.063-.033zm-11.701-.019a.095.095 0 00.021-.06V7.108c0-.09-.02-.154-.063-.199a.243.243 0 00-.18-.064h-3.152a.248.248 0 00-.179.064c-.045.042-.066.11-.066.199v3.873c0 .022.01.044.021.059.01.016.03.027.06.041.03.014.072.023.123.028a1.87 1.87 0 00.383 0 .673.673 0 00.119-.028.128.128 0 00.066-.041c.015-.014.02-.037.02-.06V7.468h2.052v3.513c0 .022.007.044.018.059a.197.197 0 00.066.041c.03.014.072.023.123.028.05.006.117.009.197.009.075 0 .14-.003.192-.009a.63.63 0 00.116-.028.132.132 0 00.063-.041zm-5.007 0a.095.095 0 00.021-.06V7.108c0-.09-.02-.154-.063-.199a.24.24 0 00-.176-.064h-3.155a.253.253 0 00-.18.064c-.042.042-.066.11-.066.199v3.873c0 .022.006.044.018.059.012.016.033.03.063.041a.39.39 0 00.123.028 1.89 1.89 0 00.383 0 .791.791 0 00.122-.028.131.131 0 00.063-.041c.015-.014.02-.037.02-.06V7.468h2.05v3.513c0 .022.009.044.02.059a.16.16 0 00.067.041.39.39 0 00.12.028c.053.006.119.009.196.009.078 0 .144-.003.192-.009a.67.67 0 00.12-.028.132.132 0 00.062-.041zm-6.57 1.533l.57-1.48 1.55-4.005a.542.542 0 00.027-.134.1.1 0 00-.042-.086.257.257 0 00-.126-.042 2.234 2.234 0 00-.454 0 .266.266 0 00-.12.036c-.03.017-.054.053-.072.109l-1.184 3.245h-.015l-1.232-3.228a.528.528 0 00-.045-.09.127.127 0 00-.069-.05.465.465 0 00-.129-.025 2.391 2.391 0 00-.224-.008c-.099 0-.173.002-.23.01a.289.289 0 00-.126.043.109.109 0 00-.039.086c0 .034.012.087.04.148l1.536 3.843a.237.237 0 00.135.145l-.595 1.399a.226.226 0 00-.024.106c.003.03.018.053.045.072a.28.28 0 00.117.04c.05.008.12.01.2.01.161 0 .281-.01.359-.036.078-.025.125-.061.146-.108zm-6.398-6.78a1 1 0 00.009-.146.596.596 0 00-.04-.254c-.026-.053-.068-.08-.122-.08h-2.856a.328.328 0 00-.218.077c-.06.05-.09.132-.09.235v5.356c0 .022.009.044.02.059a.14.14 0 00.067.041.456.456 0 00.131.028c.054.006.117.009.195.009.08 0 .146-.003.197-.009a.807.807 0 00.129-.028.128.128 0 00.065-.041.094.094 0 00.021-.06V5.974h2.34a.15.15 0 00.068-.02.179.179 0 00.054-.058.31.31 0 00.03-.103z" fill="#fff"/><path fill-rule="evenodd" clip-rule="evenodd" d="M85.022 8.905c0 .352-.042.667-.123.947-.08.279-.203.52-.359.715a1.648 1.648 0 01-.586.452c-.233.106-.5.16-.802.16a1.58 1.58 0 01-.353-.037 1.331 1.331 0 01-.317-.112 1.747 1.747 0 01-.308-.193 3.87 3.87 0 01-.326-.273v2.01a.098.098 0 01-.02.065.164.164 0 01-.06.044.384.384 0 01-.12.028 3.706 3.706 0 01-.389 0 .45.45 0 01-.12-.028.13.13 0 01-.065-.044.147.147 0 01-.015-.065V6.96c0-.028.003-.048.015-.064.009-.017.027-.031.056-.042a.373.373 0 01.147-.028 1.643 1.643 0 01.29.003c.045.005.08.01.108.025a.12.12 0 01.06.042.104.104 0 01.018.064v.54a3.52 3.52 0 01.38-.326c.12-.092.239-.17.364-.232a1.75 1.75 0 01.377-.14c.129-.03.266-.047.41-.047.311 0 .577.056.798.17.222.115.398.268.539.464.138.195.24.424.302.687a3.4 3.4 0 01.099.83zm-.883-.51c.033.192.048.39.048.597 0 .187-.02.374-.063.555a1.752 1.752 0 01-.191.5 1.08 1.08 0 01-.344.36.948.948 0 01-.511.134c-.213 0-.42-.067-.614-.198a3.232 3.232 0 01-.616-.567v-1.6c.123-.145.24-.268.353-.368.11-.098.219-.18.32-.24a1.11 1.11 0 01.604-.176.92.92 0 01.512.134c.137.089.245.21.329.357.08.148.137.318.173.511zm19.504 2.59a.097.097 0 01-.042.081.28.28 0 01-.101.042 1.157 1.157 0 01-.198.014 1.17 1.17 0 01-.197-.014.268.268 0 01-.111-.042c-.021-.016-.033-.044-.033-.08v-.403a2.125 2.125 0 01-.628.439c-.23.103-.476.156-.736.156-.224 0-.43-.028-.613-.084a1.32 1.32 0 01-.469-.24 1.105 1.105 0 01-.302-.385 1.2 1.2 0 01-.108-.52c0-.229.051-.424.146-.589a1.23 1.23 0 01.428-.416c.186-.112.413-.193.679-.248.269-.056.571-.084.906-.084h.592v-.313c0-.153-.018-.293-.05-.41a.69.69 0 00-.171-.296.747.747 0 00-.305-.18 1.444 1.444 0 00-.458-.058c-.197 0-.37.023-.523.065a3.466 3.466 0 00-.41.142c-.116.053-.212.1-.29.145a.452.452 0 01-.176.064.128.128 0 01-.066-.016.14.14 0 01-.051-.056.374.374 0 01-.033-.092.83.83 0 01.009-.299.275.275 0 01.081-.123c.045-.04.12-.084.224-.137.105-.05.224-.1.362-.142.138-.042.287-.078.452-.106.161-.031.326-.042.493-.042.308 0 .571.033.787.1.218.064.395.162.526.288.135.126.234.285.293.472.06.187.093.405.093.656v2.711zm-1.462-1.837h.675v.857a2.447 2.447 0 01-.556.45 1.178 1.178 0 01-.577.148c-.254 0-.455-.064-.595-.187a.626.626 0 01-.213-.5.7.7 0 01.072-.324.681.681 0 01.233-.24c.105-.067.24-.12.395-.154.162-.033.35-.05.566-.05zm13.348-.223c0 .33-.045.63-.138.904a1.98 1.98 0 01-.412.715 1.843 1.843 0 01-.691.467 2.533 2.533 0 01-.957.167c-.356 0-.664-.05-.928-.148a1.659 1.659 0 01-.658-.43 1.81 1.81 0 01-.391-.684 2.937 2.937 0 01-.129-.91c0-.33.045-.631.135-.905.092-.277.227-.514.412-.715.183-.198.413-.352.685-.464a2.56 2.56 0 01.963-.164c.353 0 .661.05.925.148.263.097.484.24.661.43.176.187.305.416.394.684a2.9 2.9 0 01.129.905zm-.897-.57c.045.195.065.402.065.617a2.5 2.5 0 01-.074.64c-.051.192-.132.36-.243.5a1.084 1.084 0 01-.415.326 1.453 1.453 0 01-.598.115 1.42 1.42 0 01-.632-.126 1.068 1.068 0 01-.403-.346 1.357 1.357 0 01-.216-.506 2.909 2.909 0 01-.062-.62c0-.229.023-.438.077-.634.051-.192.132-.36.243-.502a1.05 1.05 0 01.412-.33c.168-.078.368-.117.601-.117.252 0 .461.045.632.128.17.084.302.199.403.347.096.145.168.315.21.508zm16.755 2.63a.102.102 0 01-.039.081.32.32 0 01-.105.042c-.048.009-.11.014-.197.014-.084 0-.15-.005-.201-.014a.238.238 0 01-.104-.042c-.024-.016-.033-.044-.033-.08v-.403a2.19 2.19 0 01-.631.439 1.777 1.777 0 01-.733.156 2.09 2.09 0 01-.616-.084 1.35 1.35 0 01-.47-.24 1.129 1.129 0 01-.302-.385 1.2 1.2 0 01-.105-.52c0-.229.048-.424.147-.589a1.22 1.22 0 01.425-.416 2.15 2.15 0 01.679-.248c.269-.056.571-.084.906-.084h.592v-.313c0-.153-.018-.293-.054-.41a.683.683 0 00-.167-.296.734.734 0 00-.305-.18 1.456 1.456 0 00-.458-.058c-.197 0-.371.023-.526.065-.156.044-.29.092-.407.142-.117.053-.212.1-.29.145a.44.44 0 01-.177.064.132.132 0 01-.065-.016.14.14 0 01-.051-.056.374.374 0 01-.033-.092.766.766 0 01-.009-.123.67.67 0 01.018-.176.26.26 0 01.084-.123.934.934 0 01.221-.137c.105-.05.224-.1.362-.142.137-.042.287-.078.451-.106.162-.031.326-.042.494-.042.308 0 .571.033.79.1.215.064.391.162.523.288.135.126.233.285.293.472.06.187.093.405.093.656v2.711zm-1.46-1.837h.673v.857c-.194.201-.38.352-.556.45-.18.098-.371.148-.577.148-.255 0-.455-.064-.596-.187a.628.628 0 01-.212-.5.7.7 0 01.072-.324.673.673 0 01.233-.24c.105-.067.236-.12.398-.154.158-.033.347-.05.565-.05z" fill="#fff"/><path d="M82.276 31.191V19.756h2.599c1.926 0 3.538-1.68 3.987-3.038.096-.299.069-.46-.368-.46h-13.37c-1.928 0-3.538 1.68-3.986 3.038-.096.296-.072.46.365.46h6.322v11.438c0 .307.18.46.542.46h3.344c.269 0 .427-.033.484-.1.054-.067.08-.187.08-.363zm34.066.374c.057-.058.084-.175.084-.352v-4.09h3.416v4.09c0 .294.179.442.541.442h3.135c.266 0 .427-.031.481-.09.057-.058.084-.175.084-.352v-10.67c0-.175-.027-.293-.084-.351-.054-.059-.215-.09-.481-.09h-3.135c-.362 0-.541.148-.541.442v3.54h-3.416v-3.54c0-.176-.027-.294-.084-.352-.053-.059-.215-.09-.481-.09h-3.135c-.362 0-.541.148-.541.442v10.67c0 .293.179.44.541.44h3.135c.266 0 .428-.03.481-.089zm-13.557-.55l1.534-2.706 1.507 2.706c.126.207.255.366.389.475.132.109.347.165.646.165h3.371c.233 0 .38-.056.437-.165.053-.112.027-.24-.084-.385l-3.936-5.543 3.583-5.038c.063-.09.078-.176.048-.265-.033-.087-.135-.131-.308-.131h-3.58c-.27 0-.467.036-.602.1-.134.067-.254.201-.364.408l-1.107 2.2-1.134-2.2c-.107-.207-.23-.34-.365-.408-.131-.067-.332-.1-.601-.1h-3.58c-.173 0-.275.044-.305.13-.033.09-.018.177.045.266l3.559 5.038-3.912 5.543c-.11.145-.138.276-.08.385.053.109.197.165.433.165h3.371c.296 0 .514-.056.646-.165.134-.112.266-.27.389-.475z" fill="#fff"/><path fill-rule="evenodd" clip-rule="evenodd" d="M91.772 19.776c1.884 0 3.314.424 4.289 1.276.972.852 1.46 2.128 1.46 3.828 0 .763-.117 1.296-.353 1.606-.237.307-.652.46-1.25.46h-5.725c.015.339.078.615.188.827.11.212.263.377.46.494.195.118.429.193.695.232a7.221 7.221 0 002.18-.067 11.69 11.69 0 001.376-.34c.221-.073.37-.095.449-.067.08.027.15.103.212.22l.873 2.002c.063.148.072.257.021.33a.753.753 0 01-.257.22 5.484 5.484 0 01-.978.475 10.05 10.05 0 01-2.357.562 9.97 9.97 0 01-1.095.067c-2.213 0-3.813-.486-4.794-1.453-.981-.969-1.471-2.48-1.471-4.532 0-1.949.52-3.46 1.564-4.532 1.047-1.075 2.548-1.608 4.513-1.608zm-.954 3.638a1.773 1.773 0 011.095-.385c.55 0 .924.15 1.121.452.195.302.308.687.338 1.156h-3.155c.063-.558.263-.966.6-1.223zm47.002 2.41c0 1.905-.511 3.396-1.531 4.465-1.02 1.07-2.599 1.606-4.738 1.606-1.112 0-2.064-.142-2.85-.43-.784-.288-1.424-.69-1.92-1.212a4.685 4.685 0 01-1.083-1.902c-.227-.748-.341-1.583-.341-2.507 0-.925.132-1.76.401-2.508a5.16 5.16 0 011.175-1.913c.521-.527 1.17-.935 1.944-1.22.778-.285 1.678-.43 2.698-.43 2.076 0 3.634.539 4.678 1.617 1.044 1.078 1.567 2.558 1.567 4.434zm-6.245-2.661c1.179 0 1.768.902 1.768 2.706 0 .835-.15 1.483-.446 1.949-.299.46-.739.692-1.322.692-.58 0-1.02-.209-1.319-.628-.296-.416-.446-1.108-.446-2.077 0-1.762.587-2.642 1.765-2.642zm9.861 10.201c-.078.46-.789 1.005-2.919 1.455-.275.058-.425-.107-.425-.375l-.284-5.06c-.03-.564.242-.887.85-.946l.846-.087c.236-.19.431-.419.577-.681a4.18 4.18 0 00.356-.815c.087-.28.15-.55.189-.813.036-.246.069-.458.098-.64l.006-.041.589-4.136c.165-.994.62-1.32 1.72-1.32h6.574c1.113 0 1.532.426 1.532 1.451v6.973l.894.087c.613.058.855.388.825.946l-.35 3.879c.009.38-.732 1.329-2.877 1.578-.484.054-.489-.09-.502-.461a27.695 27.695 0 01-.003-.087l-.108-2.817h-7.352l-.236 1.91zm5.42-4.968h-3.063c.729-1.262.888-2.751 1.042-4.188.042-.391.084-.779.136-1.157h1.885v5.345zm18.337 1.43c0 .204-.024.385-.072.539-.048.153-.218.304-.517.452-.362.162-.76.299-1.191.419-.43.117-.876.212-1.331.285a14.22 14.22 0 01-1.378.153c-.464.028-.898.045-1.307.045-1.083 0-1.995-.092-2.734-.274-.739-.184-1.331-.438-1.78-.77-.445-.33-.765-.724-.954-1.176a3.823 3.823 0 01-.281-1.474c0-1.29.431-2.268 1.295-2.938.864-.667 2.019-1.003 3.464-1.003h2.569v-.307c0-.103-.018-.22-.048-.352a.821.821 0 00-.224-.374 1.328 1.328 0 00-.494-.287c-.215-.073-.49-.11-.837-.11-.219 0-.47.012-.754.034-.284.023-.583.048-.897.076-.314.028-.622.067-.931.111-.305.045-.583.095-.834.154-.221.059-.371.059-.449 0-.077-.059-.134-.168-.164-.33l-.449-1.89c-.048-.207-.048-.34 0-.408.048-.067.135-.12.26-.165a14.589 14.589 0 012.285-.516 17.84 17.84 0 012.498-.165c1.791 0 3.113.34 3.969 1.022.858.682 1.286 1.726 1.286 3.136v6.113zm-5.632-3.41h1.391v1.96c-.189.09-.437.148-.742.176a7.365 7.365 0 01-.625.045c-.455 0-.823-.08-1.095-.243-.278-.162-.412-.419-.412-.77 0-.252.044-.453.14-.607a1.01 1.01 0 01.353-.351c.141-.079.299-.134.47-.165a3.07 3.07 0 01.52-.045zm8.111 9.57c-.326.064-.541-.095-.541-.397V21.443c0-.176.036-.33.108-.46.068-.132.23-.258.481-.375.739-.338 1.606-.575 2.602-.715a20.7 20.7 0 012.866-.21c1.223 0 2.24.16 3.05.475.808.316 1.448.74 1.921 1.276.469.537.804 1.17 1.001 1.905a9.11 9.11 0 01.294 2.354c0 .82-.108 1.594-.317 2.32a5.122 5.122 0 01-1.002 1.894 4.742 4.742 0 01-1.744 1.265c-.709.31-1.546.463-2.521.463-.518 0-.949-.02-1.284-.056a21.24 21.24 0 01-1.166-.164l-.009 2.664c.03.223-.924 1.351-3.739 1.907zm6.727-12.41c.401.338.601.992.601 1.958 0 .924-.182 1.603-.553 2.033-.371.433-.883.65-1.544.65-.14 0-.352-.01-.637-.033a4.955 4.955 0 01-.846-.143v-4.817c.218-.058.458-.097.718-.12.26-.022.451-.033.577-.033.724 0 1.283.167 1.684.505z" fill="#fff"/><path fill-rule="evenodd" clip-rule="evenodd" d="M44.873 0h19.788c1.534 0 1.615.57 1.283 1.611-1.567 4.753-7.208 10.634-13.952 10.634h-9.296c-.954 0-1.538-.293-1.382-1.234l1.534-9.377C43.088.182 43.791 0 44.873 0z" fill="#B62C2C"/></svg>