<svg width="20" height="20" fill="none" xmlns="http://www.w3.org/2000/svg"><path fill="#B62C2C" d="M0 0h20v20H0z"/><path d="M10 2.5c2.038 0 2.292.007 3.091.045.8.038 1.343.163 1.822.349.495.19.912.448 1.328.865.382.374.677.828.865 1.329.185.477.311 1.022.349 1.82.035.8.045 1.054.045 3.092 0 2.038-.008 2.292-.045 3.091-.037.8-.163 1.343-.349 1.822-.188.5-.483.954-.865 1.328a3.687 3.687 0 01-1.329.865c-.477.185-1.022.311-1.82.349-.8.035-1.054.045-3.092.045-2.038 0-2.292-.008-3.091-.045-.8-.037-1.343-.163-1.821-.349a3.668 3.668 0 01-1.33-.865 3.678 3.678 0 01-.864-1.329c-.186-.477-.312-1.022-.349-1.82-.035-.8-.045-1.054-.045-3.092 0-2.038.007-2.292.045-3.091.038-.8.163-1.343.349-1.821.187-.501.483-.955.865-1.33a3.673 3.673 0 011.329-.864c.478-.186 1.021-.312 1.82-.349C7.708 2.51 7.963 2.5 10 2.5zm0 3.75a3.75 3.75 0 100 7.5 3.75 3.75 0 000-7.5zm4.875-.188a.938.938 0 10-1.875 0 .938.938 0 001.875 0zM10 7.75a2.25 2.25 0 110 4.5 2.25 2.25 0 010-4.5z" fill="#fff"/></svg>