<svg width="16" height="16" fill="none" xmlns="http://www.w3.org/2000/svg"><path d="M8 1.333a6.667 6.667 0 110 13.334A6.667 6.667 0 018 1.334zm0 1.334a5.334 5.334 0 100 10.667A5.334 5.334 0 008 2.667zm2.555 2.224a.397.397 0 01.509.045c.136.136.153.35.042.507-1.453 2.03-2.253 3.119-2.399 3.264a1.001 1.001 0 01-1.414-1.414c.249-.249 1.336-1.05 3.262-2.402zm1.112 2.442a.667.667 0 110 1.334.667.667 0 010-1.333zm-7.334 0a.667.667 0 110 1.334.667.667 0 010-1.333zM5.88 4.937a.667.667 0 11-.945.943.667.667 0 01.945-.943zM8 3.666a.667.667 0 110 1.335.667.667 0 010-1.334z" fill="#fff"/></svg>