<svg width="16" height="16" viewBox="0 0 16 16" fill="none" xmlns="http://www.w3.org/2000/svg">
<path d="M5.33332 3.33317H12.6667C12.8435 3.33317 13.013 3.40341 13.1381 3.52843C13.2631 3.65346 13.3333 3.82303 13.3333 3.99984V13.9998C13.3333 14.1766 13.2631 14.3462 13.1381 14.4712C13.013 14.5963 12.8435 14.6665 12.6667 14.6665H3.33332C3.15651 14.6665 2.98694 14.5963 2.86192 14.4712C2.73689 14.3462 2.66666 14.1766 2.66666 13.9998V7.33317L5.33332 3.33317ZM8.66666 0.666504H12C12.1768 0.666504 12.3464 0.736742 12.4714 0.861766C12.5964 0.98679 12.6667 1.15636 12.6667 1.33317V2.6665H7.99999V1.33317C7.99999 1.15636 8.07023 0.98679 8.19525 0.861766C8.32028 0.736742 8.48985 0.666504 8.66666 0.666504ZM3.99999 7.99984V12.6665H5.33332V7.99984H3.99999Z" fill="white"/>
</svg>
