<svg width="20" height="20" fill="none" xmlns="http://www.w3.org/2000/svg"><path fill="#B62C2C" d="M0 0h20v20H0z"/><path fill-rule="evenodd" clip-rule="evenodd" d="M15.19 2.5H4.81A2.311 2.311 0 002.5 4.81v10.378A2.312 2.312 0 004.81 17.5h10.378a2.312 2.312 0 002.312-2.31V4.81a2.311 2.311 0 00-2.31-2.31zm-.376 10.56h-1.262c-.411 0-.463-.3-1.219-1.02-.637-.63-.91-.679-1.064-.679-.137 0-.231.103-.231.343v.961c0 .283-.163.395-.833.395-1.098 0-2.317-.678-3.244-1.931-1.382-1.863-1.735-3.253-1.735-3.554 0-.163.12-.275.283-.275h1.124c.292 0 .404.086.507.395.514 1.51 1.433 2.841 1.82 2.841.146 0 .162-.12.162-.43V8.572c0-.744-.42-.807-.42-1.082 0-.108.086-.188.223-.188h1.802c.24 0 .275.086.275.378v2.086c0 .238.049.326.155.326.131 0 .252-.08.49-.343.739-.817 1.347-2.111 1.347-2.111.077-.164.172-.275.43-.275h1.124c.223 0 .318.12.274.335-.128.6-1.424 2.429-1.424 2.429-.12.188-.172.291 0 .472.12.155.497.49.729.798.566.6.935 1.107.935 1.39.001.214-.12.275-.248.275z" fill="#fff"/></svg>