<svg width="14" height="14" fill="none" xmlns="http://www.w3.org/2000/svg"><path d="M.336 13.667l.902-3.312a6.667 6.667 0 112.41 2.409l-3.312.903zm4.258-9.795a.64.64 0 00-.247.067.862.862 0 00-.196.152c-.08.075-.125.14-.174.204A1.82 1.82 0 003.6 5.414c.002.326.087.644.22.942.273.6.722 1.237 1.314 1.828.143.142.282.284.432.417a6.299 6.299 0 002.56 1.364l.38.058c.123.007.246-.003.37-.009.194-.01.384-.062.556-.154.11-.058.162-.088.255-.146l.083-.06a1.53 1.53 0 00.22-.193.766.766 0 00.14-.2c.052-.11.104-.317.125-.49.016-.132.012-.204.01-.248-.003-.072-.062-.146-.127-.177l-.388-.174s-.58-.253-.934-.414a.332.332 0 00-.118-.027.321.321 0 00-.252.085v-.002c-.003 0-.048.038-.53.622a.233.233 0 01-.245.087.945.945 0 01-.128-.044l-.168-.073-.003-.001a4.007 4.007 0 01-1.046-.667c-.084-.073-.162-.153-.242-.23a4.197 4.197 0 01-.68-.846l-.04-.063a.616.616 0 01-.068-.137.214.214 0 01.04-.176s.163-.178.238-.274a2.92 2.92 0 00.176-.248c.078-.127.103-.257.062-.358-.187-.456-.38-.91-.58-1.36-.038-.09-.155-.154-.261-.167a2.966 2.966 0 00-.108-.01 2.255 2.255 0 00-.269.002v.001z" fill="#fff"/></svg>