<svg width="17" height="16" fill="none" xmlns="http://www.w3.org/2000/svg"><path d="M8.938 2c1.63 0 1.834.006 2.474.036.639.03 1.074.13 1.456.279.396.152.73.359 1.064.692.305.3.54.663.691 1.063.149.382.25.818.28 1.457.028.64.035.843.035 2.473s-.006 1.834-.036 2.473c-.03.64-.13 1.074-.279 1.457-.15.4-.386.764-.691 1.063a2.95 2.95 0 01-1.064.692c-.382.148-.817.249-1.456.279-.64.028-.843.036-2.474.036-1.63 0-1.833-.006-2.473-.036-.639-.03-1.074-.13-1.457-.279-.4-.15-.763-.386-1.063-.692a2.942 2.942 0 01-.692-1.063c-.148-.382-.249-.818-.279-1.457-.028-.64-.036-.843-.036-2.473s.006-1.834.036-2.473c.03-.64.13-1.074.28-1.457.15-.4.386-.764.691-1.063.3-.305.663-.542 1.063-.692.383-.149.818-.249 1.457-.279.64-.028.843-.036 2.473-.036zm0 3a3 3 0 100 6 3 3 0 000-6zm3.9-.15a.75.75 0 10-1.5 0 .75.75 0 001.5 0zm-3.9 1.35a1.8 1.8 0 110 3.6 1.8 1.8 0 010-3.6z" fill="#F05A46"/></svg>