<svg width="201" height="114" fill="none" xmlns="http://www.w3.org/2000/svg"><path fill-rule="evenodd" clip-rule="evenodd" d="M0 57v28h59.529l-6.774-13.712c-4.841-9.8-6.696-13.99-6.5-14.683.15-.534 2.272-4.966 4.715-9.849 2.442-4.883 5.358-10.875 6.48-13.317L59.487 29H0v28zm49.617-21.698c0 .21-2.233 4.937-4.962 10.503-2.917 5.949-4.962 10.67-4.962 11.458 0 .793 2.02 5.413 4.962 11.347 2.729 5.504 4.962 10.112 4.962 10.24 0 .127-9.845.231-21.877.231H5.864V34.92H27.74c12.032 0 21.877.172 21.877.383zM12.63 56.772v15.025h7.668v-4.78c0-3.967.116-4.781.683-4.781.375 0 2.242 2.151 4.148 4.78l3.465 4.78h9.368l-2.078-2.617c-6.01-7.57-5.958-7.488-4.991-8.035 1.844-1.044 3.764-3.342 4.24-5.076 1.317-4.784.15-9.995-2.72-12.147-2.515-1.886-4.122-2.173-12.182-2.173H12.63v15.024zm104.249-10.401c-3.401.986-5.016 3.023-5.016 6.325 0 3.42 2.333 5.866 6.485 6.799 2.919.656 3.89 1.226 3.89 2.286 0 1.873-2.847 2.346-5.598.931l-1.729-.89-1.722 1.46-1.722 1.458.95 1.02c1.84 1.978 4.669 2.994 7.593 2.726 5.867-.537 8.998-4.82 7.018-9.603-.843-2.037-2.535-3.28-5.36-3.94-3.919-.912-5.393-2.442-3.851-3.998.748-.755 3.164-.685 4.222.122 1.199.916 1.82.861 3.374-.299 1.702-1.27 1.675-1.726-.18-3-2.676-1.839-5.314-2.28-8.354-1.398zm55.55-.105c-3.48.886-5.18 3.01-5.154 6.437.029 3.758 2.014 5.813 6.567 6.798 2.115.458 3.876 1.511 3.876 2.318 0 .814-1.515 1.783-2.79 1.783-.755 0-2.163-.449-3.129-.997l-1.756-.996-1.573 1.539-1.573 1.538 1.013 1.111c2.233 2.452 6.464 3.438 9.854 2.297 2.105-.71 4.385-2.99 4.911-4.913.457-1.671-.071-4.7-1.024-5.873-.785-.965-3.546-2.22-5.672-2.578-1.852-.311-3.674-1.54-3.674-2.478 0-.837 1.442-1.854 2.626-1.852.665.001 1.83.385 2.59.852 1.226.754 1.482.776 2.256.19a128.4 128.4 0 011.744-1.295c.861-.625.861-.645.001-1.603-1.83-2.04-5.96-3.076-9.093-2.278zM72.621 57.228v10.926h5.413V64.74c0-4.431.544-4.432 3.677-.007l2.412 3.406 3.297.008c3.768.008 3.757.295.165-4.218-1.352-1.697-2.38-3.132-2.283-3.187.096-.055.58-.324 1.076-.598 1.86-1.027 2.932-3.325 2.93-6.285-.002-3.509-1.09-5.456-3.729-6.664-1.543-.708-2.962-.876-7.433-.884l-5.525-.01v10.927zm19.398-3.301c.001 4.194.209 8.374.46 9.288.583 2.117 3.473 4.79 5.621 5.196 3.134.593 6.412.011 8.242-1.465 2.999-2.418 3.265-3.439 3.265-12.564l.001-8.081h-5.413v7.74c0 7.133-.071 7.811-.902 8.65-.558.564-1.503.91-2.481.91-.977 0-1.922-.346-2.48-.91-.832-.839-.903-1.517-.903-8.65V46.3h-5.413l.003 7.626zm37.887 3.3v10.928h5.983c6.825 0 8.455-.53 9.882-3.216 1.441-2.713.733-6.542-1.426-7.708-.88-.476-.88-.487-.007-1.368 2.65-2.674 1.115-7.567-2.847-9.078-.698-.266-3.591-.484-6.427-.484h-5.158v10.927zm24.125-10.357c-.597 1.665-1.936 5.508-4.521 12.976l-2.877 8.309h5.75l.64-1.936.639-1.934h6.164l.639 1.934.639 1.936h2.942c2.622 0 2.909-.088 2.63-.797-.173-.439-1.8-4.997-3.617-10.13-1.817-5.134-3.445-9.693-3.617-10.13-.245-.622-.851-.797-2.76-.797-1.549 0-2.522.209-2.651.569zm31.355 10.358v10.926h14.885v-5.008h-9.472v-3.642h8.57v-4.553h-8.57V51.31h9.472V46.3h-14.885v10.927zM27.309 49.695c1.083 1.092 1.39 2.617.828 4.097-.46 1.212-2.673 2.07-5.336 2.07h-2.503v-7.285h2.952c2.534 0 3.11.159 4.06 1.118zM140.19 51.4c.298.3.541.977.541 1.502 0 1.485-.894 2.05-3.248 2.05h-2.165v-4.098h2.165c1.191 0 2.409.245 2.707.546zm-56.744.82c1.196 1.206 1.138 2.08-.23 3.46-.918.928-1.496 1.118-3.045 1.005l-1.912-.14-.135-2.618-.135-2.618h2.277c1.677 0 2.516.24 3.18.91zm73.92 2.162c1.197 4.74 1.207 4.667-.643 4.667-1.639 0-1.665-.028-1.382-1.455.467-2.359 1.197-4.92 1.403-4.92.105 0 .385.77.622 1.708zm-16.449 6.133c.664 1.913-.634 3.087-3.413 3.087h-2.186v-4.599l2.585.137c2.354.124 2.623.247 3.014 1.375z" fill="#E5E5E5"/></svg>