<svg width="190" height="31" fill="none" xmlns="http://www.w3.org/2000/svg"><path fill-rule="evenodd" clip-rule="evenodd" d="M171.473.461c-2.391.625-4.563 1.985-6.462 4.048-2.962 3.219-4.192 6.877-3.937 11.71.231 4.396 1.799 7.764 4.959 10.651 2.575 2.354 5.752 3.496 9.723 3.496 7.006 0 12.421-4.512 13.934-11.613.546-2.562.354-6.4-.448-8.956-1.439-4.59-5.226-8.22-9.822-9.417-2.063-.537-5.72-.5-7.947.081zM114.375.417c-.099.098-.179 6.817-.179 14.93v14.75h3.766V17.992l2.757-.002c3.622-.003 5.873-.39 7.91-1.363 2.74-1.307 4.062-3.391 4.32-6.808.37-4.886-2.144-8.134-7.109-9.186-1.876-.397-11.11-.572-11.465-.216zM137.6 15.14v14.956h3.497V17.185h2.421c1.332 0 2.424.09 2.428.202.003.11 1.917 2.986 4.252 6.389l4.244 6.187 1.936.079c1.065.043 1.936.01 1.936-.074 0-.084-1.936-2.965-4.303-6.4-2.366-3.437-4.31-6.364-4.319-6.505-.01-.14.519-.412 1.176-.603 1.646-.48 3.653-1.889 4.526-3.176 2.246-3.31 1.519-8.585-1.493-10.839C151.54.68 150.265.413 143.585.293L137.6.185v14.956zm-105.184.16v14.796h6.456v-10.76h1.823c5.287 0 8.672-1.045 10.701-3.302 1.606-1.786 2.101-3.502 1.95-6.758-.18-3.841-1.567-6.097-4.635-7.533C46.486.704 44.852.506 38.456.506h-6.04v14.796zM57.076.687c-.1.098-.18 6.704-.18 14.68v14.5l7.33-.093c6.857-.088 7.43-.134 8.85-.701 1.818-.726 3.82-2.416 4.545-3.838 1.155-2.264 1.173-6.536.037-8.763-1.661-3.255-5.02-4.666-11.111-4.666-1.592 0-2.961-.11-3.043-.242-.082-.133-.071-1.526.025-3.094l.174-2.852h12.293V.506h-9.37c-5.155 0-9.452.08-9.55.18zm24.838 14.481v14.661h6.457v-6.472c0-3.973.097-6.412.252-6.316.14.087 2.397 2.999 5.018 6.473l4.764 6.315h3.725c2.05 0 3.726-.068 3.726-.152 0-.084-2.654-3.563-5.897-7.732l-5.898-7.579.983-1.213c.54-.667 2.916-3.551 5.279-6.409 2.363-2.858 4.461-5.43 4.661-5.716.355-.507.273-.52-3.08-.514L98.458.52l-4.976 6.243-4.977 6.244-.072-6.25-.073-6.25h-6.446v14.66zm97.383-11.714c1.951.73 3.397 1.787 4.571 3.341 1.596 2.114 2.222 4.068 2.365 7.384.195 4.49-.703 7.575-2.945 10.121-3.008 3.418-9.126 4.148-13.214 1.578-3.494-2.196-5.307-5.9-5.301-10.826.005-3.879.931-6.666 2.996-9.011 2.548-2.896 7.645-4.04 11.528-2.587zM13.267 16.437L.172 29.694l13.07.07c7.19.038 13.114.027 13.166-.025.052-.052.063-6.05.025-13.327l-.07-13.232-13.096 13.257zM125.848 3.523c2.477.741 3.878 3.13 3.607 6.149-.193 2.14-1.006 3.568-2.548 4.475-1.21.711-1.483.756-5.112.844l-3.833.092V3.196h3.398c1.886 0 3.884.145 4.488.327zm23.758-.02c3.744.942 4.915 6.339 1.983 9.136-1.343 1.281-2.686 1.587-6.98 1.587h-3.512V3.196h3.647c2.006 0 4.194.138 4.862.306zM45.04 6.088c1.337.681 1.972 1.698 2.111 3.378.17 2.058-.597 3.728-2.058 4.473-.874.446-1.593.555-3.654.555h-2.567V5.617h2.623c1.966.001 2.854.119 3.545.472zM70.177 17.05c1.419.675 2.05 1.794 2.05 3.632 0 3.072-1.475 4.107-5.912 4.145l-2.828.025-.075-3.889c-.041-2.138-.009-4.06.072-4.271.222-.58 5.294-.308 6.693.358z" fill="#7D7D7D"/><path d="M25.287 1.076L0 26.766V1.077h25.287z" fill="#7D7D7D"/></svg>