<svg width="121" height="52" fill="none" xmlns="http://www.w3.org/2000/svg"><path fill-rule="evenodd" clip-rule="evenodd" d="M11.192.083C4.384 1.048-.423 6.543.053 12.82c.254 3.337 1.39 5.968 3.547 8.205 2.003 2.078 4.665 3.351 7.894 3.774l.34.045v1.392c0 .766.002 1.417.003 1.447.001.03-.266.077-.593.105-2.254.196-2.92.31-4.092.7-3.625 1.21-6.11 4.054-6.886 7.882-.436 2.15-.339 3.994.311 5.914 1.182 3.492 3.933 5.853 7.916 6.792.904.213 2.287.406 2.913.406h.426l.02 1.236.019 1.236 2.783.018 2.783.02.02-1.237.02-1.237.718-.05c2.57-.179 4.833-.905 6.72-2.157.702-.465 2.093-1.866 2.576-2.594 2.11-3.18 2.344-7.356.616-10.993-1.477-3.109-4.28-5.114-8.007-5.728-.406-.067-2.176-.223-2.534-.223-.116 0-.125-.134-.125-1.81l.001-1.809.697-.25c1.662-.598 4.71-2.386 4.591-2.693-.03-.082-2.76-3.747-2.923-3.927-.033-.036-.524.17-1.127.473-1.116.56-2.052.907-2.964 1.097-3.854.801-7.353-.719-8.912-3.87-1.35-2.732-.85-5.712 1.297-7.732 1.46-1.374 3.2-2.049 5.28-2.049 1.848 0 3.512.555 5.245 1.748.448.308.594.376.66.309.312-.315 3.328-3.75 3.329-3.79 0-.026-.477-.365-1.06-.753C19.504 1.352 17.592.574 15.249.15c-.923-.167-3.098-.203-4.057-.067zm11.987.122c-.006.01-.017 5.458-.024 12.108l-.013 12.09h17.44V18.96H28.724v-4.084h10.349V9.429H28.724V5.274h11.858V.187h-8.696c-4.783 0-8.701.008-8.707.018zm18.194 12.09v12.109h5.605V17.92c0-5.511.015-6.484.1-6.484.056 0 .343.379.639.841.296.464 1.289 2.003 2.207 3.422.919 1.418 2.56 3.957 3.65 5.642l1.98 3.063h7.755l-.176-.233c-.097-.128-2.207-3.037-4.688-6.463-4.064-5.613-4.502-6.245-4.422-6.373.049-.078 1.207-1.482 2.574-3.12 3.393-4.064 5.166-6.188 5.997-7.186l.702-.842H55.55l-4.268 5.59-4.269 5.59-.018-5.59-.019-5.59h-5.604v12.108zm22.207-.006v12.115h5.533v-7.145L71 17.217c2.534-.056 3.95-.259 5.695-.817 2.384-.762 4.01-2.073 4.92-3.966.964-2.005 1.02-5.239.127-7.422-.89-2.178-3.08-3.688-6.321-4.358-1.847-.381-2.34-.412-7.26-.447L63.58.175v12.114zm19.476.006v12.109h17.465l-.019-2.705-.018-2.705-5.911-.018-5.912-.018v-4.082l5.157-.019 5.156-.018V9.465l-5.156-.018-5.157-.018V5.274h17.895v19.13h5.606V5.274h8.552V.187H83.055v12.108zM72.573 5.421c1.637.166 2.546.472 3.181 1.07.643.607.924 1.56.765 2.598-.232 1.521-1.325 2.348-3.525 2.669-.913.133-2.656.21-3.333.146l-.548-.05V5.345h1.358c.747 0 1.693.034 2.102.075zM30.09 39.88v12.108h5.576l.613-.77c.338-.423 1.822-2.27 3.298-4.102a9286.91 9286.91 0 005.448-6.77c1.52-1.892 2.84-3.52 2.934-3.617l.17-.177v15.436h5.606v-7.145l1.814-.04c2.363-.054 3.743-.246 5.308-.738 3.366-1.059 5.205-3.131 5.675-6.396.125-.872.047-3.017-.14-3.82-.31-1.336-.833-2.307-1.733-3.217-.942-.951-1.863-1.499-3.369-2.002-2.133-.712-3.96-.876-9.42-.845l-3.77.022-1.108 1.397-6.174 7.792c-2.786 3.517-5.095 6.395-5.13 6.395-.037 0-.064-3.29-.064-7.81v-7.81H30.09V39.88zm37.371 0v12.108h5.534l.018-7.612.018-7.613 1.078 1.296c.593.713 2.242 2.702 3.665 4.42 1.423 1.719 2.62 3.126 2.66 3.129.04.002 1.69-1.808 3.665-4.022l3.593-4.026.019 7.22.018 7.22 4.401-.031c4.738-.034 5.087-.057 6.876-.455 2.345-.522 4.124-1.54 5.226-2.99.184-.242.492-.766.683-1.163.57-1.182.78-2.23.78-3.886-.002-3.003-.951-5.017-3.001-6.367-1.832-1.206-4.208-1.777-7.761-1.865l-1.6-.04v-7.432h-5.58l-.574.806c-2.175 3.057-6.244 8.71-6.346 8.817-.117.123-.183.053-1.409-1.505-.707-.898-1.934-2.456-2.728-3.46a1437.52 1437.52 0 01-2.554-3.243l-1.11-1.415H67.46V39.88zm39.096 0v12.108h5.606l-.018-12.09-.018-12.09-2.785-.02-2.785-.018v12.11zm-94.702-1.165c-.012 3.963-.041 5.794-.093 5.81-.143.048-1.041-.135-1.734-.353-1.602-.505-2.709-1.415-3.41-2.802-.457-.905-.568-1.448-.566-2.78.002-1.147.009-1.202.237-1.863.62-1.789 1.84-2.984 3.582-3.509.628-.189 1.085-.268 1.606-.28l.395-.008-.017 5.785zm7.276-5.573c1.948.493 3.284 1.787 3.889 3.767.176.578.196.75.195 1.717 0 .873-.03 1.183-.155 1.648-.457 1.696-1.635 3.027-3.277 3.702a8.987 8.987 0 01-1.964.53l-.377.05V32.909l.557.044c.306.024.815.109 1.131.189zm37.88-.136c1.666.162 2.644.516 3.25 1.178.508.552.625.929.625 2.006 0 .796-.016.893-.207 1.306-.461.995-1.49 1.587-3.207 1.85-.829.125-2.929.216-3.398.146l-.34-.05V32.93h1.246c.685 0 1.598.034 2.03.076zm39.844 7.419c2.193.32 3.11 1.075 3.277 2.7.168 1.636-.703 2.809-2.428 3.27-.85.228-1.664.314-3.04.32l-1.294.007-.02-3.152c-.01-1.734 0-3.198.02-3.253.033-.084.264-.093 1.385-.052.74.027 1.685.099 2.1.16z" fill="#7D7D7D"/></svg>