<svg width="16" height="16" viewBox="0 0 16 16" fill="none" xmlns="http://www.w3.org/2000/svg">
<path d="M8.00001 1.3335C11.682 1.3335 14.6667 4.31816 14.6667 8.00016C14.6667 11.6822 11.682 14.6668 8.00001 14.6668C4.31801 14.6668 1.33334 11.6822 1.33334 8.00016C1.33334 4.31816 4.31801 1.3335 8.00001 1.3335ZM8.00001 2.66683C5.05468 2.66683 2.66668 5.05483 2.66668 8.00016C2.66668 10.9455 5.05468 13.3335 8.00001 13.3335C10.9453 13.3335 13.3333 10.9455 13.3333 8.00016C13.3333 5.05483 10.9453 2.66683 8.00001 2.66683ZM10.5553 4.8915C10.7133 4.78083 10.928 4.7995 11.064 4.93616C11.2 5.07216 11.2173 5.28683 11.106 5.44283C9.65268 7.4735 8.85268 8.5615 8.70734 8.7075C8.31668 9.0975 7.68334 9.0975 7.29268 8.7075C6.90268 8.31683 6.90268 7.6835 7.29268 7.29283C7.54201 7.04416 8.62934 6.2435 10.5553 4.8915ZM11.6667 7.3335C12.0347 7.3335 12.3333 7.63216 12.3333 8.00016C12.3333 8.36816 12.0347 8.66683 11.6667 8.66683C11.2987 8.66683 11 8.36816 11 8.00016C11 7.63216 11.2987 7.3335 11.6667 7.3335ZM4.33334 7.3335C4.70134 7.3335 5.00001 7.63216 5.00001 8.00016C5.00001 8.36816 4.70134 8.66683 4.33334 8.66683C3.96534 8.66683 3.66668 8.36816 3.66668 8.00016C3.66668 7.63216 3.96534 7.3335 4.33334 7.3335ZM5.87868 4.93616C6.13868 5.19616 6.13868 5.61816 5.87868 5.87883C5.61868 6.13883 5.19601 6.13883 4.93601 5.87883C4.67601 5.61883 4.67601 5.19616 4.93601 4.93616C5.19601 4.67616 5.61801 4.67616 5.87868 4.93616ZM8.00001 3.66683C8.36801 3.66683 8.66668 3.9655 8.66668 4.3335C8.66668 4.7015 8.36801 5.00016 8.00001 5.00016C7.63201 5.00016 7.33334 4.7015 7.33334 4.3335C7.33334 3.9655 7.63201 3.66683 8.00001 3.66683Z" fill="white"/>
</svg>
