<svg width="17" height="16" fill="none" xmlns="http://www.w3.org/2000/svg"><path fill-rule="evenodd" clip-rule="evenodd" d="M13.09 2H4.787a1.85 1.85 0 00-1.849 1.849v8.301A1.85 1.85 0 004.788 14h8.3a1.85 1.85 0 001.85-1.849V3.85A1.85 1.85 0 0013.09 2zm-.3 8.449h-1.01c-.33 0-.37-.24-.975-.818-.51-.502-.728-.542-.851-.542-.11 0-.185.082-.185.274v.77c0 .226-.13.315-.666.315-.88 0-1.854-.542-2.596-1.545C5.4 7.413 5.119 6.3 5.119 6.06c0-.13.096-.22.227-.22h.9c.232 0 .322.069.404.316.412 1.208 1.147 2.273 1.456 2.273.117 0 .13-.096.13-.344V6.857c0-.596-.336-.646-.336-.865 0-.088.069-.151.178-.151H9.52c.192 0 .22.069.22.302v1.669c0 .19.04.26.124.26.105 0 .202-.063.391-.274.592-.653 1.079-1.689 1.079-1.689.061-.13.137-.22.343-.22h.9c.178 0 .254.096.22.268-.103.481-1.14 1.944-1.14 1.944-.097.15-.138.233 0 .377.095.124.398.392.583.639.453.48.748.885.748 1.112.001.171-.096.22-.198.22z" fill="#F05A46"/></svg>