<svg width="17" height="16" viewBox="0 0 17 16" fill="none" xmlns="http://www.w3.org/2000/svg">
<path d="M11.2064 14V9.356H12.7617L12.9944 7.55067H11.2064V6.39867C11.2064 5.876 11.3517 5.51933 12.1011 5.51933H13.0571V3.90467C12.5943 3.85556 12.1291 3.83175 11.6637 3.83333C10.2857 3.83333 9.34242 4.67467 9.34242 6.22V7.55067H7.78375V9.356H9.34242V14H3.60508C3.42827 14 3.2587 13.9298 3.13368 13.8047C3.00865 13.6797 2.93842 13.5101 2.93842 13.3333V2.66667C2.93842 2.48986 3.00865 2.32029 3.13368 2.19526C3.2587 2.07024 3.42827 2 3.60508 2H14.2717C14.4486 2 14.6181 2.07024 14.7432 2.19526C14.8682 2.32029 14.9384 2.48986 14.9384 2.66667V13.3333C14.9384 13.5101 14.8682 13.6797 14.7432 13.8047C14.6181 13.9298 14.4486 14 14.2717 14H11.2064V14Z" fill="#F05A46"/>
</svg>
