<svg width="17" height="16" viewBox="0 0 17 16" fill="none" xmlns="http://www.w3.org/2000/svg">
<path d="M8.93842 2C10.5686 2 10.772 2.006 11.4116 2.036C12.0506 2.066 12.4856 2.1662 12.8684 2.315C13.2644 2.4674 13.598 2.6738 13.9316 3.0068C14.2367 3.30674 14.4728 3.66955 14.6234 4.07C14.7716 4.4522 14.8724 4.8878 14.9024 5.5268C14.9306 6.1664 14.9384 6.3698 14.9384 8C14.9384 9.6302 14.9324 9.8336 14.9024 10.4732C14.8724 11.1122 14.7716 11.5472 14.6234 11.93C14.4732 12.3307 14.2371 12.6936 13.9316 12.9932C13.6316 13.2982 13.2688 13.5343 12.8684 13.685C12.4862 13.8332 12.0506 13.934 11.4116 13.964C10.772 13.9922 10.5686 14 8.93842 14C7.30822 14 7.10482 13.994 6.46522 13.964C5.82622 13.934 5.39122 13.8332 5.00842 13.685C4.60781 13.5347 4.24493 13.2986 3.94522 12.9932C3.64006 12.6933 3.40397 12.3305 3.25342 11.93C3.10462 11.5478 3.00442 11.1122 2.97442 10.4732C2.94622 9.8336 2.93842 9.6302 2.93842 8C2.93842 6.3698 2.94442 6.1664 2.97442 5.5268C3.00442 4.8872 3.10462 4.4528 3.25342 4.07C3.40356 3.66931 3.6397 3.30639 3.94522 3.0068C4.24502 2.70154 4.60787 2.46544 5.00842 2.315C5.39122 2.1662 5.82562 2.066 6.46522 2.036C7.10482 2.0078 7.30822 2 8.93842 2ZM8.93842 5C8.14277 5 7.3797 5.31607 6.8171 5.87868C6.25449 6.44129 5.93842 7.20435 5.93842 8C5.93842 8.79565 6.25449 9.55871 6.8171 10.1213C7.3797 10.6839 8.14277 11 8.93842 11C9.73407 11 10.4971 10.6839 11.0597 10.1213C11.6223 9.55871 11.9384 8.79565 11.9384 8C11.9384 7.20435 11.6223 6.44129 11.0597 5.87868C10.4971 5.31607 9.73407 5 8.93842 5V5ZM12.8384 4.85C12.8384 4.65109 12.7594 4.46032 12.6187 4.31967C12.4781 4.17902 12.2873 4.1 12.0884 4.1C11.8895 4.1 11.6987 4.17902 11.5581 4.31967C11.4174 4.46032 11.3384 4.65109 11.3384 4.85C11.3384 5.04891 11.4174 5.23968 11.5581 5.38033C11.6987 5.52098 11.8895 5.6 12.0884 5.6C12.2873 5.6 12.4781 5.52098 12.6187 5.38033C12.7594 5.23968 12.8384 5.04891 12.8384 4.85ZM8.93842 6.2C9.41581 6.2 9.87364 6.38964 10.2112 6.72721C10.5488 7.06477 10.7384 7.52261 10.7384 8C10.7384 8.47739 10.5488 8.93523 10.2112 9.27279C9.87364 9.61036 9.41581 9.8 8.93842 9.8C8.46103 9.8 8.00319 9.61036 7.66562 9.27279C7.32806 8.93523 7.13842 8.47739 7.13842 8C7.13842 7.52261 7.32806 7.06477 7.66562 6.72721C8.00319 6.38964 8.46103 6.2 8.93842 6.2V6.2Z" fill="#B62C2C"/>
</svg>
