<svg width="16" height="16" viewBox="0 0 16 16" fill="none" xmlns="http://www.w3.org/2000/svg">
<path d="M2.00016 2.00012H14.0002C14.177 2.00012 14.3465 2.07036 14.4716 2.19538C14.5966 2.32041 14.6668 2.48998 14.6668 2.66679V13.3335C14.6668 13.5103 14.5966 13.6798 14.4716 13.8049C14.3465 13.9299 14.177 14.0001 14.0002 14.0001H2.00016C1.82335 14.0001 1.65378 13.9299 1.52876 13.8049C1.40373 13.6798 1.3335 13.5103 1.3335 13.3335V2.66679C1.3335 2.48998 1.40373 2.32041 1.52876 2.19538C1.65378 2.07036 1.82335 2.00012 2.00016 2.00012ZM8.04016 7.78879L3.7655 4.15879L2.90216 5.17479L8.04883 9.54479L13.1028 5.17146L12.2308 4.16279L8.04083 7.78879H8.04016Z" fill="black"/>
</svg>
