<svg width="201" height="114" viewBox="0 0 201 114" fill="none" xmlns="http://www.w3.org/2000/svg">
<path fill-rule="evenodd" clip-rule="evenodd" d="M0 57V85H29.7646H59.5288L52.7552 71.2877C47.914 61.4877 46.0592 57.2987 46.2545 56.6048C46.4052 56.0708 48.527 51.639 50.9699 46.7561C53.4124 41.8732 56.3285 35.8807 57.4494 33.439L59.4878 29H29.7439H0V57ZM49.6167 35.302C49.6167 35.5128 47.384 40.2387 44.6551 45.8046C41.738 51.7538 39.6934 56.4755 39.6934 57.2627C39.6934 58.0563 41.7132 62.6756 44.6551 68.6098C47.384 74.1141 49.6167 78.7225 49.6167 78.8496C49.6167 78.977 39.7723 79.0813 27.7403 79.0813H5.8638V57V34.9187H27.7403C39.7723 34.9187 49.6167 35.0913 49.6167 35.302ZM12.6297 56.7724V71.7967H16.4637H20.2978V67.0163C20.2978 63.0503 20.4141 62.2358 20.9807 62.2358C21.3564 62.2358 23.2233 64.387 25.1291 67.0163L28.5937 71.7967H33.2779H37.9622L35.8842 69.1789C29.8747 61.6093 29.9257 61.6908 30.8927 61.1435C32.7371 60.0996 34.6568 57.8022 35.1336 56.068C36.4498 51.2844 35.2825 46.0727 32.4128 43.9206C29.8981 42.0348 28.2906 41.748 20.2305 41.748H12.6297V56.7724ZM116.879 46.3705C113.478 47.3575 111.863 49.3945 111.863 52.6957C111.863 56.1163 114.196 58.5621 118.348 59.495C121.267 60.1506 122.238 60.721 122.238 61.7805C122.238 63.654 119.391 64.1275 116.64 62.712L114.911 61.8219L113.189 63.2811L111.467 64.7398L112.417 65.7601C114.257 67.7379 117.086 68.7536 120.01 68.4859C125.877 67.9491 129.008 63.6654 127.028 58.8831C126.185 56.8457 124.493 55.6023 121.668 54.9439C117.749 54.0306 116.275 52.5009 117.817 50.9447C118.565 50.1899 120.981 50.2595 122.039 51.0667C123.238 51.9832 123.859 51.9281 125.413 50.7681C127.115 49.4978 127.088 49.0425 125.233 47.7682C122.557 45.9293 119.919 45.4877 116.879 46.3705ZM172.429 46.2658C168.949 47.1522 167.249 49.2756 167.275 52.7026C167.304 56.4605 169.289 58.5156 173.842 59.5013C175.957 59.9589 177.718 61.012 177.718 61.8187C177.718 62.6332 176.203 63.6016 174.928 63.6016C174.173 63.6016 172.765 63.1532 171.799 62.605L170.043 61.6088L168.47 63.1477L166.897 64.6861L167.91 65.7975C170.143 68.2492 174.374 69.2349 177.764 68.0935C179.869 67.3846 182.149 65.1036 182.675 63.1809C183.132 61.51 182.604 58.4806 181.651 57.3082C180.866 56.3426 178.105 55.0874 175.979 54.73C174.127 54.4185 172.305 53.1902 172.305 52.2518C172.305 51.4155 173.747 50.3984 174.931 50.4002C175.596 50.4011 176.761 50.7845 177.521 51.2525C178.747 52.0064 179.003 52.0278 179.777 51.4414C180.257 51.0777 181.042 50.4949 181.521 50.1471C182.382 49.522 182.382 49.5024 181.522 48.544C179.692 46.5034 175.562 45.4681 172.429 46.2658ZM72.6209 57.2276V68.1545H75.3272H78.0336V64.7398C78.0336 60.309 78.578 60.3076 81.7106 64.7326L84.1229 68.1395L87.4197 68.1472C91.1883 68.1554 91.1771 68.4422 87.5848 63.9294C86.233 62.2317 85.2055 60.7975 85.3015 60.7424C85.3976 60.6874 85.8821 60.4183 86.3782 60.1442C88.2389 59.1171 89.3101 56.8188 89.3083 53.8594C89.3065 50.3501 88.2172 48.4033 85.5794 47.195C84.0359 46.4875 82.6168 46.319 78.1464 46.3108L72.6209 46.3008V57.2276ZM92.0192 53.9268C92.0205 58.1214 92.2276 62.3009 92.4788 63.2155C93.0616 65.3322 95.9524 68.0042 98.1 68.4108C101.234 69.0045 104.512 68.4222 106.342 66.9461C109.341 64.5277 109.607 63.5074 109.607 54.3821L109.608 46.3008H106.902H104.195V54.0407C104.195 61.1736 104.124 61.852 103.293 62.6911C102.735 63.2547 101.79 63.6016 100.812 63.6016C99.8347 63.6016 98.8898 63.2547 98.3313 62.6911C97.5 61.852 97.4292 61.1736 97.4292 54.0407V46.3008H94.7229H92.0165L92.0192 53.9268ZM129.906 57.2276V68.1545H135.889C142.714 68.1545 144.344 67.6241 145.771 64.9393C147.212 62.2258 146.504 58.3973 144.345 57.2308C143.465 56.7555 143.465 56.7441 144.338 55.8632C146.988 53.1888 145.453 48.2963 141.491 46.7852C140.793 46.5189 137.9 46.3008 135.064 46.3008H129.906V57.2276ZM154.031 46.8699C153.434 48.5349 152.095 52.378 149.51 59.8455L146.633 68.1545H149.508H152.383L153.023 66.2195L153.662 64.2846H156.744H159.826L160.465 66.2195L161.104 68.1545H164.046C166.668 68.1545 166.955 68.0675 166.676 67.3577C166.503 66.9193 164.876 62.361 163.059 57.2276C161.242 52.0943 159.614 47.5355 159.442 47.0976C159.197 46.4756 158.591 46.3008 156.682 46.3008C155.133 46.3008 154.16 46.5098 154.031 46.8699ZM185.386 57.2276V68.1545H192.829H200.271V65.6504V63.1463H195.535H190.799V61.3252V59.5041H195.084H199.369V57.2276V54.9512H195.084H190.799V53.1301V51.3089H195.535H200.271V48.8049V46.3008H192.829H185.386V57.2276ZM27.3095 49.695C28.3916 50.7867 28.6992 52.3124 28.1367 53.7925C27.6762 55.004 25.4638 55.8618 22.8011 55.8618H20.2978V52.2195V48.5772H23.25C25.7836 48.5772 26.3596 48.7357 27.3095 49.695ZM140.19 51.4C140.488 51.7005 140.731 52.3766 140.731 52.9024C140.731 54.3871 139.837 54.9512 137.483 54.9512H135.318V52.9024V50.8537H137.483C138.674 50.8537 139.892 51.0995 140.19 51.4ZM83.4463 52.2195C84.6421 53.4265 84.5839 54.2997 83.2158 55.6806C82.2975 56.6075 81.7201 56.7979 80.1712 56.6845L78.2591 56.5447L78.1238 53.9268L77.9885 51.3089H80.2663C81.9429 51.3089 82.7824 51.5493 83.4463 52.2195ZM157.366 54.3821C158.563 59.1212 158.573 59.0488 156.723 59.0488C155.084 59.0488 155.058 59.0206 155.341 57.5937C155.808 55.2353 156.538 52.6748 156.744 52.6748C156.849 52.6748 157.129 53.4433 157.366 54.3821ZM140.917 60.5148C141.581 62.4279 140.283 63.6016 137.504 63.6016H135.318V61.3024V59.0033L137.903 59.1398C140.257 59.2641 140.526 59.3871 140.917 60.5148Z" fill="#E5E5E5"/>
</svg>
