<svg width="121" height="114" viewBox="0 0 121 114" fill="none" xmlns="http://www.w3.org/2000/svg">
<path fill-rule="evenodd" clip-rule="evenodd" d="M11.1919 31.0834C4.38357 32.0482 -0.423286 37.5439 0.0531239 43.8185C0.306529 47.1562 1.44362 49.7868 3.60022 52.0243C5.60317 54.1024 8.26507 55.375 11.4936 55.7979L11.8349 55.8426V57.2353C11.8349 58.0014 11.8358 58.6523 11.837 58.6819C11.838 58.7114 11.5712 58.7588 11.2441 58.7872C8.99014 58.9828 8.32314 59.097 7.15177 59.4877C3.52706 60.6965 1.04202 63.5408 0.265852 67.3692C-0.169809 69.5181 -0.0727162 71.3632 0.577038 73.2831C1.75868 76.7748 4.51042 79.1357 8.4931 80.0749C9.39705 80.288 10.7804 80.4808 11.4058 80.4808H11.8316L11.8512 81.7168L11.8709 82.9527L14.654 82.9715L17.4372 82.9902L17.4569 81.7535L17.4765 80.5167L18.1952 80.4667C20.7646 80.2882 23.0284 79.5617 24.9148 78.3104C25.6168 77.8448 27.0075 76.4442 27.4906 75.7162C29.6012 72.5362 29.8354 68.3599 28.1071 64.7226C26.6301 61.614 23.8264 59.6086 20.0997 58.995C19.6939 58.9282 17.924 58.7721 17.5664 58.7716C17.4499 58.7714 17.4407 58.6377 17.4414 56.9623L17.4422 55.1532L18.1392 54.9024C19.8007 54.3046 22.8488 52.5169 22.7305 52.2096C22.6992 52.1283 19.9699 48.4627 19.8066 48.2827C19.774 48.2466 19.2828 48.4529 18.6799 48.756C17.564 49.3168 16.628 49.6632 15.7158 49.8529C11.862 50.6543 8.36302 49.1345 6.80422 45.9822C5.45375 43.2511 5.95374 40.2706 8.101 38.2511C9.56192 36.8771 11.301 36.2022 13.3801 36.2022C15.2287 36.2022 16.8929 36.7565 18.6264 37.9498C19.0739 38.2578 19.2203 38.3264 19.2867 38.259C19.5979 37.9437 22.6145 34.5089 22.6148 34.4697C22.6149 34.4429 22.1381 34.1038 21.555 33.7162C19.5039 32.3524 17.5915 31.5744 15.2487 31.1503C14.3264 30.9833 12.151 30.9474 11.1919 31.0834ZM23.1789 31.2047C23.1728 31.2146 23.162 36.6635 23.1548 43.3133L23.1419 55.4039H31.8619H40.582V52.6813V49.9587H34.6529H28.7238V47.9167V45.8747H33.8983H39.0727V43.1521V40.4294H33.8983H28.7238V38.3516V36.2738H34.6529H40.582V33.7303V31.1868H31.886C27.1032 31.1868 23.185 31.1948 23.1789 31.2047ZM41.3725 43.2954V55.4039H44.1753H46.9782V48.9198C46.9782 43.4088 46.9933 42.4356 47.0788 42.4356C47.1342 42.4356 47.4214 42.8145 47.717 43.2775C48.0127 43.7405 49.0059 45.28 49.9242 46.6987C50.8425 48.1173 52.4849 50.6564 53.574 52.341L55.5541 55.4039H59.4316H63.3091L63.1326 55.1711C63.0356 55.043 60.9261 52.1344 58.4449 48.7076C54.381 43.0946 53.9426 42.4628 54.0227 42.3349C54.0716 42.2568 55.2301 40.8531 56.5971 39.2155C59.9904 35.1506 61.7625 33.027 62.5943 32.0287L63.2959 31.1868H59.4236H55.5512L51.2826 36.7769L47.0141 42.367L46.9957 36.7769L46.9773 31.1868H44.1749H41.3725V43.2954ZM63.5796 43.2894V55.4039H66.3465H69.1134V51.8316V48.2592L70.9999 48.2174C73.5339 48.1612 74.9498 47.958 76.6954 47.4C79.0786 46.6383 80.7055 45.3268 81.6155 43.4335C82.5791 41.4286 82.6343 38.1953 81.7421 36.0116C80.8526 33.8343 78.6619 32.3243 75.4206 31.6543C73.5738 31.2725 73.0818 31.2422 68.1611 31.2074L63.5796 31.1749V43.2894ZM83.0557 43.2954V55.4039H91.7885H100.521L100.502 52.6992L100.484 49.9945L94.5725 49.9762L88.6614 49.9578V47.9168V45.8757L93.8179 45.8573L98.9743 45.8389V43.1521V40.4653L93.8179 40.4469L88.6614 40.4285V38.3511V36.2738H97.6089H106.556V45.8389V55.4039H109.359H112.162V45.8389V36.2738H116.438H120.714V33.7303V31.1868H101.885H83.0557V43.2954ZM72.5734 36.421C74.2104 36.5872 75.1194 36.8932 75.754 37.4915C76.3974 38.0982 76.678 39.0507 76.5193 40.0891C76.2866 41.61 75.1941 42.4372 72.9942 42.7579C72.0808 42.8911 70.3379 42.9677 69.6609 42.9044L69.1134 42.8532V39.5994V36.3455H70.4712C71.2181 36.3455 72.164 36.3795 72.5734 36.421ZM30.0893 70.88V82.9885H32.8769H35.6646L36.2784 82.2183C36.616 81.7947 38.0999 79.9489 39.576 78.1165C41.0521 76.284 43.5036 73.2372 45.0237 71.3457C46.5437 69.4542 47.864 67.8267 47.9577 67.7291L48.1281 67.5516V75.2701V82.9885H50.9309H53.7337V79.4159V75.8432L55.5484 75.8022C57.9112 75.7488 59.2914 75.5571 60.8558 75.0651C64.2224 74.0063 66.0612 71.9338 66.5307 68.6693C66.6562 67.7968 66.578 65.6516 66.3915 64.8483C66.0815 63.5133 65.5577 62.5418 64.6576 61.6323C63.7158 60.6808 62.7949 60.1334 61.2893 59.6305C59.1559 58.9179 57.3281 58.754 51.8685 58.7855L48.0988 58.8072L46.9909 60.2044C46.3815 60.9728 43.6033 64.4791 40.817 67.9961C38.0308 71.5131 35.7223 74.3907 35.6871 74.3907C35.6501 74.3907 35.6231 71.1001 35.6231 66.5811V58.7714H32.8562H30.0893V70.88ZM67.4604 70.88V82.9885H70.227H72.9936L73.0118 75.3759L73.0302 67.7633L74.1082 69.0592C74.7011 69.7719 76.3504 71.761 77.7734 73.4793C79.1964 75.1976 80.3934 76.6054 80.4332 76.6077C80.4732 76.61 82.1226 74.8001 84.0985 72.5858L87.6911 68.5597L87.7095 75.7799L87.7278 83L92.1293 82.9688C96.8672 82.9352 97.2165 82.9122 99.0046 82.5139C101.35 81.9916 103.129 80.9736 104.231 79.5246C104.415 79.2821 104.723 78.7585 104.914 78.361C105.484 77.1794 105.694 76.1304 105.694 74.4751C105.692 71.4724 104.743 69.4585 102.693 68.1083C100.861 66.9024 98.4846 66.3311 94.9318 66.2429L93.3327 66.2031V62.4873V58.7714H90.5422H87.7517L87.1781 59.5775C85.0027 62.6343 80.9336 68.2873 80.832 68.3938C80.7145 68.5167 80.6491 68.4469 79.4234 66.8892C78.7165 65.9907 77.4886 64.4334 76.6948 63.4286C75.9011 62.4237 74.752 60.9648 74.1413 60.1865L73.031 58.7714H70.2457H67.4604V70.88ZM106.556 70.8791V82.9885H109.359H112.162L112.144 70.8979L112.126 58.8072L109.341 58.7885L106.556 58.7698V70.8791ZM11.8538 69.7154C11.8421 73.6777 11.8129 75.5086 11.7612 75.5258C11.6183 75.5733 10.7196 75.3897 10.027 75.1716C8.42533 74.6673 7.318 73.7574 6.617 72.3697C6.15978 71.4646 6.04939 70.9222 6.05126 69.5903C6.05284 68.4427 6.05981 68.3882 6.2885 67.7275C6.90785 65.9381 8.12744 64.7432 9.87009 64.2183C10.4978 64.0293 10.9549 63.9496 11.4756 63.9385L11.8709 63.9301L11.8538 69.7154ZM19.1295 64.142C21.0777 64.6351 22.4138 65.9294 23.0186 67.9092C23.1951 68.487 23.2147 68.6592 23.2141 69.6261C23.2135 70.4987 23.1843 70.8087 23.059 71.274C22.6019 72.9704 21.424 74.3013 19.7825 74.9762C19.2171 75.2086 18.3876 75.4325 17.8179 75.5065L17.4406 75.5556V69.7322V63.9089L17.9976 63.9527C18.3039 63.9767 18.8133 64.0619 19.1295 64.142ZM57.0092 64.0062C58.6765 64.1677 59.654 64.5216 60.2608 65.1835C60.7675 65.7363 60.8845 66.1127 60.8845 67.1901C60.8845 67.9862 60.8692 68.0829 60.6776 68.4965C60.217 69.4907 59.1887 70.0835 57.4708 70.3451C56.6423 70.4713 54.542 70.5621 54.0734 70.4921L53.7337 70.4413V67.1857V63.9301H54.9789C55.6638 63.9301 56.5774 63.9643 57.0092 64.0062ZM96.8543 71.4246C99.0469 71.7446 99.9637 72.5004 100.131 74.1259C100.299 75.7612 99.4281 76.9336 97.7029 77.3954C96.8535 77.6228 96.0389 77.7086 94.6623 77.7157L93.3687 77.7224L93.3499 74.5699C93.3397 72.836 93.3486 71.3721 93.3699 71.3168C93.4021 71.233 93.6328 71.2245 94.7541 71.2653C95.4942 71.2923 96.4392 71.364 96.8543 71.4246Z" fill="#E5E5E5"/>
</svg>
