<svg width="121" height="52" viewBox="0 0 121 52" fill="none" xmlns="http://www.w3.org/2000/svg">
<path fill-rule="evenodd" clip-rule="evenodd" d="M11.1919 0.0833595C4.38357 1.04818 -0.423286 6.54389 0.0531239 12.8185C0.306529 16.1562 1.44362 18.7868 3.60022 21.0243C5.60317 23.1024 8.26507 24.375 11.4936 24.7979L11.8349 24.8426V26.2353C11.8349 27.0014 11.8358 27.6523 11.837 27.6819C11.838 27.7114 11.5712 27.7588 11.2441 27.7872C8.99014 27.9828 8.32314 28.097 7.15177 28.4877C3.52706 29.6965 1.04202 32.5408 0.265852 36.3692C-0.169809 38.5181 -0.0727162 40.3632 0.577038 42.2831C1.75868 45.7748 4.51042 48.1356 8.49311 49.0749C9.39706 49.288 10.7804 49.4808 11.4058 49.4808H11.8316L11.8512 50.7168L11.8709 51.9527L14.654 51.9715L17.4372 51.9902L17.4569 50.7535L17.4765 49.5167L18.1952 49.4667C20.7646 49.2882 23.0284 48.5617 24.9148 47.3104C25.6168 46.8448 27.0075 45.4442 27.4906 44.7162C29.6012 41.5362 29.8354 37.3599 28.1071 33.7226C26.6301 30.614 23.8264 28.6086 20.0997 27.995C19.6939 27.9282 17.924 27.7721 17.5664 27.7716C17.4499 27.7714 17.4407 27.6377 17.4414 25.9623L17.4422 24.1532L18.1392 23.9024C19.8007 23.3046 22.8488 21.5169 22.7305 21.2096C22.6992 21.1283 19.9699 17.4627 19.8066 17.2827C19.774 17.2466 19.2828 17.4529 18.6799 17.756C17.564 18.3168 16.628 18.6632 15.7158 18.8529C11.862 19.6543 8.36302 18.1345 6.80422 14.9822C5.45375 12.2511 5.95374 9.27061 8.101 7.25113C9.56192 5.87713 11.301 5.2022 13.3801 5.2022C15.2287 5.2022 16.8929 5.75654 18.6264 6.94977C19.0739 7.25779 19.2203 7.32636 19.2867 7.25901C19.5979 6.94368 22.6145 3.50894 22.6148 3.46974C22.6149 3.44295 22.1381 3.10384 21.555 2.71622C19.5039 1.35239 17.5915 0.574365 15.2487 0.150279C14.3264 -0.0166615 12.151 -0.0525573 11.1919 0.0833595ZM23.1789 0.204732C23.1728 0.214619 23.162 5.66347 23.1548 12.3133L23.1419 24.4039H31.8619H40.582V21.6813V18.9587H34.6529H28.7238V16.9167V14.8747H33.8983H39.0727V12.1521V9.42945H33.8983H28.7238V7.35165V5.27385H34.6529H40.582V2.73033V0.18682H31.886C27.1032 0.18682 23.185 0.194844 23.1789 0.204732ZM41.3725 12.2954V24.4039H44.1753H46.9782V17.9198C46.9782 12.4088 46.9933 11.4356 47.0788 11.4356C47.1342 11.4356 47.4214 11.8145 47.717 12.2775C48.0127 12.7405 49.0059 14.28 49.9242 15.6987C50.8425 17.1173 52.4849 19.6564 53.574 21.341L55.5541 24.4039H59.4316H63.3091L63.1326 24.1711C63.0356 24.043 60.9261 21.1344 58.4449 17.7075C54.381 12.0946 53.9426 11.4628 54.0227 11.3349C54.0716 11.2568 55.2301 9.85311 56.5971 8.21551C59.9904 4.15062 61.7625 2.02703 62.5943 1.02869L63.2959 0.18682H59.4236H55.5512L51.2826 5.77689L47.0141 11.367L46.9957 5.77689L46.9773 0.18682H44.1749H41.3725V12.2954ZM63.5796 12.2894V24.4039H66.3465H69.1134V20.8316V17.2592L70.9999 17.2174C73.5339 17.1612 74.9497 16.958 76.6954 16.4C79.0786 15.6383 80.7055 14.3268 81.6155 12.4335C82.5791 10.4286 82.6343 7.19531 81.7421 5.01162C80.8526 2.8343 78.6619 1.32431 75.4206 0.654253C73.5738 0.272511 73.0818 0.242204 68.1611 0.207383L63.5796 0.174926V12.2894ZM83.0557 12.2954V24.4039H91.7885H100.521L100.502 21.6992L100.484 18.9945L94.5725 18.9762L88.6614 18.9578V16.9168V14.8757L93.8179 14.8573L98.9744 14.8389V12.1521V9.46527L93.8179 9.44686L88.6614 9.42852V7.35115V5.27385H97.6089H106.556V14.8389V24.4039H109.359H112.162V14.8389V5.27385H116.438H120.714V2.73033V0.18682H101.885H83.0557V12.2954ZM72.5734 5.42101C74.2104 5.58724 75.1194 5.89318 75.754 6.49151C76.3974 7.09816 76.678 8.05072 76.5193 9.08912C76.2866 10.61 75.1941 11.4372 72.9942 11.7579C72.0808 11.8911 70.3379 11.9677 69.6609 11.9044L69.1134 11.8532V8.5994V5.3455H70.4712C71.2181 5.3455 72.164 5.37953 72.5734 5.42101ZM30.0893 39.88V51.9885H32.8769H35.6646L36.2784 51.2183C36.616 50.7947 38.0999 48.9489 39.576 47.1165C41.0521 45.284 43.5036 42.2372 45.0237 40.3457C46.5437 38.4542 47.864 36.8267 47.9577 36.7291L48.1281 36.5516V44.2701V51.9885H50.9309H53.7337V48.4159V44.8432L55.5484 44.8022C57.9112 44.7488 59.2914 44.5571 60.8558 44.0651C64.2224 43.0063 66.0612 40.9339 66.5307 37.6693C66.6562 36.7968 66.578 34.6516 66.3915 33.8483C66.0815 32.5133 65.5577 31.5418 64.6576 30.6323C63.7158 29.6808 62.7949 29.1334 61.2893 28.6305C59.1559 27.9179 57.3281 27.754 51.8685 27.7855L48.0988 27.8072L46.9909 29.2044C46.3815 29.9728 43.6033 33.4791 40.817 36.9961C38.0308 40.5131 35.7223 43.3907 35.6871 43.3907C35.6501 43.3907 35.6231 40.1001 35.6231 35.5811V27.7714H32.8562H30.0893V39.88ZM67.4604 39.88V51.9885H70.227H72.9936L73.0118 44.3759L73.0302 36.7633L74.1082 38.0592C74.7011 38.7719 76.3504 40.761 77.7734 42.4793C79.1964 44.1976 80.3934 45.6054 80.4332 45.6077C80.4732 45.61 82.1226 43.8001 84.0985 41.5858L87.6911 37.5597L87.7095 44.7799L87.7278 52L92.1293 51.9688C96.8672 51.9352 97.2165 51.9122 99.0046 51.5139C101.35 50.9916 103.129 49.9736 104.231 48.5246C104.415 48.2821 104.723 47.7585 104.914 47.361C105.484 46.1794 105.694 45.1304 105.694 43.4751C105.692 40.4724 104.743 38.4585 102.693 37.1083C100.861 35.9024 98.4846 35.3311 94.9318 35.2429L93.3327 35.2031V31.4873V27.7714H90.5422H87.7517L87.1781 28.5775C85.0027 31.6343 80.9336 37.2873 80.832 37.3938C80.7145 37.5167 80.6491 37.4469 79.4234 35.8892C78.7165 34.9907 77.4886 33.4334 76.6948 32.4286C75.9011 31.4237 74.752 29.9648 74.1413 29.1865L73.031 27.7714H70.2457H67.4604V39.88ZM106.556 39.8791V51.9885H109.359H112.162L112.144 39.8979L112.126 27.8072L109.341 27.7885L106.556 27.7698V39.8791ZM11.8538 38.7154C11.8421 42.6777 11.8129 44.5086 11.7612 44.5258C11.6183 44.5733 10.7196 44.3897 10.027 44.1716C8.42533 43.6673 7.318 42.7574 6.617 41.3697C6.15978 40.4646 6.04939 39.9222 6.05126 38.5903C6.05284 37.4427 6.05981 37.3882 6.2885 36.7275C6.90785 34.9381 8.12744 33.7432 9.87009 33.2183C10.4978 33.0293 10.9549 32.9496 11.4756 32.9385L11.8709 32.9301L11.8538 38.7154ZM19.1295 33.142C21.0777 33.6351 22.4138 34.9294 23.0186 36.9092C23.1951 37.487 23.2147 37.6592 23.2141 38.6261C23.2135 39.4987 23.1843 39.8087 23.059 40.274C22.6019 41.9704 21.424 43.3013 19.7825 43.9762C19.2171 44.2086 18.3876 44.4325 17.8179 44.5065L17.4406 44.5556V38.7322V32.9089L17.9976 32.9527C18.3039 32.9767 18.8133 33.0619 19.1295 33.142ZM57.0092 33.0062C58.6765 33.1677 59.654 33.5216 60.2608 34.1835C60.7675 34.7363 60.8845 35.1127 60.8845 36.1901C60.8845 36.9862 60.8692 37.0829 60.6776 37.4965C60.217 38.4907 59.1887 39.0835 57.4708 39.3451C56.6423 39.4713 54.542 39.5621 54.0734 39.4921L53.7337 39.4413V36.1857V32.9301H54.9789C55.6638 32.9301 56.5774 32.9643 57.0092 33.0062ZM96.8543 40.4246C99.0469 40.7446 99.9637 41.5004 100.131 43.1259C100.299 44.7612 99.4281 45.9336 97.7029 46.3954C96.8535 46.6228 96.0389 46.7086 94.6623 46.7157L93.3687 46.7224L93.3499 43.5699C93.3396 41.836 93.3486 40.3721 93.3699 40.3168C93.4021 40.233 93.6328 40.2245 94.7541 40.2653C95.4942 40.2923 96.4392 40.364 96.8543 40.4246Z" fill="#7D7D7D"/>
</svg>
