<svg width="201" height="56" viewBox="0 0 201 56" fill="none" xmlns="http://www.w3.org/2000/svg">
<path fill-rule="evenodd" clip-rule="evenodd" d="M0 28V56H29.7646H59.5288L52.7552 42.2877C47.914 32.4877 46.0592 28.2987 46.2545 27.6048C46.4052 27.0708 48.527 22.639 50.9699 17.7561C53.4124 12.8732 56.3285 6.88072 57.4494 4.43902L59.4878 0H29.7439H0V28ZM49.6167 6.30205C49.6167 6.51285 47.384 11.2387 44.6551 16.8046C41.738 22.7538 39.6934 27.4755 39.6934 28.2627C39.6934 29.0563 41.7132 33.6756 44.6551 39.6098C47.384 45.1141 49.6167 49.7225 49.6167 49.8496C49.6167 49.977 39.7723 50.0813 27.7403 50.0813H5.8638V28V5.9187H27.7403C39.7723 5.9187 49.6167 6.09125 49.6167 6.30205ZM12.6297 27.7724V42.7967H16.4637H20.2978V38.0163C20.2978 34.0503 20.4141 33.2358 20.9807 33.2358C21.3564 33.2358 23.2233 35.387 25.1291 38.0163L28.5937 42.7967H33.2779H37.9622L35.8842 40.1789C29.8747 32.6093 29.9257 32.6908 30.8927 32.1435C32.7371 31.0996 34.6568 28.8022 35.1336 27.068C36.4498 22.2844 35.2825 17.0727 32.4128 14.9206C29.8981 13.0348 28.2906 12.748 20.2305 12.748H12.6297V27.7724ZM116.879 17.3705C113.478 18.3575 111.863 20.3945 111.863 23.6957C111.863 27.1163 114.196 29.5621 118.348 30.495C121.267 31.1506 122.238 31.721 122.238 32.7805C122.238 34.654 119.391 35.1275 116.64 33.712L114.911 32.8219L113.189 34.2811L111.467 35.7398L112.417 36.7601C114.257 38.7379 117.086 39.7536 120.01 39.4859C125.877 38.9491 129.008 34.6654 127.028 29.8831C126.185 27.8457 124.493 26.6023 121.668 25.9439C117.749 25.0306 116.275 23.5009 117.817 21.9447C118.565 21.1899 120.981 21.2595 122.039 22.0667C123.238 22.9832 123.859 22.9281 125.413 21.7681C127.115 20.4978 127.088 20.0425 125.233 18.7682C122.557 16.9293 119.919 16.4877 116.879 17.3705ZM172.429 17.2658C168.949 18.1522 167.249 20.2756 167.275 23.7026C167.304 27.4605 169.289 29.5156 173.842 30.5013C175.957 30.9589 177.718 32.012 177.718 32.8187C177.718 33.6332 176.203 34.6016 174.928 34.6016C174.173 34.6016 172.765 34.1532 171.799 33.605L170.043 32.6088L168.47 34.1477L166.897 35.6861L167.91 36.7975C170.143 39.2492 174.374 40.2349 177.764 39.0935C179.869 38.3846 182.149 36.1036 182.675 34.1809C183.132 32.51 182.604 29.4806 181.651 28.3082C180.866 27.3426 178.105 26.0874 175.979 25.73C174.127 25.4185 172.305 24.1902 172.305 23.2518C172.305 22.4155 173.747 21.3984 174.931 21.4002C175.596 21.4011 176.761 21.7845 177.521 22.2525C178.747 23.0064 179.003 23.0278 179.777 22.4414C180.257 22.0777 181.042 21.4949 181.521 21.1471C182.382 20.522 182.382 20.5024 181.522 19.544C179.692 17.5034 175.562 16.4681 172.429 17.2658ZM72.6209 28.2276V39.1545H75.3272H78.0336V35.7398C78.0336 31.309 78.578 31.3076 81.7106 35.7326L84.1229 39.1394L87.4197 39.1472C91.1883 39.1554 91.1771 39.4422 87.5848 34.9294C86.233 33.2317 85.2055 31.7975 85.3015 31.7424C85.3976 31.6874 85.8821 31.4183 86.3782 31.1442C88.2389 30.1171 89.3101 27.8188 89.3083 24.8594C89.3065 21.3501 88.2172 19.4033 85.5794 18.195C84.0359 17.4875 82.6168 17.319 78.1464 17.3108L72.6209 17.3008V28.2276ZM92.0192 24.9268C92.0205 29.1214 92.2276 33.3009 92.4788 34.2155C93.0616 36.3322 95.9524 39.0042 98.1 39.4108C101.234 40.0045 104.512 39.4222 106.342 37.9461C109.341 35.5277 109.607 34.5074 109.607 25.3821L109.608 17.3008H106.902H104.195V25.0407C104.195 32.1736 104.124 32.852 103.293 33.6911C102.735 34.2547 101.79 34.6016 100.812 34.6016C99.8347 34.6016 98.8898 34.2547 98.3313 33.6911C97.5 32.852 97.4292 32.1736 97.4292 25.0407V17.3008H94.7229H92.0165L92.0192 24.9268ZM129.906 28.2276V39.1545H135.889C142.714 39.1545 144.344 38.6241 145.771 35.9393C147.212 33.2258 146.504 29.3973 144.345 28.2308C143.465 27.7555 143.465 27.7441 144.338 26.8632C146.988 24.1888 145.453 19.2963 141.491 17.7852C140.793 17.5189 137.9 17.3008 135.064 17.3008H129.906V28.2276ZM154.031 17.8699C153.434 19.5349 152.095 23.378 149.51 30.8455L146.633 39.1545H149.508H152.383L153.023 37.2195L153.662 35.2846H156.744H159.826L160.465 37.2195L161.104 39.1545H164.046C166.668 39.1545 166.955 39.0675 166.676 38.3577C166.503 37.9193 164.876 33.361 163.059 28.2276C161.242 23.0943 159.614 18.5355 159.442 18.0976C159.197 17.4756 158.591 17.3008 156.682 17.3008C155.133 17.3008 154.16 17.5098 154.031 17.8699ZM185.386 28.2276V39.1545H192.829H200.271V36.6504V34.1463H195.535H190.799V32.3252V30.5041H195.084H199.369V28.2276V25.9512H195.084H190.799V24.1301V22.3089H195.535H200.271V19.8049V17.3008H192.829H185.386V28.2276ZM27.3095 20.695C28.3916 21.7867 28.6992 23.3124 28.1367 24.7925C27.6762 26.004 25.4638 26.8618 22.8011 26.8618H20.2978V23.2195V19.5772H23.2499C25.7836 19.5772 26.3596 19.7357 27.3095 20.695ZM140.19 22.4C140.488 22.7005 140.731 23.3766 140.731 23.9024C140.731 25.3871 139.837 25.9512 137.483 25.9512H135.318V23.9024V21.8537H137.483C138.674 21.8537 139.892 22.0995 140.19 22.4ZM83.4463 23.2195C84.6421 24.4265 84.5839 25.2997 83.2158 26.6806C82.2975 27.6075 81.7201 27.7979 80.1712 27.6845L78.2591 27.5447L78.1238 24.9268L77.9885 22.3089H80.2663C81.9429 22.3089 82.7824 22.5493 83.4463 23.2195ZM157.366 25.3821C158.563 30.1212 158.573 30.0488 156.723 30.0488C155.084 30.0488 155.058 30.0206 155.341 28.5937C155.808 26.2353 156.538 23.6748 156.744 23.6748C156.849 23.6748 157.129 24.4433 157.366 25.3821ZM140.917 31.5148C141.581 33.4279 140.283 34.6016 137.504 34.6016H135.318V32.3024V30.0033L137.903 30.1398C140.257 30.2641 140.526 30.3871 140.917 31.5148Z" fill="#7D7D7D"/>
</svg>
