<svg width="190" height="114" viewBox="0 0 190 114" fill="none" xmlns="http://www.w3.org/2000/svg">
<path fill-rule="evenodd" clip-rule="evenodd" d="M171.473 42.4612C169.082 43.0855 166.91 44.4459 165.011 46.5093C162.049 49.728 160.819 53.3855 161.074 58.2185C161.305 62.6147 162.873 65.9825 166.033 68.8701C168.608 71.2239 171.785 72.3664 175.756 72.3664C182.762 72.3664 188.177 67.8535 189.69 60.7526C190.236 58.1911 190.044 54.3536 189.242 51.7967C187.803 47.2073 184.016 43.5773 179.42 42.3799C177.357 41.8427 173.7 41.8801 171.473 42.4612ZM114.375 42.4165C114.276 42.515 114.196 49.2335 114.196 57.3467V72.0974H116.079H117.962V66.0446V59.9919L120.719 59.9897C124.341 59.9873 126.592 59.5994 128.629 58.6272C131.368 57.3195 132.691 55.236 132.949 51.8187C133.319 46.9332 130.805 43.6852 125.839 42.6331C123.964 42.2357 114.73 42.0611 114.375 42.4165ZM137.6 57.1414V72.0974H139.348H141.097V65.6411V59.1848H143.518C144.85 59.1848 145.942 59.2758 145.946 59.3866C145.949 59.4974 147.863 62.3726 150.197 65.7756L154.442 71.9629L156.378 72.042C157.442 72.0853 158.314 72.0522 158.314 71.968C158.314 71.8841 156.377 69.0035 154.011 65.5671C151.645 62.1308 149.701 59.2042 149.691 59.0635C149.682 58.9228 150.211 58.6511 150.868 58.4596C152.514 57.9797 154.521 56.5711 155.394 55.2842C157.64 51.9732 156.913 46.6994 153.901 44.4454C151.54 42.6791 150.265 42.413 143.585 42.2928L137.6 42.1851V57.1414ZM32.4159 57.3017V72.0974H35.644H38.8722V66.7172V61.3369H40.695C45.9816 61.3369 49.3669 60.2924 51.3963 58.0353C53.0023 56.2488 53.4973 54.5331 53.3456 51.2775C53.1664 47.4357 51.7786 45.1803 48.7105 43.7443C46.4863 42.7033 44.852 42.5061 38.4555 42.5061H32.4159V57.3017ZM57.0754 42.6855C56.9767 42.784 56.896 49.3904 56.896 57.3658V71.8669L64.2266 71.7727C71.0831 71.6847 71.6553 71.6393 73.0762 71.0719C74.8934 70.3464 76.8954 68.6557 77.6207 67.2342C78.7755 64.9705 78.7936 60.698 77.6575 58.4714C75.9966 55.2156 72.6375 53.8046 66.5468 53.8046C64.9553 53.8046 63.5858 53.6956 63.5035 53.5627C63.4214 53.4296 63.4327 52.0374 63.5285 50.4691L63.7031 47.6173H69.8494H75.9958V45.0617V42.5061H66.6253C61.4713 42.5061 57.1739 42.5868 57.0754 42.6855ZM81.9141 57.1672V71.8284H85.1423H88.3704V65.3562C88.3704 61.3835 88.468 58.9443 88.6233 59.0404C88.7626 59.1265 91.0202 62.0388 93.6406 65.5125L98.4048 71.8284H102.13C104.18 71.8284 105.856 71.7598 105.856 71.6759C105.856 71.5919 103.202 68.1125 99.9586 63.9442L94.0611 56.365L95.0438 55.1521C95.584 54.4849 97.9596 51.6008 100.323 48.7431C102.686 45.8851 104.784 43.3128 104.984 43.0266C105.339 42.5201 105.257 42.5064 101.904 42.5131L98.4584 42.5201L93.4816 48.7633L88.5049 55.0065L88.4328 48.7563L88.3604 42.5061H85.1374H81.9141V57.1672ZM179.297 45.4526C181.248 46.1824 182.694 47.2399 183.868 48.7942C185.464 50.9076 186.09 52.862 186.233 56.1775C186.427 60.6674 185.53 63.7527 183.288 66.2991C180.28 69.7167 174.162 70.4468 170.074 67.8769C166.58 65.6807 164.767 61.9777 164.773 57.051C164.778 53.1721 165.704 50.3846 167.769 48.0397C170.317 45.144 175.414 44.0004 179.297 45.4526ZM13.2673 58.437L0.171814 71.6939L13.2426 71.7638C20.4314 71.802 26.3558 71.791 26.408 71.7388C26.4599 71.6866 26.4712 65.6895 26.433 58.412L26.3631 45.1801L13.2673 58.437ZM125.848 45.5225C128.325 46.2644 129.726 48.6527 129.454 51.6719C129.262 53.8119 128.449 55.2403 126.907 56.1469C125.697 56.8581 125.424 56.9031 121.795 56.9908L117.962 57.0833V51.1398V45.1962H121.36C123.246 45.1962 125.244 45.3415 125.848 45.5225ZM149.606 45.5021C153.35 46.445 154.521 51.8416 151.589 54.6393C150.246 55.9204 148.903 56.2257 144.609 56.2257H141.097V50.711V45.1962H144.744C146.75 45.1962 148.938 45.3339 149.606 45.5021ZM45.0403 48.0886C46.3768 48.77 47.0119 49.7866 47.1513 51.4674C47.3218 53.5251 46.5535 55.1946 45.0928 55.9397C44.2188 56.3855 43.5003 56.4947 41.4385 56.4947H38.8722V52.056V47.6173L41.495 47.6178C43.4604 47.6181 44.3493 47.7359 45.0403 48.0886ZM70.1766 59.0501C71.5959 59.7255 72.2278 60.8441 72.2278 62.682C72.2278 65.7544 70.752 66.7887 66.3152 66.8272L63.4868 66.8517L63.4117 62.9634C63.3706 60.8247 63.4031 58.9024 63.4841 58.6915C63.7063 58.1123 68.7774 58.3843 70.1766 59.0501Z" fill="#E5E5E5"/>
<path d="M25.2871 43.0762L0 68.7668V43.0762H25.2871Z" fill="#E5E5E5"/>
</svg>
