<svg width="190" height="31" viewBox="0 0 190 31" fill="none" xmlns="http://www.w3.org/2000/svg">
<path fill-rule="evenodd" clip-rule="evenodd" d="M171.473 0.461157C169.082 1.08553 166.91 2.44593 165.011 4.50925C162.049 7.72798 160.819 11.3855 161.074 16.2185C161.305 20.6147 162.873 23.9825 166.033 26.8701C168.608 29.2239 171.785 30.3664 175.756 30.3664C182.762 30.3664 188.177 25.8535 189.69 18.7526C190.236 16.1911 190.044 12.3536 189.242 9.79669C187.803 5.20734 184.016 1.57729 179.42 0.379915C177.357 -0.157303 173.7 -0.119909 171.473 0.461157ZM114.375 0.416501C114.276 0.514959 114.196 7.23354 114.196 15.3467V30.0974H116.079H117.962V24.0446V17.9919L120.719 17.9897C124.341 17.9873 126.592 17.5994 128.629 16.6272C131.369 15.3195 132.691 13.236 132.949 9.81874C133.319 4.93321 130.805 1.68516 125.84 0.633055C123.964 0.235725 114.73 0.0611356 114.375 0.416501ZM137.6 15.1414V30.0974H139.348H141.097V23.6411V17.1848H143.518C144.85 17.1848 145.942 17.2758 145.946 17.3866C145.949 17.4974 147.863 20.3726 150.198 23.7756L154.442 29.9629L156.378 30.042C157.443 30.0853 158.314 30.0522 158.314 29.968C158.314 29.8841 156.378 27.0035 154.011 23.5671C151.645 20.1308 149.701 17.2042 149.692 17.0635C149.682 16.9228 150.211 16.6511 150.868 16.4596C152.514 15.9797 154.521 14.5711 155.394 13.2842C157.64 9.97316 156.913 4.69944 153.901 2.44539C151.54 0.679056 150.265 0.413004 143.585 0.292755L137.6 0.18515V15.1414ZM32.4159 15.3017V30.0974H35.6441H38.8722V24.7172V19.3369H40.6951C45.9817 19.3369 49.3669 18.2924 51.3964 16.0353C53.0024 14.2488 53.4973 12.5331 53.3456 9.27749C53.1665 5.43573 51.7786 3.18033 48.7105 1.74434C46.4864 0.703268 44.8521 0.506082 38.4555 0.506082H32.4159V15.3017ZM57.0755 0.685513C56.9767 0.783971 56.896 7.39037 56.896 15.3658V29.8669L64.2266 29.7727C71.0832 29.6847 71.6554 29.6393 73.0763 29.0719C74.8935 28.3464 76.8955 26.6557 77.6207 25.2342C78.7756 22.9705 78.7936 18.698 77.6576 16.4714C75.9967 13.2156 72.6376 11.8046 66.5468 11.8046C64.9554 11.8046 63.5858 11.6956 63.5035 11.5627C63.4215 11.4296 63.4328 10.0374 63.5285 8.46911L63.7031 5.61731H69.8495H75.9959V3.0617V0.506082H66.6254C61.4714 0.506082 57.1739 0.586785 57.0755 0.685513ZM81.9142 15.1672V29.8284H85.1423H88.3705V23.3562C88.3705 19.3835 88.4681 16.9443 88.6233 17.0404C88.7627 17.1265 91.0202 20.0388 93.6407 23.5125L98.4049 29.8284H102.13C104.18 29.8284 105.856 29.7598 105.856 29.6759C105.856 29.5919 103.202 26.1125 99.9587 21.9442L94.0611 14.365L95.0438 13.1521C95.584 12.4849 97.9597 9.60084 100.323 6.74313C102.686 3.88514 104.784 1.31285 104.984 1.02662C105.339 0.520071 105.257 0.506351 101.904 0.513076L98.4584 0.52007L93.4817 6.7633L88.505 13.0065L88.4329 6.75631L88.3605 0.506082H85.1375H81.9142V15.1672ZM179.297 3.45257C181.248 4.1824 182.694 5.23989 183.868 6.79424C185.464 8.9076 186.09 10.862 186.233 14.1775C186.428 18.6674 185.53 21.7527 183.288 24.2991C180.28 27.7167 174.162 28.4468 170.074 25.8769C166.58 23.6807 164.767 19.9777 164.773 15.051C164.778 11.1721 165.704 8.38464 167.769 6.03966C170.317 3.14401 175.414 2.00044 179.297 3.45257ZM13.2674 16.437L0.171875 29.6939L13.2426 29.7638C20.4314 29.802 26.3559 29.791 26.4081 29.7388C26.46 29.6866 26.4713 23.6895 26.4331 16.412L26.3632 3.18006L13.2674 16.437ZM125.848 3.52251C128.325 4.26445 129.726 6.65274 129.455 9.67186C129.262 11.8119 128.449 13.2403 126.907 14.1469C125.697 14.8581 125.424 14.9031 121.795 14.9908L117.962 15.0833V9.13976V3.1962H121.36C123.246 3.1962 125.244 3.34147 125.848 3.52251ZM149.606 3.50207C153.35 4.44496 154.521 9.84161 151.589 12.6393C150.246 13.9204 148.903 14.2257 144.609 14.2257H141.097V8.71095V3.1962H144.744C146.75 3.1962 148.938 3.33394 149.606 3.50207ZM45.0404 6.08862C46.3769 6.77003 47.012 7.78662 47.1513 9.46741C47.3219 11.5251 46.5536 13.1946 45.0929 13.9397C44.2188 14.3855 43.5003 14.4947 41.4386 14.4947H38.8722V10.056V5.61731L41.4951 5.61785C43.4605 5.61812 44.3493 5.73595 45.0404 6.08862ZM70.1766 17.0501C71.5959 17.7255 72.2278 18.8441 72.2278 20.682C72.2278 23.7544 70.752 24.7887 66.3152 24.8272L63.4868 24.8517L63.4118 20.9634C63.3706 18.8247 63.4032 16.9024 63.4841 16.6915C63.7063 16.1123 68.7775 16.3843 70.1766 17.0501Z" fill="#7D7D7D"/>
<path d="M25.2871 1.07617L0 26.7668V1.07617H25.2871Z" fill="#7D7D7D"/>
</svg>
