<svg width="16" height="16" viewBox="0 0 16 16" fill="none" xmlns="http://www.w3.org/2000/svg">
<path d="M1.33334 3.3335L6.00001 1.3335L10 3.3335L14.202 1.53283C14.2527 1.51109 14.3081 1.50228 14.363 1.50719C14.418 1.51211 14.4709 1.53059 14.517 1.56099C14.563 1.59139 14.6008 1.63275 14.6269 1.68136C14.6531 1.72997 14.6667 1.78431 14.6667 1.8395V12.6668L10 14.6668L6.00001 12.6668L1.79801 14.4675C1.74729 14.4892 1.69196 14.4981 1.63699 14.4931C1.58202 14.4882 1.52913 14.4697 1.48307 14.4393C1.43701 14.4089 1.39921 14.3676 1.37308 14.319C1.34695 14.2704 1.33329 14.216 1.33334 14.1608V3.3335ZM10 13.1762V4.78416L9.95668 4.80283L6.00001 2.82416V11.2162L6.04334 11.1975L10 13.1762Z" fill="white"/>
</svg>
