<svg width="14" height="14" viewBox="0 0 14 14" fill="none" xmlns="http://www.w3.org/2000/svg">
<path d="M7.00016 13.6668C3.31816 13.6668 0.333496 10.6822 0.333496 7.00016C0.333496 3.31816 3.31816 0.333496 7.00016 0.333496C10.6822 0.333496 13.6668 3.31816 13.6668 7.00016C13.6668 10.6822 10.6822 13.6668 7.00016 13.6668ZM4.92683 7.78016L4.9355 7.7755L5.5155 9.68883C5.59016 9.89616 5.69283 9.9335 5.8175 9.91616C5.94283 9.8995 6.00883 9.83216 6.09083 9.7535L6.88283 8.98816L8.58283 10.2468C8.8935 10.4182 9.11683 10.3295 9.19416 9.95883L10.2988 4.74416C10.4208 4.25883 10.2075 4.06416 9.83083 4.21883L3.34216 6.7255C2.8995 6.90283 2.90216 7.15083 3.26216 7.26083L4.92683 7.78083V7.78016Z" fill="#26A4E3"/>
</svg>
