<svg width="20" height="20" viewBox="0 0 20 20" fill="none" xmlns="http://www.w3.org/2000/svg">
<rect width="20" height="20" fill="#B62C2C"/>
<path fill-rule="evenodd" clip-rule="evenodd" d="M15.1891 2.5H4.81094C3.535 2.5 2.5 3.535 2.5 4.81094V15.1881C2.5 16.465 3.535 17.5 4.81094 17.5H15.1881C16.465 17.5 17.5 16.465 17.5 15.1891V4.81094C17.5 3.535 16.465 2.5 15.1891 2.5ZM14.8141 13.0609H13.5522C13.1406 13.0609 13.0891 12.7609 12.3334 12.0391C11.6959 11.4109 11.4231 11.3612 11.2694 11.3612C11.1316 11.3612 11.0378 11.4644 11.0378 11.7044V12.6653C11.0378 12.9484 10.8747 13.06 10.2053 13.06C9.10656 13.06 7.88781 12.3822 6.96062 11.1288C5.57875 9.26594 5.22625 7.87563 5.22625 7.57469C5.22625 7.41156 5.34625 7.3 5.50938 7.3H6.63344C6.925 7.3 7.03656 7.38625 7.13969 7.69469C7.65438 9.205 8.57312 10.5362 8.95937 10.5362C9.10562 10.5362 9.1225 10.4163 9.1225 10.1069V8.57125C9.1225 7.82687 8.70156 7.76406 8.70156 7.48938C8.70156 7.38063 8.78781 7.30094 8.92469 7.30094H10.7275C10.9675 7.30094 11.0022 7.38719 11.0022 7.67875V9.76469C11.0022 10.0028 11.0509 10.0909 11.1569 10.0909C11.2881 10.0909 11.4091 10.0113 11.6462 9.74781C12.3859 8.93125 12.9944 7.63656 12.9944 7.63656C13.0712 7.47344 13.1659 7.36188 13.4237 7.36188C13.8016 7.36188 14.5478 7.36188 14.5478 7.36188C14.7709 7.36188 14.8656 7.48188 14.8225 7.69656C14.6941 8.2975 13.3975 10.1256 13.3975 10.1256C13.2775 10.3141 13.2259 10.4172 13.3975 10.5981C13.5175 10.7528 13.8953 11.0875 14.1269 11.3959C14.6931 11.9969 15.0625 12.5031 15.0625 12.7863C15.0634 13 14.9425 13.0609 14.8141 13.0609Z" fill="white"/>
</svg>
