<svg width="17" height="16" viewBox="0 0 17 16" fill="none" xmlns="http://www.w3.org/2000/svg">
<path fill-rule="evenodd" clip-rule="evenodd" d="M13.0897 2H4.78717C3.76642 2 2.93842 2.828 2.93842 3.84875V12.1505C2.93842 13.172 3.76642 14 4.78717 14H13.0889C14.1104 14 14.9384 13.172 14.9384 12.1512V3.84875C14.9384 2.828 14.1104 2 13.0897 2ZM12.7897 10.4488H11.7802C11.4509 10.4488 11.4097 10.2088 10.8052 9.63125C10.2952 9.12875 10.0769 9.089 9.95392 9.089C9.84367 9.089 9.76867 9.1715 9.76867 9.3635V10.1323C9.76867 10.3588 9.63817 10.448 9.10267 10.448C8.22367 10.448 7.24867 9.90575 6.50692 8.903C5.40142 7.41275 5.11942 6.3005 5.11942 6.05975C5.11942 5.92925 5.21542 5.84 5.34592 5.84H6.24517C6.47842 5.84 6.56767 5.909 6.65017 6.15575C7.06192 7.364 7.79692 8.429 8.10592 8.429C8.22292 8.429 8.23642 8.333 8.23642 8.0855V6.857C8.23642 6.2615 7.89967 6.21125 7.89967 5.9915C7.89967 5.9045 7.96867 5.84075 8.07817 5.84075H9.52042C9.71242 5.84075 9.74017 5.90975 9.74017 6.143V7.81175C9.74017 8.00225 9.77917 8.07275 9.86392 8.07275C9.96892 8.07275 10.0657 8.009 10.2554 7.79825C10.8472 7.145 11.3339 6.10925 11.3339 6.10925C11.3954 5.97875 11.4712 5.8895 11.6774 5.8895C11.9797 5.8895 12.5767 5.8895 12.5767 5.8895C12.7552 5.8895 12.8309 5.9855 12.7964 6.15725C12.6937 6.638 11.6564 8.1005 11.6564 8.1005C11.5604 8.25125 11.5192 8.33375 11.6564 8.4785C11.7524 8.60225 12.0547 8.87 12.2399 9.11675C12.6929 9.5975 12.9884 10.0025 12.9884 10.229C12.9892 10.4 12.8924 10.4488 12.7897 10.4488Z" fill="#F05A46"/>
</svg>
