<svg width="14" height="14" viewBox="0 0 14 14" fill="none" xmlns="http://www.w3.org/2000/svg">
<path d="M0.336172 13.6668L1.23751 10.3548C0.643597 9.33673 0.331569 8.17882 0.333505 7.00016C0.333505 3.31816 3.31817 0.333496 7.00017 0.333496C10.6822 0.333496 13.6668 3.31816 13.6668 7.00016C13.6668 10.6822 10.6822 13.6668 7.00017 13.6668C5.82202 13.6687 4.66461 13.3569 3.64684 12.7635L0.336172 13.6668ZM4.59417 3.87216C4.50808 3.87751 4.42395 3.90018 4.34684 3.93883C4.27452 3.97978 4.2085 4.03098 4.15084 4.09083C4.07084 4.16616 4.02551 4.2315 3.97684 4.29483C3.73045 4.61549 3.59791 5.00911 3.60017 5.4135C3.60151 5.74016 3.68684 6.05816 3.82017 6.3555C4.09284 6.95683 4.54151 7.5935 5.13417 8.1835C5.27684 8.3255 5.41617 8.46816 5.56617 8.60083C6.30176 9.24847 7.17834 9.71552 8.12617 9.96483L8.50551 10.0228C8.62884 10.0295 8.75217 10.0202 8.87617 10.0142C9.07033 10.0041 9.25991 9.95157 9.43151 9.86016C9.54217 9.8015 9.59417 9.77216 9.68684 9.7135C9.68684 9.7135 9.71551 9.69483 9.77017 9.6535C9.86017 9.58683 9.91551 9.5395 9.99017 9.4615C10.0455 9.40416 10.0935 9.33683 10.1302 9.26016C10.1822 9.1515 10.2342 8.94416 10.2555 8.7715C10.2715 8.6395 10.2668 8.5675 10.2648 8.52283C10.2622 8.4515 10.2028 8.3775 10.1382 8.34616L9.75017 8.17216C9.75017 8.17216 9.17017 7.9195 8.81617 7.75816C8.77885 7.74189 8.73885 7.73263 8.69817 7.73083C8.65256 7.72615 8.60647 7.73128 8.56301 7.74588C8.51954 7.76048 8.4797 7.78422 8.44617 7.8155V7.81416C8.44284 7.81416 8.39817 7.85216 7.91617 8.43616C7.88851 8.47334 7.8504 8.50143 7.80671 8.51687C7.76301 8.5323 7.71571 8.53438 7.67084 8.52283C7.6274 8.51121 7.58485 8.49651 7.5435 8.47883C7.46084 8.44416 7.43217 8.43083 7.3755 8.40616L7.37217 8.40483C6.99078 8.23831 6.63765 8.01339 6.32551 7.73816C6.24151 7.66483 6.16351 7.58483 6.08351 7.5075C5.82122 7.25632 5.59265 6.97217 5.4035 6.66216L5.36417 6.59883C5.33592 6.55627 5.31308 6.51036 5.29617 6.46216C5.27084 6.36416 5.33684 6.2855 5.33684 6.2855C5.33684 6.2855 5.49884 6.10816 5.57417 6.01216C5.6369 5.93238 5.69542 5.84938 5.74951 5.7635C5.82817 5.63683 5.85284 5.50683 5.81151 5.40616C5.62484 4.95016 5.43151 4.49616 5.23284 4.0455C5.19351 3.95616 5.07684 3.89216 4.97084 3.8795C4.93484 3.8755 4.89884 3.8715 4.86284 3.86883C4.77331 3.86438 4.68359 3.86527 4.59417 3.8715V3.87216Z" fill="white"/>
</svg>
