<svg width="17" height="16" viewBox="0 0 17 16" fill="none" xmlns="http://www.w3.org/2000/svg">
<path d="M15.3004 4.33184C15.6051 5.51984 15.6051 7.99984 15.6051 7.99984C15.6051 7.99984 15.6051 10.4798 15.3004 11.6678C15.1311 12.3245 14.6357 12.8412 14.0084 13.0158C12.8691 13.3332 8.9384 13.3332 8.9384 13.3332C8.9384 13.3332 5.00973 13.3332 3.8684 13.0158C3.2384 12.8385 2.74373 12.3225 2.5764 11.6678C2.27173 10.4798 2.27173 7.99984 2.27173 7.99984C2.27173 7.99984 2.27173 5.51984 2.5764 4.33184C2.74573 3.67517 3.24106 3.1585 3.8684 2.98384C5.00973 2.6665 8.9384 2.6665 8.9384 2.6665C8.9384 2.6665 12.8691 2.6665 14.0084 2.98384C14.6384 3.16117 15.1331 3.67717 15.3004 4.33184V4.33184ZM7.60506 10.3332L11.6051 7.99984L7.60506 5.6665V10.3332Z" fill="#F05A46"/>
</svg>
