<svg width="100" height="52" fill="none" xmlns="http://www.w3.org/2000/svg"><path fill-rule="evenodd" clip-rule="evenodd" d="M1.99 19.845c-1.99 0-2.24-1.022-1.814-2.592C2.596 10.054 11.058.005 21.261.005h36.02c2.924 0 4.204.303 3.675 3.769l-4.262 27.279C53.62 44.378 36.898 51.35 32.817 51.296c-1.15-.018-1.964-.946-1.774-2.1l4.48-29.346H1.99v-.005z" fill="#0060AA"/><path fill-rule="evenodd" clip-rule="evenodd" d="M67.883 0h29.935c2.321 0 2.443.923 1.94 2.61-2.37 7.702-10.903 17.23-21.106 17.23H64.588c-1.444 0-2.326-.474-2.09-2l2.32-15.193C65.183.294 66.246 0 67.884 0z" fill="#B62C2C"/></svg>