<svg width="155" height="122" fill="none" xmlns="http://www.w3.org/2000/svg"><path d="M153.736 43.131l-36.919 2.432-30.735-17.206c-1.686-.935-3.748-.935-5.434-.186L52.911 41.822l-.188-3.553L1 44.815v25.994c0 1.87.75 3.553 2.436 4.676l63.718 44.508c1.874 1.31 4.31 1.31 6.372.187l77.399-45.257c1.874-1.122 2.998-3.179 2.811-5.236V43.131z" fill="#fff" stroke="#323232" stroke-width=".7" stroke-miterlimit="10"/><path d="M67.342 93.438L3.624 48.928c-3.561-2.617-3.186-8.04.75-9.91l76.46-37.404c1.687-.935 3.748-.748 5.435.187l64.655 36.654c3.935 2.244 3.935 7.855 0 10.099l-77.399 45.07c-1.874 1.122-4.31 1.122-6.184-.187z" fill="#fff" stroke="#323232" stroke-width=".7" stroke-miterlimit="10"/><path d="M57.035 97.739c0-4.675-2.437-9.912-5.623-11.782-1.124-.56-2.061-.748-2.998-.374l-3.373 1.122.937 2.992c0 .374-.188.935-.188 1.496 0 3.928 1.874 8.416 4.31 10.847l.75 2.431 2.811-.935c.375 0 .562-.187.75-.187h.187c1.5-1.122 2.437-2.992 2.437-5.61z" fill="#F05A46" stroke="#323232" stroke-width=".7" stroke-miterlimit="10" stroke-linecap="round" stroke-linejoin="round"/><path d="M68.466 90.072L5.498 46.123c-1.874-1.31-1.687-4.115.375-5.237L81.585 3.672c1.124-.561 2.248-.561 3.185.187l64.655 36.467c2.249 1.31 2.249 4.302 0 5.61L73.901 90.259c-1.687 1.123-3.748.936-5.435-.186z" fill="#fff" stroke="#979797" stroke-width=".5" stroke-miterlimit="10"/><path d="M53.66 98.861c0 4.676-2.435 6.92-5.621 5.05-2.999-1.871-5.435-7.107-5.435-11.595 0-4.489 2.436-6.92 5.435-5.05 2.998 1.684 5.622 6.92 5.622 11.595z" fill="#F05A46" stroke="#323232" stroke-width=".7" stroke-miterlimit="10"/><path d="M72.214 71.183l-38.23-26.742c-2.25-1.497-1.875-4.863.374-5.985l45.727-22.441c1.125-.561 2.25-.561 3.186.187l38.981 21.88c2.249 1.31 2.436 4.675 0 5.985L75.962 71.37c-1.311.561-2.623.561-3.748-.187z" stroke="#979797" stroke-width=".7" stroke-miterlimit="10" stroke-linecap="round" stroke-linejoin="round" stroke-dasharray="2 2"/><path d="M49.725 96.43c0 1.309-.75 2.057-1.686 1.496-.937-.561-1.687-2.057-1.687-3.366 0-1.31.75-2.057 1.687-1.496.937.56 1.686 2.057 1.686 3.366z" fill="#F05A46" stroke="#323232" stroke-width=".7" stroke-miterlimit="10"/><path d="M20.49 71.557c0-4.675-2.436-9.911-5.622-11.782-1.124-.56-2.061-.747-2.998-.373l-3.374 1.122.937 2.992c0 .374-.187.935-.187 1.496 0 3.927 1.874 8.415 4.31 10.847l.75 2.43 3.186-1.308c.375 0 .562-.187.75-.187h.187c1.312-.748 2.061-2.618 2.061-5.237z" fill="#F05A46" stroke="#323232" stroke-width=".7" stroke-miterlimit="10" stroke-linecap="round" stroke-linejoin="round"/><path d="M17.117 72.492c0 4.676-2.436 6.92-5.622 5.05-2.999-1.87-5.435-7.107-5.435-11.782s2.436-6.92 5.435-5.05c3.186 1.87 5.622 7.107 5.622 11.782z" fill="#F05A46" stroke="#323232" stroke-width=".7" stroke-miterlimit="10"/><path d="M13.181 70.061c0 1.31-.75 2.057-1.686 1.496-.937-.56-1.687-2.057-1.687-3.366 0-1.309.75-2.057 1.687-1.496.937.561 1.686 2.057 1.686 3.366z" fill="#F05A46" stroke="#323232" stroke-width=".7" stroke-miterlimit="10"/></svg>