<svg width="202" height="202" fill="none" xmlns="http://www.w3.org/2000/svg"><path d="M201.332 154.625l-9.518-1.55-120.2-61.095a4.688 4.688 0 00-4.206 0l-60.43 28.777L1 119.65v4.87c0 .885.221 1.549 1.107 1.992l129.939 74.156c.664.443 1.771.443 2.435 0l65.302-38.517c.885-.443 1.328-1.549 1.328-2.435v-5.091h.221z" fill="#fff" stroke="#323232" stroke-width=".7" stroke-miterlimit="10" stroke-linecap="round" stroke-linejoin="round"/><path d="M71.614 86.667l127.947 65.08c1.992 1.107 2.214 3.984.222 5.091l-65.302 38.517c-.664.443-1.771.443-2.435 0L2.106 121.42c-1.549-.885-1.327-3.099.222-3.763l65.08-30.99a4.69 4.69 0 014.206 0z" fill="#fff" stroke="#323232" stroke-width=".7" stroke-miterlimit="10" stroke-linecap="round" stroke-linejoin="round"/><path d="M69.622 88.216c-.664 0-1.328.222-1.992.443h-.222c-.221.221-.442.443-.221.664 0 .222.221.222.443.222h.443c.442-.222.885-.443 1.549-.443.221 0 .664-.222.664-.664 0-.443-.221-.222-.664-.222zm-5.755 2.435h-.222s-.664.222-1.328.664l-.664.443c-.221.222-.443.443-.221.664 0 .222.221.222.442.222h.222l1.992-.886c.221-.221.443-.443.221-.664 0-.443-.221-.443-.442-.443zM57.89 93.53h-.443l-1.55.664c-.22.222-.442.443-.22.664 0 .222.22.222.442.222h.221l1.993-.886c.22-.221.442-.443.22-.664h-.663zm-5.977 2.656h-.221s-.664.222-1.107.443l-.886.443c-.442.221-.442.664-.442.885 0 .222.221.222.443.222h.22l1.993-.886c.221-.221.443-.443.221-.664 0-.221-.22-.443-.22-.443zm-6.198 2.878h-.221l-1.993.885c-.221.222-.442.443-.221.665 0 .221.221.221.443.221h.221l1.992-.886c.222-.22.443-.442.222-.664 0 0-.222-.22-.443-.22zm-5.977 2.878h-.221l-1.992.885c-.222.222-.443.443-.222.664 0 .222.222.222.443.222h.221l1.993-.886c.442 0 .442-.221.442-.664-.221 0-.442-.221-.664-.221zm-5.977 2.877h-.22l-1.993.886c-.221.221-.443.443-.221.664 0 .221.22.221.442.221h.222l1.992-.885c.221-.221.443-.443.221-.664 0-.222-.221-.222-.443-.222zm-5.976 2.878h-.222l-1.992.886c-.221.221-.443.442-.221.664 0 .221.221.221.442.221h.222l1.992-.885c.221-.222.443-.443.221-.664 0-.222-.221-.222-.442-.222zm-5.977 2.878h-.221c-.443.221-1.993.885-1.993.885-.221.222-.442.443-.221.664 0 .222.221.222.443.222h.221l1.992-.886c.222-.221.443-.442.222-.664 0-.221-.222-.221-.443-.221zm-5.977 2.656h-.221l-1.992.886c-.222.221-.443.442-.222.664 0 .442.221.664.443.664h.221l1.992-1.107c.222-.221.443-.443.222-.664a.477.477 0 00-.443-.443zm-5.977 2.878h-.221l-1.992.885c-.443.222-.443.664-.443.886 0 .221.221.221.443.221h.221l1.992-.885c.222-.222.443-.443.222-.664.221-.222 0-.443-.222-.443zm-3.099 3.542c-.221 0-.221 0-.442.221-.222.221-.222.664 0 .885l.221.222c.221.221 1.328.664 1.328.664h.222c.22 0 .442 0 .442-.221.222-.222 0-.665-.221-.665l-1.328-.885s-.222 0-.222-.221c.443.221.222 0 0 0zm5.756 3.32c-.222 0-.443 0-.443.221-.221.222 0 .665.221.665 0 0 .665.442 1.329.664l.664.442h.221c.221 0 .443 0 .443-.221.221-.221 0-.664-.222-.664l-1.992-1.107h-.221zm5.755 3.321c-.221 0-.443 0-.443.221-.221.221 0 .664.222.664l.664.443c.443.221 1.107.664 1.107.664h.221c.221 0 .443 0 .443-.222.221-.221 0-.664-.222-.664l-1.992-1.106zm5.756 3.32c-.222 0-.443 0-.443.221-.222.222 0 .664.221.664l1.992 1.107h.222c.221 0 .442 0 .442-.221.222-.222 0-.664-.22-.664l-1.993-1.107h-.221zm5.755 3.32c-.221 0-.443 0-.443.222-.221.221 0 .664.222.664l1.328.664c.221.221.664.221.664.221h.221c.222 0 .443 0 .443-.221.221-.221 0-.664-.222-.664l-1.992-1.107c0 .221-.221.221-.221.221zm5.755 3.099c-.221 0-.442 0-.442.222-.222.221 0 .664.221.664l1.992 1.107h.222c.221 0 .442 0 .442-.222.222-.221 0-.664-.221-.664l-1.992-1.107c0 .222-.222 0-.222 0zm5.756 3.321c-.222 0-.443 0-.443.221-.221.222 0 .664.221.664l1.771 1.107h.222c.221 0 .442 0 .442-.221.222-.222 0-.664-.221-.664l-1.992-1.107s.221 0 0 0zm5.755 3.32c-.221 0-.443 0-.443.222-.221.221 0 .664.222.664l1.992 1.107h.221c.222 0 .443 0 .443-.222.221-.221 0-.664-.221-.664l-1.992-1.107h-.222zm5.755 3.321c-.22 0-.442 0-.442.221-.222.221 0 .664.221.664l1.992 1.107h.222c.221 0 .443 0 .443-.221.22-.222 0-.664-.222-.664l-1.992-1.107h-.222zm5.756 3.32c-.221 0-.443 0-.443.221-.221.222 0 .665.222.665l1.992 1.106h.221c.221 0 .443 0 .443-.221.221-.221 0-.664-.221-.664l-1.993-1.107h-.221zm5.755 3.321c-.221 0-.442 0-.442.221-.222.221 0 .664.221.664l1.992 1.107h.222c.22 0 .442 0 .442-.222.222-.221 0-.664-.221-.664l-1.992-1.106h-.222zm5.756 3.32c-.222 0-.443 0-.443.221-.221.222 0 .664.221.664l.443.222c.664.221 1.328.664 1.328.664h.222c.221 0 .442 0 .442-.222.222-.221 0-.664-.221-.664l-1.992-1.106c.221.221.221.221 0 .221zm5.755 3.099c-.221 0-.443 0-.443.221-.221.222 0 .664.222.664 0 0 .442.222 1.107.665l.885.442h.221c.222 0 .443 0 .443-.221.222-.221 0-.664-.221-.664l-1.993-1.107c0 .221 0 0-.22 0zm5.756 3.32c-.222 0-.443 0-.443.222-.222.221 0 .664.221.664l1.107.885c.443.222.664.443.664.443h.221c.222 0 .443 0 .443-.221.221-.222 0-.664-.221-.664l-1.992-1.107c.22-.222.22-.222 0-.222zm5.755 3.321c-.221 0-.443 0-.443.221-.221.222 0 .664.222.664 0 0 .22.222.664.443l1.106.664h.222c.221 0 .442 0 .442-.221.222-.222 0-.664-.22-.664l-1.993-1.107c.221 0 .221 0 0 0zm5.755 3.32c-.221 0-.442 0-.442.222-.222.221 0 .664.221.664l1.77.885h.444c.22 0 .442 0 .442-.221.222-.222 0-.664-.221-.664l-1.771-.886h-.443zm5.977 3.321c-.221 0-.443 0-.443.221-.221.221 0 .664.222.664l1.992 1.107h.221c.222 0 .443 0 .443-.221.221-.222 0-.664-.221-.664l-1.993-1.107h-.22zm5.755 3.32c-.221 0-.442 0-.442.222-.222.221 0 .664.221.664l1.992 1.106h.222c.221 0 .442 0 .442-.221.222-.221 0-.664-.221-.664l-1.992-1.107h-.222zm5.756 3.321c-.221 0-.443 0-.443.221-.221.221 0 .664.222.664l1.992 1.107h.221c.221 0 .443 0 .443-.222.221-.221 0-.664-.222-.664l-1.992-1.106h-.221zm5.755 3.099c-.221 0-.442 0-.442.221-.222.221 0 .664.221.664l1.992 1.107h.222c.221 0 .442 0 .442-.221.222-.222 0-.665-.221-.665l-1.992-1.106h-.222zm5.756 3.32c-.222 0-.443 0-.443.221-.221.222 0 .664.221.664l.443.222c.664.221 1.328.885 1.328.885h.222c.221 0 .442 0 .442-.221.222-.221 0-.664-.221-.664l-1.771-.886c0-.221-.221-.221-.221-.221zm5.755 3.32c-.221 0-.443 0-.443.222-.221.221 0 .664.222.664l1.992 1.107h.221c.222 0 .443 0 .443-.222.221-.221 0-.664-.221-.664l-1.993-1.107h-.221zm7.305 2.214h-.221l-.886.443c-.221 0-.443.221-.664.221-.221 0-.443.222-.443.664 0 .222.222.443.443.443.443 0 .664 0 1.107-.221l.885-.443c.222-.221.443-.443.222-.664 0-.443-.222-.443-.443-.443zm5.755-3.542h-.221l-1.992 1.107c-.222.221-.443.443-.222.664 0 .222.222.222.443.222h.222l1.992-1.107c.221-.222.442-.443.221-.664 0 0-.221-.222-.443-.222zm5.756-3.32h-.222l-1.992 1.328c-.221.221-.443.443-.221.664 0 .221.221.221.443.221h.221l1.992-1.106c.222-.222.443-.443.222-.664-.222-.222-.222-.443-.443-.443zm5.534-3.321h-.222l-1.77 1.107c-.222.222-.443.443-.222.664 0 .222.222.222.443.222h.221l1.993-1.107c.221-.221.442-.443.221-.664-.221-.222-.443-.222-.664-.222zm5.755-3.32h-.221l-1.992 1.107c-.222.221-.443.443-.222.664 0 .221.222.221.443.221h.221l1.993-1.107c.221-.221.442-.442.221-.664 0-.221-.221-.221-.443-.221zm5.756-3.542h-.222l-1.992 1.328c-.221.222-.443.443-.221.665 0 .221.221.221.442.221h.222l1.992-1.107c.221-.221.443-.443.221-.664 0-.221-.221-.443-.442-.443zm5.755-3.32h-.221l-1.993 1.107c-.221.221-.442.442-.221.664 0 .221.221.221.443.221h.221l1.992-1.107c.222-.221.443-.442.222-.664 0 0-.222-.221-.443-.221zm5.755-3.321h-.221l-1.992 1.107c-.222.222-.443.443-.222.664 0 .222.222.222.443.222h.222l1.992-1.107c.221-.222.443-.443.221-.664 0-.222-.221-.222-.443-.222zm5.756-3.32h-.222l-1.992 1.107c-.221.221-.442.442-.221.664 0 .221.221.221.443.221h.221l1.992-1.107c.222-.221.443-.442.222-.664-.222-.221-.222-.221-.443-.221zm5.534-3.542h-.221l-1.993 1.107c-.221.221-.442.443-.221.664 0 .221.221.221.443.221h.221l1.992-1.106c.222-.222.443-.443.222-.664 0 0-.222-.222-.443-.222zm5.755-3.32h-.221l-1.992 1.107c-.222.221-.443.442-.222.664 0 .221.222.221.443.221h.221l1.993-1.107c.221-.221.442-.443.221-.664 0 0-.221-.221-.443-.221zm3.985-3.985s-.222 0 0 0c-.443 0-.664.443-.443.664 0 .443 0 .886-.221 1.329-.222.221-.222.664.221.664h.221c.222 0 .443 0 .443-.222.222-.221.222-.442.222-.664v-1.107c0-.442-.222-.664-.443-.664zm-4.87-3.32c-.222 0-.443 0-.443.221-.221.222 0 .664.221.664l1.993 1.107h.221c.221 0 .443 0 .443-.221.221-.222 0-.664-.222-.664l-1.992-1.107h-.221zm-5.977-3.099c-.221 0-.443 0-.443.221-.221.221 0 .664.222.664l1.992 1.107h.221c.222 0 .443 0 .443-.221.221-.222 0-.664-.221-.664l-1.993-1.107h-.221zm-5.977-2.878c-.221 0-.442 0-.442.221-.222.222 0 .665.221.665l1.992 1.106h.222c.221 0 .442 0 .442-.221.222-.221 0-.664-.221-.664l-1.992-1.107h-.222zm-5.755-3.099c-.221 0-.443 0-.443.221-.221.222 0 .664.222.664l1.992 1.107h.221c.222 0 .443 0 .443-.221.221-.221 0-.664-.221-.664l-1.329-.664c-.221-.222-.664-.222-.664-.222l-.221-.221zm-5.977-3.099c-.221 0-.443 0-.443.221-.221.222 0 .664.222.664l1.992 1.107h.221c.222 0 .443 0 .443-.221.221-.222 0-.664-.221-.664l-1.992-1.107h-.222zm-5.977-2.878c-.221 0-.442 0-.442.222-.222.221 0 .664.221.664l1.992 1.107h.222c.221 0 .442 0 .442-.222.222-.221 0-.664-.221-.664l-1.992-1.107h-.222zm-5.976-3.099c-.222 0-.443 0-.443.222-.221.221 0 .664.221.664l1.993 1.106h.221c.221 0 .443 0 .443-.221.221-.221 0-.664-.222-.664l-1.107-.664c-.442-.221-.664-.443-.664-.443h-.442zm-5.756-3.099c-.221 0-.442 0-.442.222-.222.221 0 .664.221.664l1.992 1.106h.221c.222 0 .443 0 .443-.221.222-.221 0-.664-.221-.664l-.886-.443-1.106-.442-.222-.222zm-5.977-2.878c-.221 0-.442 0-.442.222-.222.221 0 .664.221.664l1.992 1.107h.222c.221 0 .442 0 .442-.222.222-.221 0-.664-.221-.664l-1.992-1.107h-.222zm-5.976-3.099c-.222 0-.443 0-.443.222-.221.221 0 .664.221.664l1.993 1.107h.221c.221 0 .443 0 .443-.222.221-.221 0-.664-.222-.664l-1.992-1.107h-.221zm-5.756-2.877c-.221 0-.442 0-.442.221-.222.221 0 .664.221.664l1.992 1.107h.222c.221 0 .442 0 .442-.221.222-.222 0-.665-.221-.665 0 0-.664-.442-1.328-.664l-.664-.442h-.222zm-5.976-3.099c-.222 0-.443 0-.443.221-.222.221 0 .664.221.664l1.992 1.107h.222c.221 0 .443 0 .443-.221.221-.222 0-.665-.222-.665l-1.328-.664c-.443-.221-.664-.442-.664-.442h-.221zm-5.977-3.099c-.222 0-.443 0-.443.221-.221.221 0 .664.221.664l1.993 1.107h.221c.221 0 .443 0 .443-.222.221-.221 0-.664-.222-.664l-.221-.221-1.771-.885h-.221zm-5.977-2.878c-.221 0-.443 0-.443.221-.221.222 0 .664.222.664l1.992 1.107h.221c.222 0 .443 0 .443-.221.221-.222 0-.664-.221-.664 0 0-.886-.443-1.55-.664l-.443-.222c0-.221 0-.221-.221-.221zm-5.755-3.099c-.222 0-.443 0-.443.221-.221.222 0 .664.221.664l1.993 1.107h.221c.221 0 .443 0 .443-.221.221-.222 0-.664-.222-.664l-.442-.222c-.665-.221-1.55-.664-1.55-.664l-.221-.221zm-5.977-3.099c-.221 0-.443 0-.443.221-.221.221 0 .664.222.664l1.992 1.107h.221c.221 0 .443 0 .443-.221.221-.222 0-.664-.222-.664l-1.992-1.107c0 .221-.221 0-.221 0zm-5.977-2.878c-.221 0-.443 0-.443.221-.221.222 0 .664.222.664l1.992 1.107h.221c.222 0 .443 0 .443-.221.221-.221 0-.664-.221-.664l-1.992-1.107h-.222zM90.651 98.4c-.221 0-.442 0-.442.221-.222.222 0 .664.221.664l1.992 1.107h.222c.221 0 .442 0 .442-.221.222-.222 0-.664-.221-.664L90.873 98.4h-.222zm-5.755-2.878c-.221 0-.443 0-.443.222-.221.221 0 .664.222.664l1.992 1.106h.221c.222 0 .443 0 .443-.22.221-.222 0-.665-.221-.665l-1.993-1.107h-.221zm-5.977-3.099c-.221 0-.442 0-.442.222-.222.22 0 .664.22.664l1.993 1.106h.221c.222 0 .443 0 .443-.22.222-.222 0-.665-.221-.665l-.886-.443a10.385 10.385 0 00-1.106-.442c0-.222-.222-.222-.222-.222zm-5.977-3.099c-.22 0-.442 0-.442.222-.222.22 0 .664.221.664l1.992 1.106h.222c.221 0 .442 0 .442-.22.222-.222 0-.665-.221-.665l-1.992-1.107h-.222z" fill="#979797"/><path d="M89.102 139.351l-12.175-6.641V37.303l12.175 5.534v96.514zm11.732-6.42l-11.732 6.42V42.837l11.732-5.987v96.081z" fill="#fff" stroke="#323232" stroke-width=".7" stroke-miterlimit="10" stroke-linecap="round" stroke-linejoin="round"/><path d="M66.744 126.733l-12.175-6.641V5.206l12.175 5.534v115.993zm10.183-5.313l-10.183 5.313V10.74l10.183-4.428V121.42z" fill="#B62C2C" stroke="#323232" stroke-width=".7" stroke-miterlimit="10" stroke-linecap="round" stroke-linejoin="round"/><path d="M76.927 6.313L64.752 1 54.57 5.206l12.175 5.534 10.183-4.427z" fill="#B62C2C" stroke="#323232" stroke-width=".7" stroke-miterlimit="10" stroke-linecap="round" stroke-linejoin="round"/><path d="M100.834 36.86l-10.625-5.534-13.282 5.977 12.175 5.534 11.732-5.976z" fill="#fff" stroke="#323232" stroke-width=".7" stroke-miterlimit="10" stroke-linecap="round" stroke-linejoin="round"/><path d="M113.009 154.403l-12.175-6.862V66.523l12.175 5.534v82.346zm11.732-6.64l-11.732 6.64V72.057l11.732-5.755v81.461z" fill="#B62C2C" stroke="#323232" stroke-width=".7" stroke-miterlimit="10" stroke-linecap="round" stroke-linejoin="round"/><path d="M124.741 66.301l-11.732-5.755-12.175 5.977 11.954 5.755 11.953-5.977z" fill="#B62C2C" stroke="#323232" stroke-width=".7" stroke-miterlimit="10" stroke-linecap="round" stroke-linejoin="round"/><path d="M136.916 170.784l-12.175-6.641v-63.088l12.175 5.534v64.195zm11.511-6.419l-11.511 6.419v-64.195l11.511-5.755v63.531z" fill="#fff" stroke="#323232" stroke-width=".7" stroke-miterlimit="10" stroke-linecap="round" stroke-linejoin="round"/><path d="M148.427 100.834l-11.732-5.755-11.954 5.976 11.732 5.756 11.954-5.977z" fill="#fff" stroke="#323232" stroke-width=".7" stroke-miterlimit="10" stroke-linecap="round" stroke-linejoin="round"/></svg>