<svg width="1440" height="810" fill="none" xmlns="http://www.w3.org/2000/svg"><path d="M690.178 327.147c-.48.289-.937.481-1.369.578a3.271 3.271 0 01-1.222.032 2.56 2.56 0 01-1.013-.437 2.958 2.958 0 01-.757-.852c-.346-.576-.464-1.125-.354-1.649.11-.523.376-1.005.799-1.443l-.058-.096a2.614 2.614 0 01-1.496-.098c-.463-.19-.838-.525-1.127-1.005-.384-.64-.458-1.288-.219-1.942.233-.663.77-1.247 1.61-1.752.84-.505 1.607-.704 2.302-.599.69.097 1.227.466 1.611 1.106.289.48.404.971.347 1.474-.054.49-.255.943-.604 1.359l.058.096c.585-.167 1.135-.176 1.649-.027.514.148.944.51 1.29 1.086.207.344.335.703.385 1.076.058.368.028.735-.091 1.1-.11.36-.306.712-.59 1.056-.287.337-.671.649-1.151.937zm-.527-.876c.584-.35.959-.75 1.125-1.198.162-.457.098-.925-.19-1.405l-.152-.252c-.288-.48-.669-.752-1.143-.815-.479-.072-1.01.067-1.594.418-.584.351-.957.755-1.118 1.211-.166.448-.105.913.183 1.393l.152.252c.288.48.672.755 1.15.827.474.064 1.003-.08 1.587-.431zm-2.459-4.092c.528-.317.861-.669.999-1.057.137-.387.076-.797-.184-1.229l-.108-.18c-.259-.432-.593-.678-.999-.739-.407-.06-.874.068-1.402.385-.528.317-.861.67-.998 1.057-.138.388-.077.797.183 1.229l.108.18c.26.433.593.679.999.739.407.061.874-.067 1.402-.385zm10.301.573c-.48.288-.936.481-1.368.577a3.271 3.271 0 01-1.222.032 2.563 2.563 0 01-1.014-.436 2.958 2.958 0 01-.757-.852c-.346-.576-.464-1.126-.354-1.65.111-.523.377-1.004.799-1.443l-.058-.096c-.531.112-1.03.08-1.495-.098-.463-.19-.839-.525-1.127-1.005-.385-.64-.458-1.287-.22-1.942.233-.663.77-1.247 1.61-1.751.84-.505 1.607-.705 2.302-.6.69.098 1.227.466 1.612 1.106.288.48.404.971.347 1.474-.054.49-.256.943-.605 1.359l.058.096c.586-.166 1.136-.176 1.65-.027.513.149.944.511 1.29 1.087.206.344.335.702.384 1.075.058.368.028.735-.09 1.1-.11.36-.307.712-.59 1.057-.288.336-.672.648-1.152.937zm-.526-.876c.584-.351.959-.751 1.125-1.199.161-.456.098-.924-.191-1.404l-.151-.252c-.288-.48-.67-.752-1.143-.816-.479-.072-1.01.068-1.594.419-.584.351-.957.754-1.118 1.211-.167.448-.106.912.183 1.392l.151.252c.289.48.672.756 1.151.828.474.063 1.003-.08 1.587-.431zm-2.459-4.092c.528-.318.861-.67.998-1.057.137-.388.076-.798-.183-1.23l-.108-.18c-.26-.432-.593-.678-1-.738-.406-.061-.874.067-1.402.385-.528.317-.86.669-.998 1.057-.137.387-.076.797.184 1.229l.108.18c.259.432.592.678.999.739.407.06.874-.068 1.402-.385zm10.409-5.291l-.395 2.034 1.68 2.796-1.008.606-5.033-8.377 1.008-.605 2.675 4.452.036-.022.328-2.173.729-4.521 1.236-.743-.964 5.463 6.213 2.783-1.248.75-5.257-2.443zm10.291-10.185l-.06.036.136 1.829.188 4.853-4.196-2.444-1.552-.979-.06.036 4.24 7.056-.984.592-5.033-8.377 1.344-.807 5.111 3.07.06-.036-.299-5.962 1.296-.778 5.033 8.376-.984.591-4.24-7.056zm10.536-1.888l-4.236 2.545 2.278 3.792-1.008.606-5.033-8.376 1.008-.606 2.221 3.696 4.236-2.545-2.221-3.696 1.008-.606 5.033 8.376-1.008.606-2.278-3.792z" fill="#fff"/><g clip-path="url(#clip0)"><path d="M735.665 298.021a.332.332 0 01-.284.198.346.346 0 01-.176-.038.323.323 0 01-.13-.124l-3.458-5.754a.339.339 0 01-.048-.173.338.338 0 01.182-.296.334.334 0 01.176-.035l5.805.428a.333.333 0 01.28.467l-2.347 5.327zm1.095-8.808a.345.345 0 01-.048-.174.34.34 0 01.182-.295.335.335 0 01.176-.036l5.805.429a.333.333 0 01.28.466l-2.347 5.327a.329.329 0 01-.284.198.33.33 0 01-.306-.161l-3.458-5.754z" fill="#fff"/></g><path d="M440.352 495.832a1.337 1.337 0 00-.456 1.829 1.338 1.338 0 001.83.457 1.339 1.339 0 00.456-1.83 1.337 1.337 0 00-1.83-.456zm8-4.807a1.337 1.337 0 00-.456 1.829 1.338 1.338 0 001.83.457 1.338 1.338 0 00.456-1.83 1.337 1.337 0 00-1.83-.456zm-4 2.403a1.338 1.338 0 00-.456 1.83 1.337 1.337 0 001.83.456 1.338 1.338 0 00.456-1.83 1.339 1.339 0 00-1.83-.456zm17.103-2.691c-.68.408-1.337.629-1.971.661a4.376 4.376 0 01-1.873-.345l.369-1.071c.532.215 1.04.317 1.525.309.48-.016.964-.171 1.452-.464.6-.361.97-.779 1.109-1.254.147-.48.076-.961-.213-1.441-.24-.4-.545-.636-.915-.707-.37-.072-.869-.006-1.498.198l-.778.255c-.873.285-1.62.374-2.24.267-.616-.119-1.119-.503-1.508-1.151a2.658 2.658 0 01-.387-1.107 2.335 2.335 0 01.131-1.059c.133-.341.338-.66.616-.958a4.534 4.534 0 011.035-.834c.632-.38 1.241-.588 1.829-.625a3.63 3.63 0 011.765.328l-.425 1.006a3.032 3.032 0 00-1.294-.251c-.438.013-.902.166-1.39.459-.536.322-.89.693-1.063 1.112-.169.407-.117.838.157 1.294.241.4.551.628.932.682.384.041.877-.037 1.477-.234l.777-.255c.935-.311 1.699-.389 2.293-.234.594.154 1.079.544 1.454 1.168.23.384.371.773.423 1.167.059.388.03.765-.088 1.13a3.09 3.09 0 01-.609 1.052 4.34 4.34 0 01-1.092.902zm-.778-11.816l.96-.576 2.221 3.696.048-.029a2.406 2.406 0 01.131-1.222c.155-.377.465-.704.929-.983.64-.385 1.269-.479 1.887-.284.621.182 1.158.649 1.609 1.401l2.387 3.972-.96.577-2.286-3.804c-.668-1.112-1.47-1.387-2.406-.825a2.6 2.6 0 00-.521.411 1.911 1.911 0 00-.35.504 1.292 1.292 0 00-.124.582c.006.192.069.388.19.588l2.581 4.296-.96.577-5.336-8.881zm14.703 3.448c-.416.25-.842.403-1.277.457a2.966 2.966 0 01-1.277-.114 3.77 3.77 0 01-1.177-.681 4.855 4.855 0 01-1.012-1.222 4.805 4.805 0 01-.596-1.454 3.555 3.555 0 01-.049-1.359 2.91 2.91 0 01.491-1.194 3.255 3.255 0 011.003-.913c.416-.25.838-.4 1.265-.45a2.908 2.908 0 011.285.127c.416.131.813.355 1.189.674a4.8 4.8 0 011.004 1.209c.298.496.5.985.604 1.467.099.474.112.929.037 1.366-.08.429-.246.823-.499 1.182a3.17 3.17 0 01-.991.905zm-.512-.852c.52-.312.848-.727.984-1.244.135-.517.006-1.104-.388-1.76l-.534-.888c-.394-.656-.851-1.045-1.371-1.168s-1.041-.028-1.561.284c-.52.313-.848.727-.983 1.245-.136.517-.007 1.103.387 1.759l.534.888c.394.656.851 1.046 1.372 1.169.52.123 1.04.028 1.56-.285zm.493-7.76l.936-.563 2.268 2.28 2.29 2.315.024-.014-.874-3.166-.828-3.145.852-.512 2.412 2.193 2.398 2.251.024-.015-.994-3.094-.936-3.08.901-.541 2.076 7.18-1.188.714-2.652-2.457-1.672-1.559-.024.014.604 2.201.924 3.496-1.164.699-5.377-5.197zm16.656-1.58l-3.72-6.192.96-.577.605 1.008.048-.029a3.942 3.942 0 01-.027-.588c.01-.202.047-.393.113-.574a1.74 1.74 0 01.324-.521c.137-.17.326-.327.566-.471a2.566 2.566 0 011.308-.378c.46-.015.908.151 1.345.498l.024-.014c-.09-.403-.057-.82.098-1.251.158-.443.501-.824 1.029-1.141.632-.38 1.249-.467 1.851-.263.605.192 1.134.664 1.586 1.416l2.386 3.972-.96.577-2.285-3.805c-.332-.552-.69-.903-1.074-1.053-.385-.15-.813-.083-1.285.2-.192.116-.361.25-.508.404-.14.149-.248.312-.327.49a1.225 1.225 0 00-.1.567c.006.192.07.388.19.588l2.581 4.296-.96.577-2.285-3.804c-.332-.552-.69-.904-1.074-1.054-.385-.15-.805-.088-1.261.186-.192.115-.361.25-.509.404a1.726 1.726 0 00-.338.497 1.347 1.347 0 00-.112.574c.006.192.07.388.19.588l2.581 4.296-.96.577zm13.024-7.63c-.416.25-.842.403-1.277.457a2.969 2.969 0 01-1.278-.114 3.782 3.782 0 01-1.177-.681 4.855 4.855 0 01-1.011-1.222 4.798 4.798 0 01-.597-1.454 3.595 3.595 0 01-.049-1.359c.075-.437.239-.835.492-1.194a3.268 3.268 0 011.003-.913c.416-.25.838-.4 1.265-.449a2.896 2.896 0 011.285.126 3.44 3.44 0 011.188.674c.377.318.712.721 1.005 1.209.298.496.499.985.603 1.467.1.474.112.929.037 1.366a2.974 2.974 0 01-.498 1.182 3.146 3.146 0 01-.991.905zm-.512-.852c.52-.312.848-.727.983-1.244.136-.517.007-1.104-.387-1.76l-.534-.888c-.394-.656-.851-1.045-1.372-1.168-.52-.123-1.04-.028-1.56.284-.52.313-.848.728-.984 1.245-.135.517-.006 1.103.388 1.759l.534.888c.394.656.851 1.046 1.371 1.169s1.041.028 1.561-.285zm4.92-1.992l-3.721-6.193.96-.576.685 1.14.06-.036c-.065-.364-.024-.748.125-1.153.148-.405.474-.759.978-1.062l.373-.223.576.96-.564.339c-.52.312-.868.657-1.043 1.035-.173.365-.17.696.007.992l2.524 4.2-.96.577zm6.882-3.94c-.424.255-.853.41-1.289.464-.427.05-.849.01-1.265-.121a3.782 3.782 0 01-1.177-.681 5.137 5.137 0 01-.999-1.229 5.049 5.049 0 01-.609-1.447 3.595 3.595 0 01-.049-1.359 2.93 2.93 0 01.48-1.187 3.294 3.294 0 011.015-.92c.416-.25.833-.397 1.253-.442a2.823 2.823 0 011.222.131c.391.124.756.335 1.098.631.349.291.655.656.92 1.096l.274.456-4.452 2.675.173.288c.158.264.347.488.567.672.222.171.46.295.713.372.261.072.532.088.814.05.29-.044.579-.152.867-.325.392-.235.676-.532.854-.889.185-.362.255-.763.208-1.203l.98.081a2.832 2.832 0 01-.316 1.595c-.27.511-.698.941-1.282 1.292zm-3.41-5.676a2.058 2.058 0 00-.634.577 1.879 1.879 0 00-.333.723c-.051.259-.051.531.001.816.046.277.151.551.315.823l.05.084 3.42-2.055-.079-.132c-.332-.552-.748-.9-1.249-1.046-.498-.158-.995-.088-1.491.21z" fill="#fff"/><g clip-path="url(#clip1)"><path d="M434.835 478.883a6.001 6.001 0 01-5.59-10.598 6 6 0 016.733 9.911l1.392 2.317-1.143.687-1.392-2.317z" fill="#fff"/></g><path d="M449.238 470.078c-.432.26-.867.423-1.306.491a3.05 3.05 0 01-1.27-.103 3.38 3.38 0 01-1.165-.688 5.14 5.14 0 01-1-1.229 6.34 6.34 0 01-.776-1.917 7.786 7.786 0 01-.194-1.926 8.166 8.166 0 01.251-1.784 7.389 7.389 0 01.52-1.472l1.296-.779a19.82 19.82 0 00-.623 1.681 8.367 8.367 0 00-.333 1.539 6.562 6.562 0 00-.015 1.496c.046.495.16 1.02.342 1.575l.074-.012a3.163 3.163 0 01.256-1.313c.181-.425.527-.791 1.039-1.098.36-.217.728-.356 1.104-.419a2.54 2.54 0 011.09.047c.351.095.682.266.995.514.32.243.598.56.833.952.245.408.403.825.474 1.251a2.873 2.873 0 01-.575 2.305 3.578 3.578 0 01-1.017.889zm-.538-.869c.552-.331.888-.74 1.01-1.227.129-.492.023-1.021-.318-1.589l-.058-.096c-.341-.568-.759-.911-1.254-1.027-.487-.122-1.006-.016-1.558.315-.552.332-.893.744-1.022 1.235-.121.487-.011 1.014.33 1.582l.058.096c.341.568.755.913 1.241 1.034.495.117 1.018.009 1.571-.323zm5.211-2.135l-.534-.888 2.34-1.406-4.052-6.744-.084.051-.93 3.237-.97-.283.973-3.41 1.572-.945 4.499 7.489 2.16-1.298.534.888-5.508 3.309zm6.428-9.84a2.4 2.4 0 01-.897.327 2.37 2.37 0 01-.896-.05 2.453 2.453 0 01-.809-.395 2.552 2.552 0 01-.654-.735 2.434 2.434 0 01-.334-.909 2.424 2.424 0 01.023-.913 2.38 2.38 0 01.377-.814c.185-.253.422-.466.71-.639s.583-.28.886-.32a2.18 2.18 0 01.895.05c.295.073.571.207.829.4.253.186.468.427.646.723s.292.603.342.921c.045.311.03.613-.043.908a2.31 2.31 0 01-1.075 1.446zm-.461-.768c.36-.216.569-.511.628-.884a1.614 1.614 0 00-.231-1.119c-.216-.36-.507-.599-.872-.717-.362-.131-.723-.088-1.083.128s-.571.517-.633.903c-.059.373.02.74.236 1.1.216.36.505.605.867.736.365.118.728.069 1.088-.147zm9.712 1.383c-1 .601-1.96.661-2.881.18-.912-.486-1.78-1.413-2.602-2.781-.822-1.368-1.233-2.569-1.234-3.603.008-1.039.511-1.859 1.511-2.46 1-.601 1.957-.658 2.869-.172.921.481 1.792 1.406 2.614 2.774.822 1.368 1.23 2.571 1.222 3.61.001 1.034-.499 1.851-1.499 2.452zm-.526-.876c.328-.197.567-.433.717-.709a1.81 1.81 0 00.218-.914 3.222 3.222 0 00-.214-1.064 6.192 6.192 0 00-.563-1.181l-.822-1.368a6.22 6.22 0 00-.778-1.051 3.23 3.23 0 00-.839-.689 1.828 1.828 0 00-.91-.237c-.313.004-.634.104-.962.301-.328.197-.567.433-.718.709-.15.275-.223.58-.218.915.005.334.073.691.203 1.07.138.375.329.766.574 1.174l.822 1.368c.245.408.501.761.767 1.058.274.293.557.52.85.682.293.161.597.24.91.237.314-.003.635-.104.963-.301zm7.842-3.519c-1 .6-1.961.66-2.881.179-.913-.486-1.78-1.413-2.602-2.781-.822-1.368-1.234-2.569-1.234-3.603.007-1.039.511-1.859 1.511-2.46 1-.601 1.956-.658 2.869-.172.921.481 1.792 1.406 2.614 2.774.822 1.368 1.229 2.571 1.222 3.61.001 1.034-.499 1.852-1.499 2.453zm-.526-.876c.328-.197.567-.434.717-.709.15-.276.223-.581.218-.915a3.247 3.247 0 00-.214-1.064 6.246 6.246 0 00-.563-1.18l-.822-1.369a6.222 6.222 0 00-.779-1.051 3.222 3.222 0 00-.838-.688 1.807 1.807 0 00-.91-.237c-.314.003-.635.103-.963.3-.328.197-.567.434-.717.709-.15.276-.223.581-.218.915.005.335.072.691.202 1.071.138.374.33.765.575 1.173l.822 1.369c.245.408.501.76.766 1.058.274.293.558.52.851.681.293.162.596.241.91.237.314-.003.635-.103.963-.3zm2.101-6.441l-1.635-4.244.888-.533 1.635 4.244-.888.533zm5.153-3.88l-2.126-1.254-.036.022 4.189 6.972-.984.591-5.033-8.376 1.164-.699 6.132 3.273 2.126 1.254.036-.021-4.19-6.972.984-.592 5.033 8.376-1.164.7-6.131-3.274zm11.721-6.651c.568-.341.915-.724 1.042-1.148.129-.437.071-.86-.174-1.268l-.051-.084c-.264-.44-.601-.683-1.011-.731-.407-.061-.834.043-1.282.313-.432.259-.726.567-.883.922a2.499 2.499 0 00-.218 1.16l-1.09-.129c.003-.23.029-.469.077-.715.051-.26.138-.514.261-.762a3.28 3.28 0 01.508-.73c.216-.239.492-.459.828-.661a3.928 3.928 0 011.083-.454c.365-.1.715-.125 1.049-.075.338.036.65.148.937.335.294.183.543.442.744.778.164.272.267.542.308.811.05.264.051.519.003.766a2.34 2.34 0 01-.271.718 2.774 2.774 0 01-.472.627l.029.048c.252-.087.517-.136.792-.149.278-.026.55.001.816.081.269.067.526.195.771.386.248.177.466.422.654.734.216.36.348.733.394 1.119.042.377.004.749-.114 1.114a3.249 3.249 0 01-.605 1.033c-.28.331-.632.624-1.056.879-.36.216-.704.369-1.032.457a3.358 3.358 0 01-.938.123 3.816 3.816 0 01-.85-.11 5.246 5.246 0 01-.75-.268l.41-1.031c.205.106.408.19.61.254a2.353 2.353 0 001.282.014c.221-.067.46-.178.716-.332.592-.356.96-.757 1.106-1.203.14-.455.062-.93-.237-1.426l-.057-.096c-.298-.496-.679-.785-1.141-.866-.468-.09-.997.043-1.589.399l-.984.591-.527-.876.912-.548zm8.138 1.676l-.533-.888 2.34-1.406-4.053-6.744-.084.05-.929 3.238-.97-.283.972-3.41 1.572-.945 4.5 7.489 2.16-1.298.533.888-5.508 3.309zm6.429-9.84a2.4 2.4 0 01-.898.327c-.302.04-.601.024-.896-.05a2.446 2.446 0 01-.809-.396 2.518 2.518 0 01-.653-.734 2.434 2.434 0 01-.335-.91 2.398 2.398 0 01.024-.912 2.37 2.37 0 01.376-.814c.186-.253.422-.466.71-.639s.584-.28.886-.32c.311-.045.609-.029.896.05a2.446 2.446 0 011.475 1.122c.178.296.291.604.341.922.045.311.031.613-.042.908-.066.29-.191.561-.377.814-.177.248-.41.459-.698.632zm-.462-.768c.36-.217.57-.511.629-.884a1.62 1.62 0 00-.231-1.119c-.217-.36-.507-.599-.872-.717-.362-.131-.723-.089-1.083.128-.36.216-.571.517-.633.903-.059.373.019.739.236 1.099.216.36.505.606.867.737.365.118.727.069 1.087-.147zm6.26-3.304c.568-.341.915-.724 1.041-1.148.129-.437.071-.86-.174-1.268l-.05-.084c-.265-.44-.602-.684-1.011-.731-.407-.061-.834.043-1.282.312-.432.26-.727.568-.883.923a2.484 2.484 0 00-.218 1.16l-1.09-.129a4.02 4.02 0 01.076-.716 3.023 3.023 0 01.77-1.491c.216-.239.492-.459.828-.661a3.935 3.935 0 011.082-.454c.365-.1.715-.125 1.05-.076.337.037.65.149.936.336.295.182.543.441.745.777.163.272.266.543.308.812.05.264.051.519.003.766a2.34 2.34 0 01-.271.718 2.778 2.778 0 01-.473.627l.029.048c.253-.087.517-.137.792-.15.279-.025.551.002.817.081.269.068.526.196.771.387.248.177.466.422.653.734.217.36.348.733.395 1.118.042.378.003.75-.115 1.115a3.23 3.23 0 01-.604 1.032c-.28.332-.632.625-1.056.88-.36.216-.704.368-1.032.457a3.36 3.36 0 01-.939.123 3.883 3.883 0 01-.85-.11 5.193 5.193 0 01-.749-.269l.41-1.03c.205.106.408.19.61.254.209.059.419.091.629.096a2.4 2.4 0 00.653-.082c.221-.068.459-.178.715-.332.592-.356.961-.757 1.106-1.204.141-.454.062-.93-.236-1.426l-.058-.096c-.298-.496-.678-.784-1.141-.866-.467-.089-.997.044-1.589.4l-.984.591-.526-.876.912-.548zm10.768.291c-1 .601-1.96.661-2.881.18-.912-.486-1.78-1.413-2.602-2.781-.822-1.368-1.233-2.569-1.234-3.603.008-1.039.511-1.859 1.511-2.46 1-.601 1.957-.658 2.869-.172.921.481 1.792 1.406 2.614 2.774.822 1.368 1.23 2.571 1.222 3.61.001 1.034-.499 1.852-1.499 2.452zm-.526-.876c.328-.197.567-.433.717-.708.151-.276.223-.581.218-.915a3.222 3.222 0 00-.214-1.064 6.192 6.192 0 00-.563-1.181l-.822-1.368a6.22 6.22 0 00-.778-1.051 3.226 3.226 0 00-.839-.688 1.818 1.818 0 00-.91-.238c-.313.004-.634.104-.962.301-.328.197-.567.434-.718.709-.15.275-.223.58-.218.915.005.334.073.691.203 1.071.138.374.329.765.574 1.173l.822 1.368c.245.408.501.761.767 1.059.274.292.557.52.85.681.293.162.597.241.91.237.314-.003.635-.103.963-.301zm2.102-6.44l-1.636-4.244.888-.533 1.636 4.243-.888.534zm6.196 2.451l-5.033-8.376 5.112-3.072.533.888-4.104 2.466 1.688 2.808 3.864-2.322.533.888-3.864 2.322 1.745 2.904 4.104-2.466.534.888-5.112 3.072z" fill="#fff"/><defs><clipPath id="clip0"><path fill="#fff" transform="rotate(-31 885.775 -1165.782)" d="M0 0h16v16H0z"/></clipPath><clipPath id="clip1"><path fill="#fff" transform="rotate(-31 1060.508 -524.67)" d="M0 0h16v16H0z"/></clipPath></defs></svg>