<svg width="447" height="84" fill="none" xmlns="http://www.w3.org/2000/svg"><path fill-rule="evenodd" clip-rule="evenodd" d="M2.867 28.578C0 28.578-.36 27.105.254 24.843 3.74 14.478 15.924.006 30.617.006h51.87c4.21 0 6.054.437 5.292 5.428L81.64 44.717c-4.424 19.188-28.506 29.229-34.383 29.15-1.655-.025-2.828-1.36-2.554-3.022l6.45-42.261H2.867v-.006z" fill="#0060AA"/><path d="M318.98 12.92c.118-.345.176-.716.176-1.114a.352.352 0 00-.039-.176.29.29 0 00-.143-.117.849.849 0 00-.261-.065 3.59 3.59 0 00-.41-.02c-.163 0-.287.007-.385.026a.678.678 0 00-.215.079c-.052.039-.091.078-.104.13a.504.504 0 00-.026.182c0 .222-.039.437-.104.626a1.368 1.368 0 01-.313.501 1.451 1.451 0 01-.508.326 1.98 1.98 0 01-.685.111c-.26 0-.495-.04-.697-.11a1.624 1.624 0 01-.515-.327 1.307 1.307 0 01-.319-.488 1.833 1.833 0 01-.104-.613.582.582 0 00-.026-.195c-.013-.059-.052-.098-.104-.137a.663.663 0 00-.222-.078 3.382 3.382 0 00-.788-.007 1.52 1.52 0 00-.261.065c-.065.033-.111.066-.137.118a.355.355 0 00-.032.176c0 .443.065.84.202 1.198.137.352.339.652.606.9.267.247.599.436.997.566.397.13.866.203 1.394.203.58 0 1.069-.072 1.472-.222.404-.156.73-.358.991-.619.254-.267.443-.567.56-.919zm1.049 12.85a.214.214 0 00.046-.138v-9.395a.28.28 0 00-.039-.144.247.247 0 00-.124-.104.726.726 0 00-.241-.059 2.917 2.917 0 00-.372-.019c-.143 0-.26.013-.351.02a1.04 1.04 0 00-.235.052.476.476 0 00-.169.097.955.955 0 00-.131.144l-4.033 5.512c-.182.241-.365.489-.528.743-.163.26-.325.515-.482.782l.001-.006c.019-.265.038-.53.051-.796.013-.267.02-.534.02-.808v-5.434c0-.104-.059-.182-.189-.234-.124-.053-.352-.079-.684-.079-.163 0-.293.014-.411.02a.814.814 0 00-.26.059c-.072.032-.118.058-.137.104a.274.274 0 00-.039.137v9.402c0 .045.013.098.039.137.019.045.065.078.124.104a.862.862 0 00.234.059c.098.013.222.02.378.02a2.4 2.4 0 00.332-.02.95.95 0 00.222-.046.505.505 0 00.15-.104c.039-.04.078-.091.124-.144l3.987-5.44c.189-.26.385-.528.574-.795a9.35 9.35 0 00.527-.821c-.019.267-.039.547-.052.827-.013.28-.019.56-.019.828v5.401c0 .046.019.098.039.137a.29.29 0 00.15.104c.071.026.156.046.273.06.111.012.248.019.417.019.163 0 .3-.007.417-.02.104-.02.196-.039.261-.059a.304.304 0 00.13-.104zm-11.337 0a.214.214 0 00.046-.138v-9.395a.348.348 0 00-.033-.144.268.268 0 00-.13-.104.689.689 0 00-.241-.059 2.874 2.874 0 00-.365-.019c-.15 0-.267.013-.359.02a1.042 1.042 0 00-.234.052.404.404 0 00-.163.097.685.685 0 00-.13.144l-4.04 5.512c-.183.241-.358.489-.528.743a81.2 81.2 0 00-.482.782c.026-.267.039-.533.052-.8v-.002c.02-.267.026-.534.026-.808v-5.434c0-.104-.065-.182-.189-.234-.124-.053-.358-.079-.691-.079-.156 0-.293.014-.41.02a.87.87 0 00-.261.059c-.065.032-.11.058-.136.104a.354.354 0 00-.039.137v9.402c0 .045.019.098.039.137a.249.249 0 00.123.104.88.88 0 00.235.059c.098.013.221.02.378.02a2.4 2.4 0 00.332-.02c.091-.007.163-.026.228-.046a.6.6 0 00.144-.104c.039-.04.078-.091.123-.144l3.988-5.44c.195-.26.384-.528.58-.795.189-.267.365-.54.528-.821-.026.267-.046.547-.053.827-.019.28-.019.56-.019.828v5.401c0 .046.013.098.039.137.026.046.078.078.143.104a1.3 1.3 0 00.274.06c.111.012.248.019.417.019.169 0 .306-.007.417-.02.111-.02.202-.039.261-.059a.31.31 0 00.13-.104zm-11.331-.014a.227.227 0 00.039-.137v-9.382a.248.248 0 00-.039-.144.337.337 0 00-.137-.104.807.807 0 00-.26-.059 3.74 3.74 0 00-.417-.019c-.17 0-.313.013-.43.02a.7.7 0 00-.261.058.59.59 0 00-.13.104.209.209 0 00-.046.144v3.818h-4.782v-3.818a.209.209 0 00-.046-.144.37.37 0 00-.13-.104.814.814 0 00-.261-.059 3.983 3.983 0 00-.43-.019c-.163 0-.306.013-.417.02a.645.645 0 00-.261.058c-.071.04-.117.072-.136.104a.248.248 0 00-.039.144v9.382c0 .052.013.105.039.137.019.04.065.072.136.098.059.033.15.052.261.065.111.013.254.02.417.02.17 0 .313-.007.43-.02.111-.02.196-.04.261-.065a.302.302 0 00.13-.098c.033-.032.046-.085.046-.137v-4.118h4.782v4.118c0 .052.013.105.046.137a.296.296 0 00.13.098.838.838 0 00.261.065c.117.013.26.02.43.02.163 0 .306-.007.417-.02.111-.02.195-.04.26-.065a.283.283 0 00.137-.098zm-21.234 0c.032-.032.045-.085.045-.137v-9.037c0-.208-.045-.358-.137-.463a.504.504 0 00-.384-.15h-6.867a.54.54 0 00-.398.15c-.091.098-.143.255-.143.463v9.037a.23.23 0 00.045.137c.02.04.066.072.137.098.059.033.15.052.261.065.111.013.247.02.417.02.163 0 .306-.007.417-.02.111-.02.202-.04.267-.065a.288.288 0 00.137-.098c.032-.032.045-.085.045-.137v-8.196h4.47v8.196c0 .052.013.105.039.137a.349.349 0 00.144.098.837.837 0 00.267.065c.111.013.254.02.43.02.163 0 .306-.007.41-.02.118-.02.196-.04.267-.065a.3.3 0 00.131-.098zm-10.419.091c.104-.058.15-.175.144-.325l-1.043-8.907c-.02-.228-.091-.391-.222-.495-.13-.105-.319-.157-.566-.157h-.815c-.195 0-.358.02-.495.059a.994.994 0 00-.352.176 1 1 0 00-.241.312c-.065.124-.13.274-.182.45l-1.388 3.968c-.072.228-.157.456-.235.704-.078.24-.156.482-.234.73-.072.247-.15.495-.215.73-.066.24-.124.468-.189.683h-.026c-.053-.208-.118-.43-.176-.658-.072-.234-.137-.469-.215-.703a12.174 12.174 0 00-.235-.73l-.234-.736-1.388-3.995a3.32 3.32 0 00-.196-.482 1.014 1.014 0 00-.254-.312.963.963 0 00-.371-.163 2.363 2.363 0 00-.515-.046h-.821c-.241 0-.43.059-.547.17-.124.117-.202.286-.235.508l-1.036 8.88a.49.49 0 000 .196c.013.052.046.091.104.13a.557.557 0 00.222.072c.104.013.241.02.417.02.182 0 .326-.007.436-.02a1.25 1.25 0 00.274-.046c.072-.026.117-.065.137-.117a.697.697 0 00.052-.202l.645-5.382c.013-.195.033-.404.059-.625.019-.222.045-.45.071-.678.02-.228.046-.456.066-.684.019-.235.039-.45.065-.652l.006-.24c.047.187.099.374.157.58l.019.07c.072.229.144.457.215.692.072.234.144.462.222.684.071.221.143.43.208.625l1.903 5.564a.594.594 0 00.104.215.434.434 0 00.156.13c.072.033.15.06.248.073.098.013.222.02.365.02.15 0 .274-.007.371-.02a.797.797 0 00.248-.072.482.482 0 00.163-.137c.032-.059.065-.13.098-.209l1.967-5.557c.065-.209.131-.417.202-.652.072-.228.157-.463.228-.69.085-.229.157-.457.228-.678.072-.222.137-.437.196-.639l.013.241.059.652c.019.228.032.456.058.684l.059.678c.019.221.039.436.065.625l.671 5.48c.007.059.026.11.052.15.026.045.072.071.131.09.065.027.149.04.26.047.111.013.254.013.424.013.319 0 .534-.026.638-.092zm-24.531-.045a.165.165 0 00.039-.111c0-.02 0-.046-.007-.085-.006-.026-.006-.052-.013-.09-.013-.04-.019-.08-.032-.118-.013-.046-.039-.091-.065-.137l-1.036-2.378a5.806 5.806 0 00-.424-.828 3.196 3.196 0 00-.495-.619 2.611 2.611 0 00-.574-.436 3.956 3.956 0 00-.671-.3v-.026a3.79 3.79 0 00.502-.202c.169-.085.339-.209.508-.365.17-.156.333-.352.495-.586.163-.235.32-.528.457-.873l.892-2.066c.039-.091.065-.17.085-.241.013-.072.019-.137.019-.195a.147.147 0 00-.032-.098c-.02-.033-.059-.059-.117-.078a1.323 1.323 0 00-.248-.046 3.617 3.617 0 00-.41-.02c-.189 0-.346.014-.457.02a.958.958 0 00-.28.059.466.466 0 00-.156.104.423.423 0 00-.072.143l-.873 2.157a3.919 3.919 0 01-.391.782c-.143.215-.3.39-.482.528a1.737 1.737 0 01-.606.293 2.731 2.731 0 01-.717.091h-.729v-3.929c0-.033-.02-.065-.059-.098a.356.356 0 00-.156-.078 1.755 1.755 0 00-.268-.046 3.395 3.395 0 00-.391-.019c-.143 0-.273.013-.384.02a1.717 1.717 0 00-.267.045.345.345 0 00-.156.078c-.027.033-.046.059-.046.098v9.526a.18.18 0 00.046.104.422.422 0 00.156.078c.065.02.156.04.267.053.111.013.241.02.384.02.15 0 .281-.007.391-.02a1.64 1.64 0 00.268-.053.354.354 0 00.156-.078c.039-.032.059-.065.059-.104v-4.222h.729c.3 0 .574.032.808.091.241.065.45.163.639.306.189.137.352.32.495.548.143.221.274.495.397.808l1.004 2.43a.315.315 0 00.072.13.37.37 0 00.169.098c.072.026.176.046.293.059.124.013.28.02.476.02.163 0 .306-.007.41-.02a1.61 1.61 0 00.261-.046c.072-.02.117-.046.137-.078zm-25.49-.046a.224.224 0 00.046-.137v-9.037c0-.208-.046-.358-.137-.463a.51.51 0 00-.391-.15h-6.867a.52.52 0 00-.391.15c-.098.098-.143.255-.143.463v9.037a.23.23 0 00.045.137c.02.04.065.065.13.098a.85.85 0 00.268.065c.11.013.254.02.417.02.162 0 .299-.007.417-.02a1.5 1.5 0 00.26-.065.279.279 0 00.144-.098c.032-.032.045-.085.045-.137v-8.196H214v8.196c0 .052.013.105.039.137a.429.429 0 00.143.098.844.844 0 00.268.065c.11.013.254.02.43.02.162 0 .306-.007.417-.02.104-.02.195-.04.254-.065a.284.284 0 00.136-.098zm-10.907 0a.23.23 0 00.046-.137v-9.037c0-.208-.046-.358-.137-.463a.504.504 0 00-.384-.15h-6.874a.53.53 0 00-.391.15c-.092.098-.144.255-.144.463v9.037c0 .052.013.105.039.137a.288.288 0 00.137.098c.065.033.15.052.267.065.111.013.248.02.411.02.169 0 .306-.007.423-.02.111-.02.196-.04.268-.065a.284.284 0 00.136-.098c.033-.032.046-.085.046-.137v-8.196h4.463v8.196c0 .052.02.105.046.137a.345.345 0 00.143.098c.065.033.15.052.261.065.117.013.26.02.43.02.169 0 .313-.007.417-.02.111-.02.195-.04.26-.065a.283.283 0 00.137-.098zm-14.315 3.577l1.245-3.453 3.375-9.343c.033-.124.059-.229.059-.313a.237.237 0 00-.092-.202.535.535 0 00-.273-.098 4.57 4.57 0 00-.482-.026 3.47 3.47 0 00-.509.026.552.552 0 00-.26.085c-.065.039-.118.123-.157.254l-2.58 7.571h-.032l-2.685-7.532a1.193 1.193 0 00-.098-.209.277.277 0 00-.149-.117.959.959 0 00-.281-.059 4.857 4.857 0 00-.488-.019c-.215 0-.378.007-.502.026a.607.607 0 00-.274.098.263.263 0 00-.084.202c0 .078.026.202.084.345l3.349 8.966c.02.071.059.136.111.202.059.065.117.11.183.136l-1.297 3.265a.556.556 0 00-.052.247.228.228 0 00.098.17.574.574 0 00.254.091c.11.02.26.026.436.026.352 0 .613-.026.782-.085.169-.058.274-.143.319-.254zm-13.937-15.82c.013-.091.02-.208.02-.339 0-.273-.026-.469-.085-.592-.058-.124-.15-.19-.267-.19h-6.222a.687.687 0 00-.476.183c-.13.117-.196.306-.196.547V25.62c0 .052.02.105.046.137a.28.28 0 00.143.098.936.936 0 00.287.065c.117.013.254.02.424.02.176 0 .319-.007.43-.02.117-.02.208-.04.28-.065a.275.275 0 00.143-.098.23.23 0 00.046-.137V13.937h5.095c.052 0 .104-.02.15-.046a.396.396 0 00.117-.137.748.748 0 00.065-.24z" fill="#0060AA"/><path fill-rule="evenodd" clip-rule="evenodd" d="M185.22 20.778c0 .821-.091 1.557-.267 2.209a4.94 4.94 0 01-.782 1.668 3.626 3.626 0 01-1.277 1.055c-.508.248-1.088.372-1.746.372a3.18 3.18 0 01-.769-.085 2.798 2.798 0 01-.691-.26 3.79 3.79 0 01-.671-.45 8.646 8.646 0 01-.71-.639v4.692a.244.244 0 01-.045.15.375.375 0 01-.131.104.796.796 0 01-.26.065 6.845 6.845 0 01-.847 0 .945.945 0 01-.261-.065.28.28 0 01-.143-.104.355.355 0 01-.033-.15V16.237c0-.065.006-.111.033-.15.019-.04.058-.072.123-.098a.78.78 0 01.241-.059l.079-.005a3.06 3.06 0 01.632.006.681.681 0 01.234.058.267.267 0 01.131.098.257.257 0 01.039.15V17.5a7.89 7.89 0 01.827-.763c.261-.215.521-.397.795-.54a3.64 3.64 0 01.821-.326c.28-.072.58-.11.893-.11.677 0 1.257.13 1.739.397.483.267.867.625 1.173 1.081.3.456.521.99.658 1.603.144.613.215 1.258.215 1.935zm-1.922-1.192c.072.45.104.912.104 1.394 0 .437-.045.873-.136 1.297-.092.43-.228.82-.417 1.166-.196.352-.45.632-.75.84-.313.21-.684.313-1.114.313-.463 0-.912-.156-1.336-.462-.423-.306-.873-.743-1.342-1.323v-3.733c.267-.34.521-.626.769-.86.241-.229.476-.418.697-.56a3.14 3.14 0 01.658-.314c.215-.065.437-.097.658-.097.443 0 .815.104 1.115.313.299.208.534.488.716.834.176.345.3.742.378 1.192zm42.489 6.046a.233.233 0 01-.091.19.592.592 0 01-.222.097 2.3 2.3 0 01-.43.033c-.182 0-.326-.013-.43-.033a.556.556 0 01-.241-.098c-.046-.039-.072-.104-.072-.189v-.938c-.41.437-.866.782-1.368 1.023a3.659 3.659 0 01-1.603.365c-.489 0-.938-.065-1.336-.195a2.827 2.827 0 01-1.023-.56 2.603 2.603 0 01-.658-.9 2.986 2.986 0 01-.234-1.212c0-.534.11-.99.319-1.375.221-.39.528-.71.932-.97.404-.261.899-.45 1.479-.58a9.122 9.122 0 011.974-.196h1.29v-.73c0-.358-.039-.684-.111-.957a1.642 1.642 0 00-.371-.691 1.61 1.61 0 00-.665-.417c-.267-.098-.599-.137-.997-.137-.43 0-.807.052-1.14.15a7.183 7.183 0 00-.892.332 7.257 7.257 0 00-.632.339c-.176.098-.3.15-.385.15a.261.261 0 01-.143-.04.318.318 0 01-.111-.13.937.937 0 01-.072-.215 1.927 1.927 0 01-.019-.286c0-.176.019-.313.039-.41a.65.65 0 01.176-.287c.098-.092.26-.196.488-.32a5.35 5.35 0 01.789-.332c.3-.098.625-.182.984-.248.352-.071.71-.097 1.075-.097.671 0 1.244.078 1.713.234.476.15.861.378 1.147.671.293.294.508.665.639 1.102.13.436.202.944.202 1.53v6.327zm-3.186-4.287h1.472v2c-.423.47-.827.821-1.212 1.05a2.434 2.434 0 01-1.257.345c-.554 0-.991-.15-1.297-.437-.313-.293-.463-.678-.463-1.166 0-.287.053-.534.157-.756a1.53 1.53 0 01.508-.56c.228-.157.521-.28.86-.359a5.726 5.726 0 011.232-.117zm29.079-.521c0 .769-.098 1.472-.3 2.11a4.72 4.72 0 01-.899 1.669 4.003 4.003 0 01-1.505 1.088c-.599.26-1.297.39-2.085.39-.775 0-1.447-.116-2.02-.344a3.595 3.595 0 01-1.433-1.004 4.315 4.315 0 01-.854-1.596c-.189-.62-.28-1.336-.28-2.124 0-.77.098-1.473.293-2.111.202-.645.495-1.2.899-1.668a4.123 4.123 0 011.492-1.082c.6-.26 1.297-.384 2.098-.384.769 0 1.44.117 2.014.345.573.228 1.055.56 1.44 1.003.384.437.664.971.86 1.597.189.619.28 1.322.28 2.11zm-1.955-1.33c.098.457.144.939.144 1.44 0 .548-.053 1.043-.163 1.493-.111.45-.287.84-.528 1.166a2.4 2.4 0 01-.906.762c-.365.176-.801.267-1.303.267-.547 0-1.003-.097-1.375-.293a2.387 2.387 0 01-.879-.808 3.28 3.28 0 01-.469-1.18 7.211 7.211 0 01-.137-1.446c0-.534.052-1.023.169-1.479.111-.45.287-.84.528-1.172.234-.333.534-.593.899-.77.365-.182.802-.273 1.31-.273.547 0 1.003.104 1.375.3.371.195.658.462.879.808.209.339.365.736.456 1.186zm36.501 6.138a.247.247 0 01-.085.19.664.664 0 01-.228.097 2.3 2.3 0 01-.43.033 2.48 2.48 0 01-.436-.033c-.105-.026-.183-.052-.228-.098-.053-.039-.072-.104-.072-.189v-.938a4.755 4.755 0 01-1.375 1.023 3.651 3.651 0 01-1.596.365c-.502 0-.945-.065-1.342-.195a2.87 2.87 0 01-1.023-.56 2.593 2.593 0 01-.659-.9c-.156-.358-.228-.756-.228-1.212 0-.534.105-.99.32-1.375.215-.39.528-.71.925-.97.404-.261.899-.45 1.479-.58a9.129 9.129 0 011.974-.196h1.29v-.73c0-.358-.039-.684-.117-.957a1.623 1.623 0 00-.365-.691 1.569 1.569 0 00-.664-.417c-.268-.098-.606-.137-.997-.137-.43 0-.808.052-1.147.15a7.07 7.07 0 00-.886.332 7.407 7.407 0 00-.632.339c-.17.098-.3.15-.385.15a.279.279 0 01-.143-.04.318.318 0 01-.111-.13.895.895 0 01-.071-.215 1.92 1.92 0 01-.02-.286c0-.176.013-.313.039-.41a.61.61 0 01.183-.287c.091-.092.247-.196.482-.32a5.29 5.29 0 01.788-.332c.3-.098.626-.182.984-.248.352-.071.71-.097 1.075-.097.671 0 1.245.078 1.72.234.469.15.854.378 1.14.671.294.294.509.665.639 1.102.13.436.202.944.202 1.53v6.327zm-3.18-4.287h1.466v2c-.423.47-.827.821-1.212 1.05-.39.227-.807.345-1.257.345-.554 0-.99-.15-1.297-.437-.312-.293-.462-.678-.462-1.166 0-.287.052-.534.156-.756a1.53 1.53 0 01.508-.56c.228-.157.515-.28.867-.359a5.639 5.639 0 011.231-.117z" fill="#0060AA"/><path d="M179.239 72.78V46.098h5.662c4.196 0 7.708-3.922 8.685-7.089.209-.697.15-1.075-.801-1.075H163.66c-4.203 0-7.708 3.922-8.685 7.09-.209.69-.157 1.074.794 1.074h13.775v26.688c0 .717.391 1.075 1.179 1.075h7.284c.587 0 .932-.078 1.056-.234.117-.156.176-.437.176-.847zm74.213.873c.124-.137.183-.41.183-.821v-9.545h7.441v9.545c0 .684.391 1.03 1.179 1.03h6.828c.58 0 .932-.072 1.049-.21.124-.136.183-.41.183-.82V47.936c0-.41-.059-.684-.183-.821-.117-.137-.469-.209-1.049-.209h-6.828c-.788 0-1.179.346-1.179 1.03v8.261h-7.441v-8.261c0-.41-.059-.684-.183-.821-.117-.137-.469-.209-1.049-.209h-6.828c-.789 0-1.18.346-1.18 1.03v24.896c0 .684.391 1.03 1.18 1.03h6.828c.58 0 .932-.072 1.049-.21zm-29.535-1.283l3.342-6.314 3.284 6.313c.274.483.554.854.847 1.108.287.254.756.384 1.408.384h7.343c.508 0 .827-.13.951-.384.117-.26.059-.56-.182-.9l-8.575-12.933 7.806-11.754c.137-.209.169-.41.104-.619-.072-.202-.293-.306-.671-.306h-7.799c-.587 0-1.017.084-1.31.234-.293.157-.554.47-.795.952l-2.411 5.134-2.469-5.134c-.235-.483-.502-.795-.795-.952-.287-.156-.723-.234-1.31-.234h-7.799c-.378 0-.599.104-.664.306-.072.209-.04.41.097.619l7.754 11.754-8.523 12.934c-.241.339-.299.645-.176.899.118.254.431.384.945.384h7.343c.645 0 1.121-.13 1.408-.384.293-.26.58-.632.847-1.108z" fill="#0060AA"/><path fill-rule="evenodd" clip-rule="evenodd" d="M199.926 46.144c4.105 0 7.22.99 9.344 2.977 2.117 1.988 3.179 4.965 3.179 8.933 0 1.78-.254 3.024-.769 3.747-.514.717-1.42 1.075-2.723 1.075h-12.471c.032.788.169 1.434.41 1.929.241.495.574.88 1.004 1.153.423.274.932.45 1.511.54a14.716 14.716 0 004.75-.156 23.983 23.983 0 002.997-.795c.483-.169.808-.221.978-.156.176.065.326.241.462.515l1.903 4.671c.137.346.156.6.046.77-.098.169-.287.338-.561.514-.612.41-1.322.782-2.13 1.108-.802.326-1.642.6-2.515.82-.873.222-1.747.385-2.62.49-.873.104-1.668.156-2.384.156-4.822 0-8.308-1.134-10.445-3.388-2.137-2.261-3.206-5.786-3.206-10.575 0-4.548 1.134-8.073 3.408-10.575 2.28-2.509 5.551-3.753 9.832-3.753zm-2.078 8.49c.736-.6 1.531-.9 2.384-.9 1.199 0 2.014.352 2.444 1.056.423.704.671 1.603.736 2.698h-6.874c.137-1.304.573-2.255 1.31-2.854zm102.393 5.623c0 4.443-1.114 7.923-3.336 10.418-2.222 2.496-5.662 3.747-10.321 3.747-2.423 0-4.495-.332-6.209-1.004-1.707-.67-3.101-1.609-4.183-2.827-1.075-1.212-1.864-2.691-2.359-4.438-.495-1.746-.743-3.694-.743-5.85 0-2.157.287-4.105.874-5.852.579-1.746 1.433-3.232 2.56-4.463 1.134-1.231 2.548-2.183 4.235-2.847 1.694-.665 3.656-1.004 5.878-1.004 4.521 0 7.916 1.258 10.19 3.773 2.274 2.515 3.414 5.968 3.414 10.347zm-13.604-6.21c2.567 0 3.85 2.105 3.85 6.314 0 1.948-.326 3.46-.971 4.548-.651 1.075-1.609 1.616-2.879 1.616-1.265 0-2.222-.489-2.874-1.466-.645-.971-.971-2.587-.971-4.848 0-4.111 1.277-6.164 3.845-6.164zm21.482 23.802c-.17 1.075-1.721 2.346-6.36 3.395-.599.136-.925-.248-.925-.873l-.619-11.807c-.065-1.316.528-2.072 1.851-2.209l1.844-.202a5.355 5.355 0 001.257-1.59c.326-.618.586-1.25.775-1.902a13.45 13.45 0 00.411-1.896c.078-.574.151-1.07.214-1.492l.014-.098 1.284-9.65c.358-2.32 1.348-3.081 3.746-3.081h14.321c2.424 0 3.336.996 3.336 3.388v16.27l1.949.201c1.335.137 1.863.906 1.798 2.21l-.762 9.05c.019.885-1.597 3.1-6.268 3.68-1.056.128-1.067-.208-1.095-1.075l-.007-.201-.234-6.575h-16.016l-.514 4.457zm11.806-11.591h-6.672c1.587-2.945 1.935-6.42 2.271-9.772.091-.913.182-1.818.296-2.7h4.105v12.472zm39.947 3.336c0 .475-.052.899-.156 1.257-.104.359-.476.71-1.127 1.056-.788.378-1.655.697-2.593.977-.939.274-1.909.495-2.9.665a29.06 29.06 0 01-3.003.358c-1.01.065-1.955.104-2.848.104-2.359 0-4.346-.215-5.955-.638-1.609-.43-2.9-1.023-3.877-1.799-.971-.768-1.668-1.687-2.078-2.743-.411-1.062-.613-2.209-.613-3.44 0-3.01.938-5.29 2.821-6.854 1.883-1.558 4.398-2.34 7.546-2.34h5.596v-.716c0-.241-.039-.515-.104-.821a1.927 1.927 0 00-.488-.873c-.255-.274-.619-.495-1.076-.671-.469-.17-1.068-.255-1.824-.255-.476 0-1.023.027-1.642.079-.619.052-1.27.11-1.955.176-.684.065-1.355.156-2.026.26-.665.104-1.271.222-1.818.358-.482.137-.808.137-.977 0-.17-.136-.293-.39-.359-.768l-.977-4.411c-.104-.483-.104-.795 0-.952.104-.156.293-.28.567-.384a29.926 29.926 0 014.978-1.206c1.674-.254 3.486-.384 5.441-.384 3.902 0 6.782.795 8.646 2.385 1.87 1.59 2.801 4.026 2.801 7.317v14.263zm-12.268-7.956h3.029v4.574c-.41.209-.951.345-1.616.41-.671.072-1.12.105-1.361.105-.991 0-1.792-.19-2.385-.567-.606-.378-.899-.977-.899-1.798 0-.587.098-1.056.306-1.414.209-.359.463-.632.769-.821a3.162 3.162 0 011.023-.385 6.114 6.114 0 011.134-.104zm17.67 22.329c-.71.15-1.179-.221-1.179-.925V50.034c0-.41.078-.77.234-1.075.15-.307.502-.6 1.049-.873 1.61-.789 3.499-1.343 5.669-1.669a42.175 42.175 0 016.242-.488c2.665 0 4.88.371 6.646 1.107 1.759.737 3.153 1.727 4.183 2.978 1.023 1.251 1.753 2.73 2.183 4.444.423 1.707.638 3.538.638 5.492 0 1.916-.234 3.72-.691 5.415-.462 1.694-1.192 3.167-2.182 4.418-.991 1.244-2.261 2.234-3.799 2.951-1.544.724-3.368 1.082-5.493 1.082-1.127 0-2.065-.046-2.795-.13a43.368 43.368 0 01-2.541-.385l-.019 6.216c.065.521-2.014 3.154-8.145 4.45zm14.654-28.955c.873.788 1.309 2.313 1.309 4.567 0 2.157-.397 3.74-1.205 4.744-.808 1.01-1.922 1.518-3.362 1.518-.306 0-.769-.026-1.388-.078a10.182 10.182 0 01-1.844-.333V54.19a8.464 8.464 0 011.564-.28 15.21 15.21 0 011.257-.078c1.577 0 2.796.391 3.669 1.18z" fill="#0060AA"/><path fill-rule="evenodd" clip-rule="evenodd" d="M97.754 0h43.108c3.342 0 3.518 1.33 2.795 3.76-3.414 11.09-15.703 24.811-30.396 24.811h-20.25c-2.079 0-3.35-.684-3.01-2.88l3.342-21.88C93.864.425 95.395 0 97.754 0z" fill="#B62C2C"/></svg>