<svg width="197" height="202" fill="none" xmlns="http://www.w3.org/2000/svg"><g clip-path="url(#clip0)" stroke-width=".7" stroke-miterlimit="10"><path d="M13.394 72.836c-.408-.327-.816-.573-1.225-.819h-.081c-1.144-.41-2.532-.328-4.002.41C3.839 74.72.245 81.767.245 88.238c0 3.933 1.307 6.718 3.349 7.701l9.474 6.144 8.739-23.84-8.413-5.407z" fill="#fff" stroke="#323232"/><path d="M61.745 117.567c0-19.006-10.944-39.57-23.849-45.55-4.573-2.13-8.657-2.13-12.087-.41l-16.58 7.21 7.432 18.843c1.062 11.305 5.8 23.102 12.415 31.459l6.697 17.122 15.273-6.636c.49-.164.898-.328 1.388-.573l.082-.082c5.554-2.95 9.229-10.405 9.229-21.383z" fill="#fff" stroke="#323232"/><path d="M45.574 124.531c0 19.006-10.945 27.609-23.849 19.662C9.637 136.656.245 116.994.245 99.871c0-17.122 9.392-26.625 21.562-20.89 12.822 5.98 23.767 26.543 23.767 45.55z" fill="#fff" stroke="#323232"/><path d="M42.062 123.22c0 16.959-9.801 24.659-21.235 17.532-10.863-6.718-19.275-24.25-19.275-39.57s8.412-23.758 19.193-18.678c11.516 5.406 21.317 23.758 21.317 40.716z" stroke="#979797" stroke-linecap="round" stroke-linejoin="round" stroke-dasharray="2 2"/><path d="M59.131 109.375c-.408-.328-.816-.574-1.225-.819h-.081c-1.144-.492-2.532-.328-3.92.409-4.33 2.212-7.841 9.34-7.841 15.812 0 3.932 1.306 6.717 3.348 7.701l9.393 6.062 8.739-23.84-8.413-5.325z" fill="#fff" stroke="#323232" stroke-linecap="round" stroke-linejoin="round"/><path d="M70.647 122.319c0 6.308-3.348 13.272-7.595 15.729-4.329 2.458-7.841-.819-7.841-7.291s3.512-13.599 7.84-15.811c4.166-2.294 7.596 1.065 7.596 7.373z" fill="#fff" stroke="#323232"/><path d="M64.358 114.372a5.68 5.68 0 00-1.388.492c-4.329 2.212-7.84 9.339-7.84 15.811 0 1.393.163 2.622.49 3.605 1.224 1.475 3.103 1.802 5.227.655 3.675-2.13 6.697-8.274 6.697-13.763 0-3.523-1.307-5.981-3.186-6.8z" fill="#979797" stroke="#323232"/><path d="M22.95 114.044c0 2.868-1.633 4.179-3.593 2.95-1.797-1.147-3.267-4.096-3.267-6.636s1.388-4.014 3.267-3.113c1.96.901 3.593 3.932 3.593 6.799z" fill="#F05A46" stroke="#323232"/></g><path d="M89.951 69.314l.82-2.457-4.37-2.184c-.274-.273-.82-.273-1.093-.546-1.912-.546-4.097-.273-6.556 1.092-7.375 4.368-13.384 17.198-13.384 28.663 0 6.278 1.912 10.919 4.644 12.83l1.638.819 4.37 2.184.82-2.457 1.64-.819c7.1-4.641 13.11-17.198 13.11-28.663 0-3.276-.546-6.278-1.639-8.462z" fill="#fff" stroke="#323232" stroke-width=".7" stroke-miterlimit="10" stroke-linecap="round" stroke-linejoin="round"/><path d="M96.234 80.233c0 11.192-5.736 24.022-13.111 28.662-7.375 4.641-13.385-.819-13.385-12.557s6.01-24.568 13.385-28.662c7.375-4.368 13.11 1.092 13.11 12.557z" fill="#fff" stroke="#323232" stroke-width=".7" stroke-miterlimit="10"/><path d="M116.67 14.103l-9.014 4.367V5.64l9.014-4.367v12.83z" fill="#F05A46" stroke="#323232" stroke-width=".7" stroke-miterlimit="10" stroke-linecap="round" stroke-linejoin="round"/><path d="M149.994 33.757c0-12.83-7.375-26.479-16.116-30.573-3.004-1.365-5.736-1.365-8.194-.273l-.546.273-8.741 4.094 2.458 6.279c-.273 1.638-.546 3.276-.546 5.186 0 11.738 6.009 24.295 13.931 29.482l2.185 5.186 8.467-3.821c4.097-2.184 7.102-7.917 7.102-15.833z" fill="#fff" stroke="#323232" stroke-width=".7" stroke-miterlimit="10" stroke-linecap="round" stroke-linejoin="round"/><path d="M124.641 190.789c-20.759-12.557-33.324-35.214-33.324-59.236V102.89c0-2.457 2.458-3.822 4.644-2.73l67.74 37.398c1.639.819 2.732 2.73 2.732 4.641v25.387c-.274 21.292-23.764 34.395-41.792 23.203z" fill="#fff" stroke="#323232" stroke-width=".7" stroke-miterlimit="10"/><path d="M121.637 192.699c-20.76-12.556-33.324-34.941-33.324-59.236v-28.389c0-2.457 2.458-3.822 4.643-2.73l67.468 37.398c1.638.819 2.731 2.73 2.731 4.64v25.387c0 21.02-23.491 34.123-41.518 22.93z" fill="#fff" stroke="#323232" stroke-width=".7" stroke-miterlimit="10"/><path d="M117.266 194.884c-20.486-12.557-33.05-35.215-33.05-59.237v-28.662c0-2.457 2.458-3.822 4.643-2.73l67.74 37.398c1.639.819 2.732 2.73 2.732 4.641v25.386c-.273 21.293-23.764 34.396-42.065 23.204z" fill="#fff" stroke="#323232" stroke-width=".7" stroke-miterlimit="10"/><path d="M113.715 197.067c-20.486-12.83-33.324-35.214-33.324-59.236v-28.663c0-2.457 2.458-3.821 4.644-2.729l67.74 37.397c1.639.819 2.732 2.73 2.732 4.641v25.114c0 21.292-23.491 34.395-41.792 23.476z" fill="#fff" stroke="#323232" stroke-width=".7" stroke-miterlimit="10"/><path d="M92.137 77.776c-1.366-.819-3.278-.819-5.19.273-4.917 2.73-8.741 11.192-8.741 18.835 0 4.641 1.639 7.917 3.824 9.009l76.755 42.584 9.833-28.39-76.481-42.311z" fill="#fff" stroke="#323232" stroke-width=".7" stroke-miterlimit="10" stroke-linecap="round" stroke-linejoin="round"/><path d="M171.896 128.823c0 7.37-3.824 15.56-8.468 18.562-4.917 3.003-8.741-.546-8.741-8.189s3.824-16.106 8.741-18.835c4.644-2.73 8.468 1.091 8.468 8.462z" fill="#fff" stroke="#323232" stroke-width=".7" stroke-miterlimit="10"/><path d="M165.067 128.277c-.546 0-1.093 0-1.912.273-1.912 1.092-3.278 4.367-3.278 7.37 0 2.184.82 3.549 1.912 3.549l19.94 8.189 3.551-9.281-20.213-10.1z" fill="#fff" stroke="#323232" stroke-width=".7" stroke-miterlimit="10" stroke-linecap="round" stroke-linejoin="round"/><path d="M189.923 123.909l.82-2.456-4.371-2.184c-.273-.273-.819-.546-1.092-.546-1.912-.546-4.097-.273-6.556 1.092-7.375 4.367-13.384 17.197-13.384 28.662 0 6.279 1.912 10.919 4.644 12.83l1.639.819 4.37 2.184.819-2.457 1.639-.819c7.102-4.64 13.111-17.197 13.111-28.662-.273-3.276-.819-6.279-1.639-8.463z" fill="#fff" stroke="#323232" stroke-width=".7" stroke-miterlimit="10" stroke-linecap="round" stroke-linejoin="round"/><path d="M196.206 134.828c0 11.192-5.736 24.022-13.111 28.663-7.375 4.64-13.385-.819-13.385-12.557s6.01-24.568 13.385-28.663c7.102-4.367 13.111 1.365 13.111 12.557z" fill="#fff" stroke="#323232" stroke-width=".7" stroke-miterlimit="10"/><path d="M130.327 82.893l-13.384.546v17.471c.273.819.82 1.365 1.912 2.184 2.732 1.365 7.102 1.365 9.56 0 .82-.546 1.366-1.092 1.639-1.638h.273V82.893z" fill="#fff" stroke="#323232" stroke-width=".7" stroke-miterlimit="10" stroke-linecap="round" stroke-linejoin="round"/><path d="M132.786 83.44c4.916-2.457 4.643-6.825-.273-9.282-4.917-2.457-13.111-2.457-18.028 0-4.917 2.457-4.917 6.552.273 9.281 4.917 2.73 13.111 2.73 18.028 0z" fill="#fff" stroke="#323232" stroke-width=".7" stroke-miterlimit="10"/><path d="M132.786 80.982c4.916-2.457 4.643-6.824-.273-9.281-4.917-2.457-13.111-2.457-18.028 0-4.917 2.457-4.917 6.552.273 9.281 4.917 2.457 13.111 2.457 18.028 0z" fill="#fff" stroke="#323232" stroke-width=".7" stroke-miterlimit="10"/><path d="M132.786 79.89c4.916-2.456 4.643-6.824-.273-9.28-4.917-2.458-13.111-2.458-18.028 0-4.917 2.456-4.917 6.55.273 9.28 4.917 2.457 13.111 2.457 18.028 0z" fill="#F05A46" stroke="#323232" stroke-width=".7" stroke-miterlimit="10"/><path d="M132.786 77.433c4.916-2.456 4.643-6.824-.273-9.28-4.917-2.458-13.111-2.458-18.028 0-4.917 2.456-4.917 6.55.273 9.28 4.917 2.457 13.111 2.457 18.028 0z" fill="#F05A46" stroke="#323232" stroke-width=".7" stroke-miterlimit="10"/><path d="M85.58 36.01l-1.092-.546v5.46l1.093.546v-5.46zm-5.735 2.457l3.824 1.911v-5.46l-3.824-1.91v5.46z" fill="#979797"/><path d="M189.104 139.196c0 5.187-2.731 11.192-6.009 13.376-3.551 1.911-6.283-.546-6.283-6.006 0-5.459 2.732-11.465 6.283-13.375 3.278-1.911 6.009.818 6.009 6.005z" fill="#979797" stroke="#323232" stroke-width=".7" stroke-miterlimit="10"/><path d="M185.826 141.107c0 2.456-1.366 5.459-3.005 6.551-1.638 1.092-3.004-.273-3.004-2.73 0-2.729 1.366-5.459 3.004-6.551 1.639-1.365 3.005 0 3.005 2.73z" fill="#979797" stroke="#323232" stroke-width=".7" stroke-miterlimit="10"/><path d="M142.073 37.306c0-12.83-7.375-26.479-16.116-30.573-3.005-1.365-6.009-1.365-8.468-.273h-.546l-8.194 4.094 1.912 5.46c-.273 1.91-.547 3.821-.547 6.005 0 11.192 5.463 23.203 12.838 28.663l2.459 6.824 8.467-4.367c.82-.273 1.366-.546 1.912-1.092 4.098-2.184 6.283-7.37 6.283-14.741z" fill="#F05A46" stroke="#323232" stroke-width=".7" stroke-miterlimit="10" stroke-linecap="round" stroke-linejoin="round"/><path d="M130.327 53.412l-13.384.546v17.471c.273.818.82 1.364 1.912 2.183 2.732 1.365 7.102 1.365 9.56 0 .82-.546 1.639-.819 1.912-1.638V53.411z" fill="#F05A46" stroke="#323232" stroke-width=".7" stroke-miterlimit="10" stroke-linecap="round" stroke-linejoin="round"/><path d="M125.46 54.027c2.732-1.365 2.459-3.549-.273-4.914-2.731-1.365-6.828-1.365-9.56 0-2.731 1.365-2.458 3.549 0 4.914 3.005 1.365 7.375 1.365 9.833 0z" fill="#fff" stroke="#323232" stroke-width=".7" stroke-miterlimit="10"/><path d="M133.332 41.947c0-12.83-7.375-26.48-16.116-30.574-3.004-1.365-5.736-1.365-8.194-.273h-.273s-.273 0-.273.273L84.712 22.565l16.935 46.68 24.31-11.466c4.37-1.91 7.375-7.643 7.375-15.832z" fill="#fff" stroke="#323232" stroke-width=".7" stroke-miterlimit="10" stroke-linecap="round" stroke-linejoin="round"/><path d="M109.022 53.411c0 12.83-7.375 19.655-16.116 15.287-8.74-4.367-15.57-17.743-15.57-30.3 0-12.557 6.83-19.382 15.57-15.56 9.014 3.822 16.116 17.47 16.116 30.573z" fill="#fff" stroke="#323232" stroke-width=".7" stroke-miterlimit="10"/><path d="M103.286 51.228c0 9.008-5.19 13.922-11.472 10.919-6.01-3.003-10.926-12.557-10.926-21.565 0-9.009 4.916-13.922 10.926-10.92 6.282 2.73 11.472 12.285 11.472 21.566z" fill="#fff" stroke="#323232" stroke-width=".7" stroke-miterlimit="10"/><path d="M102.466 55.322L81.707 44.676V37.58l20.759 10.373v7.37z" fill="#979797" stroke="#323232" stroke-width=".7" stroke-miterlimit="10"/><path d="M140.434 12.192L116.67 1l-9.014 4.368 23.764 11.465 9.014-4.64z" fill="#F05A46" stroke="#323232" stroke-width=".7" stroke-miterlimit="10" stroke-linecap="round" stroke-linejoin="round"/><path d="M140.434 25.295l-9.014 4.64V16.833l9.014-4.641v13.103z" fill="#F05A46" stroke="#323232" stroke-width=".7" stroke-miterlimit="10" stroke-linecap="round" stroke-linejoin="round"/><path d="M121.04 120.291c0-3.549-1.912-7.37-4.37-8.735-1.093-.546-1.912-.546-2.458-.273l-11.472 7.097 5.736 12.284 11.199-6.824c.819-.273 1.365-1.638 1.365-3.549z" fill="#fff" stroke="#323232" stroke-width=".7" stroke-miterlimit="10" stroke-linecap="round" stroke-linejoin="round"/><path d="M110.114 127.116c0 3.548-1.912 5.186-4.37 3.821-2.458-1.365-4.37-5.186-4.37-8.462s1.912-5.187 4.37-3.822c2.458 1.092 4.37 4.914 4.37 8.463z" fill="#fff" stroke="#323232" stroke-width=".7" stroke-miterlimit="10"/><path d="M133.878 72.52c-.546.273-1.365.273-1.638 0-.547-.273-.547-.546 0-.819.546-.273 1.365-.273 1.638 0 .547.273.547.546 0 .82zm-9.56 4.64c-.546.274-1.366.274-1.639 0-.546-.272-.546-.545 0-.818.546-.273 1.366-.273 1.639 0 .546.273.546.546 0 .819zm-9.287-5.186c-.546.273-1.365.273-1.639 0-.546-.273-.546-.546 0-.819.547-.273 1.366-.273 1.639 0 .273.273.273.546 0 .82z" fill="#F05A46" stroke="#323232" stroke-width=".7" stroke-miterlimit="10"/><path d="M139.888 16.832l-1.639-.819c-.273-.273-.547-.273-.82-.546-.546 0-.819 0-1.365.274-1.912.818-3.551 4.094-3.551 6.824 0 1.638.546 2.73 1.365 3.276h.274l2.185 1.092.546-1.638c1.366-1.365 2.458-3.822 2.458-6.006v-.819l.547-1.638z" fill="#F05A46" stroke="#323232" stroke-width=".7" stroke-miterlimit="10" stroke-linecap="round" stroke-linejoin="round"/><path d="M141.254 20.381c0 2.73-1.639 5.733-3.551 6.825-1.912 1.092-3.551-.546-3.551-3.276 0-2.73 1.639-5.732 3.551-6.824 1.912-1.092 3.551.545 3.551 3.275z" fill="#F05A46" stroke="#323232" stroke-width=".7" stroke-miterlimit="10"/><path d="M139.615 18.743c-.547-.273-.82-.273-1.366 0-1.366.546-2.458 2.73-2.458 4.64 0 1.366.546 2.185 1.092 2.458l6.556 3.002 2.458-7.097-6.282-3.003z" fill="#F05A46" stroke="#323232" stroke-width=".7" stroke-miterlimit="10" stroke-linecap="round" stroke-linejoin="round"/><path d="M146.716 19.016l-4.37 1.911-1.912 6.279 1.912 4.094 4.37-1.91 1.912-6.279-1.912-4.095z" fill="#F05A46" stroke="#323232" stroke-width=".7" stroke-miterlimit="10" stroke-linecap="round" stroke-linejoin="round"/><path d="M146.989 23.93c0 1.91-1.092 3.822-2.458 4.64-1.366.546-2.458-.272-2.458-2.183 0-1.911 1.092-4.095 2.458-4.64 1.366-.547 2.458.272 2.458 2.183z" fill="#F05A46" stroke="#323232" stroke-width=".7" stroke-miterlimit="10"/><path d="M142.346 31.3l-1.366-.546-1.912-4.094 1.366.546 1.912 4.094z" fill="#F05A46" stroke="#323232" stroke-width=".7" stroke-miterlimit="10" stroke-linecap="round" stroke-linejoin="round"/><path d="M140.434 27.206l1.912-6.279-1.366-.546-1.912 6.279 1.366.546z" fill="#F05A46" stroke="#323232" stroke-width=".7" stroke-miterlimit="10" stroke-linecap="round" stroke-linejoin="round"/><path d="M142.346 20.927l4.37-1.91-1.365-.82-4.371 2.184 1.366.546z" fill="#F05A46" stroke="#323232" stroke-width=".7" stroke-miterlimit="10" stroke-linecap="round" stroke-linejoin="round"/><path d="M137.752 165.948L91.59 138.65v-3.549l46.162 27.298v3.549zm0 19.108L91.59 157.758v-3.275l46.162 27.024v3.549z" fill="#fff" stroke="#323232" stroke-width=".7" stroke-miterlimit="10" stroke-linecap="round" stroke-linejoin="round"/><defs><clipPath id="clip0"><path fill="#fff" transform="translate(0 70.05)" d="M0 0h70.892v77.337H0z"/></clipPath></defs></svg>