<svg width="1440" height="810" fill="none" xmlns="http://www.w3.org/2000/svg"><path d="M399.333 559.667c-.733 0-1.333.6-1.333 1.333s.6 1.333 1.333 1.333c.734 0 1.334-.6 1.334-1.333s-.6-1.333-1.334-1.333zm9.334 0c-.734 0-1.334.6-1.334 1.333s.6 1.333 1.334 1.333c.733 0 1.333-.6 1.333-1.333s-.6-1.333-1.333-1.333zm-4.667 0c-.733 0-1.333.6-1.333 1.333s.6 1.333 1.333 1.333 1.333-.6 1.333-1.333-.6-1.333-1.333-1.333zm16.046 6.501c-.793 0-1.47-.149-2.03-.448a4.383 4.383 0 01-1.428-1.26l.868-.728c.345.457.728.807 1.148 1.05.42.233.915.35 1.484.35.7 0 1.232-.168 1.596-.504.373-.336.56-.784.56-1.344 0-.467-.14-.826-.42-1.078-.28-.252-.742-.453-1.386-.602l-.798-.182c-.896-.205-1.582-.513-2.058-.924-.467-.42-.7-1.008-.7-1.764 0-.429.079-.812.238-1.148a2.34 2.34 0 01.658-.84 2.99 2.99 0 011.022-.504 4.54 4.54 0 011.316-.182c.737 0 1.367.135 1.89.406.532.271.98.667 1.344 1.19l-.882.644a3.048 3.048 0 00-.98-.882c-.383-.215-.859-.322-1.428-.322-.625 0-1.12.135-1.484.406-.355.261-.532.658-.532 1.19 0 .467.149.821.448 1.064.308.233.77.42 1.386.56l.798.182c.961.215 1.657.541 2.086.98.429.439.644 1.022.644 1.75 0 .448-.079.854-.238 1.218a2.43 2.43 0 01-.658.924 3.078 3.078 0 01-1.064.588c-.411.14-.877.21-1.4.21zm5.419-10.528h1.12v4.312h.056c.177-.411.424-.737.742-.98.326-.243.76-.364 1.302-.364.746 0 1.334.243 1.764.728.438.476.658 1.153.658 2.03V566h-1.12v-4.438c0-1.297-.546-1.946-1.638-1.946-.224 0-.444.028-.658.084-.206.056-.392.14-.56.252a1.289 1.289 0 00-.406.434c-.094.168-.14.369-.14.602V566h-1.12v-10.36zm10.827 10.528c-.486 0-.929-.089-1.33-.266a2.955 2.955 0 01-1.036-.756c-.28-.336-.5-.733-.658-1.19a4.843 4.843 0 01-.238-1.568c0-.569.079-1.087.238-1.554a3.56 3.56 0 01.658-1.19 2.884 2.884 0 011.036-.77 3.257 3.257 0 011.33-.266c.485 0 .924.089 1.316.266.401.177.746.434 1.036.77.289.327.513.723.672 1.19.158.467.238.985.238 1.554a4.87 4.87 0 01-.238 1.568 3.636 3.636 0 01-.672 1.19c-.29.327-.635.579-1.036.756a3.164 3.164 0 01-1.316.266zm0-.994c.606 0 1.101-.187 1.484-.56.382-.373.574-.943.574-1.708v-1.036c0-.765-.192-1.335-.574-1.708-.383-.373-.878-.56-1.484-.56-.607 0-1.102.187-1.484.56-.383.373-.574.943-.574 1.708v1.036c0 .765.191 1.335.574 1.708.382.373.877.56 1.484.56zm4.419-6.398h1.092l.77 3.122.77 3.164h.028l.882-3.164.91-3.122h.994l.938 3.122.896 3.164h.028l.742-3.164.784-3.122h1.05L448.677 566h-1.386l-1.008-3.472-.63-2.198h-.028l-.616 2.198-1.008 3.472h-1.358l-1.932-7.224zM455.802 566v-7.224h1.12v1.176h.056c.084-.187.177-.359.28-.518.112-.168.243-.313.392-.434.159-.121.341-.215.546-.28.205-.075.448-.112.728-.112.476 0 .915.117 1.316.35.401.224.7.597.896 1.12h.028a2.21 2.21 0 01.728-1.022c.364-.299.854-.448 1.47-.448.737 0 1.311.243 1.722.728.42.476.63 1.153.63 2.03V566h-1.12v-4.438c0-.644-.126-1.129-.378-1.456-.252-.327-.653-.49-1.204-.49-.224 0-.439.028-.644.084a1.75 1.75 0 00-.532.252 1.226 1.226 0 00-.518 1.036V566h-1.12v-4.438c0-.644-.126-1.129-.378-1.456-.252-.327-.644-.49-1.176-.49-.224 0-.439.028-.644.084-.205.056-.387.14-.546.252a1.355 1.355 0 00-.392.434c-.093.168-.14.369-.14.602V566h-1.12zm15.093.168c-.486 0-.929-.089-1.33-.266a2.955 2.955 0 01-1.036-.756c-.28-.336-.5-.733-.658-1.19a4.843 4.843 0 01-.238-1.568c0-.569.079-1.087.238-1.554a3.56 3.56 0 01.658-1.19 2.884 2.884 0 011.036-.77 3.257 3.257 0 011.33-.266c.485 0 .924.089 1.316.266.401.177.746.434 1.036.77.289.327.513.723.672 1.19.158.467.238.985.238 1.554a4.87 4.87 0 01-.238 1.568 3.636 3.636 0 01-.672 1.19c-.29.327-.635.579-1.036.756a3.164 3.164 0 01-1.316.266zm0-.994c.606 0 1.101-.187 1.484-.56.382-.373.574-.943.574-1.708v-1.036c0-.765-.192-1.335-.574-1.708-.383-.373-.878-.56-1.484-.56-.607 0-1.102.187-1.484.56-.383.373-.574.943-.574 1.708v1.036c0 .765.191 1.335.574 1.708.382.373.877.56 1.484.56zm5.244.826v-7.224h1.12v1.33h.07c.13-.345.364-.653.7-.924.336-.271.798-.406 1.386-.406h.434v1.12h-.658c-.607 0-1.083.117-1.428.35-.336.224-.504.509-.504.854v4.9h-1.12zm7.928.168c-.495 0-.943-.089-1.344-.266a2.996 2.996 0 01-1.022-.756 3.776 3.776 0 01-.658-1.19 5.141 5.141 0 01-.224-1.568c0-.569.075-1.087.224-1.554.159-.467.378-.863.658-1.19.289-.336.63-.593 1.022-.77a3.294 3.294 0 011.344-.266c.485 0 .919.089 1.302.266.383.177.709.425.98.742.271.308.476.677.616 1.106.149.429.224.901.224 1.414v.532h-5.194v.336c0 .308.047.597.14.868.103.261.243.49.42.686.187.196.411.35.672.462.271.112.574.168.91.168.457 0 .854-.107 1.19-.322.345-.215.611-.523.798-.924l.798.574a2.814 2.814 0 01-1.092 1.204c-.495.299-1.083.448-1.764.448zm0-6.622c-.308 0-.588.056-.84.168a1.883 1.883 0 00-.658.448 2.348 2.348 0 00-.574 1.568v.098h3.99v-.154c0-.644-.177-1.157-.532-1.54-.345-.392-.807-.588-1.386-.588zm-84.31-26.122l4.243-4.243 4.243 4.243a6.003 6.003 0 011.3 6.539 5.996 5.996 0 01-5.543 3.703 5.996 5.996 0 01-5.885-7.17 6.003 6.003 0 011.642-3.072zm4.243-2.357l-3.3 3.299a4.666 4.666 0 00-1.367 3.3h9.334a4.66 4.66 0 00-1.367-3.3l-3.3-3.299zM423.462 542h-6.412v-1.204l3.192-2.94c.457-.42.84-.864 1.148-1.33.308-.476.462-.952.462-1.428v-.168c0-.542-.149-.98-.448-1.316-.299-.336-.751-.504-1.358-.504-.299 0-.56.042-.784.126-.224.084-.42.2-.588.35a2.088 2.088 0 00-.406.532c-.103.196-.187.41-.252.644l-1.05-.406c.093-.29.219-.57.378-.84.168-.28.373-.528.616-.742.252-.215.551-.388.896-.518.355-.131.77-.196 1.246-.196s.901.07 1.274.21c.373.14.686.336.938.588.252.252.443.55.574.896.14.345.21.728.21 1.148 0 .382-.056.737-.168 1.064a4.082 4.082 0 01-.434.938 5.631 5.631 0 01-.686.854c-.261.28-.546.56-.854.84l-2.632 2.366h5.138V542zm6.521-5.628c.662 0 1.157-.15 1.484-.448.336-.308.504-.7.504-1.176v-.098c0-.514-.164-.896-.49-1.148-.318-.262-.738-.392-1.26-.392-.504 0-.915.112-1.232.336a2.467 2.467 0 00-.784.882l-.868-.672c.121-.196.266-.388.434-.574.177-.196.382-.369.616-.518.233-.15.504-.271.812-.364.308-.094.658-.14 1.05-.14.41 0 .798.056 1.162.168.364.102.676.261.938.476.27.205.48.462.63.77.158.308.238.658.238 1.05 0 .317-.052.602-.154.854a2.037 2.037 0 01-.392.658 2.367 2.367 0 01-.602.476 2.82 2.82 0 01-.728.294v.056c.261.056.513.149.756.28.252.121.471.284.658.49.196.196.35.438.462.728.121.28.182.602.182.966 0 .42-.08.807-.238 1.162a2.647 2.647 0 01-.672.896 3.27 3.27 0 01-1.05.574c-.411.14-.864.21-1.358.21-.42 0-.794-.047-1.12-.14a3.384 3.384 0 01-.868-.378 3.85 3.85 0 01-.672-.532 5.182 5.182 0 01-.504-.616l.882-.672c.121.196.252.373.392.532a2.374 2.374 0 001.092.672c.224.056.485.084.784.084.69 0 1.213-.154 1.568-.462.354-.318.532-.766.532-1.344v-.112c0-.579-.178-1.022-.532-1.33-.355-.318-.878-.476-1.568-.476h-1.148v-1.022h1.064zm10.13 5.628v-1.918h-4.718v-1.036l4.088-6.818h1.75v6.874h1.414v.98h-1.414V542h-1.12zm-3.612-2.898h3.612v-5.964h-.07l-3.542 5.964zM450.86 542h-6.412v-1.204l3.192-2.94c.457-.42.84-.864 1.148-1.33.308-.476.462-.952.462-1.428v-.168c0-.542-.149-.98-.448-1.316-.299-.336-.751-.504-1.358-.504-.299 0-.56.042-.784.126-.224.084-.42.2-.588.35a2.088 2.088 0 00-.406.532c-.103.196-.187.41-.252.644l-1.05-.406c.093-.29.219-.57.378-.84.168-.28.373-.528.616-.742.252-.215.551-.388.896-.518.355-.131.77-.196 1.246-.196s.901.07 1.274.21c.373.14.686.336.938.588.252.252.443.55.574.896.14.345.21.728.21 1.148 0 .382-.056.737-.168 1.064a4.082 4.082 0 01-.434.938 5.631 5.631 0 01-.686.854c-.261.28-.546.56-.854.84l-2.632 2.366h5.138V542zm8.117 0v-1.918h-4.718v-1.036l4.088-6.818h1.75v6.874h1.414v.98h-1.414V542h-1.12zm-3.612-2.898h3.612v-5.964h-.07l-3.542 5.964zm8.128 2.898v-1.036h2.73v-7.868h-.098l-2.464 2.296-.686-.742 2.59-2.422h1.834v8.736h2.52V542h-6.426zm14.765 0h-6.412v-1.204l3.192-2.94c.457-.42.84-.864 1.148-1.33.308-.476.462-.952.462-1.428v-.168c0-.542-.15-.98-.448-1.316-.299-.336-.752-.504-1.358-.504-.299 0-.56.042-.784.126-.224.084-.42.2-.588.35a2.088 2.088 0 00-.406.532c-.103.196-.187.41-.252.644l-1.05-.406c.093-.29.219-.57.378-.84.168-.28.373-.528.616-.742a2.98 2.98 0 01.896-.518c.354-.131.77-.196 1.246-.196s.9.07 1.274.21c.373.14.686.336.938.588.252.252.443.55.574.896.14.345.21.728.21 1.148 0 .382-.056.737-.168 1.064a4.125 4.125 0 01-.434.938 5.694 5.694 0 01-.686.854c-.262.28-.546.56-.854.84l-2.632 2.366h5.138V542zm5.823 0v-9.772h1.176v8.736h4.158V542h-5.334zM864 530.333a6.667 6.667 0 110 13.334 6.667 6.667 0 010-13.334zm0 1.334a5.333 5.333 0 100 10.667 5.333 5.333 0 000-10.667zm2.555 2.224a.395.395 0 01.551.552c-1.453 2.03-2.253 3.118-2.399 3.264a1 1 0 01-1.414-1.414c.249-.249 1.336-1.05 3.262-2.402zm1.112 2.442a.667.667 0 11-.001 1.333.667.667 0 01.001-1.333zm-7.334 0a.667.667 0 11-.001 1.335.667.667 0 01.001-1.335zm1.546-2.397a.668.668 0 11-.945.943.668.668 0 01.945-.943zm2.121-1.269a.667.667 0 110 1.333.667.667 0 010-1.333zM877.232 542v-1.036h2.73v-7.868h-.098l-2.464 2.296-.686-.742 2.59-2.422h1.834v8.736h2.52V542h-6.426zm14.275-8.736h-4.284l-.28 3.724h.098c.233-.327.494-.588.784-.784.298-.196.704-.294 1.218-.294.42 0 .807.07 1.162.21.354.14.662.341.924.602.261.252.462.565.602.938.149.373.224.798.224 1.274s-.075.915-.224 1.316c-.15.392-.369.733-.658 1.022-.28.28-.626.499-1.036.658a3.706 3.706 0 01-1.372.238c-.411 0-.775-.047-1.092-.14a3.158 3.158 0 01-.826-.378 3.599 3.599 0 01-.644-.532 5.988 5.988 0 01-.49-.616l.882-.672a4.8 4.8 0 00.378.532c.14.159.289.294.448.406.168.112.359.201.574.266.214.056.471.084.77.084.672 0 1.18-.177 1.526-.532.345-.355.518-.854.518-1.498v-.14c0-.644-.173-1.143-.518-1.498-.346-.355-.854-.532-1.526-.532-.448 0-.803.084-1.064.252-.252.159-.481.35-.686.574l-.994-.14.35-5.376h5.236v1.036zm7.57 8.904c-.504 0-.961-.084-1.372-.252a3.067 3.067 0 01-1.036-.742 3.402 3.402 0 01-.644-1.19 5.141 5.141 0 01-.224-1.568c0-.728.108-1.409.322-2.044.215-.644.49-1.227.826-1.75a8.205 8.205 0 011.134-1.4 7.35 7.35 0 011.204-.994h1.512c-.522.383-.989.756-1.4 1.12-.41.364-.77.747-1.078 1.148a6.606 6.606 0 00-.784 1.274 7.378 7.378 0 00-.518 1.526l.07.028c.234-.401.532-.733.896-.994.374-.271.859-.406 1.456-.406.42 0 .808.07 1.162.21.355.14.658.341.91.602.252.261.448.579.588.952.15.373.224.789.224 1.246 0 .476-.079.915-.238 1.316a2.858 2.858 0 01-1.68 1.68 3.577 3.577 0 01-1.33.238zm-.014-1.022c.644 0 1.144-.177 1.498-.532.364-.355.546-.863.546-1.526v-.112c0-.663-.182-1.171-.546-1.526-.354-.355-.854-.532-1.498-.532s-1.148.177-1.512.532c-.354.355-.532.863-.532 1.526v.112c0 .663.178 1.171.532 1.526.364.355.868.532 1.512.532zm11.307-7.882h-4.284l-.28 3.724h.098a3.12 3.12 0 01.784-.784c.299-.196.705-.294 1.218-.294.42 0 .807.07 1.162.21.355.14.663.341.924.602.261.252.462.565.602.938.149.373.224.798.224 1.274s-.075.915-.224 1.316a2.871 2.871 0 01-.658 1.022c-.28.28-.625.499-1.036.658a3.702 3.702 0 01-1.372.238c-.411 0-.775-.047-1.092-.14a3.173 3.173 0 01-.826-.378 3.634 3.634 0 01-.644-.532 6.127 6.127 0 01-.49-.616l.882-.672a4.8 4.8 0 00.378.532c.14.159.289.294.448.406.168.112.359.201.574.266.215.056.471.084.77.084.672 0 1.181-.177 1.526-.532.345-.355.518-.854.518-1.498v-.14c0-.644-.173-1.143-.518-1.498-.345-.355-.854-.532-1.526-.532-.448 0-.803.084-1.064.252-.252.159-.481.35-.686.574l-.994-.14.35-5.376h5.236v1.036zm5.762 8.904c-.56 0-1.05-.07-1.47-.21a3.266 3.266 0 01-1.064-.602 2.57 2.57 0 01-.644-.896 2.953 2.953 0 01-.21-1.12c0-.672.182-1.204.546-1.596.364-.392.84-.667 1.428-.826v-.112a2.606 2.606 0 01-1.232-.854c-.298-.401-.448-.882-.448-1.442 0-.747.271-1.339.812-1.778.542-.448 1.302-.672 2.282-.672s1.741.224 2.282.672c.542.439.812 1.031.812 1.778 0 .56-.154 1.041-.462 1.442-.298.392-.704.677-1.218.854v.112c.588.159 1.064.434 1.428.826.364.392.546.924.546 1.596 0 .401-.074.775-.224 1.12-.14.345-.354.644-.644.896-.28.252-.63.453-1.05.602-.42.14-.91.21-1.47.21zm0-1.022c.682 0 1.209-.149 1.582-.448.374-.308.56-.742.56-1.302v-.294c0-.56-.186-.989-.56-1.288-.373-.308-.9-.462-1.582-.462-.681 0-1.208.154-1.582.462-.373.299-.56.728-.56 1.288v.294c0 .56.187.994.56 1.302.374.299.901.448 1.582.448zm0-4.774c.616 0 1.083-.131 1.4-.392.318-.261.476-.644.476-1.148v-.21c0-.504-.158-.887-.476-1.148-.317-.261-.784-.392-1.4-.392-.616 0-1.082.131-1.4.392-.317.261-.476.644-.476 1.148v.21c0 .504.159.887.476 1.148.318.261.784.392 1.4.392zm9.086 5.628v-9.772h1.176v8.736h4.158V542h-5.334zm6.333 2.114l3.654-12.474h1.008l-3.654 12.474h-1.008zm12.793-6.538h-4.942V542h-1.176v-9.772h1.176v4.312h4.942v-4.312h1.176V542h-1.176v-4.424z" fill="#BFDDDC"/></svg>