<svg width="201" height="201" fill="none" xmlns="http://www.w3.org/2000/svg"><path d="M131.045 200l-130-62.512V24.827l130 53.61V200z" fill="#fff" stroke="#323232" stroke-width=".7" stroke-miterlimit="10"/><path d="M199.702 166.963l-68.955 32.938V78.338l68.955-28.387v117.012z" fill="#fff" stroke="#323232" stroke-width=".7" stroke-miterlimit="10"/><path d="M200 50.05L69.85.395 1.046 24.826l130 53.611L200 50.05zm-87.612 34.223L22.836 46.686l-8.21-3.462s-.298-.098-.745-.098h-.299c-.299 0-.448 0-.597.099l-2.09.692 1.194.593v60.831c0 .989.747 1.978 1.94 2.572l96.27 44.214c.298.099.447.197.746.197v.594l1.343-.495c.448-.099.896-.296 1.343-.494.448-.297.747-.693.747-1.187v-63.7c0-1.088-.747-2.175-2.09-2.769z" fill="#fff" stroke="#323232" stroke-width=".7" stroke-miterlimit="10"/><path d="M108.209 152.819L11.94 108.605c-1.194-.593-1.94-1.483-1.94-2.571V44.906c0-.89 1.492-1.385 2.537-.89l97.612 41.048c1.343.594 2.239 1.583 2.239 2.67v63.601c0 1.484-2.388 2.275-4.179 1.484z" fill="#fff" stroke="#323232" stroke-width=".7" stroke-miterlimit="10"/><path d="M10 100.099l1.194.593" stroke="#979797" stroke-width=".7" stroke-linecap="round" stroke-linejoin="round"/><path d="M13.582 101.78L110 145.697" stroke="#979797" stroke-width=".7" stroke-linecap="round" stroke-linejoin="round" stroke-dasharray="1.98 1.98"/><path d="M111.194 146.192l1.194.593M10 50.94l1.194.593" stroke="#979797" stroke-width=".7" stroke-linecap="round" stroke-linejoin="round"/><path d="M13.731 52.621l96.12 40.85" stroke="#979797" stroke-width=".7" stroke-linecap="round" stroke-linejoin="round" stroke-dasharray="2.04 2.04"/><path d="M111.194 94.065l1.194.495" stroke="#979797" stroke-width=".7" stroke-linecap="round" stroke-linejoin="round"/><path d="M100.597 130.861L20.448 94.758V66.766l80.149 34.817v29.278z" fill="#979797" stroke="#323232" stroke-width=".7" stroke-miterlimit="10" stroke-linecap="round" stroke-linejoin="round"/><path d="M7.015 80.811l-4.776-2.176v-7.122l4.776 2.078v7.22z" fill="#B62C2C" stroke="#323232" stroke-width=".7" stroke-miterlimit="10" stroke-linecap="round" stroke-linejoin="round"/><path d="M7.015 73.59l.896-.593-4.777-2.077-.895.593 4.776 2.078z" fill="#B62C2C" stroke="#323232" stroke-width=".7" stroke-miterlimit="10" stroke-linecap="round" stroke-linejoin="round"/><path d="M7.015 80.811l.895-.692v-7.122l-.895.594v7.22zm95.224 85.955c.895-.495 1.343-1.385 1.343-2.671 0-2.671-2.239-6.034-5.074-7.32-1.045-.494-2.09-.692-2.836-.494l-.448.198s-.15 0-.15.099l-1.044.296.15.297c-.449.495-.747 1.187-.747 2.077 0 2.671 2.239 5.935 5.075 7.32.597.296 1.044.395 1.641.494l.299.396 1.343-.495c.149 0 .299 0 .448-.197z" fill="#B62C2C" stroke="#323232" stroke-width=".7" stroke-miterlimit="10" stroke-linecap="round" stroke-linejoin="round"/><path d="M99.552 171.118c1.344-.792 2.239-2.275 2.239-4.352 0-4.451-3.731-9.793-8.358-11.969-1.791-.791-3.433-1.088-4.776-.791l-.746.297c-.15 0-.299.099-.299.099l-1.642.593.299.594c-.747.791-1.045 1.978-1.045 3.363 0 4.352 3.731 9.693 8.358 11.968.896.396 1.791.692 2.538.791l.447.693 2.24-.792c.148-.198.447-.296.745-.494z" fill="#B62C2C" stroke="#323232" stroke-width=".7" stroke-miterlimit="10" stroke-linecap="round" stroke-linejoin="round"/><path d="M99.701 167.458c0 4.451-3.73 6.231-8.358 4.055-4.627-2.176-8.358-7.517-8.358-11.968 0-4.352 3.731-6.231 8.358-4.055 4.627 2.176 8.358 7.517 8.358 11.968z" fill="#B62C2C" stroke="#323232" stroke-width=".7" stroke-miterlimit="10"/><path d="M6.12 76.855c0 .89-.747 1.285-1.642.89-.896-.396-1.642-1.484-1.642-2.374 0-.89.746-1.286 1.642-.89.895.395 1.641 1.483 1.641 2.374z" fill="#B62C2C" stroke="#323232" stroke-width=".7" stroke-miterlimit="10" stroke-linecap="round" stroke-linejoin="round"/><path d="M79.104 155.391c0 1.187-1.044 1.681-2.239 1.088-1.194-.594-2.089-1.979-2.089-3.067s.895-1.681 2.09-1.088c1.343.495 2.238 1.88 2.238 3.067z" fill="#fff" stroke="#323232" stroke-width=".7" stroke-miterlimit="10" stroke-linecap="round" stroke-linejoin="round"/><path d="M78.508 155.589c0 1.186-1.045 1.681-2.24 1.088-1.193-.594-2.089-1.979-2.089-3.067s.896-1.681 2.09-1.088c1.194.495 2.239 1.88 2.239 3.067z" fill="#fff" stroke="#323232" stroke-width=".7" stroke-miterlimit="10" stroke-linecap="round" stroke-linejoin="round"/><path d="M77.463 155.193c0 .791-.597 1.088-1.493.692-.746-.395-1.492-1.286-1.492-2.077 0-.791.597-1.088 1.492-.692.746.395 1.493 1.286 1.493 2.077z" fill="#fff" stroke="#323232" stroke-width=".7" stroke-miterlimit="10" stroke-linecap="round" stroke-linejoin="round"/><path d="M76.269 154.698c0-.198-.15-.395-.299-.494h-6.716l.895 1.681 5.97-.89c0-.099.15-.198.15-.297z" fill="#fff" stroke="#323232" stroke-width=".7" stroke-miterlimit="10" stroke-linecap="round" stroke-linejoin="round"/><path d="M70.299 155.391c0 .395-.299.593-.747.395-.447-.197-.746-.692-.746-1.187 0-.494.299-.593.746-.395.448.198.747.692.747 1.187zm-6.119-6.43c0 1.187-1.046 1.682-2.24 1.088-1.194-.593-2.09-1.978-2.09-3.066 0-1.088.896-1.681 2.09-1.088 1.344.495 2.24 1.879 2.24 3.066z" fill="#fff" stroke="#323232" stroke-width=".7" stroke-miterlimit="10" stroke-linecap="round" stroke-linejoin="round"/><path d="M63.583 149.159c0 1.187-1.045 1.682-2.24 1.088-1.193-.593-2.089-1.978-2.089-3.066 0-1.088.896-1.681 2.09-1.088 1.194.495 2.239 1.879 2.239 3.066z" fill="#fff" stroke="#323232" stroke-width=".7" stroke-miterlimit="10" stroke-linecap="round" stroke-linejoin="round"/><path d="M62.538 148.863c0 .791-.597 1.088-1.493.692-.746-.396-1.493-1.286-1.493-2.077 0-.792.598-1.088 1.493-.693.895.297 1.492 1.286 1.492 2.078z" fill="#fff" stroke="#323232" stroke-width=".7" stroke-miterlimit="10" stroke-linecap="round" stroke-linejoin="round"/><path d="M61.344 148.269c0-.198-.15-.396-.299-.494H54.33l.895 1.681 5.97-.89c0-.099.15-.198.15-.297z" fill="#fff" stroke="#323232" stroke-width=".7" stroke-miterlimit="10" stroke-linecap="round" stroke-linejoin="round"/><path d="M55.373 148.961c0 .396-.298.594-.746.396-.448-.198-.746-.692-.746-1.187 0-.494.298-.593.746-.396.448.198.746.792.746 1.187zm-6.119-6.429c0 1.187-1.045 1.682-2.239 1.088-1.194-.593-2.09-1.978-2.09-3.066 0-1.088.896-1.682 2.09-1.088 1.343.593 2.239 1.978 2.239 3.066z" fill="#fff" stroke="#323232" stroke-width=".7" stroke-miterlimit="10" stroke-linecap="round" stroke-linejoin="round"/><path d="M48.657 142.73c0 1.187-1.045 1.681-2.24 1.088-1.193-.593-2.089-1.978-2.089-3.066 0-1.088.896-1.682 2.09-1.088 1.194.494 2.239 1.879 2.239 3.066z" fill="#fff" stroke="#323232" stroke-width=".7" stroke-miterlimit="10" stroke-linecap="round" stroke-linejoin="round"/><path d="M47.612 142.433c0 .792-.597 1.088-1.493.693-.746-.396-1.492-1.286-1.492-2.077 0-.792.596-1.089 1.492-.693.896.297 1.493 1.286 1.493 2.077z" fill="#fff" stroke="#323232" stroke-width=".7" stroke-miterlimit="10" stroke-linecap="round" stroke-linejoin="round"/><path d="M46.418 141.939c0-.198-.15-.396-.299-.495h-6.716l.895 1.682 5.97-.891c0-.197.15-.197.15-.296z" fill="#fff" stroke="#323232" stroke-width=".7" stroke-miterlimit="10" stroke-linecap="round" stroke-linejoin="round"/><path d="M40.597 142.532c0 .396-.299.594-.746.396-.448-.198-.747-.693-.747-1.187 0-.495.299-.594.747-.396.298.297.746.792.746 1.187zm-6.269-6.33c0 1.187-1.045 1.681-2.239 1.088-1.194-.594-2.09-1.978-2.09-3.066 0-1.088.896-1.682 2.09-1.088 1.344.494 2.24 1.879 2.24 3.066z" fill="#fff" stroke="#323232" stroke-width=".7" stroke-miterlimit="10" stroke-linecap="round" stroke-linejoin="round"/><path d="M33.73 136.301c0 1.187-1.044 1.681-2.238 1.088-1.194-.594-2.09-1.979-2.09-3.067s.896-1.681 2.09-1.088c1.343.594 2.239 1.979 2.239 3.067z" fill="#fff" stroke="#323232" stroke-width=".7" stroke-miterlimit="10" stroke-linecap="round" stroke-linejoin="round"/><path d="M32.686 136.004c0 .791-.597 1.088-1.493.692-.746-.395-1.492-1.285-1.492-2.077 0-.791.597-1.088 1.492-.692.896.395 1.493 1.286 1.493 2.077z" fill="#fff" stroke="#323232" stroke-width=".7" stroke-miterlimit="10" stroke-linecap="round" stroke-linejoin="round"/><path d="M31.492 135.509c0-.197-.15-.395-.299-.494h-6.716l.895 1.681 5.97-.89c0-.099.15-.198.15-.297z" fill="#fff" stroke="#323232" stroke-width=".7" stroke-miterlimit="10" stroke-linecap="round" stroke-linejoin="round"/><path d="M25.671 136.202c0 .395-.298.593-.746.395-.448-.197-.746-.692-.746-1.187 0-.494.298-.593.746-.395.299.198.746.692.746 1.187zm-6.268-6.429c0 1.186-1.044 1.681-2.238 1.088-1.194-.594-2.09-1.979-2.09-3.067s.896-1.681 2.09-1.088c1.343.495 2.238 1.88 2.238 3.067z" fill="#fff" stroke="#323232" stroke-width=".7" stroke-miterlimit="10" stroke-linecap="round" stroke-linejoin="round"/><path d="M18.806 129.97c0 1.187-1.045 1.682-2.239 1.088-1.194-.593-2.09-1.978-2.09-3.066 0-1.088.896-1.681 2.09-1.088 1.344.495 2.24 1.879 2.24 3.066z" fill="#fff" stroke="#323232" stroke-width=".7" stroke-miterlimit="10" stroke-linecap="round" stroke-linejoin="round"/><path d="M17.761 129.575c0 .791-.597 1.088-1.492.692-.747-.396-1.493-1.286-1.493-2.077 0-.791.597-1.088 1.493-.693.895.396 1.492 1.286 1.492 2.078z" fill="#fff" stroke="#323232" stroke-width=".7" stroke-miterlimit="10" stroke-linecap="round" stroke-linejoin="round"/><path d="M16.567 129.08c0-.198-.149-.395-.298-.494H9.552l.896 1.681 5.97-.89c.15-.099.15-.198.15-.297z" fill="#fff" stroke="#323232" stroke-width=".7" stroke-miterlimit="10" stroke-linecap="round" stroke-linejoin="round"/><path d="M10.746 129.772c0 .396-.298.594-.746.396-.448-.198-.746-.692-.746-1.187 0-.395.298-.593.746-.395.299.197.746.791.746 1.186z" fill="#fff" stroke="#323232" stroke-width=".7" stroke-miterlimit="10" stroke-linecap="round" stroke-linejoin="round"/></svg>