<svg width="1440" height="810" fill="none" xmlns="http://www.w3.org/2000/svg"><path d="M434.667 527.667a.667.667 0 01.666.667v2.8l3.476-2.434a.33.33 0 01.345-.022.33.33 0 01.179.296v8.053a.33.33 0 01-.179.296.335.335 0 01-.345-.023l-3.476-2.433v2.8a.665.665 0 01-.666.667h-9.334a.668.668 0 01-.666-.667v-9.333a.668.668 0 01.666-.667h9.334zm-5.734 3.219a.27.27 0 00-.261.214l-.005.052v3.695a.267.267 0 00.234.265c.043.005.087 0 .127-.016l.049-.024 2.903-1.848a.25.25 0 00.083-.085.264.264 0 00-.041-.331l-.042-.033-2.903-1.848a.27.27 0 00-.144-.041zm19.813 7.282c-1.241 0-2.207-.42-2.898-1.26-.691-.849-1.036-2.095-1.036-3.738 0-1.642.345-2.902 1.036-3.78.691-.886 1.657-1.33 2.898-1.33.821 0 1.507.187 2.058.56.56.374.994.901 1.302 1.582l-.952.574a2.67 2.67 0 00-.896-1.204c-.401-.308-.905-.462-1.512-.462-.42 0-.798.08-1.134.238a2.377 2.377 0 00-.84.686c-.224.29-.397.64-.518 1.05a4.703 4.703 0 00-.182 1.358v1.456c0 1.008.233 1.797.7 2.366.467.57 1.125.854 1.974.854.625 0 1.148-.158 1.568-.476.42-.326.728-.756.924-1.288l.938.588c-.308.691-.751 1.237-1.33 1.638-.579.392-1.279.588-2.1.588zm11.509-.168l-.98-2.884h-3.948l-.98 2.884h-1.19l3.416-9.772h1.498l3.416 9.772h-1.232zm-2.926-8.68h-.07l-1.652 4.76h3.374l-1.652-4.76zm13.533.448h-.07l-.826 1.638-2.338 4.256-2.338-4.256-.826-1.638h-.07V538h-1.148v-9.772h1.568l2.8 5.264h.07l2.814-5.264h1.512V538h-1.148v-8.232zM484.356 538h-6.412v-1.204l3.192-2.94c.457-.42.84-.863 1.148-1.33.308-.476.462-.952.462-1.428v-.168c0-.541-.149-.98-.448-1.316-.299-.336-.751-.504-1.358-.504-.299 0-.56.042-.784.126-.224.084-.42.201-.588.35-.159.15-.294.327-.406.532a3.27 3.27 0 00-.252.644l-1.05-.406c.093-.289.219-.569.378-.84.168-.28.373-.527.616-.742.252-.214.551-.387.896-.518.355-.13.77-.196 1.246-.196s.901.07 1.274.21c.373.14.686.336.938.588.252.252.443.551.574.896.14.346.21.728.21 1.148 0 .383-.056.738-.168 1.064-.103.327-.247.64-.434.938-.187.29-.415.574-.686.854-.261.28-.546.56-.854.84l-2.632 2.366h5.138V538zm-80.689-220.333a.667.667 0 01.666.667v2.8l3.476-2.434a.33.33 0 01.345-.022.33.33 0 01.179.296v8.053a.33.33 0 01-.179.296.335.335 0 01-.345-.023l-3.476-2.433v2.8a.665.665 0 01-.666.667h-9.334a.668.668 0 01-.666-.667v-9.333a.668.668 0 01.666-.667h9.334zm-5.734 3.219a.27.27 0 00-.261.214l-.005.052v3.695a.267.267 0 00.234.265c.043.005.087 0 .127-.016l.049-.024 2.903-1.848a.25.25 0 00.083-.085.264.264 0 00-.041-.331l-.042-.033-2.903-1.848a.27.27 0 00-.144-.041zm19.813 7.282c-1.241 0-2.207-.42-2.898-1.26-.691-.849-1.036-2.095-1.036-3.738 0-1.642.345-2.902 1.036-3.78.691-.886 1.657-1.33 2.898-1.33.821 0 1.507.187 2.058.56.56.374.994.901 1.302 1.582l-.952.574a2.67 2.67 0 00-.896-1.204c-.401-.308-.905-.462-1.512-.462-.42 0-.798.08-1.134.238a2.377 2.377 0 00-.84.686c-.224.29-.397.64-.518 1.05a4.703 4.703 0 00-.182 1.358v1.456c0 1.008.233 1.797.7 2.366.467.57 1.125.854 1.974.854.625 0 1.148-.158 1.568-.476.42-.326.728-.756.924-1.288l.938.588c-.308.691-.751 1.237-1.33 1.638-.579.392-1.279.588-2.1.588zm11.509-.168l-.98-2.884h-3.948l-.98 2.884h-1.19l3.416-9.772h1.498l3.416 9.772h-1.232zm-2.926-8.68h-.07l-1.652 4.76h3.374l-1.652-4.76zm13.533.448h-.07l-.826 1.638-2.338 4.256-2.338-4.256-.826-1.638h-.07V328h-1.148v-9.772h1.568l2.8 5.264h.07l2.814-5.264h1.512V328h-1.148v-8.232zm7.264 8.232v-1.036h2.73v-7.868h-.098l-2.464 2.296-.686-.742 2.59-2.422h1.834v8.736h2.52V328h-6.426zm455.541 11.667a.667.667 0 01.666.667v2.8l3.476-2.434a.33.33 0 01.345-.022.33.33 0 01.179.296v8.053a.33.33 0 01-.179.296.335.335 0 01-.345-.023l-3.476-2.433v2.8a.665.665 0 01-.666.667h-9.334a.668.668 0 01-.666-.667v-9.333a.668.668 0 01.666-.667h9.334zm-5.734 3.219a.27.27 0 00-.261.214l-.005.052v3.695a.267.267 0 00.234.265c.043.005.087 0 .127-.016l.049-.024 2.903-1.848a.25.25 0 00.083-.085.264.264 0 00-.041-.331l-.042-.033-2.903-1.848a.27.27 0 00-.144-.041zm19.813 7.282c-1.241 0-2.207-.42-2.898-1.26-.691-.849-1.036-2.095-1.036-3.738 0-1.642.345-2.902 1.036-3.78.691-.886 1.657-1.33 2.898-1.33.821 0 1.507.187 2.058.56.56.374.994.901 1.302 1.582l-.952.574a2.67 2.67 0 00-.896-1.204c-.401-.308-.905-.462-1.512-.462-.42 0-.798.08-1.134.238a2.377 2.377 0 00-.84.686c-.224.29-.397.64-.518 1.05a4.703 4.703 0 00-.182 1.358v1.456c0 1.008.233 1.797.7 2.366.467.57 1.125.854 1.974.854.625 0 1.148-.158 1.568-.476.42-.326.728-.756.924-1.288l.938.588c-.308.691-.751 1.237-1.33 1.638-.579.392-1.279.588-2.1.588zm11.509-.168l-.98-2.884h-3.948l-.98 2.884h-1.19l3.416-9.772h1.498l3.416 9.772h-1.232zm-2.926-8.68h-.07l-1.652 4.76h3.374l-1.652-4.76zm13.533.448h-.07l-.826 1.638-2.338 4.256-2.338-4.256-.826-1.638h-.07V350h-1.148v-9.772h1.568l2.8 5.264h.07l2.814-5.264h1.512V350h-1.148v-8.232zM950.144 350v-1.918h-4.718v-1.036l4.088-6.818h1.75v6.874h1.414v.98h-1.414V350h-1.12zm-3.612-2.898h3.612v-5.964h-.07l-3.542 5.964zM682.667 530.667a.667.667 0 01.666.667v2.8l3.476-2.434a.33.33 0 01.345-.022.33.33 0 01.179.296v8.053a.33.33 0 01-.179.296.335.335 0 01-.345-.023l-3.476-2.433v2.8a.665.665 0 01-.666.667h-9.334a.668.668 0 01-.666-.667v-9.333a.668.668 0 01.666-.667h9.334zm-5.734 3.219a.27.27 0 00-.261.214l-.005.052v3.695a.267.267 0 00.234.265c.043.005.087 0 .127-.016l.049-.024 2.903-1.848a.25.25 0 00.083-.085.264.264 0 00-.041-.331l-.042-.033-2.903-1.848a.27.27 0 00-.144-.041zm19.813 7.282c-1.241 0-2.207-.42-2.898-1.26-.691-.849-1.036-2.095-1.036-3.738 0-1.642.345-2.902 1.036-3.78.691-.886 1.657-1.33 2.898-1.33.821 0 1.507.187 2.058.56.56.374.994.901 1.302 1.582l-.952.574a2.67 2.67 0 00-.896-1.204c-.401-.308-.905-.462-1.512-.462-.42 0-.798.08-1.134.238a2.377 2.377 0 00-.84.686c-.224.29-.397.64-.518 1.05a4.703 4.703 0 00-.182 1.358v1.456c0 1.008.233 1.797.7 2.366.467.57 1.125.854 1.974.854.625 0 1.148-.158 1.568-.476.42-.326.728-.756.924-1.288l.938.588c-.308.691-.751 1.237-1.33 1.638-.579.392-1.279.588-2.1.588zm11.509-.168l-.98-2.884h-3.948l-.98 2.884h-1.19l3.416-9.772h1.498l3.416 9.772h-1.232zm-2.926-8.68h-.07l-1.652 4.76h3.374l-1.652-4.76zm13.533.448h-.07l-.826 1.638-2.338 4.256-2.338-4.256-.826-1.638h-.07V541h-1.148v-9.772h1.568l2.8 5.264h.07l2.814-5.264h1.512V541h-1.148v-8.232zm9.686 2.604c.663 0 1.157-.149 1.484-.448.336-.308.504-.7.504-1.176v-.098c0-.513-.163-.896-.49-1.148-.317-.261-.737-.392-1.26-.392-.504 0-.915.112-1.232.336a2.494 2.494 0 00-.784.882l-.868-.672c.121-.196.266-.387.434-.574a3.044 3.044 0 011.428-.882c.308-.093.658-.14 1.05-.14.411 0 .798.056 1.162.168.364.103.677.262.938.476.271.206.481.462.63.77.159.308.238.658.238 1.05 0 .318-.051.602-.154.854a2.009 2.009 0 01-.392.658 2.324 2.324 0 01-.602.476 2.752 2.752 0 01-.728.294v.056c.261.056.513.15.756.28.252.122.471.285.658.49.196.196.35.439.462.728.121.28.182.602.182.966 0 .42-.079.808-.238 1.162a2.637 2.637 0 01-.672.896 3.23 3.23 0 01-1.05.574c-.411.14-.863.21-1.358.21a4.06 4.06 0 01-1.12-.14 3.316 3.316 0 01-.868-.378 3.804 3.804 0 01-.672-.532 5.103 5.103 0 01-.504-.616l.882-.672c.121.196.252.374.392.532a2.34 2.34 0 001.092.672c.224.056.485.084.784.084.691 0 1.213-.154 1.568-.462.355-.317.532-.765.532-1.344v-.112c0-.578-.177-1.022-.532-1.33-.355-.317-.877-.476-1.568-.476h-1.148v-1.022h1.064z" fill="#BFDDDC"/><path d="M608.155 433.08l-278.16 87.99 95.085-183.075 183.075 95.085z" fill="url(#paint0_linear)"/><path d="M408.5 345l223.435 129-176.218 47.217L408.5 345z" fill="url(#paint1_linear)"/><path d="M561 386h284L703 528 561 386z" fill="url(#paint2_linear)"/><path d="M979.951 549.976L734 407.976 927.976 356l51.975 193.976z" fill="url(#paint3_linear)"/><defs><linearGradient id="paint0_linear" x1="425.08" y1="337.995" x2="469.075" y2="477.075" gradientUnits="userSpaceOnUse"><stop stop-color="#DFEEEE" stop-opacity=".4"/><stop offset="1" stop-color="#DFEEEE" stop-opacity="0"/></linearGradient><linearGradient id="paint1_linear" x1="455.717" y1="521.217" x2="520.217" y2="409.5" gradientUnits="userSpaceOnUse"><stop stop-color="#DFEEEE" stop-opacity=".4"/><stop offset="1" stop-color="#DFEEEE" stop-opacity="0"/></linearGradient><linearGradient id="paint2_linear" x1="703" y1="528" x2="703" y2="386" gradientUnits="userSpaceOnUse"><stop stop-color="#DFEEEE" stop-opacity=".4"/><stop offset="1" stop-color="#DFEEEE" stop-opacity="0"/></linearGradient><linearGradient id="paint3_linear" x1="927.976" y1="356" x2="856.976" y2="478.976" gradientUnits="userSpaceOnUse"><stop stop-color="#DFEEEE" stop-opacity=".4"/><stop offset="1" stop-color="#DFEEEE" stop-opacity="0"/></linearGradient></defs></svg>