<svg width="1441" height="810" fill="none" xmlns="http://www.w3.org/2000/svg"><path d="M642.333 551.667c-.733 0-1.333.6-1.333 1.333s.6 1.333 1.333 1.333c.734 0 1.334-.6 1.334-1.333s-.6-1.333-1.334-1.333zm9.334 0c-.734 0-1.334.6-1.334 1.333s.6 1.333 1.334 1.333c.733 0 1.333-.6 1.333-1.333s-.6-1.333-1.333-1.333zm-4.667 0c-.733 0-1.333.6-1.333 1.333s.6 1.333 1.333 1.333 1.333-.6 1.333-1.333-.6-1.333-1.333-1.333zm16.046 6.501c-.793 0-1.47-.149-2.03-.448a4.383 4.383 0 01-1.428-1.26l.868-.728c.345.457.728.807 1.148 1.05.42.233.915.35 1.484.35.7 0 1.232-.168 1.596-.504.373-.336.56-.784.56-1.344 0-.467-.14-.826-.42-1.078-.28-.252-.742-.453-1.386-.602l-.798-.182c-.896-.205-1.582-.513-2.058-.924-.467-.42-.7-1.008-.7-1.764 0-.429.079-.812.238-1.148a2.34 2.34 0 01.658-.84 2.99 2.99 0 011.022-.504 4.54 4.54 0 011.316-.182c.737 0 1.367.135 1.89.406.532.271.98.667 1.344 1.19l-.882.644a3.048 3.048 0 00-.98-.882c-.383-.215-.859-.322-1.428-.322-.625 0-1.12.135-1.484.406-.355.261-.532.658-.532 1.19 0 .467.149.821.448 1.064.308.233.77.42 1.386.56l.798.182c.961.215 1.657.541 2.086.98.429.439.644 1.022.644 1.75 0 .448-.079.854-.238 1.218a2.43 2.43 0 01-.658.924 3.078 3.078 0 01-1.064.588c-.411.14-.877.21-1.4.21zm5.419-10.528h1.12v4.312h.056c.177-.411.424-.737.742-.98.326-.243.76-.364 1.302-.364.746 0 1.334.243 1.764.728.438.476.658 1.153.658 2.03V558h-1.12v-4.438c0-1.297-.546-1.946-1.638-1.946-.224 0-.444.028-.658.084-.206.056-.392.14-.56.252a1.289 1.289 0 00-.406.434c-.094.168-.14.369-.14.602V558h-1.12v-10.36zm10.827 10.528c-.486 0-.929-.089-1.33-.266a2.955 2.955 0 01-1.036-.756c-.28-.336-.5-.733-.658-1.19a4.843 4.843 0 01-.238-1.568c0-.569.079-1.087.238-1.554a3.56 3.56 0 01.658-1.19 2.884 2.884 0 011.036-.77 3.257 3.257 0 011.33-.266c.485 0 .924.089 1.316.266.401.177.746.434 1.036.77.289.327.513.723.672 1.19.158.467.238.985.238 1.554a4.87 4.87 0 01-.238 1.568 3.636 3.636 0 01-.672 1.19c-.29.327-.635.579-1.036.756a3.164 3.164 0 01-1.316.266zm0-.994c.606 0 1.101-.187 1.484-.56.382-.373.574-.943.574-1.708v-1.036c0-.765-.192-1.335-.574-1.708-.383-.373-.878-.56-1.484-.56-.607 0-1.102.187-1.484.56-.383.373-.574.943-.574 1.708v1.036c0 .765.191 1.335.574 1.708.382.373.877.56 1.484.56zm4.419-6.398h1.092l.77 3.122.77 3.164h.028l.882-3.164.91-3.122h.994l.938 3.122.896 3.164h.028l.742-3.164.784-3.122h1.05L691.677 558h-1.386l-1.008-3.472-.63-2.198h-.028l-.616 2.198-1.008 3.472h-1.358l-1.932-7.224zM698.802 558v-7.224h1.12v1.176h.056c.084-.187.177-.359.28-.518.112-.168.243-.313.392-.434.159-.121.341-.215.546-.28.205-.075.448-.112.728-.112.476 0 .915.117 1.316.35.401.224.7.597.896 1.12h.028a2.21 2.21 0 01.728-1.022c.364-.299.854-.448 1.47-.448.737 0 1.311.243 1.722.728.42.476.63 1.153.63 2.03V558h-1.12v-4.438c0-.644-.126-1.129-.378-1.456-.252-.327-.653-.49-1.204-.49-.224 0-.439.028-.644.084a1.75 1.75 0 00-.532.252 1.226 1.226 0 00-.518 1.036V558h-1.12v-4.438c0-.644-.126-1.129-.378-1.456-.252-.327-.644-.49-1.176-.49-.224 0-.439.028-.644.084-.205.056-.387.14-.546.252a1.355 1.355 0 00-.392.434c-.093.168-.14.369-.14.602V558h-1.12zm15.093.168c-.486 0-.929-.089-1.33-.266a2.955 2.955 0 01-1.036-.756c-.28-.336-.5-.733-.658-1.19a4.843 4.843 0 01-.238-1.568c0-.569.079-1.087.238-1.554a3.56 3.56 0 01.658-1.19 2.884 2.884 0 011.036-.77 3.257 3.257 0 011.33-.266c.485 0 .924.089 1.316.266.401.177.746.434 1.036.77.289.327.513.723.672 1.19.158.467.238.985.238 1.554a4.87 4.87 0 01-.238 1.568 3.636 3.636 0 01-.672 1.19c-.29.327-.635.579-1.036.756a3.164 3.164 0 01-1.316.266zm0-.994c.606 0 1.101-.187 1.484-.56.382-.373.574-.943.574-1.708v-1.036c0-.765-.192-1.335-.574-1.708-.383-.373-.878-.56-1.484-.56-.607 0-1.102.187-1.484.56-.383.373-.574.943-.574 1.708v1.036c0 .765.191 1.335.574 1.708.382.373.877.56 1.484.56zm5.244.826v-7.224h1.12v1.33h.07c.13-.345.364-.653.7-.924.336-.271.798-.406 1.386-.406h.434v1.12h-.658c-.607 0-1.083.117-1.428.35-.336.224-.504.509-.504.854v4.9h-1.12zm7.928.168c-.495 0-.943-.089-1.344-.266a2.996 2.996 0 01-1.022-.756 3.776 3.776 0 01-.658-1.19 5.141 5.141 0 01-.224-1.568c0-.569.075-1.087.224-1.554.159-.467.378-.863.658-1.19.289-.336.63-.593 1.022-.77a3.294 3.294 0 011.344-.266c.485 0 .919.089 1.302.266.383.177.709.425.98.742.271.308.476.677.616 1.106.149.429.224.901.224 1.414v.532h-5.194v.336c0 .308.047.597.14.868.103.261.243.49.42.686.187.196.411.35.672.462.271.112.574.168.91.168.457 0 .854-.107 1.19-.322.345-.215.611-.523.798-.924l.798.574a2.814 2.814 0 01-1.092 1.204c-.495.299-1.083.448-1.764.448zm0-6.622c-.308 0-.588.056-.84.168a1.883 1.883 0 00-.658.448 2.348 2.348 0 00-.574 1.568v.098h3.99v-.154c0-.644-.177-1.157-.532-1.54-.345-.392-.807-.588-1.386-.588zM1078.2 416.319l-.07-1.033 2.72-.204-.59-7.846-.1.007-2.28 2.474-.74-.688 2.4-2.609 1.83-.138.65 8.711 2.51-.189.08 1.034-6.41.481zm11.49-.695c-1.17.088-2.05-.29-2.66-1.134-.6-.844-.95-2.062-1.07-3.653-.12-1.592.05-2.85.51-3.774.48-.924 1.29-1.431 2.46-1.518 1.16-.088 2.04.291 2.64 1.135.6.844.97 2.061 1.09 3.653.12 1.591-.06 2.849-.53 3.774-.47.924-1.28 1.43-2.44 1.517zm-.08-1.019c.38-.028.7-.132.96-.31.26-.179.46-.419.6-.72.15-.301.25-.65.29-1.046.06-.398.06-.833.03-1.308l-.12-1.592a6.765 6.765 0 00-.22-1.288 3.35 3.35 0 00-.44-.992 1.848 1.848 0 00-.71-.621c-.28-.138-.61-.193-1-.164-.38.029-.7.132-.95.311-.26.178-.46.418-.61.719-.15.301-.25.651-.3 1.048a6.29 6.29 0 00-.01 1.307l.11 1.591c.04.475.11.905.21 1.29.12.385.27.715.46.991s.42.483.7.62c.29.138.62.193 1 .164zm11.32-4.81l-1.27 1.64.25 3.253-1.18.088-.73-9.745 1.17-.088.39 5.179.04-.003 1.27-1.794 2.69-3.712 1.43-.108-3.31 4.448 4.3 5.278-1.45.109-3.6-4.545zm8.7-1.82l-1.33-2.075-.04.003.61 8.111-1.15.086-.73-9.745 1.35-.101 4.01 5.679 1.33 2.076.05-.003-.61-8.111 1.14-.086.73 9.744-1.35.102-4.01-5.68zm11.76 5.266c-.64.047-1.22-.017-1.74-.192a3.64 3.64 0 01-1.37-.866c-.39-.401-.7-.907-.95-1.515-.24-.619-.39-1.337-.45-2.156-.07-.819-.02-1.548.13-2.186.14-.638.38-1.185.7-1.64.33-.455.74-.809 1.23-1.061.49-.261 1.06-.416 1.69-.464a4.24 4.24 0 011.73.207c.53.176.98.464 1.37.866.39.401.71.906.95 1.515.25.608.4 1.322.46 2.141s.02 1.553-.13 2.2c-.15.639-.39 1.185-.72 1.641-.32.445-.73.799-1.22 1.061a4.44 4.44 0 01-1.68.449zm-.08-1.047c.42-.032.8-.135 1.14-.311.34-.175.63-.412.86-.71.24-.299.41-.649.52-1.05.11-.402.15-.844.11-1.328l-.12-1.62a3.951 3.951 0 00-.3-1.296c-.17-.381-.4-.701-.68-.96a2.476 2.476 0 00-.96-.574 2.92 2.92 0 00-1.17-.137c-.42.032-.8.135-1.14.311a2.62 2.62 0 00-.88.711c-.23.298-.4.648-.51 1.05-.11.401-.14.844-.11 1.328l.12 1.619c.04.484.14.916.31 1.297.17.38.39.7.66.961.28.259.61.45.97.573.37.122.76.167 1.18.136zm8.8-8.538l.65 8.711-1.17.089-.66-8.712-3.09.233-.08-1.033 7.37-.554.08 1.033-3.1.233zm8.1 8.32c-.79.059-1.48-.039-2.06-.295a4.394 4.394 0 01-1.52-1.149l.81-.791c.38.43.79.75 1.23.961.43.201.94.28 1.5.238.7-.053 1.22-.26 1.56-.623.34-.363.5-.823.46-1.382-.04-.465-.21-.813-.5-1.043-.3-.23-.78-.396-1.43-.497l-.81-.121c-.91-.138-1.62-.394-2.12-.767-.5-.384-.78-.953-.83-1.707-.04-.428.02-.816.15-1.162.13-.347.33-.643.59-.887.27-.246.6-.439.98-.58a4.58 4.58 0 011.3-.28c.74-.055 1.38.033 1.92.263.55.23 1.02.592 1.43 1.086l-.84.709a2.946 2.946 0 00-1.04-.807c-.4-.185-.88-.256-1.45-.214-.62.047-1.1.219-1.45.517-.33.287-.48.696-.44 1.226.04.465.21.808.53 1.028.32.209.8.361 1.42.454l.81.122c.98.142 1.7.415 2.16.821.46.405.72.97.77 1.696.03.447-.02.858-.15 1.233-.12.374-.31.697-.58.97-.27.273-.61.495-1.02.667-.4.17-.86.275-1.38.314zm11.65-2.419a.368.368 0 01-.17.073c-.06.008-.12 0-.17-.024a.371.371 0 01-.15-.112.48.48 0 01-.06-.169l-.5-6.695c0-.061.01-.122.04-.176.02-.055.07-.1.12-.133a.318.318 0 01.17-.049c.06-.001.12.016.17.047l5 2.991a.43.43 0 01.11.111c.03.045.04.097.05.15 0 .053-.01.106-.03.155a.328.328 0 01-.09.127l-4.49 3.704zm4.93-7.377a.358.358 0 01.16-.308.31.31 0 01.17-.05c.06-.001.12.016.18.047l4.99 2.991c.05.028.08.066.11.111s.05.097.05.15c.01.053 0 .106-.02.155a.493.493 0 01-.1.127l-4.49 3.704a.334.334 0 01-.16.073.33.33 0 01-.18-.024.287.287 0 01-.14-.112.267.267 0 01-.06-.169l-.51-6.695z" fill="#BFDDDC"/><path fill-rule="evenodd" clip-rule="evenodd" d="M1440.14 363.935l-152.05 43.56-335.051 26.004-.078-.997 334.949-25.996 151.95-43.532.28.961z" fill="#396665"/><circle cx="1288" cy="407" r="4" fill="#4C8886"/><path d="M646.333 534.297a6.004 6.004 0 01-5.317-6.297 6.002 6.002 0 015.984-5.667 6.002 6.002 0 01.667 11.964V537h-1.334v-2.703zm16.881-.129c-.504 0-.961-.084-1.372-.252a3.043 3.043 0 01-1.036-.742 3.378 3.378 0 01-.644-1.19 5.137 5.137 0 01-.224-1.568c0-.728.107-1.409.322-2.044a7.776 7.776 0 011.96-3.15c.411-.41.812-.742 1.204-.994h1.512c-.523.383-.989.756-1.4 1.12-.411.364-.77.747-1.078 1.148a6.606 6.606 0 00-.784 1.274 7.32 7.32 0 00-.518 1.526l.07.028c.233-.401.532-.732.896-.994.373-.27.859-.406 1.456-.406.42 0 .807.07 1.162.21.355.14.658.341.91.602.252.262.448.579.588.952.149.374.224.789.224 1.246 0 .476-.079.915-.238 1.316a2.871 2.871 0 01-.658 1.022c-.28.28-.621.5-1.022.658a3.581 3.581 0 01-1.33.238zm-.014-1.022c.644 0 1.143-.177 1.498-.532.364-.354.546-.863.546-1.526v-.112c0-.662-.182-1.171-.546-1.526-.355-.354-.854-.532-1.498-.532s-1.148.178-1.512.532c-.355.355-.532.864-.532 1.526v.112c0 .663.177 1.172.532 1.526.364.355.868.532 1.512.532zm5.567.854v-1.036h2.73v-7.868h-.098l-2.464 2.296-.686-.742 2.59-2.422h1.834v8.736h2.52V534h-6.426zm10.578-5.124c-.336 0-.649-.06-.938-.182a2.368 2.368 0 01-.742-.504 2.44 2.44 0 01-.49-.756 2.543 2.543 0 01-.182-.966c0-.345.061-.662.182-.952.121-.298.285-.555.49-.77.215-.214.462-.382.742-.504.289-.121.602-.182.938-.182a2.305 2.305 0 012.17 1.456c.121.29.182.607.182.952 0 .346-.061.668-.182.966-.121.29-.289.542-.504.756a2.17 2.17 0 01-.742.504c-.28.122-.588.182-.924.182zm0-.896c.42 0 .751-.144.994-.434.252-.298.378-.658.378-1.078 0-.42-.126-.774-.378-1.064-.243-.298-.574-.448-.994-.448-.42 0-.756.15-1.008.448-.243.29-.364.644-.364 1.064 0 .42.121.78.364 1.078.252.29.588.434 1.008.434zm7.613 6.188c-1.167 0-2.021-.443-2.562-1.33-.532-.886-.798-2.128-.798-3.724s.266-2.837.798-3.724c.541-.886 1.395-1.33 2.562-1.33 1.167 0 2.016.444 2.548 1.33.541.887.812 2.128.812 3.724s-.271 2.838-.812 3.724c-.532.887-1.381 1.33-2.548 1.33zm0-1.022c.383 0 .709-.079.98-.238.271-.158.49-.382.658-.672.168-.289.289-.63.364-1.022.084-.392.126-.826.126-1.302v-1.596c0-.476-.042-.91-.126-1.302a3.237 3.237 0 00-.364-1.022 1.822 1.822 0 00-.658-.672c-.271-.158-.597-.238-.98-.238s-.709.08-.98.238c-.271.159-.49.383-.658.672-.168.29-.294.63-.378 1.022a6.95 6.95 0 00-.112 1.302v1.596c0 .476.037.91.112 1.302.084.392.21.733.378 1.022.168.29.387.514.658.672.271.159.597.238.98.238zm8.534 1.022c-1.166 0-2.02-.443-2.562-1.33-.532-.886-.798-2.128-.798-3.724s.266-2.837.798-3.724c.542-.886 1.396-1.33 2.562-1.33 1.167 0 2.016.444 2.548 1.33.542.887.812 2.128.812 3.724s-.27 2.838-.812 3.724c-.532.887-1.381 1.33-2.548 1.33zm0-1.022c.383 0 .71-.079.98-.238.271-.158.49-.382.658-.672.168-.289.29-.63.364-1.022.084-.392.126-.826.126-1.302v-1.596c0-.476-.042-.91-.126-1.302a3.212 3.212 0 00-.364-1.022 1.822 1.822 0 00-.658-.672c-.27-.158-.597-.238-.98-.238-.382 0-.709.08-.98.238a1.83 1.83 0 00-.658.672c-.168.29-.294.63-.378 1.022a7.035 7.035 0 00-.112 1.302v1.596c0 .476.038.91.112 1.302.084.392.21.733.378 1.022.168.29.388.514.658.672.271.159.598.238.98.238zm5.119-4.438l.784-4.48h1.036l-.784 4.48h-1.036zm6.415-.672l-1.176-2.17h-.042V534h-1.148v-9.772h1.358l3.57 5.964 1.176 2.17h.042v-8.134h1.148V534h-1.358l-3.57-5.964zm13.473.336c.662 0 1.157-.149 1.484-.448.336-.308.504-.7.504-1.176v-.098c0-.513-.164-.896-.49-1.148-.318-.261-.738-.392-1.26-.392-.504 0-.915.112-1.232.336a2.484 2.484 0 00-.784.882l-.868-.672c.121-.196.266-.387.434-.574.177-.196.382-.368.616-.518.233-.149.504-.27.812-.364.308-.093.658-.14 1.05-.14.41 0 .798.056 1.162.168.364.103.676.262.938.476.27.206.48.462.63.77.158.308.238.658.238 1.05 0 .318-.052.602-.154.854a2.026 2.026 0 01-.392.658 2.324 2.324 0 01-.602.476 2.752 2.752 0 01-.728.294v.056c.261.056.513.15.756.28.252.122.471.285.658.49.196.196.35.439.462.728.121.28.182.602.182.966 0 .42-.08.808-.238 1.162a2.637 2.637 0 01-.672.896 3.25 3.25 0 01-1.05.574c-.411.14-.864.21-1.358.21-.42 0-.794-.046-1.12-.14a3.316 3.316 0 01-.868-.378 3.804 3.804 0 01-.672-.532 5.103 5.103 0 01-.504-.616l.882-.672c.121.196.252.374.392.532a2.34 2.34 0 001.092.672c.224.056.485.084.784.084.69 0 1.213-.154 1.568-.462.354-.317.532-.765.532-1.344v-.112c0-.578-.178-1.022-.532-1.33-.355-.317-.878-.476-1.568-.476h-1.148v-1.022h1.064zm6.112 5.628v-1.036h2.73v-7.868h-.098l-2.464 2.296-.686-.742 2.59-2.422h1.834v8.736h2.52V534h-6.426zm10.579-5.124c-.336 0-.649-.06-.938-.182a2.357 2.357 0 01-.742-.504 2.422 2.422 0 01-.672-1.722c0-.345.06-.662.182-.952.121-.298.284-.555.49-.77a2.39 2.39 0 01.742-.504c.289-.121.602-.182.938-.182a2.305 2.305 0 012.17 1.456c.121.29.182.607.182.952 0 .346-.061.668-.182.966a2.34 2.34 0 01-.504.756 2.179 2.179 0 01-.742.504c-.28.122-.588.182-.924.182zm0-.896c.42 0 .751-.144.994-.434.252-.298.378-.658.378-1.078 0-.42-.126-.774-.378-1.064-.243-.298-.574-.448-.994-.448-.42 0-.756.15-1.008.448-.243.29-.364.644-.364 1.064 0 .42.121.78.364 1.078.252.29.588.434 1.008.434zm7.067.392c.662 0 1.157-.149 1.484-.448.336-.308.504-.7.504-1.176v-.098c0-.513-.164-.896-.49-1.148-.318-.261-.738-.392-1.26-.392-.504 0-.915.112-1.232.336a2.484 2.484 0 00-.784.882l-.868-.672c.121-.196.266-.387.434-.574.177-.196.382-.368.616-.518.233-.149.504-.27.812-.364.308-.093.658-.14 1.05-.14.41 0 .798.056 1.162.168.364.103.676.262.938.476.27.206.48.462.63.77.158.308.238.658.238 1.05 0 .318-.052.602-.154.854a2.026 2.026 0 01-.392.658 2.324 2.324 0 01-.602.476 2.752 2.752 0 01-.728.294v.056c.261.056.513.15.756.28.252.122.471.285.658.49.196.196.35.439.462.728.121.28.182.602.182.966 0 .42-.08.808-.238 1.162a2.637 2.637 0 01-.672.896 3.25 3.25 0 01-1.05.574c-.411.14-.864.21-1.358.21-.42 0-.794-.046-1.12-.14a3.316 3.316 0 01-.868-.378 3.804 3.804 0 01-.672-.532 5.103 5.103 0 01-.504-.616l.882-.672c.121.196.252.374.392.532a2.34 2.34 0 001.092.672c.224.056.485.084.784.084.69 0 1.213-.154 1.568-.462.354-.317.532-.765.532-1.344v-.112c0-.578-.178-1.022-.532-1.33-.355-.317-.878-.476-1.568-.476h-1.148v-1.022h1.064zm9.08 5.796c-1.167 0-2.021-.443-2.562-1.33-.532-.886-.798-2.128-.798-3.724s.266-2.837.798-3.724c.541-.886 1.395-1.33 2.562-1.33 1.167 0 2.016.444 2.548 1.33.541.887.812 2.128.812 3.724s-.271 2.838-.812 3.724c-.532.887-1.381 1.33-2.548 1.33zm0-1.022c.383 0 .709-.079.98-.238.271-.158.49-.382.658-.672.168-.289.289-.63.364-1.022.084-.392.126-.826.126-1.302v-1.596c0-.476-.042-.91-.126-1.302a3.237 3.237 0 00-.364-1.022 1.822 1.822 0 00-.658-.672c-.271-.158-.597-.238-.98-.238s-.709.08-.98.238c-.271.159-.49.383-.658.672-.168.29-.294.63-.378 1.022a6.95 6.95 0 00-.112 1.302v1.596c0 .476.037.91.112 1.302.084.392.21.733.378 1.022.168.29.387.514.658.672.271.159.597.238.98.238zm5.119-4.438l.784-4.48h1.036l-.784 4.48h-1.036zm4.048 5.292v-9.772h5.964v1.036h-4.788v3.276h4.508v1.036h-4.508v3.388h4.788V534h-5.964z" fill="#BFDDDC"/></svg>