<svg width="1440" height="810" viewBox="0 0 1440 810" fill="none" xmlns="http://www.w3.org/2000/svg">
<path d="M533 525H535.667V531H533V525ZM542.333 522.333H545V531H542.333V522.333ZM537.667 518.333H540.333V531H537.667V518.333Z" fill="#BFDDDC"/>
<path d="M558.42 530L557.44 527.116H553.492L552.512 530H551.322L554.738 520.228H556.236L559.652 530H558.42ZM555.494 521.32H555.424L553.772 526.08H557.146L555.494 521.32Z" fill="#BFDDDC"/>
<path d="M564.65 530.168C563.408 530.168 562.442 529.748 561.752 528.908C561.061 528.058 560.716 526.812 560.716 525.17C560.716 523.527 561.061 522.267 561.752 521.39C562.442 520.503 563.408 520.06 564.65 520.06C565.471 520.06 566.157 520.246 566.708 520.62C567.268 520.993 567.702 521.52 568.01 522.202L567.058 522.776C566.862 522.272 566.563 521.87 566.162 521.572C565.76 521.264 565.256 521.11 564.65 521.11C564.23 521.11 563.852 521.189 563.516 521.348C563.189 521.506 562.909 521.735 562.676 522.034C562.452 522.323 562.279 522.673 562.158 523.084C562.036 523.485 561.976 523.938 561.976 524.442V525.898C561.976 526.906 562.209 527.694 562.676 528.264C563.142 528.833 563.8 529.118 564.65 529.118C565.275 529.118 565.798 528.959 566.218 528.642C566.638 528.315 566.946 527.886 567.142 527.354L568.08 527.942C567.772 528.632 567.328 529.178 566.75 529.58C566.171 529.972 565.471 530.168 564.65 530.168Z" fill="#BFDDDC"/>
<path d="M573.331 521.264V530H572.155V521.264H569.047V520.228H576.439V521.264H573.331Z" fill="#BFDDDC"/>
<path d="M579.299 520.228V526.276C579.299 527.209 579.471 527.918 579.817 528.404C580.162 528.88 580.769 529.118 581.637 529.118C582.505 529.118 583.111 528.88 583.457 528.404C583.802 527.918 583.975 527.209 583.975 526.276V520.228H585.151V525.996C585.151 526.705 585.085 527.321 584.955 527.844C584.833 528.366 584.633 528.8 584.353 529.146C584.073 529.491 583.704 529.748 583.247 529.916C582.799 530.084 582.248 530.168 581.595 530.168C580.941 530.168 580.391 530.084 579.943 529.916C579.504 529.748 579.149 529.491 578.879 529.146C578.608 528.8 578.412 528.366 578.291 527.844C578.179 527.321 578.123 526.705 578.123 525.996V520.228H579.299Z" fill="#BFDDDC"/>
<path d="M593.761 530L592.781 527.116H588.833L587.853 530H586.663L590.079 520.228H591.577L594.993 530H593.761ZM590.835 521.32H590.765L589.113 526.08H592.487L590.835 521.32Z" fill="#BFDDDC"/>
<path d="M596.752 530V520.228H597.928V528.964H602.086V530H596.752Z" fill="#BFDDDC"/>
<path d="M603.085 532.114L606.739 519.64H607.747L604.093 532.114H603.085Z" fill="#BFDDDC"/>
<path d="M612.299 530.168C611.506 530.168 610.829 530.018 610.269 529.72C609.709 529.412 609.233 528.992 608.841 528.46L609.709 527.732C610.055 528.189 610.437 528.539 610.857 528.782C611.277 529.015 611.772 529.132 612.341 529.132C613.041 529.132 613.573 528.964 613.937 528.628C614.311 528.292 614.497 527.844 614.497 527.284C614.497 526.817 614.357 526.458 614.077 526.206C613.797 525.954 613.335 525.753 612.691 525.604L611.893 525.422C610.997 525.216 610.311 524.908 609.835 524.498C609.369 524.078 609.135 523.49 609.135 522.734C609.135 522.304 609.215 521.922 609.373 521.586C609.532 521.25 609.751 520.97 610.031 520.746C610.321 520.522 610.661 520.354 611.053 520.242C611.455 520.12 611.893 520.06 612.369 520.06C613.107 520.06 613.737 520.195 614.259 520.466C614.791 520.736 615.239 521.133 615.603 521.656L614.721 522.3C614.451 521.926 614.124 521.632 613.741 521.418C613.359 521.203 612.883 521.096 612.313 521.096C611.688 521.096 611.193 521.231 610.829 521.502C610.475 521.763 610.297 522.16 610.297 522.692C610.297 523.158 610.447 523.513 610.745 523.756C611.053 523.989 611.515 524.176 612.131 524.316L612.929 524.498C613.891 524.712 614.586 525.039 615.015 525.478C615.445 525.916 615.659 526.5 615.659 527.228C615.659 527.676 615.58 528.082 615.421 528.446C615.272 528.81 615.053 529.118 614.763 529.37C614.474 529.622 614.119 529.818 613.699 529.958C613.289 530.098 612.822 530.168 612.299 530.168Z" fill="#BFDDDC"/>
<path d="M620.942 521.264V530H619.766V521.264H616.658V520.228H624.05V521.264H620.942Z" fill="#BFDDDC"/>
<path d="M631.006 530L630.026 527.116H626.078L625.098 530H623.908L627.324 520.228H628.822L632.238 530H631.006ZM628.08 521.32H628.01L626.358 526.08H629.732L628.08 521.32Z" fill="#BFDDDC"/>
<path d="M636.363 524.036L635.187 521.866H635.145V530H633.997V520.228H635.355L638.925 526.192L640.101 528.362H640.143V520.228H641.291V530H639.933L636.363 524.036Z" fill="#BFDDDC"/>
<path d="M644.035 520.228H647.311C647.918 520.228 648.469 520.33 648.963 520.536C649.458 520.741 649.878 521.049 650.223 521.46C650.578 521.861 650.849 522.37 651.035 522.986C651.222 523.592 651.315 524.302 651.315 525.114C651.315 525.926 651.222 526.64 651.035 527.256C650.849 527.862 650.578 528.371 650.223 528.782C649.878 529.183 649.458 529.486 648.963 529.692C648.469 529.897 647.918 530 647.311 530H644.035V520.228ZM647.311 528.964C647.713 528.964 648.081 528.898 648.417 528.768C648.753 528.628 649.043 528.427 649.285 528.166C649.528 527.904 649.715 527.587 649.845 527.214C649.985 526.831 650.055 526.397 650.055 525.912V524.316C650.055 523.83 649.985 523.401 649.845 523.028C649.715 522.645 649.528 522.323 649.285 522.062C649.043 521.8 648.753 521.604 648.417 521.474C648.081 521.334 647.713 521.264 647.311 521.264H645.211V528.964H647.311Z" fill="#BFDDDC"/>
<path d="M659.522 530L658.542 527.116H654.594L653.614 530H652.424L655.84 520.228H657.338L660.754 530H659.522ZM656.596 521.32H656.526L654.874 526.08H658.248L656.596 521.32Z" fill="#BFDDDC"/>
<path d="M663.689 530H662.513V520.228H666.405C667.263 520.228 667.931 520.466 668.407 520.942C668.892 521.418 669.135 522.104 669.135 523C669.135 523.718 668.967 524.311 668.631 524.778C668.304 525.235 667.819 525.538 667.175 525.688L669.415 530H668.085L665.971 525.8H663.689V530ZM666.405 524.792C666.871 524.792 667.231 524.67 667.483 524.428C667.744 524.185 667.875 523.84 667.875 523.392V522.664C667.875 522.216 667.744 521.87 667.483 521.628C667.231 521.385 666.871 521.264 666.405 521.264H663.689V524.792H666.405Z" fill="#BFDDDC"/>
<path d="M671.608 520.228H674.884C675.49 520.228 676.041 520.33 676.536 520.536C677.03 520.741 677.45 521.049 677.796 521.46C678.15 521.861 678.421 522.37 678.608 522.986C678.794 523.592 678.888 524.302 678.888 525.114C678.888 525.926 678.794 526.64 678.608 527.256C678.421 527.862 678.15 528.371 677.796 528.782C677.45 529.183 677.03 529.486 676.536 529.692C676.041 529.897 675.49 530 674.884 530H671.608V520.228ZM674.884 528.964C675.285 528.964 675.654 528.898 675.99 528.768C676.326 528.628 676.615 528.427 676.858 528.166C677.1 527.904 677.287 527.587 677.418 527.214C677.558 526.831 677.628 526.397 677.628 525.912V524.316C677.628 523.83 677.558 523.401 677.418 523.028C677.287 522.645 677.1 522.323 676.858 522.062C676.615 521.8 676.326 521.604 675.99 521.474C675.654 521.334 675.285 521.264 674.884 521.264H672.784V528.964H674.884Z" fill="#BFDDDC"/>
<path d="M552.232 554V552.964H554.962V545.096H554.864L552.4 547.392L551.714 546.65L554.304 544.228H556.138V552.964H558.658V554H552.232Z" fill="#BFDDDC"/>
<path d="M566.507 545.264H562.223L561.943 548.988H562.041C562.274 548.661 562.535 548.4 562.825 548.204C563.123 548.008 563.529 547.91 564.043 547.91C564.463 547.91 564.85 547.98 565.205 548.12C565.559 548.26 565.867 548.46 566.129 548.722C566.39 548.974 566.591 549.286 566.731 549.66C566.88 550.033 566.955 550.458 566.955 550.934C566.955 551.41 566.88 551.848 566.731 552.25C566.581 552.642 566.362 552.982 566.073 553.272C565.793 553.552 565.447 553.771 565.037 553.93C564.635 554.088 564.178 554.168 563.665 554.168C563.254 554.168 562.89 554.121 562.573 554.028C562.265 553.934 561.989 553.808 561.747 553.65C561.504 553.491 561.289 553.314 561.103 553.118C560.925 552.922 560.762 552.716 560.613 552.502L561.495 551.83C561.616 552.026 561.742 552.203 561.873 552.362C562.013 552.52 562.162 552.656 562.321 552.768C562.489 552.88 562.68 552.968 562.895 553.034C563.109 553.09 563.366 553.118 563.665 553.118C564.337 553.118 564.845 552.94 565.191 552.586C565.536 552.231 565.709 551.732 565.709 551.088V550.948C565.709 550.304 565.536 549.804 565.191 549.45C564.845 549.095 564.337 548.918 563.665 548.918C563.217 548.918 562.862 549.002 562.601 549.17C562.349 549.328 562.12 549.52 561.915 549.744L560.921 549.604L561.271 544.228H566.507V545.264Z" fill="#BFDDDC"/>
<path d="M574.077 554.168C573.573 554.168 573.116 554.084 572.705 553.916C572.304 553.738 571.959 553.491 571.669 553.174C571.389 552.847 571.175 552.45 571.025 551.984C570.876 551.517 570.801 550.994 570.801 550.416C570.801 549.688 570.909 549.006 571.123 548.372C571.338 547.728 571.613 547.144 571.949 546.622C572.295 546.09 572.673 545.623 573.083 545.222C573.494 544.811 573.895 544.48 574.287 544.228H575.799C575.277 544.61 574.81 544.984 574.399 545.348C573.989 545.712 573.629 546.094 573.321 546.496C573.013 546.888 572.752 547.312 572.537 547.77C572.323 548.218 572.15 548.726 572.019 549.296L572.089 549.324C572.323 548.922 572.621 548.591 572.985 548.33C573.359 548.059 573.844 547.924 574.441 547.924C574.861 547.924 575.249 547.994 575.603 548.134C575.958 548.274 576.261 548.474 576.513 548.736C576.765 548.997 576.961 549.314 577.101 549.688C577.251 550.061 577.325 550.476 577.325 550.934C577.325 551.41 577.246 551.848 577.087 552.25C576.938 552.642 576.719 552.982 576.429 553.272C576.149 553.552 575.809 553.771 575.407 553.93C575.006 554.088 574.563 554.168 574.077 554.168ZM574.063 553.146C574.707 553.146 575.207 552.968 575.561 552.614C575.925 552.259 576.107 551.75 576.107 551.088V550.976C576.107 550.313 575.925 549.804 575.561 549.45C575.207 549.095 574.707 548.918 574.063 548.918C573.419 548.918 572.915 549.095 572.551 549.45C572.197 549.804 572.019 550.313 572.019 550.976V551.088C572.019 551.75 572.197 552.259 572.551 552.614C572.915 552.968 573.419 553.146 574.063 553.146Z" fill="#BFDDDC"/>
<path d="M585.37 545.264H581.086L580.806 548.988H580.904C581.137 548.661 581.399 548.4 581.688 548.204C581.987 548.008 582.393 547.91 582.906 547.91C583.326 547.91 583.713 547.98 584.068 548.12C584.423 548.26 584.731 548.46 584.992 548.722C585.253 548.974 585.454 549.286 585.594 549.66C585.743 550.033 585.818 550.458 585.818 550.934C585.818 551.41 585.743 551.848 585.594 552.25C585.445 552.642 585.225 552.982 584.936 553.272C584.656 553.552 584.311 553.771 583.9 553.93C583.499 554.088 583.041 554.168 582.528 554.168C582.117 554.168 581.753 554.121 581.436 554.028C581.128 553.934 580.853 553.808 580.61 553.65C580.367 553.491 580.153 553.314 579.966 553.118C579.789 552.922 579.625 552.716 579.476 552.502L580.358 551.83C580.479 552.026 580.605 552.203 580.736 552.362C580.876 552.52 581.025 552.656 581.184 552.768C581.352 552.88 581.543 552.968 581.758 553.034C581.973 553.09 582.229 553.118 582.528 553.118C583.2 553.118 583.709 552.94 584.054 552.586C584.399 552.231 584.572 551.732 584.572 551.088V550.948C584.572 550.304 584.399 549.804 584.054 549.45C583.709 549.095 583.2 548.918 582.528 548.918C582.08 548.918 581.725 549.002 581.464 549.17C581.212 549.328 580.983 549.52 580.778 549.744L579.784 549.604L580.134 544.228H585.37V545.264Z" fill="#BFDDDC"/>
<path d="M591.132 554.168C590.572 554.168 590.082 554.098 589.662 553.958C589.242 553.808 588.888 553.608 588.598 553.356C588.318 553.104 588.104 552.805 587.954 552.46C587.814 552.114 587.744 551.741 587.744 551.34C587.744 550.668 587.926 550.136 588.29 549.744C588.654 549.352 589.13 549.076 589.718 548.918V548.806C589.205 548.628 588.794 548.344 588.486 547.952C588.188 547.55 588.038 547.07 588.038 546.51C588.038 545.763 588.309 545.17 588.85 544.732C589.392 544.284 590.152 544.06 591.132 544.06C592.112 544.06 592.873 544.284 593.414 544.732C593.956 545.17 594.226 545.763 594.226 546.51C594.226 547.07 594.072 547.55 593.764 547.952C593.466 548.344 593.06 548.628 592.546 548.806V548.918C593.134 549.076 593.61 549.352 593.974 549.744C594.338 550.136 594.52 550.668 594.52 551.34C594.52 551.741 594.446 552.114 594.296 552.46C594.156 552.805 593.942 553.104 593.652 553.356C593.372 553.608 593.022 553.808 592.602 553.958C592.182 554.098 591.692 554.168 591.132 554.168ZM591.132 553.146C591.814 553.146 592.341 552.996 592.714 552.698C593.088 552.39 593.274 551.956 593.274 551.396V551.102C593.274 550.542 593.088 550.112 592.714 549.814C592.341 549.506 591.814 549.352 591.132 549.352C590.451 549.352 589.924 549.506 589.55 549.814C589.177 550.112 588.99 550.542 588.99 551.102V551.396C588.99 551.956 589.177 552.39 589.55 552.698C589.924 552.996 590.451 553.146 591.132 553.146ZM591.132 548.372C591.748 548.372 592.215 548.241 592.532 547.98C592.85 547.718 593.008 547.336 593.008 546.832V546.622C593.008 546.118 592.85 545.735 592.532 545.474C592.215 545.212 591.748 545.082 591.132 545.082C590.516 545.082 590.05 545.212 589.732 545.474C589.415 545.735 589.256 546.118 589.256 546.622V546.832C589.256 547.336 589.415 547.718 589.732 547.98C590.05 548.241 590.516 548.372 591.132 548.372Z" fill="#BFDDDC"/>
<path d="M595.593 556.114L599.247 543.64H600.255L596.601 556.114H595.593Z" fill="#BFDDDC"/>
<path d="M602.198 554V552.964H604.928V545.096H604.83L602.366 547.392L601.68 546.65L604.27 544.228H606.104V552.964H608.624V554H602.198Z" fill="#BFDDDC"/>
<path d="M613.715 554.168C613.211 554.168 612.754 554.084 612.343 553.916C611.942 553.738 611.596 553.491 611.307 553.174C611.027 552.847 610.812 552.45 610.663 551.984C610.514 551.517 610.439 550.994 610.439 550.416C610.439 549.688 610.546 549.006 610.761 548.372C610.976 547.728 611.251 547.144 611.587 546.622C611.932 546.09 612.31 545.623 612.721 545.222C613.132 544.811 613.533 544.48 613.925 544.228H615.437C614.914 544.61 614.448 544.984 614.037 545.348C613.626 545.712 613.267 546.094 612.959 546.496C612.651 546.888 612.39 547.312 612.175 547.77C611.96 548.218 611.788 548.726 611.657 549.296L611.727 549.324C611.96 548.922 612.259 548.591 612.623 548.33C612.996 548.059 613.482 547.924 614.079 547.924C614.499 547.924 614.886 547.994 615.241 548.134C615.596 548.274 615.899 548.474 616.151 548.736C616.403 548.997 616.599 549.314 616.739 549.688C616.888 550.061 616.963 550.476 616.963 550.934C616.963 551.41 616.884 551.848 616.725 552.25C616.576 552.642 616.356 552.982 616.067 553.272C615.787 553.552 615.446 553.771 615.045 553.93C614.644 554.088 614.2 554.168 613.715 554.168ZM613.701 553.146C614.345 553.146 614.844 552.968 615.199 552.614C615.563 552.259 615.745 551.75 615.745 551.088V550.976C615.745 550.313 615.563 549.804 615.199 549.45C614.844 549.095 614.345 548.918 613.701 548.918C613.057 548.918 612.553 549.095 612.189 549.45C611.834 549.804 611.657 550.313 611.657 550.976V551.088C611.657 551.75 611.834 552.259 612.189 552.614C612.553 552.968 613.057 553.146 613.701 553.146Z" fill="#BFDDDC"/>
<path d="M625.007 545.264H620.723L620.443 548.988H620.541C620.775 548.661 621.036 548.4 621.325 548.204C621.624 548.008 622.03 547.91 622.543 547.91C622.963 547.91 623.351 547.98 623.705 548.12C624.06 548.26 624.368 548.46 624.629 548.722C624.891 548.974 625.091 549.286 625.231 549.66C625.381 550.033 625.455 550.458 625.455 550.934C625.455 551.41 625.381 551.848 625.231 552.25C625.082 552.642 624.863 552.982 624.573 553.272C624.293 553.552 623.948 553.771 623.537 553.93C623.136 554.088 622.679 554.168 622.165 554.168C621.755 554.168 621.391 554.121 621.073 554.028C620.765 553.934 620.49 553.808 620.247 553.65C620.005 553.491 619.79 553.314 619.603 553.118C619.426 552.922 619.263 552.716 619.113 552.502L619.995 551.83C620.117 552.026 620.243 552.203 620.373 552.362C620.513 552.52 620.663 552.656 620.821 552.768C620.989 552.88 621.181 552.968 621.395 553.034C621.61 553.09 621.867 553.118 622.165 553.118C622.837 553.118 623.346 552.94 623.691 552.586C624.037 552.231 624.209 551.732 624.209 551.088V550.948C624.209 550.304 624.037 549.804 623.691 549.45C623.346 549.095 622.837 548.918 622.165 548.918C621.717 548.918 621.363 549.002 621.101 549.17C620.849 549.328 620.621 549.52 620.415 549.744L619.421 549.604L619.771 544.228H625.007V545.264Z" fill="#BFDDDC"/>
<path d="M630.77 554.168C629.603 554.168 628.749 553.724 628.208 552.838C627.676 551.951 627.41 550.71 627.41 549.114C627.41 547.518 627.676 546.276 628.208 545.39C628.749 544.503 629.603 544.06 630.77 544.06C631.937 544.06 632.786 544.503 633.318 545.39C633.859 546.276 634.13 547.518 634.13 549.114C634.13 550.71 633.859 551.951 633.318 552.838C632.786 553.724 631.937 554.168 630.77 554.168ZM630.77 553.146C631.153 553.146 631.479 553.066 631.75 552.908C632.021 552.749 632.24 552.525 632.408 552.236C632.576 551.946 632.697 551.606 632.772 551.214C632.856 550.822 632.898 550.388 632.898 549.912V548.316C632.898 547.84 632.856 547.406 632.772 547.014C632.697 546.622 632.576 546.281 632.408 545.992C632.24 545.702 632.021 545.478 631.75 545.32C631.479 545.161 631.153 545.082 630.77 545.082C630.387 545.082 630.061 545.161 629.79 545.32C629.519 545.478 629.3 545.702 629.132 545.992C628.964 546.281 628.838 546.622 628.754 547.014C628.679 547.406 628.642 547.84 628.642 548.316V549.912C628.642 550.388 628.679 550.822 628.754 551.214C628.838 551.606 628.964 551.946 629.132 552.236C629.3 552.525 629.519 552.749 629.79 552.908C630.061 553.066 630.387 553.146 630.77 553.146Z" fill="#BFDDDC"/>
<path d="M639.304 554.168C638.138 554.168 637.284 553.724 636.742 552.838C636.21 551.951 635.944 550.71 635.944 549.114C635.944 547.518 636.21 546.276 636.742 545.39C637.284 544.503 638.138 544.06 639.304 544.06C640.471 544.06 641.32 544.503 641.852 545.39C642.394 546.276 642.664 547.518 642.664 549.114C642.664 550.71 642.394 551.951 641.852 552.838C641.32 553.724 640.471 554.168 639.304 554.168ZM639.304 553.146C639.687 553.146 640.014 553.066 640.284 552.908C640.555 552.749 640.774 552.525 640.942 552.236C641.11 551.946 641.232 551.606 641.306 551.214C641.39 550.822 641.432 550.388 641.432 549.912V548.316C641.432 547.84 641.39 547.406 641.306 547.014C641.232 546.622 641.11 546.281 640.942 545.992C640.774 545.702 640.555 545.478 640.284 545.32C640.014 545.161 639.687 545.082 639.304 545.082C638.922 545.082 638.595 545.161 638.324 545.32C638.054 545.478 637.834 545.702 637.666 545.992C637.498 546.281 637.372 546.622 637.288 547.014C637.214 547.406 637.176 547.84 637.176 548.316V549.912C637.176 550.388 637.214 550.822 637.288 551.214C637.372 551.606 637.498 551.946 637.666 552.236C637.834 552.525 638.054 552.749 638.324 552.908C638.595 553.066 638.922 553.146 639.304 553.146Z" fill="#BFDDDC"/>
<path d="M648.39 554V544.228H649.566V552.964H653.724V554H648.39Z" fill="#BFDDDC"/>
<path d="M654.723 556.114L658.377 543.64H659.385L655.731 556.114H654.723Z" fill="#BFDDDC"/>
<path d="M667.516 549.576H662.574V554H661.398V544.228H662.574V548.54H667.516V544.228H668.692V554H667.516V549.576Z" fill="#BFDDDC"/>
<path fill-rule="evenodd" clip-rule="evenodd" d="M720 557L720 517L721 517L721 557L720 557Z" fill="#BFDDDC"/>
<path d="M762 525H764.667V531H762V525ZM771.333 522.333H774V531H771.333V522.333ZM766.667 518.333H769.333V531H766.667V518.333Z" fill="#BFDDDC"/>
<path d="M787.42 530L786.44 527.116H782.492L781.512 530H780.322L783.738 520.228H785.236L788.652 530H787.42ZM784.494 521.32H784.424L782.772 526.08H786.146L784.494 521.32Z" fill="#BFDDDC"/>
<path d="M793.65 530.168C792.408 530.168 791.442 529.748 790.752 528.908C790.061 528.058 789.716 526.812 789.716 525.17C789.716 523.527 790.061 522.267 790.752 521.39C791.442 520.503 792.408 520.06 793.65 520.06C794.471 520.06 795.157 520.246 795.708 520.62C796.268 520.993 796.702 521.52 797.01 522.202L796.058 522.776C795.862 522.272 795.563 521.87 795.162 521.572C794.76 521.264 794.256 521.11 793.65 521.11C793.23 521.11 792.852 521.189 792.516 521.348C792.189 521.506 791.909 521.735 791.676 522.034C791.452 522.323 791.279 522.673 791.158 523.084C791.036 523.485 790.976 523.938 790.976 524.442V525.898C790.976 526.906 791.209 527.694 791.676 528.264C792.142 528.833 792.8 529.118 793.65 529.118C794.275 529.118 794.798 528.959 795.218 528.642C795.638 528.315 795.946 527.886 796.142 527.354L797.08 527.942C796.772 528.632 796.328 529.178 795.75 529.58C795.171 529.972 794.471 530.168 793.65 530.168Z" fill="#BFDDDC"/>
<path d="M802.331 521.264V530H801.155V521.264H798.047V520.228H805.439V521.264H802.331Z" fill="#BFDDDC"/>
<path d="M808.299 520.228V526.276C808.299 527.209 808.471 527.918 808.817 528.404C809.162 528.88 809.769 529.118 810.637 529.118C811.505 529.118 812.111 528.88 812.457 528.404C812.802 527.918 812.975 527.209 812.975 526.276V520.228H814.151V525.996C814.151 526.705 814.085 527.321 813.955 527.844C813.833 528.366 813.633 528.8 813.353 529.146C813.073 529.491 812.704 529.748 812.247 529.916C811.799 530.084 811.248 530.168 810.595 530.168C809.941 530.168 809.391 530.084 808.943 529.916C808.504 529.748 808.149 529.491 807.879 529.146C807.608 528.8 807.412 528.366 807.291 527.844C807.179 527.321 807.123 526.705 807.123 525.996V520.228H808.299Z" fill="#BFDDDC"/>
<path d="M822.761 530L821.781 527.116H817.833L816.853 530H815.663L819.079 520.228H820.577L823.993 530H822.761ZM819.835 521.32H819.765L818.113 526.08H821.487L819.835 521.32Z" fill="#BFDDDC"/>
<path d="M825.752 530V520.228H826.928V528.964H831.086V530H825.752Z" fill="#BFDDDC"/>
<path d="M832.085 532.114L835.739 519.64H836.747L833.093 532.114H832.085Z" fill="#BFDDDC"/>
<path d="M841.299 530.168C840.506 530.168 839.829 530.018 839.269 529.72C838.709 529.412 838.233 528.992 837.841 528.46L838.709 527.732C839.055 528.189 839.437 528.539 839.857 528.782C840.277 529.015 840.772 529.132 841.341 529.132C842.041 529.132 842.573 528.964 842.937 528.628C843.311 528.292 843.497 527.844 843.497 527.284C843.497 526.817 843.357 526.458 843.077 526.206C842.797 525.954 842.335 525.753 841.691 525.604L840.893 525.422C839.997 525.216 839.311 524.908 838.835 524.498C838.369 524.078 838.135 523.49 838.135 522.734C838.135 522.304 838.215 521.922 838.373 521.586C838.532 521.25 838.751 520.97 839.031 520.746C839.321 520.522 839.661 520.354 840.053 520.242C840.455 520.12 840.893 520.06 841.369 520.06C842.107 520.06 842.737 520.195 843.259 520.466C843.791 520.736 844.239 521.133 844.603 521.656L843.721 522.3C843.451 521.926 843.124 521.632 842.741 521.418C842.359 521.203 841.883 521.096 841.313 521.096C840.688 521.096 840.193 521.231 839.829 521.502C839.475 521.763 839.297 522.16 839.297 522.692C839.297 523.158 839.447 523.513 839.745 523.756C840.053 523.989 840.515 524.176 841.131 524.316L841.929 524.498C842.891 524.712 843.586 525.039 844.015 525.478C844.445 525.916 844.659 526.5 844.659 527.228C844.659 527.676 844.58 528.082 844.421 528.446C844.272 528.81 844.053 529.118 843.763 529.37C843.474 529.622 843.119 529.818 842.699 529.958C842.289 530.098 841.822 530.168 841.299 530.168Z" fill="#BFDDDC"/>
<path d="M849.942 521.264V530H848.766V521.264H845.658V520.228H853.05V521.264H849.942Z" fill="#BFDDDC"/>
<path d="M860.006 530L859.026 527.116H855.078L854.098 530H852.908L856.324 520.228H857.822L861.238 530H860.006ZM857.08 521.32H857.01L855.358 526.08H858.732L857.08 521.32Z" fill="#BFDDDC"/>
<path d="M865.363 524.036L864.187 521.866H864.145V530H862.997V520.228H864.355L867.925 526.192L869.101 528.362H869.143V520.228H870.291V530H868.933L865.363 524.036Z" fill="#BFDDDC"/>
<path d="M873.035 520.228H876.311C876.918 520.228 877.469 520.33 877.963 520.536C878.458 520.741 878.878 521.049 879.223 521.46C879.578 521.861 879.849 522.37 880.035 522.986C880.222 523.592 880.315 524.302 880.315 525.114C880.315 525.926 880.222 526.64 880.035 527.256C879.849 527.862 879.578 528.371 879.223 528.782C878.878 529.183 878.458 529.486 877.963 529.692C877.469 529.897 876.918 530 876.311 530H873.035V520.228ZM876.311 528.964C876.713 528.964 877.081 528.898 877.417 528.768C877.753 528.628 878.043 528.427 878.285 528.166C878.528 527.904 878.715 527.587 878.845 527.214C878.985 526.831 879.055 526.397 879.055 525.912V524.316C879.055 523.83 878.985 523.401 878.845 523.028C878.715 522.645 878.528 522.323 878.285 522.062C878.043 521.8 877.753 521.604 877.417 521.474C877.081 521.334 876.713 521.264 876.311 521.264H874.211V528.964H876.311Z" fill="#BFDDDC"/>
<path d="M888.522 530L887.542 527.116H883.594L882.614 530H881.424L884.84 520.228H886.338L889.754 530H888.522ZM885.596 521.32H885.526L883.874 526.08H887.248L885.596 521.32Z" fill="#BFDDDC"/>
<path d="M892.689 530H891.513V520.228H895.405C896.263 520.228 896.931 520.466 897.407 520.942C897.892 521.418 898.135 522.104 898.135 523C898.135 523.718 897.967 524.311 897.631 524.778C897.304 525.235 896.819 525.538 896.175 525.688L898.415 530H897.085L894.971 525.8H892.689V530ZM895.405 524.792C895.871 524.792 896.231 524.67 896.483 524.428C896.744 524.185 896.875 523.84 896.875 523.392V522.664C896.875 522.216 896.744 521.87 896.483 521.628C896.231 521.385 895.871 521.264 895.405 521.264H892.689V524.792H895.405Z" fill="#BFDDDC"/>
<path d="M900.608 520.228H903.884C904.49 520.228 905.041 520.33 905.536 520.536C906.03 520.741 906.45 521.049 906.796 521.46C907.15 521.861 907.421 522.37 907.608 522.986C907.794 523.592 907.888 524.302 907.888 525.114C907.888 525.926 907.794 526.64 907.608 527.256C907.421 527.862 907.15 528.371 906.796 528.782C906.45 529.183 906.03 529.486 905.536 529.692C905.041 529.897 904.49 530 903.884 530H900.608V520.228ZM903.884 528.964C904.285 528.964 904.654 528.898 904.99 528.768C905.326 528.628 905.615 528.427 905.858 528.166C906.1 527.904 906.287 527.587 906.418 527.214C906.558 526.831 906.628 526.397 906.628 525.912V524.316C906.628 523.83 906.558 523.401 906.418 523.028C906.287 522.645 906.1 522.323 905.858 522.062C905.615 521.8 905.326 521.604 904.99 521.474C904.654 521.334 904.285 521.264 903.884 521.264H901.784V528.964H903.884Z" fill="#BFDDDC"/>
<path d="M782.45 554L786.188 545.236H782.016V547.056H780.966V544.228H787.378V545.264L783.71 554H782.45Z" fill="#BFDDDC"/>
<path d="M795.997 554H789.585V552.796L792.777 549.856C793.234 549.436 793.617 548.992 793.925 548.526C794.233 548.05 794.387 547.574 794.387 547.098V546.93C794.387 546.388 794.237 545.95 793.939 545.614C793.64 545.278 793.187 545.11 792.581 545.11C792.282 545.11 792.021 545.152 791.797 545.236C791.573 545.32 791.377 545.436 791.209 545.586C791.05 545.735 790.915 545.912 790.803 546.118C790.7 546.314 790.616 546.528 790.551 546.762L789.501 546.356C789.594 546.066 789.72 545.786 789.879 545.516C790.047 545.236 790.252 544.988 790.495 544.774C790.747 544.559 791.045 544.386 791.391 544.256C791.745 544.125 792.161 544.06 792.637 544.06C793.113 544.06 793.537 544.13 793.911 544.27C794.284 544.41 794.597 544.606 794.849 544.858C795.101 545.11 795.292 545.408 795.423 545.754C795.563 546.099 795.633 546.482 795.633 546.902C795.633 547.284 795.577 547.639 795.465 547.966C795.362 548.292 795.217 548.605 795.031 548.904C794.844 549.193 794.615 549.478 794.345 549.758C794.083 550.038 793.799 550.318 793.491 550.598L790.859 552.964H795.997V554Z" fill="#BFDDDC"/>
<path d="M801.269 554.168C800.709 554.168 800.219 554.098 799.799 553.958C799.379 553.808 799.024 553.608 798.735 553.356C798.455 553.104 798.24 552.805 798.091 552.46C797.951 552.114 797.881 551.741 797.881 551.34C797.881 550.668 798.063 550.136 798.427 549.744C798.791 549.352 799.267 549.076 799.855 548.918V548.806C799.342 548.628 798.931 548.344 798.623 547.952C798.324 547.55 798.175 547.07 798.175 546.51C798.175 545.763 798.446 545.17 798.987 544.732C799.528 544.284 800.289 544.06 801.269 544.06C802.249 544.06 803.01 544.284 803.551 544.732C804.092 545.17 804.363 545.763 804.363 546.51C804.363 547.07 804.209 547.55 803.901 547.952C803.602 548.344 803.196 548.628 802.683 548.806V548.918C803.271 549.076 803.747 549.352 804.111 549.744C804.475 550.136 804.657 550.668 804.657 551.34C804.657 551.741 804.582 552.114 804.433 552.46C804.293 552.805 804.078 553.104 803.789 553.356C803.509 553.608 803.159 553.808 802.739 553.958C802.319 554.098 801.829 554.168 801.269 554.168ZM801.269 553.146C801.95 553.146 802.478 552.996 802.851 552.698C803.224 552.39 803.411 551.956 803.411 551.396V551.102C803.411 550.542 803.224 550.112 802.851 549.814C802.478 549.506 801.95 549.352 801.269 549.352C800.588 549.352 800.06 549.506 799.687 549.814C799.314 550.112 799.127 550.542 799.127 551.102V551.396C799.127 551.956 799.314 552.39 799.687 552.698C800.06 552.996 800.588 553.146 801.269 553.146ZM801.269 548.372C801.885 548.372 802.352 548.241 802.669 547.98C802.986 547.718 803.145 547.336 803.145 546.832V546.622C803.145 546.118 802.986 545.735 802.669 545.474C802.352 545.212 801.885 545.082 801.269 545.082C800.653 545.082 800.186 545.212 799.869 545.474C799.552 545.735 799.393 546.118 799.393 546.622V546.832C799.393 547.336 799.552 547.718 799.869 547.98C800.186 548.241 800.653 548.372 801.269 548.372Z" fill="#BFDDDC"/>
<path d="M805.73 556.114L809.384 543.64H810.392L806.738 556.114H805.73Z" fill="#BFDDDC"/>
<path d="M813.553 554L817.291 545.236H813.119V547.056H812.069V544.228H818.481V545.264L814.813 554H813.553Z" fill="#BFDDDC"/>
<path d="M823.851 554.168C823.347 554.168 822.89 554.084 822.479 553.916C822.078 553.738 821.733 553.491 821.443 553.174C821.163 552.847 820.949 552.45 820.799 551.984C820.65 551.517 820.575 550.994 820.575 550.416C820.575 549.688 820.683 549.006 820.897 548.372C821.112 547.728 821.388 547.144 821.723 546.622C822.069 546.09 822.447 545.623 822.857 545.222C823.268 544.811 823.669 544.48 824.061 544.228H825.573C825.051 544.61 824.584 544.984 824.173 545.348C823.763 545.712 823.403 546.094 823.095 546.496C822.787 546.888 822.526 547.312 822.311 547.77C822.097 548.218 821.924 548.726 821.793 549.296L821.863 549.324C822.097 548.922 822.396 548.591 822.759 548.33C823.133 548.059 823.618 547.924 824.215 547.924C824.635 547.924 825.023 547.994 825.377 548.134C825.732 548.274 826.035 548.474 826.287 548.736C826.539 548.997 826.735 549.314 826.875 549.688C827.025 550.061 827.099 550.476 827.099 550.934C827.099 551.41 827.02 551.848 826.861 552.25C826.712 552.642 826.493 552.982 826.203 553.272C825.924 553.552 825.583 553.771 825.181 553.93C824.78 554.088 824.337 554.168 823.851 554.168ZM823.837 553.146C824.481 553.146 824.981 552.968 825.335 552.614C825.699 552.259 825.881 551.75 825.881 551.088V550.976C825.881 550.313 825.699 549.804 825.335 549.45C824.981 549.095 824.481 548.918 823.837 548.918C823.193 548.918 822.689 549.095 822.325 549.45C821.971 549.804 821.793 550.313 821.793 550.976V551.088C821.793 551.75 821.971 552.259 822.325 552.614C822.689 552.968 823.193 553.146 823.837 553.146Z" fill="#BFDDDC"/>
<path d="M832.372 554.168C831.205 554.168 830.351 553.724 829.81 552.838C829.278 551.951 829.012 550.71 829.012 549.114C829.012 547.518 829.278 546.276 829.81 545.39C830.351 544.503 831.205 544.06 832.372 544.06C833.539 544.06 834.388 544.503 834.92 545.39C835.461 546.276 835.732 547.518 835.732 549.114C835.732 550.71 835.461 551.951 834.92 552.838C834.388 553.724 833.539 554.168 832.372 554.168ZM832.372 553.146C832.755 553.146 833.081 553.066 833.352 552.908C833.623 552.749 833.842 552.525 834.01 552.236C834.178 551.946 834.299 551.606 834.374 551.214C834.458 550.822 834.5 550.388 834.5 549.912V548.316C834.5 547.84 834.458 547.406 834.374 547.014C834.299 546.622 834.178 546.281 834.01 545.992C833.842 545.702 833.623 545.478 833.352 545.32C833.081 545.161 832.755 545.082 832.372 545.082C831.989 545.082 831.663 545.161 831.392 545.32C831.121 545.478 830.902 545.702 830.734 545.992C830.566 546.281 830.44 546.622 830.356 547.014C830.281 547.406 830.244 547.84 830.244 548.316V549.912C830.244 550.388 830.281 550.822 830.356 551.214C830.44 551.606 830.566 551.946 830.734 552.236C830.902 552.525 831.121 552.749 831.392 552.908C831.663 553.066 831.989 553.146 832.372 553.146Z" fill="#BFDDDC"/>
<path d="M842.633 554H841.457V544.228H845.349C846.208 544.228 846.875 544.466 847.351 544.942C847.836 545.418 848.079 546.104 848.079 547C848.079 547.718 847.911 548.311 847.575 548.778C847.248 549.235 846.763 549.538 846.119 549.688L848.359 554H847.029L844.915 549.8H842.633V554ZM845.349 548.792C845.816 548.792 846.175 548.67 846.427 548.428C846.688 548.185 846.819 547.84 846.819 547.392V546.664C846.819 546.216 846.688 545.87 846.427 545.628C846.175 545.385 845.816 545.264 845.349 545.264H842.633V548.792H845.349Z" fill="#BFDDDC"/>
<path d="M850.552 554V544.228H854.444C855.322 544.228 855.994 544.48 856.46 544.984C856.936 545.478 857.174 546.16 857.174 547.028C857.174 547.896 856.936 548.582 856.46 549.086C855.994 549.58 855.322 549.828 854.444 549.828H851.728V554H850.552ZM851.728 548.792H854.444C854.911 548.792 855.27 548.67 855.522 548.428C855.784 548.185 855.914 547.84 855.914 547.392V546.664C855.914 546.216 855.784 545.87 855.522 545.628C855.27 545.385 854.911 545.264 854.444 545.264H851.728V548.792Z" fill="#BFDDDC"/>
<path d="M866.798 545.768H866.728L865.902 547.406L863.564 551.662L861.226 547.406L860.4 545.768H860.33V554H859.182V544.228H860.75L863.55 549.492H863.62L866.434 544.228H867.946V554H866.798V545.768Z" fill="#BFDDDC"/>
</svg>
