<svg width="1440" height="810" viewBox="0 0 1440 810" fill="none" xmlns="http://www.w3.org/2000/svg">
<path d="M399.333 559.667C398.6 559.667 398 560.267 398 561C398 561.733 398.6 562.333 399.333 562.333C400.067 562.333 400.667 561.733 400.667 561C400.667 560.267 400.067 559.667 399.333 559.667ZM408.667 559.667C407.933 559.667 407.333 560.267 407.333 561C407.333 561.733 407.933 562.333 408.667 562.333C409.4 562.333 410 561.733 410 561C410 560.267 409.4 559.667 408.667 559.667ZM404 559.667C403.267 559.667 402.667 560.267 402.667 561C402.667 561.733 403.267 562.333 404 562.333C404.733 562.333 405.333 561.733 405.333 561C405.333 560.267 404.733 559.667 404 559.667Z" fill="#BFDDDC"/>
<path d="M420.046 566.168C419.253 566.168 418.576 566.019 418.016 565.72C417.456 565.412 416.98 564.992 416.588 564.46L417.456 563.732C417.801 564.189 418.184 564.539 418.604 564.782C419.024 565.015 419.519 565.132 420.088 565.132C420.788 565.132 421.32 564.964 421.684 564.628C422.057 564.292 422.244 563.844 422.244 563.284C422.244 562.817 422.104 562.458 421.824 562.206C421.544 561.954 421.082 561.753 420.438 561.604L419.64 561.422C418.744 561.217 418.058 560.909 417.582 560.498C417.115 560.078 416.882 559.49 416.882 558.734C416.882 558.305 416.961 557.922 417.12 557.586C417.279 557.25 417.498 556.97 417.778 556.746C418.067 556.522 418.408 556.354 418.8 556.242C419.201 556.121 419.64 556.06 420.116 556.06C420.853 556.06 421.483 556.195 422.006 556.466C422.538 556.737 422.986 557.133 423.35 557.656L422.468 558.3C422.197 557.927 421.871 557.633 421.488 557.418C421.105 557.203 420.629 557.096 420.06 557.096C419.435 557.096 418.94 557.231 418.576 557.502C418.221 557.763 418.044 558.16 418.044 558.692C418.044 559.159 418.193 559.513 418.492 559.756C418.8 559.989 419.262 560.176 419.878 560.316L420.676 560.498C421.637 560.713 422.333 561.039 422.762 561.478C423.191 561.917 423.406 562.5 423.406 563.228C423.406 563.676 423.327 564.082 423.168 564.446C423.019 564.81 422.799 565.118 422.51 565.37C422.221 565.622 421.866 565.818 421.446 565.958C421.035 566.098 420.569 566.168 420.046 566.168Z" fill="#BFDDDC"/>
<path d="M425.465 555.64H426.585V559.952H426.641C426.818 559.541 427.065 559.215 427.383 558.972C427.709 558.729 428.143 558.608 428.685 558.608C429.431 558.608 430.019 558.851 430.449 559.336C430.887 559.812 431.107 560.489 431.107 561.366V566H429.987V561.562C429.987 560.265 429.441 559.616 428.349 559.616C428.125 559.616 427.905 559.644 427.691 559.7C427.485 559.756 427.299 559.84 427.131 559.952C426.963 560.064 426.827 560.209 426.725 560.386C426.631 560.554 426.585 560.755 426.585 560.988V566H425.465V555.64Z" fill="#BFDDDC"/>
<path d="M436.292 566.168C435.806 566.168 435.363 566.079 434.962 565.902C434.56 565.725 434.215 565.473 433.926 565.146C433.646 564.81 433.426 564.413 433.268 563.956C433.109 563.489 433.03 562.967 433.03 562.388C433.03 561.819 433.109 561.301 433.268 560.834C433.426 560.367 433.646 559.971 433.926 559.644C434.215 559.308 434.56 559.051 434.962 558.874C435.363 558.697 435.806 558.608 436.292 558.608C436.777 558.608 437.216 558.697 437.608 558.874C438.009 559.051 438.354 559.308 438.644 559.644C438.933 559.971 439.157 560.367 439.316 560.834C439.474 561.301 439.554 561.819 439.554 562.388C439.554 562.967 439.474 563.489 439.316 563.956C439.157 564.413 438.933 564.81 438.644 565.146C438.354 565.473 438.009 565.725 437.608 565.902C437.216 566.079 436.777 566.168 436.292 566.168ZM436.292 565.174C436.898 565.174 437.393 564.987 437.776 564.614C438.158 564.241 438.35 563.671 438.35 562.906V561.87C438.35 561.105 438.158 560.535 437.776 560.162C437.393 559.789 436.898 559.602 436.292 559.602C435.685 559.602 435.19 559.789 434.808 560.162C434.425 560.535 434.234 561.105 434.234 561.87V562.906C434.234 563.671 434.425 564.241 434.808 564.614C435.19 564.987 435.685 565.174 436.292 565.174Z" fill="#BFDDDC"/>
<path d="M440.711 558.776H441.803L442.573 561.898L443.343 565.062H443.371L444.253 561.898L445.163 558.776H446.157L447.095 561.898L447.991 565.062H448.019L448.761 561.898L449.545 558.776H450.595L448.677 566H447.291L446.283 562.528L445.653 560.33H445.625L445.009 562.528L444.001 566H442.643L440.711 558.776Z" fill="#BFDDDC"/>
<path d="M455.802 566V558.776H456.922V559.952H456.978C457.062 559.765 457.155 559.593 457.258 559.434C457.37 559.266 457.501 559.121 457.65 559C457.809 558.879 457.991 558.785 458.196 558.72C458.401 558.645 458.644 558.608 458.924 558.608C459.4 558.608 459.839 558.725 460.24 558.958C460.641 559.182 460.94 559.555 461.136 560.078H461.164C461.295 559.686 461.537 559.345 461.892 559.056C462.256 558.757 462.746 558.608 463.362 558.608C464.099 558.608 464.673 558.851 465.084 559.336C465.504 559.812 465.714 560.489 465.714 561.366V566H464.594V561.562C464.594 560.918 464.468 560.433 464.216 560.106C463.964 559.779 463.563 559.616 463.012 559.616C462.788 559.616 462.573 559.644 462.368 559.7C462.172 559.756 461.995 559.84 461.836 559.952C461.677 560.064 461.551 560.209 461.458 560.386C461.365 560.554 461.318 560.755 461.318 560.988V566H460.198V561.562C460.198 560.918 460.072 560.433 459.82 560.106C459.568 559.779 459.176 559.616 458.644 559.616C458.42 559.616 458.205 559.644 458 559.7C457.795 559.756 457.613 559.84 457.454 559.952C457.295 560.064 457.165 560.209 457.062 560.386C456.969 560.554 456.922 560.755 456.922 560.988V566H455.802Z" fill="#BFDDDC"/>
<path d="M470.895 566.168C470.409 566.168 469.966 566.079 469.565 565.902C469.163 565.725 468.818 565.473 468.529 565.146C468.249 564.81 468.029 564.413 467.871 563.956C467.712 563.489 467.633 562.967 467.633 562.388C467.633 561.819 467.712 561.301 467.871 560.834C468.029 560.367 468.249 559.971 468.529 559.644C468.818 559.308 469.163 559.051 469.565 558.874C469.966 558.697 470.409 558.608 470.895 558.608C471.38 558.608 471.819 558.697 472.211 558.874C472.612 559.051 472.957 559.308 473.247 559.644C473.536 559.971 473.76 560.367 473.919 560.834C474.077 561.301 474.157 561.819 474.157 562.388C474.157 562.967 474.077 563.489 473.919 563.956C473.76 564.413 473.536 564.81 473.247 565.146C472.957 565.473 472.612 565.725 472.211 565.902C471.819 566.079 471.38 566.168 470.895 566.168ZM470.895 565.174C471.501 565.174 471.996 564.987 472.379 564.614C472.761 564.241 472.953 563.671 472.953 562.906V561.87C472.953 561.105 472.761 560.535 472.379 560.162C471.996 559.789 471.501 559.602 470.895 559.602C470.288 559.602 469.793 559.789 469.411 560.162C469.028 560.535 468.837 561.105 468.837 561.87V562.906C468.837 563.671 469.028 564.241 469.411 564.614C469.793 564.987 470.288 565.174 470.895 565.174Z" fill="#BFDDDC"/>
<path d="M476.139 566V558.776H477.259V560.106H477.329C477.459 559.761 477.693 559.453 478.029 559.182C478.365 558.911 478.827 558.776 479.415 558.776H479.849V559.896H479.191C478.584 559.896 478.108 560.013 477.763 560.246C477.427 560.47 477.259 560.755 477.259 561.1V566H476.139Z" fill="#BFDDDC"/>
<path d="M484.067 566.168C483.572 566.168 483.124 566.079 482.723 565.902C482.331 565.725 481.99 565.473 481.701 565.146C481.421 564.81 481.202 564.413 481.043 563.956C480.894 563.489 480.819 562.967 480.819 562.388C480.819 561.819 480.894 561.301 481.043 560.834C481.202 560.367 481.421 559.971 481.701 559.644C481.99 559.308 482.331 559.051 482.723 558.874C483.124 558.697 483.572 558.608 484.067 558.608C484.552 558.608 484.986 558.697 485.369 558.874C485.752 559.051 486.078 559.299 486.349 559.616C486.62 559.924 486.825 560.293 486.965 560.722C487.114 561.151 487.189 561.623 487.189 562.136V562.668H481.995V563.004C481.995 563.312 482.042 563.601 482.135 563.872C482.238 564.133 482.378 564.362 482.555 564.558C482.742 564.754 482.966 564.908 483.227 565.02C483.498 565.132 483.801 565.188 484.137 565.188C484.594 565.188 484.991 565.081 485.327 564.866C485.672 564.651 485.938 564.343 486.125 563.942L486.923 564.516C486.69 565.011 486.326 565.412 485.831 565.72C485.336 566.019 484.748 566.168 484.067 566.168ZM484.067 559.546C483.759 559.546 483.479 559.602 483.227 559.714C482.975 559.817 482.756 559.966 482.569 560.162C482.392 560.358 482.252 560.591 482.149 560.862C482.046 561.123 481.995 561.413 481.995 561.73V561.828H485.985V561.674C485.985 561.03 485.808 560.517 485.453 560.134C485.108 559.742 484.646 559.546 484.067 559.546Z" fill="#BFDDDC"/>
<path d="M399.757 533.424L404 529.181L408.243 533.424C409.082 534.263 409.653 535.332 409.885 536.496C410.116 537.66 409.997 538.866 409.543 539.963C409.089 541.059 408.32 541.996 407.333 542.655C406.347 543.315 405.187 543.666 404 543.666C402.813 543.666 401.653 543.315 400.667 542.655C399.68 541.996 398.911 541.059 398.457 539.963C398.003 538.866 397.884 537.66 398.115 536.496C398.347 535.332 398.918 534.263 399.757 533.424ZM404 531.067L400.7 534.366C400.266 534.799 399.922 535.314 399.687 535.88C399.453 536.446 399.332 537.054 399.333 537.666H408.667C408.668 537.054 408.547 536.446 408.313 535.88C408.078 535.314 407.734 534.799 407.3 534.366L404 531.067Z" fill="#BFDDDC"/>
<path d="M423.462 542H417.05V540.796L420.242 537.856C420.699 537.436 421.082 536.992 421.39 536.526C421.698 536.05 421.852 535.574 421.852 535.098V534.93C421.852 534.388 421.703 533.95 421.404 533.614C421.105 533.278 420.653 533.11 420.046 533.11C419.747 533.11 419.486 533.152 419.262 533.236C419.038 533.32 418.842 533.436 418.674 533.586C418.515 533.735 418.38 533.912 418.268 534.118C418.165 534.314 418.081 534.528 418.016 534.762L416.966 534.356C417.059 534.066 417.185 533.786 417.344 533.516C417.512 533.236 417.717 532.988 417.96 532.774C418.212 532.559 418.511 532.386 418.856 532.256C419.211 532.125 419.626 532.06 420.102 532.06C420.578 532.06 421.003 532.13 421.376 532.27C421.749 532.41 422.062 532.606 422.314 532.858C422.566 533.11 422.757 533.408 422.888 533.754C423.028 534.099 423.098 534.482 423.098 534.902C423.098 535.284 423.042 535.639 422.93 535.966C422.827 536.292 422.683 536.605 422.496 536.904C422.309 537.193 422.081 537.478 421.81 537.758C421.549 538.038 421.264 538.318 420.956 538.598L418.324 540.964H423.462V542Z" fill="#BFDDDC"/>
<path d="M429.983 536.372C430.645 536.372 431.14 536.222 431.467 535.924C431.803 535.616 431.971 535.224 431.971 534.748V534.65C431.971 534.136 431.807 533.754 431.481 533.502C431.163 533.24 430.743 533.11 430.221 533.11C429.717 533.11 429.306 533.222 428.989 533.446C428.671 533.66 428.41 533.954 428.205 534.328L427.337 533.656C427.458 533.46 427.603 533.268 427.771 533.082C427.948 532.886 428.153 532.713 428.387 532.564C428.62 532.414 428.891 532.293 429.199 532.2C429.507 532.106 429.857 532.06 430.249 532.06C430.659 532.06 431.047 532.116 431.411 532.228C431.775 532.33 432.087 532.489 432.349 532.704C432.619 532.909 432.829 533.166 432.979 533.474C433.137 533.782 433.217 534.132 433.217 534.524C433.217 534.841 433.165 535.126 433.063 535.378C432.969 535.63 432.839 535.849 432.671 536.036C432.503 536.222 432.302 536.381 432.069 536.512C431.845 536.642 431.602 536.74 431.341 536.806V536.862C431.602 536.918 431.854 537.011 432.097 537.142C432.349 537.263 432.568 537.426 432.755 537.632C432.951 537.828 433.105 538.07 433.217 538.36C433.338 538.64 433.399 538.962 433.399 539.326C433.399 539.746 433.319 540.133 433.161 540.488C433.002 540.833 432.778 541.132 432.489 541.384C432.199 541.626 431.849 541.818 431.439 541.958C431.028 542.098 430.575 542.168 430.081 542.168C429.661 542.168 429.287 542.121 428.961 542.028C428.634 541.934 428.345 541.808 428.093 541.65C427.841 541.491 427.617 541.314 427.421 541.118C427.234 540.922 427.066 540.716 426.917 540.502L427.799 539.83C427.92 540.026 428.051 540.203 428.191 540.362C428.34 540.52 428.503 540.656 428.681 540.768C428.858 540.88 429.059 540.968 429.283 541.034C429.507 541.09 429.768 541.118 430.067 541.118C430.757 541.118 431.28 540.964 431.635 540.656C431.989 540.338 432.167 539.89 432.167 539.312V539.2C432.167 538.621 431.989 538.178 431.635 537.87C431.28 537.552 430.757 537.394 430.067 537.394H428.919V536.372H429.983Z" fill="#BFDDDC"/>
<path d="M440.113 542V540.082H435.395V539.046L439.483 532.228H441.233V539.102H442.647V540.082H441.233V542H440.113ZM436.501 539.102H440.113V533.138H440.043L436.501 539.102Z" fill="#BFDDDC"/>
<path d="M450.86 542H444.448V540.796L447.64 537.856C448.097 537.436 448.48 536.992 448.788 536.526C449.096 536.05 449.25 535.574 449.25 535.098V534.93C449.25 534.388 449.101 533.95 448.802 533.614C448.503 533.278 448.051 533.11 447.444 533.11C447.145 533.11 446.884 533.152 446.66 533.236C446.436 533.32 446.24 533.436 446.072 533.586C445.913 533.735 445.778 533.912 445.666 534.118C445.563 534.314 445.479 534.528 445.414 534.762L444.364 534.356C444.457 534.066 444.583 533.786 444.742 533.516C444.91 533.236 445.115 532.988 445.358 532.774C445.61 532.559 445.909 532.386 446.254 532.256C446.609 532.125 447.024 532.06 447.5 532.06C447.976 532.06 448.401 532.13 448.774 532.27C449.147 532.41 449.46 532.606 449.712 532.858C449.964 533.11 450.155 533.408 450.286 533.754C450.426 534.099 450.496 534.482 450.496 534.902C450.496 535.284 450.44 535.639 450.328 535.966C450.225 536.292 450.081 536.605 449.894 536.904C449.707 537.193 449.479 537.478 449.208 537.758C448.947 538.038 448.662 538.318 448.354 538.598L445.722 540.964H450.86V542Z" fill="#BFDDDC"/>
<path d="M458.977 542V540.082H454.259V539.046L458.347 532.228H460.097V539.102H461.511V540.082H460.097V542H458.977ZM455.365 539.102H458.977V533.138H458.907L455.365 539.102Z" fill="#BFDDDC"/>
<path d="M463.493 542V540.964H466.223V533.096H466.125L463.661 535.392L462.975 534.65L465.565 532.228H467.399V540.964H469.919V542H463.493Z" fill="#BFDDDC"/>
<path d="M478.258 542H471.846V540.796L475.038 537.856C475.495 537.436 475.878 536.992 476.186 536.526C476.494 536.05 476.648 535.574 476.648 535.098V534.93C476.648 534.388 476.498 533.95 476.2 533.614C475.901 533.278 475.448 533.11 474.842 533.11C474.543 533.11 474.282 533.152 474.058 533.236C473.834 533.32 473.638 533.436 473.47 533.586C473.311 533.735 473.176 533.912 473.064 534.118C472.961 534.314 472.877 534.528 472.812 534.762L471.762 534.356C471.855 534.066 471.981 533.786 472.14 533.516C472.308 533.236 472.513 532.988 472.756 532.774C473.008 532.559 473.306 532.386 473.652 532.256C474.006 532.125 474.422 532.06 474.898 532.06C475.374 532.06 475.798 532.13 476.172 532.27C476.545 532.41 476.858 532.606 477.11 532.858C477.362 533.11 477.553 533.408 477.684 533.754C477.824 534.099 477.894 534.482 477.894 534.902C477.894 535.284 477.838 535.639 477.726 535.966C477.623 536.292 477.478 536.605 477.292 536.904C477.105 537.193 476.876 537.478 476.606 537.758C476.344 538.038 476.06 538.318 475.752 538.598L473.12 540.964H478.258V542Z" fill="#BFDDDC"/>
<path d="M484.081 542V532.228H485.257V540.964H489.415V542H484.081Z" fill="#BFDDDC"/>
<path d="M864 530.333C867.682 530.333 870.667 533.318 870.667 537C870.667 540.682 867.682 543.667 864 543.667C860.318 543.667 857.333 540.682 857.333 537C857.333 533.318 860.318 530.333 864 530.333ZM864 531.667C861.055 531.667 858.667 534.055 858.667 537C858.667 539.945 861.055 542.333 864 542.333C866.945 542.333 869.333 539.945 869.333 537C869.333 534.055 866.945 531.667 864 531.667ZM866.555 533.891C866.713 533.781 866.928 533.799 867.064 533.936C867.2 534.072 867.217 534.287 867.106 534.443C865.653 536.473 864.853 537.561 864.707 537.707C864.317 538.097 863.683 538.097 863.293 537.707C862.903 537.317 862.903 536.683 863.293 536.293C863.542 536.044 864.629 535.243 866.555 533.891ZM867.667 536.333C868.035 536.333 868.333 536.632 868.333 537C868.333 537.368 868.035 537.667 867.667 537.667C867.299 537.667 867 537.368 867 537C867 536.632 867.299 536.333 867.667 536.333ZM860.333 536.333C860.701 536.333 861 536.632 861 537C861 537.368 860.701 537.667 860.333 537.667C859.965 537.667 859.667 537.368 859.667 537C859.667 536.632 859.965 536.333 860.333 536.333ZM861.879 533.936C862.139 534.196 862.139 534.618 861.879 534.879C861.619 535.139 861.196 535.139 860.936 534.879C860.676 534.619 860.676 534.196 860.936 533.936C861.196 533.676 861.618 533.676 861.879 533.936ZM864 532.667C864.368 532.667 864.667 532.965 864.667 533.333C864.667 533.701 864.368 534 864 534C863.632 534 863.333 533.701 863.333 533.333C863.333 532.965 863.632 532.667 864 532.667Z" fill="#BFDDDC"/>
<path d="M877.232 542V540.964H879.962V533.096H879.864L877.4 535.392L876.714 534.65L879.304 532.228H881.138V540.964H883.658V542H877.232Z" fill="#BFDDDC"/>
<path d="M891.507 533.264H887.223L886.943 536.988H887.041C887.274 536.661 887.535 536.4 887.825 536.204C888.123 536.008 888.529 535.91 889.043 535.91C889.463 535.91 889.85 535.98 890.205 536.12C890.559 536.26 890.867 536.461 891.129 536.722C891.39 536.974 891.591 537.287 891.731 537.66C891.88 538.033 891.955 538.458 891.955 538.934C891.955 539.41 891.88 539.849 891.731 540.25C891.581 540.642 891.362 540.983 891.073 541.272C890.793 541.552 890.447 541.771 890.037 541.93C889.635 542.089 889.178 542.168 888.665 542.168C888.254 542.168 887.89 542.121 887.573 542.028C887.265 541.935 886.989 541.809 886.747 541.65C886.504 541.491 886.289 541.314 886.103 541.118C885.925 540.922 885.762 540.717 885.613 540.502L886.495 539.83C886.616 540.026 886.742 540.203 886.873 540.362C887.013 540.521 887.162 540.656 887.321 540.768C887.489 540.88 887.68 540.969 887.895 541.034C888.109 541.09 888.366 541.118 888.665 541.118C889.337 541.118 889.845 540.941 890.191 540.586C890.536 540.231 890.709 539.732 890.709 539.088V538.948C890.709 538.304 890.536 537.805 890.191 537.45C889.845 537.095 889.337 536.918 888.665 536.918C888.217 536.918 887.862 537.002 887.601 537.17C887.349 537.329 887.12 537.52 886.915 537.744L885.921 537.604L886.271 532.228H891.507V533.264Z" fill="#BFDDDC"/>
<path d="M899.077 542.168C898.573 542.168 898.116 542.084 897.705 541.916C897.304 541.739 896.959 541.491 896.669 541.174C896.389 540.847 896.175 540.451 896.025 539.984C895.876 539.517 895.801 538.995 895.801 538.416C895.801 537.688 895.909 537.007 896.123 536.372C896.338 535.728 896.613 535.145 896.949 534.622C897.295 534.09 897.673 533.623 898.083 533.222C898.494 532.811 898.895 532.48 899.287 532.228H900.799C900.277 532.611 899.81 532.984 899.399 533.348C898.989 533.712 898.629 534.095 898.321 534.496C898.013 534.888 897.752 535.313 897.537 535.77C897.323 536.218 897.15 536.727 897.019 537.296L897.089 537.324C897.323 536.923 897.621 536.591 897.985 536.33C898.359 536.059 898.844 535.924 899.441 535.924C899.861 535.924 900.249 535.994 900.603 536.134C900.958 536.274 901.261 536.475 901.513 536.736C901.765 536.997 901.961 537.315 902.101 537.688C902.251 538.061 902.325 538.477 902.325 538.934C902.325 539.41 902.246 539.849 902.087 540.25C901.938 540.642 901.719 540.983 901.429 541.272C901.149 541.552 900.809 541.771 900.407 541.93C900.006 542.089 899.563 542.168 899.077 542.168ZM899.063 541.146C899.707 541.146 900.207 540.969 900.561 540.614C900.925 540.259 901.107 539.751 901.107 539.088V538.976C901.107 538.313 900.925 537.805 900.561 537.45C900.207 537.095 899.707 536.918 899.063 536.918C898.419 536.918 897.915 537.095 897.551 537.45C897.197 537.805 897.019 538.313 897.019 538.976V539.088C897.019 539.751 897.197 540.259 897.551 540.614C897.915 540.969 898.419 541.146 899.063 541.146Z" fill="#BFDDDC"/>
<path d="M910.37 533.264H906.086L905.806 536.988H905.904C906.137 536.661 906.399 536.4 906.688 536.204C906.987 536.008 907.393 535.91 907.906 535.91C908.326 535.91 908.713 535.98 909.068 536.12C909.423 536.26 909.731 536.461 909.992 536.722C910.253 536.974 910.454 537.287 910.594 537.66C910.743 538.033 910.818 538.458 910.818 538.934C910.818 539.41 910.743 539.849 910.594 540.25C910.445 540.642 910.225 540.983 909.936 541.272C909.656 541.552 909.311 541.771 908.9 541.93C908.499 542.089 908.041 542.168 907.528 542.168C907.117 542.168 906.753 542.121 906.436 542.028C906.128 541.935 905.853 541.809 905.61 541.65C905.367 541.491 905.153 541.314 904.966 541.118C904.789 540.922 904.625 540.717 904.476 540.502L905.358 539.83C905.479 540.026 905.605 540.203 905.736 540.362C905.876 540.521 906.025 540.656 906.184 540.768C906.352 540.88 906.543 540.969 906.758 541.034C906.973 541.09 907.229 541.118 907.528 541.118C908.2 541.118 908.709 540.941 909.054 540.586C909.399 540.231 909.572 539.732 909.572 539.088V538.948C909.572 538.304 909.399 537.805 909.054 537.45C908.709 537.095 908.2 536.918 907.528 536.918C907.08 536.918 906.725 537.002 906.464 537.17C906.212 537.329 905.983 537.52 905.778 537.744L904.784 537.604L905.134 532.228H910.37V533.264Z" fill="#BFDDDC"/>
<path d="M916.132 542.168C915.572 542.168 915.082 542.098 914.662 541.958C914.242 541.809 913.888 541.608 913.598 541.356C913.318 541.104 913.104 540.805 912.954 540.46C912.814 540.115 912.744 539.741 912.744 539.34C912.744 538.668 912.926 538.136 913.29 537.744C913.654 537.352 914.13 537.077 914.718 536.918V536.806C914.205 536.629 913.794 536.344 913.486 535.952C913.188 535.551 913.038 535.07 913.038 534.51C913.038 533.763 913.309 533.171 913.85 532.732C914.392 532.284 915.152 532.06 916.132 532.06C917.112 532.06 917.873 532.284 918.414 532.732C918.956 533.171 919.226 533.763 919.226 534.51C919.226 535.07 919.072 535.551 918.764 535.952C918.466 536.344 918.06 536.629 917.546 536.806V536.918C918.134 537.077 918.61 537.352 918.974 537.744C919.338 538.136 919.52 538.668 919.52 539.34C919.52 539.741 919.446 540.115 919.296 540.46C919.156 540.805 918.942 541.104 918.652 541.356C918.372 541.608 918.022 541.809 917.602 541.958C917.182 542.098 916.692 542.168 916.132 542.168ZM916.132 541.146C916.814 541.146 917.341 540.997 917.714 540.698C918.088 540.39 918.274 539.956 918.274 539.396V539.102C918.274 538.542 918.088 538.113 917.714 537.814C917.341 537.506 916.814 537.352 916.132 537.352C915.451 537.352 914.924 537.506 914.55 537.814C914.177 538.113 913.99 538.542 913.99 539.102V539.396C913.99 539.956 914.177 540.39 914.55 540.698C914.924 540.997 915.451 541.146 916.132 541.146ZM916.132 536.372C916.748 536.372 917.215 536.241 917.532 535.98C917.85 535.719 918.008 535.336 918.008 534.832V534.622C918.008 534.118 917.85 533.735 917.532 533.474C917.215 533.213 916.748 533.082 916.132 533.082C915.516 533.082 915.05 533.213 914.732 533.474C914.415 533.735 914.256 534.118 914.256 534.622V534.832C914.256 535.336 914.415 535.719 914.732 535.98C915.05 536.241 915.516 536.372 916.132 536.372Z" fill="#BFDDDC"/>
<path d="M925.218 542V532.228H926.394V540.964H930.552V542H925.218Z" fill="#BFDDDC"/>
<path d="M931.551 544.114L935.205 531.64H936.213L932.559 544.114H931.551Z" fill="#BFDDDC"/>
<path d="M944.344 537.576H939.402V542H938.226V532.228H939.402V536.54H944.344V532.228H945.52V542H944.344V537.576Z" fill="#BFDDDC"/>
</svg>
