<svg width="152" height="91" fill="none" xmlns="http://www.w3.org/2000/svg"><path d="M59.363 76.68c-2.118-1.791-2-4.975.117-6.765 2.119-1.79 5.649-1.79 7.767 0 2.118 1.79 2.118 4.775-.118 6.764-2.118 1.99-5.648 1.99-7.766 0z" fill="#B62C2C" stroke="#323232" stroke-width=".6" stroke-miterlimit="10"/><path d="M60.95 75.577c-1.272-1.194-1.201-3.317.07-4.51 1.27-1.194 3.389-1.194 4.66 0 1.27 1.194 1.27 3.183-.071 4.51a3.226 3.226 0 01-4.66 0z" fill="#F7F3E9" stroke="#323232" stroke-width=".6" stroke-miterlimit="10"/><path d="M70.9 71.88c-2.117-1.79-2-4.974.118-6.765 2.118-1.79 5.649-1.79 7.767 0 2.118 1.79 2.118 4.775-.118 6.765-2.118 1.99-5.648 1.99-7.766 0z" fill="#B62C2C" stroke="#323232" stroke-width=".6" stroke-miterlimit="10"/><path d="M72.486 70.777c-1.27-1.194-1.2-3.316.07-4.51 1.271-1.194 3.39-1.194 4.66 0 1.271 1.194 1.271 3.183-.07 4.51a3.226 3.226 0 01-4.66 0z" fill="#F7F3E9" stroke="#323232" stroke-width=".6" stroke-miterlimit="10"/><path d="M128.593 47.88c-2.118-1.79-2-4.974.118-6.765 2.118-1.79 5.648-1.79 7.766 0 2.118 1.79 2.118 4.775-.118 6.765-2.118 1.99-5.648 1.99-7.766 0z" fill="#B62C2C" stroke="#323232" stroke-width=".6" stroke-miterlimit="10"/><path d="M130.178 46.777c-1.27-1.194-1.2-3.316.071-4.51s3.389-1.194 4.66 0c1.271 1.194 1.271 3.183-.071 4.51a3.226 3.226 0 01-4.66 0z" fill="#F7F3E9" stroke="#323232" stroke-width=".6" stroke-miterlimit="10"/><path d="M117.055 52.68c-2.118-1.791-2.001-4.975.118-6.765 2.118-1.79 5.648-1.79 7.766 0 2.118 1.79 2.118 4.775-.118 6.764-2.118 1.99-5.648 1.99-7.766 0z" fill="#B62C2C" stroke="#323232" stroke-width=".6" stroke-miterlimit="10"/><path d="M118.641 51.578c-1.271-1.194-1.201-3.317.07-4.51 1.271-1.194 3.389-1.194 4.66 0 1.271 1.194 1.271 3.183-.071 4.51a3.225 3.225 0 01-4.659 0z" fill="#F7F3E9" stroke="#323232" stroke-width=".6" stroke-miterlimit="10"/><path d="M105.516 57.478c-2.118-1.79-2-4.974.118-6.764 2.118-1.791 5.648-1.791 7.766 0 2.118 1.79 2.118 4.775-.118 6.764-2.118 1.99-5.648 1.99-7.766 0z" fill="#B62C2C" stroke="#323232" stroke-width=".6" stroke-miterlimit="10"/><path d="M107.102 56.377c-1.271-1.194-1.2-3.316.071-4.51 1.27-1.194 3.388-1.194 4.659 0s1.271 3.183-.07 4.51a3.226 3.226 0 01-4.66 0z" fill="#F7F3E9" stroke="#323232" stroke-width=".6" stroke-miterlimit="10"/><path d="M150.938 40.57V13.223l-96.653 40.07v27.43l96.653-40.151z" fill="#FAF9F5" stroke="#323232" stroke-width=".6"/><path d="M54.51 53.773L22.965 40.82v27.323L54.51 81.015V53.773z" fill="#F7F3E9" stroke="#323232" stroke-width=".6"/><path d="M150.684 13.656L119.154.405 23.219 40.723l31.53 13.251 95.935-40.318z" fill="#F7F3E9" stroke="#323232" stroke-width=".6"/><path d="M34.637 86.28c-2.118-1.79-2-4.974.118-6.765 2.118-1.79 5.648-1.79 7.766 0 2.118 1.791 2.118 4.775-.118 6.765-2.118 1.99-5.648 1.99-7.766 0z" fill="#B62C2C" stroke="#323232" stroke-width=".6" stroke-miterlimit="10"/><path d="M36.223 85.177c-1.271-1.194-1.2-3.316.07-4.51 1.271-1.194 3.39-1.194 4.66 0 1.271 1.194 1.271 3.184-.07 4.51a3.226 3.226 0 01-4.66 0z" fill="#F7F3E9" stroke="#323232" stroke-width=".6" stroke-miterlimit="10"/><path d="M49.04 78.772v-25.2l-3.296 1.2v1.8l-9.066 3.6-1.649 1.8-1.648 3-1.648 7.8-3.297 1.8-3.297 1.8-.824 2.4v9.6l2.473 1.8 22.252-11.4zm-23.077-9v-25.2l-3.297 1.2v1.8l-9.066 3.6-1.648 1.8-1.648 3-1.649 7.8-3.296 1.8-3.297 1.8-.824 2.4v9.6l2.472 1.8 22.253-11.4z" fill="#B62C2C" stroke="#323232" stroke-width=".6"/><path d="M25.963 44.572l23.077 9-3.296 1.2v1.8l-9.066 3.6-1.649 1.8-1.648 3-1.648 7.8-6.594 3.6-.824 2.4v9.6l2.473 1.8-23.077-9-2.473-1.8v-9.6l.824-2.4 6.594-3.6 1.648-7.8 1.649-3 1.648-1.8 9.066-3.6v-1.8l3.296-1.2z" fill="#B62C2C" stroke="#323232" stroke-width=".6"/><path d="M21.543 86.136v-7.16l-18.356-7.05v7.238l18.356 6.972z" fill="#F7F3E9" stroke="#323232" stroke-width=".6"/><path d="M19.07 79.578l-13.41-5.17v4.213l13.41 5.115v-4.159z" fill="#FAF9F5" stroke="#323232" stroke-width=".6"/><path d="M29.038 71.329l1.524-7.288-18.387-7.063-1.525 7.367 18.388 6.984z" fill="#F7F3E9" stroke="#323232" stroke-width=".6"/><path d="M37.715 63.405l-1.575 2.867-.72 4.2 10.023-4.414V60.03l-7.728 3.375z" fill="#FAF9F5" stroke="#323232" stroke-width=".6"/><path d="M137.749 41.353l-.198-16.736-4.244 1.738v16.803l4.442-1.805zm-8.967 4.15l-.198-16.736-4.244 1.738v16.803l4.442-1.805zm-12.783-11.749v16.803l4.442-1.805-.197-16.736-4.245 1.738zm-3.701 18.35l-.197-16.737-4.244 1.738v16.803l4.441-1.805zm-12.782-11.75v16.803l4.442-1.804-.198-16.737-4.244 1.738zm-3.701 18.45l-.197-16.737-4.245 1.738v16.803l4.442-1.804zm-12.683-11.45v16.804l4.441-1.805-.197-16.736-4.245 1.738zm-3.695 18.181l-.197-16.737-4.244 1.739V67.34l4.441-1.805z" fill="#F7F3E9" stroke="#323232" stroke-width=".6"/></svg>