<svg width="152" height="91" viewBox="0 0 152 91" fill="none" xmlns="http://www.w3.org/2000/svg">
<path d="M59.3628 76.6795C57.2447 74.8889 57.3624 71.7054 59.4804 69.9148C61.5985 68.1241 65.1286 68.1241 67.2467 69.9148C69.3647 71.7054 69.3647 74.6899 67.129 76.6795C65.0109 78.6692 61.4808 78.6692 59.3628 76.6795Z" fill="#B62C2C" stroke="#323232" stroke-width="0.6" stroke-miterlimit="10"/>
<path d="M60.9492 75.5766C59.6784 74.3828 59.749 72.2605 61.0198 71.0667C62.2906 69.8729 64.4087 69.8729 65.6795 71.0667C66.9504 72.2605 66.9504 74.2501 65.6089 75.5766C64.3381 76.903 62.22 76.903 60.9492 75.5766Z" fill="#F7F3E9" stroke="#323232" stroke-width="0.6" stroke-miterlimit="10"/>
<path d="M70.9007 71.8797C68.7827 70.0891 68.9003 66.9056 71.0184 65.115C73.1365 63.3243 76.6666 63.3243 78.7846 65.115C80.9027 66.9056 80.9027 69.8901 78.667 71.8797C76.5489 73.8694 73.0188 73.8694 70.9007 71.8797Z" fill="#B62C2C" stroke="#323232" stroke-width="0.6" stroke-miterlimit="10"/>
<path d="M72.4859 70.7767C71.2151 69.583 71.2857 67.4607 72.5565 66.2669C73.8274 65.0731 75.9454 65.0731 77.2163 66.2669C78.4871 67.4607 78.4871 69.4503 77.1457 70.7767C75.8748 72.1032 73.7568 72.1032 72.4859 70.7767Z" fill="#F7F3E9" stroke="#323232" stroke-width="0.6" stroke-miterlimit="10"/>
<path d="M128.593 47.8797C126.475 46.0891 126.593 42.9056 128.711 41.115C130.829 39.3243 134.359 39.3243 136.477 41.115C138.595 42.9056 138.595 45.8901 136.359 47.8797C134.241 49.8694 130.711 49.8694 128.593 47.8797Z" fill="#B62C2C" stroke="#323232" stroke-width="0.6" stroke-miterlimit="10"/>
<path d="M130.178 46.7767C128.908 45.583 128.978 43.4607 130.249 42.2669C131.52 41.0731 133.638 41.0731 134.909 42.2669C136.18 43.4607 136.18 45.4503 134.838 46.7767C133.567 48.1032 131.449 48.1032 130.178 46.7767Z" fill="#F7F3E9" stroke="#323232" stroke-width="0.6" stroke-miterlimit="10"/>
<path d="M117.055 52.6795C114.937 50.8889 115.054 47.7054 117.173 45.9148C119.291 44.1241 122.821 44.1241 124.939 45.9148C127.057 47.7054 127.057 50.6899 124.821 52.6795C122.703 54.6692 119.173 54.6692 117.055 52.6795Z" fill="#B62C2C" stroke="#323232" stroke-width="0.6" stroke-miterlimit="10"/>
<path d="M118.641 51.5775C117.37 50.3838 117.44 48.2615 118.711 47.0677C119.982 45.8739 122.1 45.8739 123.371 47.0677C124.642 48.2615 124.642 50.2511 123.3 51.5775C122.03 52.904 119.912 52.904 118.641 51.5775Z" fill="#F7F3E9" stroke="#323232" stroke-width="0.6" stroke-miterlimit="10"/>
<path d="M105.516 57.4784C103.398 55.6877 103.516 52.5043 105.634 50.7136C107.752 48.9229 111.282 48.9229 113.4 50.7136C115.518 52.5043 115.518 55.4887 113.282 57.4784C111.164 59.468 107.634 59.468 105.516 57.4784Z" fill="#B62C2C" stroke="#323232" stroke-width="0.6" stroke-miterlimit="10"/>
<path d="M107.102 56.3768C105.831 55.1831 105.902 53.0608 107.173 51.867C108.443 50.6732 110.561 50.6732 111.832 51.867C113.103 53.0608 113.103 55.0504 111.762 56.3768C110.491 57.7033 108.373 57.7033 107.102 56.3768Z" fill="#F7F3E9" stroke="#323232" stroke-width="0.6" stroke-miterlimit="10"/>
<path d="M150.938 40.5705L150.938 13.2216L54.2853 53.2927V80.7228L150.938 40.5705Z" fill="#FAF9F5" stroke="#323232" stroke-width="0.6"/>
<path d="M54.5091 53.773L22.9663 40.8205V68.1427L54.5092 81.0153L54.5091 53.773Z" fill="#F7F3E9" stroke="#323232" stroke-width="0.6"/>
<path d="M150.684 13.6556L119.154 0.404831L23.2194 40.7234L54.7497 53.9742L150.684 13.6556Z" fill="#F7F3E9" stroke="#323232" stroke-width="0.6"/>
<path d="M34.6371 86.2801C32.519 84.4894 32.6367 81.306 34.7547 79.5154C36.8728 77.7247 40.4029 77.7247 42.521 79.5154C44.639 81.306 44.639 84.2905 42.4033 86.2801C40.2852 88.2697 36.7551 88.2697 34.6371 86.2801Z" fill="#B62C2C" stroke="#323232" stroke-width="0.6" stroke-miterlimit="10"/>
<path d="M36.2229 85.1771C34.952 83.9834 35.0226 81.8611 36.2935 80.6673C37.5643 79.4735 39.6824 79.4735 40.9532 80.6673C42.2241 81.8611 42.2241 83.8507 40.8826 85.1771C39.6118 86.5036 37.4937 86.5036 36.2229 85.1771Z" fill="#F7F3E9" stroke="#323232" stroke-width="0.6" stroke-miterlimit="10"/>
<path d="M49.0403 78.7717V56.5718V53.5718L45.7436 54.7718V56.5718L36.6777 60.1718L35.0293 61.9718L33.381 64.9717L31.7326 72.7717L28.4359 74.5717L25.1392 76.3717L24.3151 78.7717V84.1717V88.3717L26.7876 90.1717L49.0403 78.7717Z" fill="#B62C2C" stroke="#323232" stroke-width="0.6"/>
<path d="M25.963 69.7717V47.5718V44.5718L22.6663 45.7718V47.5718L13.6004 51.1718L11.9521 52.9718L10.3037 55.9717L8.65537 63.7717L5.35867 65.5717L2.06198 67.3717L1.23781 69.7717V75.1717V79.3717L3.71033 81.1717L25.963 69.7717Z" fill="#B62C2C" stroke="#323232" stroke-width="0.6"/>
<path d="M25.9634 44.5718L49.0403 53.5718L45.7436 54.7717V56.5717L36.6777 60.1717L35.0293 61.9717L33.381 64.9717L31.7326 72.7717L25.1392 76.3717L24.3151 78.7717V88.3717L26.7876 90.1717L3.71074 81.1717L1.23821 79.3717V69.7717L2.06239 67.3717L8.65578 63.7717L10.3041 55.9717L11.9525 52.9718L13.6008 51.1718L22.6667 47.5718V45.7718L25.9634 44.5718Z" fill="#B62C2C" stroke="#323232" stroke-width="0.6"/>
<path d="M21.5428 86.1361L21.5427 78.9758L3.18679 71.9254L3.18678 79.1644L21.5428 86.1361Z" fill="#F7F3E9" stroke="#323232" stroke-width="0.6"/>
<path d="M19.0705 79.5775L5.65924 74.4088L5.65944 78.6211L19.0708 83.7361L19.0705 79.5775Z" fill="#FAF9F5" stroke="#323232" stroke-width="0.6"/>
<path d="M29.0382 71.329L30.5623 64.0407L12.1745 56.978L10.6496 64.345L29.0382 71.329Z" fill="#F7F3E9" stroke="#323232" stroke-width="0.6"/>
<path d="M37.7153 63.4053L36.1404 66.2716L35.4192 70.4716L45.4433 66.0576V60.0297L37.7153 63.4053Z" fill="#FAF9F5" stroke="#323232" stroke-width="0.6"/>
<path d="M137.749 41.3535L137.551 24.6168L133.307 26.355V43.158L137.749 41.3535ZM128.782 45.5032L128.584 28.7666L124.34 30.5048V47.3078L128.782 45.5032ZM115.999 33.754V50.557L120.441 48.7525L120.244 32.0158L115.999 33.754ZM112.298 52.1032L112.101 35.3665L107.857 37.1047V53.9077L112.298 52.1032ZM99.516 40.354V57.157L103.958 55.3525L103.76 38.6158L99.516 40.354ZM95.8148 58.8035L95.6175 42.0668L91.3732 43.805V60.608L95.8148 58.8035ZM83.1315 47.3548V64.1578L87.573 62.3533L87.3757 45.6166L83.1315 47.3548ZM79.4373 65.535L79.24 48.7984L74.9957 50.5366V67.3396L79.4373 65.535Z" fill="#F7F3E9" stroke="#323232" stroke-width="0.6"/>
</svg>
