<svg width="152" height="92" viewBox="0 0 152 92" fill="none" xmlns="http://www.w3.org/2000/svg">
<path d="M127.731 88.601C125.611 90.0111 36.3186 91.0004 36.3186 91.0004C36.3186 91.0004 25.0996 88.601 18.8672 82.6004C5.15529 71.8004 1.00012 51.4009 1.00012 51.4009L150.93 58.7354C150.93 58.7354 142.274 78.9276 127.731 88.601Z" fill="#F7F3E9" stroke="#323232" stroke-width="0.6"/>
<path d="M20.9447 58.5999C10.9721 56.8007 1 51.3991 1 51.3991L140.196 51.4L150.584 58.6002L20.9447 58.5999Z" fill="#F7F3E9"/>
<path d="M20.1136 45.1421C8.06376 45.9998 1.41498 51.5569 1.41498 51.5569L20.1136 56.7998L149.338 56.1998L140.611 51.5577L128.161 45.1421L20.1136 45.1421Z" fill="#F7F3E9"/>
<path d="M20.9447 58.5999C10.9721 56.8007 1 51.3991 1 51.3991L140.196 51.4L150.584 58.6002L20.9447 58.5999Z" stroke="#323232" stroke-width="0.6"/>
<path d="M20.1136 45.1421C8.06376 45.9998 1.41498 51.5569 1.41498 51.5569L20.1136 56.7998L149.338 56.1998L140.611 51.5577L128.161 45.1421L20.1136 45.1421Z" stroke="#323232" stroke-width="0.6"/>
<path d="M1.00024 47.2001V51.4001L4.32434 49.6001L8.06394 47.8001L11.388 46.6001L15.5431 45.4001L19.2827 45.0803H128.147V40.6001H41.3049H18.8672L15.5431 41.2001L10.9725 42.4001L7.64843 43.6001L4.32434 45.4001L1.00024 47.2001Z" fill="#FAF9F5" stroke="#323232" stroke-width="0.6"/>
<path d="M74.9614 32.3923L41.7205 32.2002V50.5606C41.7205 50.8616 41.7205 51.1626 41.7205 51.4636C42.413 52.3666 43.798 52.9685 46.5681 53.8715C53.4933 55.3765 64.5736 55.3765 70.8063 53.8715C72.8838 53.2695 74.2689 52.6676 74.9614 52.0656V32.3923Z" fill="#FAF9F5" stroke="#323232" stroke-width="0.6" stroke-miterlimit="10" stroke-linecap="round" stroke-linejoin="round"/>
<path d="M70.3304 35.6954C76.7374 34.1285 76.3814 31.343 69.9744 29.7762C63.5675 28.2094 52.8891 28.2094 46.4821 29.7762C40.0751 31.343 40.0751 33.9545 46.8381 35.6954C53.2451 37.4363 63.9234 37.4363 70.3304 35.6954Z" fill="#F7F3E9" stroke="#323232" stroke-width="0.6" stroke-miterlimit="10"/>
<path d="M64.158 3.40039L52.5237 3.92324V30.7445C52.5237 31.0059 52.5237 31.2673 52.5237 31.5287C52.7611 32.313 53.1606 32.8358 54.1103 33.6201C56.4847 34.9272 60.359 34.9272 62.496 33.6201C63.2083 33.0973 63.9206 32.8358 64.158 32.0516V31.7902V3.40039Z" fill="#B62C2C" stroke="#323232" stroke-width="0.6" stroke-miterlimit="10" stroke-linecap="round" stroke-linejoin="round"/>
<path d="M62.5372 5.05389C64.7796 4.15856 64.655 2.56684 62.4126 1.6715C60.1701 0.776165 56.4327 0.776165 54.1903 1.6715C51.9478 2.56684 51.9478 4.05907 54.3148 5.05389C56.5573 6.04871 60.2947 6.04871 62.5372 5.05389Z" fill="#B62C2C" stroke="#323232" stroke-width="0.6" stroke-miterlimit="10"/>
<path d="M41.0259 68.281C41.9869 66.938 41.9335 64.5505 40.9725 63.2075C40.0114 61.8644 38.4097 61.8644 37.4486 63.2075C36.4876 64.5505 36.4876 66.7888 37.502 68.281C38.4631 69.7733 40.0648 69.7733 41.0259 68.281Z" fill="#B62C2C" stroke="#323232" stroke-width="0.6" stroke-miterlimit="10"/>
<path d="M54.3223 68.281C55.2833 66.938 55.2299 64.5505 54.2689 63.2075C53.3078 61.8644 51.7061 61.8644 50.745 63.2075C49.784 64.5505 49.784 66.7888 50.7984 68.281C51.7595 69.7733 53.3612 69.7733 54.3223 68.281Z" fill="#B62C2C" stroke="#323232" stroke-width="0.6" stroke-miterlimit="10"/>
<path d="M67.6185 68.281C68.5796 66.938 68.5262 64.5505 67.5651 63.2075C66.6041 61.8644 65.0023 61.8644 64.0413 63.2075C63.0802 64.5505 63.0802 66.7888 64.0947 68.281C65.0557 69.7733 66.6575 69.7733 67.6185 68.281Z" fill="#B62C2C" stroke="#323232" stroke-width="0.6" stroke-miterlimit="10"/>
<path d="M80.9148 68.281C81.8758 66.938 81.8224 64.5505 80.8614 63.2075C79.9003 61.8644 78.2986 61.8644 77.3375 63.2075C76.3765 64.5505 76.3765 66.7888 77.3909 68.281C78.352 69.7733 79.9537 69.7733 80.9148 68.281Z" fill="#B62C2C" stroke="#323232" stroke-width="0.6" stroke-miterlimit="10"/>
<path d="M94.2114 68.281C95.1725 66.938 95.1191 64.5505 94.158 63.2075C93.197 61.8644 91.5952 61.8644 90.6342 63.2075C89.6731 64.5505 89.6731 66.7888 90.6876 68.281C91.6486 69.7733 93.2504 69.7733 94.2114 68.281Z" fill="#B62C2C" stroke="#323232" stroke-width="0.6" stroke-miterlimit="10"/>
<path d="M107.508 68.281C108.469 66.938 108.415 64.5505 107.454 63.2075C106.493 61.8644 104.892 61.8644 103.931 63.2075C102.97 64.5505 102.97 66.7888 103.984 68.281C104.945 69.7733 106.547 69.7733 107.508 68.281Z" fill="#B62C2C" stroke="#323232" stroke-width="0.6" stroke-miterlimit="10"/>
<path d="M120.804 68.281C121.765 66.938 121.712 64.5505 120.751 63.2075C119.79 61.8644 118.188 61.8644 117.227 63.2075C116.266 64.5505 116.266 66.7888 117.28 68.281C118.241 69.7733 119.843 69.7733 120.804 68.281Z" fill="#B62C2C" stroke="#323232" stroke-width="0.6" stroke-miterlimit="10"/>
<path d="M134.1 68.281C135.061 66.938 135.008 64.5505 134.047 63.2075C133.086 61.8644 131.484 61.8644 130.523 63.2075C129.562 64.5505 129.562 66.7888 130.577 68.281C131.538 69.7733 133.139 69.7733 134.1 68.281Z" fill="#B62C2C" stroke="#323232" stroke-width="0.6" stroke-miterlimit="10"/>
<path d="M61.9376 4.22665C63.8597 3.77898 63.7529 2.98313 61.8308 2.53546C59.9087 2.08779 56.7052 2.08779 54.7831 2.53546C52.861 2.98313 52.861 3.72924 54.8899 4.22665C56.812 4.72406 60.0155 4.72406 61.9376 4.22665Z" fill="#F7F3E9" stroke="#323232" stroke-width="0.6" stroke-miterlimit="10"/>
<path d="M40.4263 67.4538C41.067 66.5585 41.0314 64.9667 40.3907 64.0714C39.75 63.1761 38.6822 63.1761 38.0415 64.0714C37.4008 64.9667 37.4008 66.459 38.0771 67.4538C38.7178 68.4486 39.7856 68.4486 40.4263 67.4538Z" fill="#F7F3E9" stroke="#323232" stroke-width="0.6" stroke-miterlimit="10"/>
<path d="M53.7227 67.4538C54.3634 66.5585 54.3278 64.9667 53.6871 64.0714C53.0464 63.1761 51.9786 63.1761 51.3379 64.0714C50.6972 64.9667 50.6972 66.459 51.3735 67.4538C52.0142 68.4486 53.082 68.4486 53.7227 67.4538Z" fill="#F7F3E9" stroke="#323232" stroke-width="0.6" stroke-miterlimit="10"/>
<path d="M67.0192 67.4538C67.6599 66.5585 67.6243 64.9667 66.9836 64.0714C66.3429 63.1761 65.2751 63.1761 64.6344 64.0714C63.9937 64.9667 63.9937 66.459 64.67 67.4538C65.3107 68.4486 66.3785 68.4486 67.0192 67.4538Z" fill="#F7F3E9" stroke="#323232" stroke-width="0.6" stroke-miterlimit="10"/>
<path d="M80.3156 67.4538C80.9563 66.5585 80.9207 64.9667 80.28 64.0714C79.6393 63.1761 78.5715 63.1761 77.9308 64.0714C77.2901 64.9667 77.2901 66.459 77.9664 67.4538C78.6071 68.4486 79.6749 68.4486 80.3156 67.4538Z" fill="#F7F3E9" stroke="#323232" stroke-width="0.6" stroke-miterlimit="10"/>
<path d="M93.612 67.4538C94.2527 66.5585 94.2171 64.9667 93.5764 64.0714C92.9357 63.1761 91.8678 63.1761 91.2271 64.0714C90.5864 64.9667 90.5864 66.459 91.2627 67.4538C91.9034 68.4486 92.9713 68.4486 93.612 67.4538Z" fill="#F7F3E9" stroke="#323232" stroke-width="0.6" stroke-miterlimit="10"/>
<path d="M106.908 67.4538C107.549 66.5585 107.513 64.9667 106.872 64.0714C106.232 63.1761 105.164 63.1761 104.523 64.0714C103.882 64.9667 103.882 66.459 104.559 67.4538C105.199 68.4486 106.267 68.4486 106.908 67.4538Z" fill="#F7F3E9" stroke="#323232" stroke-width="0.6" stroke-miterlimit="10"/>
<path d="M120.204 67.4538C120.845 66.5585 120.81 64.9667 120.169 64.0714C119.528 63.1761 118.46 63.1761 117.82 64.0714C117.179 64.9667 117.179 66.459 117.855 67.4538C118.496 68.4486 119.564 68.4486 120.204 67.4538Z" fill="#F7F3E9" stroke="#323232" stroke-width="0.6" stroke-miterlimit="10"/>
<path d="M133.501 67.4538C134.142 66.5585 134.106 64.9667 133.465 64.0714C132.825 63.1761 131.757 63.1761 131.116 64.0714C130.475 64.9667 130.475 66.459 131.152 67.4538C131.792 68.4486 132.86 68.4486 133.501 67.4538Z" fill="#F7F3E9" stroke="#323232" stroke-width="0.6" stroke-miterlimit="10"/>
<path d="M128.147 44.8001V40.6001L151 54.4001V58.6001L128.147 44.8001Z" fill="#FAF9F5" stroke="#323232" stroke-width="0.6"/>
<path d="M105.709 46.5997V38.1997L123.576 48.3177V56.7177L105.709 46.5997Z" fill="#FAF9F5" stroke="#323232" stroke-width="0.6"/>
<path d="M114.435 56.7184V48.3183L123.576 48.3184V56.7184L114.435 56.7184Z" fill="#F7F3E9" stroke="#323232" stroke-width="0.6"/>
<path d="M114.435 48.3997L97.8146 38.1997H105.709L123.576 48.3997H114.435Z" fill="#F7F3E9" stroke="#323232" stroke-width="0.6"/>
<path d="M114.02 46.6003V41.8003L119.837 41.8003V46.6003L114.02 46.6003Z" fill="#F7F3E9" stroke="#323232" stroke-width="0.6"/>
<path d="M113.644 41.8007L102.385 35.2007H107.787L119.837 41.8007H113.644Z" fill="#F7F3E9" stroke="#323232" stroke-width="0.6"/>
<path d="M97.8146 45.9997V38.1997L114.435 48.3176V56.7176L97.8146 45.9997Z" fill="#FAF9F5" stroke="#323232" stroke-width="0.6"/>
<path d="M102.385 39.6553V35.2007L114.019 41.8007V46.6007L102.385 39.6553Z" fill="#FAF9F5" stroke="#323232" stroke-width="0.6"/>
<path d="M112.357 31.6001H109.864V37.4586C109.864 37.5088 109.864 37.5591 109.864 37.6094C109.915 37.7602 110.001 37.8608 110.204 38.0116C110.713 38.263 111.543 38.263 112.001 38.0116C112.154 37.911 112.306 37.8608 112.357 37.7099V37.6597V31.6001Z" fill="#B62C2C" stroke="#323232" stroke-width="0.6" stroke-miterlimit="10" stroke-linecap="round" stroke-linejoin="round"/>
<path d="M112.01 32.0135C112.491 31.7896 112.464 31.3917 111.983 31.1679C111.503 30.944 110.702 30.944 110.221 31.1679C109.741 31.3917 109.741 31.7648 110.248 32.0135C110.729 32.2622 111.529 32.2622 112.01 32.0135Z" fill="#B62C2C" stroke="#323232" stroke-width="0.6" stroke-miterlimit="10"/>
<path d="M1.00024 47.1997V51.3997L5.15536 54.3997L9.72598 56.7997L14.7121 57.9997L20.9448 58.5997H151V54.3997H20.9448L14.7121 53.7997L9.72598 52.5997L5.57087 50.1997L1.00024 47.1997Z" fill="#F7F3E9" stroke="#323232" stroke-width="0.6"/>
</svg>
