<svg width="1440" height="810" fill="none" xmlns="http://www.w3.org/2000/svg"><path d="M425.878 581.157a1.338 1.338 0 00-1.633-.943 1.338 1.338 0 00-.943 1.633c.19.708.925 1.133 1.633.943a1.337 1.337 0 00.943-1.633zm2.416 9.015a1.339 1.339 0 00-1.633-.943 1.337 1.337 0 00-.943 1.633c.19.709.925 1.133 1.633.943a1.338 1.338 0 00.943-1.633zm-1.208-4.507a1.337 1.337 0 00-1.633-.943 1.337 1.337 0 00-.943 1.633c.19.708.925 1.132 1.633.943a1.338 1.338 0 00.943-1.633zm-2.127 17.181c-.205-.766-.236-1.458-.093-2.076a4.387 4.387 0 01.848-1.706l.928.65c-.353.452-.592.912-.717 1.381-.117.466-.102.974.046 1.524.181.676.481 1.146.899 1.411.422.274.903.338 1.444.193.45-.121.761-.349.932-.685.171-.335.245-.833.223-1.494l-.031-.818c-.033-.919.087-1.661.36-2.227.285-.56.793-.937 1.523-1.133a2.661 2.661 0 011.17-.067c.366.066.693.206.982.418.291.222.542.507.751.857.221.356.393.764.517 1.224.191.712.223 1.356.097 1.931a3.64 3.64 0 01-.802 1.606l-.85-.685c.29-.359.49-.75.598-1.175.108-.426.089-.913-.059-1.463-.161-.604-.42-1.047-.776-1.328-.344-.275-.773-.344-1.287-.206-.451.12-.755.357-.912.708-.145.358-.206.852-.182 1.484l.031.817c.041.985-.094 1.741-.407 2.269-.312.528-.82.887-1.524 1.075a3.015 3.015 0 01-1.238.085 2.428 2.428 0 01-1.062-.396 3.066 3.066 0 01-.844-.876 4.327 4.327 0 01-.565-1.298zm11.572 2.51l.29 1.082-4.165 1.116.014.054a2.4 2.4 0 011.139.463c.319.252.548.64.688 1.163.194.721.111 1.352-.246 1.892-.347.547-.943.934-1.791 1.161l-4.476 1.2-.29-1.082 4.287-1.149c1.253-.335 1.738-1.031 1.456-2.086a2.587 2.587 0 00-.252-.613 1.886 1.886 0 00-.388-.476 1.3 1.3 0 00-.524-.28 1.212 1.212 0 00-.618.021l-4.841 1.297-.29-1.082 10.007-2.681zm-7.367 13.183a3.258 3.258 0 01-.088-1.354c.068-.433.222-.832.463-1.196.252-.358.578-.672.979-.944a4.85 4.85 0 011.453-.636 4.823 4.823 0 011.562-.172c.492.033.932.142 1.32.328a2.89 2.89 0 011.012.801c.275.342.475.747.601 1.216s.154.915.084 1.34a2.896 2.896 0 01-.476 1.2 3.451 3.451 0 01-.975.957c-.41.274-.89.485-1.44.632a4.83 4.83 0 01-1.576.176 3.607 3.607 0 01-1.323-.341 2.965 2.965 0 01-.999-.805 3.15 3.15 0 01-.597-1.202zm.96-.258c.157.586.465 1.016.925 1.289.459.273 1.059.31 1.798.112l1.001-.268c.739-.198 1.24-.53 1.501-.996.262-.467.314-.993.157-1.579s-.465-1.015-.925-1.288c-.46-.273-1.059-.311-1.798-.113l-1.001.269c-.739.198-1.24.53-1.501.996-.262.466-.314.992-.157 1.578zm7.324 2.613l.282 1.055-2.816 1.552-2.857 1.563.007.027 3.285.033 3.251.071.257.96-2.773 1.714-2.824 1.684.007.027 3.249-.102 3.218-.051.272 1.015-7.474.017-.359-1.339 3.093-1.872 1.96-1.178-.008-.027-2.282-.026-3.615-.075-.351-1.312 6.478-3.736zm-3.072 16.447l6.977-1.87.29 1.082-1.136.304.015.054c.202.033.393.079.573.137.191.064.365.153.52.266.159.122.296.273.412.455.125.179.224.404.297.674.123.46.124.914.002 1.362-.112.445-.396.831-.85 1.155l.008.027c.412.025.804.171 1.175.439.383.274.654.709.813 1.304.191.712.105 1.329-.257 1.852-.351.529-.95.907-1.798 1.134l-4.476 1.199-.29-1.082 4.287-1.149c.622-.166 1.058-.414 1.308-.741.251-.328.305-.758.162-1.29a2.407 2.407 0 00-.248-.601 1.741 1.741 0 00-.381-.448 1.2 1.2 0 00-.517-.253 1.213 1.213 0 00-.618.021l-4.841 1.297-.29-1.082 4.287-1.149c.622-.166 1.058-.414 1.309-.742.25-.328.306-.749.169-1.262a2.445 2.445 0 00-.248-.601 1.718 1.718 0 00-.385-.462 1.35 1.35 0 00-.521-.266 1.219 1.219 0 00-.617.02l-4.842 1.298-.289-1.082zm3.744 14.622a3.258 3.258 0 01-.088-1.354c.068-.434.222-.832.462-1.196.252-.358.579-.672.98-.944a4.85 4.85 0 011.453-.636 4.82 4.82 0 011.562-.172c.492.033.932.142 1.32.328a2.89 2.89 0 011.012.801c.275.342.475.747.601 1.216s.154.915.084 1.34a2.907 2.907 0 01-.476 1.2 3.451 3.451 0 01-.975.957c-.41.274-.89.485-1.44.632a4.858 4.858 0 01-1.576.176 3.627 3.627 0 01-1.323-.341 2.965 2.965 0 01-.999-.805 3.15 3.15 0 01-.597-1.202zm.96-.258c.157.586.465 1.016.925 1.289.459.273 1.059.31 1.798.112l1.001-.268c.739-.198 1.239-.53 1.501-.996.262-.467.314-.993.157-1.579s-.465-1.015-.925-1.288c-.46-.273-1.059-.311-1.798-.113l-1.001.268c-.739.198-1.24.531-1.501.997-.262.466-.314.992-.157 1.578zm.559 5.279l6.978-1.869.29 1.081-1.285.345.018.067c.368.037.726.183 1.074.437.348.255.599.666.751 1.234l.112.419-1.082.29-.17-.635c-.157-.586-.393-1.016-.708-1.289-.303-.267-.621-.355-.955-.266l-4.733 1.268-.29-1.082zm1.89 7.702a3.282 3.282 0 01-.091-1.367c.07-.425.225-.819.466-1.183.252-.357.578-.672.979-.944a5.132 5.132 0 011.456-.622 5.108 5.108 0 011.559-.186c.492.033.932.142 1.32.328.4.193.736.455 1.008.788.276.342.477.751.605 1.229.126.469.153.911.08 1.327a2.83 2.83 0 01-.463 1.138c-.227.342-.53.635-.909.882a4.29 4.29 0 01-1.308.582l-.513.138-1.345-5.017-.324.087a2.6 2.6 0 00-.802.36 2.201 2.201 0 00-.554.583 2.016 2.016 0 00-.273.768c-.038.291-.013.598.074.923.118.442.324.797.619 1.066.296.278.663.455 1.099.532l-.348.919a2.821 2.821 0 01-1.446-.743c-.416-.401-.713-.93-.889-1.588zm6.396-1.714a2.064 2.064 0 00-.379-.768 1.87 1.87 0 00-.604-.519 2.353 2.353 0 00-1.663-.149l-.094.025 1.032 3.854.149-.04c.622-.166 1.072-.47 1.35-.912.289-.435.359-.932.209-1.491z" fill="#fff"/><g clip-path="url(#clip0)"><path d="M443.691 580.525a6.002 6.002 0 0111.729-2.453 6.004 6.004 0 01-3.922 7.258 6 6 0 01-7.462-3.517l-2.611.699-.345-1.287 2.611-.7z" fill="#fff"/></g><path d="M448.185 596.797a3.58 3.58 0 01-.112-1.39c.067-.434.217-.832.448-1.193.244-.355.571-.665.983-.93a5.11 5.11 0 011.457-.622 6.298 6.298 0 012.058-.218c.677.04 1.312.155 1.904.344a8.181 8.181 0 011.645.733c.503.291.927.593 1.272.906l.392 1.461c-.505-.406-.987-.76-1.445-1.063a8.281 8.281 0 00-1.387-.744 6.602 6.602 0 00-1.434-.427 7.28 7.28 0 00-1.608-.106l-.009.075c.448.122.845.324 1.192.608.358.291.614.725.769 1.302.109.405.141.797.098 1.176a2.54 2.54 0 01-.346 1.035 2.725 2.725 0 01-.767.814 3.32 3.32 0 01-1.146.539c-.46.124-.904.16-1.333.111a2.869 2.869 0 01-1.157-.371 2.96 2.96 0 01-.9-.817 3.571 3.571 0 01-.574-1.223zm.983-.278c.167.622.467 1.058.902 1.309.437.26.975.304 1.615.133l.108-.029c.64-.172 1.085-.479 1.333-.923.251-.434.293-.962.126-1.584-.167-.622-.468-1.063-.905-1.323-.435-.251-.972-.291-1.612-.119l-.108.029c-.64.171-1.086.474-1.336.909-.249.443-.29.976-.123 1.598zm.616 5.598l1.001-.268.706 2.637 7.6-2.037-.025-.094-2.856-1.786.539-.855 3.01 1.875.475 1.772-8.438 2.261.652 2.434-1.001.268-1.663-6.207zm7.687 8.892a2.407 2.407 0 01-.067-.953c.045-.302.143-.585.295-.848.154-.253.355-.476.604-.669.257-.194.552-.336.885-.425.334-.09.656-.113.967-.071.32.04.61.131.871.274.263.152.489.347.679.586.192.248.331.535.418.859.087.325.108.638.064.94a2.193 2.193 0 01-.295.847 2.283 2.283 0 01-.614.686 2.426 2.426 0 01-.872.422c-.334.09-.66.115-.98.075a2.344 2.344 0 01-.861-.292 2.312 2.312 0 01-1.094-1.431zm.866-.232c.108.406.334.688.676.848.354.166.734.194 1.139.086.406-.109.716-.322.93-.641.226-.311.284-.67.176-1.076-.109-.405-.34-.691-.694-.858-.342-.159-.716-.184-1.122-.076a1.656 1.656 0 00-.947.631c-.214.318-.267.68-.158 1.086zm-4.007 8.955c-.302-1.127-.095-2.067.622-2.819.718-.743 1.848-1.322 3.39-1.735 1.542-.413 2.81-.477 3.804-.193.996.294 1.646 1.004 1.948 2.131.301 1.127.093 2.062-.626 2.805-.716.752-1.845 1.335-3.387 1.748-1.541.413-2.81.473-3.807.18-.994-.285-1.642-.99-1.944-2.117zm.987-.265c.099.37.26.665.484.885.223.221.496.375.819.462a3.24 3.24 0 001.081.087c.401-.02.831-.092 1.291-.215l1.541-.413c.46-.123.868-.276 1.225-.459.36-.174.657-.379.893-.616s.396-.507.479-.81c.083-.302.075-.638-.024-1.008-.099-.369-.26-.664-.483-.885a1.819 1.819 0 00-.82-.461 3.463 3.463 0 00-1.085-.101 6.965 6.965 0 00-1.286.229l-1.542.413c-.46.123-.869.271-1.228.445a3.467 3.467 0 00-.89.63 1.828 1.828 0 00-.479.809c-.083.303-.075.639.024 1.008zm1.222 8.509c-.302-1.127-.095-2.067.621-2.819.719-.744 1.849-1.322 3.391-1.735 1.542-.413 2.81-.477 3.804-.193.996.293 1.645 1.004 1.947 2.13.302 1.127.094 2.062-.625 2.806-.716.752-1.845 1.335-3.387 1.748-1.541.413-2.81.473-3.807.18-.994-.285-1.642-.991-1.944-2.117zm.987-.265c.099.37.26.665.484.885.223.22.496.374.819.462a3.24 3.24 0 001.081.087 6.285 6.285 0 001.291-.215l1.541-.414c.46-.123.868-.276 1.225-.458.36-.174.657-.379.893-.616s.396-.507.479-.81c.083-.302.075-.638-.024-1.008s-.26-.665-.483-.885a1.835 1.835 0 00-.82-.462 3.464 3.464 0 00-1.085-.1 6.944 6.944 0 00-1.286.228l-1.542.414c-.46.123-.869.271-1.229.445a3.476 3.476 0 00-.889.629 1.822 1.822 0 00-.479.81c-.083.302-.075.638.024 1.008zm5.612 3.796l4.53-.403.268 1.001-4.53.402-.268-1zm2.309 6.022l1.792-1.698-.011-.04-7.857 2.105-.297-1.109 9.439-2.529.351 1.311-4.837 4.992-1.791 1.698.011.041 7.856-2.106.298 1.109-9.439 2.529-.352-1.311 4.837-4.992zm3.162 13.101c.172.64.444 1.079.817 1.317.385.245.807.306 1.267.183l.094-.026c.496-.133.823-.39.982-.77.171-.374.188-.814.053-1.319-.131-.487-.345-.854-.644-1.103a2.49 2.49 0 00-1.054-.529l.424-1.012c.221.066.443.156.667.27.235.121.455.275.66.461.204.187.391.417.561.691.17.273.306.599.407.977.107.397.153.786.139 1.166a2.542 2.542 0 01-.217 1.03 2.104 2.104 0 01-.581.807 2.252 2.252 0 01-.953.502 2.243 2.243 0 01-.864.072 2.015 2.015 0 01-.737-.208 2.357 2.357 0 01-.616-.458 2.773 2.773 0 01-.472-.627l-.054.014c.013.267-.012.535-.075.803a2.123 2.123 0 01-.303.762 2.07 2.07 0 01-.584.635c-.239.19-.534.332-.886.426-.405.108-.8.132-1.184.071a2.627 2.627 0 01-1.039-.418 3.232 3.232 0 01-.826-.865 4.183 4.183 0 01-.555-1.258 4.088 4.088 0 01-.154-1.118c.005-.339.052-.651.14-.936.088-.284.201-.547.34-.787.141-.231.296-.446.465-.646l.877.678a3.93 3.93 0 00-.412.516 2.36 2.36 0 00-.367 1.229c.004.231.045.491.122.779.179.667.463 1.132.852 1.395.398.261.877.316 1.436.166l.108-.029c.559-.15.941-.436 1.147-.858.215-.425.233-.971.054-1.638l-.297-1.109.987-.264.275 1.028zm-3.854 7.36l1.001-.268.707 2.637 7.599-2.036-.025-.095-2.855-1.786.539-.854 3.01 1.875.474 1.771-8.438 2.261.652 2.434-1.001.269-1.663-6.208zm7.688 8.892a2.386 2.386 0 01-.067-.953c.044-.302.143-.584.294-.847a2.47 2.47 0 01.604-.669c.257-.194.552-.336.886-.426.333-.089.656-.113.966-.07.32.04.611.131.871.274.263.151.489.347.679.586.192.248.332.534.418.859a2.296 2.296 0 01-.231 1.787 2.43 2.43 0 01-1.486 1.108c-.333.089-.66.114-.98.074a2.325 2.325 0 01-.861-.291 2.183 2.183 0 01-.678-.586 2.294 2.294 0 01-.415-.846zm.865-.232c.109.406.334.689.677.848.353.166.733.195 1.139.086.405-.108.715-.322.93-.64.225-.312.284-.671.175-1.076-.109-.406-.34-.692-.694-.858-.342-.159-.716-.185-1.122-.076a1.662 1.662 0 00-.947.63c-.214.319-.267.681-.158 1.086zm1.45 6.928c.172.64.444 1.079.817 1.317.385.245.807.306 1.267.183l.094-.025c.496-.133.823-.39.982-.771.171-.374.188-.814.053-1.318-.131-.487-.345-.855-.644-1.103a2.478 2.478 0 00-1.054-.529l.424-1.013c.221.067.443.157.667.271.235.12.455.274.66.461.204.186.391.417.561.69.17.273.306.599.407.978.107.397.153.785.139 1.166a2.541 2.541 0 01-.217 1.029 2.1 2.1 0 01-.581.808 2.25 2.25 0 01-.953.501 2.225 2.225 0 01-.864.073 2.016 2.016 0 01-.737-.209 2.335 2.335 0 01-.616-.458 2.729 2.729 0 01-.472-.627l-.054.014c.013.267-.012.535-.075.803a2.135 2.135 0 01-.303.763c-.139.24-.333.451-.584.634-.239.19-.534.332-.886.426-.405.109-.8.132-1.184.071a2.64 2.64 0 01-1.039-.417 3.237 3.237 0 01-.826-.866 4.166 4.166 0 01-.555-1.257 4.098 4.098 0 01-.154-1.118 3.33 3.33 0 01.14-.937c.088-.284.201-.546.34-.786a5.19 5.19 0 01.465-.647l.877.678c-.158.168-.295.34-.412.517a2.36 2.36 0 00-.367 1.228c.004.231.045.491.122.779.179.668.463 1.133.852 1.395.398.261.877.316 1.436.166l.108-.029c.559-.149.941-.435 1.147-.858.215-.424.233-.97.054-1.637l-.297-1.109.987-.265.275 1.028zm-3.248 10.271c-.302-1.127-.095-2.066.622-2.819.718-.743 1.849-1.321 3.39-1.734 1.542-.413 2.81-.478 3.804-.193.997.293 1.646 1.003 1.948 2.13.302 1.127.093 2.062-.625 2.805-.717.753-1.846 1.336-3.387 1.749-1.542.413-2.811.473-3.808.179-.994-.284-1.642-.99-1.944-2.117zm.987-.264c.099.369.261.664.484.885.223.22.496.374.819.461.323.088.684.117 1.082.087.4-.02.83-.092 1.29-.215l1.542-.413a6.208 6.208 0 001.225-.459c.359-.173.657-.379.892-.616.236-.237.396-.507.479-.809.084-.303.076-.639-.023-1.008-.1-.37-.261-.665-.484-.885a1.808 1.808 0 00-.819-.462 3.466 3.466 0 00-1.085-.101 7.06 7.06 0 00-1.287.229l-1.542.413a7.015 7.015 0 00-1.228.445 3.491 3.491 0 00-.89.63 1.816 1.816 0 00-.478.809c-.084.303-.076.639.023 1.009zm5.612 3.795l4.53-.402.268 1.001-4.53.402-.268-1.001zm-4.064 5.28l9.439-2.529 1.544 5.761-1.001.268-1.239-4.625-3.165.848 1.167 4.355-1.001.268-1.166-4.355-3.273.877 1.239 4.625-1 .268-1.544-5.761z" fill="#fff"/><defs><clipPath id="clip0"><path fill="#fff" transform="rotate(75 -144.1 581.247)" d="M0 0h16v16H0z"/></clipPath></defs></svg>