<svg width="1440" height="810" fill="none" xmlns="http://www.w3.org/2000/svg"><path d="M428.878 587.157a1.337 1.337 0 00-1.633-.943 1.338 1.338 0 00-.943 1.633c.19.708.925 1.133 1.633.943a1.337 1.337 0 00.943-1.633zm2.416 9.015a1.338 1.338 0 00-1.633-.943 1.337 1.337 0 00-.943 1.633c.19.709.925 1.133 1.633.943a1.339 1.339 0 00.943-1.633zm-1.208-4.508a1.337 1.337 0 00-1.633-.942 1.337 1.337 0 00-.943 1.633c.19.708.925 1.132 1.633.942a1.337 1.337 0 00.943-1.633zm-2.127 17.183c-.205-.767-.236-1.459-.093-2.077a4.387 4.387 0 01.848-1.706l.928.65c-.353.452-.592.912-.717 1.381-.117.466-.102.974.046 1.524.181.676.481 1.147.899 1.411.422.274.903.338 1.444.193.45-.121.761-.349.932-.684.171-.336.245-.834.223-1.495l-.031-.818c-.033-.919.087-1.661.36-2.227.285-.559.793-.937 1.523-1.133a2.661 2.661 0 011.17-.067c.366.066.693.206.982.418.291.222.542.507.751.857.221.356.393.764.517 1.224.191.712.223 1.356.097 1.931a3.635 3.635 0 01-.802 1.606l-.85-.685c.29-.358.49-.75.598-1.175.108-.425.089-.913-.059-1.463-.161-.604-.42-1.047-.776-1.328-.344-.275-.773-.344-1.287-.206-.451.121-.755.357-.912.708-.145.358-.206.852-.182 1.484l.031.818c.041.984-.094 1.74-.407 2.268-.312.528-.82.887-1.524 1.075a2.998 2.998 0 01-1.238.085 2.428 2.428 0 01-1.062-.396 3.066 3.066 0 01-.844-.876 4.332 4.332 0 01-.565-1.297zm11.572 2.509l.29 1.082-4.165 1.116.014.054a2.4 2.4 0 011.139.463c.319.253.548.64.688 1.163.194.721.111 1.352-.246 1.893-.347.547-.943.933-1.791 1.161l-4.476 1.199-.29-1.082 4.287-1.149c1.253-.335 1.738-1.031 1.456-2.085a2.577 2.577 0 00-.252-.614 1.886 1.886 0 00-.388-.476 1.312 1.312 0 00-.524-.28 1.223 1.223 0 00-.618.021l-4.841 1.297-.29-1.082 10.007-2.681zm-7.367 13.183a3.258 3.258 0 01-.088-1.354c.068-.433.222-.832.463-1.196.252-.358.578-.672.979-.944a4.825 4.825 0 011.453-.635 4.798 4.798 0 011.562-.173c.492.033.932.142 1.32.328.399.192.737.46 1.012.801.275.342.475.747.601 1.216s.154.916.084 1.34a2.896 2.896 0 01-.476 1.2 3.451 3.451 0 01-.975.957c-.41.274-.89.485-1.44.632a4.83 4.83 0 01-1.576.176 3.607 3.607 0 01-1.323-.341 2.965 2.965 0 01-.999-.805 3.143 3.143 0 01-.597-1.202zm.96-.257c.157.586.465 1.015.925 1.288.459.273 1.059.31 1.798.112l1.001-.268c.739-.198 1.24-.53 1.501-.996.262-.467.314-.993.157-1.579s-.465-1.015-.925-1.288c-.46-.273-1.059-.311-1.798-.113l-1.001.269c-.739.198-1.24.53-1.501.996-.262.466-.314.993-.157 1.579zm7.324 2.613l.282 1.054-2.816 1.552-2.857 1.563.007.027 3.285.033 3.251.071.257.96-2.773 1.714-2.824 1.684.007.028 3.249-.103 3.218-.05.272 1.014-7.474.017-.359-1.339 3.093-1.872 1.96-1.178-.008-.027-2.282-.026-3.615-.075-.351-1.312 6.478-3.735zm-3.072 16.446l6.977-1.87.29 1.082-1.136.304.015.054c.202.033.393.079.573.137.191.064.365.153.52.266.159.122.296.274.412.455.125.179.224.404.297.674.123.46.124.914.002 1.362-.112.446-.396.831-.85 1.155l.008.027c.412.025.804.171 1.175.439.383.274.654.709.813 1.304.191.712.105 1.329-.257 1.852-.351.529-.95.907-1.798 1.134l-4.476 1.199-.29-1.082 4.287-1.148c.622-.167 1.058-.414 1.308-.742.251-.328.305-.758.162-1.29a2.384 2.384 0 00-.248-.6 1.73 1.73 0 00-.381-.449 1.21 1.21 0 00-.517-.253 1.213 1.213 0 00-.618.021l-4.841 1.297-.29-1.082 4.287-1.149c.622-.166 1.058-.414 1.309-.742.25-.328.306-.748.169-1.262a2.445 2.445 0 00-.248-.601 1.734 1.734 0 00-.385-.462 1.35 1.35 0 00-.521-.266 1.219 1.219 0 00-.617.02l-4.842 1.298-.289-1.082zm3.744 14.622a3.258 3.258 0 01-.088-1.354c.068-.433.222-.832.462-1.196.252-.358.579-.672.98-.944a4.85 4.85 0 011.453-.636 4.82 4.82 0 011.562-.172c.492.033.932.142 1.32.328a2.89 2.89 0 011.012.801c.275.342.475.747.601 1.216s.154.915.084 1.34a2.896 2.896 0 01-.476 1.2 3.451 3.451 0 01-.975.957c-.41.274-.89.485-1.44.632a4.83 4.83 0 01-1.576.176 3.607 3.607 0 01-1.323-.341 2.965 2.965 0 01-.999-.805 3.15 3.15 0 01-.597-1.202zm.96-.258c.157.586.465 1.016.925 1.289.459.273 1.059.31 1.798.112l1.001-.268c.739-.198 1.239-.53 1.501-.996.262-.467.314-.993.157-1.579s-.465-1.015-.925-1.288c-.46-.273-1.059-.311-1.798-.113l-1.001.269c-.739.198-1.24.53-1.501.996-.262.466-.314.992-.157 1.578zm.559 5.279l6.978-1.869.29 1.082-1.285.344.018.067c.368.037.726.183 1.074.437.348.255.599.666.751 1.234l.112.419-1.082.29-.17-.635c-.157-.586-.393-1.016-.708-1.289-.303-.267-.621-.355-.955-.266l-4.733 1.268-.29-1.082zm1.89 7.702a3.28 3.28 0 01-.091-1.367c.07-.425.225-.819.466-1.183.252-.357.578-.672.979-.943a5.133 5.133 0 011.456-.623 5.075 5.075 0 011.559-.185c.492.032.932.141 1.32.327.4.193.736.455 1.008.788.276.342.477.752.605 1.229.126.469.153.911.08 1.327a2.84 2.84 0 01-.463 1.139c-.227.341-.53.634-.909.881a4.29 4.29 0 01-1.308.582l-.513.138-1.345-5.017-.324.087c-.298.08-.565.199-.802.36a2.201 2.201 0 00-.554.583 2.015 2.015 0 00-.273.769 2.36 2.36 0 00.074.922c.118.442.324.797.619 1.066.296.278.663.455 1.099.532l-.348.919a2.821 2.821 0 01-1.446-.743c-.416-.4-.713-.93-.889-1.588zm6.396-1.714a2.064 2.064 0 00-.379-.768 1.87 1.87 0 00-.604-.519 2.17 2.17 0 00-.784-.225 2.374 2.374 0 00-.879.076l-.094.025 1.032 3.854.149-.039c.622-.167 1.072-.471 1.35-.913.289-.435.359-.932.209-1.491z" fill="#fff"/><g clip-path="url(#clip0)"><path d="M454.336 580.774l5.196 3-3 5.197a6.003 6.003 0 01-5.979 2.948 6.001 6.001 0 113.783-11.145zm3.375 3.488l-4.041-2.333a4.646 4.646 0 00-3.542-.466l2.416 9.015a4.657 4.657 0 002.834-2.174l2.333-4.042z" fill="#fff"/></g><path d="M456.638 600.756c.172.64.444 1.079.817 1.318.384.244.807.305 1.266.182l.095-.025c.496-.133.823-.39.982-.771.17-.374.188-.813.053-1.318-.131-.487-.345-.855-.644-1.103a2.476 2.476 0 00-1.055-.529l.425-1.013c.22.067.443.157.667.271.235.121.455.274.659.461.205.187.392.417.562.69.17.273.306.599.407.978.106.397.153.785.139 1.166a2.558 2.558 0 01-.217 1.029 2.11 2.11 0 01-.581.808c-.257.233-.574.4-.953.502a2.248 2.248 0 01-.865.072 2.026 2.026 0 01-.737-.208 2.334 2.334 0 01-.615-.459 2.761 2.761 0 01-.473-.627l-.054.015c.014.267-.011.534-.074.802a2.135 2.135 0 01-.303.763 2.08 2.08 0 01-.584.634c-.239.19-.534.332-.886.426a2.8 2.8 0 01-1.184.071 2.634 2.634 0 01-1.039-.417 3.24 3.24 0 01-.827-.866 4.19 4.19 0 01-.554-1.257 4.097 4.097 0 01-.155-1.118c.006-.34.053-.652.141-.936a3.8 3.8 0 01.34-.787c.141-.231.296-.447.464-.646l.878.678c-.158.167-.296.34-.413.516a2.366 2.366 0 00-.366 1.229c.004.23.044.49.122.779.178.667.462 1.132.852 1.395.398.26.877.315 1.436.166l.108-.029c.559-.15.941-.436 1.147-.858.214-.425.232-.971.054-1.638l-.297-1.109.987-.265.275 1.028zm-2.242 13.379l-1.659-6.194 1.163-.311 3.666 2.322a7.195 7.195 0 001.582.765c.539.174 1.039.199 1.499.076l.162-.043c.523-.14.908-.398 1.155-.774.247-.375.292-.856.135-1.442a2.219 2.219 0 00-.324-.724 1.856 1.856 0 00-.491-.478 2.122 2.122 0 00-.618-.254 3.287 3.287 0 00-.688-.077l.121-1.119c.303.015.606.064.909.147.314.09.606.224.876.403.273.188.517.432.732.732.218.308.389.693.512 1.153.123.459.166.888.127 1.284-.039.397-.147.75-.325 1.059-.178.308-.417.57-.717.786a3.024 3.024 0 01-1.055.5 3.247 3.247 0 01-1.071.113 4.034 4.034 0 01-1.018-.176 5.671 5.671 0 01-1.003-.442 14.61 14.61 0 01-1.032-.607l-2.967-1.93 1.33 4.963-1.001.268zm1.203 5.136c-.302-1.127-.095-2.066.621-2.819.719-.743 1.849-1.321 3.391-1.735 1.542-.413 2.809-.477 3.804-.193.996.294 1.645 1.004 1.947 2.131.302 1.127.094 2.062-.625 2.805-.716.753-1.845 1.335-3.387 1.749-1.541.413-2.811.472-3.807.179-.994-.284-1.642-.99-1.944-2.117zm.987-.264c.099.369.26.664.483.885.224.22.497.374.82.461.323.088.683.117 1.081.087.401-.02.831-.092 1.291-.215l1.541-.413c.46-.123.868-.276 1.225-.459.359-.173.657-.379.893-.616s.396-.507.479-.809c.083-.303.075-.639-.024-1.009-.099-.369-.26-.664-.483-.885a1.824 1.824 0 00-.82-.461 3.463 3.463 0 00-1.085-.101c-.398.03-.827.106-1.286.229l-1.542.413c-.46.123-.869.272-1.229.445a3.485 3.485 0 00-.889.63 1.819 1.819 0 00-.479.809c-.083.303-.075.639.024 1.009zm1.526 8.996l9.439-2.529.305 1.136-8.438 2.261 1.076 4.016-1.001.268-1.381-5.152z" fill="#fff"/><defs><clipPath id="clip0"><path fill="#fff" transform="rotate(75 -146.51 586.202)" d="M0 0h16v16H0z"/></clipPath></defs></svg>