<svg width="1440" height="810" fill="none" xmlns="http://www.w3.org/2000/svg"><g clip-path="url(#clip0)"><g clip-path="url(#clip1)"><path d="M442.64 614.993a.668.668 0 01-.472.817l-2.704.724 3.25 2.728a.339.339 0 01.111.327.333.333 0 01-.24.25l-7.779 2.084a.33.33 0 01-.413-.256.335.335 0 01.014-.18l1.451-3.986-2.705.724a.667.667 0 01-.817-.471l-2.415-9.015a.667.667 0 01.471-.817l9.016-2.415a.665.665 0 01.816.471l2.416 9.015zm-4.594-4.705a.268.268 0 00-.274-.197l-.052.009-3.569.956a.255.255 0 00-.111.062.265.265 0 00-.036.352l.036.04 2.536 2.326a.266.266 0 00.413-.067l.021-.049 1.034-3.283a.266.266 0 00.002-.148v-.001z" fill="#fff"/></g><path d="M436.14 631.311c-.321-1.199-.165-2.241.467-3.126.642-.887 1.756-1.543 3.343-1.968 1.586-.425 2.893-.417 3.919.023 1.035.437 1.713 1.256 2.035 2.455.212.793.21 1.504-.009 2.132-.215.638-.612 1.194-1.191 1.668l-.8-.771c.436-.32.746-.713.931-1.178.193-.467.212-.994.055-1.58a2.63 2.63 0 00-.524-1.033 2.366 2.366 0 00-.88-.634 3.145 3.145 0 00-1.148-.229 4.684 4.684 0 00-1.359.176l-1.406.377c-.974.261-1.675.69-2.105 1.288-.429.598-.533 1.308-.314 2.128.162.604.451 1.068.866 1.391.424.322.919.508 1.483.56l-.325 1.058c-.747-.119-1.389-.406-1.926-.861-.529-.457-.899-1.083-1.112-1.876zm3.141 11.073l2.532-1.693-1.021-3.813-3.04-.2-.308-1.15 10.323.771.388 1.447-8.555 5.828-.319-1.19zm7.627-5.072l-.018-.068-5.025-.364.873 3.259 4.17-2.827zm3.07 13.187l-.018-.067-1.796-.374-4.716-1.157 3.506-3.36 1.368-1.222-.018-.067-7.952 2.13-.297-1.109 9.439-2.529.406 1.515-4.36 4.067.018.067 5.813 1.356.392 1.46-9.439 2.53-.298-1.109 7.952-2.131zm-6.071 9.147l1-.268.707 2.637 7.6-2.036-.026-.095-2.855-1.786.539-.854 3.01 1.874.474 1.772-8.438 2.261.652 2.434-1 .268-1.663-6.207z" fill="#fff"/><path d="M389.08 693.995l183.075 95.085-66.1 20.909L328.83 810l60.25-116.005z" fill="url(#paint0_linear)"/></g><defs><clipPath id="clip0"><path fill="#fff" d="M0 0h1440v810H0z"/></clipPath><clipPath id="clip1"><path fill="#fff" transform="rotate(75 -172.347 590.31)" d="M0 0h16v16H0z"/></clipPath><linearGradient id="paint0_linear" x1="389.08" y1="693.995" x2="433.075" y2="833.075" gradientUnits="userSpaceOnUse"><stop stop-color="#fff" stop-opacity=".4"/><stop offset="1" stop-color="#fff" stop-opacity="0"/></linearGradient></defs></svg>