<svg width="100" height="52" viewBox="0 0 100 52" fill="none" xmlns="http://www.w3.org/2000/svg">
<path fill-rule="evenodd" clip-rule="evenodd" d="M1.99065 19.8453C-0.000195471 19.8453 -0.249055 18.8227 0.176261 17.2527C2.59694 10.054 11.058 0.00476074 21.2611 0.00476074H57.2817C60.2047 0.00476074 61.4851 0.307913 60.9557 3.77379L56.6936 31.0528C53.6213 44.3779 36.8983 51.3504 32.817 51.2961C31.6678 51.278 30.8533 50.3504 31.0433 49.1967L35.5228 19.8498H1.99065V19.8453Z" fill="#0060AA"/>
<path fill-rule="evenodd" clip-rule="evenodd" d="M67.8829 0H97.8178C100.139 0 100.261 0.923029 99.7589 2.61072C97.388 10.3117 88.8545 19.8406 78.6515 19.8406H64.5889C63.1455 19.8406 62.2632 19.3655 62.4985 17.8407L64.8197 2.64692C65.1816 0.294105 66.2449 0 67.8829 0Z" fill="#B62C2C"/>
</svg>
