<svg width="43" height="24" viewBox="0 0 43 24" fill="none" xmlns="http://www.w3.org/2000/svg">
<path d="M26.5645 7.74851H33.2428C37.2476 7.74851 41.3643 4.52927 42.4494 0.54407C42.5277 0.255449 42.3487 0.0112305 42.0578 0.0112305H28.8913C28.3543 0.0112305 27.7838 0.444163 27.6384 0.988104L26.0163 7.02696C25.9045 7.40439 26.1506 7.74851 26.5645 7.74851Z" fill="#CD4E3F"/>
<path d="M25.6356 0H25.5909H18.8678H9.21377C5.22017 0 1.09233 3.21924 0.0184228 7.20444C-0.059883 7.49306 0.119102 7.73728 0.409952 7.73728H16.2613L12.0216 23.4672C11.9433 23.7558 12.1223 24 12.4131 24C16.4179 24 20.5346 20.7808 21.6197 16.7956L24.2261 7.20444L26.016 0.53284L26.0383 0.488437C26.0719 0.222017 25.9041 0 25.6356 0Z" fill="#569896"/>
</svg>
