<svg width="155" height="122" viewBox="0 0 155 122" fill="none" xmlns="http://www.w3.org/2000/svg">
<path d="M153.736 43.1314L116.817 45.5626L86.0823 28.3575C84.3957 27.4224 82.3342 27.4224 80.6475 28.1705L52.9115 41.8224L52.724 38.2691L1 44.8146V70.8092C1 72.6794 1.74962 74.3625 3.43628 75.4846L67.1543 119.993C69.0284 121.303 71.4646 121.303 73.5261 120.18L150.925 74.9235C152.799 73.8014 153.923 71.7443 153.736 69.6872V43.1314Z" fill="white" stroke="#323232" stroke-width="0.7" stroke-miterlimit="10"/>
<path d="M67.3418 93.4377L3.62373 48.9288C0.0630183 46.3107 0.43783 40.8873 4.37335 39.0172L80.835 1.61476C82.5216 0.679696 84.5831 0.866708 86.2698 1.80177L150.925 38.4562C154.86 40.7003 154.86 46.3107 150.925 48.5548L73.5261 93.6248C71.6521 94.7468 69.2158 94.7468 67.3418 93.4377Z" fill="white" stroke="#323232" stroke-width="0.7" stroke-miterlimit="10"/>
<path d="M57.0345 97.7389C57.0345 93.0636 54.5982 87.8273 51.4123 85.9572C50.2879 85.3961 49.3509 85.2091 48.4138 85.5831L45.0405 86.7052L45.9776 89.6974C45.9776 90.0714 45.7902 90.6325 45.7902 91.1935C45.7902 95.1208 47.6642 99.6091 50.1005 102.04L50.8501 104.471L53.6612 103.536C54.036 103.536 54.2234 103.349 54.4108 103.349H54.5982C56.0975 102.227 57.0345 100.357 57.0345 97.7389Z" fill="#B62C2C" stroke="#323232" stroke-width="0.7" stroke-miterlimit="10" stroke-linecap="round" stroke-linejoin="round"/>
<path d="M68.4661 90.0715L5.49772 46.1236C3.62366 44.8146 3.81107 42.0094 5.87253 40.8873L81.5845 3.67189C82.709 3.11085 83.8334 3.11085 84.7704 3.8589L149.425 40.3263C151.674 41.6354 151.674 44.6276 149.425 45.9366L73.9009 90.2585C72.2142 91.3806 70.1528 91.1936 68.4661 90.0715Z" fill="white" stroke="#979797" stroke-width="0.5" stroke-miterlimit="10"/>
<path d="M53.6608 98.8612C53.6608 103.537 51.2245 105.781 48.0386 103.911C45.0401 102.04 42.6039 96.8041 42.6039 92.3158C42.6039 87.8275 45.0401 85.3963 48.0386 87.2664C51.0371 88.9496 53.6608 94.1859 53.6608 98.8612Z" fill="#B62C2C" stroke="#323232" stroke-width="0.7" stroke-miterlimit="10"/>
<path d="M72.2143 71.1834L33.9835 44.4406C31.7347 42.9445 32.1095 39.5783 34.3583 38.4562L80.0854 16.0148C81.2098 15.4537 82.3343 15.4537 83.2713 16.2018L122.252 38.0822C124.501 39.3913 124.688 42.7575 122.252 44.0666L75.9625 71.3704C74.6506 71.9314 73.3388 71.9314 72.2143 71.1834Z" stroke="#979797" stroke-width="0.7" stroke-miterlimit="10" stroke-linecap="round" stroke-linejoin="round" stroke-dasharray="2 2"/>
<path d="M49.7253 96.4299C49.7253 97.739 48.9757 98.4871 48.0387 97.926C47.1016 97.365 46.352 95.8689 46.352 94.5598C46.352 93.2507 47.1016 92.5027 48.0387 93.0637C48.9757 93.6247 49.7253 95.1208 49.7253 96.4299Z" fill="#B62C2C" stroke="#323232" stroke-width="0.7" stroke-miterlimit="10"/>
<path d="M20.4903 71.5573C20.4903 66.882 18.054 61.6456 14.8681 59.7755C13.7437 59.2145 12.8067 59.0275 11.8696 59.4015L8.49634 60.5236L9.43337 63.5158C9.43337 63.8898 9.24596 64.4508 9.24596 65.0119C9.24596 68.9391 11.12 73.4274 13.5563 75.8586L14.3059 78.2897L17.4918 76.9806C17.8666 76.9806 18.054 76.7936 18.2414 76.7936H18.4289C19.7407 76.0456 20.4903 74.1755 20.4903 71.5573Z" fill="#B62C2C" stroke="#323232" stroke-width="0.7" stroke-miterlimit="10" stroke-linecap="round" stroke-linejoin="round"/>
<path d="M17.1169 72.4923C17.1169 77.1677 14.6806 79.4118 11.4947 77.5417C8.49621 75.6716 6.05994 70.4352 6.05994 65.7599C6.05994 61.0846 8.49621 58.8405 11.4947 60.7106C14.6806 62.5807 17.1169 67.817 17.1169 72.4923Z" fill="#B62C2C" stroke="#323232" stroke-width="0.7" stroke-miterlimit="10"/>
<path d="M13.1814 70.0613C13.1814 71.3704 12.4318 72.1184 11.4948 71.5574C10.5577 70.9963 9.80811 69.5002 9.80811 68.1912C9.80811 66.8821 10.5577 66.134 11.4948 66.6951C12.4318 67.2561 13.1814 68.7522 13.1814 70.0613Z" fill="#B62C2C" stroke="#323232" stroke-width="0.7" stroke-miterlimit="10"/>
</svg>
