<svg width="202" height="202" viewBox="0 0 202 202" fill="none" xmlns="http://www.w3.org/2000/svg">
<path d="M201.332 154.625L191.814 153.075L71.6143 91.9795C70.2861 91.3154 68.7366 91.3154 67.4085 91.9795L6.97676 120.757L1 119.65V124.52C1 125.405 1.22136 126.069 2.10681 126.512L132.046 200.668C132.71 201.111 133.817 201.111 134.481 200.668L199.783 162.151C200.668 161.708 201.111 160.602 201.111 159.716V154.625H201.332Z" fill="white" stroke="#323232" stroke-width="0.7" stroke-miterlimit="10" stroke-linecap="round" stroke-linejoin="round"/>
<path d="M71.6142 86.6666L199.561 151.747C201.553 152.854 201.775 155.731 199.783 156.838L134.481 195.355C133.817 195.798 132.71 195.798 132.046 195.355L2.10671 121.42C0.557178 120.535 0.778539 118.321 2.32807 117.657L67.4083 86.6666C68.7365 86.0026 70.286 86.0026 71.6142 86.6666Z" fill="white" stroke="#323232" stroke-width="0.7" stroke-miterlimit="10" stroke-linecap="round" stroke-linejoin="round"/>
<path d="M69.622 88.2164C68.9579 88.2164 68.2938 88.4377 67.6298 88.6591H67.4084C67.187 88.8804 66.9657 89.1018 67.187 89.3232C67.187 89.5445 67.4084 89.5445 67.6298 89.5445H67.8511H68.0725C68.5152 89.3232 68.9579 89.1018 69.622 89.1018C69.8434 89.1018 70.2861 88.8804 70.2861 88.4377C70.2861 87.995 70.0647 88.2164 69.622 88.2164ZM63.8666 90.6513H63.6452C63.6452 90.6513 62.9812 90.8727 62.3171 91.3154L61.653 91.7581C61.4316 91.9795 61.2103 92.2009 61.4316 92.4222C61.4316 92.6436 61.653 92.6436 61.8744 92.6436H62.0957L64.088 91.7581C64.3093 91.5368 64.5307 91.3154 64.3093 91.0941C64.3093 90.6513 64.088 90.6513 63.8666 90.6513ZM57.8898 93.529H57.6685H57.4471L55.8976 94.1931C55.6762 94.4145 55.4549 94.6358 55.6762 94.8572C55.6762 95.0786 55.8976 95.0786 56.119 95.0786H56.3403L58.3326 94.1931C58.5539 93.9718 58.7753 93.7504 58.5539 93.529C58.1112 93.529 58.1112 93.529 57.8898 93.529ZM51.9131 96.1854H51.6917C51.6917 96.1854 51.0276 96.4067 50.5849 96.6281L49.6995 97.0708C49.2567 97.2922 49.2567 97.7349 49.2567 97.9563C49.2567 98.1776 49.4781 98.1776 49.6995 98.1776H49.9208L51.9131 97.2922C52.1344 97.0708 52.3558 96.8494 52.1344 96.6281C52.1344 96.4067 51.9131 96.1854 51.9131 96.1854ZM45.715 99.0631H45.4936L43.5013 99.9485C43.28 100.17 43.0586 100.391 43.28 100.613C43.28 100.834 43.5013 100.834 43.7227 100.834H43.9441L45.9363 99.9485C46.1577 99.7271 46.379 99.5058 46.1577 99.2844C46.1577 99.2844 45.9363 99.0631 45.715 99.0631ZM39.7382 101.941H39.5168L37.5246 102.826C37.3032 103.048 37.0819 103.269 37.3032 103.49C37.3032 103.712 37.5246 103.712 37.7459 103.712H37.9673L39.9596 102.826C40.4023 102.826 40.4023 102.605 40.4023 102.162C40.1809 102.162 39.9596 101.941 39.7382 101.941ZM33.7614 104.818H33.5401L31.5478 105.704C31.3265 105.925 31.1051 106.147 31.3265 106.368C31.3265 106.589 31.5478 106.589 31.7692 106.589H31.9905L33.9828 105.704C34.2042 105.483 34.4255 105.261 34.2042 105.04C34.2042 104.818 33.9828 104.818 33.7614 104.818ZM27.7847 107.696H27.5633L25.5711 108.582C25.3497 108.803 25.1283 109.024 25.3497 109.246C25.3497 109.467 25.5711 109.467 25.7924 109.467H26.0138L28.006 108.582C28.2274 108.36 28.4488 108.139 28.2274 107.918C28.2274 107.696 28.006 107.696 27.7847 107.696ZM21.8079 110.574H21.5866C21.1438 110.795 19.5943 111.459 19.5943 111.459C19.3729 111.681 19.1516 111.902 19.3729 112.123C19.3729 112.345 19.5943 112.345 19.8157 112.345H20.037L22.0293 111.459C22.2506 111.238 22.472 111.017 22.2506 110.795C22.2506 110.574 22.0293 110.574 21.8079 110.574ZM15.8312 113.23H15.6098L13.6175 114.116C13.3962 114.337 13.1748 114.558 13.3962 114.78C13.3962 115.222 13.6175 115.444 13.8389 115.444H14.0603L16.0525 114.337C16.2739 114.116 16.4952 113.894 16.2739 113.673C16.2739 113.452 16.0525 113.23 15.8312 113.23ZM9.8544 116.108H9.63304L7.64078 116.993C7.19806 117.215 7.19806 117.657 7.19806 117.879C7.19806 118.1 7.41942 118.1 7.64078 118.1H7.86214L9.8544 117.215C10.0758 116.993 10.2971 116.772 10.0758 116.551C10.2971 116.329 10.0758 116.108 9.8544 116.108ZM6.75534 119.65C6.53397 119.65 6.53397 119.65 6.31261 119.871C6.09125 120.092 6.09125 120.535 6.31261 120.756L6.53397 120.978C6.75534 121.199 7.86214 121.642 7.86214 121.642H8.0835C8.30487 121.642 8.52623 121.642 8.52623 121.421C8.74759 121.199 8.52623 120.756 8.30487 120.756L6.9767 119.871C6.9767 119.871 6.75534 119.871 6.75534 119.65C7.19806 119.871 6.9767 119.65 6.75534 119.65ZM12.5107 122.97C12.2894 122.97 12.068 122.97 12.068 123.191C11.8467 123.413 12.068 123.856 12.2894 123.856C12.2894 123.856 12.9535 124.298 13.6175 124.52L14.2816 124.962H14.503C14.7244 124.962 14.9457 124.962 14.9457 124.741C15.1671 124.52 14.9457 124.077 14.7244 124.077L12.7321 122.97C12.5107 122.97 12.5107 122.97 12.5107 122.97ZM18.2661 126.291C18.0448 126.291 17.8234 126.291 17.8234 126.512C17.602 126.733 17.8234 127.176 18.0448 127.176L18.7089 127.619C19.1516 127.84 19.8157 128.283 19.8157 128.283H20.037C20.2584 128.283 20.4797 128.283 20.4797 128.061C20.7011 127.84 20.4797 127.397 20.2584 127.397L18.2661 126.291ZM24.0215 129.611C23.8002 129.611 23.5788 129.611 23.5788 129.832C23.3574 130.054 23.5788 130.496 23.8002 130.496L25.7924 131.603H26.0138C26.2351 131.603 26.4565 131.603 26.4565 131.382C26.6779 131.16 26.4565 130.718 26.2352 130.718L24.2429 129.611C24.0215 129.611 24.0215 129.611 24.0215 129.611ZM29.7769 132.931C29.5556 132.931 29.3342 132.931 29.3342 133.153C29.1129 133.374 29.3342 133.817 29.5556 133.817L30.8837 134.481C31.1051 134.702 31.5478 134.702 31.5478 134.702H31.7692C31.9906 134.702 32.2119 134.702 32.2119 134.481C32.4333 134.26 32.2119 133.817 31.9905 133.817L29.9983 132.71C29.9983 132.931 29.7769 132.931 29.7769 132.931ZM35.5323 136.03C35.311 136.03 35.0896 136.03 35.0896 136.252C34.8682 136.473 35.0896 136.916 35.311 136.916L37.3032 138.023H37.5246C37.746 138.023 37.9673 138.023 37.9673 137.801C38.1887 137.58 37.9673 137.137 37.7459 137.137L35.7537 136.03C35.7537 136.252 35.5323 136.03 35.5323 136.03ZM41.2877 139.351C41.0664 139.351 40.845 139.351 40.845 139.572C40.6236 139.794 40.845 140.236 41.0664 140.236L42.8373 141.343H43.0586C43.28 141.343 43.5013 141.343 43.5013 141.122C43.7227 140.9 43.5013 140.458 43.28 140.458L41.2877 139.351C41.2877 139.351 41.5091 139.351 41.2877 139.351ZM47.0431 142.671C46.8218 142.671 46.6004 142.671 46.6004 142.893C46.379 143.114 46.6004 143.557 46.8218 143.557L48.814 144.664H49.0354C49.2567 144.664 49.4781 144.664 49.4781 144.442C49.6995 144.221 49.4781 143.778 49.2567 143.778L47.2645 142.671H47.0431ZM52.7985 145.992C52.5772 145.992 52.3558 145.992 52.3558 146.213C52.1344 146.434 52.3558 146.877 52.5772 146.877L54.5694 147.984H54.7908C55.0121 147.984 55.2335 147.984 55.2335 147.763C55.4549 147.541 55.2335 147.099 55.0121 147.099L53.0199 145.992H52.7985ZM58.5539 149.312C58.3326 149.312 58.1112 149.312 58.1112 149.533C57.8898 149.755 58.1112 150.198 58.3326 150.198L60.3248 151.304H60.5462C60.7675 151.304 60.9889 151.304 60.9889 151.083C61.2103 150.862 60.9889 150.419 60.7675 150.419L58.7753 149.312H58.5539ZM64.3093 152.633C64.088 152.633 63.8666 152.633 63.8666 152.854C63.6452 153.075 63.8666 153.518 64.088 153.518L66.0802 154.625H66.3016C66.5229 154.625 66.7443 154.625 66.7443 154.403C66.9657 154.182 66.7443 153.739 66.5229 153.739L64.5307 152.633C64.5307 152.633 64.5307 152.633 64.3093 152.633ZM70.0647 155.953C69.8434 155.953 69.622 155.953 69.622 156.174C69.4006 156.396 69.622 156.838 69.8434 156.838L70.2861 157.06C70.9502 157.281 71.6143 157.724 71.6143 157.724H71.8356C72.057 157.724 72.2784 157.724 72.2784 157.502C72.4997 157.281 72.2783 156.838 72.057 156.838L70.0647 155.732C70.2861 155.953 70.2861 155.953 70.0647 155.953ZM75.8201 159.052C75.5988 159.052 75.3774 159.052 75.3774 159.273C75.156 159.495 75.3774 159.937 75.5988 159.937C75.5988 159.937 76.0415 160.159 76.7056 160.602L77.591 161.044H77.8124C78.0337 161.044 78.2551 161.044 78.2551 160.823C78.4765 160.602 78.2551 160.159 78.0337 160.159L76.0415 159.052C76.0415 159.273 76.0415 159.052 75.8201 159.052ZM81.5755 162.372C81.3542 162.372 81.1328 162.372 81.1328 162.594C80.9114 162.815 81.1328 163.258 81.3542 163.258L82.461 164.143C82.9037 164.365 83.1251 164.586 83.1251 164.586H83.3464C83.5678 164.586 83.7891 164.586 83.7891 164.365C84.0105 164.143 83.7891 163.701 83.5678 163.701L81.5755 162.594C81.7969 162.372 81.7969 162.372 81.5755 162.372ZM87.3309 165.693C87.1096 165.693 86.8882 165.693 86.8882 165.914C86.6668 166.136 86.8882 166.578 87.1096 166.578C87.1096 166.578 87.3309 166.8 87.7737 167.021L88.8805 167.685H89.1018C89.3232 167.685 89.5445 167.685 89.5445 167.464C89.7659 167.242 89.5445 166.8 89.3232 166.8L87.3309 165.693C87.5523 165.693 87.5523 165.693 87.3309 165.693ZM93.0863 169.013C92.865 169.013 92.6436 169.013 92.6436 169.235C92.4222 169.456 92.6436 169.899 92.865 169.899L94.6359 170.784H94.8572H95.0786C95.2999 170.784 95.5213 170.784 95.5213 170.563C95.7427 170.341 95.5213 169.899 95.2999 169.899L93.529 169.013C93.3077 169.013 93.3077 169.013 93.0863 169.013ZM99.0631 172.334C98.8417 172.334 98.6204 172.334 98.6204 172.555C98.399 172.776 98.6204 173.219 98.8417 173.219L100.834 174.326H101.055C101.277 174.326 101.498 174.326 101.498 174.105C101.719 173.883 101.498 173.441 101.277 173.441L99.2844 172.334C99.0631 172.334 99.0631 172.334 99.0631 172.334ZM104.818 175.654C104.597 175.654 104.376 175.654 104.376 175.876C104.154 176.097 104.376 176.54 104.597 176.54L106.589 177.646H106.811C107.032 177.646 107.253 177.646 107.253 177.425C107.475 177.204 107.253 176.761 107.032 176.761L105.04 175.654C104.818 175.654 104.818 175.654 104.818 175.654ZM110.574 178.975C110.353 178.975 110.131 178.975 110.131 179.196C109.91 179.417 110.131 179.86 110.353 179.86L112.345 180.967H112.566C112.787 180.967 113.009 180.967 113.009 180.745C113.23 180.524 113.009 180.081 112.787 180.081L110.795 178.975C110.574 178.975 110.574 178.975 110.574 178.975ZM116.329 182.074C116.108 182.074 115.887 182.074 115.887 182.295C115.665 182.516 115.887 182.959 116.108 182.959L118.1 184.066H118.322C118.543 184.066 118.764 184.066 118.764 183.845C118.986 183.623 118.764 183.18 118.543 183.18L116.551 182.074H116.329ZM122.085 185.394C121.863 185.394 121.642 185.394 121.642 185.615C121.421 185.837 121.642 186.279 121.863 186.279L122.306 186.501C122.97 186.722 123.634 187.386 123.634 187.386H123.856C124.077 187.386 124.298 187.386 124.298 187.165C124.52 186.944 124.298 186.501 124.077 186.501L122.306 185.615C122.306 185.394 122.085 185.394 122.085 185.394ZM127.84 188.714C127.619 188.714 127.397 188.714 127.397 188.936C127.176 189.157 127.397 189.6 127.619 189.6L129.611 190.707H129.832C130.054 190.707 130.275 190.707 130.275 190.485C130.496 190.264 130.275 189.821 130.054 189.821L128.061 188.714H127.84ZM135.145 190.928H134.924L134.038 191.371C133.817 191.371 133.595 191.592 133.374 191.592C133.153 191.592 132.931 191.814 132.931 192.256C132.931 192.478 133.153 192.699 133.374 192.699C133.817 192.699 134.038 192.699 134.481 192.478L135.366 192.035C135.588 191.814 135.809 191.592 135.588 191.371C135.588 190.928 135.366 190.928 135.145 190.928ZM140.9 187.386H140.679L138.687 188.493C138.465 188.714 138.244 188.936 138.465 189.157C138.465 189.379 138.687 189.379 138.908 189.379H139.13L141.122 188.272C141.343 188.05 141.564 187.829 141.343 187.608C141.343 187.608 141.122 187.386 140.9 187.386ZM146.656 184.066H146.434L144.442 185.394C144.221 185.615 143.999 185.837 144.221 186.058C144.221 186.279 144.442 186.279 144.664 186.279H144.885L146.877 185.173C147.099 184.951 147.32 184.73 147.099 184.509C146.877 184.287 146.877 184.066 146.656 184.066ZM152.19 180.745H151.968L150.198 181.852C149.976 182.074 149.755 182.295 149.976 182.516C149.976 182.738 150.198 182.738 150.419 182.738H150.64L152.633 181.631C152.854 181.41 153.075 181.188 152.854 180.967C152.633 180.745 152.411 180.745 152.19 180.745ZM157.945 177.425H157.724L155.732 178.532C155.51 178.753 155.289 178.975 155.51 179.196C155.51 179.417 155.732 179.417 155.953 179.417H156.174L158.167 178.31C158.388 178.089 158.609 177.868 158.388 177.646C158.388 177.425 158.167 177.425 157.945 177.425ZM163.701 173.883H163.479L161.487 175.211C161.266 175.433 161.044 175.654 161.266 175.876C161.266 176.097 161.487 176.097 161.708 176.097H161.93L163.922 174.99C164.143 174.769 164.365 174.547 164.143 174.326C164.143 174.105 163.922 173.883 163.701 173.883ZM169.456 170.563H169.235L167.242 171.67C167.021 171.891 166.8 172.112 167.021 172.334C167.021 172.555 167.242 172.555 167.464 172.555H167.685L169.677 171.448C169.899 171.227 170.12 171.006 169.899 170.784C169.899 170.784 169.677 170.563 169.456 170.563ZM175.211 167.242H174.99L172.998 168.349C172.776 168.571 172.555 168.792 172.776 169.013C172.776 169.235 172.998 169.235 173.219 169.235H173.441L175.433 168.128C175.654 167.906 175.876 167.685 175.654 167.464C175.654 167.242 175.433 167.242 175.211 167.242ZM180.967 163.922H180.745L178.753 165.029C178.532 165.25 178.311 165.471 178.532 165.693C178.532 165.914 178.753 165.914 178.975 165.914H179.196L181.188 164.807C181.41 164.586 181.631 164.365 181.41 164.143C181.188 163.922 181.188 163.922 180.967 163.922ZM186.501 160.38H186.28L184.287 161.487C184.066 161.708 183.845 161.93 184.066 162.151C184.066 162.372 184.287 162.372 184.509 162.372H184.73L186.722 161.266C186.944 161.044 187.165 160.823 186.944 160.602C186.944 160.602 186.722 160.38 186.501 160.38ZM192.256 157.06H192.035L190.043 158.167C189.821 158.388 189.6 158.609 189.821 158.831C189.821 159.052 190.043 159.052 190.264 159.052H190.485L192.478 157.945C192.699 157.724 192.92 157.502 192.699 157.281C192.699 157.281 192.478 157.06 192.256 157.06ZM196.241 153.075C196.241 153.075 196.019 153.075 196.241 153.075C195.798 153.075 195.577 153.518 195.798 153.739C195.798 154.182 195.798 154.625 195.577 155.068C195.355 155.289 195.355 155.732 195.798 155.732H196.019C196.241 155.732 196.462 155.732 196.462 155.51C196.684 155.289 196.684 155.068 196.684 154.846C196.684 154.625 196.684 154.182 196.684 153.961C196.684 153.961 196.684 153.961 196.684 153.739C196.684 153.297 196.462 153.075 196.241 153.075ZM191.371 149.755C191.149 149.755 190.928 149.755 190.928 149.976C190.707 150.198 190.928 150.64 191.149 150.64L193.142 151.747H193.363C193.584 151.747 193.806 151.747 193.806 151.526C194.027 151.304 193.806 150.862 193.584 150.862L191.592 149.755H191.371ZM185.394 146.656C185.173 146.656 184.951 146.656 184.951 146.877C184.73 147.098 184.951 147.541 185.173 147.541L187.165 148.648H187.386C187.608 148.648 187.829 148.648 187.829 148.427C188.05 148.205 187.829 147.763 187.608 147.763L185.615 146.656H185.394ZM179.417 143.778C179.196 143.778 178.975 143.778 178.975 143.999C178.753 144.221 178.975 144.664 179.196 144.664L181.188 145.77H181.41C181.631 145.77 181.852 145.77 181.852 145.549C182.074 145.328 181.852 144.885 181.631 144.885L179.639 143.778C179.639 143.778 179.639 143.778 179.417 143.778ZM173.662 140.679C173.441 140.679 173.219 140.679 173.219 140.9C172.998 141.122 173.219 141.564 173.441 141.564L175.433 142.671H175.654C175.876 142.671 176.097 142.671 176.097 142.45C176.318 142.229 176.097 141.786 175.876 141.786L174.547 141.122C174.326 140.9 173.883 140.9 173.883 140.9C173.662 140.679 173.662 140.679 173.662 140.679ZM167.685 137.58C167.464 137.58 167.242 137.58 167.242 137.801C167.021 138.023 167.242 138.465 167.464 138.465L169.456 139.572H169.677C169.899 139.572 170.12 139.572 170.12 139.351C170.341 139.129 170.12 138.687 169.899 138.687L167.907 137.58H167.685ZM161.708 134.702C161.487 134.702 161.266 134.702 161.266 134.924C161.044 135.145 161.266 135.588 161.487 135.588L163.479 136.695H163.701C163.922 136.695 164.143 136.695 164.143 136.473C164.365 136.252 164.143 135.809 163.922 135.809L161.93 134.702C161.93 134.702 161.93 134.702 161.708 134.702ZM155.732 131.603C155.51 131.603 155.289 131.603 155.289 131.825C155.068 132.046 155.289 132.489 155.51 132.489L157.503 133.595H157.724C157.945 133.595 158.167 133.595 158.167 133.374C158.388 133.153 158.167 132.71 157.945 132.71L156.838 132.046C156.396 131.825 156.174 131.603 156.174 131.603C155.953 131.603 155.953 131.603 155.732 131.603ZM149.976 128.504C149.755 128.504 149.534 128.504 149.534 128.726C149.312 128.947 149.534 129.39 149.755 129.39L151.747 130.496H151.968C152.19 130.496 152.411 130.496 152.411 130.275C152.633 130.054 152.411 129.611 152.19 129.611C152.19 129.611 151.747 129.39 151.304 129.168L150.198 128.726C149.976 128.504 149.976 128.504 149.976 128.504ZM143.999 125.626C143.778 125.626 143.557 125.626 143.557 125.848C143.335 126.069 143.557 126.512 143.778 126.512L145.77 127.619H145.992C146.213 127.619 146.434 127.619 146.434 127.397C146.656 127.176 146.434 126.733 146.213 126.733L144.221 125.626H143.999ZM138.023 122.527C137.801 122.527 137.58 122.527 137.58 122.749C137.359 122.97 137.58 123.413 137.801 123.413L139.794 124.52H140.015C140.236 124.52 140.458 124.52 140.458 124.298C140.679 124.077 140.458 123.634 140.236 123.634L138.244 122.527C138.244 122.527 138.244 122.527 138.023 122.527ZM132.267 119.65C132.046 119.65 131.825 119.65 131.825 119.871C131.603 120.092 131.825 120.535 132.046 120.535L134.038 121.642H134.26C134.481 121.642 134.702 121.642 134.702 121.421C134.924 121.199 134.702 120.756 134.481 120.756C134.481 120.756 133.817 120.314 133.153 120.092L132.489 119.65C132.267 119.65 132.267 119.65 132.267 119.65ZM126.291 116.551C126.069 116.551 125.848 116.551 125.848 116.772C125.626 116.993 125.848 117.436 126.069 117.436L128.061 118.543H128.283C128.504 118.543 128.726 118.543 128.726 118.322C128.947 118.1 128.726 117.657 128.504 117.657L127.176 116.993C126.733 116.772 126.512 116.551 126.512 116.551H126.291ZM120.314 113.452C120.092 113.452 119.871 113.452 119.871 113.673C119.65 113.894 119.871 114.337 120.092 114.337L122.085 115.444H122.306C122.527 115.444 122.749 115.444 122.749 115.222C122.97 115.001 122.749 114.558 122.527 114.558C122.527 114.558 122.527 114.558 122.306 114.337L120.535 113.452H120.314ZM114.337 110.574C114.116 110.574 113.894 110.574 113.894 110.795C113.673 111.017 113.894 111.459 114.116 111.459L116.108 112.566H116.329C116.551 112.566 116.772 112.566 116.772 112.345C116.993 112.123 116.772 111.681 116.551 111.681C116.551 111.681 115.665 111.238 115.001 111.017L114.558 110.795C114.558 110.574 114.558 110.574 114.337 110.574ZM108.582 107.475C108.36 107.475 108.139 107.475 108.139 107.696C107.918 107.918 108.139 108.36 108.36 108.36L110.353 109.467H110.574C110.795 109.467 111.017 109.467 111.017 109.246C111.238 109.024 111.017 108.582 110.795 108.582L110.353 108.36C109.688 108.139 108.803 107.696 108.803 107.696C108.582 107.475 108.582 107.475 108.582 107.475ZM102.605 104.376C102.384 104.376 102.162 104.376 102.162 104.597C101.941 104.818 102.162 105.261 102.384 105.261L104.376 106.368H104.597C104.818 106.368 105.04 106.368 105.04 106.147C105.261 105.925 105.04 105.483 104.818 105.483L102.826 104.376C102.826 104.597 102.605 104.376 102.605 104.376ZM96.6281 101.498C96.4068 101.498 96.1854 101.498 96.1854 101.719C95.964 101.941 96.1854 102.383 96.4067 102.383L98.399 103.49H98.6204C98.8417 103.49 99.0631 103.49 99.0631 103.269C99.2844 103.048 99.0631 102.605 98.8417 102.605L96.8495 101.498C96.8495 101.498 96.8495 101.498 96.6281 101.498ZM90.6514 98.399C90.43 98.399 90.2086 98.399 90.2086 98.6203C89.9873 98.8417 90.2086 99.2844 90.43 99.2844L92.4222 100.391H92.6436C92.865 100.391 93.0863 100.391 93.0863 100.17C93.3077 99.9485 93.0863 99.5058 92.865 99.5058L90.8727 98.399C90.8727 98.399 90.8727 98.399 90.6514 98.399ZM84.8959 95.5213C84.6746 95.5213 84.4532 95.5213 84.4532 95.7426C84.2319 95.964 84.4532 96.4067 84.6746 96.4067L86.6668 97.5135H86.8882C87.1096 97.5135 87.3309 97.5135 87.3309 97.2922C87.5523 97.0708 87.3309 96.6281 87.1096 96.6281L85.1173 95.5213C84.896 95.5213 84.8959 95.5213 84.8959 95.5213ZM78.9192 92.4222C78.6978 92.4222 78.4765 92.4222 78.4765 92.6436C78.2551 92.8649 78.4765 93.3077 78.6978 93.3077L80.6901 94.4145H80.9114C81.1328 94.4145 81.3542 94.4145 81.3542 94.1931C81.5755 93.9718 81.3542 93.529 81.1328 93.529L80.2474 93.0863C79.8046 92.8649 79.1405 92.6436 79.1405 92.6436C79.1405 92.4222 78.9192 92.4222 78.9192 92.4222ZM72.9424 89.3232C72.7211 89.3232 72.4997 89.3232 72.4997 89.5445C72.2783 89.7659 72.4997 90.2086 72.7211 90.2086L74.7133 91.3154H74.9347C75.156 91.3154 75.3774 91.3154 75.3774 91.0941C75.5988 90.8727 75.3774 90.43 75.156 90.43L73.1638 89.3232C73.1638 89.3232 73.1638 89.3232 72.9424 89.3232Z" fill="#979797"/>
<path d="M89.1019 139.351L76.927 132.71V37.3031L89.1019 42.8371V139.351Z" fill="white" stroke="#323232" stroke-width="0.7" stroke-miterlimit="10" stroke-linecap="round" stroke-linejoin="round"/>
<path d="M100.834 132.931L89.1017 139.351V42.8371L100.834 36.8501V132.931Z" fill="white" stroke="#323232" stroke-width="0.7" stroke-miterlimit="10" stroke-linecap="round" stroke-linejoin="round"/>
<path d="M66.7444 126.733L54.5695 120.092V5.20569L66.7444 10.7397V126.733Z" fill="#B62C2C" stroke="#323232" stroke-width="0.7" stroke-miterlimit="10" stroke-linecap="round" stroke-linejoin="round"/>
<path d="M76.9269 121.42L66.7443 126.733V10.7397L76.9269 6.3125V121.42Z" fill="#B62C2C" stroke="#323232" stroke-width="0.7" stroke-miterlimit="10" stroke-linecap="round" stroke-linejoin="round"/>
<path d="M76.9269 6.31268L64.7521 1L54.5694 5.20587L66.7443 10.7399L76.9269 6.31268Z" fill="#B62C2C" stroke="#323232" stroke-width="0.7" stroke-miterlimit="10" stroke-linecap="round" stroke-linejoin="round"/>
<path d="M100.834 36.8606L90.2087 31.3265L76.927 37.3033L89.1019 42.8373L100.834 36.8606Z" fill="white" stroke="#323232" stroke-width="0.7" stroke-miterlimit="10" stroke-linecap="round" stroke-linejoin="round"/>
<path d="M113.009 154.403L100.834 147.541V66.5227L113.009 72.0567V154.403Z" fill="#B62C2C" stroke="#323232" stroke-width="0.7" stroke-miterlimit="10" stroke-linecap="round" stroke-linejoin="round"/>
<path d="M124.741 147.763L113.009 154.403V72.0569L124.741 66.3015V147.763Z" fill="#B62C2C" stroke="#323232" stroke-width="0.7" stroke-miterlimit="10" stroke-linecap="round" stroke-linejoin="round"/>
<path d="M124.741 66.3014L113.009 60.546L100.834 66.5228L112.788 72.2782L124.741 66.3014Z" fill="#B62C2C" stroke="#323232" stroke-width="0.7" stroke-miterlimit="10" stroke-linecap="round" stroke-linejoin="round"/>
<path d="M136.916 170.784L124.741 164.143V101.055L136.916 106.589V170.784Z" fill="white" stroke="#323232" stroke-width="0.7" stroke-miterlimit="10" stroke-linecap="round" stroke-linejoin="round"/>
<path d="M148.427 164.365L136.916 170.784V106.589L148.427 100.834V164.365Z" fill="white" stroke="#323232" stroke-width="0.7" stroke-miterlimit="10" stroke-linecap="round" stroke-linejoin="round"/>
<path d="M148.427 100.834L136.695 95.0785L124.741 101.055L136.473 106.811L148.427 100.834Z" fill="white" stroke="#323232" stroke-width="0.7" stroke-miterlimit="10" stroke-linecap="round" stroke-linejoin="round"/>
</svg>
