<svg width="205" height="36" viewBox="0 0 205 36" fill="none" xmlns="http://www.w3.org/2000/svg">
<path fill-rule="evenodd" clip-rule="evenodd" d="M1.31587 12.2472C-0.000129212 12.2472 -0.164632 11.6161 0.116513 10.6472C1.71665 6.20441 7.30965 0.00244141 14.0541 0.00244141H37.8648C39.7969 0.00244141 40.6433 0.189534 40.2934 2.32853L37.476 19.164C35.4452 27.3877 24.3907 31.6909 21.6929 31.6574C20.9333 31.6462 20.3949 31.0737 20.5205 30.3617L23.4815 12.25H1.31587V12.2472Z" fill="white"/>
<path d="M146.422 5.53741C146.476 5.38941 146.503 5.23025 146.503 5.05991C146.503 5.02919 146.497 5.00406 146.485 4.98451C146.47 4.96217 146.449 4.94542 146.419 4.93425C146.389 4.92029 146.347 4.91191 146.299 4.90633C146.249 4.90074 146.186 4.89795 146.111 4.89795C146.036 4.89795 145.979 4.90074 145.935 4.90912C145.893 4.91749 145.86 4.92867 145.836 4.94263C145.812 4.95938 145.794 4.97614 145.788 4.99848C145.779 5.02082 145.776 5.04595 145.776 5.07666C145.776 5.17161 145.758 5.26375 145.728 5.34473C145.695 5.42851 145.647 5.50111 145.585 5.55975C145.522 5.61839 145.444 5.66586 145.351 5.69937C145.262 5.73009 145.157 5.74684 145.037 5.74684C144.918 5.74684 144.81 5.73009 144.717 5.69937C144.628 5.66586 144.547 5.61839 144.481 5.55975C144.415 5.50111 144.367 5.4313 144.334 5.35032C144.304 5.27213 144.287 5.18277 144.287 5.08783C144.287 5.05432 144.284 5.0264 144.275 5.00406C144.269 4.97893 144.251 4.96217 144.227 4.94542C144.203 4.93146 144.17 4.92029 144.125 4.91191C144.08 4.90633 144.02 4.90074 143.943 4.90074C143.874 4.90074 143.814 4.90353 143.763 4.90912C143.712 4.91749 143.676 4.92587 143.644 4.93704C143.614 4.95101 143.593 4.96497 143.581 4.9873C143.569 5.00685 143.566 5.03198 143.566 5.0627C143.566 5.25259 143.596 5.42292 143.658 5.57651C143.721 5.7273 143.814 5.85575 143.937 5.96186C144.059 6.06797 144.212 6.14895 144.394 6.2048C144.577 6.26065 144.792 6.29137 145.034 6.29137C145.3 6.29137 145.525 6.26065 145.71 6.19642C145.896 6.12941 146.045 6.04284 146.165 5.93115C146.281 5.81666 146.368 5.6882 146.422 5.53741Z" fill="white"/>
<path d="M146.904 11.0441C146.919 11.0273 146.925 11.005 146.925 10.9854V6.95876C146.925 6.93642 146.919 6.91687 146.907 6.89733C146.895 6.87778 146.877 6.86382 146.85 6.85265C146.823 6.83868 146.784 6.8331 146.739 6.82752C146.694 6.82193 146.637 6.81914 146.569 6.81914C146.503 6.81914 146.449 6.82472 146.407 6.82752C146.365 6.8331 146.329 6.83869 146.299 6.84985C146.27 6.86102 146.243 6.87219 146.222 6.89174C146.201 6.90849 146.183 6.92804 146.162 6.95317L144.31 9.31556C144.227 9.41888 144.143 9.52499 144.068 9.6339C143.993 9.74559 143.919 9.8545 143.847 9.96899L143.847 9.96644C143.856 9.8528 143.865 9.73916 143.871 9.62552C143.877 9.51103 143.88 9.39654 143.88 9.27926V6.95038C143.88 6.9057 143.853 6.87219 143.793 6.84985C143.736 6.82752 143.632 6.81634 143.479 6.81634C143.404 6.81634 143.344 6.82193 143.291 6.82472C143.24 6.8303 143.201 6.83589 143.171 6.84985C143.138 6.86382 143.117 6.87498 143.108 6.89453C143.096 6.91408 143.09 6.93363 143.09 6.95317V10.9826C143.09 11.0022 143.096 11.0245 143.108 11.0413C143.117 11.0608 143.138 11.0748 143.165 11.086C143.192 11.0971 143.228 11.1055 143.273 11.1111C143.317 11.1167 143.374 11.1195 143.446 11.1195C143.506 11.1195 143.557 11.1167 143.599 11.1111C143.638 11.1083 143.673 11.0999 143.7 11.0915C143.727 11.0804 143.751 11.0636 143.769 11.0469C143.787 11.0301 143.805 11.0078 143.826 10.9854L145.656 8.65376C145.743 8.54206 145.833 8.42757 145.92 8.31308C146.009 8.19859 146.087 8.08131 146.162 7.96124C146.153 8.07573 146.144 8.1958 146.138 8.31588C146.132 8.43595 146.129 8.55602 146.129 8.67051V10.9854C146.129 11.005 146.138 11.0273 146.147 11.0441C146.162 11.0636 146.183 11.0776 146.216 11.0888C146.249 11.0999 146.287 11.1083 146.341 11.1139C146.392 11.1195 146.455 11.1223 146.533 11.1223C146.608 11.1223 146.67 11.1195 146.724 11.1139C146.772 11.1055 146.814 11.0971 146.844 11.0888C146.871 11.0776 146.892 11.0608 146.904 11.0441Z" fill="white"/>
<path d="M141.699 11.0441C141.714 11.0273 141.72 11.005 141.72 10.9854V6.95876C141.72 6.93642 141.714 6.91687 141.705 6.89733C141.693 6.87778 141.672 6.86382 141.646 6.85265C141.619 6.83868 141.583 6.8331 141.535 6.82752C141.49 6.82193 141.433 6.81914 141.367 6.81914C141.299 6.81914 141.245 6.82472 141.203 6.82752C141.161 6.8331 141.125 6.83869 141.095 6.84985C141.065 6.86102 141.038 6.87219 141.02 6.89174C141 6.90849 140.979 6.92804 140.961 6.95317L139.106 9.31556C139.023 9.41888 138.942 9.52499 138.864 9.6339C138.789 9.74559 138.717 9.8545 138.643 9.96899C138.655 9.85477 138.661 9.74054 138.667 9.62631L138.667 9.62552C138.676 9.51103 138.679 9.39654 138.679 9.27926V6.95038C138.679 6.9057 138.649 6.87219 138.592 6.84985C138.535 6.82752 138.427 6.81634 138.275 6.81634C138.203 6.81634 138.14 6.82193 138.086 6.82472C138.039 6.8303 137.997 6.83589 137.967 6.84985C137.937 6.86382 137.916 6.87498 137.904 6.89453C137.895 6.91408 137.886 6.93363 137.886 6.95317V10.9826C137.886 11.0022 137.895 11.0245 137.904 11.0413C137.916 11.0608 137.934 11.0748 137.961 11.086C137.988 11.0971 138.024 11.1055 138.068 11.1111C138.113 11.1167 138.17 11.1195 138.242 11.1195C138.302 11.1195 138.353 11.1167 138.394 11.1111C138.436 11.1083 138.469 11.0999 138.499 11.0915C138.523 11.0804 138.547 11.0636 138.565 11.0469C138.583 11.0301 138.601 11.0078 138.622 10.9854L140.452 8.65376C140.542 8.54206 140.629 8.42757 140.718 8.31308C140.805 8.19859 140.886 8.08131 140.961 7.96124C140.949 8.07573 140.94 8.1958 140.937 8.31588C140.928 8.43595 140.928 8.55602 140.928 8.67051V10.9854C140.928 11.005 140.934 11.0273 140.946 11.0441C140.958 11.0636 140.982 11.0776 141.011 11.0888C141.044 11.0999 141.086 11.1083 141.137 11.1139C141.188 11.1195 141.251 11.1223 141.329 11.1223C141.406 11.1223 141.469 11.1195 141.52 11.1139C141.571 11.1055 141.613 11.0971 141.64 11.0888C141.666 11.0776 141.687 11.0608 141.699 11.0441Z" fill="white"/>
<path d="M136.498 11.0385C136.51 11.0245 136.516 11.0022 136.516 10.9798V6.95876C136.516 6.93363 136.51 6.91408 136.498 6.89733C136.486 6.88057 136.465 6.86661 136.435 6.85265C136.406 6.83868 136.367 6.8331 136.316 6.82752C136.265 6.82193 136.199 6.81914 136.124 6.81914C136.047 6.81914 135.981 6.82472 135.927 6.82752C135.879 6.83031 135.837 6.83868 135.807 6.85265C135.78 6.8694 135.759 6.88336 135.747 6.89733C135.733 6.91408 135.727 6.93363 135.727 6.95876V8.59512H133.531V6.95876C133.531 6.93363 133.525 6.91408 133.51 6.89733C133.498 6.88057 133.477 6.86661 133.45 6.85265C133.421 6.83868 133.382 6.8331 133.331 6.82752C133.277 6.82193 133.211 6.81914 133.133 6.81914C133.059 6.81914 132.993 6.82472 132.942 6.82752C132.891 6.83031 132.849 6.83868 132.822 6.85265C132.789 6.8694 132.769 6.88336 132.76 6.89733C132.748 6.91408 132.742 6.93363 132.742 6.95876V10.9798C132.742 11.0022 132.748 11.0245 132.76 11.0385C132.769 11.0552 132.789 11.0692 132.822 11.0804C132.849 11.0943 132.891 11.1027 132.942 11.1083C132.993 11.1139 133.059 11.1167 133.133 11.1167C133.211 11.1167 133.277 11.1139 133.331 11.1083C133.382 11.0999 133.421 11.0915 133.45 11.0804C133.477 11.0692 133.498 11.0552 133.51 11.0385C133.525 11.0245 133.531 11.0022 133.531 10.9798V9.21503H135.727V10.9798C135.727 11.0022 135.733 11.0245 135.747 11.0385C135.759 11.0552 135.78 11.0692 135.807 11.0804C135.837 11.0943 135.879 11.1027 135.927 11.1083C135.981 11.1139 136.047 11.1167 136.124 11.1167C136.199 11.1167 136.265 11.1139 136.316 11.1083C136.367 11.0999 136.406 11.0915 136.435 11.0804C136.465 11.0692 136.486 11.0552 136.498 11.0385Z" fill="white"/>
<path d="M126.751 11.0385C126.766 11.0245 126.772 11.0022 126.772 10.9798V7.10676C126.772 7.0174 126.751 6.95317 126.709 6.90849C126.667 6.86661 126.607 6.84427 126.533 6.84427H123.38C123.302 6.84427 123.243 6.86661 123.198 6.90849C123.156 6.95038 123.132 7.0174 123.132 7.10676V10.9798C123.132 11.0022 123.141 11.0245 123.153 11.0385C123.162 11.0552 123.183 11.0692 123.216 11.0804C123.242 11.0943 123.284 11.1027 123.335 11.1083C123.386 11.1139 123.449 11.1167 123.527 11.1167C123.601 11.1167 123.667 11.1139 123.718 11.1083C123.769 11.0999 123.811 11.0915 123.841 11.0804C123.871 11.0692 123.892 11.0552 123.903 11.0385C123.918 11.0245 123.924 11.0022 123.924 10.9798V7.46698H125.976V10.9798C125.976 11.0022 125.982 11.0245 125.994 11.0385C126.009 11.0552 126.03 11.0692 126.06 11.0804C126.09 11.0943 126.132 11.1027 126.183 11.1083C126.233 11.1139 126.299 11.1167 126.38 11.1167C126.455 11.1167 126.521 11.1139 126.568 11.1083C126.622 11.0999 126.658 11.0915 126.691 11.0804C126.718 11.0692 126.739 11.0552 126.751 11.0385Z" fill="white"/>
<path d="M121.968 11.0776C122.016 11.0525 122.037 11.0022 122.034 10.938L121.556 7.12072C121.547 7.02298 121.514 6.95317 121.454 6.90849C121.394 6.86381 121.307 6.84147 121.194 6.84147H120.82C120.73 6.84147 120.655 6.84985 120.593 6.86661C120.53 6.88336 120.476 6.90849 120.431 6.942C120.389 6.97551 120.35 7.02019 120.32 7.07604C120.29 7.1291 120.261 7.19332 120.237 7.26872L119.6 8.9693C119.567 9.06704 119.528 9.16477 119.492 9.27089C119.456 9.37421 119.42 9.47752 119.384 9.58364C119.351 9.68975 119.315 9.79586 119.286 9.89639C119.256 9.99971 119.229 10.0974 119.199 10.1896H119.187C119.163 10.1002 119.133 10.0053 119.106 9.90756C119.073 9.80703 119.043 9.7065 119.007 9.60598C118.974 9.50266 118.942 9.39934 118.9 9.29323C118.864 9.18711 118.828 9.08379 118.792 8.97768L118.155 7.26592C118.125 7.18215 118.095 7.11234 118.065 7.05929C118.032 7.00344 117.993 6.95876 117.949 6.92525C117.901 6.89174 117.844 6.8694 117.778 6.85544C117.712 6.84147 117.635 6.83589 117.542 6.83589H117.165C117.054 6.83589 116.968 6.86102 116.914 6.90849C116.857 6.95876 116.821 7.03136 116.806 7.1263L116.33 10.9324C116.325 10.9659 116.325 10.9938 116.33 11.0162C116.336 11.0385 116.351 11.0552 116.378 11.072C116.402 11.086 116.435 11.0971 116.48 11.1027C116.528 11.1083 116.591 11.1111 116.671 11.1111C116.755 11.1111 116.821 11.1083 116.872 11.1027C116.923 11.0999 116.965 11.0915 116.997 11.0832C117.03 11.072 117.051 11.0552 117.06 11.0329C117.072 11.0106 117.078 10.9826 117.084 10.9463L117.38 8.6398C117.386 8.55602 117.395 8.46667 117.407 8.37172C117.416 8.27678 117.428 8.17905 117.44 8.08131C117.449 7.98358 117.461 7.88584 117.47 7.78811C117.479 7.68758 117.488 7.59543 117.5 7.50886L117.503 7.40554C117.524 7.48584 117.548 7.56613 117.575 7.65453L117.584 7.68479C117.617 7.78252 117.649 7.88026 117.682 7.98078C117.715 8.08131 117.748 8.17905 117.784 8.27399C117.817 8.36893 117.85 8.45829 117.88 8.54206L118.753 10.9268C118.765 10.9659 118.78 10.9938 118.801 11.0189C118.819 11.0441 118.846 11.0608 118.873 11.0748C118.906 11.0888 118.942 11.0999 118.986 11.1055C119.031 11.1111 119.088 11.1139 119.154 11.1139C119.223 11.1139 119.28 11.1111 119.324 11.1055C119.369 11.0999 119.408 11.0888 119.438 11.0748C119.471 11.058 119.492 11.0413 119.513 11.0162C119.528 10.991 119.543 10.9603 119.558 10.9268L120.461 8.54485C120.491 8.4555 120.521 8.36614 120.554 8.26561C120.587 8.16788 120.625 8.06735 120.658 7.96962C120.697 7.87188 120.73 7.77414 120.763 7.6792C120.796 7.58426 120.826 7.49211 120.853 7.40554L120.859 7.50886C120.868 7.59822 120.877 7.69037 120.886 7.78811C120.895 7.88584 120.901 7.98358 120.913 8.08131C120.922 8.17905 120.931 8.27678 120.939 8.37172C120.948 8.46667 120.957 8.55882 120.969 8.6398L121.277 10.9882C121.28 11.0134 121.289 11.0357 121.301 11.0524C121.313 11.072 121.334 11.0832 121.361 11.0915C121.391 11.1027 121.43 11.1083 121.481 11.1111C121.532 11.1167 121.597 11.1167 121.675 11.1167C121.822 11.1167 121.921 11.1055 121.968 11.0776Z" fill="white"/>
<path d="M110.708 11.058C110.72 11.0441 110.726 11.0301 110.726 11.0106C110.726 11.0022 110.726 10.991 110.723 10.9743C110.72 10.9631 110.72 10.9519 110.717 10.9352C110.711 10.9184 110.708 10.9017 110.702 10.8849C110.696 10.8654 110.684 10.8458 110.672 10.8263L110.196 9.80703C110.136 9.67299 110.071 9.55571 110.002 9.45239C109.933 9.34907 109.858 9.26251 109.774 9.18711C109.694 9.11172 109.607 9.05028 109.511 9.00002C109.419 8.95255 109.314 8.90508 109.203 8.87157V8.8604C109.278 8.83806 109.353 8.81014 109.433 8.77383C109.511 8.73753 109.589 8.68447 109.667 8.61746C109.745 8.55044 109.819 8.46667 109.894 8.36614C109.969 8.26561 110.041 8.13995 110.103 7.99196L110.513 7.10676C110.531 7.06766 110.543 7.03415 110.552 7.00343C110.558 6.97272 110.561 6.9448 110.561 6.91967C110.561 6.9057 110.558 6.89174 110.546 6.87778C110.537 6.86381 110.519 6.85265 110.492 6.84427C110.465 6.83589 110.429 6.8303 110.379 6.82472C110.328 6.81913 110.265 6.81634 110.19 6.81634C110.103 6.81634 110.032 6.82193 109.981 6.82472C109.927 6.8303 109.885 6.83589 109.852 6.84985C109.822 6.86382 109.798 6.87498 109.78 6.89453C109.765 6.91128 109.756 6.93083 109.747 6.95596L109.347 7.88026C109.293 8.0115 109.233 8.1232 109.167 8.21535C109.101 8.3075 109.03 8.38289 108.946 8.44154C108.862 8.50018 108.769 8.54206 108.668 8.56719C108.569 8.59233 108.458 8.60629 108.339 8.60629H108.004V6.92246C108.004 6.90849 107.995 6.89453 107.977 6.88057C107.962 6.86661 107.938 6.85544 107.905 6.84706C107.875 6.83868 107.833 6.8331 107.782 6.82752C107.732 6.82193 107.672 6.81914 107.603 6.81914C107.537 6.81914 107.477 6.82472 107.427 6.82752C107.376 6.8331 107.334 6.83868 107.304 6.84706C107.271 6.85544 107.247 6.86661 107.232 6.88057C107.22 6.89453 107.211 6.9057 107.211 6.92246V11.005C107.211 11.0189 107.22 11.0357 107.232 11.0497C107.247 11.0608 107.271 11.0748 107.304 11.0832C107.334 11.0915 107.376 11.0999 107.427 11.1055C107.477 11.1111 107.537 11.1139 107.603 11.1139C107.672 11.1139 107.732 11.1111 107.782 11.1055C107.833 11.0999 107.875 11.0915 107.905 11.0832C107.938 11.0748 107.962 11.0636 107.977 11.0497C107.995 11.0357 108.004 11.0217 108.004 11.005V9.19549H108.339C108.476 9.19549 108.602 9.20945 108.71 9.23458C108.82 9.26251 108.916 9.30439 109.003 9.36583C109.089 9.42447 109.164 9.50266 109.23 9.60039C109.296 9.69533 109.356 9.81262 109.413 9.94665L109.873 10.9882C109.879 11.0106 109.891 11.0273 109.906 11.0441C109.921 11.0608 109.948 11.0748 109.984 11.086C110.017 11.0971 110.065 11.1055 110.118 11.1111C110.175 11.1167 110.247 11.1195 110.337 11.1195C110.411 11.1195 110.477 11.1167 110.525 11.1111C110.576 11.1055 110.615 11.0999 110.645 11.0915C110.678 11.0832 110.699 11.072 110.708 11.058Z" fill="white"/>
<path d="M99.0072 11.0385C99.0191 11.0245 99.0281 11.0022 99.0281 10.9798V7.10676C99.0281 7.0174 99.0072 6.95317 98.9653 6.90849C98.9234 6.86661 98.8636 6.84427 98.7858 6.84427H95.6334C95.5586 6.84427 95.4958 6.86661 95.454 6.90849C95.4091 6.95038 95.3882 7.0174 95.3882 7.10676V10.9798C95.3882 11.0022 95.3971 11.0245 95.4091 11.0385C95.4181 11.0552 95.439 11.0664 95.4689 11.0804C95.4988 11.0943 95.5407 11.1027 95.5915 11.1083C95.6424 11.1139 95.7082 11.1167 95.7829 11.1167C95.8577 11.1167 95.9205 11.1139 95.9744 11.1083C96.0252 11.0999 96.0641 11.0915 96.094 11.0804C96.1269 11.0692 96.1478 11.0552 96.1598 11.0385C96.1748 11.0245 96.1807 11.0022 96.1807 10.9798V7.46698H98.2325V10.9798C98.2325 11.0022 98.2385 11.0245 98.2504 11.0385C98.2654 11.0552 98.2863 11.0664 98.3162 11.0804C98.3461 11.0943 98.388 11.1027 98.4389 11.1083C98.4897 11.1139 98.5555 11.1167 98.6363 11.1167C98.7111 11.1167 98.7769 11.1139 98.8277 11.1083C98.8756 11.0999 98.9174 11.0915 98.9443 11.0804C98.9742 11.0692 98.9952 11.0552 99.0072 11.0385Z" fill="white"/>
<path d="M94.0004 11.0385C94.0123 11.0245 94.0213 11.0022 94.0213 10.9798V7.10676C94.0213 7.0174 94.0004 6.95317 93.9585 6.90849C93.9166 6.86661 93.8568 6.84427 93.782 6.84427H90.6266C90.5518 6.84427 90.492 6.86661 90.4472 6.90849C90.4053 6.95038 90.3813 7.0174 90.3813 7.10676V10.9798C90.3813 11.0022 90.3873 11.0245 90.3993 11.0385C90.4113 11.0552 90.4322 11.0692 90.4621 11.0804C90.492 11.0943 90.5309 11.1027 90.5847 11.1083C90.6356 11.1139 90.6984 11.1167 90.7732 11.1167C90.8509 11.1167 90.9138 11.1139 90.9676 11.1083C91.0184 11.0999 91.0573 11.0915 91.0902 11.0804C91.1201 11.0692 91.1411 11.0552 91.153 11.0385C91.168 11.0245 91.1739 11.0022 91.1739 10.9798V7.46698H93.2227V10.9798C93.2227 11.0022 93.2317 11.0245 93.2437 11.0385C93.2586 11.0552 93.2795 11.0692 93.3095 11.0804C93.3394 11.0943 93.3783 11.1027 93.4291 11.1083C93.4829 11.1139 93.5487 11.1167 93.6265 11.1167C93.7043 11.1167 93.7701 11.1139 93.8179 11.1083C93.8688 11.0999 93.9076 11.0915 93.9375 11.0804C93.9674 11.0692 93.9884 11.0552 94.0004 11.0385Z" fill="white"/>
<path d="M87.4293 12.5715L88.0006 11.0915L89.5499 7.08721C89.5649 7.03415 89.5768 6.98947 89.5768 6.95317C89.5768 6.91687 89.5648 6.88895 89.5349 6.86661C89.508 6.84706 89.4661 6.8303 89.4093 6.82472C89.3525 6.81913 89.2777 6.81355 89.188 6.81355C89.0863 6.81355 89.0115 6.81634 88.9547 6.82472C88.9009 6.8303 88.859 6.84427 88.8351 6.86102C88.8052 6.87778 88.7812 6.91408 88.7633 6.96993L87.5789 10.2147H87.5639L86.3317 6.98668C86.3167 6.95038 86.3018 6.91966 86.2868 6.89733C86.2718 6.87499 86.2509 6.85823 86.218 6.84706C86.1851 6.8331 86.1432 6.82751 86.0894 6.82193C86.0326 6.81634 85.9578 6.81355 85.8651 6.81355C85.7664 6.81355 85.6916 6.81634 85.6348 6.82472C85.5779 6.8331 85.5361 6.84706 85.5092 6.86661C85.4823 6.88895 85.4703 6.91966 85.4703 6.95317C85.4703 6.98668 85.4823 7.03974 85.5092 7.10117L87.0465 10.9435C87.0555 10.9743 87.0734 11.0022 87.0973 11.0301C87.1242 11.058 87.1512 11.0776 87.1811 11.0888L86.5859 12.4878C86.5679 12.5296 86.559 12.5659 86.562 12.5939C86.565 12.6246 86.5799 12.6469 86.6068 12.6665C86.6337 12.686 86.6726 12.6972 86.7235 12.7056C86.7743 12.7139 86.8431 12.7167 86.9239 12.7167C87.0854 12.7167 87.205 12.7056 87.2828 12.6804C87.3605 12.6553 87.4084 12.619 87.4293 12.5715Z" fill="white"/>
<path d="M81.0318 5.79152C81.0378 5.75243 81.0407 5.70217 81.0407 5.64632C81.0407 5.52903 81.0288 5.44527 81.0019 5.39221C80.9749 5.33915 80.9331 5.31123 80.8793 5.31123H78.0229C77.9362 5.31123 77.8644 5.33915 77.8046 5.38941C77.7448 5.43968 77.7148 5.52066 77.7148 5.62398V10.9798C77.7148 11.0022 77.7238 11.0245 77.7358 11.0385C77.7478 11.0552 77.7687 11.0692 77.8016 11.0804C77.8345 11.0943 77.8763 11.1027 77.9332 11.1083C77.987 11.1139 78.0498 11.1167 78.1276 11.1167C78.2083 11.1167 78.2742 11.1139 78.325 11.1083C78.3788 11.0999 78.4207 11.0915 78.4536 11.0804C78.4865 11.0692 78.5075 11.0552 78.5194 11.0385C78.5314 11.0245 78.5403 11.0022 78.5403 10.9798V5.97303H80.8793C80.9032 5.97303 80.9271 5.96465 80.948 5.95349C80.969 5.93952 80.9869 5.91997 81.0019 5.89484C81.0168 5.86692 81.0258 5.83341 81.0318 5.79152Z" fill="white"/>
<path fill-rule="evenodd" clip-rule="evenodd" d="M85.0217 8.90507C85.0217 9.25692 84.9798 9.57247 84.899 9.85171C84.8183 10.131 84.6956 10.3711 84.5401 10.5666C84.3816 10.762 84.1842 10.91 83.9539 11.0189C83.7206 11.1251 83.4544 11.1781 83.1523 11.1781C83.0267 11.1781 82.9071 11.1669 82.7994 11.1418C82.6917 11.1195 82.5841 11.0804 82.4824 11.0301C82.3777 10.9798 82.276 10.9156 82.1743 10.8374C82.0696 10.7592 81.962 10.6699 81.8483 10.5638V12.5743C81.8483 12.5995 81.8423 12.619 81.8273 12.6385C81.8154 12.6553 81.7945 12.6693 81.7675 12.6832C81.7376 12.6972 81.6987 12.7056 81.6479 12.7111C81.5941 12.7139 81.5283 12.7167 81.4505 12.7167C81.3727 12.7167 81.3099 12.7139 81.2591 12.7111C81.2082 12.7056 81.1664 12.6944 81.1395 12.6832C81.1066 12.6721 81.0856 12.6553 81.0736 12.6385C81.0647 12.619 81.0587 12.5995 81.0587 12.5743V6.95876C81.0587 6.93084 81.0617 6.91128 81.0736 6.89453C81.0826 6.87778 81.1006 6.86382 81.1305 6.85265C81.1604 6.83868 81.1963 6.8331 81.2411 6.82752C81.2525 6.82681 81.2645 6.82592 81.277 6.82499C81.3139 6.82225 81.3558 6.81914 81.4027 6.81914C81.4685 6.81914 81.5253 6.82193 81.5671 6.82752C81.612 6.8331 81.6479 6.83868 81.6748 6.85265C81.7047 6.86382 81.7227 6.87778 81.7346 6.89453C81.7466 6.91128 81.7526 6.93084 81.7526 6.95876V7.50049C81.8812 7.37483 82.0068 7.26592 82.1324 7.17377C82.2521 7.08162 82.3717 7.00343 82.4973 6.942C82.6199 6.88057 82.7456 6.8331 82.8742 6.80238C83.0028 6.77166 83.1404 6.75491 83.2839 6.75491C83.595 6.75491 83.8612 6.81076 84.0825 6.92525C84.3038 7.03974 84.4803 7.19332 84.6209 7.38879C84.7585 7.58426 84.8601 7.81324 84.9229 8.07573C84.9887 8.33822 85.0217 8.61466 85.0217 8.90507ZM84.1393 8.39406C84.1722 8.58674 84.1872 8.785 84.1872 8.99164C84.1872 9.17874 84.1663 9.36583 84.1244 9.54733C84.0825 9.73163 84.0197 9.89918 83.933 10.0472C83.8432 10.198 83.7266 10.318 83.589 10.4074C83.4454 10.4968 83.275 10.5414 83.0776 10.5414C82.8652 10.5414 82.6588 10.4744 82.4644 10.3432C82.27 10.2119 82.0636 10.0248 81.8483 9.77631V8.17626C81.9709 8.03105 82.0876 7.90818 82.2012 7.80765C82.3119 7.70992 82.4196 7.62894 82.5213 7.56751C82.6229 7.50886 82.7246 7.46419 82.8233 7.43347C82.922 7.40555 83.0237 7.39158 83.1254 7.39158C83.3288 7.39158 83.4993 7.43626 83.6369 7.52562C83.7744 7.61498 83.8821 7.73505 83.9659 7.88305C84.0466 8.03105 84.1034 8.20139 84.1393 8.39406Z" fill="white"/>
<path fill-rule="evenodd" clip-rule="evenodd" d="M103.643 10.9854C103.643 11.0189 103.628 11.0469 103.601 11.0664C103.577 11.086 103.541 11.0971 103.5 11.1083C103.452 11.1167 103.389 11.1223 103.302 11.1223C103.218 11.1223 103.153 11.1167 103.105 11.1083C103.054 11.0971 103.018 11.086 102.994 11.0664C102.973 11.0497 102.961 11.0217 102.961 10.9854V10.5833C102.773 10.7704 102.563 10.9184 102.333 11.0217C102.103 11.1251 101.857 11.1781 101.597 11.1781C101.373 11.1781 101.167 11.1502 100.984 11.0943C100.799 11.0385 100.643 10.9603 100.515 10.8542C100.386 10.7481 100.284 10.6196 100.213 10.4688C100.141 10.3153 100.105 10.1449 100.105 9.94944C100.105 9.72046 100.156 9.52499 100.251 9.36024C100.353 9.1927 100.494 9.05587 100.679 8.94417C100.865 8.83248 101.092 8.75149 101.358 8.69564C101.627 8.63979 101.929 8.61187 102.264 8.61187H102.856V8.29912C102.856 8.14554 102.838 8.00591 102.806 7.88863C102.77 7.76856 102.713 7.67082 102.635 7.59264C102.554 7.51445 102.456 7.45302 102.33 7.41392C102.207 7.37204 102.055 7.35528 101.872 7.35528C101.675 7.35528 101.502 7.37762 101.349 7.41951C101.193 7.46419 101.056 7.51166 100.939 7.56192C100.823 7.61498 100.727 7.66245 100.649 7.70713C100.568 7.74901 100.512 7.77135 100.473 7.77135C100.449 7.77135 100.425 7.76577 100.407 7.7546C100.386 7.74343 100.371 7.72388 100.356 7.69875C100.344 7.67641 100.332 7.64569 100.323 7.6066C100.317 7.5703 100.314 7.52841 100.314 7.48373C100.314 7.40834 100.323 7.3497 100.332 7.30781C100.344 7.26593 100.371 7.22404 100.413 7.18494C100.458 7.14585 100.533 7.10117 100.637 7.04811C100.742 6.99785 100.861 6.94759 100.999 6.9057C101.137 6.86382 101.286 6.82751 101.451 6.79959C101.612 6.76887 101.777 6.7577 101.944 6.7577C102.252 6.7577 102.515 6.79121 102.731 6.85823C102.949 6.92246 103.126 7.02019 103.257 7.14585C103.392 7.27151 103.491 7.43068 103.55 7.61777C103.61 7.80486 103.643 8.02267 103.643 8.27399V10.9854ZM102.181 9.14802H102.856V10.0053C102.662 10.2063 102.477 10.3571 102.3 10.4549C102.121 10.5526 101.932 10.6029 101.723 10.6029C101.469 10.6029 101.268 10.5386 101.128 10.4158C100.984 10.2901 100.915 10.1254 100.915 9.91594C100.915 9.79307 100.939 9.68695 100.987 9.59201C101.038 9.49986 101.116 9.41888 101.22 9.35186C101.325 9.28485 101.46 9.23179 101.615 9.19828C101.777 9.16477 101.965 9.14802 102.181 9.14802Z" fill="white"/>
<path fill-rule="evenodd" clip-rule="evenodd" d="M115.529 8.92462C115.529 9.25413 115.484 9.55571 115.391 9.82937C115.299 10.1058 115.161 10.3432 114.979 10.5442C114.796 10.7453 114.566 10.8989 114.288 11.0106C114.013 11.1223 113.693 11.1781 113.331 11.1781C112.975 11.1781 112.667 11.1278 112.403 11.0301C112.14 10.9324 111.919 10.79 111.745 10.6001C111.572 10.413 111.44 10.184 111.354 9.91594C111.267 9.65065 111.225 9.34349 111.225 9.0056C111.225 8.6761 111.27 8.37452 111.36 8.10086C111.452 7.82441 111.587 7.58705 111.772 7.386C111.955 7.18774 112.185 7.03415 112.457 6.92246C112.732 6.81076 113.052 6.7577 113.42 6.7577C113.773 6.7577 114.081 6.80797 114.345 6.9057C114.608 7.00344 114.829 7.14585 115.006 7.33573C115.182 7.52283 115.311 7.7518 115.4 8.01988C115.487 8.28516 115.529 8.58674 115.529 8.92462ZM114.632 8.35497C114.677 8.55044 114.697 8.75708 114.697 8.97209C114.697 9.20666 114.674 9.41888 114.623 9.61156C114.572 9.80424 114.491 9.97178 114.38 10.1114C114.273 10.251 114.135 10.3599 113.965 10.4381C113.797 10.5135 113.597 10.5526 113.367 10.5526C113.115 10.5526 112.906 10.5107 112.735 10.4269C112.568 10.3404 112.43 10.2259 112.332 10.0807C112.23 9.93827 112.158 9.76794 112.116 9.57526C112.074 9.38258 112.054 9.17594 112.054 8.95534C112.054 8.72636 112.077 8.51693 112.131 8.32146C112.182 8.12878 112.263 7.96124 112.374 7.81882C112.481 7.67641 112.619 7.56471 112.786 7.48932C112.954 7.41113 113.154 7.37204 113.387 7.37204C113.639 7.37204 113.848 7.41671 114.019 7.50049C114.189 7.58426 114.321 7.69875 114.422 7.84675C114.518 7.99195 114.59 8.16229 114.632 8.35497Z" fill="white"/>
<path fill-rule="evenodd" clip-rule="evenodd" d="M131.387 10.9854C131.387 11.0189 131.372 11.0469 131.348 11.0664C131.321 11.086 131.285 11.0971 131.243 11.1083C131.195 11.1167 131.133 11.1223 131.046 11.1223C130.962 11.1223 130.896 11.1167 130.845 11.1083C130.798 11.0971 130.762 11.086 130.741 11.0664C130.717 11.0497 130.708 11.0217 130.708 10.9854V10.5833C130.516 10.7704 130.307 10.9184 130.077 11.0217C129.846 11.1251 129.601 11.1781 129.344 11.1781C129.114 11.1781 128.91 11.1502 128.728 11.0943C128.545 11.0385 128.387 10.9603 128.258 10.8542C128.13 10.7481 128.028 10.6196 127.956 10.4688C127.884 10.3153 127.851 10.1449 127.851 9.94944C127.851 9.72046 127.899 9.52499 127.998 9.36024C128.097 9.1927 128.24 9.05587 128.423 8.94417C128.608 8.83248 128.836 8.75149 129.102 8.69564C129.371 8.63979 129.673 8.61187 130.008 8.61187H130.6V8.29912C130.6 8.14554 130.582 8.00591 130.546 7.88863C130.51 7.76856 130.457 7.67082 130.379 7.59264C130.301 7.51445 130.199 7.45302 130.074 7.41392C129.951 7.37204 129.796 7.35528 129.616 7.35528C129.419 7.35528 129.245 7.37762 129.09 7.41951C128.934 7.46419 128.8 7.51166 128.683 7.56192C128.566 7.61498 128.471 7.66245 128.393 7.70713C128.315 7.74901 128.255 7.77135 128.216 7.77135C128.192 7.77135 128.172 7.76577 128.151 7.7546C128.13 7.74343 128.115 7.72388 128.1 7.69875C128.088 7.67641 128.076 7.64569 128.067 7.6066C128.061 7.5703 128.058 7.52841 128.058 7.48373C128.058 7.40834 128.064 7.3497 128.076 7.30781C128.088 7.26593 128.115 7.22404 128.16 7.18494C128.201 7.14585 128.273 7.10117 128.381 7.04811C128.486 6.99785 128.605 6.94759 128.743 6.9057C128.88 6.86382 129.03 6.82751 129.194 6.79959C129.356 6.76887 129.52 6.7577 129.688 6.7577C129.996 6.7577 130.259 6.79121 130.478 6.85823C130.693 6.92246 130.869 7.02019 131.001 7.14585C131.136 7.27151 131.234 7.43068 131.294 7.61777C131.354 7.80486 131.387 8.02267 131.387 8.27399V10.9854ZM129.927 9.14802H130.6V10.0053C130.406 10.2063 130.22 10.3571 130.044 10.4549C129.864 10.5526 129.673 10.6029 129.467 10.6029C129.212 10.6029 129.012 10.5386 128.871 10.4158C128.728 10.2901 128.659 10.1254 128.659 9.91594C128.659 9.79307 128.683 9.68695 128.731 9.59201C128.782 9.49986 128.859 9.41888 128.964 9.35186C129.069 9.28485 129.2 9.23179 129.362 9.19828C129.52 9.16477 129.709 9.14802 129.927 9.14802Z" fill="white"/>
<path d="M82.2759 31.1912V19.7562H84.875C86.8012 19.7562 88.4132 18.0752 88.8619 16.7181C88.9576 16.4193 88.9307 16.2573 88.494 16.2573H75.1246C73.1955 16.2573 71.5864 17.9384 71.1377 19.2955C71.042 19.5915 71.066 19.7562 71.5026 19.7562H77.8254V31.194C77.8254 31.5012 78.0049 31.6547 78.3668 31.6547H81.7106C81.9798 31.6547 82.1383 31.6212 82.1951 31.5542C82.249 31.4872 82.2759 31.3671 82.2759 31.1912Z" fill="white"/>
<path d="M116.342 31.5654C116.399 31.5067 116.426 31.3895 116.426 31.2135V27.1226H119.842V31.2135C119.842 31.5068 120.021 31.6547 120.383 31.6547H123.518C123.784 31.6547 123.945 31.624 123.999 31.5654C124.056 31.5067 124.083 31.3895 124.083 31.2135V20.5437C124.083 20.3678 124.056 20.2505 123.999 20.1919C123.945 20.1332 123.784 20.1025 123.518 20.1025H120.383C120.021 20.1025 119.842 20.2505 119.842 20.5437V24.0845H116.426V20.5437C116.426 20.3678 116.399 20.2505 116.342 20.1919C116.289 20.1332 116.127 20.1025 115.861 20.1025H112.726C112.364 20.1025 112.185 20.2505 112.185 20.5437V31.2135C112.185 31.5068 112.364 31.6547 112.726 31.6547H115.861C116.127 31.6547 116.289 31.624 116.342 31.5654Z" fill="white"/>
<path d="M102.785 31.0153L104.319 28.3094L105.826 31.0153C105.952 31.2219 106.081 31.3811 106.215 31.49C106.347 31.5989 106.562 31.6547 106.861 31.6547H110.232C110.465 31.6547 110.612 31.5989 110.669 31.49C110.722 31.3783 110.696 31.2498 110.585 31.1046L106.649 25.5617L110.232 20.5241C110.295 20.4348 110.31 20.3482 110.28 20.2589C110.247 20.1723 110.145 20.1276 109.972 20.1276H106.392C106.122 20.1276 105.925 20.1639 105.79 20.2282C105.656 20.2952 105.536 20.4292 105.426 20.6358L104.319 22.8363L103.185 20.6358C103.078 20.4292 102.955 20.2952 102.82 20.2282C102.689 20.1611 102.488 20.1276 102.219 20.1276H98.6392C98.4657 20.1276 98.364 20.1723 98.3341 20.2589C98.3012 20.3482 98.3162 20.4348 98.379 20.5241L101.938 25.5617L98.026 31.1046C97.9154 31.2498 97.8884 31.3811 97.9453 31.49C97.9991 31.5989 98.1427 31.6547 98.379 31.6547H101.75C102.046 31.6547 102.264 31.5989 102.396 31.49C102.53 31.3783 102.662 31.2191 102.785 31.0153Z" fill="white"/>
<path fill-rule="evenodd" clip-rule="evenodd" d="M91.772 19.7758C93.6563 19.7758 95.086 20.2002 96.061 21.0519C97.0331 21.9036 97.5206 23.1797 97.5206 24.8803C97.5206 25.6427 97.4039 26.176 97.1676 26.486C96.9314 26.7931 96.5156 26.9467 95.9174 26.9467H90.1929C90.2078 27.2846 90.2706 27.5611 90.3812 27.7733C90.4919 27.9855 90.6445 28.1503 90.8419 28.2675C91.0363 28.3848 91.2696 28.4602 91.5358 28.4993C91.802 28.5356 92.1011 28.5524 92.433 28.5524C92.8398 28.5524 93.2675 28.5133 93.7161 28.4323C94.1648 28.3513 94.6224 28.2368 95.0919 28.0916C95.3133 28.019 95.4628 27.9967 95.5406 28.0246C95.6213 28.0525 95.6901 28.1279 95.7529 28.2452L96.6263 30.2474C96.6891 30.3954 96.6981 30.5043 96.6472 30.5769C96.6024 30.6495 96.5156 30.7221 96.39 30.7975C96.1089 30.9734 95.7829 31.1326 95.412 31.2722C95.0441 31.4118 94.6583 31.5291 94.2575 31.624C93.8567 31.719 93.4559 31.7888 93.0551 31.8335C92.6544 31.8781 92.2895 31.9005 91.9605 31.9005C89.7472 31.9005 88.147 31.4146 87.166 30.4484C86.185 29.4794 85.6945 27.9688 85.6945 25.9163C85.6945 23.9672 86.2149 22.4565 87.2588 21.3842C88.3056 20.3091 89.807 19.7758 91.772 19.7758ZM90.8179 23.4143C91.1559 23.1574 91.5208 23.029 91.9126 23.029C92.463 23.029 92.8368 23.1797 93.0342 23.4813C93.2286 23.7829 93.3422 24.1683 93.3722 24.6374H90.2168C90.2796 24.0789 90.48 23.6712 90.8179 23.4143Z" fill="white"/>
<path fill-rule="evenodd" clip-rule="evenodd" d="M137.82 25.8242C137.82 27.7286 137.309 29.2198 136.289 30.2893C135.269 31.3588 133.69 31.8949 131.551 31.8949C130.439 31.8949 129.487 31.7525 128.701 31.4649C127.917 31.1772 127.277 30.7751 126.781 30.253C126.287 29.7336 125.925 29.0997 125.698 28.3513C125.471 27.6029 125.357 26.768 125.357 25.8437C125.357 24.9194 125.489 24.0845 125.758 23.3361C126.024 22.5877 126.416 21.9511 126.933 21.4233C127.454 20.8955 128.103 20.4878 128.877 20.203C129.655 19.9182 130.555 19.773 131.575 19.773C133.651 19.773 135.209 20.3119 136.253 21.3898C137.297 22.4677 137.82 23.9477 137.82 25.8242ZM131.575 23.163C132.754 23.163 133.343 24.0649 133.343 25.8688C133.343 26.7038 133.193 27.3516 132.897 27.818C132.598 28.2787 132.158 28.5105 131.575 28.5105C130.995 28.5105 130.555 28.3011 130.256 27.8822C129.96 27.4661 129.81 26.7736 129.81 25.8046C129.81 24.0426 130.397 23.163 131.575 23.163Z" fill="white"/>
<path fill-rule="evenodd" clip-rule="evenodd" d="M141.436 33.3637C141.358 33.8245 140.647 34.369 138.517 34.8186C138.242 34.8772 138.092 34.7125 138.092 34.4444L137.808 29.3845C137.778 28.8204 138.05 28.4965 138.658 28.4379L139.504 28.3513C139.74 28.1614 139.935 27.9324 140.081 27.67C140.231 27.4047 140.35 27.1338 140.437 26.8546C140.524 26.5753 140.587 26.3045 140.626 26.042C140.662 25.796 140.695 25.5836 140.724 25.4026L140.73 25.3606L141.319 21.225C141.484 20.2309 141.939 19.9042 143.039 19.9042H149.613C150.726 19.9042 151.145 20.3315 151.145 21.3563V28.329L152.039 28.4155C152.652 28.4742 152.894 28.8037 152.864 29.3622L152.514 33.2408C152.523 33.6206 151.782 34.57 149.637 34.8186C149.153 34.8732 149.148 34.7293 149.135 34.3577C149.134 34.3302 149.133 34.3013 149.132 34.2712L149.024 31.4537H141.672L141.436 33.3637ZM146.856 28.396H143.793C144.522 27.1341 144.681 25.6446 144.835 24.208C144.877 23.8166 144.919 23.4292 144.971 23.0513H146.856V28.396Z" fill="white"/>
<path fill-rule="evenodd" clip-rule="evenodd" d="M165.193 29.8257C165.193 30.0296 165.169 30.2111 165.121 30.3646C165.073 30.5182 164.903 30.669 164.604 30.817C164.242 30.979 163.844 31.1158 163.413 31.2359C162.983 31.3532 162.537 31.4481 162.082 31.5207C161.625 31.5933 161.167 31.6464 160.704 31.6743C160.24 31.7022 159.806 31.719 159.397 31.719C158.314 31.719 157.402 31.6268 156.663 31.4453C155.924 31.261 155.332 31.0069 154.883 30.6746C154.438 30.3451 154.118 29.9514 153.929 29.499C153.741 29.0438 153.648 28.5524 153.648 28.0246C153.648 26.7345 154.079 25.7572 154.943 25.087C155.807 24.4196 156.962 24.0845 158.407 24.0845H160.976V23.7773C160.976 23.674 160.958 23.5567 160.928 23.4255C160.895 23.2942 160.82 23.1686 160.704 23.0513C160.587 22.934 160.419 22.8391 160.21 22.7637C159.995 22.6911 159.72 22.6548 159.373 22.6548C159.154 22.6548 158.903 22.6659 158.619 22.6883C158.335 22.7106 158.036 22.7357 157.722 22.7637C157.408 22.7916 157.1 22.8307 156.791 22.8754C156.486 22.92 156.208 22.9703 155.957 23.029C155.736 23.0876 155.586 23.0876 155.508 23.029C155.431 22.9703 155.374 22.8614 155.344 22.6994L154.895 20.809C154.847 20.6023 154.847 20.4683 154.895 20.4013C154.943 20.3343 155.03 20.2812 155.155 20.2365C155.909 20.002 156.672 19.8288 157.44 19.7199C158.209 19.611 159.041 19.5552 159.938 19.5552C161.729 19.5552 163.051 19.8959 163.907 20.5772C164.765 21.2586 165.193 22.3029 165.193 23.7131V29.8257ZM159.561 26.4162H160.952V28.3764C160.763 28.4658 160.515 28.5244 160.21 28.5524C159.902 28.5831 159.696 28.597 159.585 28.597C159.13 28.597 158.762 28.5161 158.49 28.3541C158.212 28.1921 158.078 27.9352 158.078 27.5834C158.078 27.3321 158.122 27.131 158.218 26.9774C158.314 26.8239 158.43 26.7066 158.571 26.6256C158.712 26.5474 158.87 26.4916 159.041 26.4608C159.217 26.4301 159.388 26.4162 159.561 26.4162Z" fill="white"/>
<path fill-rule="evenodd" clip-rule="evenodd" d="M167.672 35.9858C167.346 36.05 167.131 35.8909 167.131 35.5893V21.4429C167.131 21.2669 167.167 21.1133 167.239 20.9821C167.307 20.8509 167.469 20.7252 167.72 20.6079C168.459 20.27 169.326 20.0327 170.322 19.8931C171.321 19.7534 172.275 19.6836 173.188 19.6836C174.411 19.6836 175.428 19.8428 176.238 20.1583C177.046 20.4739 177.686 20.8983 178.159 21.4345C178.628 21.9706 178.963 22.6045 179.16 23.3389C179.355 24.0705 179.454 24.8552 179.454 25.6929C179.454 26.5139 179.346 27.2874 179.137 28.0134C178.924 28.7395 178.589 29.3705 178.135 29.9067C177.68 30.44 177.097 30.8645 176.391 31.1717C175.682 31.4816 174.845 31.6352 173.87 31.6352C173.352 31.6352 172.921 31.6157 172.586 31.5794C172.248 31.5431 171.86 31.4872 171.42 31.4146L171.411 34.0786C171.441 34.302 170.487 35.4301 167.672 35.9858ZM174.399 23.5763C174.8 23.9142 175 24.5676 175 25.5338C175 26.4581 174.818 27.1366 174.447 27.5666C174.076 27.9995 173.564 28.2173 172.903 28.2173C172.763 28.2173 172.551 28.2061 172.266 28.1838C171.985 28.1614 171.701 28.114 171.42 28.0413V23.2244C171.638 23.1658 171.878 23.1267 172.138 23.1043C172.398 23.082 172.589 23.0708 172.715 23.0708C173.439 23.0708 173.998 23.2384 174.399 23.5763Z" fill="white"/>
<path fill-rule="evenodd" clip-rule="evenodd" d="M44.8733 0H64.6611C66.1954 0 66.2762 0.569656 65.9442 1.61123C64.377 6.36393 58.7361 12.2448 51.9916 12.2448H42.6959C41.7418 12.2448 41.1585 11.9516 41.3141 11.0105L42.8484 1.63357C43.0877 0.181509 43.7905 0 44.8733 0Z" fill="#B62C2C"/>
</svg>
