<svg width="447" height="84" viewBox="0 0 447 84" fill="none" xmlns="http://www.w3.org/2000/svg">
<path fill-rule="evenodd" clip-rule="evenodd" d="M2.86661 28.5775C-0.000281486 28.5775 -0.358649 27.105 0.253823 24.844C3.7397 14.4776 15.924 0.00634766 30.6168 0.00634766H82.4879C86.697 0.00634766 88.5409 0.442898 87.7786 5.43389L81.6409 44.7168C77.2168 63.9054 53.1349 73.946 47.2578 73.8678C45.6028 73.8418 44.43 72.5061 44.7036 70.8446L51.1541 28.584H2.86661V28.5775Z" fill="#0060AA"/>
<path d="M318.98 12.9203C319.098 12.575 319.156 12.2036 319.156 11.8061C319.156 11.7345 319.143 11.6758 319.117 11.6302C319.084 11.5781 319.039 11.539 318.974 11.5129C318.909 11.4804 318.817 11.4608 318.713 11.4478C318.602 11.4347 318.465 11.4282 318.303 11.4282C318.14 11.4282 318.016 11.4347 317.918 11.4543C317.827 11.4738 317.755 11.4999 317.703 11.5325C317.651 11.5716 317.612 11.6107 317.599 11.6628C317.579 11.7149 317.573 11.7736 317.573 11.8452C317.573 12.0668 317.534 12.2818 317.469 12.4707C317.397 12.6662 317.293 12.8356 317.156 12.9724C317.019 13.1093 316.85 13.22 316.648 13.2982C316.452 13.3699 316.224 13.409 315.963 13.409C315.703 13.409 315.468 13.3699 315.266 13.2982C315.071 13.22 314.895 13.1093 314.751 12.9724C314.608 12.8356 314.504 12.6727 314.432 12.4838C314.367 12.3013 314.328 12.0928 314.328 11.8713C314.328 11.7931 314.321 11.7279 314.302 11.6758C314.289 11.6172 314.25 11.5781 314.198 11.539C314.146 11.5064 314.074 11.4803 313.976 11.4608C313.878 11.4478 313.748 11.4347 313.579 11.4347C313.429 11.4347 313.299 11.4412 313.188 11.4543C313.077 11.4738 312.999 11.4934 312.927 11.5194C312.862 11.552 312.816 11.5846 312.79 11.6367C312.764 11.6823 312.758 11.741 312.758 11.8126C312.758 12.2557 312.823 12.6532 312.96 13.0115C313.097 13.3634 313.299 13.6631 313.566 13.9107C313.833 14.1583 314.165 14.3472 314.563 14.4775C314.96 14.6079 315.429 14.6795 315.957 14.6795C316.537 14.6795 317.026 14.6079 317.429 14.458C317.833 14.3016 318.159 14.0996 318.42 13.839C318.674 13.5719 318.863 13.2721 318.98 12.9203Z" fill="#0060AA"/>
<path d="M320.029 25.7692C320.062 25.7301 320.075 25.678 320.075 25.6324V16.2368C320.075 16.1847 320.062 16.139 320.036 16.0934C320.01 16.0478 319.971 16.0152 319.912 15.9892C319.853 15.9566 319.769 15.9436 319.671 15.9305C319.573 15.9175 319.449 15.911 319.299 15.911C319.156 15.911 319.039 15.924 318.948 15.9305C318.856 15.9436 318.778 15.9566 318.713 15.9827C318.648 16.0087 318.589 16.0348 318.544 16.0804C318.498 16.1195 318.459 16.1651 318.413 16.2237L314.38 21.736C314.198 21.9771 314.015 22.2247 313.852 22.4788C313.689 22.7394 313.527 22.9935 313.37 23.2607L313.371 23.2547C313.39 22.9895 313.409 22.7244 313.422 22.4592C313.435 22.1921 313.442 21.9249 313.442 21.6513V16.2172C313.442 16.113 313.383 16.0348 313.253 15.9827C313.129 15.9305 312.901 15.9045 312.569 15.9045C312.406 15.9045 312.276 15.9175 312.158 15.924C312.048 15.9371 311.963 15.9501 311.898 15.9827C311.826 16.0152 311.78 16.0413 311.761 16.0869C311.735 16.1325 311.722 16.1781 311.722 16.2237V25.6258C311.722 25.6714 311.735 25.7236 311.761 25.7627C311.78 25.8083 311.826 25.8409 311.885 25.8669C311.943 25.893 312.021 25.9125 312.119 25.9256C312.217 25.9386 312.341 25.9451 312.497 25.9451C312.627 25.9451 312.738 25.9386 312.829 25.9256C312.914 25.919 312.992 25.8995 313.051 25.8799C313.11 25.8539 313.162 25.8148 313.201 25.7757C313.24 25.7366 313.279 25.6845 313.325 25.6324L317.312 20.1918C317.501 19.9312 317.697 19.664 317.886 19.3969C318.081 19.1297 318.25 18.8561 318.413 18.5759C318.394 18.843 318.374 19.1232 318.361 19.4034C318.348 19.6836 318.342 19.9637 318.342 20.2309V25.6324C318.342 25.678 318.361 25.7301 318.381 25.7692C318.413 25.8148 318.459 25.8474 318.531 25.8734C318.602 25.8995 318.687 25.919 318.804 25.9321C318.915 25.9451 319.052 25.9516 319.221 25.9516C319.384 25.9516 319.521 25.9451 319.638 25.9321C319.742 25.9125 319.834 25.893 319.899 25.8734C319.958 25.8474 320.003 25.8083 320.029 25.7692Z" fill="#0060AA"/>
<path d="M308.692 25.7692C308.725 25.7301 308.738 25.678 308.738 25.6324V16.2368C308.738 16.1847 308.725 16.139 308.705 16.0934C308.679 16.0478 308.633 16.0152 308.575 15.9892C308.516 15.9566 308.438 15.9436 308.334 15.9305C308.236 15.9175 308.112 15.911 307.969 15.911C307.819 15.911 307.702 15.924 307.61 15.9305C307.519 15.9436 307.441 15.9566 307.376 15.9827C307.311 16.0087 307.252 16.0348 307.213 16.0804C307.167 16.1195 307.122 16.1651 307.083 16.2237L303.043 21.736C302.86 21.9771 302.685 22.2247 302.515 22.4788C302.352 22.7394 302.196 22.9935 302.033 23.2607C302.059 22.9941 302.072 22.7276 302.085 22.4611L302.085 22.4592C302.105 22.1921 302.111 21.9249 302.111 21.6513V16.2172C302.111 16.113 302.046 16.0348 301.922 15.9827C301.798 15.9305 301.564 15.9045 301.231 15.9045C301.075 15.9045 300.938 15.9175 300.821 15.924C300.717 15.9371 300.626 15.9501 300.56 15.9827C300.495 16.0152 300.45 16.0413 300.424 16.0869C300.404 16.1325 300.385 16.1781 300.385 16.2237V25.6258C300.385 25.6714 300.404 25.7236 300.424 25.7627C300.45 25.8083 300.489 25.8409 300.547 25.8669C300.606 25.893 300.684 25.9125 300.782 25.9256C300.88 25.9386 301.003 25.9451 301.16 25.9451C301.29 25.9451 301.401 25.9386 301.492 25.9256C301.583 25.919 301.655 25.8995 301.72 25.8799C301.772 25.8539 301.824 25.8148 301.864 25.7757C301.903 25.7366 301.942 25.6845 301.987 25.6324L305.975 20.1918C306.17 19.9312 306.359 19.664 306.555 19.3969C306.744 19.1297 306.92 18.8561 307.083 18.5759C307.057 18.843 307.037 19.1232 307.03 19.4034C307.011 19.6836 307.011 19.9637 307.011 20.2309V25.6324C307.011 25.678 307.024 25.7301 307.05 25.7692C307.076 25.8148 307.128 25.8474 307.193 25.8734C307.265 25.8995 307.356 25.919 307.467 25.9321C307.578 25.9451 307.715 25.9516 307.884 25.9516C308.053 25.9516 308.19 25.9451 308.301 25.9321C308.412 25.9125 308.503 25.893 308.562 25.8734C308.62 25.8474 308.666 25.8083 308.692 25.7692Z" fill="#0060AA"/>
<path d="M297.361 25.7562C297.387 25.7236 297.4 25.6714 297.4 25.6193V16.2368C297.4 16.1781 297.387 16.1325 297.361 16.0934C297.335 16.0543 297.29 16.0218 297.224 15.9892C297.159 15.9566 297.075 15.9436 296.964 15.9305C296.853 15.9175 296.71 15.911 296.547 15.911C296.377 15.911 296.234 15.924 296.117 15.9305C296.012 15.9371 295.921 15.9566 295.856 15.9892C295.797 16.0283 295.752 16.0609 295.726 16.0934C295.693 16.1325 295.68 16.1781 295.68 16.2368V20.055H290.898V16.2368C290.898 16.1781 290.885 16.1325 290.852 16.0934C290.826 16.0543 290.78 16.0218 290.722 15.9892C290.657 15.9566 290.572 15.9436 290.461 15.9305C290.344 15.9175 290.201 15.911 290.031 15.911C289.868 15.911 289.725 15.924 289.614 15.9305C289.503 15.9371 289.412 15.9566 289.353 15.9892C289.282 16.0283 289.236 16.0609 289.217 16.0934C289.191 16.1325 289.178 16.1781 289.178 16.2368V25.6193C289.178 25.6714 289.191 25.7236 289.217 25.7562C289.236 25.7952 289.282 25.8278 289.353 25.8539C289.412 25.8865 289.503 25.906 289.614 25.919C289.725 25.9321 289.868 25.9386 290.031 25.9386C290.201 25.9386 290.344 25.9321 290.461 25.919C290.572 25.8995 290.657 25.8799 290.722 25.8539C290.78 25.8278 290.826 25.7952 290.852 25.7562C290.885 25.7236 290.898 25.6714 290.898 25.6193V21.5014H295.68V25.6193C295.68 25.6714 295.693 25.7236 295.726 25.7562C295.752 25.7952 295.797 25.8278 295.856 25.8539C295.921 25.8865 296.012 25.906 296.117 25.919C296.234 25.9321 296.377 25.9386 296.547 25.9386C296.71 25.9386 296.853 25.9321 296.964 25.919C297.075 25.8995 297.159 25.8799 297.224 25.8539C297.29 25.8278 297.335 25.7952 297.361 25.7562Z" fill="#0060AA"/>
<path d="M276.127 25.7562C276.159 25.7236 276.172 25.6714 276.172 25.6193V16.5821C276.172 16.3736 276.127 16.2237 276.035 16.1195C275.944 16.0218 275.814 15.9696 275.651 15.9696H268.784C268.614 15.9696 268.484 16.0218 268.386 16.1195C268.295 16.2172 268.243 16.3736 268.243 16.5821V25.6193C268.243 25.6714 268.262 25.7236 268.288 25.7562C268.308 25.7952 268.354 25.8278 268.425 25.8539C268.484 25.8865 268.575 25.906 268.686 25.919C268.797 25.9321 268.933 25.9386 269.103 25.9386C269.266 25.9386 269.409 25.9321 269.52 25.919C269.631 25.8995 269.722 25.8799 269.787 25.8539C269.852 25.8278 269.898 25.7952 269.924 25.7562C269.956 25.7236 269.969 25.6714 269.969 25.6193V17.4226H274.439V25.6193C274.439 25.6714 274.452 25.7236 274.478 25.7562C274.511 25.7952 274.556 25.8278 274.622 25.8539C274.687 25.8865 274.778 25.906 274.889 25.919C275 25.9321 275.143 25.9386 275.319 25.9386C275.482 25.9386 275.625 25.9321 275.729 25.919C275.847 25.8995 275.925 25.8799 275.996 25.8539C276.055 25.8278 276.101 25.7952 276.127 25.7562Z" fill="#0060AA"/>
<path d="M265.708 25.8474C265.812 25.7887 265.858 25.6715 265.852 25.5216L264.809 16.6147C264.789 16.3866 264.718 16.2237 264.587 16.1195C264.457 16.0152 264.268 15.9631 264.021 15.9631H263.206C263.011 15.9631 262.848 15.9827 262.711 16.0218C262.574 16.0609 262.457 16.1195 262.359 16.1977C262.268 16.2759 262.183 16.3801 262.118 16.5104C262.053 16.6342 261.988 16.7841 261.936 16.96L260.548 20.9281C260.476 21.1561 260.391 21.3841 260.313 21.6317C260.235 21.8728 260.157 22.1139 260.079 22.3615C260.007 22.6091 259.929 22.8567 259.864 23.0912C259.798 23.3323 259.74 23.5604 259.675 23.7754H259.649C259.596 23.5669 259.531 23.3454 259.473 23.1173C259.401 22.8827 259.336 22.6482 259.258 22.4136C259.186 22.1725 259.114 21.9315 259.023 21.6839C258.945 21.4363 258.867 21.1952 258.789 20.9476L257.401 16.9535C257.336 16.758 257.27 16.5951 257.205 16.4713C257.134 16.341 257.049 16.2368 256.951 16.1586C256.847 16.0804 256.723 16.0283 256.58 15.9957C256.436 15.9631 256.267 15.9501 256.065 15.9501H255.244C255.003 15.9501 254.814 16.0087 254.697 16.1195C254.573 16.2368 254.495 16.4062 254.462 16.6277L253.426 25.5086C253.413 25.5867 253.413 25.6519 253.426 25.704C253.439 25.7562 253.472 25.7952 253.53 25.8343C253.583 25.8669 253.654 25.893 253.752 25.906C253.856 25.919 253.993 25.9256 254.169 25.9256C254.351 25.9256 254.495 25.919 254.605 25.906C254.716 25.8995 254.808 25.8799 254.879 25.8604C254.951 25.8343 254.996 25.7952 255.016 25.7431C255.042 25.691 255.055 25.6258 255.068 25.5411L255.713 20.1592C255.726 19.9637 255.746 19.7552 255.772 19.5337C255.791 19.3122 255.817 19.0841 255.843 18.8561C255.863 18.628 255.889 18.4 255.909 18.1719C255.928 17.9374 255.948 17.7223 255.974 17.5204L255.98 17.2793C256.027 17.4666 256.079 17.654 256.137 17.8603L256.156 17.9308C256.228 18.1589 256.3 18.3869 256.371 18.6215C256.443 18.8561 256.515 19.0841 256.593 19.3056C256.664 19.5272 256.736 19.7357 256.801 19.9312L258.704 25.4955C258.73 25.5867 258.762 25.6519 258.808 25.7105C258.847 25.7692 258.906 25.8083 258.964 25.8409C259.036 25.8734 259.114 25.8995 259.212 25.9125C259.31 25.9256 259.434 25.9321 259.577 25.9321C259.727 25.9321 259.851 25.9256 259.948 25.9125C260.046 25.8995 260.131 25.8734 260.196 25.8409C260.268 25.8018 260.313 25.7627 260.359 25.704C260.391 25.6454 260.424 25.5737 260.457 25.4955L262.424 19.9377C262.489 19.7292 262.555 19.5207 262.626 19.2861C262.698 19.0581 262.783 18.8235 262.854 18.5954C262.939 18.3674 263.011 18.1393 263.082 17.9178C263.154 17.6963 263.219 17.4813 263.278 17.2793L263.291 17.5204C263.31 17.7289 263.33 17.9439 263.35 18.1719C263.369 18.4 263.382 18.628 263.408 18.8561C263.428 19.0841 263.447 19.3122 263.467 19.5337C263.486 19.7552 263.506 19.9702 263.532 20.1592L264.203 25.6389C264.21 25.6975 264.229 25.7496 264.255 25.7887C264.281 25.8343 264.327 25.8604 264.386 25.8799C264.451 25.906 264.535 25.919 264.646 25.9256C264.757 25.9386 264.9 25.9386 265.07 25.9386C265.389 25.9386 265.604 25.9125 265.708 25.8474Z" fill="#0060AA"/>
<path d="M241.177 25.8018C241.203 25.7692 241.216 25.7366 241.216 25.691C241.216 25.6714 241.216 25.6454 241.209 25.6063C241.203 25.5802 241.203 25.5542 241.196 25.5151C241.183 25.476 241.177 25.4369 241.164 25.3978C241.151 25.3522 241.125 25.3066 241.099 25.261L240.063 22.8827C239.932 22.57 239.789 22.2963 239.639 22.0553C239.489 21.8142 239.326 21.6122 239.144 21.4363C238.968 21.2603 238.779 21.117 238.57 20.9997C238.368 20.889 238.14 20.7782 237.899 20.7V20.6739C238.062 20.6218 238.225 20.5567 238.401 20.472C238.57 20.3873 238.74 20.2634 238.909 20.1071C239.079 19.9507 239.242 19.7552 239.404 19.5207C239.567 19.2861 239.724 18.9929 239.861 18.6476L240.753 16.5821C240.792 16.4909 240.818 16.4127 240.838 16.341C240.851 16.2694 240.857 16.2042 240.857 16.1456C240.857 16.113 240.851 16.0804 240.825 16.0478C240.805 16.0152 240.766 15.9892 240.708 15.9696C240.649 15.9501 240.571 15.9371 240.46 15.924C240.349 15.911 240.212 15.9045 240.05 15.9045C239.861 15.9045 239.704 15.9175 239.593 15.924C239.476 15.9371 239.385 15.9501 239.313 15.9827C239.248 16.0152 239.196 16.0413 239.157 16.0869C239.124 16.126 239.105 16.1716 239.085 16.2303L238.212 18.3869C238.095 18.6932 237.965 18.9538 237.821 19.1688C237.678 19.3838 237.521 19.5598 237.339 19.6966C237.157 19.8334 236.955 19.9312 236.733 19.9898C236.518 20.0484 236.277 20.081 236.016 20.081H235.287V16.1521C235.287 16.1195 235.267 16.0869 235.228 16.0543C235.195 16.0218 235.143 15.9957 235.072 15.9761C235.006 15.9566 234.915 15.9436 234.804 15.9305C234.694 15.9175 234.563 15.911 234.413 15.911C234.27 15.911 234.14 15.924 234.029 15.9305C233.918 15.9436 233.827 15.9566 233.762 15.9761C233.69 15.9957 233.638 16.0218 233.606 16.0543C233.579 16.0869 233.56 16.113 233.56 16.1521V25.678C233.56 25.7105 233.579 25.7496 233.606 25.7822C233.638 25.8083 233.69 25.8409 233.762 25.8604C233.827 25.8799 233.918 25.8995 234.029 25.9125C234.14 25.9256 234.27 25.9321 234.413 25.9321C234.563 25.9321 234.694 25.9256 234.804 25.9125C234.915 25.8995 235.006 25.8799 235.072 25.8604C235.143 25.8409 235.195 25.8148 235.228 25.7822C235.267 25.7496 235.287 25.7171 235.287 25.678V21.4558H236.016C236.316 21.4558 236.59 21.4884 236.824 21.547C237.065 21.6122 237.274 21.7099 237.463 21.8533C237.652 21.9901 237.815 22.1725 237.958 22.4006C238.101 22.6221 238.232 22.8958 238.355 23.2085L239.359 25.6389C239.372 25.691 239.398 25.7301 239.431 25.7692C239.463 25.8083 239.522 25.8409 239.6 25.8669C239.672 25.893 239.776 25.9125 239.893 25.9256C240.017 25.9386 240.173 25.9451 240.369 25.9451C240.532 25.9451 240.675 25.9386 240.779 25.9256C240.89 25.9125 240.975 25.8995 241.04 25.8799C241.112 25.8604 241.157 25.8343 241.177 25.8018Z" fill="#0060AA"/>
<path d="M215.687 25.7562C215.714 25.7236 215.733 25.6714 215.733 25.6193V16.5821C215.733 16.3736 215.687 16.2237 215.596 16.1195C215.505 16.0218 215.375 15.9696 215.205 15.9696H208.338C208.175 15.9696 208.038 16.0218 207.947 16.1195C207.849 16.2172 207.804 16.3736 207.804 16.5821V25.6193C207.804 25.6714 207.823 25.7236 207.849 25.7562C207.869 25.7952 207.914 25.8213 207.979 25.8539C208.045 25.8865 208.136 25.906 208.247 25.919C208.357 25.9321 208.501 25.9386 208.664 25.9386C208.826 25.9386 208.963 25.9321 209.081 25.919C209.191 25.8995 209.276 25.8799 209.341 25.8539C209.413 25.8278 209.459 25.7952 209.485 25.7562C209.517 25.7236 209.53 25.6714 209.53 25.6193V17.4226H214V25.6193C214 25.6714 214.013 25.7236 214.039 25.7562C214.072 25.7952 214.117 25.8213 214.182 25.8539C214.247 25.8865 214.339 25.906 214.45 25.919C214.56 25.9321 214.704 25.9386 214.88 25.9386C215.042 25.9386 215.186 25.9321 215.297 25.919C215.401 25.8995 215.492 25.8799 215.551 25.8539C215.616 25.8278 215.661 25.7952 215.687 25.7562Z" fill="#0060AA"/>
<path d="M204.78 25.7562C204.806 25.7236 204.826 25.6714 204.826 25.6193V16.5821C204.826 16.3736 204.78 16.2237 204.689 16.1195C204.598 16.0218 204.468 15.9696 204.305 15.9696H197.431C197.268 15.9696 197.137 16.0218 197.04 16.1195C196.948 16.2172 196.896 16.3736 196.896 16.5821V25.6193C196.896 25.6714 196.909 25.7236 196.935 25.7562C196.961 25.7952 197.007 25.8278 197.072 25.8539C197.137 25.8865 197.222 25.906 197.339 25.919C197.45 25.9321 197.587 25.9386 197.75 25.9386C197.919 25.9386 198.056 25.9321 198.173 25.919C198.284 25.8995 198.369 25.8799 198.441 25.8539C198.506 25.8278 198.551 25.7952 198.577 25.7562C198.61 25.7236 198.623 25.6714 198.623 25.6193V17.4226H203.086V25.6193C203.086 25.6714 203.106 25.7236 203.132 25.7562C203.164 25.7952 203.21 25.8278 203.275 25.8539C203.34 25.8865 203.425 25.906 203.536 25.919C203.653 25.9321 203.796 25.9386 203.966 25.9386C204.135 25.9386 204.279 25.9321 204.383 25.919C204.494 25.8995 204.578 25.8799 204.643 25.8539C204.709 25.8278 204.754 25.7952 204.78 25.7562Z" fill="#0060AA"/>
<path d="M190.465 29.3332L191.71 25.8799L195.085 16.5365C195.118 16.4127 195.144 16.3084 195.144 16.2237C195.144 16.139 195.118 16.0739 195.052 16.0218C194.994 15.9762 194.902 15.9371 194.779 15.924C194.655 15.911 194.492 15.898 194.297 15.898C194.075 15.898 193.912 15.9045 193.788 15.924C193.671 15.9371 193.58 15.9696 193.528 16.0087C193.463 16.0478 193.41 16.1325 193.371 16.2628L190.791 23.834H190.759L188.074 16.3019C188.042 16.2172 188.009 16.1456 187.976 16.0934C187.944 16.0413 187.898 16.0022 187.827 15.9761C187.755 15.9436 187.664 15.9305 187.546 15.9175C187.423 15.9045 187.26 15.898 187.058 15.898C186.843 15.898 186.68 15.9045 186.556 15.924C186.432 15.9436 186.341 15.9762 186.282 16.0218C186.224 16.0739 186.198 16.1456 186.198 16.2237C186.198 16.3019 186.224 16.4257 186.282 16.5691L189.631 25.5346C189.651 25.6063 189.69 25.6714 189.742 25.7366C189.801 25.8018 189.859 25.8474 189.925 25.8734L188.628 29.1378C188.589 29.2355 188.569 29.3202 188.576 29.3854C188.582 29.457 188.615 29.5092 188.674 29.5548C188.732 29.6004 188.817 29.6264 188.928 29.646C189.038 29.6655 189.188 29.6721 189.364 29.6721C189.716 29.6721 189.977 29.646 190.146 29.5874C190.315 29.5287 190.42 29.444 190.465 29.3332Z" fill="#0060AA"/>
<path d="M176.528 13.5132C176.541 13.422 176.548 13.3047 176.548 13.1744C176.548 12.9008 176.522 12.7053 176.463 12.5815C176.405 12.4577 176.313 12.3925 176.196 12.3925H169.974C169.785 12.3925 169.628 12.4577 169.498 12.575C169.368 12.6923 169.302 12.8812 169.302 13.1223V25.6193C169.302 25.6714 169.322 25.7236 169.348 25.7562C169.374 25.7952 169.42 25.8278 169.491 25.8539C169.563 25.8865 169.654 25.906 169.778 25.919C169.895 25.9321 170.032 25.9386 170.202 25.9386C170.378 25.9386 170.521 25.9321 170.632 25.919C170.749 25.8995 170.84 25.8799 170.912 25.8539C170.984 25.8278 171.029 25.7952 171.055 25.7562C171.081 25.7236 171.101 25.6714 171.101 25.6193V13.9367H176.196C176.248 13.9367 176.3 13.9172 176.346 13.8911C176.392 13.8586 176.431 13.8129 176.463 13.7543C176.496 13.6892 176.515 13.611 176.528 13.5132Z" fill="#0060AA"/>
<path fill-rule="evenodd" clip-rule="evenodd" d="M185.22 20.7782C185.22 21.5992 185.129 22.3354 184.953 22.987C184.777 23.6386 184.51 24.1989 184.171 24.655C183.826 25.1111 183.396 25.4564 182.894 25.7105C182.386 25.9581 181.806 26.0819 181.148 26.0819C180.874 26.0819 180.614 26.0559 180.379 25.9972C180.145 25.9451 179.91 25.8539 179.688 25.7366C179.46 25.6193 179.239 25.4695 179.017 25.287C178.789 25.1046 178.555 24.8961 178.307 24.6485V29.3398C178.307 29.3984 178.294 29.444 178.262 29.4896C178.235 29.5287 178.19 29.5613 178.131 29.5939C178.066 29.6265 177.981 29.646 177.871 29.659C177.753 29.6655 177.61 29.6721 177.441 29.6721C177.271 29.6721 177.134 29.6655 177.024 29.659C176.913 29.646 176.822 29.6199 176.763 29.5939C176.691 29.5678 176.646 29.5287 176.62 29.4896C176.6 29.444 176.587 29.3984 176.587 29.3398V16.2368C176.587 16.1716 176.593 16.126 176.62 16.0869C176.639 16.0478 176.678 16.0152 176.743 15.9892C176.809 15.9566 176.887 15.9436 176.984 15.9305C177.009 15.9289 177.035 15.9268 177.063 15.9246C177.143 15.9183 177.234 15.911 177.336 15.911C177.48 15.911 177.603 15.9175 177.695 15.9305C177.792 15.9436 177.871 15.9566 177.929 15.9892C177.994 16.0152 178.034 16.0478 178.06 16.0869C178.086 16.126 178.099 16.1716 178.099 16.2368V17.5008C178.379 17.2076 178.652 16.9535 178.926 16.7385C179.187 16.5235 179.447 16.341 179.721 16.1977C179.988 16.0543 180.262 15.9436 180.542 15.8719C180.822 15.8002 181.122 15.7611 181.435 15.7611C182.112 15.7611 182.692 15.8914 183.174 16.1586C183.657 16.4257 184.041 16.7841 184.347 17.2402C184.647 17.6963 184.868 18.2306 185.005 18.843C185.149 19.4555 185.22 20.1006 185.22 20.7782ZM183.298 19.5858C183.37 20.0354 183.402 20.498 183.402 20.9802C183.402 21.4167 183.357 21.8533 183.266 22.2768C183.174 22.7068 183.038 23.0978 182.849 23.4431C182.653 23.7949 182.399 24.0751 182.099 24.2836C181.786 24.4921 181.415 24.5964 180.985 24.5964C180.522 24.5964 180.073 24.44 179.649 24.1338C179.226 23.8275 178.776 23.391 178.307 22.8111V19.0776C178.574 18.7388 178.828 18.4521 179.076 18.2175C179.317 17.9895 179.552 17.8005 179.773 17.6572C179.995 17.5204 180.216 17.4161 180.431 17.3444C180.646 17.2793 180.868 17.2467 181.089 17.2467C181.532 17.2467 181.904 17.351 182.204 17.5595C182.503 17.768 182.738 18.0481 182.92 18.3935C183.096 18.7388 183.22 19.1362 183.298 19.5858Z" fill="#0060AA"/>
<path fill-rule="evenodd" clip-rule="evenodd" d="M225.787 25.6324C225.787 25.7105 225.754 25.7757 225.696 25.8213C225.643 25.8669 225.565 25.893 225.474 25.919C225.37 25.9386 225.233 25.9516 225.044 25.9516C224.862 25.9516 224.718 25.9386 224.614 25.919C224.503 25.893 224.425 25.8669 224.373 25.8213C224.327 25.7822 224.301 25.7171 224.301 25.6324V24.6941C223.891 25.1306 223.435 25.476 222.933 25.7171C222.431 25.9581 221.897 26.0819 221.33 26.0819C220.841 26.0819 220.392 26.0168 219.994 25.8865C219.59 25.7562 219.252 25.5737 218.971 25.3261C218.691 25.0785 218.47 24.7788 218.313 24.427C218.157 24.0686 218.079 23.6711 218.079 23.215C218.079 22.6808 218.189 22.2247 218.398 21.8402C218.619 21.4493 218.926 21.13 219.33 20.8694C219.734 20.6088 220.229 20.4198 220.809 20.2895C221.395 20.1592 222.053 20.094 222.783 20.094H224.073V19.3643C224.073 19.0059 224.034 18.6801 223.962 18.4065C223.884 18.1263 223.76 17.8983 223.591 17.7158C223.415 17.5334 223.2 17.39 222.926 17.2988C222.659 17.2011 222.327 17.162 221.929 17.162C221.499 17.162 221.122 17.2141 220.789 17.3119C220.45 17.4161 220.151 17.5269 219.897 17.6442C219.642 17.768 219.434 17.8787 219.265 17.983C219.089 18.0807 218.965 18.1328 218.88 18.1328C218.828 18.1328 218.776 18.1198 218.737 18.0937C218.691 18.0677 218.659 18.0221 218.626 17.9634C218.6 17.9113 218.574 17.8396 218.554 17.7484C218.541 17.6637 218.535 17.566 218.535 17.4617C218.535 17.2858 218.554 17.149 218.574 17.0512C218.6 16.9535 218.659 16.8558 218.75 16.7645C218.848 16.6733 219.01 16.5691 219.238 16.4453C219.467 16.328 219.727 16.2107 220.027 16.113C220.327 16.0152 220.652 15.9305 221.011 15.8654C221.363 15.7937 221.721 15.7677 222.086 15.7677C222.757 15.7677 223.33 15.8458 223.799 16.0022C224.275 16.1521 224.66 16.3801 224.946 16.6733C225.239 16.9665 225.454 17.3379 225.585 17.7745C225.715 18.211 225.787 18.7192 225.787 19.3056V25.6324ZM222.601 21.3451H224.073V23.3454C223.65 23.8145 223.246 24.1663 222.861 24.3944C222.47 24.6224 222.06 24.7397 221.604 24.7397C221.05 24.7397 220.613 24.5898 220.307 24.3032C219.994 24.01 219.844 23.6255 219.844 23.1369C219.844 22.8502 219.897 22.6026 220.001 22.381C220.112 22.166 220.281 21.9771 220.509 21.8207C220.737 21.6643 221.03 21.5405 221.369 21.4623C221.721 21.3841 222.131 21.3451 222.601 21.3451Z" fill="#0060AA"/>
<path fill-rule="evenodd" clip-rule="evenodd" d="M251.68 20.8238C251.68 21.5926 251.582 22.2963 251.38 22.9349C251.178 23.5799 250.879 24.1338 250.481 24.6029C250.084 25.072 249.582 25.4304 248.976 25.691C248.377 25.9516 247.679 26.0819 246.891 26.0819C246.116 26.0819 245.444 25.9646 244.871 25.7366C244.298 25.5086 243.816 25.1763 243.438 24.7332C243.06 24.2966 242.773 23.7624 242.584 23.1369C242.395 22.5179 242.304 21.8011 242.304 21.0127C242.304 20.2439 242.402 19.5402 242.597 18.9017C242.799 18.2566 243.092 17.7028 243.496 17.2337C243.894 16.7711 244.395 16.4127 244.988 16.1521C245.588 15.8914 246.285 15.7677 247.086 15.7677C247.855 15.7677 248.526 15.8849 249.1 16.113C249.673 16.341 250.155 16.6733 250.54 17.1164C250.924 17.5529 251.204 18.0872 251.4 18.7127C251.589 19.3317 251.68 20.0354 251.68 20.8238ZM249.725 19.4946C249.823 19.9507 249.869 20.4329 249.869 20.9346C249.869 21.4819 249.816 21.9771 249.706 22.4267C249.595 22.8762 249.419 23.2672 249.178 23.593C248.943 23.9187 248.644 24.1728 248.272 24.3553C247.907 24.5312 247.471 24.6224 246.969 24.6224C246.422 24.6224 245.966 24.5247 245.594 24.3292C245.229 24.1272 244.93 23.8601 244.715 23.5213C244.493 23.189 244.337 22.7915 244.246 22.3419C244.154 21.8924 244.109 21.4102 244.109 20.8955C244.109 20.3612 244.161 19.8725 244.278 19.4164C244.389 18.9668 244.565 18.5759 244.806 18.2436C245.04 17.9113 245.34 17.6507 245.705 17.4748C246.07 17.2923 246.507 17.2011 247.015 17.2011C247.562 17.2011 248.018 17.3053 248.39 17.5008C248.761 17.6963 249.048 17.9634 249.269 18.3088C249.478 18.6476 249.634 19.045 249.725 19.4946Z" fill="#0060AA"/>
<path fill-rule="evenodd" clip-rule="evenodd" d="M286.226 25.6324C286.226 25.7105 286.193 25.7757 286.141 25.8213C286.083 25.8669 286.004 25.893 285.913 25.919C285.809 25.9386 285.672 25.9516 285.483 25.9516C285.301 25.9516 285.157 25.9386 285.047 25.919C284.942 25.893 284.864 25.8669 284.819 25.8213C284.766 25.7822 284.747 25.7171 284.747 25.6324V24.6941C284.33 25.1306 283.874 25.476 283.372 25.7171C282.87 25.9581 282.336 26.0819 281.776 26.0819C281.274 26.0819 280.831 26.0168 280.434 25.8865C280.036 25.7562 279.691 25.5737 279.411 25.3261C279.13 25.0785 278.909 24.7788 278.752 24.427C278.596 24.0686 278.524 23.6711 278.524 23.215C278.524 22.6808 278.629 22.2247 278.844 21.8402C279.059 21.4493 279.372 21.13 279.769 20.8694C280.173 20.6088 280.668 20.4198 281.248 20.2895C281.834 20.1592 282.493 20.094 283.222 20.094H284.512V19.3643C284.512 19.0059 284.473 18.6801 284.395 18.4065C284.317 18.1263 284.2 17.8983 284.03 17.7158C283.861 17.5334 283.639 17.39 283.366 17.2988C283.098 17.2011 282.76 17.162 282.369 17.162C281.939 17.162 281.561 17.2141 281.222 17.3119C280.883 17.4161 280.59 17.5269 280.336 17.6442C280.082 17.768 279.873 17.8787 279.704 17.983C279.534 18.0807 279.404 18.1328 279.319 18.1328C279.267 18.1328 279.222 18.1198 279.176 18.0937C279.13 18.0677 279.098 18.0221 279.065 17.9634C279.039 17.9113 279.013 17.8396 278.994 17.7484C278.981 17.6637 278.974 17.566 278.974 17.4617C278.974 17.2858 278.987 17.149 279.013 17.0512C279.039 16.9535 279.098 16.8558 279.196 16.7645C279.287 16.6733 279.443 16.5691 279.678 16.4453C279.906 16.328 280.166 16.2107 280.466 16.113C280.766 16.0152 281.092 15.9305 281.45 15.8654C281.802 15.7937 282.16 15.7677 282.525 15.7677C283.196 15.7677 283.77 15.8458 284.245 16.0022C284.714 16.1521 285.099 16.3801 285.385 16.6733C285.679 16.9665 285.894 17.3379 286.024 17.7745C286.154 18.211 286.226 18.7192 286.226 19.3056V25.6324ZM283.046 21.3451H284.512V23.3454C284.089 23.8145 283.685 24.1663 283.3 24.3944C282.91 24.6224 282.493 24.7397 282.043 24.7397C281.489 24.7397 281.053 24.5898 280.746 24.3032C280.434 24.01 280.284 23.6255 280.284 23.1369C280.284 22.8502 280.336 22.6026 280.44 22.381C280.551 22.166 280.72 21.9771 280.948 21.8207C281.176 21.6643 281.463 21.5405 281.815 21.4623C282.16 21.3841 282.571 21.3451 283.046 21.3451Z" fill="#0060AA"/>
<path d="M179.239 72.7798V46.0982H184.901C189.097 46.0982 192.609 42.1758 193.586 39.0092C193.795 38.312 193.736 37.9341 192.785 37.9341H163.66C159.457 37.9341 155.952 41.8565 154.975 45.0231C154.766 45.7138 154.818 46.0982 155.769 46.0982H169.544V72.7863C169.544 73.5031 169.935 73.8614 170.723 73.8614H178.007C178.594 73.8614 178.939 73.7832 179.063 73.6269C179.18 73.4705 179.239 73.1903 179.239 72.7798Z" fill="#0060AA"/>
<path d="M253.452 73.6529C253.576 73.5161 253.635 73.2424 253.635 72.8319V63.2865H261.076V72.8319C261.076 73.5161 261.467 73.8614 262.255 73.8614H269.083C269.663 73.8614 270.015 73.7897 270.132 73.6529C270.256 73.5161 270.315 73.2424 270.315 72.8319V47.9356C270.315 47.5251 270.256 47.2515 270.132 47.1146C270.015 46.9778 269.663 46.9061 269.083 46.9061H262.255C261.467 46.9061 261.076 47.2515 261.076 47.9356V56.1975H253.635V47.9356C253.635 47.5251 253.576 47.2515 253.452 47.1146C253.335 46.9778 252.983 46.9061 252.403 46.9061H245.575C244.786 46.9061 244.395 47.2515 244.395 47.9356V72.8319C244.395 73.5161 244.786 73.8614 245.575 73.8614H252.403C252.983 73.8614 253.335 73.7897 253.452 73.6529Z" fill="#0060AA"/>
<path d="M223.917 72.3693L227.259 66.0557L230.543 72.3693C230.817 72.8515 231.097 73.2229 231.39 73.477C231.677 73.7311 232.146 73.8614 232.798 73.8614H240.141C240.649 73.8614 240.968 73.7311 241.092 73.477C241.209 73.2164 241.151 72.9166 240.91 72.5778L232.335 59.6442L240.141 47.89C240.278 47.6815 240.31 47.4795 240.245 47.271C240.173 47.069 239.952 46.9648 239.574 46.9648H231.775C231.188 46.9648 230.758 47.0495 230.465 47.1993C230.172 47.3557 229.911 47.6685 229.67 48.1506L227.259 53.285L224.79 48.1506C224.555 47.6685 224.288 47.3557 223.995 47.1993C223.708 47.043 223.272 46.9648 222.685 46.9648H214.886C214.508 46.9648 214.287 47.069 214.222 47.271C214.15 47.4795 214.182 47.6815 214.319 47.89L222.073 59.6442L213.55 72.5778C213.309 72.9166 213.251 73.2229 213.374 73.477C213.492 73.7311 213.805 73.8614 214.319 73.8614H221.662C222.307 73.8614 222.783 73.7311 223.07 73.477C223.363 73.2164 223.65 72.845 223.917 72.3693Z" fill="#0060AA"/>
<path fill-rule="evenodd" clip-rule="evenodd" d="M199.926 46.1438C204.031 46.1438 207.146 47.1342 209.27 49.1215C211.387 51.1087 212.449 54.0864 212.449 58.0544C212.449 59.8332 212.195 61.0777 211.68 61.8009C211.166 62.5177 210.26 62.876 208.957 62.876H196.486C196.518 63.6644 196.655 64.3095 196.896 64.8047C197.137 65.2998 197.47 65.6843 197.9 65.9579C198.323 66.2316 198.832 66.4075 199.411 66.4987C199.991 66.5834 200.643 66.6225 201.366 66.6225C202.252 66.6225 203.184 66.5313 204.161 66.3423C205.139 66.1534 206.136 65.8863 207.158 65.5474C207.641 65.378 207.966 65.3259 208.136 65.3911C208.312 65.4562 208.462 65.6321 208.598 65.9058L210.501 70.5775C210.638 70.9228 210.657 71.177 210.547 71.3464C210.449 71.5158 210.26 71.6852 209.986 71.8611C209.374 72.2716 208.664 72.643 207.856 72.9688C207.054 73.2946 206.214 73.5682 205.341 73.7897C204.468 74.0113 203.594 74.1742 202.721 74.2784C201.848 74.3827 201.053 74.4348 200.337 74.4348C195.515 74.4348 192.029 73.3011 189.892 71.0466C187.755 68.7857 186.686 65.2608 186.686 60.4717C186.686 55.9238 187.82 52.3988 190.094 49.8968C192.374 47.3883 195.645 46.1438 199.926 46.1438ZM197.848 54.6337C198.584 54.0343 199.379 53.7345 200.232 53.7345C201.431 53.7345 202.246 54.0864 202.676 54.7901C203.099 55.4938 203.347 56.3929 203.412 57.4876H196.538C196.675 56.1844 197.111 55.2332 197.848 54.6337Z" fill="#0060AA"/>
<path fill-rule="evenodd" clip-rule="evenodd" d="M300.241 60.2567C300.241 64.7004 299.127 68.1798 296.905 70.6753C294.683 73.1708 291.243 74.4218 286.584 74.4218C284.161 74.4218 282.089 74.0895 280.375 73.4184C278.668 72.7472 277.274 71.809 276.192 70.5906C275.117 69.3786 274.328 67.8996 273.833 66.1534C273.338 64.4072 273.09 62.459 273.09 60.3023C273.09 58.1457 273.377 56.1975 273.964 54.4513C274.543 52.7051 275.397 51.2195 276.524 49.988C277.658 48.7566 279.072 47.8053 280.759 47.1407C282.453 46.4761 284.415 46.1373 286.637 46.1373C291.158 46.1373 294.553 47.3948 296.827 49.9099C299.101 52.4249 300.241 55.8782 300.241 60.2567ZM286.637 54.0473C289.204 54.0473 290.487 56.1519 290.487 60.361C290.487 62.3092 290.161 63.8208 289.516 64.9089C288.865 65.984 287.907 66.5248 286.637 66.5248C285.372 66.5248 284.415 66.0361 283.763 65.0588C283.118 64.0879 282.792 62.4721 282.792 60.2111C282.792 56.0997 284.069 54.0473 286.637 54.0473Z" fill="#0060AA"/>
<path fill-rule="evenodd" clip-rule="evenodd" d="M308.119 77.849C307.949 78.9241 306.398 80.1946 301.759 81.2437C301.16 81.3805 300.834 80.9961 300.834 80.3706L300.215 68.5642C300.15 67.248 300.743 66.4922 302.066 66.3554L303.91 66.1534C304.424 65.7103 304.848 65.1761 305.167 64.5636C305.493 63.9446 305.753 63.3126 305.942 62.661C306.131 62.0094 306.268 61.3774 306.353 60.7649C306.431 60.191 306.504 59.6954 306.567 59.2731L306.581 59.1751L307.865 49.5254C308.223 47.2059 309.213 46.4435 311.611 46.4435H325.932C328.356 46.4435 329.268 47.4404 329.268 49.8317V66.1013L331.217 66.3032C332.552 66.4401 333.08 67.2089 333.015 68.5121L332.253 77.5623C332.272 78.4484 330.656 80.6638 325.985 81.2437C324.929 81.371 324.918 81.0354 324.89 80.1684C324.888 80.1041 324.886 80.0368 324.883 79.9666L324.649 73.3923H308.633L308.119 77.849ZM319.925 66.2577H313.253C314.84 63.3133 315.188 59.8378 315.524 56.4857C315.615 55.5725 315.706 54.6684 315.82 53.7867H319.925V66.2577Z" fill="#0060AA"/>
<path fill-rule="evenodd" clip-rule="evenodd" d="M359.872 69.5937C359.872 70.0693 359.82 70.4928 359.716 70.8512C359.612 71.2095 359.24 71.5614 358.589 71.9067C357.801 72.2846 356.934 72.6039 355.996 72.8841C355.057 73.1577 354.087 73.3793 353.096 73.5487C352.099 73.7181 351.102 73.8419 350.093 73.907C349.083 73.9722 348.138 74.0113 347.245 74.0113C344.886 74.0113 342.899 73.7963 341.29 73.3727C339.681 72.9427 338.39 72.3498 337.413 71.5744C336.442 70.8056 335.745 69.8869 335.335 68.8313C334.924 67.7693 334.722 66.6225 334.722 65.3911C334.722 62.3808 335.66 60.1004 337.543 58.5366C339.426 56.9794 341.941 56.1975 345.089 56.1975H350.685V55.4808C350.685 55.2397 350.646 54.966 350.581 54.6598C350.51 54.3535 350.347 54.0603 350.093 53.7867C349.838 53.513 349.474 53.2915 349.017 53.1156C348.548 52.9462 347.949 52.8615 347.193 52.8615C346.717 52.8615 346.17 52.8875 345.551 52.9396C344.932 52.9918 344.281 53.0504 343.596 53.1156C342.912 53.1807 342.241 53.2719 341.57 53.3762C340.905 53.4804 340.299 53.5977 339.752 53.7345C339.27 53.8714 338.944 53.8714 338.775 53.7345C338.605 53.5977 338.482 53.3436 338.416 52.9657L337.439 48.5546C337.335 48.0724 337.335 47.7597 337.439 47.6033C337.543 47.4469 337.732 47.3231 338.006 47.2189C339.648 46.6716 341.309 46.2676 342.984 46.0135C344.658 45.7594 346.47 45.6291 348.425 45.6291C352.327 45.6291 355.207 46.424 357.071 48.0138C358.941 49.6036 359.872 52.0405 359.872 55.3309V69.5937ZM347.604 61.6381H350.633V66.212C350.223 66.4205 349.682 66.5574 349.017 66.6225C348.346 66.6942 347.897 66.7268 347.656 66.7268C346.665 66.7268 345.864 66.5378 345.271 66.1599C344.665 65.782 344.372 65.1826 344.372 64.3616C344.372 63.7752 344.47 63.306 344.678 62.9477C344.887 62.5893 345.141 62.3157 345.447 62.1267C345.753 61.9443 346.098 61.814 346.47 61.7423C346.854 61.6706 347.226 61.6381 347.604 61.6381Z" fill="#0060AA"/>
<path fill-rule="evenodd" clip-rule="evenodd" d="M365.274 83.9672C364.564 84.1171 364.095 83.7457 364.095 83.042V50.0337C364.095 49.6232 364.173 49.2648 364.329 48.9586C364.479 48.6523 364.831 48.3591 365.378 48.0855C366.988 47.2971 368.877 46.7433 371.047 46.4175C373.223 46.0917 375.302 45.9288 377.289 45.9288C379.954 45.9288 382.169 46.3002 383.935 47.0365C385.694 47.7727 387.088 48.7631 388.118 50.0141C389.141 51.2651 389.871 52.7442 390.301 54.4578C390.724 56.1649 390.939 57.9958 390.939 59.9505C390.939 61.8661 390.705 63.6709 390.248 65.365C389.786 67.0591 389.056 68.5316 388.066 69.7826C387.075 71.0271 385.805 72.0175 384.267 72.7342C382.723 73.4575 380.899 73.8158 378.774 73.8158C377.647 73.8158 376.709 73.7702 375.979 73.6855C375.243 73.6008 374.396 73.4705 373.438 73.3011L373.419 79.517C373.484 80.0382 371.405 82.6706 365.274 83.9672ZM379.928 55.0116C380.801 55.8 381.237 57.3247 381.237 59.5791C381.237 61.7358 380.84 63.3191 380.032 64.3225C379.224 65.3324 378.11 65.8406 376.67 65.8406C376.364 65.8406 375.901 65.8146 375.282 65.7625C374.67 65.7103 374.051 65.5996 373.438 65.4302V54.1907C373.914 54.0538 374.435 53.9626 375.002 53.9105C375.569 53.8583 375.986 53.8323 376.259 53.8323C377.836 53.8323 379.055 54.2232 379.928 55.0116Z" fill="#0060AA"/>
<path fill-rule="evenodd" clip-rule="evenodd" d="M97.754 0H140.862C144.204 0 144.38 1.3292 143.657 3.75954C140.243 14.8492 127.954 28.5712 113.261 28.5712H93.0106C90.9321 28.5712 89.6616 27.887 90.0004 25.6912L93.3429 3.81166C93.8642 0.423522 95.3954 0 97.754 0Z" fill="#B62C2C"/>
</svg>
