<svg width="197" height="202" viewBox="0 0 197 202" fill="none" xmlns="http://www.w3.org/2000/svg">
<g clip-path="url(#clip0)">
<path d="M13.3944 72.8363C12.986 72.5086 12.5776 72.2629 12.1693 72.0171H12.0876C10.9442 71.6075 9.55574 71.6894 8.08563 72.4267C3.83863 74.7206 0.24501 81.7662 0.24501 88.2382C0.24501 92.1706 1.55178 94.956 3.59361 95.9391L13.0677 102.083L21.8067 78.2434L13.3944 72.8363Z" fill="white" stroke="#323232" stroke-width="0.7" stroke-miterlimit="10"/>
<path d="M61.7449 117.567C61.7449 98.5607 50.8007 77.9976 37.8963 72.0171C33.3227 69.887 29.239 69.887 25.8087 71.6075L9.22908 78.8168L16.6613 97.6596C17.7231 108.965 22.4601 120.762 29.0756 129.119L35.7728 146.241L51.0457 139.605C51.5358 139.441 51.9441 139.277 52.4342 139.032L52.5158 138.95C58.0696 136 61.7449 128.545 61.7449 117.567Z" fill="white" stroke="#323232" stroke-width="0.7" stroke-miterlimit="10"/>
<path d="M45.5736 124.531C45.5736 143.537 34.6294 152.14 21.725 144.193C9.63742 136.656 0.24501 116.994 0.24501 99.8715C0.24501 82.7492 9.63742 73.2459 21.8067 78.9807C34.6294 84.9612 45.5736 105.524 45.5736 124.531Z" fill="white" stroke="#323232" stroke-width="0.7" stroke-miterlimit="10"/>
<path d="M42.0617 123.22C42.0617 140.179 32.2609 147.879 20.8266 140.752C9.96412 134.034 1.55179 116.502 1.55179 101.182C1.55179 85.8624 9.96412 77.4241 20.745 82.5035C32.2609 87.9105 42.0617 106.262 42.0617 123.22Z" stroke="#979797" stroke-width="0.7" stroke-miterlimit="10" stroke-linecap="round" stroke-linejoin="round" stroke-dasharray="2 2"/>
<path d="M59.1313 109.375C58.723 109.047 58.3146 108.801 57.9062 108.556H57.8246C56.6811 108.064 55.2927 108.228 53.9042 108.965C49.5756 111.177 46.0636 118.305 46.0636 124.777C46.0636 128.709 47.3704 131.494 49.4122 132.478L58.8046 138.54L67.5437 114.7L59.1313 109.375Z" fill="white" stroke="#323232" stroke-width="0.7" stroke-miterlimit="10" stroke-linecap="round" stroke-linejoin="round"/>
<path d="M70.6472 122.319C70.6472 128.627 67.2986 135.591 63.0516 138.048C58.723 140.506 55.211 137.229 55.211 130.757C55.211 124.285 58.723 117.158 63.0516 114.946C67.217 112.652 70.6472 116.011 70.6472 122.319Z" fill="white" stroke="#323232" stroke-width="0.7" stroke-miterlimit="10"/>
<path d="M64.3584 114.372C63.9501 114.454 63.46 114.618 62.97 114.864C58.6413 117.076 55.1294 124.203 55.1294 130.675C55.1294 132.068 55.2927 133.297 55.6194 134.28C56.8445 135.755 58.723 136.082 60.8465 134.935C64.5218 132.805 67.5437 126.661 67.5437 121.172C67.5437 117.649 66.2369 115.191 64.3584 114.372Z" fill="#979797" stroke="#323232" stroke-width="0.7" stroke-miterlimit="10"/>
<path d="M22.9501 114.044C22.9501 116.912 21.3167 118.223 19.3565 116.994C17.5597 115.847 16.0896 112.898 16.0896 110.358C16.0896 107.818 17.478 106.344 19.3565 107.245C21.3167 108.146 22.9501 111.177 22.9501 114.044Z" fill="#F05A46" stroke="#323232" stroke-width="0.7" stroke-miterlimit="10"/>
</g>
<path d="M89.9513 69.3138L90.7707 66.857L86.4004 64.6732C86.1272 64.4003 85.5809 64.4003 85.3078 64.1273C83.3957 63.5813 81.2106 63.8543 78.7522 65.2192C71.3773 69.5868 65.368 82.4168 65.368 93.8818C65.368 100.16 67.28 104.801 70.0115 106.712C70.5578 106.985 71.1041 107.258 71.6504 107.531L76.0208 109.715L76.8402 107.258C77.3865 106.985 77.9328 106.712 78.4791 106.439C85.5809 101.798 91.5902 89.2412 91.5902 77.7762C91.5902 74.5004 91.0439 71.4977 89.9513 69.3138Z" fill="white" stroke="#323232" stroke-width="0.7" stroke-miterlimit="10" stroke-linecap="round" stroke-linejoin="round"/>
<path d="M96.2338 80.2327C96.2338 91.4248 90.4977 104.255 83.1228 108.895C75.7478 113.536 69.7385 108.076 69.7385 96.3384C69.7385 84.6003 75.7478 71.7704 83.1228 67.6757C90.4977 63.3081 96.2338 68.7676 96.2338 80.2327Z" fill="white" stroke="#323232" stroke-width="0.7" stroke-miterlimit="10"/>
<path d="M116.67 14.1028L107.656 18.4704V5.64047L116.67 1.27283V14.1028Z" fill="#F05A46" stroke="#323232" stroke-width="0.7" stroke-miterlimit="10" stroke-linecap="round" stroke-linejoin="round"/>
<path d="M149.994 33.7572C149.994 20.9272 142.619 7.27835 133.878 3.18368C130.874 1.8188 128.142 1.8188 125.684 2.91071L125.138 3.18368L116.397 7.27835L118.855 13.5568C118.582 15.1947 118.309 16.8326 118.309 18.7434C118.309 30.4814 124.318 43.0384 132.24 48.225L134.425 53.4115L142.892 49.5899C146.989 47.406 149.994 41.6735 149.994 33.7572Z" fill="white" stroke="#323232" stroke-width="0.7" stroke-miterlimit="10" stroke-linecap="round" stroke-linejoin="round"/>
<path d="M124.641 190.789C103.882 178.232 91.317 155.575 91.317 131.553V102.89C91.317 100.433 93.7753 99.0685 95.9605 100.16L163.701 137.558C165.34 138.377 166.433 140.288 166.433 142.199V167.586C166.159 188.878 142.669 201.981 124.641 190.789Z" fill="white" stroke="#323232" stroke-width="0.7" stroke-miterlimit="10"/>
<path d="M121.637 192.699C100.877 180.143 88.3127 157.758 88.3127 133.463V105.074C88.3127 102.617 90.771 101.252 92.9562 102.344L160.424 139.742C162.062 140.561 163.155 142.472 163.155 144.382V169.769C163.155 190.789 139.664 203.892 121.637 192.699Z" fill="white" stroke="#323232" stroke-width="0.7" stroke-miterlimit="10"/>
<path d="M117.266 194.884C96.78 182.327 84.2153 159.669 84.2153 135.647V106.985C84.2153 104.528 86.6736 103.163 88.8588 104.255L156.599 141.653C158.238 142.472 159.331 144.383 159.331 146.294V171.68C159.058 192.973 135.567 206.076 117.266 194.884Z" fill="white" stroke="#323232" stroke-width="0.7" stroke-miterlimit="10"/>
<path d="M113.715 197.067C93.229 184.237 80.3911 161.853 80.3911 137.831V109.168C80.3911 106.711 82.8494 105.347 85.0346 106.439L152.775 143.836C154.414 144.655 155.507 146.566 155.507 148.477V173.591C155.507 194.883 132.016 207.986 113.715 197.067Z" fill="white" stroke="#323232" stroke-width="0.7" stroke-miterlimit="10"/>
<path d="M92.1366 77.7759C90.7708 76.957 88.8588 76.957 86.9468 78.0489C82.0301 80.7786 78.206 89.2409 78.206 96.8843C78.206 101.525 79.8449 104.801 82.0301 105.893L158.785 148.477L168.618 120.087L92.1366 77.7759Z" fill="white" stroke="#323232" stroke-width="0.7" stroke-miterlimit="10" stroke-linecap="round" stroke-linejoin="round"/>
<path d="M171.896 128.823C171.896 136.193 168.072 144.383 163.428 147.385C158.511 150.388 154.687 146.839 154.687 139.196C154.687 131.553 158.511 123.09 163.428 120.361C168.072 117.631 171.896 121.452 171.896 128.823Z" fill="white" stroke="#323232" stroke-width="0.7" stroke-miterlimit="10"/>
<path d="M165.067 128.277C164.521 128.277 163.974 128.277 163.155 128.55C161.243 129.642 159.877 132.917 159.877 135.92C159.877 138.104 160.697 139.469 161.789 139.469L181.729 147.658L185.28 138.377L165.067 128.277Z" fill="white" stroke="#323232" stroke-width="0.7" stroke-miterlimit="10" stroke-linecap="round" stroke-linejoin="round"/>
<path d="M189.923 123.909L190.743 121.453L186.372 119.269C186.099 118.996 185.553 118.723 185.28 118.723C183.368 118.177 181.183 118.45 178.724 119.815C171.349 124.182 165.34 137.012 165.34 148.477C165.34 154.756 167.252 159.396 169.984 161.307C170.53 161.58 171.076 161.853 171.623 162.126L175.993 164.31L176.812 161.853C177.359 161.58 177.905 161.307 178.451 161.034C185.553 156.394 191.562 143.837 191.562 132.372C191.289 129.096 190.743 126.093 189.923 123.909Z" fill="white" stroke="#323232" stroke-width="0.7" stroke-miterlimit="10" stroke-linecap="round" stroke-linejoin="round"/>
<path d="M196.206 134.828C196.206 146.02 190.47 158.85 183.095 163.491C175.72 168.131 169.71 162.672 169.71 150.934C169.71 139.196 175.72 126.366 183.095 122.271C190.197 117.904 196.206 123.636 196.206 134.828Z" fill="white" stroke="#323232" stroke-width="0.7" stroke-miterlimit="10"/>
<path d="M130.327 82.8933L116.943 83.4393V100.091C116.943 100.364 116.943 100.637 116.943 100.91C117.216 101.729 117.763 102.275 118.855 103.094C121.587 104.459 125.957 104.459 128.415 103.094C129.235 102.548 129.781 102.002 130.054 101.456H130.327V82.8933Z" fill="white" stroke="#323232" stroke-width="0.7" stroke-miterlimit="10" stroke-linecap="round" stroke-linejoin="round"/>
<path d="M132.786 83.4393C137.702 80.9825 137.429 76.6148 132.513 74.158C127.596 71.7012 119.402 71.7012 114.485 74.158C109.568 76.6148 109.568 80.7095 114.758 83.4393C119.675 86.169 127.869 86.169 132.786 83.4393Z" fill="white" stroke="#323232" stroke-width="0.7" stroke-miterlimit="10"/>
<path d="M132.786 80.9822C137.702 78.5254 137.429 74.1578 132.513 71.701C127.596 69.2442 119.402 69.2442 114.485 71.701C109.568 74.1578 109.568 78.2525 114.758 80.9822C119.675 83.439 127.869 83.439 132.786 80.9822Z" fill="white" stroke="#323232" stroke-width="0.7" stroke-miterlimit="10"/>
<path d="M132.786 79.8904C137.702 77.4336 137.429 73.066 132.513 70.6092C127.596 68.1524 119.402 68.1524 114.485 70.6092C109.568 73.066 109.568 77.1607 114.758 79.8904C119.675 82.3472 127.869 82.3472 132.786 79.8904Z" fill="#F05A46" stroke="#323232" stroke-width="0.7" stroke-miterlimit="10"/>
<path d="M132.786 77.4334C137.702 74.9766 137.429 70.609 132.513 68.1522C127.596 65.6954 119.402 65.6954 114.485 68.1522C109.568 70.609 109.568 74.7036 114.758 77.4334C119.675 79.8902 127.869 79.8902 132.786 77.4334Z" fill="#F05A46" stroke="#323232" stroke-width="0.7" stroke-miterlimit="10"/>
<path d="M85.5809 36.0103L84.4883 35.4644V40.9239L85.5809 41.4699V36.0103Z" fill="#979797"/>
<path d="M79.8449 38.4674L83.669 40.3782V34.9187L79.8449 33.0078V38.4674Z" fill="#979797"/>
<path d="M189.104 139.196C189.104 144.383 186.373 150.388 183.095 152.572C179.544 154.483 176.812 152.026 176.812 146.566C176.812 141.107 179.544 135.101 183.095 133.191C186.373 131.28 189.104 134.009 189.104 139.196Z" fill="#979797" stroke="#323232" stroke-width="0.7" stroke-miterlimit="10"/>
<path d="M185.826 141.107C185.826 143.563 184.46 146.566 182.821 147.658C181.183 148.75 179.817 147.385 179.817 144.928C179.817 142.199 181.183 139.469 182.821 138.377C184.46 137.012 185.826 138.377 185.826 141.107Z" fill="#979797" stroke="#323232" stroke-width="0.7" stroke-miterlimit="10"/>
<path d="M142.073 37.306C142.073 24.4761 134.698 10.8272 125.957 6.73251C122.952 5.36762 119.948 5.36762 117.489 6.45953H117.216C117.216 6.45953 117.216 6.45953 116.943 6.45953L108.749 10.5542L110.661 16.0137C110.388 17.9246 110.114 19.8354 110.114 22.0193C110.114 33.2113 115.577 45.2223 122.952 50.6819L125.411 57.5063L133.878 53.1387C134.698 52.8657 135.244 52.5927 135.79 52.0468C139.888 49.863 142.073 44.6764 142.073 37.306Z" fill="#F05A46" stroke="#323232" stroke-width="0.7" stroke-miterlimit="10" stroke-linecap="round" stroke-linejoin="round"/>
<path d="M130.327 53.4117L116.943 53.9577V70.6093C116.943 70.8823 116.943 71.1553 116.943 71.4283C117.216 72.2472 117.763 72.7932 118.855 73.6121C121.587 74.977 125.957 74.977 128.415 73.6121C129.235 73.0661 130.054 72.7931 130.327 71.9742V71.7012V53.4117Z" fill="#F05A46" stroke="#323232" stroke-width="0.7" stroke-miterlimit="10" stroke-linecap="round" stroke-linejoin="round"/>
<path d="M125.46 54.0269C128.192 52.662 127.919 50.4782 125.187 49.1133C122.456 47.7484 118.359 47.7484 115.627 49.1133C112.896 50.4782 113.169 52.662 115.627 54.0269C118.632 55.3917 123.002 55.3917 125.46 54.0269Z" fill="white" stroke="#323232" stroke-width="0.7" stroke-miterlimit="10"/>
<path d="M133.332 41.9466C133.332 29.1167 125.957 15.4678 117.216 11.3731C114.212 10.0082 111.48 10.0082 109.022 11.1002H108.749C108.749 11.1002 108.476 11.1002 108.476 11.3731L84.7118 22.5652L101.647 69.2444L125.957 57.7793C130.327 55.8685 133.332 50.1359 133.332 41.9466Z" fill="white" stroke="#323232" stroke-width="0.7" stroke-miterlimit="10" stroke-linecap="round" stroke-linejoin="round"/>
<path d="M109.022 53.4115C109.022 66.2415 101.647 73.0659 92.9063 68.6983C84.1656 64.3306 77.3369 50.9548 77.3369 38.3978C77.3369 25.8408 84.1656 19.0164 92.9063 22.8381C101.92 26.6597 109.022 40.3086 109.022 53.4115Z" fill="white" stroke="#323232" stroke-width="0.7" stroke-miterlimit="10"/>
<path d="M103.286 51.2279C103.286 60.2362 98.0961 65.1498 91.8137 62.147C85.8045 59.1442 80.8878 49.59 80.8878 40.5818C80.8878 31.5735 85.8045 26.6599 91.8137 29.6627C98.0961 32.3924 103.286 41.9467 103.286 51.2279Z" fill="white" stroke="#323232" stroke-width="0.7" stroke-miterlimit="10"/>
<path d="M102.466 55.3224L81.7072 44.6763V37.5789L102.466 47.952V55.3224Z" fill="#979797" stroke="#323232" stroke-width="0.7" stroke-miterlimit="10"/>
<path d="M140.434 12.1921L116.67 1L107.656 5.36764L131.42 16.8327L140.434 12.1921Z" fill="#F05A46" stroke="#323232" stroke-width="0.7" stroke-miterlimit="10" stroke-linecap="round" stroke-linejoin="round"/>
<path d="M140.434 25.2948L131.42 29.9354V16.8325L140.434 12.1919V25.2948Z" fill="#F05A46" stroke="#323232" stroke-width="0.7" stroke-miterlimit="10" stroke-linecap="round" stroke-linejoin="round"/>
<path d="M121.04 120.291C121.04 116.742 119.128 112.921 116.67 111.556C115.577 111.01 114.758 111.01 114.212 111.283L102.74 118.38L108.476 130.664L119.675 123.84C120.494 123.567 121.04 122.202 121.04 120.291Z" fill="white" stroke="#323232" stroke-width="0.7" stroke-miterlimit="10" stroke-linecap="round" stroke-linejoin="round"/>
<path d="M110.114 127.116C110.114 130.664 108.202 132.302 105.744 130.937C103.286 129.572 101.374 125.751 101.374 122.475C101.374 119.199 103.286 117.288 105.744 118.653C108.202 119.745 110.114 123.567 110.114 127.116Z" fill="white" stroke="#323232" stroke-width="0.7" stroke-miterlimit="10"/>
<path d="M133.878 72.5201C133.332 72.7931 132.513 72.7931 132.24 72.5201C131.693 72.2472 131.693 71.9742 132.24 71.7012C132.786 71.4282 133.605 71.4282 133.878 71.7012C134.425 71.9742 134.425 72.2472 133.878 72.5201Z" fill="#F05A46" stroke="#323232" stroke-width="0.7" stroke-miterlimit="10"/>
<path d="M124.318 77.1606C123.772 77.4336 122.952 77.4336 122.679 77.1606C122.133 76.8876 122.133 76.6147 122.679 76.3417C123.225 76.0687 124.045 76.0687 124.318 76.3417C124.864 76.6147 124.864 76.8876 124.318 77.1606Z" fill="#F05A46" stroke="#323232" stroke-width="0.7" stroke-miterlimit="10"/>
<path d="M115.031 71.9742C114.485 72.2472 113.666 72.2472 113.392 71.9742C112.846 71.7013 112.846 71.4283 113.392 71.1553C113.939 70.8823 114.758 70.8823 115.031 71.1553C115.304 71.4283 115.304 71.7013 115.031 71.9742Z" fill="#F05A46" stroke="#323232" stroke-width="0.7" stroke-miterlimit="10"/>
<path d="M139.888 16.8324L138.249 16.0135C137.976 15.7405 137.702 15.7405 137.429 15.4675C136.883 15.4675 136.61 15.4675 136.064 15.7405C134.152 16.5594 132.513 19.8352 132.513 22.5649C132.513 24.2028 133.059 25.2947 133.878 25.8407H134.152L136.337 26.9326L136.883 25.2947C138.249 23.9298 139.341 21.473 139.341 19.2892C139.341 19.0162 139.341 18.7433 139.341 18.4703L139.888 16.8324Z" fill="#F05A46" stroke="#323232" stroke-width="0.7" stroke-miterlimit="10" stroke-linecap="round" stroke-linejoin="round"/>
<path d="M141.254 20.3813C141.254 23.1111 139.615 26.1138 137.703 27.2057C135.791 28.2976 134.152 26.6598 134.152 23.93C134.152 21.2002 135.791 18.1975 137.703 17.1056C139.615 16.0137 141.254 17.6515 141.254 20.3813Z" fill="#F05A46" stroke="#323232" stroke-width="0.7" stroke-miterlimit="10"/>
<path d="M139.615 18.7432C139.068 18.4702 138.795 18.4702 138.249 18.7432C136.883 19.2891 135.791 21.473 135.791 23.3838C135.791 24.7487 136.337 25.5676 136.883 25.8406L143.439 28.8434L145.897 21.7459L139.615 18.7432Z" fill="#F05A46" stroke="#323232" stroke-width="0.7" stroke-miterlimit="10" stroke-linecap="round" stroke-linejoin="round"/>
<path d="M146.716 19.0164L142.346 20.9272L140.434 27.2057L142.346 31.3003L146.716 29.3895L148.628 23.111L146.716 19.0164Z" fill="#F05A46" stroke="#323232" stroke-width="0.7" stroke-miterlimit="10" stroke-linecap="round" stroke-linejoin="round"/>
<path d="M146.989 23.9299C146.989 25.8408 145.897 27.7516 144.531 28.5706C143.165 29.1165 142.073 28.2976 142.073 26.3867C142.073 24.4759 143.165 22.2921 144.531 21.7461C145.897 21.2002 146.989 22.0191 146.989 23.9299Z" fill="#F05A46" stroke="#323232" stroke-width="0.7" stroke-miterlimit="10"/>
<path d="M142.346 31.3004L140.98 30.7545L139.068 26.6598L140.434 27.2057L142.346 31.3004Z" fill="#F05A46" stroke="#323232" stroke-width="0.7" stroke-miterlimit="10" stroke-linecap="round" stroke-linejoin="round"/>
<path d="M140.434 27.2057L142.346 20.9272L140.98 20.3812L139.068 26.6597L140.434 27.2057Z" fill="#F05A46" stroke="#323232" stroke-width="0.7" stroke-miterlimit="10" stroke-linecap="round" stroke-linejoin="round"/>
<path d="M142.346 20.927L146.716 19.0162L145.351 18.1973L140.98 20.3811L142.346 20.927Z" fill="#F05A46" stroke="#323232" stroke-width="0.7" stroke-miterlimit="10" stroke-linecap="round" stroke-linejoin="round"/>
<path d="M137.752 165.948L91.5903 138.65V135.101L137.752 162.399V165.948Z" fill="white" stroke="#323232" stroke-width="0.7" stroke-miterlimit="10" stroke-linecap="round" stroke-linejoin="round"/>
<path d="M137.752 185.056L91.5903 157.758V154.483L137.752 181.507V185.056Z" fill="white" stroke="#323232" stroke-width="0.7" stroke-miterlimit="10" stroke-linecap="round" stroke-linejoin="round"/>
<defs>
<clipPath id="clip0">
<rect width="70.8923" height="77.337" fill="white" transform="translate(0 70.0509)"/>
</clipPath>
</defs>
</svg>
