<svg width="201" height="201" viewBox="0 0 201 201" fill="none" xmlns="http://www.w3.org/2000/svg">
<path d="M131.045 200L1.04459 137.488V24.8269L131.045 78.4372V200Z" fill="white" stroke="#323232" stroke-width="0.7" stroke-miterlimit="10"/>
<path d="M199.702 166.963L130.747 199.901V78.3383L199.702 49.9506V166.963Z" fill="white" stroke="#323232" stroke-width="0.7" stroke-miterlimit="10"/>
<path d="M200 50.0494L69.8506 0.39563L1.04459 24.8269L131.045 78.4372L200 50.0494Z" fill="white" stroke="#323232" stroke-width="0.7" stroke-miterlimit="10"/>
<path d="M112.388 84.273L22.8357 46.6864L14.6268 43.2245C14.6268 43.2245 14.3283 43.1256 13.8805 43.1256C13.7312 43.1256 13.7312 43.1256 13.582 43.1256C13.2835 43.1256 13.1342 43.1256 12.985 43.2245L10.8954 43.9169L12.0894 44.5104V105.341C12.0894 106.33 12.8357 107.319 14.0297 107.913L110.299 152.127C110.597 152.226 110.746 152.324 111.045 152.324V152.918L112.388 152.423C112.836 152.324 113.284 152.127 113.731 151.929C114.179 151.632 114.478 151.236 114.478 150.742V150.148V142.235V87.0425C114.478 85.9545 113.731 84.8665 112.388 84.273Z" fill="white" stroke="#323232" stroke-width="0.7" stroke-miterlimit="10"/>
<path d="M108.209 152.819L11.9401 108.605C10.746 108.012 9.99976 107.122 9.99976 106.034V44.906C9.99976 44.0158 11.4923 43.5212 12.5371 44.0158L110.149 85.0643C111.492 85.6577 112.388 86.6469 112.388 87.7349V151.335C112.388 152.819 110 153.61 108.209 152.819Z" fill="white" stroke="#323232" stroke-width="0.7" stroke-miterlimit="10"/>
<path d="M9.99976 100.099L11.1938 100.692" stroke="#979797" stroke-width="0.7" stroke-linecap="round" stroke-linejoin="round"/>
<path d="M13.5818 101.78L110 145.697" stroke="#979797" stroke-width="0.7" stroke-linecap="round" stroke-linejoin="round" stroke-dasharray="1.98 1.98"/>
<path d="M111.194 146.192L112.388 146.785" stroke="#979797" stroke-width="0.7" stroke-linecap="round" stroke-linejoin="round"/>
<path d="M9.99976 50.9397L11.1938 51.5332" stroke="#979797" stroke-width="0.7" stroke-linecap="round" stroke-linejoin="round"/>
<path d="M13.7313 52.6212L109.851 93.4719" stroke="#979797" stroke-width="0.7" stroke-linecap="round" stroke-linejoin="round" stroke-dasharray="2.04 2.04"/>
<path d="M111.194 94.0653L112.388 94.5599" stroke="#979797" stroke-width="0.7" stroke-linecap="round" stroke-linejoin="round"/>
<path d="M100.597 130.861L20.448 94.7577V66.7656L100.597 101.583V130.861Z" fill="#979797" stroke="#323232" stroke-width="0.7" stroke-miterlimit="10" stroke-linecap="round" stroke-linejoin="round"/>
<path d="M7.01497 80.8111L2.23885 78.6351V71.5134L7.01497 73.5906V80.8111Z" fill="#F05A46" stroke="#323232" stroke-width="0.7" stroke-miterlimit="10" stroke-linecap="round" stroke-linejoin="round"/>
<path d="M7.01509 73.5905L7.91062 72.9971L3.13449 70.9199L2.23897 71.5134L7.01509 73.5905Z" fill="#F05A46" stroke="#323232" stroke-width="0.7" stroke-miterlimit="10" stroke-linecap="round" stroke-linejoin="round"/>
<path d="M7.01486 80.8111L7.91039 80.1187V72.9971L7.01486 73.5905V80.8111Z" fill="#F05A46" stroke="#323232" stroke-width="0.7" stroke-miterlimit="10" stroke-linecap="round" stroke-linejoin="round"/>
<path d="M102.239 166.766C103.134 166.271 103.582 165.381 103.582 164.095C103.582 161.424 101.343 158.061 98.5076 156.775C97.4628 156.281 96.4181 156.083 95.6718 156.281L95.224 156.479C95.224 156.479 95.0748 156.479 95.0748 156.578L94.03 156.874L94.1793 157.171C93.7315 157.666 93.433 158.358 93.433 159.248C93.433 161.919 95.6718 165.183 98.5076 166.568C99.1046 166.864 99.5524 166.963 100.149 167.062L100.448 167.458L101.791 166.963C101.94 166.963 102.09 166.963 102.239 166.766Z" fill="#F05A46" stroke="#323232" stroke-width="0.7" stroke-miterlimit="10" stroke-linecap="round" stroke-linejoin="round"/>
<path d="M99.5524 171.118C100.896 170.326 101.791 168.843 101.791 166.766C101.791 162.315 98.0598 156.973 93.4329 154.797C91.6419 154.006 90.0001 153.709 88.6568 154.006L87.9106 154.303C87.7613 154.303 87.612 154.402 87.612 154.402L85.9703 154.995L86.2688 155.589C85.5225 156.38 85.224 157.567 85.224 158.952C85.224 163.304 88.9553 168.645 93.5822 170.92C94.4777 171.316 95.3732 171.612 96.1195 171.711L96.5673 172.404L98.8061 171.612C98.9553 171.414 99.2538 171.316 99.5524 171.118Z" fill="#F05A46" stroke="#323232" stroke-width="0.7" stroke-miterlimit="10" stroke-linecap="round" stroke-linejoin="round"/>
<path d="M99.7014 167.458C99.7014 171.909 95.9701 173.689 91.3432 171.513C86.7163 169.337 82.985 163.996 82.985 159.545C82.985 155.193 86.7163 153.314 91.3432 155.49C95.9701 157.666 99.7014 163.007 99.7014 167.458Z" fill="#F05A46" stroke="#323232" stroke-width="0.7" stroke-miterlimit="10"/>
<path d="M6.11935 76.8546C6.11935 77.7449 5.37309 78.1405 4.47756 77.7449C3.58204 77.3492 2.83577 76.2612 2.83577 75.371C2.83577 74.4808 3.58204 74.0851 4.47756 74.4808C5.37309 74.8764 6.11935 75.9644 6.11935 76.8546Z" fill="#F05A46" stroke="#323232" stroke-width="0.7" stroke-miterlimit="10" stroke-linecap="round" stroke-linejoin="round"/>
<path d="M79.1043 155.391C79.1043 156.578 78.0595 157.072 76.8655 156.479C75.6715 155.885 74.776 154.5 74.776 153.412C74.776 152.324 75.6715 151.731 76.8655 152.324C78.2088 152.819 79.1043 154.204 79.1043 155.391Z" fill="white" stroke="#323232" stroke-width="0.7" stroke-miterlimit="10" stroke-linecap="round" stroke-linejoin="round"/>
<path d="M78.5077 155.589C78.5077 156.775 77.4629 157.27 76.2689 156.677C75.0749 156.083 74.1794 154.698 74.1794 153.61C74.1794 152.522 75.0749 151.929 76.2689 152.522C77.4629 153.017 78.5077 154.402 78.5077 155.589Z" fill="white" stroke="#323232" stroke-width="0.7" stroke-miterlimit="10" stroke-linecap="round" stroke-linejoin="round"/>
<path d="M77.4627 155.193C77.4627 155.984 76.8657 156.281 75.9702 155.885C75.2239 155.49 74.4777 154.599 74.4777 153.808C74.4777 153.017 75.0747 152.72 75.9702 153.116C76.7165 153.511 77.4627 154.402 77.4627 155.193Z" fill="white" stroke="#323232" stroke-width="0.7" stroke-miterlimit="10" stroke-linecap="round" stroke-linejoin="round"/>
<path d="M76.2689 154.698C76.2689 154.5 76.1196 154.303 75.9704 154.204C75.8211 154.204 75.8211 154.204 75.6719 154.204H69.254L70.1495 155.885L76.1196 154.995C76.1196 154.896 76.2689 154.797 76.2689 154.698Z" fill="white" stroke="#323232" stroke-width="0.7" stroke-miterlimit="10" stroke-linecap="round" stroke-linejoin="round"/>
<path d="M70.2986 155.391C70.2986 155.786 70.0001 155.984 69.5524 155.786C69.1046 155.589 68.8061 155.094 68.8061 154.599C68.8061 154.105 69.1046 154.006 69.5524 154.204C70.0001 154.402 70.2986 154.896 70.2986 155.391Z" fill="white" stroke="#323232" stroke-width="0.7" stroke-miterlimit="10" stroke-linecap="round" stroke-linejoin="round"/>
<path d="M64.1791 148.961C64.1791 150.148 63.1344 150.643 61.9403 150.049C60.7463 149.456 59.8508 148.071 59.8508 146.983C59.8508 145.895 60.7463 145.302 61.9403 145.895C63.2836 146.39 64.1791 147.774 64.1791 148.961Z" fill="white" stroke="#323232" stroke-width="0.7" stroke-miterlimit="10" stroke-linecap="round" stroke-linejoin="round"/>
<path d="M63.5825 149.159C63.5825 150.346 62.5377 150.841 61.3437 150.247C60.1497 149.654 59.2542 148.269 59.2542 147.181C59.2542 146.093 60.1497 145.5 61.3437 146.093C62.5377 146.588 63.5825 147.972 63.5825 149.159Z" fill="white" stroke="#323232" stroke-width="0.7" stroke-miterlimit="10" stroke-linecap="round" stroke-linejoin="round"/>
<path d="M62.5375 148.863C62.5375 149.654 61.9405 149.951 61.045 149.555C60.2987 149.159 59.5524 148.269 59.5524 147.478C59.5524 146.686 60.1495 146.39 61.045 146.785C61.9405 147.082 62.5375 148.071 62.5375 148.863Z" fill="white" stroke="#323232" stroke-width="0.7" stroke-miterlimit="10" stroke-linecap="round" stroke-linejoin="round"/>
<path d="M61.3437 148.269C61.3437 148.071 61.1944 147.873 61.0452 147.775C60.8959 147.775 60.8959 147.775 60.7467 147.775H54.3287L55.2243 149.456L61.1944 148.566C61.1944 148.467 61.3437 148.368 61.3437 148.269Z" fill="white" stroke="#323232" stroke-width="0.7" stroke-miterlimit="10" stroke-linecap="round" stroke-linejoin="round"/>
<path d="M55.3734 148.961C55.3734 149.357 55.0749 149.555 54.6271 149.357C54.1794 149.159 53.8809 148.665 53.8809 148.17C53.8809 147.676 54.1794 147.577 54.6271 147.774C55.0749 147.972 55.3734 148.566 55.3734 148.961Z" fill="white" stroke="#323232" stroke-width="0.7" stroke-miterlimit="10" stroke-linecap="round" stroke-linejoin="round"/>
<path d="M49.2538 142.532C49.2538 143.719 48.209 144.214 47.015 143.62C45.8209 143.027 44.9254 141.642 44.9254 140.554C44.9254 139.466 45.8209 138.872 47.015 139.466C48.3583 140.059 49.2538 141.444 49.2538 142.532Z" fill="white" stroke="#323232" stroke-width="0.7" stroke-miterlimit="10" stroke-linecap="round" stroke-linejoin="round"/>
<path d="M48.6565 142.73C48.6565 143.917 47.6118 144.411 46.4177 143.818C45.2237 143.225 44.3282 141.84 44.3282 140.752C44.3282 139.664 45.2237 139.07 46.4177 139.664C47.6118 140.158 48.6565 141.543 48.6565 142.73Z" fill="white" stroke="#323232" stroke-width="0.7" stroke-miterlimit="10" stroke-linecap="round" stroke-linejoin="round"/>
<path d="M47.6116 142.433C47.6116 143.225 47.0146 143.521 46.119 143.126C45.3728 142.73 44.6265 141.84 44.6265 141.049C44.6265 140.257 45.2235 139.96 46.119 140.356C47.0146 140.653 47.6116 141.642 47.6116 142.433Z" fill="white" stroke="#323232" stroke-width="0.7" stroke-miterlimit="10" stroke-linecap="round" stroke-linejoin="round"/>
<path d="M46.4177 141.939C46.4177 141.741 46.2684 141.543 46.1192 141.444C45.9699 141.444 45.9699 141.444 45.8207 141.444H39.4028L40.2983 143.126L46.2684 142.235C46.2684 142.038 46.4177 142.038 46.4177 141.939Z" fill="white" stroke="#323232" stroke-width="0.7" stroke-miterlimit="10" stroke-linecap="round" stroke-linejoin="round"/>
<path d="M40.5969 142.532C40.5969 142.928 40.2984 143.126 39.8506 142.928C39.4028 142.73 39.1043 142.235 39.1043 141.741C39.1043 141.246 39.4028 141.147 39.8506 141.345C40.1491 141.642 40.5969 142.137 40.5969 142.532Z" fill="white" stroke="#323232" stroke-width="0.7" stroke-miterlimit="10" stroke-linecap="round" stroke-linejoin="round"/>
<path d="M34.3282 136.202C34.3282 137.389 33.2834 137.883 32.0893 137.29C30.8953 136.696 29.9998 135.312 29.9998 134.224C29.9998 133.136 30.8953 132.542 32.0893 133.136C33.4326 133.63 34.3282 135.015 34.3282 136.202Z" fill="white" stroke="#323232" stroke-width="0.7" stroke-miterlimit="10" stroke-linecap="round" stroke-linejoin="round"/>
<path d="M33.7308 136.301C33.7308 137.488 32.686 137.982 31.492 137.389C30.2979 136.795 29.4024 135.41 29.4024 134.322C29.4024 133.234 30.2979 132.641 31.492 133.234C32.8353 133.828 33.7308 135.213 33.7308 136.301Z" fill="white" stroke="#323232" stroke-width="0.7" stroke-miterlimit="10" stroke-linecap="round" stroke-linejoin="round"/>
<path d="M32.6859 136.004C32.6859 136.795 32.0889 137.092 31.1934 136.696C30.4471 136.301 29.7009 135.411 29.7009 134.619C29.7009 133.828 30.2979 133.531 31.1934 133.927C32.0889 134.322 32.6859 135.213 32.6859 136.004Z" fill="white" stroke="#323232" stroke-width="0.7" stroke-miterlimit="10" stroke-linecap="round" stroke-linejoin="round"/>
<path d="M31.4919 135.509C31.4919 135.312 31.3427 135.114 31.1934 135.015C31.0442 135.015 31.0442 135.015 30.8949 135.015H24.477L25.3725 136.696L31.3427 135.806C31.3427 135.707 31.4919 135.608 31.4919 135.509Z" fill="white" stroke="#323232" stroke-width="0.7" stroke-miterlimit="10" stroke-linecap="round" stroke-linejoin="round"/>
<path d="M25.6712 136.202C25.6712 136.597 25.3727 136.795 24.925 136.597C24.4772 136.4 24.1787 135.905 24.1787 135.41C24.1787 134.916 24.4772 134.817 24.925 135.015C25.2235 135.213 25.6712 135.707 25.6712 136.202Z" fill="white" stroke="#323232" stroke-width="0.7" stroke-miterlimit="10" stroke-linecap="round" stroke-linejoin="round"/>
<path d="M19.4033 129.773C19.4033 130.959 18.3586 131.454 17.1645 130.861C15.9705 130.267 15.075 128.882 15.075 127.794C15.075 126.706 15.9705 126.113 17.1645 126.706C18.5078 127.201 19.4033 128.586 19.4033 129.773Z" fill="white" stroke="#323232" stroke-width="0.7" stroke-miterlimit="10" stroke-linecap="round" stroke-linejoin="round"/>
<path d="M18.8061 129.97C18.8061 131.157 17.7614 131.652 16.5673 131.058C15.3733 130.465 14.4778 129.08 14.4778 127.992C14.4778 126.904 15.3733 126.311 16.5673 126.904C17.9106 127.399 18.8061 128.783 18.8061 129.97Z" fill="white" stroke="#323232" stroke-width="0.7" stroke-miterlimit="10" stroke-linecap="round" stroke-linejoin="round"/>
<path d="M17.7611 129.575C17.7611 130.366 17.1641 130.663 16.2686 130.267C15.5223 129.871 14.776 128.981 14.776 128.19C14.776 127.399 15.3731 127.102 16.2686 127.497C17.1641 127.893 17.7611 128.783 17.7611 129.575Z" fill="white" stroke="#323232" stroke-width="0.7" stroke-miterlimit="10" stroke-linecap="round" stroke-linejoin="round"/>
<path d="M16.5673 129.08C16.5673 128.882 16.418 128.685 16.2688 128.586C16.1195 128.586 16.1195 128.586 15.9703 128.586H9.55235L10.4479 130.267L16.418 129.377C16.5673 129.278 16.5673 129.179 16.5673 129.08Z" fill="white" stroke="#323232" stroke-width="0.7" stroke-miterlimit="10" stroke-linecap="round" stroke-linejoin="round"/>
<path d="M10.7464 129.772C10.7464 130.168 10.4479 130.366 10.0002 130.168C9.5524 129.97 9.25389 129.476 9.25389 128.981C9.25389 128.586 9.5524 128.388 10.0002 128.586C10.2987 128.783 10.7464 129.377 10.7464 129.772Z" fill="white" stroke="#323232" stroke-width="0.7" stroke-miterlimit="10" stroke-linecap="round" stroke-linejoin="round"/>
</svg>
