<svg width="1440" height="810" fill="none" xmlns="http://www.w3.org/2000/svg"><path d="M430.456 608.968c.172.64.444 1.079.817 1.317.384.245.806.306 1.266.183l.095-.026c.496-.133.823-.389.982-.77.17-.374.188-.814.052-1.319-.13-.486-.344-.854-.643-1.103a2.487 2.487 0 00-1.055-.529l.425-1.012c.22.066.443.157.666.271.236.12.456.274.66.461.205.186.392.416.562.69.17.273.305.599.407.978.106.396.152.785.138 1.166a2.541 2.541 0 01-.217 1.029 2.105 2.105 0 01-.58.808c-.257.233-.574.4-.953.501a2.25 2.25 0 01-.865.073 2.027 2.027 0 01-.737-.209 2.314 2.314 0 01-.615-.458 2.806 2.806 0 01-.473-.627l-.054.014a2.81 2.81 0 01-.075.803 2.123 2.123 0 01-.303.762c-.138.24-.333.452-.583.635-.239.19-.535.332-.886.426a2.817 2.817 0 01-1.184.071 2.645 2.645 0 01-1.04-.417 3.267 3.267 0 01-.826-.866 4.212 4.212 0 01-.554-1.257 4.103 4.103 0 01-.155-1.119c.006-.339.053-.651.141-.936.088-.284.201-.547.34-.787.141-.231.296-.446.464-.646l.878.678c-.158.168-.296.34-.413.517a2.36 2.36 0 00-.366 1.228c.004.231.044.491.121.779.179.667.463 1.132.853 1.395.398.261.877.316 1.435.166l.109-.029c.559-.149.941-.436 1.147-.858.214-.425.232-.97.054-1.638l-.298-1.108.988-.265.275 1.028zm-3.248 10.271c-.302-1.127-.095-2.067.621-2.819.719-.743 1.849-1.321 3.391-1.735 1.542-.413 2.809-.477 3.804-.193.996.294 1.645 1.004 1.947 2.131.302 1.127.094 2.062-.625 2.805-.716.753-1.845 1.335-3.387 1.748-1.541.414-2.811.473-3.807.18-.994-.284-1.642-.99-1.944-2.117zm.987-.264c.099.369.26.664.483.885.224.22.497.374.82.461.323.088.683.117 1.081.087.401-.02.831-.092 1.29-.215l1.542-.413c.46-.123.868-.276 1.225-.459.359-.173.657-.379.893-.616s.396-.507.479-.809c.083-.303.075-.639-.024-1.009-.099-.369-.26-.664-.483-.885a1.824 1.824 0 00-.82-.461 3.463 3.463 0 00-1.085-.101 6.95 6.95 0 00-1.286.229l-1.542.413c-.46.123-.869.272-1.229.445a3.485 3.485 0 00-.889.63 1.819 1.819 0 00-.479.809c-.083.303-.075.639.024 1.009zm.96 6.882l11.193 4.016.279 1.041-11.193-4.016-.279-1.041zm4.391-.597c-.183-.685-.099-1.273.252-1.763.361-.493.979-.857 1.853-1.091.875-.234 1.587-.227 2.137.022.558.246.93.712 1.113 1.397.184.685.095 1.274-.266 1.767-.351.491-.964.853-1.839 1.087-.874.235-1.591.229-2.15-.018-.55-.249-.916-.716-1.1-1.401zm.703-.188c.208.775.835 1.023 1.881.742l.811-.217c1.046-.28 1.465-.808 1.257-1.583-.208-.776-.834-1.023-1.88-.743l-.812.218c-1.045.28-1.464.807-1.257 1.583zm-3.368 7.874c-.184-.685-.1-1.273.252-1.763.36-.493.978-.857 1.853-1.091.874-.234 1.586-.227 2.136.022.559.246.93.712 1.114 1.397.183.685.095 1.274-.266 1.767-.352.491-.965.853-1.839 1.087-.875.235-1.592.228-2.15-.018-.55-.249-.917-.716-1.1-1.401zm.703-.188c.207.775.834 1.022 1.88.742l.811-.217c1.046-.28 1.465-.808 1.257-1.583-.207-.776-.834-1.023-1.88-.743l-.811.217c-1.046.281-1.465.808-1.257 1.584z" fill="#fff"/><g clip-path="url(#clip0)"><path d="M455.42 586.073a.67.67 0 01-.472.816l-1.932.518a.669.669 0 01-.75-.978.668.668 0 01.405-.31l1.932-.518a.667.667 0 01.817.472zm-9.66 2.588a.667.667 0 01-.471.816l-1.932.518a.663.663 0 01-.816-.472.665.665 0 01.471-.816l1.932-.518a.662.662 0 01.816.472zm4.946 5.577a.672.672 0 01-.817-.472l-.518-1.932a.666.666 0 111.288-.345l.518 1.932a.668.668 0 01-.471.817zm-2.589-9.66a.669.669 0 01-.816-.471l-.518-1.932a.663.663 0 01.472-.816.665.665 0 01.816.471l.518 1.932a.668.668 0 01-.472.816zm-2.47 8.993a.668.668 0 01-.244-.91l1-1.732a.666.666 0 011.154.667l-.999 1.731a.66.66 0 01-.405.311.652.652 0 01-.506-.067zm5-8.66a.67.67 0 01-.244-.911l.999-1.731a.665.665 0 01.911-.244.667.667 0 01.245.911l-1.001 1.731a.663.663 0 01-.91.244zm-7.44-.446a.666.666 0 01.91-.244l1.732 1a.646.646 0 01.2.171.649.649 0 01.138.496.673.673 0 01-.258.447.649.649 0 01-.499.129.677.677 0 01-.247-.088l-1.732-.999a.677.677 0 01-.328-.665.659.659 0 01.084-.247zm8.66 5a.67.67 0 01.911-.244l1.731.999a.666.666 0 11-.666 1.155l-1.732-1a.663.663 0 01-.244-.91z" fill="#fff"/></g><path d="M447.575 601.873l1.001-.268.706 2.637 7.6-2.036-.025-.095-2.856-1.786.54-.854 3.009 1.874.475 1.772-8.438 2.261.652 2.434-1.001.268-1.663-6.207zm3.821 14.262l-1.659-6.194 1.163-.311 3.666 2.322a7.195 7.195 0 001.582.765c.539.174 1.039.199 1.499.076l.162-.043c.523-.14.908-.398 1.155-.774.247-.375.292-.856.135-1.442a2.219 2.219 0 00-.324-.724 1.856 1.856 0 00-.491-.478 2.122 2.122 0 00-.618-.254 3.287 3.287 0 00-.688-.077l.121-1.119c.303.015.606.064.909.147.314.09.606.224.876.403.273.188.517.432.732.732.218.308.389.693.512 1.153.123.459.166.888.127 1.284-.039.397-.147.75-.325 1.059-.178.308-.417.57-.717.786a3.024 3.024 0 01-1.055.5 3.247 3.247 0 01-1.071.113 4.034 4.034 0 01-1.018-.176 5.671 5.671 0 01-1.003-.442 14.61 14.61 0 01-1.032-.607l-2.967-1.93 1.33 4.963-1.001.268zm1.203 5.136c-.302-1.127-.095-2.066.621-2.819.719-.743 1.849-1.321 3.391-1.735 1.542-.413 2.809-.477 3.804-.193.996.294 1.645 1.004 1.947 2.131.302 1.127.094 2.062-.625 2.805-.716.753-1.845 1.335-3.387 1.749-1.541.413-2.811.472-3.807.179-.994-.284-1.642-.99-1.944-2.117zm.987-.264c.099.369.26.664.483.885.224.22.497.374.82.461.323.088.683.117 1.081.087.401-.02.831-.092 1.291-.215l1.541-.413c.46-.123.868-.276 1.225-.459.359-.173.657-.379.893-.616s.396-.507.479-.809c.083-.303.075-.639-.024-1.009-.099-.369-.26-.664-.483-.885a1.824 1.824 0 00-.82-.461 3.463 3.463 0 00-1.085-.101c-.398.03-.827.106-1.286.229l-1.542.413c-.46.123-.869.272-1.229.445a3.485 3.485 0 00-.889.63 1.819 1.819 0 00-.479.809c-.083.303-.075.639.024 1.009zm1.222 8.508c-.302-1.127-.095-2.067.621-2.819.719-.743 1.849-1.322 3.391-1.735 1.541-.413 2.809-.477 3.803-.193.997.294 1.646 1.004 1.948 2.131.302 1.127.094 2.062-.625 2.805-.716.752-1.845 1.335-3.387 1.748-1.542.413-2.811.473-3.807.18-.994-.285-1.642-.99-1.944-2.117zm.987-.265c.099.37.26.665.483.885.224.221.497.375.82.462.323.087.683.116 1.081.087.401-.02.831-.092 1.29-.215l1.542-.413c.46-.124.868-.276 1.225-.459a3.24 3.24 0 00.893-.616c.236-.237.396-.507.479-.81.083-.302.075-.638-.024-1.008-.099-.369-.26-.664-.483-.885a1.824 1.824 0 00-.82-.461 3.466 3.466 0 00-1.085-.101 6.892 6.892 0 00-1.287.229l-1.541.413c-.46.123-.869.271-1.229.445a3.46 3.46 0 00-.889.63 1.819 1.819 0 00-.479.809c-.083.303-.075.639.024 1.008zm1.831 10.133l-.305-1.136 9.439-2.529 1.008 3.759c.222.829.165 1.536-.172 2.119-.334.592-.934 1.004-1.799 1.235-.694.187-1.31.178-1.848-.026-.526-.197-.945-.588-1.256-1.171l-3.585 3.28-.345-1.285 3.51-3.129-.59-2.204-4.057 1.087zm5.733 1.275c.121.451.331.767.631.947.302.19.669.227 1.102.111l.703-.189c.433-.115.733-.331.899-.646.17-.307.194-.685.073-1.136l-.703-2.623-3.408.913.703 2.623zm-3.684 6.374l9.439-2.529 1.008 3.759c.227.848.157 1.562-.209 2.143-.354.588-.951.994-1.789 1.219-.839.225-1.563.172-2.173-.157-.599-.323-1.011-.908-1.239-1.755l-.702-2.624-4.03 1.08-.305-1.136zm5.335-.212l.703 2.623c.121.451.331.767.631.948.302.189.669.226 1.102.11l.703-.188c.433-.116.733-.332.899-.647.17-.306.194-.685.073-1.136l-.703-2.623-3.408.913zm6.822 13.774l-.018-.068-1.796-.373-4.717-1.157 3.506-3.36 1.369-1.222-.018-.068-7.952 2.131-.297-1.109 9.439-2.529.406 1.515-4.36 4.067.018.067 5.813 1.356.391 1.46-9.439 2.53-.297-1.109 7.952-2.131z" fill="#fff"/><defs><clipPath id="clip0"><path fill="#fff" transform="rotate(75 -149.314 585.247)" d="M0 0h16v16H0z"/></clipPath></defs></svg>