<svg width="1440" height="810" viewBox="0 0 1440 810" fill="none" xmlns="http://www.w3.org/2000/svg">
<g clip-path="url(#clip0)">
<path d="M383.427 320.002L384.117 322.578L378.322 324.131L377.632 321.555L383.427 320.002ZM388.419 328.327L389.109 330.903L380.737 333.146L380.047 330.571L388.419 328.327ZM391.075 322.785L391.765 325.36L379.53 328.639L378.839 326.063L391.075 322.785Z" fill="white"/>
</g>
<path d="M385.177 345.85L387.709 344.157L386.687 340.344L383.648 340.143L383.34 338.994L393.663 339.764L394.05 341.211L385.495 347.04L385.177 345.85ZM392.804 340.777L392.785 340.71L387.76 340.346L388.633 343.605L392.804 340.777ZM386.627 351.911C386.305 350.712 386.461 349.67 387.094 348.786C387.735 347.899 388.85 347.243 390.436 346.818C392.023 346.392 393.329 346.4 394.356 346.84C395.391 347.278 396.069 348.096 396.39 349.295C396.603 350.088 396.6 350.799 396.382 351.428C396.166 352.065 395.769 352.621 395.191 353.095L394.39 352.324C394.826 352.004 395.137 351.612 395.321 351.147C395.515 350.679 395.533 350.153 395.376 349.567C395.267 349.161 395.093 348.816 394.853 348.533C394.615 348.258 394.322 348.047 393.973 347.899C393.635 347.758 393.252 347.681 392.824 347.67C392.405 347.657 391.952 347.716 391.466 347.846L390.059 348.223C389.085 348.484 388.384 348.913 387.955 349.512C387.526 350.11 387.421 350.819 387.641 351.639C387.803 352.243 388.091 352.707 388.507 353.031C388.931 353.352 389.425 353.538 389.99 353.59L389.665 354.648C388.918 354.529 388.276 354.242 387.738 353.787C387.21 353.33 386.839 352.704 386.627 351.911ZM397.474 357.992L389.036 360.253L388.732 359.117L397.17 356.856L396.365 353.854L397.366 353.586L399.279 360.726L398.279 360.994L397.474 357.992ZM400.019 363.488L394.178 365.054C393.276 365.295 392.636 365.646 392.256 366.105C391.886 366.561 391.813 367.209 392.038 368.048C392.262 368.886 392.649 369.41 393.198 369.621C393.756 369.829 394.486 369.812 395.388 369.57L401.23 368.005L401.534 369.141L395.963 370.634C395.277 370.817 394.666 370.914 394.127 370.923C393.591 370.941 393.119 370.859 392.713 370.678C392.307 370.497 391.964 370.207 391.683 369.809C391.405 369.42 391.182 368.91 391.012 368.279C390.843 367.648 390.782 367.094 390.828 366.618C390.877 366.151 391.033 365.742 391.297 365.391C391.56 365.04 391.929 364.738 392.402 364.486C392.878 364.242 393.458 364.029 394.144 363.845L399.715 362.352L400.019 363.488ZM394.324 379.987L396.856 378.294L395.834 374.481L392.795 374.281L392.487 373.131L402.81 373.901L403.197 375.348L394.642 381.177L394.324 379.987ZM401.951 374.914L401.932 374.847L396.907 374.483L397.78 377.742L401.951 374.914ZM395.098 382.876L404.537 380.347L404.841 381.483L396.403 383.744L397.479 387.76L396.478 388.028L395.098 382.876ZM394.695 389.541L407.69 389.842L407.95 390.815L394.956 390.514L394.695 389.541ZM398.959 397.937C398.754 397.171 398.723 396.479 398.867 395.86C399.019 395.24 399.302 394.671 399.714 394.155L400.642 394.805C400.29 395.257 400.051 395.717 399.925 396.186C399.808 396.652 399.824 397.16 399.971 397.71C400.152 398.386 400.452 398.856 400.871 399.121C401.292 399.394 401.773 399.459 402.314 399.314C402.765 399.193 403.076 398.965 403.247 398.629C403.418 398.293 403.492 397.795 403.469 397.135L403.439 396.317C403.405 395.398 403.525 394.656 403.798 394.09C404.083 393.53 404.591 393.153 405.321 392.957C405.736 392.846 406.126 392.823 406.492 392.89C406.857 392.956 407.184 393.095 407.473 393.308C407.765 393.529 408.015 393.815 408.225 394.165C408.446 394.521 408.618 394.929 408.741 395.389C408.932 396.101 408.964 396.744 408.838 397.319C408.714 397.903 408.447 398.439 408.036 398.926L407.186 398.24C407.477 397.882 407.676 397.491 407.784 397.065C407.893 396.64 407.873 396.153 407.726 395.603C407.564 394.999 407.305 394.556 406.95 394.274C406.605 393.999 406.176 393.931 405.662 394.068C405.212 394.189 404.908 394.425 404.751 394.777C404.605 395.134 404.544 395.629 404.568 396.26L404.599 397.078C404.641 398.062 404.505 398.819 404.193 399.347C403.88 399.875 403.372 400.233 402.669 400.422C402.236 400.538 401.823 400.566 401.431 400.507C401.04 400.457 400.686 400.325 400.368 400.111C400.05 399.896 399.769 399.605 399.525 399.235C399.283 398.875 399.095 398.442 398.959 397.937ZM409.797 403.981L401.359 406.242L401.054 405.106L409.493 402.845L408.688 399.843L409.689 399.575L411.602 406.715L410.601 406.983L409.797 403.981ZM403.963 415.963L406.495 414.27L405.474 410.457L402.434 410.256L402.126 409.107L412.449 409.877L412.837 411.324L404.282 417.153L403.963 415.963ZM411.59 410.89L411.572 410.823L406.547 410.459L407.42 413.718L411.59 410.89ZM411.111 419.594L412.902 417.896L412.891 417.856L405.035 419.961L404.737 418.852L414.176 416.323L414.528 417.634L409.691 422.626L407.899 424.324L407.91 424.365L415.767 422.259L416.064 423.368L406.625 425.897L406.274 424.586L411.111 419.594ZM416.775 426.019L417.622 429.183C417.779 429.769 417.823 430.328 417.753 430.859C417.682 431.39 417.493 431.875 417.186 432.315C416.89 432.762 416.469 433.155 415.922 433.494C415.385 433.832 414.724 434.105 413.939 434.316C413.155 434.526 412.441 434.62 411.798 434.6C411.163 434.576 410.602 434.446 410.114 434.21C409.637 433.98 409.235 433.653 408.908 433.229C408.582 432.804 408.34 432.299 408.183 431.713L407.336 428.548L416.775 426.019ZM409.184 431.444C409.288 431.832 409.447 432.171 409.66 432.462C409.882 432.75 410.151 432.978 410.466 433.145C410.781 433.311 411.136 433.41 411.53 433.439C411.936 433.475 412.374 433.431 412.842 433.305L414.384 432.892C414.853 432.766 415.249 432.588 415.574 432.356C415.909 432.131 416.172 431.867 416.362 431.565C416.551 431.263 416.666 430.933 416.705 430.574C416.753 430.213 416.726 429.839 416.622 429.452L416.078 427.423L408.641 429.416L409.184 431.444ZM411.344 443.507L413.876 441.814L412.854 438.001L409.815 437.8L409.507 436.651L419.83 437.421L420.217 438.868L411.663 444.697L411.344 443.507ZM418.971 438.434L418.953 438.367L413.927 438.003L414.8 441.262L418.971 438.434ZM412.422 447.532L412.118 446.396L421.557 443.867L422.564 447.626C422.786 448.456 422.729 449.162 422.393 449.745C422.058 450.337 421.459 450.749 420.593 450.981C419.899 451.167 419.283 451.158 418.745 450.954C418.219 450.757 417.8 450.366 417.489 449.783L413.904 453.063L413.56 451.778L417.07 448.649L416.479 446.445L412.422 447.532ZM418.156 448.807C418.276 449.258 418.487 449.574 418.786 449.754C419.088 449.944 419.456 449.981 419.888 449.865L420.592 449.677C421.024 449.561 421.324 449.345 421.491 449.03C421.66 448.724 421.684 448.345 421.563 447.894L420.86 445.271L417.453 446.184L418.156 448.807ZM423.911 452.652L424.759 455.816C424.916 456.402 424.959 456.961 424.889 457.492C424.818 458.023 424.63 458.508 424.322 458.948C424.026 459.394 423.605 459.787 423.059 460.127C422.521 460.465 421.86 460.738 421.075 460.948C420.291 461.159 419.577 461.253 418.934 461.232C418.3 461.209 417.738 461.079 417.25 460.843C416.773 460.613 416.371 460.286 416.045 459.861C415.718 459.437 415.477 458.931 415.32 458.345L414.472 455.181L423.911 452.652ZM416.32 458.077C416.424 458.465 416.583 458.804 416.796 459.095C417.018 459.383 417.287 459.611 417.602 459.778C417.917 459.944 418.272 460.042 418.667 460.072C419.072 460.108 419.51 460.064 419.979 459.938L421.52 459.525C421.989 459.399 422.386 459.22 422.71 458.989C423.046 458.763 423.308 458.5 423.498 458.198C423.688 457.896 423.802 457.565 423.841 457.207C423.89 456.846 423.862 456.472 423.758 456.084L423.214 454.056L415.777 456.049L416.32 458.077Z" fill="white"/>
<path d="M360.393 346.084L361.394 345.816L362.1 348.453L369.7 346.417L369.675 346.322L366.819 344.536L367.358 343.682L370.368 345.557L370.843 347.328L362.405 349.589L363.057 352.023L362.056 352.291L360.393 346.084ZM364.214 360.346L362.555 354.152L363.718 353.841L367.384 356.163C367.908 356.496 368.435 356.751 368.965 356.928C369.505 357.102 370.005 357.128 370.464 357.004L370.627 356.961C371.15 356.821 371.535 356.563 371.782 356.188C372.029 355.812 372.074 355.331 371.917 354.745C371.84 354.457 371.732 354.215 371.593 354.021C371.453 353.826 371.29 353.667 371.102 353.543C370.917 353.429 370.711 353.344 370.483 353.289C370.268 353.24 370.038 353.215 369.796 353.212L369.917 352.093C370.22 352.108 370.523 352.157 370.826 352.241C371.14 352.33 371.432 352.465 371.702 352.644C371.974 352.831 372.219 353.075 372.434 353.375C372.652 353.684 372.823 354.068 372.946 354.528C373.069 354.988 373.111 355.416 373.073 355.813C373.034 356.21 372.926 356.562 372.748 356.871C372.569 357.18 372.33 357.442 372.031 357.657C371.733 357.882 371.382 358.048 370.976 358.157C370.607 358.256 370.25 358.294 369.905 358.27C369.563 358.256 369.223 358.197 368.887 358.094C368.559 357.988 368.225 357.841 367.884 357.652C367.546 357.472 367.202 357.27 366.852 357.045L363.885 355.115L365.215 360.078L364.214 360.346ZM362.483 362.051L375.477 362.352L375.738 363.325L362.743 363.024L362.483 362.051ZM372.297 368.767C372.469 369.407 372.741 369.846 373.114 370.084C373.498 370.329 373.921 370.39 374.38 370.267L374.475 370.241C374.971 370.108 375.298 369.852 375.457 369.471C375.627 369.097 375.645 368.657 375.51 368.152C375.379 367.666 375.165 367.298 374.866 367.049C374.577 366.798 374.225 366.622 373.811 366.52L374.236 365.508C374.457 365.574 374.679 365.665 374.903 365.779C375.138 365.899 375.358 366.053 375.562 366.24C375.767 366.426 375.954 366.656 376.124 366.93C376.294 367.203 376.43 367.529 376.531 367.908C376.637 368.304 376.684 368.693 376.67 369.074C376.665 369.452 376.592 369.795 376.453 370.103C376.324 370.417 376.131 370.687 375.872 370.911C375.615 371.144 375.298 371.311 374.919 371.412C374.613 371.494 374.324 371.518 374.054 371.485C373.787 371.46 373.541 371.39 373.317 371.276C373.094 371.162 372.888 371.009 372.702 370.818C372.518 370.635 372.36 370.426 372.229 370.191L372.175 370.205C372.189 370.472 372.164 370.74 372.101 371.008C372.049 371.283 371.948 371.537 371.798 371.77C371.659 372.01 371.464 372.222 371.214 372.405C370.975 372.595 370.68 372.737 370.328 372.831C369.922 372.94 369.528 372.963 369.144 372.902C368.769 372.838 368.423 372.699 368.105 372.485C367.795 372.268 367.52 371.979 367.278 371.619C367.037 371.258 366.852 370.839 366.724 370.362C366.615 369.956 366.564 369.583 366.569 369.243C366.575 368.904 366.622 368.592 366.71 368.307C366.798 368.023 366.911 367.76 367.05 367.52C367.191 367.289 367.346 367.074 367.514 366.874L368.392 367.552C368.234 367.72 368.096 367.892 367.979 368.068C367.865 368.254 367.776 368.447 367.714 368.647C367.652 368.847 367.618 369.064 367.613 369.297C367.617 369.528 367.657 369.788 367.735 370.076C367.913 370.743 368.197 371.208 368.587 371.471C368.985 371.732 369.464 371.787 370.023 371.637L370.131 371.608C370.69 371.458 371.072 371.172 371.278 370.75C371.493 370.325 371.51 369.78 371.332 369.112L371.035 368.003L372.022 367.739L372.297 368.767ZM369.049 379.038C368.747 377.911 368.954 376.971 369.67 376.219C370.389 375.476 371.519 374.897 373.061 374.484C374.603 374.071 375.871 374.007 376.865 374.291C377.861 374.585 378.51 375.295 378.812 376.422C379.114 377.549 378.906 378.484 378.187 379.227C377.471 379.98 376.342 380.562 374.8 380.975C373.259 381.388 371.99 381.448 370.993 381.155C369.999 380.871 369.351 380.165 369.049 379.038ZM370.036 378.773C370.135 379.143 370.296 379.438 370.52 379.658C370.743 379.879 371.016 380.033 371.339 380.12C371.662 380.207 372.022 380.237 372.42 380.207C372.821 380.187 373.251 380.115 373.711 379.992L375.252 379.579C375.712 379.456 376.12 379.303 376.477 379.12C376.837 378.947 377.134 378.741 377.37 378.504C377.606 378.267 377.766 377.997 377.849 377.695C377.932 377.392 377.924 377.056 377.825 376.686C377.726 376.317 377.565 376.022 377.342 375.801C377.118 375.581 376.845 375.427 376.522 375.34C376.199 375.252 375.838 375.219 375.437 375.239C375.039 375.268 374.61 375.345 374.151 375.468L372.609 375.881C372.149 376.004 371.74 376.153 371.38 376.326C371.024 376.509 370.727 376.719 370.491 376.956C370.255 377.193 370.096 377.463 370.012 377.765C369.929 378.068 369.937 378.404 370.036 378.773ZM371.563 387.77L381.002 385.241L381.306 386.377L372.868 388.638L373.944 392.654L372.943 392.922L371.563 387.77ZM371.16 394.435L384.154 394.736L384.415 395.709L371.421 395.408L371.16 394.435ZM380.786 405.1L379.507 400.326L375.234 401.471L374.929 400.335L384.368 397.806L384.673 398.942L380.508 400.058L381.787 404.832L385.952 403.716L386.256 404.852L376.817 407.381L376.513 406.245L380.786 405.1Z" fill="white"/>
<g clip-path="url(#clip1)">
<path d="M452.427 580.002L453.117 582.578L447.322 584.131L446.632 581.555L452.427 580.002ZM457.419 588.327L458.109 590.903L449.737 593.146L449.047 590.571L457.419 588.327ZM460.075 582.785L460.765 585.36L448.53 588.639L447.839 586.063L460.075 582.785Z" fill="white"/>
</g>
<path d="M454.177 605.85L456.709 604.157L455.687 600.344L452.648 600.143L452.34 598.994L462.663 599.764L463.05 601.211L454.495 607.04L454.177 605.85ZM461.804 600.777L461.785 600.71L456.76 600.346L457.633 603.605L461.804 600.777ZM455.627 611.911C455.305 610.712 455.461 609.67 456.094 608.786C456.735 607.899 457.85 607.243 459.436 606.818C461.023 606.392 462.329 606.4 463.356 606.84C464.391 607.278 465.069 608.096 465.39 609.295C465.603 610.088 465.6 610.799 465.382 611.428C465.166 612.065 464.769 612.621 464.191 613.095L463.39 612.324C463.826 612.004 464.137 611.612 464.321 611.147C464.515 610.679 464.533 610.153 464.376 609.567C464.267 609.161 464.093 608.816 463.853 608.533C463.615 608.258 463.322 608.047 462.973 607.899C462.635 607.758 462.252 607.681 461.824 607.67C461.405 607.657 460.952 607.716 460.466 607.846L459.059 608.223C458.085 608.484 457.384 608.913 456.955 609.512C456.526 610.11 456.421 610.819 456.641 611.639C456.803 612.243 457.091 612.707 457.507 613.031C457.931 613.352 458.425 613.538 458.99 613.59L458.665 614.648C457.918 614.529 457.276 614.242 456.738 613.787C456.21 613.33 455.839 612.704 455.627 611.911ZM466.474 617.992L458.036 620.253L457.732 619.117L466.17 616.856L465.365 613.854L466.366 613.586L468.279 620.726L467.279 620.994L466.474 617.992ZM469.019 623.488L463.178 625.054C462.276 625.295 461.636 625.646 461.256 626.105C460.886 626.561 460.813 627.209 461.038 628.048C461.262 628.886 461.649 629.41 462.198 629.621C462.756 629.829 463.486 629.812 464.388 629.57L470.23 628.005L470.534 629.141L464.963 630.634C464.277 630.817 463.666 630.914 463.127 630.923C462.591 630.941 462.119 630.859 461.713 630.678C461.307 630.497 460.964 630.207 460.683 629.809C460.405 629.42 460.182 628.91 460.012 628.279C459.843 627.648 459.782 627.094 459.828 626.618C459.877 626.151 460.033 625.742 460.297 625.391C460.56 625.04 460.929 624.738 461.402 624.486C461.878 624.242 462.458 624.029 463.144 623.845L468.715 622.352L469.019 623.488ZM463.324 639.987L465.856 638.294L464.834 634.481L461.795 634.281L461.487 633.131L471.81 633.901L472.197 635.348L463.642 641.177L463.324 639.987ZM470.951 634.914L470.932 634.847L465.907 634.483L466.78 637.742L470.951 634.914ZM464.098 642.876L473.537 640.347L473.841 641.483L465.403 643.744L466.479 647.76L465.478 648.028L464.098 642.876ZM463.695 649.541L476.69 649.842L476.95 650.815L463.956 650.514L463.695 649.541ZM467.959 657.937C467.754 657.171 467.723 656.479 467.867 655.86C468.019 655.24 468.302 654.671 468.714 654.155L469.642 654.805C469.29 655.257 469.051 655.717 468.925 656.186C468.808 656.652 468.824 657.16 468.971 657.71C469.152 658.386 469.452 658.856 469.871 659.121C470.292 659.394 470.773 659.459 471.314 659.314C471.765 659.193 472.076 658.965 472.247 658.629C472.418 658.293 472.492 657.795 472.469 657.135L472.439 656.317C472.405 655.398 472.525 654.656 472.798 654.09C473.083 653.53 473.591 653.153 474.321 652.957C474.736 652.846 475.126 652.823 475.492 652.89C475.857 652.956 476.184 653.095 476.473 653.308C476.765 653.529 477.015 653.815 477.225 654.165C477.446 654.521 477.618 654.929 477.741 655.389C477.932 656.101 477.964 656.744 477.838 657.319C477.714 657.903 477.447 658.439 477.036 658.926L476.186 658.24C476.477 657.882 476.676 657.491 476.784 657.065C476.893 656.64 476.873 656.153 476.726 655.603C476.564 654.999 476.305 654.556 475.95 654.274C475.605 653.999 475.176 653.931 474.662 654.068C474.212 654.189 473.908 654.425 473.751 654.777C473.605 655.134 473.544 655.629 473.568 656.26L473.599 657.078C473.641 658.062 473.505 658.819 473.193 659.347C472.88 659.875 472.372 660.233 471.669 660.422C471.236 660.538 470.823 660.566 470.431 660.507C470.04 660.457 469.686 660.325 469.368 660.111C469.05 659.896 468.769 659.605 468.525 659.235C468.283 658.875 468.095 658.442 467.959 657.937ZM478.797 663.981L470.359 666.242L470.054 665.106L478.493 662.845L477.688 659.843L478.689 659.575L480.602 666.715L479.601 666.983L478.797 663.981ZM472.963 675.963L475.495 674.27L474.474 670.457L471.434 670.256L471.126 669.107L481.449 669.877L481.837 671.324L473.282 677.153L472.963 675.963ZM480.59 670.89L480.572 670.823L475.547 670.459L476.42 673.718L480.59 670.89ZM480.111 679.594L481.902 677.896L481.891 677.856L474.035 679.961L473.737 678.852L483.176 676.323L483.528 677.634L478.691 682.626L476.899 684.324L476.91 684.365L484.767 682.259L485.064 683.368L475.625 685.897L475.274 684.586L480.111 679.594ZM485.775 686.019L486.622 689.183C486.779 689.769 486.823 690.328 486.753 690.859C486.682 691.39 486.493 691.875 486.186 692.315C485.89 692.762 485.469 693.155 484.922 693.494C484.385 693.832 483.724 694.105 482.939 694.316C482.155 694.526 481.441 694.62 480.798 694.6C480.163 694.576 479.602 694.446 479.114 694.21C478.637 693.98 478.235 693.653 477.908 693.229C477.582 692.804 477.34 692.299 477.183 691.713L476.336 688.548L485.775 686.019ZM478.184 691.444C478.288 691.832 478.447 692.171 478.66 692.462C478.882 692.75 479.151 692.978 479.466 693.145C479.781 693.311 480.136 693.41 480.53 693.439C480.936 693.475 481.374 693.431 481.842 693.305L483.384 692.892C483.853 692.766 484.249 692.588 484.574 692.356C484.909 692.131 485.172 691.867 485.362 691.565C485.551 691.263 485.666 690.933 485.705 690.574C485.753 690.213 485.726 689.839 485.622 689.452L485.078 687.423L477.641 689.416L478.184 691.444ZM480.344 703.507L482.876 701.814L481.854 698.001L478.815 697.8L478.507 696.651L488.83 697.421L489.217 698.868L480.663 704.697L480.344 703.507ZM487.971 698.434L487.953 698.367L482.927 698.003L483.8 701.262L487.971 698.434ZM481.422 707.532L481.118 706.396L490.557 703.867L491.564 707.626C491.786 708.456 491.729 709.162 491.393 709.745C491.058 710.337 490.459 710.749 489.593 710.981C488.899 711.167 488.283 711.158 487.745 710.954C487.219 710.757 486.8 710.366 486.489 709.783L482.904 713.063L482.56 711.778L486.07 708.649L485.479 706.445L481.422 707.532ZM487.156 708.807C487.276 709.258 487.487 709.574 487.786 709.754C488.088 709.944 488.456 709.981 488.888 709.865L489.592 709.677C490.024 709.561 490.324 709.345 490.491 709.03C490.66 708.724 490.684 708.345 490.563 707.894L489.86 705.271L486.453 706.184L487.156 708.807ZM492.911 712.652L493.759 715.816C493.916 716.402 493.959 716.961 493.889 717.492C493.818 718.023 493.63 718.508 493.322 718.948C493.026 719.394 492.605 719.787 492.059 720.127C491.521 720.465 490.86 720.738 490.075 720.948C489.291 721.159 488.577 721.253 487.934 721.232C487.3 721.209 486.738 721.079 486.25 720.843C485.773 720.613 485.371 720.286 485.045 719.861C484.718 719.437 484.477 718.931 484.32 718.345L483.472 715.181L492.911 712.652ZM485.32 718.077C485.424 718.465 485.583 718.804 485.796 719.095C486.018 719.383 486.287 719.611 486.602 719.778C486.917 719.944 487.272 720.042 487.667 720.072C488.072 720.108 488.51 720.064 488.979 719.938L490.52 719.525C490.989 719.399 491.386 719.22 491.71 718.989C492.046 718.763 492.308 718.5 492.498 718.198C492.688 717.896 492.802 717.565 492.841 717.207C492.89 716.846 492.862 716.472 492.758 716.084L492.214 714.056L484.777 716.049L485.32 718.077Z" fill="white"/>
<path d="M429.393 606.084L430.394 605.816L431.1 608.453L438.7 606.417L438.675 606.322L435.819 604.536L436.358 603.682L439.368 605.557L439.843 607.328L431.405 609.589L432.057 612.023L431.056 612.291L429.393 606.084ZM433.214 620.346L431.555 614.152L432.718 613.841L436.384 616.163C436.908 616.496 437.435 616.751 437.965 616.928C438.505 617.102 439.005 617.128 439.464 617.004L439.627 616.961C440.15 616.821 440.535 616.563 440.782 616.188C441.029 615.812 441.074 615.331 440.917 614.745C440.84 614.457 440.732 614.215 440.593 614.021C440.453 613.826 440.29 613.667 440.102 613.543C439.917 613.429 439.711 613.344 439.483 613.289C439.268 613.24 439.038 613.215 438.796 613.212L438.917 612.093C439.22 612.108 439.523 612.157 439.826 612.241C440.14 612.33 440.432 612.465 440.702 612.644C440.974 612.831 441.219 613.075 441.434 613.375C441.652 613.684 441.823 614.068 441.946 614.528C442.069 614.988 442.111 615.416 442.073 615.813C442.034 616.21 441.926 616.562 441.748 616.871C441.569 617.18 441.33 617.442 441.031 617.657C440.733 617.882 440.382 618.048 439.976 618.157C439.607 618.256 439.25 618.294 438.905 618.27C438.563 618.256 438.223 618.197 437.887 618.094C437.559 617.988 437.225 617.841 436.884 617.652C436.546 617.472 436.202 617.27 435.852 617.045L432.885 615.115L434.215 620.078L433.214 620.346ZM434.417 625.482C434.115 624.355 434.322 623.416 435.038 622.663C435.757 621.92 436.887 621.342 438.429 620.929C439.97 620.516 441.238 620.451 442.232 620.736C443.229 621.029 443.878 621.739 444.18 622.866C444.482 623.993 444.274 624.928 443.555 625.672C442.839 626.424 441.71 627.007 440.168 627.42C438.626 627.833 437.357 627.893 436.361 627.599C435.367 627.315 434.719 626.609 434.417 625.482ZM435.404 625.218C435.503 625.587 435.664 625.882 435.887 626.103C436.111 626.323 436.384 626.477 436.707 626.564C437.03 626.652 437.39 626.681 437.788 626.651C438.189 626.631 438.619 626.559 439.078 626.436L440.62 626.023C441.08 625.9 441.488 625.747 441.845 625.564C442.204 625.391 442.502 625.185 442.738 624.948C442.974 624.711 443.134 624.441 443.217 624.139C443.3 623.836 443.292 623.5 443.193 623.131C443.094 622.761 442.933 622.466 442.709 622.246C442.486 622.025 442.213 621.871 441.89 621.784C441.567 621.697 441.205 621.663 440.805 621.683C440.407 621.713 439.978 621.789 439.518 621.912L437.977 622.325C437.517 622.448 437.108 622.597 436.748 622.77C436.391 622.953 436.095 623.163 435.859 623.4C435.623 623.637 435.463 623.907 435.38 624.21C435.297 624.512 435.305 624.848 435.404 625.218ZM436.626 633.726C436.324 632.599 436.531 631.659 437.247 630.907C437.966 630.164 439.096 629.585 440.638 629.172C442.179 628.759 443.447 628.695 444.441 628.979C445.438 629.273 446.087 629.983 446.389 631.11C446.691 632.237 446.483 633.172 445.764 633.915C445.048 634.668 443.919 635.25 442.377 635.663C440.835 636.076 439.566 636.136 438.57 635.843C437.576 635.559 436.927 634.853 436.626 633.726ZM437.613 633.461C437.712 633.831 437.873 634.126 438.096 634.346C438.32 634.567 438.593 634.721 438.916 634.808C439.239 634.896 439.599 634.925 439.997 634.895C440.397 634.875 440.827 634.803 441.287 634.68L442.829 634.267C443.289 634.144 443.697 633.991 444.054 633.808C444.413 633.635 444.711 633.429 444.947 633.192C445.183 632.955 445.342 632.685 445.426 632.383C445.509 632.08 445.501 631.744 445.402 631.374C445.303 631.005 445.142 630.71 444.918 630.489C444.695 630.269 444.422 630.115 444.099 630.028C443.776 629.94 443.414 629.907 443.014 629.927C442.616 629.956 442.187 630.033 441.727 630.156L440.186 630.569C439.726 630.692 439.316 630.841 438.957 631.014C438.6 631.197 438.304 631.407 438.068 631.644C437.832 631.881 437.672 632.151 437.589 632.453C437.506 632.756 437.514 633.092 437.613 633.461ZM435.9 638.538L448.895 638.839L449.156 639.813L436.161 639.512L435.9 638.538ZM445.715 645.254C445.886 645.894 446.159 646.333 446.532 646.572C446.916 646.816 447.338 646.877 447.798 646.754L447.893 646.729C448.389 646.596 448.716 646.339 448.875 645.958C449.045 645.584 449.063 645.145 448.927 644.64C448.797 644.153 448.582 643.785 448.284 643.537C447.995 643.286 447.643 643.109 447.229 643.008L447.654 641.995C447.874 642.062 448.097 642.152 448.32 642.266C448.556 642.387 448.775 642.54 448.98 642.727C449.185 642.914 449.372 643.144 449.542 643.417C449.712 643.69 449.847 644.016 449.949 644.395C450.055 644.792 450.101 645.18 450.087 645.561C450.082 645.939 450.01 646.282 449.87 646.59C449.742 646.905 449.548 647.174 449.29 647.398C449.033 647.631 448.716 647.798 448.337 647.9C448.03 647.982 447.742 648.006 447.472 647.972C447.205 647.947 446.959 647.878 446.735 647.764C446.511 647.65 446.306 647.497 446.12 647.305C445.935 647.123 445.778 646.914 445.647 646.678L445.593 646.693C445.607 646.96 445.582 647.227 445.518 647.495C445.466 647.77 445.365 648.024 445.215 648.258C445.077 648.498 444.882 648.709 444.632 648.893C444.393 649.082 444.097 649.224 443.746 649.318C443.34 649.427 442.945 649.451 442.562 649.389C442.187 649.325 441.841 649.186 441.522 648.972C441.213 648.755 440.938 648.467 440.696 648.106C440.455 647.746 440.27 647.327 440.142 646.849C440.033 646.443 439.982 646.071 439.987 645.731C439.993 645.391 440.04 645.079 440.128 644.795C440.216 644.51 440.329 644.248 440.468 644.008C440.609 643.777 440.763 643.561 440.932 643.362L441.81 644.04C441.652 644.208 441.514 644.38 441.397 644.556C441.283 644.741 441.194 644.934 441.132 645.134C441.069 645.335 441.036 645.551 441.031 645.785C441.035 646.016 441.075 646.275 441.152 646.564C441.331 647.231 441.615 647.696 442.005 647.959C442.403 648.219 442.881 648.274 443.44 648.125L443.549 648.096C444.108 647.946 444.49 647.66 444.696 647.238C444.91 646.813 444.928 646.267 444.75 645.6L444.452 644.491L445.44 644.226L445.715 645.254ZM442.467 655.525C442.165 654.398 442.372 653.459 443.088 652.706C443.807 651.963 444.937 651.385 446.479 650.972C448.02 650.559 449.288 650.494 450.282 650.779C451.279 651.072 451.928 651.782 452.23 652.909C452.532 654.036 452.324 654.971 451.605 655.715C450.889 656.467 449.76 657.05 448.218 657.463C446.676 657.876 445.407 657.936 444.411 657.642C443.417 657.358 442.769 656.652 442.467 655.525ZM443.454 655.261C443.553 655.631 443.714 655.926 443.937 656.146C444.161 656.366 444.434 656.52 444.757 656.608C445.08 656.695 445.44 656.724 445.838 656.695C446.239 656.674 446.669 656.603 447.128 656.479L448.67 656.066C449.13 655.943 449.538 655.79 449.895 655.608C450.254 655.434 450.552 655.229 450.788 654.991C451.024 654.754 451.184 654.484 451.267 654.182C451.35 653.879 451.342 653.543 451.243 653.174C451.144 652.804 450.983 652.509 450.76 652.289C450.536 652.068 450.263 651.915 449.94 651.827C449.617 651.74 449.256 651.706 448.855 651.727C448.457 651.756 448.028 651.832 447.569 651.955L446.027 652.368C445.567 652.492 445.158 652.64 444.798 652.814C444.441 652.996 444.145 653.206 443.909 653.443C443.673 653.68 443.513 653.95 443.43 654.253C443.347 654.555 443.355 654.891 443.454 655.261ZM444.676 663.769C444.374 662.642 444.581 661.703 445.297 660.95C446.016 660.207 447.146 659.629 448.688 659.216C450.229 658.802 451.497 658.738 452.491 659.023C453.488 659.316 454.137 660.026 454.439 661.153C454.741 662.28 454.533 663.215 453.814 663.958C453.098 664.711 451.969 665.293 450.427 665.707C448.885 666.12 447.616 666.179 446.62 665.886C445.626 665.602 444.978 664.896 444.676 663.769ZM445.663 663.505C445.762 663.874 445.923 664.169 446.146 664.39C446.37 664.61 446.643 664.764 446.966 664.851C447.289 664.939 447.649 664.968 448.047 664.938C448.447 664.918 448.878 664.846 449.337 664.723L450.879 664.31C451.339 664.187 451.747 664.034 452.104 663.851C452.463 663.678 452.761 663.472 452.997 663.235C453.233 662.998 453.393 662.728 453.476 662.426C453.559 662.123 453.551 661.787 453.452 661.418C453.353 661.048 453.192 660.753 452.968 660.532C452.745 660.312 452.472 660.158 452.149 660.071C451.826 659.983 451.464 659.95 451.064 659.97C450.666 660 450.237 660.076 449.777 660.199L448.236 660.612C447.776 660.735 447.366 660.884 447.007 661.057C446.65 661.24 446.354 661.45 446.118 661.687C445.882 661.924 445.722 662.194 445.639 662.496C445.556 662.799 445.564 663.135 445.663 663.505ZM446.884 672.013C446.583 670.886 446.79 669.946 447.506 669.194C448.225 668.451 449.355 667.872 450.897 667.459C452.438 667.046 453.706 666.982 454.7 667.266C455.697 667.56 456.346 668.27 456.648 669.397C456.95 670.524 456.742 671.459 456.023 672.202C455.306 672.954 454.178 673.537 452.636 673.95C451.094 674.363 449.825 674.423 448.829 674.13C447.834 673.845 447.186 673.14 446.884 672.013ZM447.872 671.748C447.971 672.118 448.132 672.413 448.355 672.633C448.578 672.854 448.852 673.008 449.175 673.095C449.498 673.182 449.858 673.211 450.256 673.182C450.656 673.162 451.086 673.09 451.546 672.967L453.088 672.554C453.548 672.431 453.956 672.278 454.313 672.095C454.672 671.921 454.97 671.716 455.206 671.479C455.442 671.242 455.601 670.972 455.685 670.669C455.768 670.367 455.76 670.031 455.661 669.661C455.562 669.292 455.401 668.997 455.177 668.776C454.954 668.556 454.681 668.402 454.358 668.315C454.035 668.227 453.673 668.194 453.273 668.214C452.875 668.243 452.446 668.32 451.986 668.443L450.445 668.856C449.985 668.979 449.575 669.127 449.216 669.301C448.859 669.484 448.563 669.693 448.327 669.931C448.091 670.168 447.931 670.438 447.848 670.74C447.765 671.043 447.773 671.379 447.872 671.748ZM449.703 681.881L449.398 680.745L458.837 678.216L459.844 681.975C460.067 682.805 460.01 683.511 459.673 684.094C459.339 684.686 458.739 685.098 457.874 685.33C457.179 685.516 456.563 685.507 456.026 685.303C455.499 685.106 455.081 684.715 454.77 684.132L451.185 687.412L450.84 686.127L454.35 682.998L453.759 680.794L449.703 681.881ZM455.436 683.156C455.557 683.607 455.767 683.923 456.067 684.103C456.369 684.293 456.736 684.33 457.169 684.214L457.872 684.026C458.305 683.91 458.604 683.694 458.771 683.379C458.94 683.073 458.965 682.694 458.844 682.243L458.141 679.62L454.733 680.533L455.436 683.156ZM451.752 689.53L461.191 687.001L462.198 690.76C462.426 691.608 462.356 692.322 461.99 692.903C461.635 693.491 461.039 693.897 460.2 694.122C459.362 694.347 458.638 694.294 458.028 693.965C457.429 693.642 457.016 693.057 456.789 692.21L456.086 689.586L452.056 690.666L451.752 689.53ZM457.087 689.318L457.79 691.942C457.911 692.392 458.121 692.708 458.421 692.889C458.723 693.078 459.09 693.115 459.523 692.999L460.226 692.811C460.659 692.695 460.958 692.479 461.125 692.164C461.294 691.858 461.319 691.479 461.198 691.028L460.495 688.405L457.087 689.318ZM463.908 703.092L463.89 703.025L462.094 702.651L457.378 701.494L460.884 698.134L462.253 696.912L462.234 696.845L454.283 698.975L453.986 697.866L463.425 695.337L463.831 696.852L459.471 700.919L459.489 700.986L465.302 702.342L465.693 703.802L456.254 706.332L455.957 705.223L463.908 703.092Z" fill="white"/>
<defs>
<clipPath id="clip0">
<rect width="16" height="16" fill="white" transform="translate(390.637 316) rotate(75)"/>
</clipPath>
<clipPath id="clip1">
<rect width="16" height="16" fill="white" transform="translate(459.637 576) rotate(75)"/>
</clipPath>
</defs>
</svg>
