<svg width="1440" height="810" viewBox="0 0 1440 810" fill="none" xmlns="http://www.w3.org/2000/svg">
<path d="M425.878 581.157C425.688 580.449 424.953 580.024 424.245 580.214C423.537 580.404 423.112 581.139 423.302 581.847C423.492 582.555 424.227 582.98 424.935 582.79C425.644 582.6 426.068 581.865 425.878 581.157ZM428.294 590.172C428.104 589.464 427.369 589.04 426.661 589.229C425.952 589.419 425.528 590.154 425.718 590.862C425.908 591.571 426.643 591.995 427.351 591.805C428.059 591.615 428.483 590.881 428.294 590.172ZM427.086 585.665C426.896 584.956 426.161 584.532 425.453 584.722C424.745 584.912 424.32 585.646 424.51 586.355C424.7 587.063 425.435 587.487 426.143 587.298C426.851 587.108 427.276 586.373 427.086 585.665Z" fill="white"/>
<path d="M424.959 602.846C424.754 602.08 424.723 601.388 424.866 600.77C425.019 600.149 425.301 599.581 425.714 599.064L426.642 599.714C426.289 600.166 426.05 600.626 425.925 601.095C425.808 601.561 425.823 602.069 425.971 602.619C426.152 603.295 426.452 603.765 426.87 604.03C427.292 604.304 427.773 604.368 428.314 604.223C428.764 604.102 429.075 603.874 429.246 603.538C429.417 603.203 429.491 602.705 429.469 602.044L429.438 601.226C429.405 600.307 429.525 599.565 429.798 598.999C430.083 598.439 430.591 598.062 431.321 597.866C431.735 597.755 432.126 597.733 432.491 597.799C432.857 597.865 433.184 598.005 433.473 598.217C433.764 598.439 434.015 598.724 434.224 599.074C434.445 599.43 434.617 599.838 434.741 600.298C434.932 601.01 434.964 601.654 434.838 602.229C434.714 602.812 434.447 603.348 434.036 603.835L433.186 603.15C433.476 602.791 433.676 602.4 433.784 601.975C433.892 601.549 433.873 601.062 433.725 600.512C433.564 599.908 433.305 599.465 432.949 599.184C432.605 598.909 432.176 598.84 431.662 598.978C431.211 599.098 430.907 599.335 430.75 599.686C430.605 600.044 430.544 600.538 430.568 601.17L430.599 601.987C430.64 602.972 430.505 603.728 430.192 604.256C429.88 604.784 429.372 605.143 428.668 605.331C428.236 605.447 427.823 605.475 427.43 605.416C427.04 605.366 426.686 605.234 426.368 605.02C426.049 604.806 425.768 604.514 425.524 604.144C425.283 603.784 425.094 603.351 424.959 602.846ZM436.531 605.356L436.821 606.438L432.656 607.554L432.67 607.608C433.113 607.673 433.492 607.827 433.809 608.071C434.128 608.323 434.357 608.711 434.497 609.234C434.691 609.955 434.608 610.586 434.251 611.126C433.904 611.673 433.308 612.06 432.46 612.287L427.984 613.487L427.694 612.405L431.981 611.256C433.234 610.921 433.719 610.225 433.437 609.17C433.379 608.954 433.295 608.75 433.185 608.557C433.078 608.373 432.949 608.214 432.797 608.081C432.645 607.948 432.47 607.854 432.273 607.801C432.086 607.754 431.88 607.761 431.655 607.822L426.814 609.119L426.524 608.037L436.531 605.356ZM429.164 618.539C429.038 618.07 429.009 617.619 429.076 617.185C429.144 616.752 429.298 616.353 429.539 615.989C429.791 615.631 430.117 615.317 430.518 615.045C430.927 614.771 431.412 614.559 431.971 614.409C432.521 614.262 433.041 614.205 433.533 614.237C434.025 614.27 434.465 614.379 434.853 614.565C435.252 614.757 435.59 615.024 435.865 615.366C436.14 615.708 436.34 616.113 436.466 616.582C436.592 617.051 436.62 617.497 436.55 617.922C436.482 618.356 436.324 618.756 436.074 619.122C435.833 619.486 435.508 619.805 435.099 620.079C434.689 620.353 434.209 620.564 433.659 620.711C433.1 620.861 432.575 620.92 432.083 620.887C431.6 620.852 431.159 620.739 430.76 620.546C430.369 620.351 430.036 620.083 429.761 619.741C429.488 619.408 429.289 619.007 429.164 618.539ZM430.124 618.281C430.281 618.867 430.589 619.297 431.049 619.57C431.508 619.843 432.108 619.88 432.847 619.682L433.848 619.414C434.587 619.216 435.088 618.884 435.349 618.418C435.611 617.951 435.663 617.425 435.506 616.839C435.349 616.253 435.041 615.824 434.581 615.551C434.121 615.278 433.522 615.24 432.783 615.438L431.782 615.707C431.043 615.905 430.542 616.237 430.281 616.703C430.019 617.169 429.967 617.695 430.124 618.281ZM437.448 620.894L437.73 621.949L434.914 623.501L432.057 625.064L432.064 625.091L435.349 625.124L438.6 625.195L438.857 626.155L436.084 627.869L433.26 629.553L433.267 629.58L436.516 629.478L439.734 629.427L440.006 630.442L432.532 630.459L432.173 629.12L435.266 627.248L437.226 626.07L437.218 626.043L434.936 626.017L431.321 625.942L430.97 624.63L437.448 620.894ZM434.376 637.341L441.353 635.471L441.643 636.553L440.507 636.857L440.522 636.911C440.724 636.944 440.915 636.99 441.095 637.048C441.286 637.112 441.46 637.201 441.615 637.314C441.774 637.436 441.911 637.587 442.027 637.769C442.152 637.948 442.251 638.173 442.324 638.443C442.447 638.903 442.448 639.357 442.326 639.805C442.214 640.25 441.93 640.636 441.476 640.96L441.484 640.987C441.896 641.012 442.288 641.158 442.659 641.426C443.042 641.7 443.313 642.135 443.472 642.73C443.663 643.442 443.577 644.059 443.215 644.582C442.864 645.111 442.265 645.489 441.417 645.716L436.941 646.915L436.651 645.833L440.938 644.684C441.56 644.518 441.996 644.27 442.246 643.943C442.497 643.615 442.551 643.185 442.408 642.653C442.35 642.436 442.268 642.236 442.16 642.052C442.056 641.878 441.928 641.728 441.779 641.604C441.63 641.479 441.458 641.395 441.262 641.351C441.076 641.304 440.87 641.311 440.644 641.372L435.803 642.669L435.513 641.587L439.8 640.438C440.422 640.272 440.858 640.024 441.109 639.696C441.359 639.368 441.415 638.947 441.278 638.434C441.22 638.217 441.137 638.017 441.03 637.833C440.923 637.649 440.794 637.495 440.645 637.371C440.496 637.247 440.322 637.158 440.124 637.105C439.938 637.058 439.732 637.065 439.507 637.125L434.665 638.423L434.376 637.341ZM438.12 651.963C437.994 651.494 437.965 651.043 438.032 650.609C438.1 650.175 438.254 649.777 438.494 649.413C438.746 649.055 439.073 648.741 439.474 648.469C439.883 648.195 440.368 647.983 440.927 647.833C441.476 647.686 441.997 647.629 442.489 647.661C442.981 647.694 443.421 647.803 443.809 647.989C444.208 648.181 444.546 648.448 444.821 648.79C445.096 649.132 445.296 649.537 445.422 650.006C445.548 650.475 445.576 650.921 445.506 651.346C445.438 651.779 445.28 652.179 445.03 652.546C444.789 652.91 444.464 653.229 444.055 653.503C443.645 653.777 443.165 653.988 442.615 654.135C442.056 654.285 441.531 654.343 441.039 654.311C440.556 654.276 440.115 654.162 439.716 653.97C439.325 653.775 438.992 653.507 438.717 653.165C438.444 652.832 438.245 652.431 438.12 651.963ZM439.08 651.705C439.237 652.291 439.545 652.721 440.005 652.994C440.464 653.267 441.064 653.304 441.803 653.106L442.804 652.838C443.543 652.64 444.043 652.308 444.305 651.842C444.567 651.375 444.619 650.849 444.462 650.263C444.305 649.677 443.997 649.248 443.537 648.975C443.077 648.702 442.478 648.664 441.739 648.862L440.738 649.13C439.999 649.328 439.498 649.661 439.237 650.127C438.975 650.593 438.923 651.119 439.08 651.705ZM439.639 656.984L446.617 655.115L446.907 656.196L445.622 656.541L445.64 656.608C446.008 656.645 446.366 656.791 446.714 657.045C447.062 657.3 447.313 657.711 447.465 658.279L447.577 658.698L446.495 658.988L446.325 658.353C446.168 657.767 445.932 657.337 445.617 657.064C445.314 656.797 444.996 656.709 444.662 656.798L439.929 658.066L439.639 656.984ZM441.529 664.686C441.401 664.208 441.37 663.752 441.438 663.319C441.508 662.894 441.663 662.5 441.904 662.136C442.156 661.779 442.482 661.464 442.883 661.192C443.295 660.927 443.78 660.72 444.339 660.57C444.889 660.423 445.409 660.361 445.898 660.384C446.39 660.417 446.83 660.526 447.218 660.712C447.618 660.905 447.954 661.167 448.226 661.5C448.502 661.842 448.703 662.251 448.831 662.729C448.957 663.198 448.984 663.64 448.911 664.056C448.839 664.471 448.685 664.851 448.448 665.194C448.221 665.536 447.918 665.829 447.539 666.076C447.163 666.331 446.727 666.525 446.231 666.658L445.718 666.796L444.373 661.779L444.049 661.866C443.751 661.945 443.484 662.065 443.247 662.226C443.021 662.392 442.836 662.587 442.693 662.809C442.552 663.04 442.461 663.296 442.42 663.577C442.382 663.868 442.407 664.175 442.494 664.5C442.612 664.942 442.818 665.297 443.113 665.566C443.409 665.844 443.776 666.021 444.212 666.098L443.864 667.017C443.326 666.92 442.844 666.672 442.418 666.274C442.002 665.873 441.705 665.344 441.529 664.686ZM447.925 662.972C447.845 662.675 447.719 662.419 447.546 662.204C447.381 661.987 447.18 661.814 446.942 661.685C446.707 661.564 446.446 661.489 446.158 661.46C445.879 661.428 445.586 661.454 445.279 661.536L445.185 661.561L446.217 665.415L446.366 665.375C446.988 665.209 447.438 664.905 447.716 664.463C448.005 664.028 448.075 663.531 447.925 662.972Z" fill="white"/>
<g clip-path="url(#clip0)">
<path d="M443.691 580.525C443.464 579.01 443.824 577.464 444.699 576.206C445.574 574.948 446.897 574.073 448.397 573.759C449.897 573.446 451.46 573.718 452.766 574.52C454.072 575.322 455.021 576.593 455.42 578.072C455.818 579.554 455.633 581.132 454.904 582.482C454.174 583.832 452.956 584.851 451.498 585.33C450.04 585.809 448.455 585.711 447.067 585.057C445.679 584.403 444.595 583.242 444.036 581.813L441.425 582.512L441.08 581.225L443.691 580.525Z" fill="white"/>
</g>
<path d="M448.185 596.797C448.054 596.31 448.017 595.847 448.073 595.407C448.14 594.973 448.29 594.575 448.521 594.214C448.765 593.859 449.092 593.549 449.504 593.284C449.916 593.019 450.402 592.811 450.961 592.662C451.664 592.473 452.35 592.4 453.019 592.444C453.696 592.484 454.331 592.599 454.923 592.788C455.526 592.984 456.075 593.229 456.568 593.521C457.071 593.812 457.495 594.114 457.84 594.427L458.232 595.888C457.727 595.482 457.245 595.128 456.787 594.825C456.33 594.523 455.867 594.275 455.4 594.081C454.941 593.885 454.463 593.743 453.966 593.654C453.478 593.562 452.942 593.527 452.358 593.548L452.349 593.623C452.797 593.745 453.194 593.947 453.541 594.231C453.899 594.522 454.155 594.956 454.31 595.533C454.419 595.938 454.451 596.33 454.408 596.709C454.365 597.088 454.249 597.433 454.062 597.744C453.875 598.055 453.619 598.327 453.295 598.558C452.973 598.799 452.591 598.979 452.149 599.097C451.689 599.221 451.245 599.257 450.816 599.208C450.399 599.165 450.013 599.042 449.659 598.837C449.316 598.639 449.016 598.367 448.759 598.02C448.502 597.674 448.31 597.266 448.185 596.797ZM449.168 596.519C449.335 597.141 449.635 597.577 450.07 597.828C450.507 598.088 451.045 598.132 451.685 597.961L451.793 597.932C452.433 597.76 452.878 597.453 453.126 597.009C453.377 596.575 453.419 596.047 453.252 595.425C453.085 594.803 452.784 594.362 452.347 594.102C451.912 593.851 451.375 593.811 450.735 593.983L450.627 594.012C449.987 594.183 449.541 594.486 449.291 594.921C449.042 595.364 449.001 595.897 449.168 596.519ZM449.784 602.117L450.785 601.849L451.491 604.486L459.091 602.449L459.066 602.355L456.21 600.569L456.749 599.714L459.759 601.589L460.234 603.361L451.796 605.622L452.448 608.056L451.447 608.324L449.784 602.117ZM457.471 611.009C457.384 610.684 457.362 610.366 457.404 610.056C457.449 609.754 457.547 609.471 457.699 609.208C457.853 608.955 458.054 608.732 458.303 608.539C458.56 608.345 458.855 608.203 459.188 608.114C459.522 608.024 459.844 608.001 460.155 608.043C460.475 608.083 460.765 608.174 461.026 608.317C461.289 608.469 461.515 608.664 461.705 608.903C461.897 609.151 462.036 609.438 462.123 609.762C462.21 610.087 462.231 610.4 462.187 610.702C462.144 611.013 462.046 611.295 461.892 611.549C461.74 611.812 461.536 612.041 461.278 612.235C461.03 612.427 460.74 612.568 460.406 612.657C460.072 612.747 459.746 612.772 459.426 612.732C459.115 612.689 458.828 612.592 458.565 612.44C458.305 612.298 458.078 612.102 457.886 611.854C457.697 611.615 457.558 611.333 457.471 611.009ZM458.337 610.777C458.445 611.183 458.671 611.465 459.013 611.625C459.367 611.791 459.747 611.819 460.152 611.711C460.558 611.602 460.868 611.389 461.082 611.07C461.308 610.759 461.366 610.4 461.258 609.994C461.149 609.589 460.918 609.303 460.564 609.136C460.222 608.977 459.848 608.952 459.442 609.06C459.036 609.169 458.721 609.379 458.495 609.691C458.281 610.009 458.228 610.371 458.337 610.777ZM454.33 619.732C454.028 618.605 454.235 617.665 454.952 616.913C455.67 616.17 456.8 615.591 458.342 615.178C459.884 614.765 461.152 614.701 462.146 614.985C463.142 615.279 463.792 615.989 464.094 617.116C464.395 618.243 464.187 619.178 463.468 619.921C462.752 620.673 461.623 621.256 460.081 621.669C458.54 622.082 457.271 622.142 456.274 621.849C455.28 621.564 454.632 620.859 454.33 619.732ZM455.317 619.467C455.416 619.837 455.577 620.132 455.801 620.352C456.024 620.573 456.297 620.727 456.62 620.814C456.943 620.901 457.303 620.93 457.701 620.901C458.102 620.881 458.532 620.809 458.992 620.686L460.533 620.273C460.993 620.15 461.401 619.997 461.758 619.814C462.118 619.64 462.415 619.435 462.651 619.198C462.887 618.961 463.047 618.691 463.13 618.388C463.213 618.086 463.205 617.75 463.106 617.38C463.007 617.011 462.846 616.716 462.623 616.495C462.4 616.275 462.126 616.121 461.803 616.034C461.48 615.946 461.119 615.913 460.718 615.933C460.32 615.962 459.892 616.039 459.432 616.162L457.89 616.575C457.43 616.698 457.021 616.846 456.662 617.02C456.305 617.203 456.008 617.412 455.772 617.65C455.536 617.887 455.377 618.157 455.293 618.459C455.21 618.762 455.218 619.098 455.317 619.467ZM456.539 627.976C456.237 626.849 456.444 625.909 457.16 625.157C457.879 624.413 459.009 623.835 460.551 623.422C462.093 623.009 463.361 622.945 464.355 623.229C465.351 623.522 466 624.233 466.302 625.359C466.604 626.486 466.396 627.421 465.677 628.165C464.961 628.917 463.832 629.5 462.29 629.913C460.749 630.326 459.48 630.386 458.483 630.093C457.489 629.808 456.841 629.102 456.539 627.976ZM457.526 627.711C457.625 628.081 457.786 628.376 458.01 628.596C458.233 628.816 458.506 628.97 458.829 629.058C459.152 629.145 459.512 629.174 459.91 629.145C460.311 629.124 460.741 629.053 461.201 628.93L462.742 628.516C463.202 628.393 463.61 628.24 463.967 628.058C464.327 627.884 464.624 627.679 464.86 627.442C465.096 627.205 465.256 626.935 465.339 626.632C465.422 626.33 465.414 625.994 465.315 625.624C465.216 625.254 465.055 624.959 464.832 624.739C464.608 624.519 464.335 624.365 464.012 624.277C463.689 624.19 463.328 624.156 462.927 624.177C462.529 624.206 462.1 624.282 461.641 624.405L460.099 624.819C459.639 624.942 459.23 625.09 458.87 625.264C458.514 625.446 458.217 625.656 457.981 625.893C457.745 626.131 457.585 626.4 457.502 626.703C457.419 627.005 457.427 627.341 457.526 627.711ZM463.138 631.507L467.668 631.104L467.936 632.105L463.406 632.507L463.138 631.507ZM465.447 637.529L467.239 635.831L467.228 635.791L459.371 637.896L459.074 636.787L468.513 634.258L468.864 635.569L464.027 640.561L462.236 642.259L462.247 642.3L470.103 640.194L470.401 641.303L460.962 643.832L460.61 642.521L465.447 637.529ZM468.609 650.63C468.781 651.27 469.053 651.709 469.426 651.947C469.811 652.192 470.233 652.253 470.693 652.13L470.787 652.104C471.283 651.971 471.61 651.714 471.769 651.334C471.94 650.96 471.957 650.52 471.822 650.015C471.691 649.528 471.477 649.161 471.178 648.912C470.889 648.661 470.537 648.485 470.124 648.383L470.548 647.371C470.769 647.437 470.991 647.527 471.215 647.641C471.45 647.762 471.67 647.916 471.875 648.102C472.079 648.289 472.266 648.519 472.436 648.793C472.606 649.066 472.742 649.392 472.843 649.77C472.95 650.167 472.996 650.556 472.982 650.936C472.977 651.315 472.905 651.658 472.765 651.966C472.637 652.28 472.443 652.549 472.184 652.773C471.928 653.006 471.61 653.174 471.231 653.275C470.925 653.357 470.637 653.381 470.367 653.347C470.099 653.322 469.853 653.253 469.63 653.139C469.406 653.025 469.201 652.872 469.014 652.681C468.83 652.498 468.672 652.289 468.542 652.054L468.488 652.068C468.501 652.335 468.476 652.603 468.413 652.871C468.361 653.146 468.26 653.4 468.11 653.633C467.971 653.873 467.777 654.085 467.526 654.268C467.287 654.458 466.992 654.6 466.64 654.694C466.235 654.802 465.84 654.826 465.456 654.765C465.082 654.701 464.735 654.562 464.417 654.347C464.108 654.131 463.832 653.842 463.591 653.482C463.349 653.121 463.164 652.702 463.036 652.224C462.928 651.819 462.876 651.446 462.882 651.106C462.887 650.767 462.934 650.455 463.022 650.17C463.11 649.886 463.223 649.623 463.362 649.383C463.503 649.152 463.658 648.937 463.827 648.737L464.704 649.415C464.546 649.583 464.409 649.755 464.292 649.931C464.177 650.117 464.089 650.309 464.026 650.51C463.964 650.71 463.93 650.927 463.925 651.16C463.929 651.391 463.97 651.651 464.047 651.939C464.226 652.606 464.51 653.071 464.899 653.334C465.297 653.595 465.776 653.65 466.335 653.5L466.443 653.471C467.002 653.321 467.384 653.035 467.59 652.613C467.805 652.188 467.823 651.642 467.644 650.975L467.347 649.866L468.334 649.602L468.609 650.63ZM464.755 657.99L465.756 657.722L466.463 660.359L474.062 658.323L474.037 658.228L471.182 656.442L471.721 655.588L474.731 657.463L475.205 659.234L466.767 661.495L467.419 663.929L466.418 664.198L464.755 657.99ZM472.443 666.882C472.356 666.558 472.333 666.24 472.376 665.929C472.42 665.627 472.519 665.345 472.67 665.082C472.825 664.828 473.026 664.605 473.274 664.413C473.531 664.219 473.826 664.077 474.16 663.987C474.493 663.898 474.816 663.874 475.126 663.917C475.446 663.957 475.737 664.048 475.997 664.191C476.26 664.342 476.486 664.538 476.676 664.777C476.868 665.025 477.008 665.311 477.094 665.636C477.181 665.96 477.203 666.274 477.158 666.576C477.116 666.886 477.017 667.169 476.863 667.423C476.711 667.686 476.507 667.914 476.25 668.109C476.002 668.301 475.711 668.442 475.377 668.531C475.044 668.62 474.717 668.645 474.397 668.605C474.086 668.563 473.799 668.466 473.536 668.314C473.276 668.171 473.05 667.976 472.858 667.728C472.668 667.489 472.53 667.207 472.443 666.882ZM473.308 666.65C473.417 667.056 473.642 667.339 473.985 667.498C474.338 667.664 474.718 667.693 475.124 667.584C475.529 667.476 475.839 667.262 476.054 666.944C476.279 666.632 476.338 666.273 476.229 665.868C476.12 665.462 475.889 665.176 475.535 665.01C475.193 664.851 474.819 664.825 474.413 664.934C474.008 665.043 473.692 665.253 473.466 665.564C473.252 665.883 473.199 666.245 473.308 666.65ZM474.758 673.578C474.93 674.218 475.202 674.657 475.575 674.895C475.96 675.14 476.382 675.201 476.842 675.078L476.936 675.053C477.432 674.92 477.759 674.663 477.918 674.282C478.089 673.908 478.106 673.468 477.971 672.964C477.84 672.477 477.626 672.109 477.327 671.861C477.038 671.61 476.686 671.433 476.273 671.332L476.697 670.319C476.918 670.386 477.14 670.476 477.364 670.59C477.599 670.71 477.819 670.864 478.024 671.051C478.228 671.237 478.415 671.468 478.585 671.741C478.755 672.014 478.891 672.34 478.992 672.719C479.099 673.116 479.145 673.504 479.131 673.885C479.126 674.263 479.054 674.606 478.914 674.914C478.786 675.229 478.592 675.498 478.333 675.722C478.077 675.955 477.759 676.122 477.38 676.223C477.074 676.306 476.786 676.33 476.516 676.296C476.248 676.271 476.002 676.201 475.779 676.087C475.555 675.973 475.35 675.821 475.163 675.629C474.979 675.447 474.821 675.238 474.691 675.002L474.637 675.016C474.65 675.283 474.625 675.551 474.562 675.819C474.51 676.094 474.409 676.348 474.259 676.582C474.12 676.822 473.926 677.033 473.675 677.216C473.436 677.406 473.141 677.548 472.789 677.642C472.384 677.751 471.989 677.774 471.605 677.713C471.231 677.649 470.884 677.51 470.566 677.296C470.257 677.079 469.981 676.791 469.74 676.43C469.498 676.07 469.313 675.651 469.185 675.173C469.077 674.767 469.025 674.394 469.031 674.055C469.036 673.715 469.083 673.403 469.171 673.118C469.259 672.834 469.372 672.572 469.511 672.332C469.652 672.101 469.807 671.885 469.976 671.685L470.853 672.363C470.695 672.531 470.558 672.703 470.441 672.88C470.326 673.065 470.238 673.258 470.175 673.458C470.113 673.658 470.079 673.875 470.074 674.108C470.078 674.339 470.119 674.599 470.196 674.887C470.375 675.555 470.659 676.02 471.048 676.282C471.446 676.543 471.925 676.598 472.484 676.448L472.592 676.419C473.151 676.27 473.533 675.984 473.739 675.561C473.954 675.137 473.972 674.591 473.793 673.924L473.496 672.815L474.483 672.55L474.758 673.578ZM471.51 683.849C471.208 682.722 471.415 681.783 472.132 681.03C472.85 680.287 473.981 679.709 475.522 679.296C477.064 678.883 478.332 678.818 479.326 679.103C480.323 679.396 480.972 680.106 481.274 681.233C481.576 682.36 481.367 683.295 480.649 684.038C479.932 684.791 478.803 685.374 477.262 685.787C475.72 686.2 474.451 686.26 473.454 685.966C472.46 685.682 471.812 684.976 471.51 683.849ZM472.497 683.585C472.596 683.954 472.758 684.249 472.981 684.47C473.204 684.69 473.477 684.844 473.8 684.931C474.123 685.019 474.484 685.048 474.882 685.018C475.282 684.998 475.712 684.926 476.172 684.803L477.714 684.39C478.173 684.267 478.582 684.114 478.939 683.931C479.298 683.758 479.596 683.552 479.831 683.315C480.067 683.078 480.227 682.808 480.31 682.506C480.394 682.203 480.386 681.867 480.287 681.498C480.187 681.128 480.026 680.833 479.803 680.613C479.58 680.392 479.307 680.238 478.984 680.151C478.661 680.063 478.299 680.03 477.899 680.05C477.501 680.08 477.072 680.156 476.612 680.279L475.07 680.692C474.611 680.815 474.201 680.964 473.842 681.137C473.485 681.32 473.188 681.53 472.952 681.767C472.716 682.004 472.557 682.274 472.474 682.576C472.39 682.879 472.398 683.215 472.497 683.585ZM478.109 687.38L482.639 686.978L482.907 687.979L478.377 688.381L478.109 687.38ZM474.045 692.66L483.484 690.131L485.028 695.892L484.027 696.16L482.788 691.535L479.623 692.383L480.79 696.738L479.789 697.006L478.623 692.651L475.35 693.528L476.589 698.153L475.589 698.421L474.045 692.66Z" fill="white"/>
<defs>
<clipPath id="clip0">
<rect width="16" height="16" fill="white" transform="translate(454.637 570) rotate(75)"/>
</clipPath>
</defs>
</svg>
