<svg width="1440" height="810" fill="none" xmlns="http://www.w3.org/2000/svg"><g clip-path="url(#clip0)"><path d="M383.427 320.002l.69 2.576-5.795 1.553-.69-2.576 5.795-1.553zm4.992 8.325l.69 2.576-8.372 2.243-.69-2.575 8.372-2.244zm2.656-5.542l.69 2.575-12.235 3.279-.691-2.576 12.236-3.278z" fill="#fff"/></g><path d="M385.177 345.85l2.532-1.693-1.022-3.813-3.039-.201-.308-1.149 10.323.77.387 1.447-8.555 5.829-.318-1.19zm7.627-5.073l-.019-.067-5.025-.364.873 3.259 4.171-2.828zm-6.177 11.134c-.322-1.199-.166-2.241.467-3.125.641-.887 1.756-1.543 3.342-1.968 1.587-.426 2.893-.418 3.92.022 1.035.438 1.713 1.256 2.034 2.455.213.793.21 1.504-.008 2.133-.216.637-.613 1.193-1.191 1.667l-.801-.771c.436-.32.747-.712.931-1.177.194-.468.212-.994.055-1.58a2.625 2.625 0 00-.523-1.034 2.366 2.366 0 00-.88-.634 3.176 3.176 0 00-1.149-.229 4.707 4.707 0 00-1.358.176l-1.407.377c-.974.261-1.675.69-2.104 1.289-.429.598-.534 1.307-.314 2.127.162.604.45 1.068.866 1.392.424.321.918.507 1.483.559l-.325 1.058c-.747-.119-1.389-.406-1.927-.861-.528-.457-.899-1.083-1.111-1.876zm10.847 6.081l-8.438 2.261-.304-1.136 8.438-2.261-.805-3.002 1.001-.268 1.913 7.14-1 .268-.805-3.002zm2.545 5.496l-5.841 1.566c-.902.241-1.542.592-1.922 1.051-.37.456-.443 1.104-.218 1.943.224.838.611 1.362 1.16 1.573.558.208 1.288.191 2.19-.051l5.842-1.565.304 1.136-5.571 1.493c-.686.183-1.297.28-1.836.289-.536.018-1.008-.064-1.414-.245a2.5 2.5 0 01-1.03-.869c-.278-.389-.501-.899-.671-1.53-.169-.631-.23-1.185-.184-1.661.049-.467.205-.876.469-1.227.263-.351.632-.653 1.105-.905.476-.244 1.056-.457 1.742-.641l5.571-1.493.304 1.136zm-5.695 16.499l2.532-1.693-1.022-3.813-3.039-.2-.308-1.15 10.323.77.387 1.447-8.555 5.829-.318-1.19zm7.627-5.073l-.019-.067-5.025-.364.873 3.259 4.171-2.828zm-6.853 7.962l9.439-2.529.304 1.136-8.438 2.261 1.076 4.016-1.001.268-1.38-5.152zm-.403 6.665l12.995.301.26.973-12.994-.301-.261-.973zm4.264 8.396c-.205-.766-.236-1.458-.092-2.077a4.38 4.38 0 01.847-1.705l.928.65c-.352.452-.591.912-.717 1.381-.117.466-.101.974.046 1.524.181.676.481 1.146.9 1.411.421.273.902.338 1.443.193.451-.121.762-.349.933-.685.171-.336.245-.834.222-1.494l-.03-.818c-.034-.919.086-1.661.359-2.227.285-.56.793-.937 1.523-1.133a2.65 2.65 0 011.171-.067c.365.066.692.205.981.418.292.221.542.507.752.857.221.356.393.764.516 1.224.191.712.223 1.355.097 1.93a3.638 3.638 0 01-.802 1.607l-.85-.686c.291-.358.49-.749.598-1.175.109-.425.089-.912-.058-1.462-.162-.604-.421-1.047-.776-1.329-.345-.275-.774-.343-1.288-.206-.45.121-.754.357-.911.709-.146.357-.207.852-.183 1.483l.031.818c.042.984-.094 1.741-.406 2.269-.313.528-.821.886-1.524 1.075a3.017 3.017 0 01-1.238.085 2.427 2.427 0 01-1.063-.396 3.09 3.09 0 01-.843-.876 4.328 4.328 0 01-.566-1.298zm10.838 6.044l-8.438 2.261-.305-1.136 8.439-2.261-.805-3.002 1.001-.268 1.913 7.14-1.001.268-.804-3.002zm-5.834 11.982l2.532-1.693-1.021-3.813-3.04-.201-.308-1.149 10.323.77.388 1.447-8.555 5.829-.319-1.19zm7.627-5.073l-.018-.067-5.025-.364.873 3.259 4.17-2.828zm-.479 8.704l1.791-1.698-.011-.04-7.856 2.105-.298-1.109 9.439-2.529.352 1.311-4.837 4.992-1.792 1.698.011.041 7.857-2.106.297 1.109-9.439 2.529-.351-1.311 4.837-4.992zm5.664 6.425l.847 3.164a4.28 4.28 0 01.131 1.676 3.265 3.265 0 01-.567 1.456c-.296.447-.717.84-1.264 1.179-.537.338-1.198.611-1.983.822-.784.21-1.498.304-2.141.284-.635-.024-1.196-.154-1.684-.39a3.332 3.332 0 01-1.206-.981 4.279 4.279 0 01-.725-1.516l-.847-3.165 9.439-2.529zm-7.591 5.425c.104.388.263.727.476 1.018.222.288.491.516.806.683.315.166.67.265 1.064.294.406.036.844-.008 1.312-.134l1.542-.413a3.665 3.665 0 001.19-.536c.335-.225.598-.489.788-.791.189-.302.304-.632.343-.991a2.845 2.845 0 00-.083-1.122l-.544-2.029-7.437 1.993.543 2.028zm2.16 12.063l2.532-1.693-1.022-3.813-3.039-.201-.308-1.149 10.323.77.387 1.447-8.554 5.829-.319-1.19zm7.627-5.073l-.018-.067-5.026-.364.873 3.259 4.171-2.828zm-6.549 9.098l-.304-1.136 9.439-2.529 1.007 3.759c.222.83.165 1.536-.171 2.119-.335.592-.934 1.004-1.8 1.236-.694.186-1.31.177-1.848-.027-.526-.197-.945-.588-1.256-1.171l-3.585 3.28-.344-1.285 3.51-3.129-.591-2.204-4.057 1.087zm5.734 1.275c.12.451.331.767.63.947.302.19.67.227 1.102.111l.704-.188c.432-.116.732-.332.899-.647.169-.306.193-.685.072-1.136l-.703-2.623-3.407.913.703 2.623zm5.755 3.845l.848 3.164c.157.586.2 1.145.13 1.676a3.253 3.253 0 01-.567 1.456c-.296.446-.717.839-1.263 1.179-.538.338-1.199.611-1.984.821-.784.211-1.498.305-2.141.284-.634-.023-1.196-.153-1.684-.389a3.313 3.313 0 01-1.205-.982 4.254 4.254 0 01-.725-1.516l-.848-3.164 9.439-2.529zm-7.591 5.425c.104.388.263.727.476 1.018.222.288.491.516.806.683.315.166.67.264 1.065.294a3.77 3.77 0 001.312-.134l1.541-.413a3.676 3.676 0 001.19-.536c.336-.226.598-.489.788-.791.19-.302.304-.633.343-.991a2.833 2.833 0 00-.083-1.123l-.544-2.028-7.437 1.993.543 2.028zm-55.927-111.993l1.001-.268.706 2.637 7.6-2.036-.025-.095-2.856-1.786.539-.854 3.01 1.875.475 1.771-8.438 2.261.652 2.434-1.001.268-1.663-6.207zm3.821 14.262l-1.659-6.194 1.163-.311 3.666 2.322a7.21 7.21 0 001.581.765c.54.174 1.04.2 1.499.076l.163-.043c.523-.14.908-.398 1.155-.773.247-.376.292-.857.135-1.443a2.219 2.219 0 00-.324-.724 1.87 1.87 0 00-.491-.478 2.117 2.117 0 00-.619-.254 3.277 3.277 0 00-.687-.077l.121-1.119c.303.015.606.064.909.148.314.089.606.224.876.403.272.187.517.431.732.731.218.309.389.693.512 1.153.123.46.165.888.127 1.285a2.6 2.6 0 01-.325 1.058 2.51 2.51 0 01-.717.786 3.033 3.033 0 01-1.055.5 3.247 3.247 0 01-1.071.113 4.026 4.026 0 01-1.018-.176 5.671 5.671 0 01-1.003-.442 14.61 14.61 0 01-1.032-.607l-2.967-1.93 1.33 4.963-1.001.268zm-1.731 1.705l12.994.301.261.973-12.995-.301-.26-.973zm9.814 6.716c.172.64.444 1.079.817 1.317.384.245.807.306 1.266.183l.095-.026c.496-.133.823-.389.982-.77.17-.374.188-.814.053-1.319-.131-.486-.345-.854-.644-1.103a2.487 2.487 0 00-1.055-.529l.425-1.012c.221.066.443.157.667.271.235.12.455.274.659.461.205.186.392.416.562.69.17.273.306.599.407.978.106.396.153.785.139 1.166a2.558 2.558 0 01-.217 1.029 2.118 2.118 0 01-.581.808c-.257.233-.574.4-.953.501a2.269 2.269 0 01-.865.073 2.027 2.027 0 01-.737-.209 2.352 2.352 0 01-.615-.458 2.806 2.806 0 01-.473-.627l-.054.014c.014.267-.011.535-.074.803a2.123 2.123 0 01-.303.762c-.139.24-.334.452-.584.635-.239.19-.534.332-.886.426-.406.109-.8.132-1.184.071a2.634 2.634 0 01-1.039-.417 3.255 3.255 0 01-.827-.866 4.212 4.212 0 01-.554-1.257 4.103 4.103 0 01-.155-1.119c.006-.339.053-.651.141-.936.088-.284.201-.547.34-.787.141-.231.296-.446.464-.646l.878.678a3.94 3.94 0 00-.413.516 2.36 2.36 0 00-.366 1.229c.004.231.044.491.122.779.178.667.462 1.132.852 1.395.398.261.877.316 1.436.166l.108-.029c.559-.15.941-.436 1.147-.858.215-.425.232-.97.054-1.638l-.297-1.109.987-.264.275 1.028zm-3.248 10.271c-.302-1.127-.095-2.067.621-2.819.719-.743 1.849-1.322 3.391-1.735 1.542-.413 2.81-.477 3.804-.193.996.294 1.645 1.004 1.947 2.131.302 1.127.094 2.062-.625 2.805-.716.753-1.845 1.335-3.387 1.748-1.541.413-2.81.473-3.807.18-.994-.284-1.642-.99-1.944-2.117zm.987-.265c.099.37.26.665.484.885.223.221.496.375.819.462.323.087.683.117 1.081.087.401-.02.831-.092 1.291-.215l1.541-.413c.46-.123.868-.276 1.225-.459.36-.173.657-.379.893-.616s.396-.507.479-.809c.083-.303.075-.639-.024-1.009-.099-.369-.26-.664-.483-.885a1.824 1.824 0 00-.82-.461 3.463 3.463 0 00-1.085-.101 6.95 6.95 0 00-1.286.229l-1.542.413c-.46.123-.869.272-1.229.445a3.502 3.502 0 00-.889.63 1.828 1.828 0 00-.479.809c-.083.303-.075.639.024 1.008zm1.527 8.997l9.439-2.529.304 1.136-8.438 2.261 1.076 4.016-1.001.268-1.38-5.152zm-.403 6.665l12.994.301.261.973-12.994-.301-.261-.973zm9.626 10.665l-1.279-4.774-4.273 1.145-.305-1.136 9.439-2.529.305 1.136-4.165 1.116 1.279 4.774 4.165-1.116.304 1.136-9.439 2.529-.304-1.136 4.273-1.145z" fill="#fff"/><g clip-path="url(#clip1)"><path d="M452.427 580.002l.69 2.576-5.795 1.553-.69-2.576 5.795-1.553zm4.992 8.325l.69 2.576-8.372 2.243-.69-2.575 8.372-2.244zm2.656-5.542l.69 2.575-12.235 3.279-.691-2.576 12.236-3.278z" fill="#fff"/></g><path d="M454.177 605.85l2.532-1.693-1.022-3.813-3.039-.201-.308-1.149 10.323.77.387 1.447-8.555 5.829-.318-1.19zm7.627-5.073l-.019-.067-5.025-.364.873 3.259 4.171-2.828zm-6.177 11.134c-.322-1.199-.166-2.241.467-3.125.641-.887 1.756-1.543 3.342-1.968 1.587-.426 2.893-.418 3.92.022 1.035.438 1.713 1.256 2.034 2.455.213.793.21 1.504-.008 2.133-.216.637-.613 1.193-1.191 1.667l-.801-.771c.436-.32.747-.712.931-1.177.194-.468.212-.994.055-1.58a2.625 2.625 0 00-.523-1.034 2.366 2.366 0 00-.88-.634 3.176 3.176 0 00-1.149-.229 4.707 4.707 0 00-1.358.176l-1.407.377c-.974.261-1.675.69-2.104 1.289-.429.598-.534 1.307-.314 2.127.162.604.45 1.068.866 1.392.424.321.918.507 1.483.559l-.325 1.058c-.747-.119-1.389-.406-1.927-.861-.528-.457-.899-1.083-1.111-1.876zm10.847 6.081l-8.438 2.261-.304-1.136 8.438-2.261-.805-3.002 1.001-.268 1.913 7.14-1 .268-.805-3.002zm2.545 5.496l-5.841 1.566c-.902.241-1.542.592-1.922 1.051-.37.456-.443 1.104-.218 1.943.224.838.611 1.362 1.16 1.573.558.208 1.288.191 2.19-.051l5.842-1.565.304 1.136-5.571 1.493c-.686.183-1.297.28-1.836.289-.536.018-1.008-.064-1.414-.245a2.5 2.5 0 01-1.03-.869c-.278-.389-.501-.899-.671-1.53-.169-.631-.23-1.185-.184-1.661.049-.467.205-.876.469-1.227.263-.351.632-.653 1.105-.905.476-.244 1.056-.457 1.742-.641l5.571-1.493.304 1.136zm-5.695 16.499l2.532-1.693-1.022-3.813-3.039-.2-.308-1.15 10.323.77.387 1.447-8.555 5.829-.318-1.19zm7.627-5.073l-.019-.067-5.025-.364.873 3.259 4.171-2.828zm-6.853 7.962l9.439-2.529.304 1.136-8.438 2.261 1.076 4.016-1.001.268-1.38-5.152zm-.403 6.665l12.995.301.26.973-12.994-.301-.261-.973zm4.264 8.396c-.205-.766-.236-1.458-.092-2.077a4.38 4.38 0 01.847-1.705l.928.65c-.352.452-.591.912-.717 1.381-.117.466-.101.974.046 1.524.181.676.481 1.146.9 1.411.421.273.902.338 1.443.193.451-.121.762-.349.933-.685.171-.336.245-.834.222-1.494l-.03-.818c-.034-.919.086-1.661.359-2.227.285-.56.793-.937 1.523-1.133a2.65 2.65 0 011.171-.067c.365.066.692.205.981.418.292.221.542.507.752.857.221.356.393.764.516 1.224.191.712.223 1.355.097 1.93a3.638 3.638 0 01-.802 1.607l-.85-.686c.291-.358.49-.749.598-1.175.109-.425.089-.912-.058-1.462-.162-.604-.421-1.047-.776-1.329-.345-.275-.774-.343-1.288-.206-.45.121-.754.357-.911.709-.146.357-.207.852-.183 1.483l.031.818c.042.984-.094 1.741-.406 2.269-.313.528-.821.886-1.524 1.075a3.017 3.017 0 01-1.238.085 2.427 2.427 0 01-1.063-.396 3.09 3.09 0 01-.843-.876 4.328 4.328 0 01-.566-1.298zm10.838 6.044l-8.438 2.261-.305-1.136 8.439-2.261-.805-3.002 1.001-.268 1.913 7.14-1.001.268-.804-3.002zm-5.834 11.982l2.532-1.693-1.021-3.813-3.04-.201-.308-1.149 10.323.77.388 1.447-8.555 5.829-.319-1.19zm7.627-5.073l-.018-.067-5.025-.364.873 3.259 4.17-2.828zm-.479 8.704l1.791-1.698-.011-.04-7.856 2.105-.298-1.109 9.439-2.529.352 1.311-4.837 4.992-1.792 1.698.011.041 7.857-2.106.297 1.109-9.439 2.529-.351-1.311 4.837-4.992zm5.664 6.425l.847 3.164a4.28 4.28 0 01.131 1.676 3.265 3.265 0 01-.567 1.456c-.296.447-.717.84-1.264 1.179-.537.338-1.198.611-1.983.822-.784.21-1.498.304-2.141.284-.635-.024-1.196-.154-1.684-.39a3.332 3.332 0 01-1.206-.981 4.279 4.279 0 01-.725-1.516l-.847-3.165 9.439-2.529zm-7.591 5.425c.104.388.263.727.476 1.018.222.288.491.516.806.683.315.166.67.265 1.064.294.406.036.844-.008 1.312-.134l1.542-.413a3.665 3.665 0 001.19-.536c.335-.225.598-.489.788-.791.189-.302.304-.632.343-.991a2.845 2.845 0 00-.083-1.122l-.544-2.029-7.437 1.993.543 2.028zm2.16 12.063l2.532-1.693-1.022-3.813-3.039-.201-.308-1.149 10.323.77.387 1.447-8.554 5.829-.319-1.19zm7.627-5.073l-.018-.067-5.026-.364.873 3.259 4.171-2.828zm-6.549 9.098l-.304-1.136 9.439-2.529 1.007 3.759c.222.83.165 1.536-.171 2.119-.335.592-.934 1.004-1.8 1.236-.694.186-1.31.177-1.848-.027-.526-.197-.945-.588-1.256-1.171l-3.585 3.28-.344-1.285 3.51-3.129-.591-2.204-4.057 1.087zm5.734 1.275c.12.451.331.767.63.947.302.19.67.227 1.102.111l.704-.188c.432-.116.732-.332.899-.647.169-.306.193-.685.072-1.136l-.703-2.623-3.407.913.703 2.623zm5.755 3.845l.848 3.164c.157.586.2 1.145.13 1.676a3.253 3.253 0 01-.567 1.456c-.296.446-.717.839-1.263 1.179-.538.338-1.199.611-1.984.821-.784.211-1.498.305-2.141.284-.634-.023-1.196-.153-1.684-.389a3.313 3.313 0 01-1.205-.982 4.254 4.254 0 01-.725-1.516l-.848-3.164 9.439-2.529zm-7.591 5.425c.104.388.263.727.476 1.018.222.288.491.516.806.683.315.166.67.264 1.065.294a3.77 3.77 0 001.312-.134l1.541-.413a3.676 3.676 0 001.19-.536c.336-.226.598-.489.788-.791.19-.302.304-.633.343-.991a2.833 2.833 0 00-.083-1.123l-.544-2.028-7.437 1.993.543 2.028zm-55.927-111.993l1.001-.268.706 2.637 7.6-2.036-.025-.095-2.856-1.786.539-.854 3.01 1.875.475 1.771-8.438 2.261.652 2.434-1.001.268-1.663-6.207zm3.821 14.262l-1.659-6.194 1.163-.311 3.666 2.322a7.21 7.21 0 001.581.765c.54.174 1.04.2 1.499.076l.163-.043c.523-.14.908-.398 1.155-.773.247-.376.292-.857.135-1.443a2.219 2.219 0 00-.324-.724 1.87 1.87 0 00-.491-.478 2.117 2.117 0 00-.619-.254 3.277 3.277 0 00-.687-.077l.121-1.119c.303.015.606.064.909.148.314.089.606.224.876.403.272.187.517.431.732.731.218.309.389.693.512 1.153.123.46.165.888.127 1.285a2.6 2.6 0 01-.325 1.058 2.51 2.51 0 01-.717.786 3.033 3.033 0 01-1.055.5 3.247 3.247 0 01-1.071.113 4.026 4.026 0 01-1.018-.176 5.671 5.671 0 01-1.003-.442 14.61 14.61 0 01-1.032-.607l-2.967-1.93 1.33 4.963-1.001.268zm1.203 5.136c-.302-1.127-.095-2.066.621-2.819.719-.743 1.849-1.321 3.391-1.734 1.541-.413 2.809-.478 3.803-.193.997.293 1.646 1.003 1.948 2.13.302 1.127.094 2.062-.625 2.806-.716.752-1.845 1.335-3.387 1.748-1.542.413-2.811.473-3.807.179-.994-.284-1.642-.99-1.944-2.117zm.987-.264c.099.369.26.664.483.885.224.22.497.374.82.461.323.088.683.117 1.081.087.401-.02.831-.092 1.29-.215l1.542-.413c.46-.123.868-.276 1.225-.459.359-.173.657-.379.893-.616s.396-.507.479-.809c.083-.303.075-.639-.024-1.008-.099-.37-.26-.665-.484-.885a1.808 1.808 0 00-.819-.462 3.496 3.496 0 00-1.085-.101 7.06 7.06 0 00-1.287.229l-1.541.413c-.46.123-.869.272-1.229.445a3.485 3.485 0 00-.889.63 1.816 1.816 0 00-.479.81c-.083.302-.075.638.024 1.008zm1.222 8.508c-.302-1.127-.095-2.067.621-2.819.719-.743 1.849-1.322 3.391-1.735 1.541-.413 2.809-.477 3.803-.193.997.294 1.646 1.004 1.948 2.131.302 1.127.094 2.062-.625 2.805-.716.753-1.845 1.335-3.387 1.748-1.542.413-2.811.473-3.807.18-.994-.284-1.643-.99-1.944-2.117zm.987-.265c.099.37.26.665.483.885.224.221.497.375.82.462.323.088.683.117 1.081.087.4-.02.83-.092 1.29-.215l1.542-.413c.46-.123.868-.276 1.225-.459.359-.173.657-.379.893-.616s.395-.507.479-.809c.083-.303.075-.639-.024-1.009-.099-.369-.26-.664-.484-.885a1.815 1.815 0 00-.819-.461 3.466 3.466 0 00-1.085-.101 6.975 6.975 0 00-1.287.229l-1.541.413c-.46.123-.87.272-1.229.445a3.485 3.485 0 00-.889.63 1.819 1.819 0 00-.479.809c-.083.303-.075.639.024 1.008zm-1.713 5.077l12.995.301.261.974-12.995-.301-.261-.974zm9.815 6.716c.171.64.444 1.079.817 1.318.384.244.806.305 1.266.182l.095-.025c.496-.133.823-.39.982-.771.17-.374.188-.813.052-1.318-.13-.487-.345-.855-.643-1.103a2.476 2.476 0 00-1.055-.529l.425-1.013c.22.067.443.157.666.271.236.121.455.274.66.461.205.187.392.417.562.69.17.273.305.599.407.978.106.397.152.785.138 1.166a2.541 2.541 0 01-.217 1.029 2.108 2.108 0 01-.58.808c-.257.233-.574.4-.953.502a2.25 2.25 0 01-.865.072 2.026 2.026 0 01-.737-.208 2.318 2.318 0 01-.615-.459 2.733 2.733 0 01-.473-.627l-.054.015c.014.267-.011.534-.075.802a2.135 2.135 0 01-.303.763c-.138.24-.333.451-.583.635a2.42 2.42 0 01-.886.425 2.8 2.8 0 01-1.184.071 2.645 2.645 0 01-1.04-.417 3.252 3.252 0 01-.826-.866 4.19 4.19 0 01-.554-1.257 4.097 4.097 0 01-.155-1.118c.006-.34.053-.652.141-.936a3.8 3.8 0 01.34-.787 5.1 5.1 0 01.464-.646l.878.678a3.94 3.94 0 00-.413.516 2.33 2.33 0 00-.366 1.229c.004.231.044.49.121.779.179.667.463 1.132.853 1.395.398.26.876.315 1.435.166l.109-.029c.559-.15.941-.436 1.147-.858.214-.425.232-.971.054-1.638l-.298-1.109.988-.265.275 1.028zm-3.248 10.271c-.302-1.127-.095-2.066.621-2.819.719-.743 1.849-1.321 3.391-1.734 1.541-.413 2.809-.478 3.803-.193.997.293 1.646 1.003 1.948 2.13.302 1.127.094 2.062-.625 2.806-.716.752-1.845 1.335-3.387 1.748-1.542.413-2.811.473-3.807.179-.994-.284-1.642-.99-1.944-2.117zm.987-.264c.099.37.26.665.483.885.224.22.497.374.82.462.323.087.683.116 1.081.087a6.204 6.204 0 001.29-.216l1.542-.413c.46-.123.868-.276 1.225-.458a3.22 3.22 0 00.893-.617c.236-.237.396-.507.479-.809.083-.303.075-.639-.024-1.008-.099-.37-.26-.665-.483-.885a1.826 1.826 0 00-.82-.462 3.464 3.464 0 00-1.085-.1 6.944 6.944 0 00-1.286.228l-1.542.413c-.46.124-.869.272-1.229.446a3.458 3.458 0 00-.889.629 1.816 1.816 0 00-.479.81c-.083.302-.075.638.024 1.008zm1.222 8.508c-.302-1.127-.095-2.066.621-2.819.719-.743 1.849-1.321 3.391-1.734 1.541-.414 2.809-.478 3.803-.193.997.293 1.646 1.003 1.948 2.13.302 1.127.094 2.062-.625 2.805-.716.753-1.845 1.335-3.387 1.749-1.542.413-2.811.472-3.807.179-.994-.284-1.642-.99-1.944-2.117zm.987-.264c.099.369.26.664.483.885.224.22.497.374.82.461.323.088.683.117 1.081.087.4-.02.831-.092 1.29-.215l1.542-.413c.46-.123.868-.276 1.225-.459.359-.173.657-.379.893-.616s.396-.507.479-.809c.083-.303.075-.639-.024-1.008-.099-.37-.26-.665-.484-.886a1.815 1.815 0 00-.819-.461 3.466 3.466 0 00-1.085-.101 7.06 7.06 0 00-1.287.229l-1.541.413c-.46.123-.87.272-1.229.445a3.485 3.485 0 00-.889.63 1.819 1.819 0 00-.479.809c-.083.303-.075.639.024 1.009zm1.221 8.508c-.301-1.127-.094-2.067.622-2.819.719-.743 1.849-1.322 3.391-1.735 1.541-.413 2.809-.477 3.803-.193.997.294 1.646 1.004 1.948 2.131.302 1.127.094 2.062-.625 2.805-.717.752-1.845 1.335-3.387 1.748-1.542.413-2.811.473-3.807.18-.995-.285-1.643-.99-1.945-2.117zm.988-.265c.099.37.26.665.483.885.223.221.497.375.82.462.323.087.683.116 1.081.087.4-.02.83-.092 1.29-.215l1.542-.413c.46-.123.868-.276 1.225-.459a3.24 3.24 0 00.893-.616c.236-.237.395-.507.479-.81.083-.302.075-.638-.024-1.008-.099-.369-.26-.664-.484-.885a1.815 1.815 0 00-.819-.461 3.466 3.466 0 00-1.085-.101 6.975 6.975 0 00-1.287.229l-1.541.413c-.46.123-.87.271-1.229.445a3.46 3.46 0 00-.889.63 1.819 1.819 0 00-.479.809c-.083.303-.075.639.024 1.008zm1.831 10.133l-.305-1.136 9.439-2.529 1.007 3.759c.223.83.166 1.536-.171 2.119-.334.592-.934 1.004-1.799 1.236-.695.186-1.311.177-1.848-.027-.527-.197-.945-.588-1.256-1.171l-3.585 3.28-.345-1.285 3.51-3.129-.591-2.204-4.056 1.087zm5.733 1.275c.121.451.331.767.631.947.302.19.669.227 1.102.111l.703-.188c.433-.116.732-.332.899-.647.169-.306.194-.685.073-1.136l-.703-2.623-3.408.913.703 2.623zm-3.684 6.374l9.439-2.529 1.007 3.759c.228.848.158 1.562-.208 2.143-.355.588-.951.994-1.79 1.219-.838.225-1.562.172-2.172-.157-.599-.323-1.012-.908-1.239-1.755l-.703-2.624-4.03 1.08-.304-1.136zm5.335-.212l.703 2.624c.121.45.331.766.631.947.302.189.669.226 1.102.11l.703-.188c.433-.116.732-.332.899-.647.169-.306.194-.685.073-1.136l-.703-2.623-3.408.913zm6.821 13.774l-.018-.067-1.796-.374-4.716-1.157 3.506-3.36 1.369-1.222-.019-.067-7.951 2.13-.297-1.109 9.439-2.529.406 1.515-4.36 4.067.018.067 5.813 1.356.391 1.46-9.439 2.53-.297-1.109 7.951-2.131z" fill="#fff"/><defs><clipPath id="clip0"><path fill="#fff" transform="rotate(75 -10.591 412.544)" d="M0 0h16v16H0z"/></clipPath><clipPath id="clip1"><path fill="#fff" transform="rotate(75 -145.51 587.505)" d="M0 0h16v16H0z"/></clipPath></defs></svg>