<svg width="152" height="92" fill="none" xmlns="http://www.w3.org/2000/svg"><path d="M127.731 88.601c-2.12 1.41-91.412 2.4-91.412 2.4s-11.22-2.4-17.452-8.4C5.155 71.8 1 51.4 1 51.4l149.93 7.334s-8.656 20.193-23.199 29.866z" fill="#F7F3E9" stroke="#323232" stroke-width=".6"/><path d="M20.945 58.6C10.972 56.8 1 51.4 1 51.4h139.196l10.388 7.2H20.944z" fill="#F7F3E9"/><path d="M20.114 45.142C8.064 46 1.415 51.557 1.415 51.557L20.114 56.8l129.224-.6-8.727-4.642-12.45-6.416H20.114z" fill="#F7F3E9"/><path d="M20.945 58.6C10.972 56.8 1 51.4 1 51.4h139.196l10.388 7.2H20.944z" stroke="#323232" stroke-width=".6"/><path d="M20.114 45.142C8.064 46 1.415 51.557 1.415 51.557L20.114 56.8l129.224-.6-8.727-4.642-12.45-6.416H20.114z" stroke="#323232" stroke-width=".6"/><path d="M1 47.2v4.2l3.324-1.8 3.74-1.8 3.324-1.2 4.155-1.2 3.74-.32h108.864V40.6H18.867l-3.324.6-4.57 1.2-3.325 1.2-3.324 1.8L1 47.2z" fill="#FAF9F5" stroke="#323232" stroke-width=".6"/><path d="M74.961 32.392l-33.24-.192v19.264c.692.903 2.077 1.505 4.847 2.407 6.925 1.505 18.006 1.505 24.238 0 2.078-.602 3.463-1.203 4.155-1.805V32.392z" fill="#FAF9F5" stroke="#323232" stroke-width=".6" stroke-miterlimit="10" stroke-linecap="round" stroke-linejoin="round"/><path d="M70.33 35.695c6.407-1.566 6.051-4.352-.356-5.919-6.407-1.567-17.085-1.567-23.492 0s-6.407 4.179.356 5.92c6.407 1.74 17.085 1.74 23.492 0z" fill="#F7F3E9" stroke="#323232" stroke-width=".6" stroke-miterlimit="10"/><path d="M64.158 3.4l-11.634.523V31.53c.237.784.637 1.307 1.586 2.091 2.375 1.307 6.249 1.307 8.386 0 .712-.523 1.425-.784 1.662-1.568V3.4z" fill="#B62C2C" stroke="#323232" stroke-width=".6" stroke-miterlimit="10" stroke-linecap="round" stroke-linejoin="round"/><path d="M62.537 5.054c2.243-.895 2.118-2.487-.124-3.383-2.243-.895-5.98-.895-8.223 0-2.242.896-2.242 2.388.125 3.383 2.242.995 5.98.995 8.222 0zM41.026 68.281c.96-1.343.907-3.73-.054-5.074-.96-1.343-2.562-1.343-3.523 0-.961 1.343-.961 3.582.053 5.074.961 1.492 2.563 1.492 3.524 0zm13.296 0c.961-1.343.908-3.73-.053-5.074-.961-1.343-2.563-1.343-3.524 0-.961 1.343-.961 3.582.053 5.074.962 1.492 2.563 1.492 3.524 0zm13.296 0c.962-1.343.908-3.73-.053-5.074-.96-1.343-2.563-1.343-3.524 0-.96 1.343-.96 3.582.054 5.074.96 1.492 2.563 1.492 3.523 0zm13.297 0c.96-1.343.907-3.73-.054-5.074-.96-1.343-2.562-1.343-3.523 0-.962 1.343-.962 3.582.053 5.074.961 1.492 2.563 1.492 3.524 0zm13.296 0c.962-1.343.908-3.73-.053-5.074-.961-1.343-2.563-1.343-3.524 0-.96 1.343-.96 3.582.054 5.074.96 1.492 2.562 1.492 3.523 0zm13.297 0c.961-1.343.907-3.73-.054-5.074-.961-1.343-2.562-1.343-3.523 0-.961 1.343-.961 3.582.053 5.074.961 1.492 2.563 1.492 3.524 0zm13.296 0c.961-1.343.908-3.73-.053-5.074-.961-1.343-2.563-1.343-3.524 0-.961 1.343-.961 3.582.053 5.074.961 1.492 2.563 1.492 3.524 0zm13.296 0c.961-1.343.908-3.73-.053-5.074-.961-1.343-2.563-1.343-3.524 0-.961 1.343-.961 3.582.054 5.074.961 1.492 2.562 1.492 3.523 0z" fill="#B62C2C" stroke="#323232" stroke-width=".6" stroke-miterlimit="10"/><path d="M61.938 4.227c1.922-.448 1.815-1.244-.107-1.692-1.922-.447-5.126-.447-7.048 0-1.922.448-1.922 1.194.107 1.692 1.922.497 5.126.497 7.048 0zM40.426 67.454c.641-.895.605-2.487-.035-3.383-.641-.895-1.709-.895-2.35 0-.64.896-.64 2.388.036 3.383.64.995 1.709.995 2.35 0zm13.297 0c.64-.895.605-2.487-.036-3.383-.64-.895-1.708-.895-2.35 0-.64.896-.64 2.388.036 3.383.641.995 1.709.995 2.35 0zm13.297 0c.64-.895.604-2.487-.036-3.383-.641-.895-1.709-.895-2.35 0-.64.896-.64 2.388.036 3.383.64.995 1.709.995 2.35 0zm13.296 0c.64-.895.605-2.487-.036-3.383-.64-.895-1.709-.895-2.35 0-.64.896-.64 2.388.036 3.383.641.995 1.709.995 2.35 0zm13.296 0c.64-.895.605-2.487-.036-3.383-.64-.895-1.708-.895-2.349 0-.64.896-.64 2.388.036 3.383.64.995 1.708.995 2.349 0zm13.296 0c.641-.895.605-2.487-.036-3.383-.64-.895-1.708-.895-2.349 0-.641.896-.641 2.388.036 3.383.64.995 1.708.995 2.349 0zm13.296 0c.641-.895.606-2.487-.035-3.383-.641-.895-1.709-.895-2.349 0-.641.896-.641 2.388.035 3.383.641.995 1.709.995 2.349 0zm13.297 0c.641-.895.605-2.487-.036-3.383-.64-.895-1.708-.895-2.349 0-.641.896-.641 2.388.036 3.383.64.995 1.708.995 2.349 0z" fill="#F7F3E9" stroke="#323232" stroke-width=".6" stroke-miterlimit="10"/><path d="M128.147 44.8v-4.2L151 54.4v4.2l-22.853-13.8zm-22.438 1.8v-8.4l17.867 10.118v8.4L105.709 46.6z" fill="#FAF9F5" stroke="#323232" stroke-width=".6"/><path d="M114.435 56.718v-8.4h9.141v8.4h-9.141z" fill="#F7F3E9" stroke="#323232" stroke-width=".6"/><path d="M114.435 48.4l-16.62-10.2h7.894l17.867 10.2h-9.141z" fill="#F7F3E9" stroke="#323232" stroke-width=".6"/><path d="M114.02 46.6v-4.8h5.817v4.8h-5.817zm-.376-4.8l-11.259-6.6h5.402l12.05 6.6h-6.193z" fill="#F7F3E9" stroke="#323232" stroke-width=".6"/><path d="M97.815 46v-7.8l16.62 10.118v8.4L97.815 46zm4.57-6.345v-4.454l11.634 6.6v4.8l-11.634-6.946z" fill="#FAF9F5" stroke="#323232" stroke-width=".6"/><path d="M112.357 31.6h-2.493v6.009c.051.151.137.252.34.403.509.251 1.339.251 1.797 0 .153-.101.305-.151.356-.302V31.6z" fill="#B62C2C" stroke="#323232" stroke-width=".6" stroke-miterlimit="10" stroke-linecap="round" stroke-linejoin="round"/><path d="M112.01 32.014c.481-.224.454-.622-.027-.846-.48-.224-1.281-.224-1.762 0-.48.224-.48.597.027.846.481.248 1.281.248 1.762 0z" fill="#B62C2C" stroke="#323232" stroke-width=".6" stroke-miterlimit="10"/><path d="M1 47.2v4.2l4.155 3 4.571 2.4 4.986 1.2 6.233.6H151v-4.2H20.945l-6.233-.6-4.986-1.2-4.155-2.4-4.57-3z" fill="#F7F3E9" stroke="#323232" stroke-width=".6"/></svg>