<svg width="1440" height="810" viewBox="0 0 1440 810" fill="none" xmlns="http://www.w3.org/2000/svg">
<path d="M690.177 327.147C689.697 327.436 689.241 327.628 688.809 327.724C688.372 327.813 687.965 327.823 687.587 327.756C687.217 327.685 686.879 327.539 686.574 327.32C686.276 327.096 686.023 326.812 685.817 326.468C685.471 325.892 685.353 325.342 685.463 324.819C685.573 324.296 685.839 323.814 686.261 323.375L686.204 323.279C685.672 323.392 685.174 323.359 684.708 323.182C684.245 322.992 683.87 322.657 683.581 322.177C683.197 321.537 683.123 320.889 683.361 320.234C683.595 319.572 684.131 318.988 684.971 318.483C685.811 317.978 686.579 317.779 687.274 317.884C687.963 317.981 688.501 318.35 688.885 318.99C689.174 319.47 689.289 319.961 689.232 320.464C689.178 320.953 688.976 321.407 688.628 321.823L688.685 321.919C689.271 321.752 689.821 321.743 690.335 321.892C690.849 322.04 691.279 322.402 691.625 322.978C691.832 323.322 691.96 323.681 692.01 324.054C692.068 324.422 692.037 324.788 691.919 325.153C691.809 325.514 691.612 325.866 691.329 326.21C691.041 326.547 690.657 326.859 690.177 327.147ZM689.651 326.271C690.235 325.92 690.61 325.521 690.776 325.073C690.938 324.616 690.874 324.148 690.586 323.668L690.434 323.416C690.146 322.936 689.765 322.664 689.291 322.6C688.812 322.529 688.281 322.668 687.697 323.019C687.113 323.37 686.74 323.774 686.579 324.23C686.413 324.678 686.474 325.142 686.762 325.622L686.914 325.875C687.202 326.355 687.586 326.63 688.064 326.702C688.538 326.766 689.067 326.622 689.651 326.271ZM687.192 322.179C687.72 321.862 688.053 321.51 688.19 321.122C688.328 320.735 688.267 320.325 688.007 319.893L687.899 319.713C687.639 319.281 687.306 319.035 686.9 318.974C686.493 318.914 686.026 319.042 685.498 319.359C684.97 319.676 684.637 320.029 684.5 320.416C684.362 320.804 684.423 321.213 684.683 321.645L684.791 321.825C685.051 322.257 685.384 322.504 685.79 322.564C686.197 322.625 686.664 322.496 687.192 322.179Z" fill="white"/>
<path d="M697.493 322.752C697.013 323.04 696.557 323.233 696.125 323.329C695.688 323.417 695.28 323.428 694.903 323.361C694.533 323.289 694.195 323.144 693.889 322.924C693.591 322.701 693.339 322.417 693.132 322.073C692.786 321.497 692.668 320.947 692.778 320.423C692.888 319.9 693.155 319.419 693.577 318.98L693.519 318.884C692.988 318.996 692.489 318.964 692.023 318.786C691.561 318.596 691.185 318.261 690.897 317.781C690.512 317.141 690.439 316.494 690.677 315.839C690.91 315.176 691.447 314.592 692.287 314.088C693.127 313.583 693.894 313.383 694.589 313.488C695.279 313.585 695.816 313.954 696.201 314.594C696.489 315.074 696.605 315.565 696.547 316.068C696.493 316.558 696.292 317.011 695.943 317.427L696.001 317.523C696.587 317.357 697.137 317.347 697.65 317.496C698.164 317.644 698.594 318.007 698.94 318.583C699.147 318.927 699.275 319.285 699.325 319.658C699.383 320.026 699.353 320.393 699.235 320.758C699.125 321.118 698.928 321.47 698.645 321.815C698.357 322.151 697.973 322.463 697.493 322.752ZM696.967 321.876C697.551 321.525 697.926 321.125 698.092 320.677C698.253 320.221 698.19 319.752 697.901 319.272L697.75 319.02C697.461 318.54 697.08 318.269 696.606 318.205C696.128 318.133 695.596 318.273 695.012 318.624C694.428 318.975 694.056 319.378 693.894 319.834C693.728 320.283 693.789 320.747 694.078 321.227L694.229 321.479C694.518 321.959 694.901 322.235 695.38 322.307C695.854 322.37 696.382 322.227 696.967 321.876ZM694.508 317.784C695.036 317.466 695.368 317.114 695.506 316.727C695.643 316.339 695.582 315.929 695.323 315.497L695.214 315.317C694.955 314.885 694.622 314.639 694.215 314.578C693.809 314.518 693.341 314.646 692.813 314.964C692.285 315.281 691.953 315.633 691.815 316.021C691.678 316.408 691.739 316.818 691.998 317.25L692.107 317.43C692.366 317.862 692.699 318.108 693.106 318.169C693.512 318.229 693.98 318.101 694.508 317.784Z" fill="white"/>
<path d="M704.917 312.493L704.522 314.527L706.202 317.323L705.194 317.929L700.161 309.552L701.169 308.947L703.844 313.399L703.88 313.377L704.208 311.204L704.937 306.683L706.173 305.94L705.209 311.403L711.422 314.186L710.174 314.936L704.917 312.493Z" fill="white"/>
<path d="M715.208 302.308L715.148 302.344L715.284 304.173L715.471 309.026L711.275 306.582L709.724 305.603L709.664 305.639L713.904 312.695L712.92 313.287L707.887 304.91L709.231 304.103L714.342 307.173L714.402 307.137L714.103 301.175L715.399 300.396L720.432 308.773L719.448 309.364L715.208 302.308Z" fill="white"/>
<path d="M725.744 300.42L721.508 302.965L723.786 306.757L722.778 307.363L717.745 298.987L718.753 298.381L720.974 302.077L725.21 299.532L722.989 295.836L723.997 295.23L729.03 303.606L728.022 304.212L725.744 300.42Z" fill="white"/>
<path d="M735.665 298.021C735.64 298.076 735.601 298.124 735.551 298.159C735.501 298.194 735.442 298.215 735.381 298.219C735.32 298.222 735.259 298.209 735.205 298.181C735.151 298.152 735.106 298.11 735.074 298.057L731.617 292.303C731.585 292.251 731.569 292.191 731.569 292.13C731.569 292.068 731.586 292.009 731.618 291.957C731.65 291.905 731.696 291.862 731.75 291.834C731.805 291.807 731.866 291.794 731.927 291.799L737.732 292.227C737.785 292.231 737.836 292.248 737.882 292.276C737.927 292.304 737.965 292.342 737.992 292.388C738.02 292.434 738.036 292.485 738.039 292.538C738.043 292.592 738.033 292.645 738.012 292.694L735.665 298.021ZM736.76 289.213C736.728 289.16 736.712 289.1 736.712 289.039C736.712 288.978 736.729 288.918 736.761 288.866C736.793 288.814 736.839 288.772 736.893 288.744C736.948 288.716 737.009 288.704 737.07 288.708L742.875 289.137C742.928 289.141 742.979 289.158 743.025 289.186C743.07 289.214 743.108 289.252 743.135 289.298C743.163 289.343 743.179 289.395 743.182 289.448C743.186 289.501 743.176 289.555 743.155 289.603L740.808 294.93C740.783 294.986 740.744 295.034 740.694 295.069C740.644 295.104 740.585 295.125 740.524 295.128C740.463 295.132 740.402 295.119 740.348 295.091C740.294 295.062 740.249 295.02 740.217 294.967L736.76 289.213Z" fill="white"/>
<path d="M440.352 495.832C439.724 496.21 439.518 497.033 439.896 497.662C440.274 498.29 441.097 498.495 441.726 498.118C442.354 497.74 442.56 496.917 442.182 496.288C441.804 495.66 440.981 495.454 440.352 495.832ZM448.353 491.025C447.724 491.403 447.519 492.226 447.896 492.855C448.274 493.483 449.097 493.688 449.726 493.311C450.355 492.933 450.56 492.11 450.182 491.481C449.804 490.853 448.981 490.647 448.353 491.025ZM444.352 493.428C443.724 493.806 443.519 494.63 443.896 495.258C444.274 495.887 445.097 496.092 445.726 495.714C446.354 495.337 446.56 494.513 446.182 493.885C445.804 493.256 444.981 493.051 444.352 493.428Z" fill="white"/>
<path d="M461.455 490.737C460.775 491.146 460.118 491.366 459.484 491.398C458.846 491.423 458.221 491.308 457.611 491.054L457.98 489.983C458.512 490.197 459.02 490.3 459.505 490.292C459.985 490.275 460.469 490.12 460.957 489.827C461.557 489.467 461.927 489.049 462.066 488.573C462.213 488.093 462.142 487.613 461.854 487.133C461.613 486.733 461.308 486.497 460.938 486.425C460.569 486.353 460.069 486.419 459.44 486.623L458.663 486.878C457.789 487.163 457.042 487.253 456.423 487.146C455.806 487.026 455.303 486.642 454.914 485.994C454.693 485.626 454.564 485.257 454.527 484.888C454.49 484.518 454.534 484.165 454.658 483.829C454.791 483.488 454.996 483.168 455.275 482.87C455.556 482.56 455.901 482.282 456.309 482.037C456.941 481.657 457.551 481.448 458.138 481.411C458.734 481.369 459.322 481.478 459.903 481.739L459.479 482.745C459.054 482.565 458.623 482.481 458.184 482.494C457.746 482.507 457.283 482.66 456.795 482.953C456.259 483.276 455.904 483.646 455.732 484.066C455.562 484.472 455.614 484.904 455.888 485.36C456.129 485.76 456.44 485.987 456.82 486.041C457.205 486.082 457.697 486.005 458.297 485.807L459.075 485.552C460.009 485.241 460.774 485.163 461.367 485.318C461.961 485.473 462.446 485.862 462.821 486.486C463.052 486.87 463.193 487.259 463.244 487.653C463.304 488.042 463.274 488.419 463.156 488.784C463.038 489.149 462.835 489.5 462.547 489.836C462.267 490.167 461.903 490.468 461.455 490.737Z" fill="white"/>
<path d="M460.677 478.922L461.637 478.345L463.858 482.041L463.906 482.012C463.847 481.569 463.891 481.161 464.038 480.79C464.193 480.414 464.502 480.086 464.966 479.807C465.606 479.423 466.235 479.328 466.853 479.523C467.474 479.705 468.011 480.172 468.463 480.924L470.849 484.896L469.889 485.473L467.604 481.669C466.935 480.557 466.133 480.282 465.197 480.845C465.005 480.96 464.832 481.097 464.677 481.255C464.529 481.409 464.413 481.577 464.326 481.76C464.24 481.942 464.198 482.136 464.202 482.341C464.208 482.533 464.272 482.729 464.392 482.929L466.973 487.225L466.013 487.802L460.677 478.922Z" fill="white"/>
<path d="M475.38 482.37C474.964 482.62 474.539 482.772 474.103 482.827C473.668 482.881 473.242 482.843 472.826 482.712C472.413 482.568 472.021 482.341 471.649 482.031C471.273 481.713 470.935 481.306 470.637 480.81C470.344 480.322 470.145 479.837 470.041 479.355C469.937 478.873 469.92 478.42 469.992 477.996C470.067 477.559 470.231 477.161 470.484 476.803C470.736 476.444 471.071 476.139 471.487 475.89C471.903 475.64 472.324 475.49 472.752 475.44C473.187 475.385 473.615 475.427 474.036 475.566C474.453 475.697 474.849 475.922 475.225 476.24C475.602 476.558 475.936 476.962 476.23 477.45C476.528 477.946 476.729 478.434 476.833 478.916C476.933 479.39 476.945 479.845 476.87 480.282C476.79 480.711 476.624 481.105 476.371 481.464C476.127 481.818 475.796 482.12 475.38 482.37ZM474.868 481.518C475.388 481.205 475.716 480.79 475.852 480.273C475.988 479.756 475.858 479.17 475.464 478.514L474.931 477.626C474.537 476.97 474.079 476.58 473.559 476.457C473.039 476.334 472.519 476.429 471.999 476.742C471.479 477.054 471.151 477.469 471.015 477.986C470.879 478.503 471.008 479.09 471.403 479.746L471.936 480.634C472.33 481.29 472.788 481.679 473.308 481.802C473.828 481.925 474.348 481.83 474.868 481.518Z" fill="white"/>
<path d="M475.362 473.757L476.298 473.195L478.566 475.474L480.855 477.79L480.879 477.775L480.006 474.609L479.178 471.464L480.03 470.952L482.442 473.145L484.839 475.396L484.863 475.382L483.87 472.287L482.934 469.207L483.834 468.667L485.91 475.847L484.722 476.56L482.07 474.104L480.398 472.544L480.374 472.558L480.978 474.76L481.902 478.255L480.738 478.954L475.362 473.757Z" fill="white"/>
<path d="M492.017 472.177L488.297 465.985L489.257 465.408L489.862 466.416L489.91 466.387C489.886 466.184 489.877 465.988 489.884 465.799C489.893 465.597 489.931 465.406 489.996 465.225C490.07 465.039 490.178 464.866 490.32 464.704C490.458 464.534 490.646 464.377 490.886 464.233C491.294 463.988 491.73 463.862 492.195 463.855C492.654 463.841 493.102 464.007 493.539 464.354L493.563 464.339C493.474 463.936 493.506 463.519 493.661 463.088C493.819 462.645 494.162 462.265 494.69 461.947C495.322 461.568 495.939 461.48 496.541 461.684C497.147 461.876 497.675 462.348 498.127 463.1L500.514 467.072L499.554 467.649L497.268 463.845C496.936 463.293 496.578 462.942 496.194 462.791C495.81 462.641 495.382 462.708 494.91 462.992C494.718 463.107 494.548 463.241 494.401 463.395C494.262 463.544 494.153 463.708 494.075 463.885C493.996 464.063 493.963 464.252 493.974 464.452C493.981 464.644 494.044 464.84 494.164 465.04L496.746 469.336L495.785 469.913L493.5 466.109C493.168 465.557 492.81 465.206 492.426 465.056C492.042 464.905 491.621 464.967 491.165 465.241C490.973 465.357 490.804 465.491 490.657 465.645C490.51 465.799 490.397 465.964 490.318 466.142C490.24 466.32 490.203 466.511 490.206 466.716C490.213 466.908 490.276 467.104 490.396 467.304L492.977 471.6L492.017 472.177Z" fill="white"/>
<path d="M505.041 464.548C504.625 464.798 504.199 464.95 503.764 465.005C503.328 465.06 502.903 465.021 502.486 464.89C502.073 464.747 501.681 464.52 501.31 464.209C500.933 463.891 500.596 463.484 500.298 462.988C500.005 462.5 499.806 462.015 499.702 461.533C499.597 461.051 499.581 460.598 499.653 460.174C499.728 459.737 499.891 459.339 500.144 458.981C500.397 458.622 500.731 458.318 501.147 458.068C501.563 457.818 501.985 457.668 502.412 457.618C502.848 457.563 503.276 457.605 503.697 457.744C504.113 457.875 504.509 458.1 504.886 458.418C505.262 458.737 505.597 459.14 505.89 459.628C506.188 460.124 506.389 460.613 506.494 461.094C506.593 461.568 506.605 462.023 506.531 462.46C506.451 462.889 506.285 463.283 506.032 463.642C505.787 463.996 505.457 464.298 505.041 464.548ZM504.529 463.696C505.049 463.383 505.377 462.969 505.513 462.452C505.648 461.934 505.519 461.348 505.125 460.692L504.591 459.804C504.197 459.148 503.74 458.758 503.22 458.635C502.699 458.512 502.179 458.607 501.659 458.92C501.139 459.232 500.811 459.647 500.675 460.164C500.54 460.681 500.669 461.268 501.063 461.924L501.597 462.812C501.991 463.468 502.448 463.857 502.968 463.98C503.489 464.103 504.009 464.008 504.529 463.696Z" fill="white"/>
<path d="M509.449 461.703L505.729 455.511L506.689 454.934L507.374 456.074L507.434 456.038C507.368 455.675 507.409 455.29 507.558 454.885C507.706 454.48 508.033 454.126 508.537 453.824L508.909 453.6L509.486 454.56L508.922 454.899C508.402 455.211 508.054 455.557 507.878 455.934C507.705 456.299 507.708 456.63 507.886 456.926L510.409 461.126L509.449 461.703Z" fill="white"/>
<path d="M516.332 457.764C515.908 458.018 515.478 458.173 515.043 458.228C514.615 458.278 514.193 458.237 513.777 458.106C513.364 457.962 512.972 457.735 512.6 457.425C512.232 457.102 511.899 456.692 511.601 456.196C511.308 455.708 511.105 455.226 510.992 454.749C510.888 454.267 510.872 453.814 510.944 453.39C511.018 452.953 511.178 452.558 511.423 452.204C511.676 451.845 512.014 451.538 512.438 451.283C512.854 451.033 513.272 450.886 513.691 450.841C514.11 450.796 514.518 450.84 514.913 450.972C515.304 451.097 515.67 451.307 516.011 451.603C516.36 451.894 516.667 452.26 516.931 452.7L517.205 453.156L512.753 455.831L512.926 456.119C513.085 456.383 513.274 456.607 513.493 456.791C513.716 456.962 513.953 457.086 514.206 457.162C514.467 457.234 514.739 457.251 515.02 457.212C515.31 457.169 515.599 457.061 515.887 456.888C516.279 456.652 516.564 456.356 516.741 455.999C516.927 455.637 516.996 455.236 516.949 454.796L517.929 454.877C517.984 455.421 517.878 455.952 517.613 456.471C517.343 456.982 516.916 457.413 516.332 457.764ZM512.921 452.087C512.657 452.246 512.446 452.438 512.288 452.664C512.124 452.882 512.013 453.123 511.954 453.387C511.903 453.646 511.903 453.918 511.955 454.203C512.001 454.48 512.106 454.755 512.27 455.027L512.32 455.111L515.74 453.056L515.661 452.924C515.329 452.372 514.913 452.023 514.412 451.878C513.914 451.72 513.417 451.789 512.921 452.087Z" fill="white"/>
<path d="M434.835 478.883C433.441 479.519 431.856 479.599 430.406 479.104C428.955 478.61 427.749 477.579 427.034 476.224C426.319 474.869 426.15 473.291 426.561 471.815C426.972 470.339 427.932 469.076 429.245 468.285C430.559 467.494 432.127 467.236 433.625 467.565C435.124 467.894 436.44 468.785 437.302 470.054C438.164 471.323 438.507 472.874 438.261 474.389C438.015 475.903 437.198 477.265 435.978 478.196L437.37 480.513L436.227 481.2L434.835 478.883Z" fill="white"/>
<path d="M449.238 470.078C448.806 470.338 448.371 470.501 447.932 470.569C447.497 470.624 447.074 470.589 446.662 470.466C446.254 470.331 445.866 470.101 445.497 469.778C445.129 469.455 444.796 469.045 444.498 468.549C444.123 467.925 443.864 467.286 443.721 466.632C443.573 465.969 443.509 465.327 443.528 464.706C443.55 464.072 443.633 463.478 443.779 462.922C443.919 462.359 444.092 461.868 444.299 461.45L445.595 460.671C445.344 461.268 445.136 461.829 444.972 462.352C444.807 462.876 444.696 463.389 444.639 463.891C444.577 464.386 444.571 464.885 444.623 465.387C444.67 465.882 444.784 466.407 444.965 466.962L445.039 466.95C445.033 466.486 445.118 466.048 445.295 465.637C445.476 465.212 445.822 464.846 446.334 464.539C446.694 464.322 447.062 464.183 447.438 464.12C447.815 464.058 448.178 464.073 448.529 464.168C448.879 464.262 449.211 464.433 449.523 464.681C449.843 464.924 450.121 465.241 450.357 465.633C450.602 466.041 450.76 466.458 450.83 466.884C450.904 467.297 450.892 467.702 450.793 468.099C450.697 468.483 450.518 468.847 450.256 469.189C449.993 469.532 449.654 469.828 449.238 470.078ZM448.7 469.209C449.252 468.878 449.588 468.469 449.71 467.982C449.839 467.49 449.733 466.961 449.392 466.393L449.334 466.297C448.993 465.729 448.575 465.386 448.08 465.27C447.594 465.149 447.074 465.254 446.522 465.585C445.97 465.917 445.629 466.329 445.5 466.82C445.379 467.307 445.489 467.834 445.83 468.402L445.888 468.498C446.229 469.066 446.643 469.411 447.13 469.532C447.624 469.649 448.148 469.541 448.7 469.209Z" fill="white"/>
<path d="M453.911 467.075L453.377 466.187L455.718 464.78L451.665 458.036L451.581 458.087L450.652 461.324L449.682 461.041L450.654 457.631L452.226 456.687L456.726 464.175L458.886 462.877L459.419 463.765L453.911 467.075Z" fill="white"/>
<path d="M460.34 457.234C460.052 457.407 459.752 457.516 459.442 457.561C459.139 457.601 458.841 457.585 458.546 457.511C458.26 457.433 457.99 457.301 457.737 457.116C457.479 456.922 457.261 456.677 457.083 456.381C456.905 456.085 456.794 455.782 456.749 455.472C456.699 455.153 456.707 454.849 456.772 454.559C456.846 454.265 456.971 453.993 457.149 453.745C457.334 453.492 457.571 453.279 457.859 453.106C458.147 452.933 458.442 452.826 458.745 452.786C459.055 452.741 459.354 452.758 459.641 452.836C459.935 452.909 460.211 453.043 460.469 453.236C460.722 453.422 460.938 453.663 461.115 453.959C461.293 454.255 461.407 454.562 461.457 454.88C461.502 455.191 461.488 455.493 461.414 455.788C461.349 456.078 461.223 456.349 461.038 456.602C460.86 456.85 460.628 457.061 460.34 457.234ZM459.878 456.466C460.238 456.25 460.448 455.955 460.507 455.582C460.569 455.196 460.492 454.823 460.275 454.463C460.059 454.103 459.768 453.864 459.403 453.746C459.042 453.615 458.681 453.658 458.321 453.874C457.961 454.09 457.75 454.391 457.687 454.777C457.628 455.15 457.707 455.517 457.923 455.877C458.14 456.237 458.429 456.482 458.791 456.613C459.156 456.731 459.518 456.682 459.878 456.466Z" fill="white"/>
<path d="M469.591 457.849C468.591 458.45 467.63 458.51 466.71 458.029C465.797 457.543 464.93 456.616 464.108 455.248C463.286 453.88 462.874 452.679 462.874 451.645C462.881 450.606 463.385 449.786 464.385 449.185C465.385 448.584 466.341 448.527 467.254 449.013C468.174 449.494 469.046 450.419 469.868 451.787C470.69 453.155 471.097 454.358 471.09 455.397C471.09 456.431 470.591 457.248 469.591 457.849ZM469.064 456.973C469.392 456.776 469.631 456.54 469.782 456.265C469.932 455.989 470.005 455.684 470 455.35C469.995 455.015 469.923 454.661 469.785 454.286C469.655 453.907 469.468 453.513 469.223 453.105L468.401 451.737C468.156 451.329 467.896 450.979 467.622 450.686C467.356 450.388 467.077 450.159 466.784 449.997C466.491 449.836 466.187 449.757 465.874 449.76C465.56 449.764 465.239 449.864 464.911 450.061C464.583 450.258 464.344 450.494 464.194 450.77C464.043 451.045 463.971 451.35 463.976 451.685C463.981 452.019 464.048 452.376 464.178 452.755C464.316 453.13 464.507 453.521 464.753 453.929L465.575 455.297C465.82 455.705 466.075 456.058 466.341 456.356C466.615 456.648 466.899 456.875 467.192 457.037C467.485 457.198 467.788 457.277 468.102 457.274C468.415 457.271 468.736 457.17 469.064 456.973Z" fill="white"/>
<path d="M476.906 453.454C475.906 454.055 474.946 454.114 474.025 453.633C473.112 453.147 472.245 452.22 471.423 450.852C470.601 449.484 470.19 448.283 470.189 447.249C470.196 446.21 470.7 445.39 471.7 444.789C472.7 444.189 473.657 444.131 474.569 444.617C475.49 445.098 476.361 446.023 477.183 447.391C478.005 448.759 478.413 449.963 478.405 451.001C478.406 452.035 477.906 452.853 476.906 453.454ZM476.38 452.578C476.708 452.381 476.947 452.144 477.097 451.869C477.248 451.594 477.32 451.289 477.315 450.954C477.31 450.619 477.239 450.265 477.101 449.891C476.971 449.511 476.783 449.118 476.538 448.71L475.716 447.342C475.471 446.934 475.212 446.583 474.938 446.29C474.672 445.993 474.392 445.763 474.099 445.602C473.806 445.44 473.503 445.361 473.189 445.365C472.875 445.368 472.555 445.468 472.227 445.665C471.898 445.863 471.659 446.099 471.509 446.374C471.359 446.65 471.286 446.955 471.291 447.289C471.296 447.624 471.364 447.981 471.494 448.36C471.631 448.734 471.823 449.126 472.068 449.534L472.89 450.902C473.135 451.31 473.391 451.662 473.657 451.96C473.931 452.253 474.214 452.48 474.507 452.641C474.8 452.803 475.103 452.882 475.417 452.878C475.731 452.875 476.052 452.775 476.38 452.578Z" fill="white"/>
<path d="M478.481 446.137L476.846 441.893L477.734 441.36L479.369 445.604L478.481 446.137Z" fill="white"/>
<path d="M483.634 442.258L481.508 441.003L481.472 441.025L485.661 447.997L484.677 448.588L479.644 440.212L480.808 439.513L486.94 442.786L489.066 444.04L489.102 444.019L484.913 437.047L485.897 436.455L490.93 444.832L489.766 445.531L483.634 442.258Z" fill="white"/>
<path d="M495.355 435.606C495.923 435.265 496.271 434.882 496.397 434.458C496.526 434.021 496.468 433.598 496.223 433.19L496.173 433.106C495.908 432.666 495.571 432.423 495.161 432.375C494.755 432.314 494.327 432.419 493.879 432.688C493.447 432.947 493.153 433.255 492.996 433.61C492.835 433.958 492.762 434.344 492.779 434.77L491.689 434.641C491.692 434.411 491.717 434.172 491.765 433.926C491.816 433.666 491.903 433.412 492.026 433.164C492.149 432.916 492.319 432.673 492.535 432.434C492.751 432.195 493.027 431.975 493.363 431.773C493.715 431.562 494.075 431.41 494.445 431.319C494.81 431.219 495.16 431.194 495.494 431.244C495.832 431.28 496.144 431.392 496.431 431.579C496.726 431.762 496.974 432.021 497.176 432.357C497.339 432.629 497.442 432.899 497.484 433.168C497.533 433.432 497.534 433.687 497.486 433.934C497.439 434.181 497.348 434.42 497.216 434.652C497.091 434.879 496.933 435.088 496.743 435.279L496.772 435.327C497.025 435.24 497.289 435.191 497.564 435.178C497.843 435.152 498.115 435.179 498.38 435.259C498.649 435.326 498.906 435.454 499.151 435.645C499.4 435.822 499.617 436.067 499.805 436.379C500.021 436.739 500.153 437.112 500.199 437.498C500.241 437.875 500.203 438.247 500.085 438.612C499.962 438.969 499.76 439.313 499.48 439.645C499.201 439.976 498.849 440.269 498.425 440.524C498.065 440.74 497.721 440.893 497.392 440.981C497.064 441.069 496.752 441.11 496.454 441.104C496.156 441.098 495.873 441.061 495.604 440.994C495.343 440.922 495.093 440.833 494.854 440.726L495.264 439.695C495.469 439.801 495.673 439.886 495.874 439.949C496.084 440.009 496.294 440.04 496.504 440.045C496.713 440.05 496.931 440.022 497.157 439.963C497.377 439.896 497.616 439.785 497.872 439.631C498.464 439.276 498.833 438.874 498.978 438.428C499.118 437.973 499.04 437.498 498.742 437.002L498.684 436.906C498.386 436.41 498.006 436.121 497.543 436.04C497.076 435.95 496.546 436.083 495.954 436.439L494.97 437.03L494.443 436.154L495.355 435.606Z" fill="white"/>
<path d="M503.494 437.282L502.96 436.394L505.3 434.988L501.248 428.244L501.164 428.295L500.234 431.532L499.264 431.249L500.237 427.839L501.809 426.894L506.308 434.383L508.468 433.085L509.002 433.973L503.494 437.282Z" fill="white"/>
<path d="M509.922 427.442C509.634 427.615 509.335 427.724 509.024 427.769C508.722 427.809 508.423 427.793 508.129 427.719C507.842 427.641 507.572 427.509 507.319 427.323C507.062 427.13 506.844 426.885 506.666 426.589C506.488 426.293 506.377 425.99 506.331 425.679C506.282 425.361 506.289 425.057 506.355 424.767C506.428 424.472 506.554 424.201 506.731 423.953C506.917 423.7 507.154 423.487 507.442 423.314C507.73 423.141 508.025 423.034 508.327 422.994C508.638 422.949 508.936 422.965 509.223 423.044C509.518 423.117 509.794 423.251 510.052 423.444C510.305 423.63 510.52 423.87 510.698 424.166C510.876 424.462 510.99 424.77 511.039 425.088C511.084 425.399 511.07 425.701 510.997 425.996C510.931 426.286 510.806 426.557 510.62 426.81C510.443 427.058 510.21 427.269 509.922 427.442ZM509.461 426.674C509.821 426.458 510.03 426.163 510.089 425.79C510.151 425.404 510.074 425.031 509.858 424.671C509.642 424.311 509.351 424.072 508.986 423.954C508.624 423.823 508.263 423.865 507.903 424.082C507.543 424.298 507.332 424.599 507.27 424.985C507.211 425.358 507.29 425.724 507.506 426.084C507.722 426.444 508.011 426.69 508.373 426.821C508.738 426.939 509.101 426.89 509.461 426.674Z" fill="white"/>
<path d="M515.72 423.37C516.288 423.029 516.635 422.646 516.761 422.222C516.891 421.785 516.833 421.362 516.588 420.954L516.537 420.87C516.273 420.43 515.936 420.186 515.526 420.139C515.119 420.078 514.692 420.182 514.244 420.452C513.812 420.711 513.518 421.019 513.361 421.374C513.199 421.722 513.127 422.108 513.143 422.534L512.053 422.405C512.056 422.174 512.082 421.936 512.129 421.689C512.18 421.43 512.268 421.176 512.391 420.928C512.514 420.68 512.683 420.437 512.899 420.198C513.115 419.959 513.391 419.739 513.727 419.537C514.079 419.326 514.44 419.174 514.81 419.083C515.175 418.983 515.524 418.958 515.859 419.008C516.197 419.044 516.509 419.156 516.795 419.343C517.09 419.525 517.338 419.784 517.54 420.121C517.704 420.393 517.806 420.663 517.848 420.932C517.898 421.196 517.899 421.451 517.851 421.698C517.803 421.944 517.713 422.184 517.58 422.416C517.455 422.643 517.298 422.852 517.108 423.043L517.136 423.091C517.389 423.004 517.653 422.954 517.929 422.941C518.207 422.916 518.479 422.943 518.745 423.023C519.014 423.09 519.271 423.218 519.516 423.409C519.764 423.586 519.982 423.831 520.169 424.143C520.386 424.503 520.517 424.876 520.564 425.261C520.606 425.639 520.568 426.011 520.449 426.376C520.326 426.733 520.125 427.077 519.845 427.408C519.565 427.74 519.213 428.033 518.789 428.288C518.429 428.504 518.085 428.656 517.757 428.745C517.429 428.833 517.116 428.874 516.818 428.868C516.521 428.862 516.237 428.825 515.968 428.758C515.707 428.686 515.458 428.596 515.219 428.489L515.629 427.459C515.834 427.565 516.037 427.649 516.239 427.713C516.449 427.772 516.658 427.804 516.868 427.809C517.078 427.814 517.295 427.786 517.521 427.727C517.742 427.659 517.98 427.549 518.236 427.395C518.828 427.039 519.197 426.638 519.342 426.191C519.483 425.737 519.404 425.261 519.106 424.765L519.049 424.669C518.75 424.173 518.37 423.885 517.908 423.803C517.44 423.714 516.91 423.847 516.318 424.203L515.334 424.794L514.808 423.918L515.72 423.37Z" fill="white"/>
<path d="M526.489 423.662C525.489 424.262 524.528 424.322 523.608 423.841C522.695 423.355 521.828 422.428 521.006 421.06C520.184 419.692 519.772 418.491 519.772 417.457C519.779 416.418 520.283 415.598 521.283 414.997C522.283 414.396 523.239 414.339 524.152 414.825C525.072 415.306 525.944 416.231 526.766 417.599C527.588 418.967 527.995 420.17 527.988 421.209C527.988 422.243 527.489 423.061 526.489 423.662ZM525.962 422.785C526.29 422.588 526.529 422.352 526.68 422.077C526.83 421.801 526.903 421.496 526.898 421.162C526.893 420.827 526.821 420.473 526.683 420.098C526.553 419.719 526.366 419.325 526.121 418.917L525.299 417.549C525.054 417.141 524.794 416.791 524.52 416.498C524.254 416.201 523.975 415.971 523.682 415.81C523.389 415.648 523.085 415.569 522.772 415.573C522.458 415.576 522.137 415.676 521.809 415.873C521.481 416.07 521.242 416.307 521.092 416.582C520.941 416.857 520.869 417.162 520.874 417.497C520.879 417.831 520.946 418.188 521.076 418.568C521.214 418.942 521.405 419.333 521.651 419.741L522.473 421.109C522.718 421.517 522.973 421.87 523.239 422.168C523.513 422.46 523.797 422.688 524.09 422.849C524.383 423.011 524.686 423.09 525 423.086C525.313 423.083 525.634 422.983 525.962 422.785Z" fill="white"/>
<path d="M528.064 416.345L526.429 412.101L527.317 411.568L528.952 415.812L528.064 416.345Z" fill="white"/>
<path d="M534.26 418.796L529.227 410.42L534.339 407.348L534.873 408.236L530.769 410.702L532.456 413.51L536.32 411.188L536.854 412.076L532.989 414.398L534.734 417.302L538.838 414.836L539.372 415.724L534.26 418.796Z" fill="white"/>
</svg>
