<svg width="151" height="92" viewBox="0 0 151 92" fill="none" xmlns="http://www.w3.org/2000/svg">
<path d="M33.6075 76.1265L26.1605 76.4825V87.3401C26.1605 87.5181 26.1605 87.6961 26.1605 87.8741C26.3125 88.4081 26.6165 88.7641 27.2244 89.2981C28.7442 90.1881 31.1758 90.1881 32.5436 89.2981C32.9996 88.9421 33.3035 88.5861 33.4555 88.2301H33.6075V76.1265Z" fill="#FAF9F5" stroke="#323232" stroke-width="0.6" stroke-miterlimit="10" stroke-linecap="round" stroke-linejoin="round"/>
<path d="M76.4504 66.2871L74.5887 66.555V89.196C74.5887 89.33 74.5887 89.4639 74.5887 89.5979C74.6267 89.9998 74.7088 90.2677 74.8608 90.6695C75.4433 91.1099 75.6926 91.1099 76.1296 90.6695C76.2436 90.4016 76.3744 90.1337 76.4124 89.8658H76.4504V66.2871Z" fill="#FAF9F5" stroke="#323232" stroke-width="0.6" stroke-miterlimit="10" stroke-linecap="round" stroke-linejoin="round"/>
<path d="M79.014 86.8735C80.8082 85.9516 80.7085 84.3126 78.9144 83.3907C77.1202 82.4687 74.1298 82.4687 72.3356 83.3907C70.5414 84.3126 70.5414 85.8491 72.4353 86.8735C74.2295 87.8978 77.2198 87.8978 79.014 86.8735Z" fill="#F7F3E9" stroke="#323232" stroke-width="0.6" stroke-miterlimit="10"/>
<path d="M77.862 61.4556L73.2076 61.7235V84.3645C73.2076 84.4984 73.2076 84.6324 73.2076 84.7664C73.3026 85.1682 73.5079 85.4361 73.8878 85.838C75.3441 86.2783 75.9673 86.2783 77.0599 85.838C77.3449 85.5701 77.672 85.3022 77.767 85.0343H77.862V61.4556Z" fill="#FAF9F5" stroke="#323232" stroke-width="0.6" stroke-miterlimit="10" stroke-linecap="round" stroke-linejoin="round"/>
<path d="M124.833 76.1265L117.386 76.5079V88.1411C117.386 88.3318 117.386 88.5225 117.386 88.7132C117.538 89.2854 117.842 89.6668 118.45 90.2389C119.969 91.1925 122.401 91.1925 123.769 90.2389C124.225 89.8575 124.529 89.4761 124.681 89.0947H124.833V76.1265Z" fill="#FAF9F5" stroke="#323232" stroke-width="0.6" stroke-miterlimit="10" stroke-linecap="round" stroke-linejoin="round"/>
<path d="M34.5846 76.7207C37.0965 75.0612 36.9569 72.1111 34.4451 70.4516C31.9332 68.7922 27.7467 68.7922 25.2349 70.4516C22.723 72.1111 22.723 74.8769 25.3744 76.7207C27.8863 78.5646 32.0727 78.5646 34.5846 76.7207Z" fill="#FAF9F5" stroke="#323232" stroke-width="0.6" stroke-miterlimit="10"/>
<path d="M80.197 81.6631C82.7088 80.0036 82.5693 77.0535 80.0574 75.394C77.5456 73.7345 73.3591 73.7345 70.8472 75.394C68.3353 77.0535 68.3353 79.8192 70.9868 81.6631C73.4986 83.5069 77.6851 83.5069 80.197 81.6631Z" fill="#F7F3E9" stroke="#323232" stroke-width="0.6" stroke-miterlimit="10"/>
<path d="M78.2893 47.4595L72.7041 47.8V76.5802C72.7041 76.7504 72.7041 76.9207 72.7041 77.091C72.8181 77.6018 73.0461 77.9423 73.502 78.4532C74.6418 79.3045 76.4656 79.3045 77.4914 78.4532C77.8334 78.1126 78.0613 77.7721 78.1753 77.4315H78.2893V47.4595Z" fill="#FAF9F5" stroke="#323232" stroke-width="0.6" stroke-miterlimit="10" stroke-linecap="round" stroke-linejoin="round"/>
<path d="M81.4104 74.5897C84.8194 72.7459 84.63 69.4679 81.221 67.6241C77.8121 65.7802 72.1304 65.7802 68.7215 67.6241C65.3125 69.4679 65.3125 72.541 68.9108 74.5897C72.3198 76.6385 78.0014 76.6385 81.4104 74.5897Z" fill="#F7F3E9" stroke="#323232" stroke-width="0.6" stroke-miterlimit="10"/>
<path d="M79.2201 31.6436L71.7731 32.1519V70.169C71.7731 70.4232 71.7731 70.6773 71.7731 70.9315C71.9251 71.6939 72.1217 72.2716 73.0143 72.7069C74.2554 73.3122 76.3831 73.3122 77.9789 72.7069C78.5995 72.4715 78.9161 71.9481 79.0681 71.4398H79.2201V31.6436Z" fill="#FAF9F5" stroke="#323232" stroke-width="0.6" stroke-miterlimit="10" stroke-linecap="round" stroke-linejoin="round"/>
<path d="M125.68 76.7207C128.371 75.0612 128.222 72.1111 125.53 70.4516C122.839 68.7922 118.354 68.7922 115.662 70.4516C112.971 72.1111 112.971 74.8769 115.812 76.7207C118.503 78.5646 122.989 78.5646 125.68 76.7207Z" fill="#FAF9F5" stroke="#323232" stroke-width="0.6" stroke-miterlimit="10"/>
<path d="M34.5846 75.0021C37.0965 73.5037 36.9569 70.8399 34.4451 69.3415C31.9332 67.8432 27.7467 67.8432 25.2349 69.3415C22.723 70.8399 22.723 73.3372 25.3744 75.0021C27.8863 76.5004 32.0727 76.5004 34.5846 75.0021Z" fill="#FAF9F5" stroke="#323232" stroke-width="0.6" stroke-miterlimit="10"/>
<path d="M125.68 75.0021C128.371 73.5037 128.222 70.8399 125.53 69.3415C122.839 67.8432 118.354 67.8432 115.662 69.3415C112.971 70.8399 112.971 73.3372 115.812 75.0021C118.503 76.5004 122.989 76.5004 125.68 75.0021Z" fill="#FAF9F5" stroke="#323232" stroke-width="0.6" stroke-miterlimit="10"/>
<path d="M34.5846 74.7216C37.0965 72.8486 36.9569 69.5189 34.4451 67.6459C31.9332 65.773 27.7467 65.773 25.2349 67.6459C22.723 69.5189 22.723 72.6405 25.3744 74.7216C27.8863 76.5945 32.0727 76.5945 34.5846 74.7216Z" fill="#B62C2C" stroke="#323232" stroke-width="0.6" stroke-miterlimit="10"/>
<path d="M125.68 74.8623C128.371 73.1766 128.222 70.1799 125.53 68.4942C122.839 66.8086 118.354 66.8086 115.662 68.4942C112.971 70.1799 112.971 72.9893 115.812 74.8623C118.503 76.548 122.989 76.548 125.68 74.8623Z" fill="#B62C2C" stroke="#323232" stroke-width="0.6" stroke-miterlimit="10"/>
<path d="M34.5846 73.0255C37.0965 71.5271 36.9569 68.8634 34.4451 67.365C31.9332 65.8666 27.7467 65.8666 25.2349 67.365C22.723 68.8634 22.723 71.3606 25.3744 73.0255C27.8863 74.5239 32.0727 74.5239 34.5846 73.0255Z" fill="#B62C2C" stroke="#323232" stroke-width="0.6" stroke-miterlimit="10"/>
<path d="M125.68 73.1662C128.371 71.8552 128.222 69.5244 125.53 68.2133C122.839 66.9022 118.354 66.9022 115.662 68.2133C112.971 69.5244 112.971 71.7095 115.812 73.1662C118.503 74.4773 122.989 74.4773 125.68 73.1662Z" fill="#B62C2C" stroke="#323232" stroke-width="0.6" stroke-miterlimit="10"/>
<path d="M33.6075 44.4941L26.1605 44.8537V69.5208C26.1605 69.7005 26.1605 69.8803 26.1605 70.0601C26.3125 70.5994 26.6165 70.9589 27.2244 71.4982C28.7442 72.397 31.1758 72.397 32.5436 71.4982C32.9996 71.1387 33.4555 70.9589 33.6075 70.4196V70.2398V44.4941Z" fill="#B62C2C" stroke="#323232" stroke-width="0.6" stroke-miterlimit="10" stroke-linecap="round" stroke-linejoin="round"/>
<path d="M124.833 44.4941L117.386 44.8537V69.5208C117.386 69.7005 117.386 69.8803 117.386 70.0601C117.538 70.5994 117.842 70.9589 118.45 71.4982C119.969 72.397 122.401 72.397 123.769 71.4982C124.225 71.1387 124.681 70.9589 124.833 70.4196V70.2398V44.4941Z" fill="#B62C2C" stroke="#323232" stroke-width="0.6" stroke-miterlimit="10" stroke-linecap="round" stroke-linejoin="round"/>
<path d="M117.844 61.4453L32.4035 61.6701L1.25906 42.577L29.3549 25.353L122.438 25.3527L150.104 42.5693L117.844 61.4453Z" fill="#F7F3E9" stroke="#323232" stroke-width="0.6"/>
<path d="M32.0194 57.1638H118.2V61.4461H32.0194V57.1638Z" fill="#F7F3E9" stroke="#323232" stroke-width="0.6"/>
<path d="M122.249 25.5699V21.3894L149.81 38.1136V42.2941L122.249 25.5699ZM1.90413 42.4344V38.2538L29.4648 21.5297V25.7102L1.90413 42.4344Z" fill="#F7F3E9" stroke="#323232" stroke-width="0.6"/>
<path d="M31.9941 61.2116L1.55989 42.6582V38.4786L31.9941 57.0319V61.2116Z" fill="#FAF9F5" stroke="#323232" stroke-width="0.6"/>
<path d="M118.226 61.2215L149.809 42.655V38.4687L118.226 57.0351V61.2215Z" fill="#FAF9F5" stroke="#323232" stroke-width="0.6"/>
<path d="M29.5379 21.1564H122.223V25.4388H29.5379V21.1564Z" fill="#F7F3E9" stroke="#323232" stroke-width="0.6"/>
<path d="M117.844 57.7588L32.4035 57.9835L1.25906 38.8905L29.3549 21.6665L122.438 21.6662L150.104 38.8828L117.844 57.7588Z" fill="#F7F3E9" stroke="#323232" stroke-width="0.6"/>
<path d="M31.6798 54.7214H118.531V59.0037H31.6798V54.7214Z" fill="#F7F3E9" stroke="#323232" stroke-width="0.6"/>
<path d="M122.607 23.1274V18.9454L150.385 35.6723V39.8543L122.607 23.1274ZM1.33241 39.9946V35.8126L29.1106 19.0857V23.2676L1.33241 39.9946Z" fill="#FAF9F5" stroke="#323232" stroke-width="0.6"/>
<path d="M31.6591 58.7718L0.985242 40.2157V36.0345L31.6591 54.5907V58.7718Z" fill="#FAF9F5" stroke="#323232" stroke-width="0.6"/>
<path d="M118.552 58.7816L150.384 40.2125V36.0248L118.552 54.5939V58.7816Z" fill="#FAF9F5" stroke="#323232" stroke-width="0.6"/>
<path d="M29.1792 18.7146H122.585V22.9969H29.1792V18.7146Z" fill="#F7F3E9" stroke="#323232" stroke-width="0.6"/>
<path d="M37.1073 43.5059V37.6943L46.9582 37.6944V43.5059L37.1073 43.5059Z" fill="#F7F3E9" stroke="#323232" stroke-width="0.6"/>
<path d="M37.6368 37.6948L20.6891 29.5586H28.7393L46.9581 37.6948H37.6368Z" fill="#F7F3E9" stroke="#323232" stroke-width="0.6"/>
<path d="M20.6891 35.4336V29.5586L37.1072 37.6948V43.5064L20.6891 35.4336Z" fill="#FAF9F5" stroke="#323232" stroke-width="0.6"/>
<path d="M36.0129 29.5586H32.7293V33.6855C32.7293 33.7209 32.7293 33.7563 32.7293 33.7917C32.7963 33.898 32.9091 33.9688 33.1771 34.075C33.8472 34.2521 34.9407 34.2521 35.5438 34.075C35.7449 34.0042 35.9459 33.9688 36.0129 33.8626V33.8271V29.5586Z" fill="#B62C2C" stroke="#323232" stroke-width="0.6" stroke-miterlimit="10" stroke-linecap="round" stroke-linejoin="round"/>
<path d="M35.5555 29.7961C36.1884 29.5793 36.1532 29.1939 35.5203 28.9771C34.8874 28.7603 33.8326 28.7603 33.1997 28.9771C32.5668 29.1939 32.5668 29.5552 33.2348 29.7961C33.8677 30.037 34.9226 30.037 35.5555 29.7961Z" fill="#B62C2C" stroke="#323232" stroke-width="0.6" stroke-miterlimit="10"/>
<path d="M114.82 43.5059V37.6943L104.969 37.6944V43.5059L114.82 43.5059Z" fill="#F7F3E9" stroke="#323232" stroke-width="0.6"/>
<path d="M114.29 37.6948L131.238 29.5586H123.188L104.969 37.6948H114.29Z" fill="#F7F3E9" stroke="#323232" stroke-width="0.6"/>
<path d="M131.238 35.4336V29.5586L114.82 37.6948V43.5064L131.238 35.4336Z" fill="#FAF9F5" stroke="#323232" stroke-width="0.6"/>
<path d="M115.914 29.5586H119.198V33.6855C119.198 33.7209 119.198 33.7563 119.198 33.7917C119.131 33.898 119.018 33.9688 118.75 34.075C118.08 34.2521 116.986 34.2521 116.383 34.075C116.182 34.0042 115.981 33.9688 115.914 33.8626V33.8271V29.5586Z" fill="#B62C2C" stroke="#323232" stroke-width="0.6" stroke-miterlimit="10" stroke-linecap="round" stroke-linejoin="round"/>
<path d="M116.372 29.7961C115.739 29.5793 115.774 29.1939 116.407 28.9771C117.04 28.7603 118.095 28.7603 118.727 28.9771C119.36 29.1939 119.36 29.5552 118.692 29.7961C118.059 30.037 117.005 30.037 116.372 29.7961Z" fill="#B62C2C" stroke="#323232" stroke-width="0.6" stroke-miterlimit="10"/>
<rect x="45.078" y="29.967" width="61.7681" height="17.1931" fill="#F7F3E9" stroke="#323232" stroke-width="0.6"/>
<rect x="94.414" y="33.9206" width="8.70868" height="2.36552" fill="#B62C2C" stroke="#323232" stroke-width="0.6"/>
<rect x="94.414" y="40.84" width="8.70868" height="2.36552" fill="#B62C2C" stroke="#323232" stroke-width="0.6"/>
<rect x="71.1422" y="33.9206" width="9.63954" height="2.36552" fill="#B62C2C" stroke="#323232" stroke-width="0.6"/>
<rect x="71.1422" y="40.84" width="9.63954" height="2.36552" fill="#B62C2C" stroke="#323232" stroke-width="0.6"/>
<rect x="48.8015" y="33.9206" width="8.70868" height="2.36552" fill="#B62C2C" stroke="#323232" stroke-width="0.6"/>
<rect x="48.8015" y="40.84" width="8.70868" height="2.36552" fill="#B62C2C" stroke="#323232" stroke-width="0.6"/>
<path d="M45.2959 30.3551L50.6216 21.07H102.418L106.678 30.3551H45.2959Z" fill="#F7F3E9" stroke="#323232" stroke-width="0.6"/>
<path d="M85.736 15.9188L63.3952 15.8271V24.5834C63.3952 24.727 63.3952 24.8705 63.3952 25.0141C63.8606 25.4447 64.7915 25.7318 66.6532 26.1624C71.3076 26.8802 78.7545 26.8802 82.9434 26.1624C84.3397 25.8753 85.2706 25.5883 85.736 25.3012V15.9188Z" fill="#FAF9F5" stroke="#323232" stroke-width="0.6" stroke-miterlimit="10" stroke-linecap="round" stroke-linejoin="round"/>
<path d="M82.6236 17.3434C86.9297 16.7903 86.6904 15.8069 82.3844 15.2537C78.0783 14.7006 70.9015 14.7006 66.5955 15.2537C62.2894 15.8069 62.2894 16.7288 66.8347 17.3434C71.1408 17.958 78.3175 17.958 82.6236 17.3434Z" fill="#F7F3E9" stroke="#323232" stroke-width="0.6" stroke-miterlimit="10"/>
<path d="M79.22 1.98779L70.8422 2.23627V14.9829C70.8422 15.1071 70.8422 15.2314 70.8422 15.3556C71.0131 15.7283 71.3008 15.9768 71.9847 16.3495C73.6945 16.9707 76.4844 16.9707 78.0231 16.3495C78.5361 16.101 79.049 15.9768 79.22 15.6041V15.4798V1.98779Z" fill="#B62C2C" stroke="#323232" stroke-width="0.6" stroke-miterlimit="10" stroke-linecap="round" stroke-linejoin="round"/>
<path d="M78.0528 2.66971C79.6676 2.30094 79.5779 1.64535 77.9631 1.27658C76.3483 0.907808 73.657 0.907808 72.0423 1.27658C70.4275 1.64535 70.4275 2.25996 72.132 2.66971C73.7467 3.07945 76.438 3.07945 78.0528 2.66971Z" fill="#B62C2C" stroke="#323232" stroke-width="0.6" stroke-miterlimit="10"/>
<path d="M77.3814 1.83485C78.6374 1.65047 78.5676 1.32267 77.3116 1.13829C76.0557 0.953904 73.9625 0.953904 72.7065 1.13829C71.4506 1.32267 71.4506 1.62998 72.7763 1.83485C74.0323 2.03973 76.1255 2.03973 77.3814 1.83485Z" fill="#F7F3E9" stroke="#323232" stroke-width="0.6" stroke-miterlimit="10"/>
</svg>
