<svg width="150" height="90" viewBox="0 0 150 90" fill="none" xmlns="http://www.w3.org/2000/svg">
<path d="M127.23 87.4801L2.1698 32.5217L4.23775 31.9775L129.298 86.9359L127.23 87.4801Z" fill="#F7F3E9" stroke="#323232" stroke-width="0.4"/>
<path d="M141.604 80.5338L16.5435 25.5754L18.6114 25.0312L143.672 79.9897L141.604 80.5338Z" fill="#F7F3E9" stroke="#323232" stroke-width="0.4"/>
<path d="M127.229 89.6563L2.41394 34.2779V32.6455L127.229 87.4798V89.6563Z" fill="#F7F3E9" stroke="#323232" stroke-width="0.4"/>
<path d="M141.603 82.7101L16.7882 27.3317V25.6992L141.603 80.5335V82.7101Z" fill="#F7F3E9" stroke="#323232" stroke-width="0.4"/>
<path d="M57.465 54.3604C58.7936 53.1425 58.7198 50.9772 57.3911 49.7592C56.0625 48.5412 53.8482 48.5412 52.5195 49.7592C51.1909 50.9772 51.1909 53.0071 52.5933 54.3604C53.922 55.7138 56.1363 55.7138 57.465 54.3604Z" fill="#B62C2C" stroke="#323232" stroke-width="0.6" stroke-miterlimit="10"/>
<path d="M56.4707 53.6106C57.2679 52.7986 57.2236 51.3551 56.4264 50.5431C55.6293 49.7311 54.3006 49.7311 53.5035 50.5431C52.7063 51.3551 52.7063 52.7084 53.5478 53.6106C54.3449 54.5128 55.6735 54.5128 56.4707 53.6106Z" fill="#F7F3E9" stroke="#323232" stroke-width="0.6" stroke-miterlimit="10"/>
<path d="M124.162 83.6163C125.491 82.3983 125.417 80.233 124.088 79.015C122.76 77.7971 120.545 77.7971 119.217 79.015C117.888 80.233 117.888 82.263 119.29 83.6163C120.619 84.9696 122.833 84.9696 124.162 83.6163Z" fill="#B62C2C" stroke="#323232" stroke-width="0.6" stroke-miterlimit="10"/>
<path d="M123.168 82.8664C123.965 82.0545 123.921 80.6109 123.123 79.7989C122.326 78.9869 120.998 78.9869 120.2 79.7989C119.403 80.6109 119.403 81.9642 120.245 82.8664C121.042 83.7686 122.371 83.7686 123.168 82.8664Z" fill="#F7F3E9" stroke="#323232" stroke-width="0.6" stroke-miterlimit="10"/>
<path d="M47.8144 50.0074C49.1431 48.7894 49.0692 46.6241 47.7406 45.4062C46.412 44.1882 44.1976 44.1882 42.869 45.4062C41.5404 46.6241 41.5404 48.6541 42.9428 50.0074C44.2715 51.3607 46.4858 51.3607 47.8144 50.0074Z" fill="#B62C2C" stroke="#323232" stroke-width="0.6" stroke-miterlimit="10"/>
<path d="M46.8197 49.2571C47.6169 48.4451 47.5726 47.0015 46.7754 46.1896C45.9783 45.3776 44.6496 45.3776 43.8525 46.1896C43.0553 47.0015 43.0553 48.3549 43.8968 49.2571C44.6939 50.1593 46.0225 50.1593 46.8197 49.2571Z" fill="#F7F3E9" stroke="#323232" stroke-width="0.6" stroke-miterlimit="10"/>
<path d="M114.512 79.2633C115.84 78.0453 115.767 75.88 114.438 74.662C113.109 73.444 110.895 73.444 109.566 74.662C108.238 75.88 108.238 77.91 109.64 79.2633C110.969 80.6166 113.183 80.6166 114.512 79.2633Z" fill="#B62C2C" stroke="#323232" stroke-width="0.6" stroke-miterlimit="10"/>
<path d="M113.517 78.5129C114.314 77.7009 114.27 76.2574 113.473 75.4454C112.676 74.6334 111.347 74.6334 110.55 75.4454C109.753 76.2574 109.753 77.6107 110.594 78.5129C111.391 79.4151 112.72 79.4151 113.517 78.5129Z" fill="#F7F3E9" stroke="#323232" stroke-width="0.6" stroke-miterlimit="10"/>
<path d="M25.7562 40.2125C27.0848 38.9945 27.011 36.8292 25.6824 35.6112C24.3538 34.3933 22.1394 34.3933 20.8108 35.6112C19.4822 36.8292 19.4822 38.8592 20.8846 40.2125C22.2132 41.5658 24.4276 41.5658 25.7562 40.2125Z" fill="#B62C2C" stroke="#323232" stroke-width="0.6" stroke-miterlimit="10"/>
<path d="M24.7615 39.4626C25.5587 38.6506 25.5144 37.2071 24.7172 36.3951C23.92 35.5831 22.5914 35.5831 21.7942 36.3951C20.9971 37.2071 20.9971 38.5604 21.8385 39.4626C22.6357 40.3648 23.9643 40.3648 24.7615 39.4626Z" fill="#F7F3E9" stroke="#323232" stroke-width="0.6" stroke-miterlimit="10"/>
<path d="M92.4537 69.4684C93.7823 68.2504 93.7085 66.0851 92.3799 64.8671C91.0513 63.6491 88.8369 63.6491 87.5083 64.8671C86.1797 66.0851 86.1797 68.115 87.5821 69.4684C88.9107 70.8217 91.1251 70.8217 92.4537 69.4684Z" fill="#B62C2C" stroke="#323232" stroke-width="0.6" stroke-miterlimit="10"/>
<path d="M91.459 68.7185C92.2562 67.9065 92.2119 66.463 91.4147 65.651C90.6175 64.839 89.2889 64.839 88.4917 65.651C87.6946 66.463 87.6946 67.8163 88.536 68.7185C89.3332 69.6207 90.6618 69.6207 91.459 68.7185Z" fill="#F7F3E9" stroke="#323232" stroke-width="0.6" stroke-miterlimit="10"/>
<path d="M16.1058 35.8595C17.4344 34.6415 17.3606 32.4762 16.032 31.2582C14.7034 30.0402 12.489 30.0402 11.1604 31.2582C9.83178 32.4762 9.83178 34.5062 11.2342 35.8595C12.5628 37.2128 14.7772 37.2128 16.1058 35.8595Z" fill="#B62C2C" stroke="#323232" stroke-width="0.6" stroke-miterlimit="10"/>
<path d="M15.1112 35.1091C15.9084 34.2971 15.8641 32.8536 15.0669 32.0416C14.2698 31.2296 12.9411 31.2296 12.144 32.0416C11.3468 32.8536 11.3468 34.2069 12.1883 35.1091C12.9854 36.0113 14.314 36.0113 15.1112 35.1091Z" fill="#F7F3E9" stroke="#323232" stroke-width="0.6" stroke-miterlimit="10"/>
<path d="M82.8032 65.1158C84.1318 63.8978 84.058 61.7325 82.7294 60.5146C81.4008 59.2966 79.1864 59.2966 77.8578 60.5146C76.5292 61.7325 76.5292 63.7625 77.9316 65.1158C79.2602 66.4691 81.4746 66.4691 82.8032 65.1158Z" fill="#B62C2C" stroke="#323232" stroke-width="0.6" stroke-miterlimit="10"/>
<path d="M81.8087 64.366C82.6059 63.554 82.5616 62.1104 81.7644 61.2984C80.9673 60.4865 79.6387 60.4865 78.8415 61.2984C78.0443 62.1104 78.0443 63.4637 78.8858 64.366C79.6829 65.2682 81.0116 65.2682 81.8087 64.366Z" fill="#F7F3E9" stroke="#323232" stroke-width="0.6" stroke-miterlimit="10"/>
<path d="M0.653054 29.546L0.818952 9.58209L61.5719 36.5249V57.0865L0.653054 29.546Z" fill="#FAF9F5" stroke="#323232" stroke-width="0.6"/>
<path d="M61.4826 57.0947V37.6106L82.2515 28.0911V48.104L61.4826 57.0947Z" fill="#F7F3E9" stroke="#323232" stroke-width="0.6"/>
<path d="M67.35 58.8028L67.5159 38.8389L128.269 65.7817V86.3434L67.35 58.8028Z" fill="#FAF9F5" stroke="#323232" stroke-width="0.6"/>
<path d="M3.58192 28.8812L3.74621 13.7708L7.19843 15.3039V30.4744L3.58192 28.8812ZM11.0817 32.6447L11.246 17.5343L14.6982 19.0673V34.2379L11.0817 32.6447ZM21.6741 22.0141V37.1847L18.0576 35.5914L18.2219 20.481L21.6741 22.0141ZM24.868 38.6303L25.0323 23.5198L28.4845 25.0529V40.2235L24.868 38.6303ZM35.4604 27.9997V43.1703L31.8439 41.577L32.0082 26.4666L35.4604 27.9997ZM38.6544 44.7068L38.8187 29.5964L42.2709 31.1294V46.3L38.6544 44.7068ZM49.1641 34.3488V49.5193L45.5476 47.9261L45.7118 32.8157L49.1641 34.3488ZM52.3521 50.8117L52.5164 35.7013L55.9686 37.2344V52.4049L52.3521 50.8117Z" fill="#F7F3E9" stroke="#323232" stroke-width="0.6"/>
<path d="M70.2791 58.1371L70.4434 43.0266L73.8956 44.5597V59.7303L70.2791 58.1371ZM77.7788 61.9005L77.9431 46.7901L81.3953 48.3232V63.4938L77.7788 61.9005ZM88.3712 51.27V66.4405L84.7547 64.8473L84.919 49.7369L88.3712 51.27ZM91.5652 67.8861L91.7295 52.7757L95.1817 54.3088V69.4793L91.5652 67.8861ZM102.158 57.2555V72.4261L98.5411 70.8329L98.7054 55.7225L102.158 57.2555ZM105.352 73.9626L105.516 58.8522L108.968 60.3853V75.5559L105.352 73.9626ZM115.861 63.6046V78.7752L112.245 77.182L112.409 62.0716L115.861 63.6046ZM119.049 80.0676L119.213 64.9571L122.666 66.4902V81.6608L119.049 80.0676Z" fill="#F7F3E9" stroke="#323232" stroke-width="0.6"/>
<path d="M128.18 86.3515V66.8675L148.949 57.3479V77.3608L128.18 86.3515Z" fill="#F7F3E9" stroke="#323232" stroke-width="0.6"/>
<path d="M127.156 89.7263V87.5878L129.542 86.9208V88.9661L127.156 89.7263Z" fill="#F7F3E9" stroke="#323232" stroke-width="0.4"/>
<path d="M141.53 82.7795V80.641L143.916 79.974V82.0193L141.53 82.7795Z" fill="#F7F3E9" stroke="#323232" stroke-width="0.4"/>
<path d="M1.0676 9.52971L21.514 0.293143L82.6955 28.1683L61.8737 37.7123L1.0676 9.52971Z" fill="#F7F3E9" stroke="#323232" stroke-width="0.6"/>
<path d="M67.765 38.7861L88.2114 29.5495L149.393 57.4247L128.571 66.9686L67.765 38.7861Z" fill="#F7F3E9" stroke="#323232" stroke-width="0.6"/>
<path d="M4.92662 9.35641L21.7273 2.02241L77.8737 28.1671L61.8715 35.5359L4.92662 9.35641Z" fill="#F7F3E9" stroke="#323232" stroke-width="0.6"/>
<path d="M71.624 38.6132L88.4247 31.2792L144.571 57.424L128.569 64.7927L71.624 38.6132Z" fill="#F7F3E9" stroke="#323232" stroke-width="0.6"/>
<path d="M21.8917 9.12256L12.9305 12.9316L61.8721 35.2415L70.8332 31.4325L21.8917 9.12256Z" fill="#B62C2C" stroke="#323232" stroke-width="0.6"/>
<path d="M88.5884 38.3794L79.6273 42.1884L128.569 64.4983L137.53 60.6893L88.5884 38.3794Z" fill="#B62C2C" stroke="#323232" stroke-width="0.6"/>
<path d="M21.8916 2.04932V9.12319" stroke="#323232" stroke-width="0.6"/>
<path d="M88.5889 31.3052V38.379" stroke="#323232" stroke-width="0.6"/>
<path d="M141.479 80.5522C141.736 80.9718 142.193 80.9485 142.45 80.5289C142.707 80.1094 142.707 78.9603 142.45 78.5408C142.193 78.1213 141.764 78.1213 141.479 78.5641C141.193 78.9836 141.193 80.1327 141.479 80.5522Z" fill="#B62C2C" stroke="#323232" stroke-width="0.6" stroke-miterlimit="10"/>
<path d="M143.599 81.7507V79.0112L142.021 78.229C141.97 78.229 141.919 78.229 141.867 78.229C141.713 78.2823 141.611 78.372 141.457 78.5852C141.2 79.1182 141.008 79.9258 141.264 80.4056C141.367 80.5655 141.436 80.7876 141.59 80.8409L143.599 81.7507Z" fill="#B62C2C" stroke="#323232" stroke-width="0.6" stroke-miterlimit="10" stroke-linecap="round" stroke-linejoin="round"/>
<path d="M143.332 81.4941C143.589 81.9137 144.046 81.8904 144.303 81.4708C144.561 81.0513 144.561 79.9022 144.303 79.4827C144.046 79.0632 143.618 79.0632 143.332 79.506C143.046 79.9255 143.046 81.0746 143.332 81.4941Z" fill="#B62C2C" stroke="#323232" stroke-width="0.6" stroke-miterlimit="10"/>
<path d="M137.342 81.6406C137.6 82.0601 138.057 82.0368 138.314 81.6173C138.571 81.1978 138.571 80.0487 138.314 79.6292C138.057 79.2096 137.628 79.2096 137.342 79.6525C137.057 80.072 137.057 81.2211 137.342 81.6406Z" fill="#B62C2C" stroke="#323232" stroke-width="0.6" stroke-miterlimit="10"/>
<path d="M139.463 82.839V80.0996L137.885 79.3174C137.834 79.3174 137.783 79.3174 137.731 79.3174C137.577 79.3707 137.474 79.4604 137.32 79.6736C137.064 80.2066 136.871 81.0142 137.128 81.494C137.231 81.6539 137.3 81.876 137.454 81.9293L139.463 82.839Z" fill="#B62C2C" stroke="#323232" stroke-width="0.6" stroke-miterlimit="10" stroke-linecap="round" stroke-linejoin="round"/>
<path d="M139.196 82.582C139.453 83.0016 139.91 82.9782 140.167 82.5587C140.424 82.1392 140.424 80.9901 140.167 80.5706C139.91 80.1511 139.481 80.1511 139.196 80.5939C138.91 81.0134 138.91 82.1625 139.196 82.582Z" fill="#B62C2C" stroke="#323232" stroke-width="0.6" stroke-miterlimit="10"/>
</svg>
